<svg width="50" height="50" viewBox="0 0 50 50" fill="none" xmlns="http://www.w3.org/2000/svg">
<g clip-path="url(#clip0_199_351)">
<path d="M25.0001 50C27.1601 50 29.0251 48.7177 29.8771 46.875H20.123C20.9751 48.7177 22.8401 50 25.0001 50Z" fill="#66170E"/>
<path d="M23.5351 37.1092V25.2627C20.196 24.673 17.6757 22.1083 17.6757 19.0429C17.6757 18.2339 18.3316 17.578 19.1406 17.578C19.9495 17.578 20.6054 18.2339 20.6054 19.0429C20.6054 20.5281 21.8301 21.7945 23.5351 22.2648V1.00117C22.5296 0.357224 21.3495 0 20.1171 0C17.0366 0 14.4088 2.2243 13.8736 5.22634C10.346 6.25797 7.91016 9.48442 7.91016 13.1835C7.91016 15.1614 8.61035 17.0517 9.891 18.5546C8.61045 20.0575 7.91016 21.9477 7.91016 23.9256C7.91016 27.6248 10.346 30.8512 13.8736 31.8828C14.4088 34.8848 17.0366 37.1092 20.1171 37.1092H23.5351Z" fill="#66170E"/>
<path d="M17.6758 41.5039C17.6758 42.8522 18.7688 43.9453 20.1172 43.9453H29.8828C31.2312 43.9453 32.3242 42.8522 32.3242 41.5039V40.0391H17.6758V41.5039Z" fill="#66170E"/>
<path d="M36.1263 5.22634C35.5912 2.2244 32.9634 0 29.8828 0C28.6504 0 27.4703 0.357224 26.4648 1.00117V11.8465C29.8039 12.4363 32.3242 15.001 32.3242 18.0664C32.3242 18.8754 31.6683 19.5312 30.8593 19.5312C30.0504 19.5312 29.3945 18.8754 29.3945 18.0664C29.3945 16.5812 28.1698 15.3148 26.4648 14.8444V37.1093H29.8828C32.9633 37.1093 35.5912 34.885 36.1263 31.8829C39.6539 30.8513 42.0898 27.6248 42.0898 23.9257C42.0898 21.9478 41.3896 20.0576 40.109 18.5547C41.3896 17.0518 42.0898 15.1615 42.0898 13.1836C42.0899 9.48442 39.6539 6.25807 36.1263 5.22634Z" fill="#66170E"/>
<path d="M45.6065 8.30124C45.1332 8.30124 44.6686 8.07214 44.3863 7.6487C43.9375 6.97556 44.1195 6.06608 44.7926 5.61735L47.7223 3.66423C48.3954 3.2153 49.3049 3.39733 49.7537 4.07048C50.2024 4.74362 50.0205 5.65309 49.3473 6.10183L46.4176 8.05495C46.168 8.22145 45.8857 8.30124 45.6065 8.30124Z" fill="#66170E"/>
<path d="M48.5335 32.7151C48.2543 32.7151 47.972 32.6355 47.7223 32.469L44.7926 30.5158C44.1195 30.0671 43.9375 29.1576 44.3863 28.4845C44.8351 27.8112 45.7447 27.6295 46.4176 28.0782L49.3473 30.0314C50.0205 30.4801 50.2024 31.3896 49.7537 32.0627C49.4714 32.486 49.0069 32.7151 48.5335 32.7151Z" fill="#66170E"/>
<path d="M4.39341 8.30112C4.11421 8.30112 3.83188 8.22144 3.58218 8.05493L0.65249 6.10181C-0.0206544 5.65308 -0.202588 4.7436 0.246142 4.07046C0.694971 3.39722 1.60454 3.21538 2.27749 3.66421L5.20718 5.61733C5.88032 6.06607 6.06226 6.97554 5.61353 7.64868C5.3313 8.07202 4.86675 8.30112 4.39341 8.30112Z" fill="#66170E"/>
<path d="M1.46636 32.7153C0.993017 32.7153 0.528467 32.4862 0.246142 32.0628C-0.202588 31.3896 -0.0206544 30.4801 0.65249 30.0314L3.58218 28.0783C4.25522 27.6294 5.16479 27.8114 5.61353 28.4845C6.06226 29.1577 5.88032 30.0672 5.20718 30.5159L2.27749 32.469C2.02788 32.6355 1.74556 32.7153 1.46636 32.7153Z" fill="#66170E"/>
<path d="M4.39453 19.5312H1.46484C0.655859 19.5312 0 18.8754 0 18.0664C0 17.2574 0.655859 16.6016 1.46484 16.6016H4.39453C5.20352 16.6016 5.85938 17.2574 5.85938 18.0664C5.85938 18.8754 5.20352 19.5312 4.39453 19.5312Z" fill="#66170E"/>
<path d="M48.5352 19.5312H45.6055C44.7965 19.5312 44.1406 18.8754 44.1406 18.0664C44.1406 17.2574 44.7965 16.6016 45.6055 16.6016H48.5352C49.3441 16.6016 50 17.2574 50 18.0664C50 18.8754 49.3441 19.5312 48.5352 19.5312Z" fill="#66170E"/>
</g>
<defs>
<clipPath id="clip0_199_351">
<rect width="50" height="50" fill="white"/>
</clipPath>
</defs>
</svg>
