<svg width="50" height="50" viewBox="0 0 50 50" fill="none" xmlns="http://www.w3.org/2000/svg">
<g clip-path="url(#clip0_199_384)">
<path d="M25 34.9609C27.9124 34.9609 30.2734 32.5999 30.2734 29.6875C30.2734 26.7751 27.9124 24.4141 25 24.4141C22.0876 24.4141 19.7266 26.7751 19.7266 29.6875C19.7266 32.5999 22.0876 34.9609 25 34.9609Z" fill="#66170E"/>
<path d="M40.2344 36.9141C42.8232 36.9141 44.9219 34.8154 44.9219 32.2266C44.9219 29.6377 42.8232 27.5391 40.2344 27.5391C37.6455 27.5391 35.5469 29.6377 35.5469 32.2266C35.5469 34.8154 37.6455 36.9141 40.2344 36.9141Z" fill="#66170E"/>
<path d="M9.76562 36.9141C12.3545 36.9141 14.4531 34.8154 14.4531 32.2266C14.4531 29.6377 12.3545 27.5391 9.76562 27.5391C7.17679 27.5391 5.07812 29.6377 5.07812 32.2266C5.07812 34.8154 7.17679 36.9141 9.76562 36.9141Z" fill="#66170E"/>
<path d="M2.09707 49.9997H12.5486C12.6423 49.9988 12.7345 49.9756 12.8174 49.932C12.9003 49.8884 12.9717 49.8256 13.0256 49.749C13.0795 49.6723 13.1143 49.5839 13.1272 49.4911C13.1401 49.3983 13.1307 49.3037 13.0998 49.2153C13.0316 49.0282 12.9826 48.8346 12.9537 48.6376C12.8764 48.0961 12.8372 47.5498 12.8365 47.0028C12.8332 44.5186 13.5964 42.0938 15.0221 40.0594C15.0671 39.994 15.0984 39.9201 15.1142 39.8422C15.1299 39.7644 15.1298 39.6841 15.1138 39.6063C15.0978 39.5285 15.0662 39.4547 15.021 39.3894C14.9757 39.3241 14.9178 39.2686 14.8506 39.2262C13.4052 38.3305 11.7467 37.8373 10.0467 37.7975C8.34674 37.7578 6.66702 38.173 5.18132 39.0001C3.69563 39.8273 2.45792 41.0364 1.59626 42.5024C0.734593 43.9683 0.280264 45.6379 0.280273 47.3383C0.280633 47.7143 0.304377 48.0899 0.351367 48.4629C0.406029 48.8874 0.61335 49.2775 0.934605 49.5603C1.25586 49.8431 1.66908 49.9993 2.09707 49.9997Z" fill="#66170E"/>
<path d="M35.1647 39.2528C35.0981 39.2953 35.0406 39.3508 34.9958 39.416C34.9511 39.4811 34.9198 39.5546 34.904 39.6321C34.8882 39.7096 34.8881 39.7894 34.9038 39.8669C34.9194 39.9444 34.9505 40.018 34.9952 40.0833C36.4097 42.1131 37.1666 44.5283 37.1636 47.0024C37.163 47.5491 37.1238 48.0952 37.0464 48.6364C37.0176 48.8336 36.9685 49.0274 36.8999 49.2145C36.869 49.303 36.8596 49.3975 36.8725 49.4904C36.8854 49.5832 36.9203 49.6716 36.9741 49.7483C37.028 49.825 37.0993 49.8878 37.1823 49.9314C37.2652 49.975 37.3573 49.9983 37.4511 49.9993H47.9589C48.387 49.9992 48.8005 49.8431 49.1219 49.5603C49.4433 49.2774 49.6508 48.8872 49.7054 48.4626C49.7527 48.0896 49.7766 47.7139 49.7768 47.3379C49.7773 45.633 49.321 43.9591 48.4554 42.4902C47.5897 41.0214 46.3463 39.8114 44.8545 38.9859C43.3627 38.1605 41.677 37.7498 39.9727 37.7966C38.2684 37.8434 36.6078 38.3459 35.1636 39.252L35.1647 39.2528Z" fill="#66170E"/>
<path d="M14.0083 47.0026C14.009 47.4942 14.0442 47.9851 14.1138 48.4718C14.1737 48.8932 14.3828 49.2791 14.703 49.5594C15.0233 49.8397 15.4335 49.9959 15.8591 49.9995H34.1403C34.5658 49.9957 34.9758 49.8395 35.2959 49.5591C35.616 49.2788 35.825 48.893 35.8849 48.4718C35.9545 47.9851 35.9898 47.4942 35.9907 47.0026C35.9994 45.5537 35.7214 44.1173 35.1729 42.7762C34.6244 41.435 33.8161 40.2156 32.7946 39.1879C31.7731 38.1603 30.5585 37.3448 29.2206 36.7883C27.8828 36.2318 26.4481 35.9453 24.9991 35.9453C23.5501 35.9453 22.1155 36.2318 20.7776 36.7883C19.4398 37.3448 18.2251 38.1603 17.2036 39.1879C16.1821 40.2156 15.3738 41.435 14.8253 42.7762C14.2768 44.1173 13.9989 45.5537 14.0075 47.0026H14.0083Z" fill="#66170E"/>
<path d="M38.0269 11.2686C38.0269 15.3663 35.4332 19.1905 31.0855 21.4991C30.9705 21.5637 30.8805 21.6651 30.83 21.7869C30.7795 21.9088 30.7714 22.0441 30.807 22.1711C30.8426 22.2982 30.9198 22.4096 31.0263 22.4875C31.1327 22.5653 31.2623 22.6052 31.3941 22.6007C31.9701 22.5704 32.5439 22.5078 33.1129 22.4132L38.2535 23.8155C39.6125 24.2452 40.9808 22.6932 40.3238 21.4014C39.9965 20.7224 39.784 19.9938 39.6949 19.2452C40.472 18.5342 41.0967 17.6729 41.5311 16.7134C41.9656 15.7539 42.2007 14.7162 42.2222 13.6632C42.2222 11.0421 40.7457 8.5616 38.1676 6.85847C38.063 6.79257 37.9404 6.76116 37.817 6.76867C37.6936 6.77618 37.5757 6.82224 37.4799 6.90035C37.3841 6.97846 37.3152 7.08468 37.283 7.20402C37.2508 7.32336 37.2569 7.4498 37.3004 7.56551C37.779 8.74149 38.0258 9.99896 38.0269 11.2686Z" fill="#66170E"/>
<path d="M10.9766 18.2656C10.8692 19.2545 10.593 20.2177 10.1602 21.1133C9.40313 22.65 10.9805 24.4445 12.5977 23.9492L19.1289 22.168C20.1818 22.3486 21.2481 22.4401 22.3164 22.4414C30.3359 22.4414 36.8555 17.4297 36.8555 11.2695C36.8555 5.10937 30.3359 0.0976562 22.3164 0.0976562C14.2969 0.0976562 7.77734 5.10937 7.77734 11.2695C7.77734 13.8164 8.91016 16.2891 10.9766 18.2656ZM29.2969 9.57031C29.6445 9.57031 29.9844 9.67341 30.2735 9.86656C30.5625 10.0597 30.7878 10.3342 30.9209 10.6554C31.0539 10.9766 31.0887 11.3301 31.0209 11.6711C30.9531 12.012 30.7857 12.3253 30.5398 12.5711C30.294 12.8169 29.9808 12.9843 29.6398 13.0522C29.2988 13.12 28.9454 13.0852 28.6242 12.9521C28.303 12.8191 28.0285 12.5938 27.8353 12.3047C27.6422 12.0156 27.5391 11.6758 27.5391 11.3281C27.5391 10.8619 27.7243 10.4148 28.0539 10.0852C28.3836 9.75551 28.8307 9.57031 29.2969 9.57031ZM22.2656 9.57031C22.6133 9.57031 22.9531 9.67341 23.2422 9.86656C23.5313 10.0597 23.7566 10.3342 23.8896 10.6554C24.0227 10.9766 24.0575 11.3301 23.9897 11.6711C23.9218 12.012 23.7544 12.3253 23.5086 12.5711C23.2628 12.8169 22.9495 12.9843 22.6086 13.0522C22.2676 13.12 21.9141 13.0852 21.5929 12.9521C21.2717 12.8191 20.9972 12.5938 20.8041 12.3047C20.6109 12.0156 20.5078 11.6758 20.5078 11.3281C20.5078 10.8619 20.693 10.4148 21.0227 10.0852C21.3523 9.75551 21.7994 9.57031 22.2656 9.57031ZM15.2344 9.57031C15.582 9.57031 15.9219 9.67341 16.211 9.86656C16.5 10.0597 16.7253 10.3342 16.8584 10.6554C16.9914 10.9766 17.0262 11.3301 16.9584 11.6711C16.8906 12.012 16.7232 12.3253 16.4773 12.5711C16.2315 12.8169 15.9183 12.9843 15.5773 13.0522C15.2363 13.12 14.8829 13.0852 14.5617 12.9521C14.2405 12.8191 13.966 12.5938 13.7728 12.3047C13.5797 12.0156 13.4766 11.6758 13.4766 11.3281C13.4766 10.8619 13.6618 10.4148 13.9914 10.0852C14.3211 9.75551 14.7682 9.57031 15.2344 9.57031Z" fill="#66170E"/>
</g>
<defs>
<clipPath id="clip0_199_384">
<rect width="50" height="50" fill="white"/>
</clipPath>
</defs>
</svg>
