<svg width="50" height="50" viewBox="0 0 50 50" fill="none" xmlns="http://www.w3.org/2000/svg">
<path d="M42.1923 22.0027C40.9737 19.6553 42.7077 18.2505 42.8247 17.0373C43.3632 11.441 41.4728 8.01517 38.9037 5.30471C34.6591 0.815388 29.2013 -0.0291653 25.6285 0.000754435C16.4823 0.0673939 12.7803 2.96961 9.98003 6.09215C4.15504 12.5943 5.38722 18.3021 5.38722 18.3021C5.52595 21.6871 10.1976 27.8506 10.1976 27.8506C13.9214 33.2049 12.0922 37.3352 12.0922 37.3352C19.6117 39.0256 25.7767 49.9994 25.7767 49.9994C26.0487 48.3742 29.6623 41.5131 29.6623 41.5131C31.172 39.6145 33.7098 40.2823 35.0766 40.4496C39.003 40.9323 39.9781 39.7777 39.9781 39.7777C40.8363 39.2528 40.4297 37.0686 40.4297 37.0686C40.1155 35.9385 40.6282 35.3863 40.9478 34.9443C41.8087 33.7421 41.311 33.1845 41.311 33.1845C41.0403 32.8431 41.2226 32.6636 41.2226 32.6636C42.1691 32.3481 42.2385 31.8299 42.2385 31.8299L42.214 30.0919C42.0576 28.8978 42.5975 28.8244 42.5975 28.8244C44.7668 28.7849 44.7192 27.3801 44.7192 27.3801C44.8076 26.6076 42.1923 22.0027 42.1923 22.0027ZM25.0899 32.087C23.2947 32.087 22.0734 30.7651 22.0734 28.9998C22.0734 27.206 23.3287 25.9153 25.0899 25.9153C26.9219 25.9153 28.1092 27.2019 28.1432 28.9998C28.1445 30.7651 26.9205 32.087 25.0899 32.087ZM29.1931 19.4744C27.9378 20.8643 27.4305 22.1863 27.4645 23.7108V24.3214H22.9574L22.9234 23.4415C22.8214 21.713 23.3981 19.9518 24.9226 18.1185C26.0107 16.832 26.8906 15.7467 26.8906 14.5934C26.8906 13.4062 26.1099 12.6283 24.4153 12.5589C23.2974 12.5589 21.9415 12.9683 21.0588 13.5762L19.9069 9.88244C21.1254 9.17116 23.1614 8.49389 25.5673 8.49389C30.0431 8.49389 32.0764 10.9663 32.0764 13.7815C32.075 16.3573 30.4824 18.0533 29.1931 19.4744Z" fill="#66170E"/>
</svg>
