<svg width="100" height="100" viewBox="0 0 100 100" fill="none" xmlns="http://www.w3.org/2000/svg">
<g clip-path="url(#clip0_199_395)">
<path d="M17.5781 76.5625C24.0502 76.5625 29.2969 71.3158 29.2969 64.8438C29.2969 58.3717 24.0502 53.125 17.5781 53.125C11.106 53.125 5.85938 58.3717 5.85938 64.8438C5.85938 71.3158 11.106 76.5625 17.5781 76.5625Z" fill="#013C1D"/>
<path d="M26.3672 76.5625H8.78906C3.94258 76.5625 0 80.5051 0 85.3516V100H35.1562V85.3516C35.1562 80.5051 31.2137 76.5625 26.3672 76.5625Z" fill="#013C1D"/>
<path d="M82.4219 76.5625C88.894 76.5625 94.1406 71.3158 94.1406 64.8438C94.1406 58.3717 88.894 53.125 82.4219 53.125C75.9498 53.125 70.7031 58.3717 70.7031 64.8438C70.7031 71.3158 75.9498 76.5625 82.4219 76.5625Z" fill="#013C1D"/>
<path d="M91.2109 76.5625H73.6328C68.7863 76.5625 64.8438 80.5051 64.8438 85.3516V100H100V85.3516C100 80.5051 96.0574 76.5625 91.2109 76.5625Z" fill="#013C1D"/>
<path d="M50 23.4375C56.4721 23.4375 61.7188 18.1908 61.7188 11.7188C61.7188 5.24666 56.4721 0 50 0C43.5279 0 38.2812 5.24666 38.2812 11.7188C38.2812 18.1908 43.5279 23.4375 50 23.4375Z" fill="#013C1D"/>
<path d="M67.5781 32.2266C67.5781 27.3801 63.6355 23.4375 58.7891 23.4375H41.2109C36.3645 23.4375 32.4219 27.3801 32.4219 32.2266V47.2656H67.5781V32.2266Z" fill="#013C1D"/>
<path d="M52.9296 53.125H47.0702V67.5475L39.0737 72.1623L42.0034 77.2377L49.9999 72.6199L57.9964 77.2377L60.9261 72.1623L52.9296 67.5475V53.125Z" fill="#013C1D"/>
</g>
<defs>
<clipPath id="clip0_199_395">
<rect width="100" height="100" fill="white"/>
</clipPath>
</defs>
</svg>
