<svg width="50" height="50" viewBox="0 0 50 50" fill="none" xmlns="http://www.w3.org/2000/svg">
<g clip-path="url(#clip0_200_429)">
<path d="M10.3516 41.1133C12.7786 41.1133 14.7461 39.1458 14.7461 36.7188C14.7461 34.2917 12.7786 32.3242 10.3516 32.3242C7.92453 32.3242 5.95703 34.2917 5.95703 36.7188C5.95703 39.1458 7.92453 41.1133 10.3516 41.1133Z" fill="#66170E"/>
<path d="M11.8164 29.3945H38.1836V5.85938H11.8164V29.3945Z" fill="#66170E"/>
<path d="M50 1.46464C50 0.923914 49.7024 0.427527 49.2261 0.17284C48.7525 -0.0817503 48.1732 -0.053137 47.7226 0.245789L41.1133 4.5869V30.6666L47.7227 35.0077C48.1769 35.3104 48.7563 35.3326 49.2262 35.0807C49.7025 34.8261 50.0001 34.3297 50.0001 33.7889L50 1.46464Z" fill="#66170E"/>
<path d="M0.773926 35.0806C1.24365 35.3325 1.82324 35.3103 2.27744 35.0076L8.88672 30.6666V4.5869L2.27734 0.245789C1.82959 -0.053137 1.25029 -0.0817503 0.773926 0.17284C0.297559 0.427429 0 0.923914 0 1.46464V33.7889C0 34.3296 0.297559 34.826 0.773926 35.0806Z" fill="#66170E"/>
<path d="M4.49219 47.0703V48.5352C4.49219 49.3441 5.14805 50 5.95703 50H14.7461C15.5551 50 16.2109 49.3441 16.2109 48.5352V47.0703C16.2109 43.8342 13.5876 41.1133 10.3516 41.1133C7.11553 41.1133 4.49219 43.8341 4.49219 47.0703Z" fill="#66170E"/>
<path d="M25 41.1133C27.427 41.1133 29.3945 39.1458 29.3945 36.7188C29.3945 34.2917 27.427 32.3242 25 32.3242C22.573 32.3242 20.6055 34.2917 20.6055 36.7188C20.6055 39.1458 22.573 41.1133 25 41.1133Z" fill="#66170E"/>
<path d="M20.6055 50H29.3945C30.2035 50 30.8594 49.3441 30.8594 48.5352V47.0703C30.8594 43.8342 28.236 41.1133 25 41.1133C21.764 41.1133 19.1406 43.8342 19.1406 47.0703V48.5352C19.1406 49.3441 19.7965 50 20.6055 50Z" fill="#66170E"/>
<path d="M39.6484 41.1133C42.0755 41.1133 44.043 39.1458 44.043 36.7188C44.043 34.2917 42.0755 32.3242 39.6484 32.3242C37.2214 32.3242 35.2539 34.2917 35.2539 36.7188C35.2539 39.1458 37.2214 41.1133 39.6484 41.1133Z" fill="#66170E"/>
<path d="M33.7891 47.0703V48.5352C33.7891 49.3441 34.4449 50 35.2539 50H44.043C44.852 50 45.5078 49.3441 45.5078 48.5352V47.0703C45.5078 43.8342 42.8845 41.1133 39.6484 41.1133C36.4124 41.1133 33.7891 43.8341 33.7891 47.0703Z" fill="#66170E"/>
</g>
<defs>
<clipPath id="clip0_200_429">
<rect width="50" height="50" fill="white"/>
</clipPath>
</defs>
</svg>
