<svg width="50" height="50" viewBox="0 0 50 50" fill="none" xmlns="http://www.w3.org/2000/svg">
<g clip-path="url(#clip0_200_409)">
<path d="M3.84688 23.9964C3.76758 23.9632 3.68129 23.9501 3.59573 23.9584C3.51016 23.9667 3.42797 23.996 3.35649 24.0438C3.28502 24.0915 3.22647 24.1562 3.18608 24.2321C3.14568 24.308 3.1247 24.3927 3.125 24.4786V42.187C3.125 42.3251 3.17988 42.4576 3.27755 42.5553C3.37523 42.6529 3.5077 42.7078 3.64584 42.7078H46.3542C46.4923 42.7078 46.6248 42.6529 46.7225 42.5553C46.8201 42.4576 46.875 42.3251 46.875 42.187V24.4786C46.875 24.3929 46.8537 24.3084 46.8132 24.2328C46.7727 24.1572 46.7141 24.0928 46.6426 24.0453C46.5712 23.9977 46.4892 23.9686 46.4038 23.9604C46.3184 23.9523 46.2323 23.9653 46.1531 23.9984C45.3548 24.3215 44.4988 24.4781 43.6378 24.4586C42.7767 24.4391 41.9287 24.2439 41.1458 23.8849V38.0203C41.1458 38.5728 40.9263 39.1028 40.5356 39.4935C40.1449 39.8842 39.615 40.1036 39.0625 40.1036H33.8542V26.5703C33.8593 26.1015 33.7045 25.645 33.4153 25.2759C33.1262 24.9069 32.7199 24.6473 32.2635 24.5401C27.9802 23.6307 26.4427 32.7693 29.6875 34.3224V40.1036H22.3958V34.1724C23.0679 33.6382 23.6062 32.9547 23.9679 32.176C24.3295 31.3974 24.5046 30.5451 24.4792 29.687C24.4792 26.8109 22.6135 24.4786 20.3125 24.4786C18.0115 24.4786 16.1458 26.8109 16.1458 29.687C16.1204 30.5451 16.2955 31.3974 16.6572 32.176C17.0188 32.9547 17.5571 33.6382 18.2292 34.1724V40.1036H10.9375C10.385 40.1036 9.85507 39.8842 9.46436 39.4935C9.07366 39.1028 8.85417 38.5728 8.85417 38.0203V23.8828C8.07149 24.2425 7.22344 24.4382 6.36227 24.4577C5.5011 24.4773 4.64506 24.3202 3.84688 23.9964Z" fill="#66170E"/>
<path d="M47.3958 43.75H2.60417C1.16593 43.75 0 44.9159 0 46.3542V47.3958C0 48.8341 1.16593 50 2.60417 50H47.3958C48.8341 50 50 48.8341 50 47.3958V46.3542C50 44.9159 48.8341 43.75 47.3958 43.75Z" fill="#66170E"/>
<path d="M40.104 0H9.89567C9.205 0 8.54262 0.274367 8.05425 0.762743C7.56587 1.25112 7.2915 1.9135 7.2915 2.60417V3.64583C7.2915 3.78397 7.34638 3.91644 7.44405 4.01412C7.54173 4.11179 7.6742 4.16667 7.81234 4.16667H42.1873C42.3255 4.16667 42.4579 4.11179 42.5556 4.01412C42.6533 3.91644 42.7082 3.78397 42.7082 3.64583V2.60417C42.7082 2.26218 42.6408 1.92355 42.5099 1.6076C42.3791 1.29164 42.1873 1.00456 41.9454 0.762743C41.7036 0.520924 41.4165 0.329102 41.1006 0.19823C40.7846 0.0673588 40.446 0 40.104 0Z" fill="#66170E"/>
<path d="M48.8313 19.3844C48.8483 19.3082 48.848 19.2292 48.8303 19.1532C48.8127 19.0771 48.7782 19.006 48.7294 18.9451C48.6806 18.8842 48.6187 18.8351 48.5484 18.8013C48.478 18.7675 48.401 18.75 48.3229 18.75H1.67711C1.59907 18.75 1.52202 18.7675 1.45166 18.8013C1.38131 18.8351 1.31944 18.8842 1.27064 18.9451C1.22184 19.006 1.18735 19.0771 1.16972 19.1532C1.15208 19.2292 1.15176 19.3082 1.16878 19.3844C1.40998 20.4365 1.97212 21.3877 2.77747 22.1064C3.58281 22.8252 4.59157 23.2759 5.66425 23.3964C6.73693 23.5168 7.82054 23.301 8.76522 22.7788C9.70991 22.2565 10.469 21.4537 10.9375 20.4813C11.3602 21.3661 12.0247 22.1133 12.8542 22.6364C13.6837 23.1594 14.6444 23.437 15.625 23.437C16.6057 23.437 17.5663 23.1594 18.3958 22.6364C19.2253 22.1133 19.8899 21.3661 20.3125 20.4813C20.7352 21.3661 21.3997 22.1133 22.2292 22.6364C23.0587 23.1594 24.0194 23.437 25 23.437C25.9807 23.437 26.9413 23.1594 27.7708 22.6364C28.6003 22.1133 29.2649 21.3661 29.6875 20.4813C30.1102 21.3661 30.7747 22.1133 31.6042 22.6364C32.4337 23.1594 33.3944 23.437 34.375 23.437C35.3557 23.437 36.3163 23.1594 37.1458 22.6364C37.9753 22.1133 38.6399 21.3661 39.0625 20.4813C39.5311 21.4537 40.2901 22.2565 41.2348 22.7788C42.1795 23.301 43.2631 23.5168 44.3358 23.3964C45.4085 23.2759 46.4172 22.8252 47.2226 22.1064C48.0279 21.3877 48.5901 20.4365 48.8313 19.3844Z" fill="#66170E"/>
<path d="M11.6377 17.709H19.8408L21.0919 5.20898H15.3877L11.6377 17.709Z" fill="#66170E"/>
<path d="M27.8616 5.20898H22.1387L20.8887 17.709H29.1126L27.8616 5.20898Z" fill="#66170E"/>
<path d="M38.3624 17.709L34.6124 5.20898H28.9082L30.1592 17.709H38.3624Z" fill="#66170E"/>
<path d="M47.9169 17.709C48.0057 17.709 48.093 17.6863 48.1706 17.643C48.2481 17.5997 48.3134 17.5373 48.36 17.4618C48.4067 17.3862 48.4332 17.2999 48.4372 17.2112C48.4411 17.1225 48.4223 17.0342 48.3825 16.9548L42.6533 5.49648C42.61 5.41008 42.5435 5.33743 42.4613 5.28665C42.3791 5.23588 42.2843 5.20899 42.1877 5.20898H35.7002L39.4502 17.709H47.9169Z" fill="#66170E"/>
<path d="M2.08332 17.709H10.55L14.3 5.20898H7.81248C7.71584 5.20899 7.6211 5.23588 7.53887 5.28665C7.45664 5.33743 7.39015 5.41008 7.34686 5.49648L1.61769 16.9548C1.5779 17.0342 1.55908 17.1225 1.56301 17.2112C1.56694 17.2999 1.5935 17.3862 1.64016 17.4618C1.68682 17.5373 1.75203 17.5997 1.82959 17.643C1.90716 17.6863 1.9945 17.709 2.08332 17.709Z" fill="#66170E"/>
</g>
<defs>
<clipPath id="clip0_200_409">
<rect width="50" height="50" fill="white"/>
</clipPath>
</defs>
</svg>
