<svg width="100" height="100" viewBox="0 0 100 100" fill="none" xmlns="http://www.w3.org/2000/svg">
<g clip-path="url(#clip0_200_406)">
<path d="M71.8835 5.61172C66.1377 -0.963281 57.946 -1.77161 50.0002 3.24505C42.0543 -1.77161 33.8627 -0.959115 28.1168 5.61172C27.4502 6.37005 27.0835 7.34505 27.0835 8.35755V41.6909C27.0835 43.4284 28.1585 44.9826 29.7835 45.5909C31.4043 46.1992 33.2418 45.7451 34.3835 44.4326C38.596 39.6159 43.7877 42.0534 47.396 44.9451C48.9168 46.1617 51.0835 46.1617 52.6043 44.9451C56.2085 42.0576 61.396 39.6201 65.6168 44.4326C66.746 45.7284 68.571 46.2076 70.2168 45.5909C71.8418 44.9826 72.9168 43.4242 72.9168 41.6909V8.35755C72.9168 7.34505 72.5502 6.37005 71.8835 5.61172ZM35.4168 34.0034V10.0784C38.8293 7.18672 42.7085 8.41589 45.8335 10.4826V34.5326C43.7918 33.7659 41.7627 33.3326 39.796 33.3326C38.2918 33.3326 36.8252 33.5576 35.4168 34.0034ZM64.5835 34.0034C61.3252 32.9742 57.7668 33.1742 54.1668 34.5284V10.4784C57.2918 8.40755 61.171 7.17839 64.5835 10.0742V34.0034Z" fill="#66170E"/>
<path d="M92.7083 16.666H81.25V24.9993H91.6667V70.8327H8.33333V24.9993H18.75V16.666H7.29167C3.29167 16.666 0 19.9577 0 23.9577V80.2077C0 84.2077 3.29167 87.4994 7.29167 87.4994H39.2083C38.7083 89.5827 37.4167 92.9577 33.9583 96.4577C33.3333 97.041 33.1667 97.916 33.5 98.7077C33.8333 99.4994 34.5833 99.9994 35.4167 99.9994H64.5833C65.4167 99.9994 66.1667 99.4994 66.5 98.7077C66.8333 97.916 66.6667 97.041 66.0417 96.4577C62.5833 92.9994 61.25 89.5827 60.75 87.4994H92.7083C96.7083 87.4994 100 84.2077 100 80.2077V23.9577C100 19.9577 96.7083 16.666 92.7083 16.666Z" fill="#66170E"/>
</g>
<defs>
<clipPath id="clip0_200_406">
<rect width="100" height="100" fill="white"/>
</clipPath>
</defs>
</svg>
