<svg width="50" height="50" viewBox="0 0 50 50" fill="none" xmlns="http://www.w3.org/2000/svg">
<g clip-path="url(#clip0_200_421)">
<path d="M49.9911 16.666H0V18.7493C0 19.8544 0.438987 20.9142 1.22039 21.6956C2.00179 22.477 3.0616 22.916 4.16667 22.916H10.4167C11.5217 22.916 12.5815 22.477 13.3629 21.6956C14.1443 20.9142 14.5833 19.8544 14.5833 18.7493C14.5833 19.8544 15.0223 20.9142 15.8037 21.6956C16.5851 22.477 17.6449 22.916 18.75 22.916H31.25C32.3551 22.916 33.4149 22.477 34.1963 21.6956C34.9777 20.9142 35.4167 19.8544 35.4167 18.7493C35.4167 19.8544 35.8557 20.9142 36.6371 21.6956C37.4185 22.477 38.4783 22.916 39.5833 22.916H45.8333C46.9384 22.916 47.9982 22.477 48.7796 21.6956C49.561 20.9142 50 19.8544 50 18.7493V16.666H49.9911Z" fill="#66170E"/>
<path d="M49.4882 14.5833L45.7533 1.51042C45.6288 1.07522 45.366 0.692409 45.0046 0.41989C44.6432 0.147371 44.2028 -2.52424e-05 43.7502 3.24245e-09L34.208 3.24245e-09L37.1247 14.5833H49.4882Z" fill="#66170E"/>
<path d="M15.7924 3.24245e-09H6.25023C5.79758 -2.52424e-05 5.35724 0.147371 4.99583 0.41989C4.63441 0.692409 4.37158 1.07522 4.2471 1.51042L0.512207 14.5833H12.8757L15.7924 3.24245e-09Z" fill="#66170E"/>
<path d="M29.9589 0H20.0412L17.1245 14.5833H32.8756L29.9589 0Z" fill="#66170E"/>
<path d="M39.5835 24.9996C38.0452 25.0009 36.5609 24.4326 35.4168 23.4043C34.2727 24.4326 32.7885 25.0009 31.2502 24.9996H18.7502C17.2119 25.0009 15.7276 24.4326 14.5835 23.4043C13.4394 24.4326 11.9551 25.0009 10.4168 24.9996H4.16683C3.45665 24.9981 2.75198 24.8748 2.0835 24.635V47.9163C2.0835 48.4688 2.30299 48.9987 2.69369 49.3894C3.08439 49.7801 3.6143 49.9996 4.16683 49.9996H8.3335V31.2496C8.3335 30.6971 8.55299 30.1672 8.94369 29.7765C9.33439 29.3858 9.8643 29.1663 10.4168 29.1663H20.8335C21.386 29.1663 21.9159 29.3858 22.3066 29.7765C22.6973 30.1672 22.9168 30.6971 22.9168 31.2496V49.9996H45.8335C46.386 49.9996 46.9159 49.7801 47.3066 49.3894C47.6973 48.9987 47.9168 48.4688 47.9168 47.9163V24.635C47.2483 24.8748 46.5437 24.9981 45.8335 24.9996H39.5835ZM41.6668 37.4996C41.6668 38.0521 41.4473 38.582 41.0566 38.9727C40.6659 39.3635 40.136 39.5829 39.5835 39.5829H29.1668C28.6143 39.5829 28.0844 39.3635 27.6937 38.9727C27.303 38.582 27.0835 38.0521 27.0835 37.4996V31.2496C27.0835 30.6971 27.303 30.1672 27.6937 29.7765C28.0844 29.3858 28.6143 29.1663 29.1668 29.1663H39.5835C40.136 29.1663 40.6659 29.3858 41.0566 29.7765C41.4473 30.1672 41.6668 30.6971 41.6668 31.2496V37.4996Z" fill="#66170E"/>
</g>
<defs>
<clipPath id="clip0_200_421">
<rect width="50" height="50" fill="white"/>
</clipPath>
</defs>
</svg>
