<svg width="50" height="50" viewBox="0 0 50 50" fill="none" xmlns="http://www.w3.org/2000/svg">
<path fill-rule="evenodd" clip-rule="evenodd" d="M19.0488 20.6853C19.1799 19.7924 19.5766 18.9503 20.239 18.1589C20.7061 17.4753 21.3273 16.9061 22.0547 16.4955C22.782 16.0849 23.5959 15.8437 24.4335 15.7907C25.271 15.7377 26.1098 15.8742 26.885 16.1898C27.6601 16.5053 28.3508 16.9914 28.9038 17.6104C29.8261 17.7893 30.4222 18.4083 30.6923 19.4674C30.9128 20.3323 30.8951 21.5181 30.6392 23.0248C31.163 23.2696 31.3751 23.7464 31.2756 24.455C31.1898 25.0657 30.791 25.8849 30.079 26.9126C29.9631 28.171 29.3704 29.3412 28.418 30.1924C27.4655 31.0437 26.2224 31.5142 24.9336 31.5114C23.6447 31.5085 22.4038 31.0324 21.4553 30.1769C20.5068 29.3215 19.9196 28.1487 19.8094 26.8897C19.1703 25.8192 18.8089 24.9667 18.7254 24.3322C18.6812 24.0559 18.7036 23.7733 18.791 23.5071C18.8747 23.2616 19.0365 23.0488 19.2526 22.9001C19.0157 22.1862 18.946 21.4292 19.0488 20.6852V20.6853ZM29.1524 14.0271H20.847C20.6896 14.0272 20.5381 13.9686 20.423 13.8634C20.3079 13.7581 20.2378 13.614 20.2269 13.4601L19.4825 8.17818C19.4667 8.06653 19.483 7.95279 19.5293 7.84966C19.5757 7.74653 19.6504 7.65806 19.7451 7.59414C19.8398 7.53021 19.9507 7.49335 20.0655 7.48766C20.1803 7.48197 20.2945 7.50768 20.3953 7.56192L22.4702 8.68695L24.4629 5.30324C24.5177 5.21043 24.5967 5.13349 24.6916 5.08023C24.7866 5.02698 24.8942 4.9993 25.0037 5.00001C25.1131 5.00073 25.2203 5.0298 25.3146 5.08429C25.4088 5.13877 25.4867 5.21673 25.5403 5.31025L27.5288 8.68695L29.6038 7.56192C29.7061 7.50683 29.8222 7.48116 29.9387 7.48785C30.0553 7.49453 30.1675 7.53331 30.2626 7.59972C30.3576 7.66614 30.4316 7.75749 30.4761 7.86329C30.5206 7.96909 30.5337 8.08504 30.514 8.19783L29.7665 13.5014C29.746 13.6468 29.6725 13.78 29.5596 13.8765C29.4467 13.9729 29.302 14.026 29.1523 14.0261V14.0275L29.1524 14.0271ZM20.352 31.2835C20.2722 31.1427 20.1385 31.0388 19.9805 30.9946C19.8225 30.9504 19.6531 30.9696 19.5094 31.0478C19.4955 31.0555 19.4818 31.0636 19.4686 31.0722V31.0717C18.3169 31.8334 17.0997 32.4953 15.8308 33.05C14.7045 33.5291 13.6415 33.8419 12.6418 33.9884C12.5648 33.9993 12.4906 34.0244 12.4231 34.0622C11.5575 34.4539 10.8649 35.1383 10.4722 35.99C10.0797 36.8288 9.93187 37.8615 10.0288 39.0882L10.0303 39.1051C10.0422 39.4162 10.123 41.4589 10.2692 43.4334C10.2803 43.587 10.3503 43.7308 10.4652 43.8357C10.5801 43.9407 10.7313 43.9991 10.8884 43.9991V44H39.1115C39.2742 44 39.4305 43.9375 39.5467 43.8258C39.6629 43.714 39.7298 43.5621 39.733 43.4026C39.8807 41.3966 39.9612 39.3298 39.9703 39.0881H39.9712C40.0682 37.8615 39.9203 36.8287 39.5278 35.9899C39.1276 35.1227 38.4172 34.4292 37.5309 34.0406C37.4762 34.0155 37.4181 33.9984 37.3583 33.9898V33.9883C35.3501 33.6942 33.0745 32.722 30.5316 31.0716C30.3944 30.9826 30.2268 30.9506 30.0656 30.9828C29.9044 31.0149 29.7628 31.1085 29.672 31.243C29.6653 31.2529 29.659 31.263 29.6529 31.2731L24.7871 39.0686L20.352 31.2835Z" fill="#66170E"/>
</svg>
