<svg width="50" height="50" viewBox="0 0 50 50" fill="none" xmlns="http://www.w3.org/2000/svg">
<path d="M27.3691 19.8265C27.1886 19.6997 26.9813 19.6372 26.7774 19.6372C26.6135 19.6372 26.4514 19.6777 26.3043 19.7555C26.3043 19.7555 26.2909 19.7639 26.2708 19.7758C26.5801 20.8946 26.2959 21.6011 26.0017 21.9983L26 22H27.3457H32.4729C33.7769 22 34.2366 21.182 33.8872 19.9634L32.732 16L27.4343 19.8806C27.4126 19.862 27.3925 19.8434 27.3691 19.8265Z" fill="#66170E"/>
<path d="M35.2728 16.2586C36.9331 15.5704 37.7212 13.6665 37.033 12.0062C36.3448 10.3459 34.4409 9.5579 32.7806 10.2461C31.1203 10.9343 30.3323 12.8381 31.0205 14.4984C31.7087 16.1587 33.6125 16.9468 35.2728 16.2586Z" fill="#66170E"/>
<path d="M16.5 16.4609C18.433 16.4609 20 15.1178 20 13.4609C20 11.8041 18.433 10.4609 16.5 10.4609C14.567 10.4609 13 11.8041 13 13.4609C13 15.1178 14.567 16.4609 16.5 16.4609Z" fill="#66170E"/>
<path d="M25.5015 16.4609C24.0804 16.4609 22.8119 15.6138 22.2682 14.3009C21.9106 13.4378 21.9106 12.4873 22.2682 11.6226C22.6259 10.7595 23.2983 10.0872 24.1614 9.72797C24.589 9.54995 25.0405 9.46094 25.4999 9.46094C26.9209 9.46094 28.1894 10.3081 28.7331 11.621C29.4722 13.4028 28.6234 15.4532 26.8399 16.1923C26.4123 16.3703 25.9624 16.4609 25.5015 16.4609Z" fill="#66170E"/>
<path d="M19.217 31.7946L19.0753 31.6662C18.9052 31.5127 18.6867 31.4427 18.4716 31.4544C18.2565 31.466 18.0463 31.5578 17.8946 31.7312L16.4521 33.3388C16.4204 33.3738 16.3954 33.4121 16.3704 33.4488C16.2853 33.5822 16.2437 33.7323 16.2403 33.8824C16.237 34.1175 16.327 34.351 16.5138 34.5194L16.6556 34.6478C16.8257 34.8013 17.0441 34.8713 17.2592 34.8596C17.2842 34.858 17.3093 34.8513 17.3343 34.8479C17.4827 34.8263 17.6261 34.7646 17.7478 34.6628C17.7779 34.6378 17.8095 34.6128 17.8362 34.5828L19.2787 32.9752C19.5889 32.6334 19.5605 32.1031 19.217 31.7946Z" fill="#66170E"/>
<path d="M23.6379 35.7145L23.4962 35.5861C23.3261 35.4327 23.1076 35.3626 22.8925 35.3743C22.6774 35.386 22.4689 35.4794 22.3155 35.6511L21.1515 36.9485L20.873 37.2587C20.8697 37.262 20.8697 37.2654 20.8664 37.267C20.7713 37.3771 20.7113 37.5055 20.6813 37.6389C20.6196 37.9241 20.7029 38.2326 20.9364 38.441L21.0781 38.5694C21.2482 38.7228 21.4667 38.7929 21.6818 38.7812C21.8836 38.7695 22.0804 38.6828 22.2305 38.5294C22.2388 38.5211 22.2505 38.5127 22.2588 38.5044L22.5156 38.2176L22.8024 37.8974L23.7013 36.8968C24.0098 36.5533 23.9814 36.023 23.6379 35.7145Z" fill="#66170E"/>
<path d="M26.3511 38.0607C26.3161 37.8922 26.231 37.7305 26.0943 37.6071L25.9525 37.4787C25.7824 37.3252 25.564 37.2552 25.3489 37.2669C25.1337 37.2785 24.9253 37.3719 24.7719 37.5437L23.893 38.5242L23.6062 38.8444L23.5212 38.9378C23.4545 39.0129 23.4061 39.0962 23.3711 39.1846C23.2427 39.5015 23.316 39.8783 23.5845 40.1201L23.7263 40.2486C23.8964 40.402 24.1165 40.472 24.3299 40.4603C24.5434 40.4487 24.7535 40.3536 24.9069 40.1835L24.9753 40.1068L25.2571 39.7933L25.3622 39.6766L25.684 39.318L26.0843 38.8711L26.1576 38.7894C26.2277 38.711 26.2777 38.6226 26.3127 38.5309C26.3711 38.3792 26.3844 38.2157 26.3511 38.0607Z" fill="#66170E"/>
<path d="M22.1606 33.025L22.0188 32.8966C21.8487 32.7432 21.6303 32.6732 21.4151 32.6848C21.2017 32.6965 20.9916 32.7916 20.8398 32.9633L18.5869 35.4731L18.3834 35.7015C18.3567 35.7316 18.3351 35.7649 18.3134 35.7983C18.2317 35.92 18.1866 36.0567 18.1766 36.1968C18.1583 36.447 18.2484 36.7021 18.4485 36.8822L18.5902 37.0106C18.7603 37.164 18.9788 37.2341 19.1939 37.2224C19.359 37.2141 19.5224 37.1524 19.6575 37.0473C19.6975 37.0173 19.7359 36.9839 19.7709 36.9456L19.9543 36.7405L20.2395 36.4219L22.2256 34.2057C22.5324 33.8638 22.5041 33.3335 22.1606 33.025Z" fill="#66170E"/>
<path d="M22.1693 25.4609H22.3398C22.9533 24.8353 23.8343 24.3578 24.65 23.9808C24.8038 23.9084 26.2514 23.2333 27.9297 23.2333C28.396 23.2333 28.8457 23.2844 29.2636 23.3881C29.4542 23.4342 29.6364 23.4852 29.7952 23.5313C30.0392 23.6005 30.2916 23.6729 30.4254 23.6729C30.4387 23.6729 30.4454 23.6713 30.4454 23.6713C30.6845 23.6268 31.1943 23.3864 31.3263 23.3041L31.3531 23.286L31.3815 23.2695C31.4617 23.2251 31.7275 23.0703 32 22.9123L30.8566 19.0893C30.6209 18.2545 29.8169 17.4609 28.9075 17.4609H25.6262H22.3432C21.4338 17.4609 20.6298 18.2545 20.3941 19.0893L19.0819 23.477C19.0451 23.6021 19.0201 23.7207 19 23.8376L20.2253 24.5867C20.4409 24.6838 21.3302 25.0839 22.1693 25.4609Z" fill="#66170E"/>
<path d="M34.1252 22.3972L39 18.7821C38.6916 18.0708 38.0062 17.4609 37.2425 17.4609H34.1076H31C31.3946 17.8632 31.6806 18.3651 31.8149 18.854L32.8534 22.4609C33.0787 22.3596 33.3215 22.304 33.566 22.304C33.7561 22.304 33.9447 22.335 34.1252 22.3972Z" fill="#66170E"/>
<path d="M44 16.4609L34.1479 23.5793C34.1255 23.5604 34.1048 23.5414 34.0806 23.5242C33.894 23.395 33.6799 23.3313 33.4691 23.3313C33.2999 23.3313 33.1323 23.3726 32.9803 23.4518C32.9803 23.4518 32.9752 23.4553 32.97 23.4587C32.9665 23.4605 32.9596 23.4656 32.9527 23.4691C32.7903 23.5655 31.8887 24.096 31.7126 24.1959C31.5571 24.301 30.8973 24.6334 30.4793 24.7109C30.4223 24.7212 30.3636 24.7264 30.3032 24.7264C29.9145 24.7264 29.443 24.5352 28.8972 24.4043C28.5051 24.3061 28.1079 24.2665 27.7244 24.2665C26.1112 24.2665 24.7104 24.964 24.7104 24.964C23.89 25.3481 23.2095 25.7477 22.7345 26.1766C22.6153 26.2851 22.5082 26.3953 22.4167 26.5072C22.32 26.6261 22.2388 26.7467 22.1749 26.8689C22.0678 27.0739 22.0056 27.2875 22.0004 27.5079C21.9849 28.1624 22.408 28.7067 23.0799 28.8944C23.2302 28.9374 23.3874 28.9581 23.5394 28.9581C23.6603 28.9581 23.7794 28.9461 23.8934 28.9185C24.1128 28.8668 24.3253 28.779 24.5498 28.6877C24.8711 28.5568 25.2994 28.345 25.7848 28.2261C26.0007 28.1727 26.2286 28.1366 26.4653 28.1366C26.6656 28.1366 26.8712 28.1607 27.0802 28.2192C27.6173 28.3691 28.6053 28.9443 29.3117 29.4231C29.3705 29.4628 29.4275 29.5024 29.4827 29.5403C30.7781 30.4927 31.8473 31.6518 32.6142 32.6094C32.7126 32.7334 32.8076 32.854 32.8974 32.9694C32.9924 33.0917 33.0805 33.2105 33.1617 33.3225C33.5676 33.8771 33.8267 34.2887 33.913 34.4299C33.9251 34.4506 33.9459 34.4609 33.9666 34.4609C33.9787 34.4609 33.9908 34.4575 34.0011 34.4506C34.0909 34.3938 34.2758 34.2663 34.4899 34.0631C34.4917 34.0614 34.4934 34.0596 34.4951 34.0579C34.6644 33.8685 34.7905 33.6273 34.8993 33.5033C35.2447 33.1124 35.5954 32.8747 36.3035 32.4992L37.4141 31.9205C37.9288 31.6518 38.1309 31.0146 37.8615 30.4996L37.8563 30.4875L44 26.1576V16.4609Z" fill="#66170E"/>
<path d="M34.1252 22.3972L39 18.7821C38.6916 18.0708 38.0062 17.4609 37.2425 17.4609H34.1076H31C31.3946 17.8632 31.6806 18.3651 31.8149 18.854L32.8534 22.4609C33.0787 22.3596 33.3215 22.304 33.566 22.304C33.7561 22.304 33.9447 22.335 34.1252 22.3972Z" fill="#66170E"/>
<path d="M29.207 29.6934C28.4674 29.1903 27.5259 28.6792 27.1469 28.5777C27.0284 28.5454 26.9082 28.5293 26.778 28.5293C26.3306 28.5293 25.8865 28.7163 25.4958 28.8808C25.4057 28.9179 25.3222 28.9533 25.2404 28.9856C25.005 29.0791 24.7613 29.1758 24.4875 29.2387C24.3139 29.279 24.1336 29.2984 23.9499 29.2984C23.7245 29.2984 23.5008 29.2693 23.2821 29.2097C22.2671 28.9356 21.6027 28.0924 21.6294 27.1153C21.6377 26.7816 21.7279 26.4785 21.8715 26.1979C21.0551 25.8384 20.2053 25.4627 19.9733 25.3596C19.9332 25.3418 19.9098 25.3321 19.9098 25.3321L18.0501 24.2165C17.8414 24.0907 17.5125 23.915 17.1853 23.915C16.9866 23.915 16.7863 23.9811 16.6144 24.1632L16.5459 24.2713L11.6294 18.7041L7 13.4609V25.15L12.5376 30.5801C12.6644 30.6994 13.3306 31.2137 13.419 31.2669L15.3523 32.4197L15.3506 32.4213C15.5309 32.5342 15.7112 32.6551 15.8898 32.7809C15.9249 32.7325 15.9616 32.6841 16.0033 32.639L17.4474 31.0848C17.7062 30.8074 18.0618 30.643 18.4508 30.622C18.8381 30.6011 19.2104 30.7284 19.5025 30.9767L19.6444 31.1009C19.9316 31.3508 20.1035 31.6942 20.1235 32.0699C20.1352 32.2843 20.0952 32.4923 20.0134 32.6841L20.394 32.2746C20.6528 31.9973 21.0083 31.8329 21.3973 31.8119C21.7863 31.7926 22.1603 31.9183 22.4457 32.1698L22.5876 32.294C23.1836 32.8099 23.2337 33.6999 22.6995 34.2755L22.5109 34.4786C22.6277 34.4431 22.7496 34.419 22.8765 34.4125C23.2654 34.3932 23.6361 34.5189 23.9265 34.7688L24.0684 34.893C24.3556 35.1429 24.5259 35.4863 24.5476 35.8619C24.5659 36.2118 24.4541 36.5472 24.2304 36.8148L24.3322 36.7052C24.591 36.4279 24.9466 36.2634 25.3356 36.2424C25.7245 36.2215 26.0968 36.3489 26.3856 36.5988L26.5275 36.7229C26.9048 37.0486 27.0618 37.5242 26.9933 37.9756L27.5993 38.34C27.7362 38.4222 27.8881 38.4609 28.0384 38.4609C28.3189 38.4609 28.5943 38.3255 28.7529 38.0804L28.8531 37.9224C29.0968 37.5452 28.975 37.0437 28.5843 36.8084L27.0551 35.8893C26.6644 35.654 26.5426 35.1525 26.7863 34.7753L26.8865 34.6173C27.0451 34.3722 27.3205 34.2368 27.601 34.2368C27.7513 34.2368 27.9032 34.2755 28.0401 34.3577L29.7496 35.3847L30.1018 35.5959C30.2387 35.6781 30.3906 35.7168 30.5409 35.7168C30.8214 35.7168 31.0968 35.5814 31.2554 35.3363L31.3556 35.1783C31.5993 34.8011 31.4775 34.2996 31.0868 34.0643L29.025 32.826C28.6344 32.5906 28.5125 32.0892 28.7563 31.7119L28.8564 31.5539C29.015 31.3089 29.2905 31.1734 29.571 31.1734C29.7212 31.1734 29.8731 31.2121 30.01 31.2944L31.1002 31.9489L31.5392 32.2134C31.6761 32.2956 31.828 32.3343 31.9783 32.3343C31.9866 32.3343 31.9933 32.3327 32 32.3327C31.3022 31.4991 30.3456 30.5043 29.207 29.6934Z" fill="#66170E"/>
<path d="M19.2654 18.8812C19.39 18.4206 19.6472 17.95 20 17.5577C19.8317 17.496 19.657 17.4609 19.4757 17.4609H16.2994H13.1246C12.712 17.4609 12.322 17.6395 12 17.9149L16.3689 23.1989C16.5227 23.1472 16.6861 23.1205 16.856 23.1205C17.2929 23.1205 17.6764 23.2957 17.9628 23.4609C17.9741 23.4159 17.9838 23.3708 17.9984 23.3241L19.2654 18.8812Z" fill="#66170E"/>
</svg>
