<svg width="50" height="50" viewBox="0 0 50 50" fill="none" xmlns="http://www.w3.org/2000/svg">
<path fill-rule="evenodd" clip-rule="evenodd" d="M15.0537 23.2811L12.4656 33.2132H12.0756C9.83083 33.2132 8 31.368 8 29.1056V24.582C8 22.5611 9.64055 20.9077 11.6456 20.9077C13.1969 20.9077 14.5297 21.8975 15.0536 23.2812L15.0537 23.2811ZM11.6457 20.507C13.2608 20.507 14.5781 19.1794 14.5781 17.5516C14.5781 15.9238 13.2608 14.5962 11.6457 14.5962C10.0306 14.5962 8.71321 15.9238 8.71321 17.5516C8.71321 19.1794 10.0305 20.507 11.6457 20.507ZM26.3629 13.227H24.6372C21.9977 13.227 19.8202 15.3208 19.6581 17.9417H31.3419C31.1798 15.3208 29.0024 13.227 26.3629 13.227ZM25.5001 12.7329C27.0666 12.7329 28.3442 11.4453 28.3442 9.86647C28.3442 8.28768 27.0666 7 25.5001 7C23.9336 7 22.6559 8.28768 22.6559 9.86647C22.6559 11.4453 23.9336 12.7329 25.5001 12.7329ZM39.3544 20.9076C37.8031 20.9076 36.4703 21.8974 35.9464 23.2811L38.5344 33.2131H38.9244C41.1692 33.2131 43 31.3679 43 29.1056V24.5819C43 22.561 41.3595 20.9076 39.3543 20.9076H39.3544ZM39.3544 20.507C40.9695 20.507 42.2869 19.1794 42.2869 17.5516C42.2869 15.9238 40.9695 14.5962 39.3544 14.5962C37.7392 14.5962 36.422 15.9238 36.422 17.5516C36.422 19.1794 37.7393 20.507 39.3544 20.507ZM33.6917 19.8858C33.597 19.5221 33.2816 19.277 32.9086 19.277H18.0914C17.7184 19.277 17.403 19.5221 17.3083 19.8858L13.3823 34.952C13.3164 35.2049 13.3659 35.4506 13.5243 35.6577C13.6828 35.8648 13.906 35.9754 14.1654 35.9754H18.9781C19.7761 35.0851 20.7834 34.3888 21.9203 33.9674C21.1751 33.1182 20.7228 32.0019 20.7228 30.7794C20.7228 28.1207 22.8621 25.9647 25.5001 25.9647C28.138 25.9647 30.2774 28.1207 30.2774 30.7794C30.2774 32.0019 29.825 33.1182 29.0799 33.9674C30.2167 34.3888 31.2241 35.0851 32.022 35.9754H36.8347C37.0942 35.9754 37.3174 35.8648 37.4759 35.6577C37.6343 35.4506 37.6837 35.2049 37.6178 34.952L33.6919 19.8858H33.6917ZM26.5473 34.8496H24.4527C21.1218 34.8496 18.3966 37.5962 18.3966 40.9532V42.3846C18.3966 42.7236 18.671 43 19.0072 43H31.9927C32.329 43 32.6033 42.7235 32.6033 42.3846V40.9532C32.6033 37.5962 29.8781 34.8496 26.5473 34.8496ZM28.9523 30.7793C28.9523 28.8629 27.4015 27.2998 25.5 27.2998C23.5985 27.2998 22.0476 28.8628 22.0476 30.7793C22.0476 32.6958 23.5985 34.2588 25.5 34.2588C27.4015 34.2588 28.9523 32.6957 28.9523 30.7793Z" fill="#66170E"/>
</svg>
