<svg width="50" height="50" viewBox="0 0 50 50" fill="none" xmlns="http://www.w3.org/2000/svg">
<path d="M21.3594 20.1484C21.3594 19.1563 20.5625 18.3438 19.5781 18.3438C18.5937 18.3438 17.8047 19.1563 17.8047 20.1484V22.0391H21.3594V20.1484Z" fill="#66170E"/>
<path d="M24.8047 22.7266C25.2422 23.1562 25.4844 23.7422 25.4844 24.375C25.4844 24.5234 25.4766 24.7266 25.4141 24.9375C25.3359 25.2734 25.1406 25.8672 24.6875 26.5234H24.7031C25.6797 26.5234 26.4766 25.7344 26.4844 24.7578V21.0391V19.1797C26.4844 18.7031 26.2969 18.2578 25.9609 17.9297C25.625 17.5859 25.1797 17.4062 24.7031 17.4062C23.7188 17.4062 22.9219 18.2031 22.9219 19.1797V22.0391H23.1641C23.7734 22.0391 24.375 22.2891 24.8047 22.7266Z" fill="#66170E"/>
<path d="M29.8125 27.3203H29.8281C30.8047 27.3203 31.6016 26.5234 31.6016 25.5469V21.0391C31.6016 20.0625 30.8047 19.2656 29.8281 19.2656C28.8516 19.2656 28.0469 20.0625 28.0469 21.0313V25.5469C28.0469 26.5234 28.8359 27.3203 29.8125 27.3203Z" fill="#66170E"/>
<path d="M34.9531 22.2656C33.9609 22.2656 33.1641 23.0547 33.1641 24.0313V26.3359C33.1641 27.3125 33.9609 28.1094 34.9375 28.1094H34.9531C35.9297 28.1094 36.7266 27.3125 36.7266 26.3359V24.0313C36.7266 23.0547 35.9297 22.2656 34.9531 22.2656Z" fill="#66170E"/>
<path d="M34.9375 29.6719C33.7109 29.6719 32.6484 28.9922 32.0703 28C31.4766 28.5469 30.6953 28.8828 29.8281 28.8828H29.8125C28.5859 28.8828 27.5156 28.2031 26.9375 27.2109C26.3437 27.75 25.5625 28.0859 24.7031 28.0859C24.2578 28.0859 23.8281 27.9922 23.4375 27.8281C21.9453 29 19.8125 29.6016 17.0781 29.6016C16.6406 29.6016 16.2969 29.25 16.2969 28.8203C16.2969 28.3906 16.6406 28.0391 17.0781 28.0391C19.6328 28.0391 21.6172 27.4453 22.7969 26.3359C23.5937 25.6016 23.8359 24.8359 23.8984 24.5469C23.9141 24.4922 23.9219 24.4609 23.9219 24.375C23.9219 24.1641 23.8437 23.9688 23.7031 23.8281C23.5547 23.6875 23.3594 23.6016 23.1641 23.6016H15.7188C14.2109 23.6016 12.9844 24.8437 12.9844 26.375V27.8438C12.9844 30.2422 14.0234 32.5 15.8359 34.0469C16.8984 34.9531 17.7656 36.1016 18.3516 37.3672C18.9375 38.6563 19.2422 40.0313 19.2422 41.4453V41.9219C23.8672 43.9609 28.8359 43.9531 34.0391 41.8984V40.3047C34.0391 38.2266 34.5313 36.1484 35.4688 34.2969C36.2656 32.7031 36.6875 30.9297 36.7187 29.1563C36.2031 29.4766 35.6016 29.6719 34.9531 29.6719H34.9375ZM27.7734 37.8281C27.3437 37.8281 26.9922 37.4766 26.9922 37.0469C26.9922 33.6641 25.8906 32.3594 22.0625 31.2266C21.6484 31.1016 21.4141 30.6719 21.5391 30.2578C21.6641 29.8438 22.0937 29.6016 22.5078 29.7266C26.3359 30.8672 28.5547 32.4219 28.5547 37.0469C28.5547 37.4766 28.2031 37.8281 27.7734 37.8281Z" fill="#66170E"/>
<path d="M25 12.2266C25.4297 12.2266 25.7812 11.875 25.7812 11.4453V7.33594C25.7812 6.90625 25.4297 6.55469 25 6.55469C24.5703 6.55469 24.2188 6.90625 24.2188 7.33594V11.4453C24.2188 11.875 24.5703 12.2266 25 12.2266Z" fill="#66170E"/>
<path d="M9.53125 13.4297C9.22656 13.125 8.73437 13.125 8.42969 13.4297C8.125 13.7344 8.125 14.2266 8.42969 14.5312L11.3281 17.4375C11.4844 17.5937 11.6797 17.6641 11.8828 17.6641C12.0859 17.6641 12.2813 17.5859 12.4375 17.4375C12.7422 17.1328 12.7422 16.6406 12.4375 16.3359L9.53906 13.4297H9.53125Z" fill="#66170E"/>
<path d="M6.44531 29.2344H2.34375C1.91406 29.2344 1.5625 29.5859 1.5625 30.0156C1.5625 30.4453 1.91406 30.7969 2.34375 30.7969H6.44531C6.875 30.7969 7.22656 30.4453 7.22656 30.0156C7.22656 29.5859 6.875 29.2344 6.44531 29.2344Z" fill="#66170E"/>
<path d="M40.4687 13.4297L37.5703 16.3359C37.2656 16.6406 37.2656 17.1328 37.5703 17.4375C37.7266 17.5937 37.9219 17.6641 38.125 17.6641C38.3281 17.6641 38.5234 17.5859 38.6797 17.4375L41.5781 14.5312C41.8828 14.2266 41.8828 13.7344 41.5781 13.4297C41.2734 13.125 40.7813 13.125 40.4766 13.4297H40.4687Z" fill="#66170E"/>
<path d="M47.6562 29.2344H43.5547C43.125 29.2344 42.7734 29.5859 42.7734 30.0156C42.7734 30.4453 43.125 30.7969 43.5547 30.7969H47.6562C48.0859 30.7969 48.4375 30.4453 48.4375 30.0156C48.4375 29.5859 48.0859 29.2344 47.6562 29.2344Z" fill="#66170E"/>
</svg>
