<svg width="50" height="50" viewBox="0 0 50 50" fill="none" xmlns="http://www.w3.org/2000/svg">
<path d="M35.3723 40.1103C35.0388 39.972 34.8213 39.6464 34.8214 39.2853V29.4639C34.6487 29.4692 34.4759 29.4555 34.3063 29.4228C33.589 29.2832 32.9849 28.8027 32.6875 28.1353C32.5838 27.9128 32.3238 27.8107 32.0964 27.9032C31.825 27.9994 31.5377 28.0428 31.25 28.0308V43.9058C31.2501 44.2669 31.4676 44.5924 31.8012 44.7305C32.1348 44.8687 32.5188 44.7924 32.7741 44.5371L33.2973 44.0139C33.646 43.6653 34.2112 43.6653 34.5598 44.0139L35.083 44.5371C35.3387 44.7927 35.7234 44.8689 36.0572 44.73C36.391 44.5912 36.6082 44.2647 36.6071 43.9032V39.6549L36.3455 39.9166C36.0902 40.1721 35.7061 40.2485 35.3723 40.1103Z" fill="#66170E"/>
<path d="M39.9168 35.0828L41.9641 37.1301V28.0283C41.6761 28.0402 41.3885 27.9969 41.1168 27.9006C40.8839 27.8148 40.624 27.9219 40.5194 28.1471C40.2219 28.8069 39.6228 29.2816 38.9123 29.4203C38.7635 29.4497 38.6122 29.4646 38.4605 29.4649C37.8934 29.465 37.3475 29.2492 36.9337 28.8613C36.8449 28.7791 36.728 28.734 36.6069 28.7354V37.1283L36.8676 36.8676L38.6534 35.0819C38.821 34.9143 39.0483 34.8203 39.2852 34.8205C39.5222 34.8206 39.7494 34.915 39.9168 35.0828Z" fill="#66170E"/>
<path d="M36.6071 23.2143C39.5658 23.2143 41.9643 20.8158 41.9643 17.8571C41.9643 14.8985 39.5658 12.5 36.6071 12.5C33.6485 12.5 31.25 14.8985 31.25 17.8571C31.25 20.8158 33.6485 23.2143 36.6071 23.2143Z" fill="#66170E"/>
<path d="M31.4786 26.2272C32.5863 25.8226 33.8193 26.3331 34.317 27.4022C34.3783 27.5418 34.5046 27.6421 34.6545 27.67C34.804 27.7011 34.9592 27.6575 35.0706 27.5531C35.9393 26.7544 37.275 26.7544 38.1438 27.5531C38.2551 27.6576 38.4104 27.7013 38.5599 27.67C38.7096 27.6421 38.8357 27.5418 38.8965 27.4022C39.3951 26.3336 40.6276 25.8232 41.7358 26.2263C41.8785 26.2793 42.0381 26.2607 42.1648 26.1763C42.2915 26.0918 42.37 25.9517 42.3759 25.7995C42.4261 24.6191 43.3731 23.6744 44.5536 23.6272C44.7056 23.6212 44.8455 23.5427 44.9299 23.4163C45.0144 23.2898 45.0331 23.1305 44.9804 22.9879C44.5754 21.8799 45.0859 20.6463 46.1554 20.1486C46.2939 20.0852 46.3936 19.9592 46.4234 19.8099C46.4533 19.6605 46.4097 19.5059 46.3063 19.3941C45.5074 18.5258 45.5074 17.1901 46.3063 16.3218C46.4094 16.2101 46.4529 16.0559 46.4232 15.9068C46.3935 15.7578 46.2943 15.6319 46.1563 15.5682C45.0861 15.0712 44.575 13.8371 44.9804 12.7289C45.0332 12.5864 45.0144 12.4272 44.9299 12.3008C44.8455 12.1745 44.7055 12.0963 44.5536 12.0906C43.3746 12.0401 42.4303 11.0955 42.3804 9.91645C42.3745 9.76426 42.296 9.62414 42.1693 9.53966C42.0425 9.45518 41.883 9.43658 41.7402 9.48966C40.6325 9.89371 39.3998 9.38341 38.9018 8.31466C38.8387 8.17621 38.7128 8.07651 38.5636 8.04663C38.4144 8.01675 38.2599 8.06032 38.1483 8.16377C37.2797 8.9628 35.9436 8.9628 35.0751 8.16377C34.9637 8.06025 34.8094 8.01653 34.6603 8.04624C34.5113 8.07595 34.3855 8.17548 34.3224 8.31377C33.8234 9.38201 32.5912 9.89231 31.4831 9.48966C31.3403 9.43658 31.1808 9.45518 31.0541 9.53966C30.9273 9.62414 30.8488 9.76426 30.8429 9.91645C30.793 11.0988 29.8434 12.0446 28.6608 12.0897C28.5088 12.0957 28.3689 12.1741 28.2845 12.3006C28.2 12.427 28.1813 12.5863 28.234 12.7289C28.639 13.8369 28.1285 15.0705 27.059 15.5682C26.9205 15.6316 26.8208 15.7576 26.791 15.9069C26.7611 16.0563 26.8047 16.2109 26.9081 16.3227C27.707 17.191 27.707 18.5267 26.9081 19.395C26.805 19.5067 26.7615 19.6609 26.7912 19.81C26.8209 19.9591 26.9201 20.0849 27.0581 20.1486C28.1283 20.6457 28.6394 21.8797 28.234 22.9879C28.1812 23.1304 28.2 23.2896 28.2844 23.416C28.3689 23.5424 28.5089 23.6206 28.6608 23.6263C29.8432 23.6746 30.7906 24.6224 30.8384 25.8048C30.8444 25.957 30.9229 26.0971 31.0496 26.1816C31.1763 26.2661 31.3359 26.2847 31.4786 26.2316V26.2272ZM29.4643 17.8584C29.4643 13.9135 32.6623 10.7156 36.6072 10.7156C40.5521 10.7156 43.7501 13.9135 43.7501 17.8584C43.7501 21.8033 40.5521 25.0013 36.6072 25.0013C32.6641 24.9968 29.4688 21.8015 29.4643 17.8584Z" fill="#66170E"/>
<path d="M47.3214 4.46484H2.67857C1.19924 4.46484 0 5.66408 0 7.14342V39.2863C0 40.7656 1.19924 41.9648 2.67857 41.9648H29.4643V27.0604C29.2151 26.7105 29.0727 26.2958 29.0545 25.8666C29.0436 25.619 28.845 25.4208 28.5973 25.4104C27.8735 25.3825 27.2069 25.0094 26.8045 24.407C26.4022 23.8047 26.3128 23.046 26.5643 22.3666C26.6499 22.134 26.5422 21.8747 26.317 21.7711C25.6584 21.4688 25.1848 20.869 25.0434 20.1583C24.902 19.4476 25.11 18.7123 25.6027 18.1809C25.7705 17.9985 25.7705 17.7178 25.6027 17.5354C25.11 17.0039 24.9021 16.2684 25.0435 15.5576C25.1848 14.8468 25.6584 14.2469 26.317 13.9443C26.5415 13.8401 26.6486 13.5812 26.5634 13.3488C26.312 12.6694 26.4013 11.9107 26.8036 11.3084C27.206 10.706 27.8726 10.3329 28.5964 10.305C28.8441 10.2946 29.0427 10.0964 29.0536 9.84877C29.0806 9.12468 29.4533 8.45748 30.0556 8.05469C30.658 7.6519 31.4169 7.56237 32.0964 7.81395C32.3294 7.90121 32.5901 7.79364 32.6938 7.56752C32.9961 6.909 33.5958 6.43539 34.3065 6.294C35.0172 6.15261 35.7526 6.36058 36.2839 6.85324C36.4661 7.02094 36.7464 7.02094 36.9286 6.85324C37.4601 6.36059 38.1956 6.15263 38.9064 6.29401C39.6172 6.4354 40.2171 6.90898 40.5196 7.56752C40.6229 7.7935 40.8836 7.90083 41.1161 7.81306C41.7956 7.56148 42.5545 7.651 43.1569 8.0538C43.7592 8.45659 44.1319 9.12379 44.1589 9.84788C44.1698 10.0955 44.3684 10.2937 44.6161 10.3041C45.3399 10.332 46.0065 10.7051 46.4089 11.3075C46.8112 11.9099 46.9005 12.6685 46.6491 13.3479C46.5635 13.5805 46.6712 13.8398 46.8964 13.9434C47.5549 14.2457 48.0286 14.8455 48.17 15.5562C48.3113 16.2669 48.1034 17.0022 47.6107 17.5336C47.4429 17.7161 47.4429 17.9967 47.6107 18.1791C48.1034 18.7107 48.3113 19.4461 48.1699 20.1569C48.0286 20.8677 47.555 21.4677 46.8964 21.7702C46.6719 21.8744 46.5648 22.1333 46.65 22.3657C46.9014 23.0451 46.8121 23.8038 46.4098 24.4061C46.0074 25.0085 45.3408 25.3816 44.617 25.4095C44.3693 25.4199 44.1707 25.6181 44.1598 25.8657C44.1417 26.2952 43.9994 26.7102 43.75 27.0604V39.2863C43.7499 39.6473 43.5324 39.9728 43.1988 40.111C42.8652 40.2492 42.4812 40.1728 42.2259 39.9175L39.2857 36.9773L38.3929 37.8702V41.9648H47.3214C48.8008 41.9648 50 40.7656 50 39.2863V7.14342C50 5.66408 48.8008 4.46484 47.3214 4.46484ZM25.8929 35.7148C25.8929 36.208 25.4931 36.6077 25 36.6077H8.03571C5.57138 36.6048 3.57438 34.6078 3.57143 32.1434V14.2863C3.57438 11.8219 5.57138 9.82494 8.03571 9.82199H24.1071C24.6003 9.82199 25 10.2217 25 10.7148C25 11.208 24.6003 11.6077 24.1071 11.6077H8.03571C6.55638 11.6077 5.35714 12.8069 5.35714 14.2863V32.1434C5.35714 33.6228 6.55638 34.822 8.03571 34.822H25C25.4931 34.822 25.8929 35.2217 25.8929 35.7148ZM8.92857 18.7506H21.4286C21.9217 18.7506 22.3214 19.1503 22.3214 19.6434C22.3214 20.1365 21.9217 20.5363 21.4286 20.5363H8.92857C8.43546 20.5363 8.03571 20.1365 8.03571 19.6434C8.03571 19.1503 8.43546 18.7506 8.92857 18.7506ZM8.03571 16.072C8.03571 15.5789 8.43546 15.1791 8.92857 15.1791H21.4286C21.9217 15.1791 22.3214 15.5789 22.3214 16.072C22.3214 16.5651 21.9217 16.9648 21.4286 16.9648H8.92857C8.43546 16.9648 8.03571 16.5651 8.03571 16.072ZM8.92857 22.322H21.4286C21.9217 22.322 22.3214 22.7217 22.3214 23.2148C22.3214 23.708 21.9217 24.1077 21.4286 24.1077H8.92857C8.43546 24.1077 8.03571 23.708 8.03571 23.2148C8.03571 22.7217 8.43546 22.322 8.92857 22.322ZM8.57143 31.3247C9.19403 31.1019 9.76942 30.7645 10.2679 30.33C10.7238 29.8825 10.974 29.2661 10.9589 28.6273C10.9319 28.1855 11.2328 27.7905 11.666 27.6992C12.0992 27.6079 12.5339 27.8479 12.6875 28.2631C12.9574 29.0681 13.4987 29.7543 14.2188 30.2041C14.3886 30.3281 14.5994 30.3824 14.808 30.3559C14.9408 30.2677 15.0172 30.116 15.0089 29.9568C14.9778 29.5143 15.2762 29.116 15.7097 29.0217C16.1431 28.9273 16.5801 29.1655 16.7357 29.5809C16.825 29.8175 17.0384 30.1532 17.8714 30.3452L18.5616 30.5086C19.7615 30.8682 21.0091 31.0428 22.2616 31.0265C22.7535 30.991 23.181 31.3609 23.2165 31.8528C23.252 32.3447 22.8821 32.7722 22.3902 32.8077C20.9549 32.8385 19.5233 32.6488 18.1455 32.2452L17.4705 32.0854C17.0045 31.9864 16.5594 31.8066 16.1554 31.5541C15.954 31.7614 15.7104 31.9228 15.4411 32.0273C14.7384 32.264 13.9661 32.1652 13.3455 31.7595C12.9006 31.5041 12.4999 31.1785 12.1589 30.7952C11.984 31.0874 11.7741 31.3573 11.5339 31.5988C10.8794 32.1939 10.116 32.6568 9.28571 32.9622C9.17316 33.0116 9.05149 33.0368 8.92857 33.0363C8.50538 33.0367 8.13999 32.7401 8.05354 32.3258C7.9671 31.9115 8.18336 31.4935 8.57143 31.3247Z" fill="#66170E"/>
</svg>
