<svg width="50" height="50" viewBox="0 0 50 50" fill="none" xmlns="http://www.w3.org/2000/svg">
<path d="M42.1211 42.0176L38.7305 45.6719V42.0176H42.1211Z" fill="#66170E"/>
<path d="M42.335 3.12695H7.66504C7.26172 3.12695 6.93262 3.45605 6.93262 3.85938V46.1406C6.93262 46.544 7.26172 46.8731 7.66504 46.8731H37.2656V41.2852C37.2656 40.8809 37.5937 40.5527 37.998 40.5527H43.0674V3.85938C43.0674 3.45605 42.7383 3.12695 42.335 3.12695ZM38.7061 13.9785C38.7061 14.3838 38.3779 14.7109 37.9736 14.7109H22.7539C22.3496 14.7109 22.0215 14.3838 22.0215 13.9785C22.0215 13.5742 22.3496 13.2461 22.7539 13.2461H37.9736C38.3779 13.2461 38.7061 13.5742 38.7061 13.9785ZM38.7061 17.8848C38.7061 18.29 38.3779 18.6172 37.9736 18.6172H22.7539C22.3496 18.6172 22.0215 18.29 22.0215 17.8848C22.0215 17.4805 22.3496 17.1523 22.7539 17.1523H37.9736C38.3779 17.1523 38.7061 17.4805 38.7061 17.8848ZM14.168 7.38672H35.832C36.2373 7.38672 36.5645 7.71484 36.5645 8.11914C36.5645 8.52441 36.2373 8.85156 35.832 8.85156H14.168C13.7627 8.85156 13.4355 8.52441 13.4355 8.11914C13.4355 7.71484 13.7627 7.38672 14.168 7.38672ZM10.708 14.2393C10.708 13.0283 11.6934 12.042 12.9053 12.042H18.1826C19.3936 12.042 20.3799 13.0283 20.3799 14.2393V16.9395C20.3799 18.1504 19.3936 19.1367 18.1826 19.1367H12.9053C11.6934 19.1367 10.708 18.1504 10.708 16.9395V14.2393ZM38.2734 39.125H11.7266C11.3213 39.125 10.9941 38.7979 10.9941 38.3926C10.9941 37.9883 11.3213 37.6602 11.7266 37.6602H38.2734C38.6787 37.6602 39.0059 37.9883 39.0059 38.3926C39.0059 38.7979 38.6787 39.125 38.2734 39.125ZM38.2734 35.2188H11.7266C11.3213 35.2188 10.9941 34.8916 10.9941 34.4863C10.9941 34.082 11.3213 33.7539 11.7266 33.7539H38.2734C38.6787 33.7539 39.0059 34.082 39.0059 34.4863C39.0059 34.8916 38.6787 35.2188 38.2734 35.2188ZM38.2734 31.3125H11.7266C11.3213 31.3125 10.9941 30.9854 10.9941 30.5801C10.9941 30.1758 11.3213 29.8477 11.7266 29.8477H38.2734C38.6787 29.8477 39.0059 30.1758 39.0059 30.5801C39.0059 30.9854 38.6787 31.3125 38.2734 31.3125ZM38.2734 27.4063H11.7266C11.3213 27.4063 10.9941 27.0791 10.9941 26.6738C10.9941 26.2695 11.3213 25.9414 11.7266 25.9414H38.2734C38.6787 25.9414 39.0059 26.2695 39.0059 26.6738C39.0059 27.0791 38.6787 27.4063 38.2734 27.4063ZM38.2734 23.5H11.7266C11.3213 23.5 10.9941 23.1729 10.9941 22.7676C10.9941 22.3633 11.3213 22.0352 11.7266 22.0352H38.2734C38.6787 22.0352 39.0059 22.3633 39.0059 22.7676C39.0059 23.1729 38.6787 23.5 38.2734 23.5Z" fill="#66170E"/>
<path d="M18.915 14.2383V16.9385C18.915 17.3418 18.5859 17.6709 18.1826 17.6709H12.9053C12.502 17.6709 12.1729 17.3418 12.1729 16.9385V14.2383C12.1729 13.835 12.502 13.5059 12.9053 13.5059H18.1826C18.5859 13.5059 18.915 13.835 18.915 14.2383Z" fill="#66170E"/>
</svg>
