<svg width="50" height="50" viewBox="0 0 50 50" fill="none" xmlns="http://www.w3.org/2000/svg">
<g clip-path="url(#clip0_192_111)">
<path d="M4.071 45.7935H36.1468V49.5504H0V5.65215H3.34961V45.0715C3.34958 45.2629 3.42556 45.4464 3.56083 45.5818C3.69611 45.7172 3.87961 45.7933 4.071 45.7935ZM50 28.5997C49.9994 30.2481 49.51 31.8593 48.5938 33.2296C47.6775 34.5998 46.3756 35.6677 44.8525 36.2981C43.3294 36.9285 41.6536 37.0931 40.0369 36.7711C38.4203 36.4491 36.9354 35.6551 35.7701 34.4893C34.6047 33.3235 33.8112 31.8383 33.4898 30.2215C33.1685 28.6048 33.3337 26.929 33.9647 25.4062C34.5956 23.8833 35.6639 22.5817 37.0346 21.666C38.4052 20.7503 40.0166 20.2615 41.6649 20.2615C43.8753 20.264 45.9944 21.1433 47.5571 22.7066C49.1198 24.2699 49.9984 26.3893 50 28.5997ZM44.2081 33.3586L40.8203 24.1259C40.7694 23.9871 40.6771 23.8674 40.5559 23.7828C40.4348 23.6981 40.2905 23.6528 40.1427 23.6528C39.9949 23.6528 39.8507 23.6981 39.7295 23.7828C39.6083 23.8674 39.5161 23.9871 39.4651 24.1259L36.0801 33.3586C36.0475 33.4476 36.0327 33.5421 36.0366 33.6368C36.0405 33.7315 36.063 33.8245 36.1029 33.9105C36.1427 33.9965 36.1991 34.0738 36.2688 34.138C36.3386 34.2022 36.4202 34.252 36.5092 34.2846C36.5982 34.3172 36.6927 34.332 36.7874 34.3281C36.8821 34.3242 36.9751 34.3017 37.0611 34.2618C37.1471 34.222 37.2244 34.1656 37.2886 34.0959C37.3528 34.0261 37.4026 33.9445 37.4353 33.8555L38.457 31.0695H41.8307L42.8533 33.8555C42.8853 33.9453 42.9347 34.028 42.9988 34.0986C43.0629 34.1693 43.1403 34.2265 43.2267 34.267C43.313 34.3076 43.4065 34.3306 43.5018 34.3347C43.5971 34.3389 43.6923 34.3242 43.7818 34.2913C43.8714 34.2585 43.9535 34.2082 44.0236 34.1435C44.0936 34.0787 44.15 34.0007 44.1897 33.914C44.2294 33.8272 44.2515 33.7335 44.2547 33.6382C44.258 33.5428 44.2423 33.4478 44.2086 33.3586H44.2081ZM47.2949 25.3262C47.2948 25.1347 47.2186 24.9511 47.0833 24.8158C46.9479 24.6804 46.7643 24.6043 46.5729 24.6041H45.5582V23.5918C45.556 23.4018 45.4789 23.2203 45.3438 23.0867C45.2086 22.9531 45.0262 22.8781 44.8362 22.8781C44.6461 22.8781 44.4637 22.9531 44.3286 23.0867C44.1934 23.2203 44.1164 23.4018 44.1142 23.5918V24.6041H43.0997C43.0042 24.603 42.9095 24.6208 42.821 24.6566C42.7325 24.6924 42.6519 24.7453 42.5841 24.8124C42.5162 24.8796 42.4623 24.9595 42.4255 25.0476C42.3887 25.1357 42.3697 25.2302 42.3697 25.3256C42.3697 25.4211 42.3887 25.5156 42.4255 25.6037C42.4623 25.6918 42.5162 25.7717 42.5841 25.8388C42.6519 25.9059 42.7325 25.9589 42.821 25.9947C42.9095 26.0304 43.0042 26.0483 43.0997 26.0472H44.1142V27.0628C44.1164 27.2528 44.1934 27.4343 44.3286 27.5679C44.4637 27.7015 44.6461 27.7765 44.8362 27.7765C45.0262 27.7765 45.2086 27.7015 45.3438 27.5679C45.4789 27.4343 45.556 27.2528 45.5582 27.0628V26.0472H46.5723C46.6671 26.0474 46.761 26.0289 46.8487 25.9927C46.9363 25.9566 47.016 25.9035 47.0831 25.8365C47.1502 25.7696 47.2035 25.69 47.2398 25.6024C47.2762 25.5149 47.2949 25.421 47.2949 25.3262ZM38.9857 29.6265H41.3002L40.1423 26.4707L38.9857 29.6265ZM33.3382 1.47793V8.05742L39.9213 8.06152L33.3382 1.47793ZM40.9429 38.352V44.3494H4.79297V0.451172H31.8951V8.77793C31.8951 8.96926 31.971 9.15279 32.1062 9.28819C32.2414 9.42358 32.4248 9.49977 32.6161 9.5L40.9429 9.50518V18.8442C38.4809 19.0269 36.1791 20.1338 34.4993 21.9429C32.8194 23.752 31.8858 26.1294 31.8858 28.5981C31.8858 31.0668 32.8194 33.4442 34.4993 35.2533C36.1791 37.0624 38.4809 38.1693 40.9429 38.352ZM22.5478 8.64678L24.2871 10.3863C24.3542 10.4534 24.4338 10.5067 24.5214 10.543C24.6091 10.5793 24.703 10.598 24.7979 10.598C24.8928 10.598 24.9867 10.5793 25.0744 10.543C25.162 10.5067 25.2416 10.4534 25.3087 10.3863L29.2618 6.43311C29.3301 6.36631 29.3845 6.28663 29.4217 6.19868C29.459 6.11073 29.4785 6.01625 29.479 5.92073C29.4795 5.82521 29.461 5.73054 29.4247 5.6422C29.3883 5.55386 29.3348 5.47361 29.2672 5.40609C29.1997 5.33858 29.1194 5.28515 29.031 5.24889C28.9426 5.21263 28.8479 5.19427 28.7524 5.19486C28.6569 5.19546 28.5624 5.215 28.4745 5.25236C28.3866 5.28972 28.307 5.34415 28.2402 5.4125L24.7976 8.85547L23.5693 7.62617C23.4335 7.49327 23.2507 7.4193 23.0606 7.4203C22.8705 7.4213 22.6885 7.4972 22.5541 7.63153C22.4196 7.76587 22.3436 7.94779 22.3424 8.13785C22.3412 8.32792 22.415 8.51078 22.5478 8.64678ZM20.1584 34.0081C20.1584 33.8166 20.0823 33.633 19.9469 33.4976C19.8115 33.3621 19.6279 33.2861 19.4364 33.286H8.86191C8.67046 33.2862 8.48689 33.3623 8.3515 33.4977C8.21612 33.6331 8.14 33.8166 8.13984 34.0081V39.7948C8.13987 39.8896 8.15857 39.9834 8.19488 40.071C8.23119 40.1585 8.2844 40.238 8.35146 40.305C8.41852 40.3719 8.49811 40.425 8.5857 40.4612C8.67329 40.4974 8.76715 40.5159 8.86191 40.5158H19.4364C19.5312 40.5159 19.625 40.4974 19.7126 40.4612C19.8002 40.425 19.8798 40.3719 19.9468 40.3049C20.0139 40.238 20.0671 40.1585 20.1034 40.0709C20.1397 39.9834 20.1584 39.8896 20.1584 39.7948V34.0081ZM20.1584 24.3416C20.1584 24.1501 20.0823 23.9665 19.9469 23.8311C19.8115 23.6956 19.6279 23.6196 19.4364 23.6195H8.86191C8.67046 23.6197 8.48689 23.6958 8.3515 23.8312C8.21612 23.9666 8.14 24.1501 8.13984 24.3416V30.1252C8.13987 30.3167 8.21596 30.5003 8.35137 30.6357C8.48678 30.7711 8.67043 30.8472 8.86191 30.8472H19.4364C19.6279 30.8472 19.8115 30.7711 19.9469 30.6357C20.0823 30.5003 20.1584 30.3167 20.1584 30.1252V24.3416ZM20.1584 14.675C20.1584 14.5802 20.1397 14.4864 20.1034 14.3989C20.0671 14.3114 20.0139 14.2318 19.9468 14.1649C19.8798 14.0979 19.8002 14.0448 19.7126 14.0087C19.625 13.9725 19.5312 13.9539 19.4364 13.954H8.86191C8.76715 13.9539 8.67329 13.9725 8.5857 14.0086C8.49811 14.0448 8.41852 14.0979 8.35146 14.1649C8.2844 14.2318 8.23119 14.3113 8.19488 14.3989C8.15857 14.4864 8.13987 14.5802 8.13984 14.675V20.4588C8.14 20.6502 8.21612 20.8338 8.3515 20.9692C8.48689 21.1046 8.67046 21.1807 8.86191 21.1809H19.4364C19.6279 21.1808 19.8115 21.1047 19.9469 20.9693C20.0823 20.8339 20.1584 20.6503 20.1584 20.4588V14.675ZM20.1584 5.00635C20.1584 4.81486 20.0823 4.63121 19.9469 4.4958C19.8115 4.36039 19.6279 4.2843 19.4364 4.28428H8.86191C8.67046 4.28443 8.48689 4.36056 8.3515 4.49594C8.21612 4.63132 8.14 4.81489 8.13984 5.00635V10.7921C8.13987 10.9836 8.21596 11.1672 8.35137 11.3026C8.48678 11.438 8.67043 11.5141 8.86191 11.5141H19.4364C19.6279 11.5141 19.8115 11.438 19.9469 11.3026C20.0823 11.1672 20.1584 10.9836 20.1584 10.7921V5.00635ZM29.262 34.4141C29.1265 34.2787 28.9428 34.2026 28.7512 34.2026C28.5597 34.2026 28.3759 34.2787 28.2404 34.4141L24.7976 37.8569L23.5693 36.6279C23.4326 36.4987 23.2509 36.4279 23.0628 36.4306C22.8747 36.4332 22.695 36.5091 22.562 36.6422C22.429 36.7752 22.3531 36.9548 22.3504 37.143C22.3477 37.3311 22.4185 37.5128 22.5478 37.6495L24.2873 39.3878C24.3543 39.4549 24.434 39.5082 24.5216 39.5446C24.6093 39.5809 24.7032 39.5996 24.7981 39.5996C24.893 39.5996 24.9869 39.5809 25.0746 39.5446C25.1622 39.5082 25.2418 39.4549 25.3089 39.3878L29.262 35.4347C29.3969 35.2991 29.4726 35.1157 29.4726 34.9245C29.4726 34.7332 29.3969 34.5498 29.262 34.4143V34.4141ZM29.262 24.7476C29.1265 24.6122 28.9428 24.5361 28.7512 24.5361C28.5597 24.5361 28.3759 24.6122 28.2404 24.7476L24.7985 28.1904L23.5693 26.9593C23.4337 26.8261 23.2509 26.7518 23.0608 26.7525C22.8706 26.7533 22.6885 26.8291 22.5539 26.9634C22.4193 27.0977 22.3432 27.2797 22.342 27.4698C22.3409 27.66 22.4148 27.8429 22.5478 27.9788L24.2871 29.7215C24.4226 29.8569 24.6062 29.933 24.7977 29.9332C24.9892 29.9334 25.173 29.8576 25.3087 29.7225L29.2618 25.7693C29.3968 25.6336 29.4726 25.45 29.4726 25.2586C29.4727 25.0672 29.397 24.8835 29.262 24.7478V24.7476ZM29.261 15.0789C29.194 15.0118 29.1145 14.9586 29.0269 14.9223C28.9394 14.8861 28.8455 14.8674 28.7507 14.8674C28.6559 14.8674 28.5621 14.8861 28.4745 14.9223C28.387 14.9586 28.3074 15.0118 28.2404 15.0789L24.7985 18.5238L23.5693 17.2928C23.5023 17.2257 23.4228 17.1725 23.3352 17.1361C23.2476 17.0998 23.1537 17.0811 23.0589 17.081C22.9641 17.081 22.8702 17.0996 22.7826 17.1359C22.695 17.1721 22.6154 17.2252 22.5483 17.2922C22.4812 17.3592 22.428 17.4388 22.3917 17.5264C22.3553 17.614 22.3366 17.7078 22.3366 17.8026C22.3365 17.8975 22.3551 17.9914 22.3914 18.079C22.4276 18.1666 22.4807 18.2462 22.5478 18.3133L24.2871 20.0549C24.4225 20.1904 24.6061 20.2667 24.7977 20.2669C24.9892 20.2671 25.173 20.1912 25.3087 20.056L29.2618 16.0997C29.3288 16.0327 29.382 15.9531 29.4182 15.8654C29.4545 15.7778 29.4731 15.684 29.473 15.5891C29.4729 15.4943 29.4542 15.4005 29.4178 15.3129C29.3814 15.2254 29.3282 15.1459 29.261 15.0789ZM9.58389 10.0712H18.7147V5.72754H9.58389V10.0712ZM9.58389 19.7367H18.7147V15.3973H9.58389V19.7367ZM9.58389 29.4033H18.7147V25.0638H9.58389V29.4033ZM9.58389 39.0729H18.7147V34.7304H9.58389V39.0729Z" fill="#66170E"/>
</g>
<defs>
<clipPath id="clip0_192_111">
<rect width="50" height="50" fill="white"/>
</clipPath>
</defs>
</svg>
