<svg width="50" height="50" viewBox="0 0 50 50" fill="none" xmlns="http://www.w3.org/2000/svg">
<path d="M49.6094 11.1719C48.9844 10.7031 48.5938 9.92187 48.5938 9.14062C48.5938 8.75 48.6719 8.4375 48.8281 8.04688C48.9063 7.8125 48.9063 7.5 48.8281 7.26562C48.6719 7.03125 48.4375 6.875 48.125 6.875H48.0469C47.5 6.79687 47.0312 6.5625 46.5625 6.17187C46.1719 5.78125 45.8594 5.15625 45.8594 4.60938C45.8594 4.375 45.7031 4.0625 45.4688 3.98437C45.2344 3.82812 44.9219 3.82812 44.6875 3.98437H44.6094C43.5156 4.45312 42.2656 4.14062 41.5625 3.125C41.25 2.65625 40.5469 2.65625 40.2344 3.125C39.5312 4.0625 38.2812 4.45312 37.1875 3.98437H37.1094C36.6406 3.75 36.0156 3.98438 35.9375 4.6875C35.8594 5.85938 34.9219 6.79687 33.75 6.95312H33.6719C33.2031 6.95312 32.8906 7.42187 32.8906 7.8125C32.8906 7.96875 32.8906 8.04687 32.9688 8.125C33.5156 9.21875 33.125 10.5469 32.1875 11.25C31.6406 11.5625 31.6406 12.3438 32.1875 12.6563C33.8281 13.9063 33.0469 15.7031 33.0469 15.7813C32.8906 15.9375 32.8906 16.7969 33.75 16.9531C34.2969 17.0313 34.8438 17.2656 35.3125 17.6563C36.3281 18.6719 35.7031 19.6094 36.4062 19.8438C36.6406 20 36.875 20 37.1094 19.9219C38.2031 19.375 39.5312 19.7656 40.2344 20.7031C40.5469 21.1719 41.25 21.1719 41.5625 20.7031C42.2656 19.6875 43.5938 19.375 44.6875 19.9219C45.1563 20.1563 45.7812 19.8438 45.7812 19.2188C45.8594 18.6719 46.0938 18.125 46.4844 17.6563C46.875 17.2656 47.5 16.9531 48.0469 16.9531C48.2813 16.9531 48.5937 16.7969 48.6719 16.5625C48.8281 16.3281 48.8281 16.0156 48.6719 15.7813C48.6719 15.7813 48.6719 15.7813 48.6719 15.7031C48.2812 14.5313 48.6719 13.2031 49.6094 12.5781C49.8438 12.4219 50 12.1875 50 11.875C50 11.5625 49.8438 11.3281 49.6094 11.1719ZM40.8594 17.1094C37.9687 17.1094 35.625 14.7656 35.625 11.875C35.625 8.98437 37.9687 6.64062 40.8594 6.64062C43.75 6.64062 46.0938 8.98437 46.0938 11.875C46.0938 14.7656 43.75 17.1094 40.8594 17.1094Z" fill="#66170E"/>
<path d="M40.8594 8.28125C38.9062 8.28125 37.2656 9.84375 37.2656 11.875C37.2656 13.8281 38.8281 15.4687 40.8594 15.4687C42.8906 15.4687 44.4531 13.9062 44.4531 11.875C44.4531 9.84375 42.8906 8.28125 40.8594 8.28125Z" fill="#66170E"/>
<path d="M16.0156 43.6719C16.0156 43.2031 16.4063 42.8125 16.875 42.8125H40.3125V31.4062L37.3437 33.5937C37.1094 33.75 36.7188 33.8281 36.4844 33.6719C36.1719 33.5156 36.0156 33.2812 36.0156 32.9687V21.4062C35.8594 21.3281 35.7031 21.3281 35.5469 21.1719C34.1406 20.3906 34.4531 19.0625 34.0625 18.6719C33.9062 18.5156 33.75 18.4375 33.5156 18.4375C32.1875 18.3594 31.25 17.2656 31.25 15.9375C31.25 15.3906 31.4844 15 31.4844 14.8438C31.6406 14.4531 31.5625 14.0625 31.1719 13.8281C31.0938 13.75 30.0781 13.2031 30.0781 11.7969C30.0781 11.0156 30.4687 10.2344 31.0937 9.76562C31.875 9.21875 31.1719 8.67188 31.1719 7.65625C31.1719 6.40625 32.1094 5.3125 33.3594 5.15625H33.4375C33.75 5.15625 34.0625 4.92188 34.1406 4.60938H7.42188C8.35938 5.54688 8.82813 6.875 8.82813 8.20312V43.4375C8.82813 45.4687 10.4688 47.1875 12.5 47.1875C14.4531 47.1875 16.0156 45.625 16.0156 43.6719ZM12.5781 8.67188H22.3438C22.8125 8.67188 23.2031 9.0625 23.2031 9.53125C23.2031 10 22.8125 10.3906 22.3438 10.3906H12.5781C12.1094 10.3906 11.7188 10 11.7188 9.53125C11.7969 9.0625 12.1094 8.67188 12.5781 8.67188ZM12.5781 14.375H28.125C28.5938 14.375 28.9844 14.7656 28.9844 15.2344C28.9844 15.7031 28.5938 16.0938 28.125 16.0938H12.5781C12.1094 16.0938 11.7188 15.7031 11.7188 15.2344C11.7188 14.7656 12.1094 14.375 12.5781 14.375ZM12.5781 20.0781H31.4844C31.9531 20.0781 32.3438 20.4687 32.3438 20.9375C32.3438 21.4062 31.9531 21.7969 31.4844 21.7969H12.5781C12.1094 21.7969 11.7188 21.4062 11.7188 20.9375C11.7969 20.3906 12.1094 20.0781 12.5781 20.0781ZM12.5781 25.7813H33.125C33.5938 25.7813 33.9844 26.1719 33.9844 26.6406C33.9844 27.1094 33.5938 27.5 33.125 27.5H12.5781C12.1094 27.5 11.7188 27.1094 11.7188 26.6406C11.7969 26.0937 12.1094 25.7813 12.5781 25.7813ZM12.5781 31.4062H33.125C33.5938 31.4062 33.9844 31.7969 33.9844 32.2656C33.9844 32.7344 33.5938 33.125 33.125 33.125H12.5781C12.1094 33.125 11.7188 32.7344 11.7188 32.2656C11.7188 31.7969 12.1094 31.4062 12.5781 31.4062ZM11.7969 37.9687C11.7969 37.5 12.1875 37.1094 12.6563 37.1094H36.5625C37.0312 37.1094 37.4219 37.5 37.4219 37.9687C37.4219 38.4375 37.0312 38.8281 36.5625 38.8281H12.5781C12.1094 38.8281 11.7969 38.4375 11.7969 37.9687Z" fill="#66170E"/>
<path d="M0 8.20312V15.3125H7.1875V8.20312C7.1875 7.26562 6.79688 6.32812 6.17188 5.625C5.54688 4.92187 4.53125 4.6875 3.59375 4.6875C1.64062 4.6875 0 6.25 0 8.20312Z" fill="#66170E"/>
<path d="M45.5469 45V44.4531H17.5781C17.4219 45.4687 16.9531 46.4844 16.25 47.1875H43.2813C44.5313 47.2656 45.5469 46.25 45.5469 45Z" fill="#66170E"/>
<path d="M44.1406 21.4062V31.1719L41.4063 29.1406C41.25 29.0625 41.0938 28.9844 40.9375 28.9844C40.7813 28.9844 40.625 29.0625 40.4688 29.1406L37.7344 31.1719V21.3281C37.8125 21.3281 37.8906 21.25 38.125 21.25C38.4375 21.25 38.75 21.4062 38.9062 21.6406C39.375 22.2656 40.0781 22.6562 40.8594 22.6562C41.6406 22.6562 42.4219 22.2656 42.8125 21.6406C42.9688 21.4062 43.2031 21.25 43.5156 21.25C43.9063 21.25 43.9063 21.3281 44.1406 21.4062Z" fill="#66170E"/>
<path d="M49.6094 11.1719C48.9844 10.7031 48.5938 9.92187 48.5938 9.14062C48.5938 8.75 48.6719 8.4375 48.8281 8.04688C48.9063 7.8125 48.9063 7.5 48.8281 7.26562C48.6719 7.03125 48.4375 6.875 48.125 6.875H48.0469C47.5 6.79687 47.0312 6.5625 46.5625 6.17187C46.1719 5.78125 45.8594 5.15625 45.8594 4.60938C45.8594 4.375 45.7031 4.0625 45.4688 3.98437C45.2344 3.82812 44.9219 3.82812 44.6875 3.98437H44.6094C43.5156 4.45312 42.2656 4.14062 41.5625 3.125C41.25 2.65625 40.5469 2.65625 40.2344 3.125C39.5312 4.0625 38.2812 4.45312 37.1875 3.98437H37.1094C36.6406 3.75 36.0156 3.98438 35.9375 4.6875C35.8594 5.85938 34.9219 6.79687 33.75 6.95312H33.6719C33.2031 6.95312 32.8906 7.42187 32.8906 7.8125C32.8906 7.96875 32.8906 8.04687 32.9688 8.125C33.5156 9.21875 33.125 10.5469 32.1875 11.25C31.6406 11.5625 31.6406 12.3438 32.1875 12.6563C33.8281 13.9063 33.0469 15.7031 33.0469 15.7813C32.8906 15.9375 32.8906 16.7969 33.75 16.9531C34.2969 17.0313 34.8438 17.2656 35.3125 17.6563C36.3281 18.6719 35.7031 19.6094 36.4062 19.8438C36.6406 20 36.875 20 37.1094 19.9219C38.2031 19.375 39.5312 19.7656 40.2344 20.7031C40.5469 21.1719 41.25 21.1719 41.5625 20.7031C42.2656 19.6875 43.5938 19.375 44.6875 19.9219C45.1563 20.1563 45.7812 19.8438 45.7812 19.2188C45.8594 18.6719 46.0938 18.125 46.4844 17.6563C46.875 17.2656 47.5 16.9531 48.0469 16.9531C48.2813 16.9531 48.5937 16.7969 48.6719 16.5625C48.8281 16.3281 48.8281 16.0156 48.6719 15.7813C48.6719 15.7813 48.6719 15.7813 48.6719 15.7031C48.2812 14.5313 48.6719 13.2031 49.6094 12.5781C49.8438 12.4219 50 12.1875 50 11.875C50 11.5625 49.8438 11.3281 49.6094 11.1719ZM40.8594 17.1094C37.9687 17.1094 35.625 14.7656 35.625 11.875C35.625 8.98437 37.9687 6.64062 40.8594 6.64062C43.75 6.64062 46.0938 8.98437 46.0938 11.875C46.0938 14.7656 43.75 17.1094 40.8594 17.1094Z" fill="#66170E"/>
</svg>
