<svg width="50" height="50" viewBox="0 0 50 50" fill="none" xmlns="http://www.w3.org/2000/svg">
<path d="M14.9979 23.9085L10.904 21.7837L6.81006 23.9085V16.6242C7.09688 16.6343 7.3918 16.6134 7.69297 16.5623C7.76963 16.5493 7.804 16.5637 7.84902 16.6271C8.58682 17.6658 9.61484 18.2571 10.904 18.2571C12.1932 18.2571 13.2212 17.6657 13.9589 16.627C14.004 16.5635 14.0385 16.5493 14.1152 16.5623C14.4164 16.6133 14.7111 16.6343 14.9979 16.6242V23.9085ZM5.62305 14.3119C5.11465 13.8035 4.98877 13.2264 5.10566 12.5356C5.23154 11.7928 4.94004 11.0891 4.32578 10.6528C3.75459 10.2472 3.43555 9.7498 3.43555 9.03096C3.43555 8.31211 3.75459 7.81475 4.32578 7.40908C4.94004 6.97285 5.23154 6.26914 5.10566 5.52627C4.98857 4.83574 5.11484 4.2582 5.62295 3.75C6.13135 3.2416 6.7085 3.11572 7.39922 3.23262C8.14209 3.3585 8.8458 3.06699 9.28203 2.45273C9.6877 1.88154 10.1851 1.5625 10.9039 1.5625C11.6228 1.5625 12.1201 1.88154 12.5258 2.45273C12.962 3.06699 13.6658 3.3585 14.4086 3.23262C15.0992 3.11553 15.6767 3.2418 16.1849 3.7499C16.6933 4.2583 16.8191 4.83545 16.7022 5.52617C16.5764 6.26904 16.8679 6.97275 17.4821 7.40898C18.0532 7.81465 18.3724 8.31201 18.3724 9.03086C18.3724 9.74971 18.0532 10.2471 17.4821 10.6527C16.8679 11.089 16.5764 11.7927 16.7022 12.5355C16.8193 13.2262 16.6931 13.8036 16.185 14.3118C15.6766 14.8201 15.0994 14.9461 14.4087 14.8292C13.6658 14.7033 12.9621 14.9948 12.5259 15.6091C12.1202 16.1802 11.6229 16.4993 10.904 16.4993C10.1852 16.4993 9.68779 16.1803 9.28213 15.6091C8.8459 14.9948 8.14219 14.7033 7.39932 14.8291C6.70879 14.9462 6.13125 14.82 5.62305 14.3118V14.3119ZM7.51631 9.03086C7.51631 10.8968 9.03818 12.4186 10.904 12.4186C12.7698 12.4186 14.2917 10.8967 14.2917 9.03086C14.2917 7.16504 12.7699 5.64316 10.904 5.64316C9.03809 5.64316 7.51631 7.16494 7.51631 9.03086ZM39.3708 5.26211V11.4789H45.5876L39.3708 5.26211ZM46.5642 13.4321V47.4608C46.5642 47.9987 46.1255 48.4374 45.5876 48.4374H13.6383C13.1004 48.4374 12.6617 47.9987 12.6617 47.4608V24.6764L15.3291 26.0608C15.6405 26.2225 15.9862 26.2108 16.2861 26.0286C16.586 25.8464 16.7556 25.5449 16.7556 25.194V16.094C16.9913 15.9462 17.2159 15.7668 17.4279 15.5548C18.3394 14.6433 18.6482 13.4979 18.4354 12.2419C18.4224 12.1652 18.4366 12.1309 18.5001 12.0858C19.5389 11.348 20.1303 10.32 20.1303 9.03096C20.1303 7.74189 19.5389 6.71377 18.5001 5.97598C18.4366 5.93086 18.4225 5.89648 18.4354 5.81973C18.526 5.28506 18.522 4.77051 18.4174 4.28555H37.4177V12.4554C37.4177 12.9949 37.855 13.4322 38.3943 13.4322H46.5643L46.5642 13.4321ZM24.6064 16.6769C24.6064 17.2159 25.0437 17.6532 25.583 17.6532H33.643C34.1823 17.6532 34.6194 17.2158 34.6194 16.6769C34.6194 16.1379 34.1823 15.7 33.643 15.7H25.583C25.0437 15.7 24.6064 16.1378 24.6064 16.6769ZM41.6124 40.423C41.34 39.9579 40.7418 39.8007 40.2764 40.0732C38.2723 41.2459 37.1078 41.8485 36.432 42.1564C36.4369 41.7906 36.3411 41.3942 35.9827 41.0751C35.2826 40.4513 34.1552 40.6961 32.6781 41.2559C32.5038 41.3223 32.3791 41.3505 32.296 41.3623C32.2918 41.2178 32.3147 40.9424 32.4578 40.4768C32.8541 39.1854 31.9201 38.829 31.8121 38.7928C31.1151 38.5574 30.4719 39.0488 29.8196 39.6171C29.3591 40.0187 28.7801 40.5841 28.0983 41.2978C27.426 42.0016 26.8286 42.6677 26.5324 43.002C25.7343 43.9025 25.7171 43.9491 25.6525 44.1248C25.4664 44.6318 25.726 45.1925 26.2322 45.3789C26.3435 45.4198 26.4571 45.4382 26.5689 45.4382C26.89 45.4382 27.1956 45.279 27.3779 45.0098C27.7297 44.5593 29.2156 42.9092 30.376 41.7666C30.4453 42.2119 30.6284 42.574 30.9253 42.8526C31.3258 43.2283 32.075 43.5729 33.3702 43.0819C33.7962 42.9209 34.1124 42.8202 34.3443 42.7576C34.2671 43.1847 34.2566 43.7707 34.7824 44.1657C35.4371 44.6582 36.334 44.33 37.1234 43.9831C38.033 43.5839 39.3872 42.8565 41.2628 41.7597C41.7284 41.4876 41.885 40.8888 41.6126 40.4231L41.6124 40.423ZM42.0675 36.0849C42.0675 35.5458 41.6302 35.1085 41.0908 35.1085H18.1351C17.5957 35.1085 17.1584 35.5459 17.1584 36.0849C17.1584 36.6238 17.5957 37.0612 18.1351 37.0612H41.0908C41.6302 37.0612 42.0675 36.6238 42.0675 36.0849ZM42.0675 31.2336C42.0675 30.6932 41.6302 30.2567 41.0908 30.2567H18.1351C17.5957 30.2567 17.1584 30.6932 17.1584 31.2336C17.1584 31.774 17.5957 32.21 18.1351 32.21H41.0908C41.6302 32.21 42.0675 31.7727 42.0675 31.2336ZM42.0675 26.3809C42.0675 25.8418 41.6302 25.4045 41.0908 25.4045H18.1351C17.5957 25.4045 17.1584 25.8419 17.1584 26.3809C17.1584 26.9198 17.5957 27.3572 18.1351 27.3572H41.0908C41.6302 27.3572 42.0675 26.9198 42.0675 26.3809ZM42.0675 21.5281C42.0675 20.9891 41.6302 20.5518 41.0908 20.5518H21.0479C20.5085 20.5518 20.0713 20.9892 20.0713 21.5281C20.0713 22.0671 20.5085 22.505 21.0479 22.505H41.0908C41.6302 22.505 42.0675 22.0681 42.0675 21.5281Z" fill="#66170E"/>
</svg>
