<svg width="50" height="50" viewBox="0 0 50 50" fill="none" xmlns="http://www.w3.org/2000/svg">
<path d="M32.9548 12.0837H38.9245L28.9775 2.13672V8.10642C28.9775 10.3034 30.7578 12.0837 32.9548 12.0837Z" fill="#66170E"/>
<path d="M31.2348 42.2875L28.4318 39.4844H28.4242L25.6212 36.6738L23.5 44.4087L31.2348 42.2875Z" fill="#66170E"/>
<path d="M46.7046 21.2038C45.1516 19.6508 42.6289 19.6508 41.0758 21.2038L39.6743 22.6129L42.4849 25.4235L45.288 28.2266L46.697 26.825C47.4698 26.0523 47.8637 25.022 47.8637 24.0144C47.8713 22.9993 47.4849 21.9766 46.7046 21.2038Z" fill="#66170E"/>
<path d="M7.10596 9.0918H11.0832V13.0691H7.10596V9.0918Z" fill="#66170E"/>
<path d="M7.10596 30.9844H11.0832V34.9616H7.10596V30.9844Z" fill="#66170E"/>
<path d="M7.10596 20.0371H11.0832V24.0144H7.10596V20.0371Z" fill="#66170E"/>
<path d="M22.4698 46.7728C21.6819 46.985 20.985 46.235 21.2501 45.4622L24.8032 34.6819L38.2728 21.2122L38.9319 20.5456V14.0759H32.9547C29.6668 14.0759 26.985 11.4016 26.985 8.10618V2.12891H6.10618C3.90921 2.12891 2.12891 3.90921 2.12891 6.10618V43.9016C2.12891 46.0986 3.90921 47.8789 6.10618 47.8789H34.9547C37.1441 47.8789 38.9319 46.0986 38.9319 43.9016V37.4168L32.0683 44.2804L22.4698 46.7728ZM16.0532 8.09103H25.0001C25.5532 8.09103 25.9925 8.538 25.9925 9.08345C25.9925 9.63648 25.5532 10.0759 25.0001 10.0759H16.0532C15.5077 10.0759 15.0607 9.63648 15.0607 9.08345C15.0531 8.538 15.5001 8.09103 16.0532 8.09103ZM16.0532 12.0683H22.0228C22.5683 12.0683 23.0153 12.5153 23.0153 13.0607C23.0153 13.6062 22.5683 14.0531 22.0228 14.0531H16.0532C15.5077 14.0531 15.0607 13.6062 15.0607 13.0607C15.0607 12.5153 15.5001 12.0683 16.0532 12.0683ZM16.0532 19.0456H25.0001C25.5532 19.0456 25.9925 19.485 25.9925 20.038C25.9925 20.5835 25.5532 21.0304 25.0001 21.0304H16.0532C15.5077 21.0304 15.0607 20.5835 15.0607 20.038C15.0531 19.485 15.5001 19.0456 16.0532 19.0456ZM16.0532 23.0153H22.0228C22.5683 23.0153 23.0153 23.4622 23.0153 24.0077C23.0153 24.5531 22.5683 25.0001 22.0228 25.0001H16.0532C15.5077 25.0001 15.0607 24.5531 15.0607 24.0077C15.0607 23.4622 15.5001 23.0153 16.0532 23.0153ZM16.0532 30.0001H25.0001C25.5532 30.0001 25.9925 30.4471 25.9925 30.9925C25.9925 31.538 25.5532 31.985 25.0001 31.985H16.0532C15.5077 31.985 15.0607 31.538 15.0607 30.9925C15.0531 30.4471 15.5001 30.0001 16.0532 30.0001ZM13.0683 35.9622C13.0683 36.5077 12.6213 36.9547 12.0759 36.9547H6.10618C5.56073 36.9547 5.11375 36.5077 5.11375 35.9622V30.0001C5.11375 29.4547 5.56073 29.0077 6.10618 29.0077H12.0759C12.6213 29.0077 13.0683 29.4547 13.0683 30.0001V35.9622ZM13.0683 25.0153C13.0683 25.5607 12.6213 26.0077 12.0759 26.0077H6.10618C5.56073 26.0077 5.11375 25.5607 5.11375 25.0153V19.0456C5.11375 18.4925 5.56073 18.0531 6.10618 18.0531H12.0759C12.6213 18.0531 13.0683 18.4925 13.0683 19.0456V25.0153ZM13.0683 14.0607C13.0683 14.6138 12.6213 15.0531 12.0759 15.0531H6.10618C5.56073 15.0531 5.11375 14.6138 5.11375 14.0607V8.09103C5.11375 7.54557 5.56073 7.0986 6.10618 7.0986H12.0759C12.6213 7.0986 13.0683 7.54557 13.0683 8.09103V14.0607ZM15.0532 34.9547C15.0532 34.4092 15.5001 33.9622 16.0456 33.9622H22.0153C22.5607 33.9622 23.0077 34.4092 23.0077 34.9547C23.0077 35.5001 22.5607 35.9471 22.0153 35.9471H16.0456C15.5001 35.9547 15.0532 35.5077 15.0532 34.9547Z" fill="#66170E"/>
<path d="M34.9472 27.334L27.0229 35.2659L29.3487 37.6068L29.8411 38.084L32.6442 40.8871L43.8942 29.6371L38.273 24.0234L34.9472 27.334Z" fill="#66170E"/>
</svg>
