<svg width="50" height="50" viewBox="0 0 50 50" fill="none" xmlns="http://www.w3.org/2000/svg">
<path d="M35.2337 40.2374C35.0889 40.3753 34.9252 40.477 34.7525 40.5492C34.7404 40.5544 34.7283 40.5584 34.7162 40.5633C34.6424 40.5919 34.567 40.6149 34.4904 40.6314C34.4714 40.6355 34.4529 40.6399 34.4343 40.6431C34.3613 40.656 34.2883 40.6629 34.2141 40.6649C34.2 40.6653 34.1863 40.6689 34.1726 40.6689C34.1657 40.6689 34.1589 40.6677 34.1524 40.6677C34.1218 40.6673 34.0915 40.6641 34.0613 40.6617C34.0165 40.6585 33.9722 40.6536 33.9274 40.646C33.8988 40.6411 33.8701 40.6355 33.8415 40.629C33.7931 40.6181 33.7451 40.604 33.6975 40.5883C33.6733 40.5802 33.6487 40.5734 33.6249 40.5641C33.5539 40.5367 33.4834 40.5052 33.4148 40.4665C32.8615 40.1858 32.5098 39.5595 32.5715 38.9251L33.4317 32.0916C33.433 32.0827 33.4378 32.0747 33.4394 32.0658C33.4515 31.9884 33.4705 31.9109 33.5051 31.8363C33.5059 31.8351 33.5068 31.8339 33.5076 31.8323C33.508 31.8311 33.508 31.8299 33.5088 31.8287L35.9822 26.5689V10.9988H28.3929C26.6943 10.9988 25.3122 9.6106 25.3122 7.90425V1.20508H2.74C1.22925 1.20508 0 2.44038 0 3.9592V46.0401C0 47.5589 1.22925 48.7942 2.74 48.7942H33.2418C34.7529 48.7942 35.9818 47.5589 35.9818 46.0401V39.4865L35.2494 40.2221C35.2442 40.2269 35.2389 40.2326 35.2337 40.2374ZM30.3606 42.2297H6.4943C6.018 42.2297 5.63205 41.8421 5.63205 41.3646C5.63205 40.8867 6.018 40.4996 6.4943 40.4996H30.3602C30.8365 40.4996 31.2225 40.8871 31.2225 41.3646C31.2225 41.8421 30.8365 42.2297 30.3606 42.2297ZM30.3606 34.2767H6.4943C6.018 34.2767 5.63205 33.8891 5.63205 33.4116C5.63205 32.9337 6.018 32.5465 6.4943 32.5465H30.3602C30.8365 32.5465 31.2225 32.9341 31.2225 33.4116C31.2225 33.8891 30.8365 34.2767 30.3606 34.2767ZM30.3606 26.3237H6.4943C6.018 26.3237 5.63205 25.9361 5.63205 25.4586C5.63205 24.9807 6.018 24.5935 6.4943 24.5935H30.3602C30.8365 24.5935 31.2225 24.9811 31.2225 25.4586C31.2225 25.9361 30.8365 26.3237 30.3606 26.3237ZM30.3606 18.3706H6.4943C6.018 18.3706 5.63205 17.9831 5.63205 17.5056C5.63205 17.028 6.018 16.6405 6.4943 16.6405H30.3602C30.8365 16.6405 31.2225 17.028 31.2225 17.5056C31.2225 17.9831 30.8365 18.3706 30.3606 18.3706Z" fill="#66170E"/>
<path d="M28.3929 9.26762H34.6134L27.0366 2.30469V7.90407C27.0366 8.65581 27.6452 9.26762 28.3929 9.26762Z" fill="#66170E"/>
<path d="M34.9942 33.4824L34.3389 38.6882L38.0895 34.9226L34.9942 33.4824Z" fill="#66170E"/>
<path d="M35.437 31.7822L39.1554 33.5124L48.3216 13.9L44.633 12.1836L35.437 31.7822Z" fill="#66170E"/>
<path d="M49.0597 12.3348L49.9135 10.5426C50.1147 9.9114 49.9756 9.21491 49.3803 8.85758C49.1093 8.69506 48.806 8.57366 48.5221 8.43614C48.2325 8.29539 47.9317 8.11027 47.6094 8.05865C47.1025 7.97759 46.485 8.21271 46.2834 8.71885L45.3735 10.6192L47.2965 11.5141L49.0597 12.3348Z" fill="#66170E"/>
</svg>
