<svg width="50" height="50" viewBox="0 0 50 50" fill="none" xmlns="http://www.w3.org/2000/svg">
<path fill-rule="evenodd" clip-rule="evenodd" d="M17.2017 35.2434C17.9763 34.2717 18.645 33.4318 18.645 31.1027C18.645 29.1944 17.8869 27.3643 16.5376 26.0149C15.1882 24.6655 13.358 23.9074 11.4497 23.9074C9.54139 23.9074 7.71124 24.6655 6.36185 26.0149C5.01247 27.3643 4.25439 29.1944 4.25439 31.1027C4.25439 33.6397 4.99268 34.4611 5.84619 35.4113C6.81797 36.4923 7.91172 37.7092 8.02012 41.2346H10.864V35.4942C10.4393 35.3677 10.0668 35.1077 9.80168 34.7527C9.53655 34.3977 9.39295 33.9667 9.39219 33.5236V30.4776C9.39593 29.9344 9.61436 29.4147 9.99982 29.0319C10.3853 28.649 10.9065 28.4342 11.4498 28.4342C11.993 28.4342 12.5142 28.649 12.8997 29.0319C13.2852 29.4147 13.5036 29.9344 13.5073 30.4776V33.5235C13.5066 33.9666 13.363 34.3977 13.0978 34.7527C12.8327 35.1077 12.4602 35.3677 12.0355 35.4942V41.2345H15.1585C15.2603 37.6798 16.2884 36.3889 17.2015 35.2434H17.2017ZM12.3356 33.5236C12.3356 33.7586 12.2423 33.9839 12.0762 34.15C11.9101 34.3161 11.6847 34.4095 11.4498 34.4095C11.2149 34.4095 10.9895 34.3161 10.8234 34.15C10.6573 33.9839 10.564 33.7586 10.564 33.5236V30.4777C10.5664 30.2444 10.6608 30.0214 10.8267 29.8573C10.9926 29.6932 11.2165 29.6011 11.4499 29.6011C11.6832 29.6011 11.9071 29.6932 12.073 29.8573C12.2389 30.0214 12.3333 30.2444 12.3357 30.4777V33.5237L12.3356 33.5236ZM14.7583 43.2971H8.14131C7.98591 43.2971 7.83687 43.3588 7.72699 43.4687C7.6171 43.5786 7.55537 43.7276 7.55537 43.883C7.55537 44.0384 7.6171 44.1874 7.72699 44.2973C7.83687 44.4072 7.98591 44.4689 8.14131 44.4689H14.7585C14.9139 44.4689 15.0629 44.4072 15.1728 44.2973C15.2827 44.1874 15.3444 44.0384 15.3444 43.883C15.3444 43.7276 15.2827 43.5786 15.1728 43.4687C15.0629 43.3588 14.9139 43.2971 14.7585 43.2971H14.7583ZM13.8454 45.2813H9.0542C8.8988 45.2813 8.74976 45.3431 8.63988 45.453C8.52999 45.5628 8.46826 45.7119 8.46826 45.8673C8.46826 46.0227 8.52999 46.1717 8.63988 46.2816C8.74976 46.3915 8.8988 46.4532 9.0542 46.4532H13.8454C14.0008 46.4532 14.1498 46.3915 14.2597 46.2816C14.3696 46.1717 14.4313 46.0227 14.4313 45.8673C14.4313 45.7119 14.3696 45.5628 14.2597 45.453C14.1498 45.3431 14.0008 45.2813 13.8454 45.2813ZM12.7053 47.2657H10.1936C10.0382 47.2657 9.88912 47.3275 9.77923 47.4373C9.66935 47.5472 9.60762 47.6963 9.60762 47.8517C9.60762 48.0071 9.66935 48.1561 9.77923 48.266C9.88912 48.3759 10.0382 48.4376 10.1936 48.4376H12.7053C12.8607 48.4376 13.0097 48.3759 13.1196 48.266C13.2295 48.1561 13.2912 48.0071 13.2912 47.8517C13.2912 47.6963 13.2295 47.5472 13.1196 47.4373C13.0097 47.3275 12.8607 47.2657 12.7053 47.2657ZM16.4366 39.8438C16.7081 37.7442 17.4222 36.8468 18.1183 35.9737C18.8946 34.9981 19.6965 33.9913 19.804 31.6505H32.9508L32.9565 34.1768H20.5493C20.3939 34.1768 20.2449 34.2385 20.135 34.3484C20.0251 34.4583 19.9634 34.6073 19.9634 34.7627C19.9634 34.9181 20.0251 35.0671 20.135 35.177C20.2449 35.2869 20.3939 35.3486 20.5493 35.3486H32.9585L32.9595 35.4679C32.96 35.5727 32.9885 35.6754 33.0422 35.7654C33.0958 35.8554 33.1726 35.9295 33.2645 35.9798C33.3564 36.0301 33.4601 36.0549 33.5648 36.0516C33.6696 36.0483 33.7715 36.017 33.8601 35.9609L38.436 33.0499C38.5183 32.9971 38.5863 32.9251 38.6343 32.8399L39.0981 32.0021V38.0206C39.0981 39.0255 38.3766 39.8438 37.4889 39.8438H16.4366ZM34.1214 31.2032L34.1281 34.4004L36.9348 32.6152L34.1214 31.2032ZM34.3536 30.0089L37.8811 31.7794L44.4273 19.961L41.2525 18.2032L34.354 30.0099L34.3536 30.0089ZM33.0274 29.9562L34.2552 27.8543H19.1604C19.5125 28.6888 19.7256 29.5753 19.7911 30.4786H32.9474V30.2531C32.9474 30.1488 32.975 30.0464 33.0274 29.9563V29.9562ZM18.5489 26.6825C18.0368 25.8641 17.3881 25.1396 16.6312 24.5403H35.1509C35.3063 24.5403 35.4553 24.4786 35.5652 24.3687C35.6751 24.2588 35.7368 24.1098 35.7368 23.9544C35.7368 23.799 35.6751 23.65 35.5652 23.5401C35.4553 23.4302 35.3063 23.3685 35.1509 23.3685H14.6469H14.6391C13.6279 22.9496 12.5441 22.7345 11.4496 22.7354C11.027 22.7354 10.6049 22.7672 10.187 22.8305V3.38584C10.187 2.38057 10.9097 1.5625 11.7964 1.5625H28.277L28.312 12.8546C28.3126 13.0096 28.3746 13.1582 28.4844 13.2676C28.5942 13.3771 28.7429 13.4386 28.8979 13.4388H39.0981V19.5671L34.9416 26.6825H18.5489ZM35.1505 21.2937H14.647C14.4916 21.2937 14.3425 21.2319 14.2327 21.122C14.1228 21.0122 14.061 20.8631 14.061 20.7077C14.061 20.5523 14.1228 20.4033 14.2327 20.2934C14.3425 20.1835 14.4916 20.1218 14.647 20.1218H35.1509C35.3063 20.1218 35.4553 20.1835 35.5652 20.2934C35.6751 20.4033 35.7368 20.5523 35.7368 20.7077C35.7368 20.8631 35.6751 21.0122 35.5652 21.122C35.4553 21.2319 35.3063 21.2937 35.1509 21.2937H35.1505ZM32.6416 17.8101C32.797 17.8101 32.946 17.7483 33.0559 17.6384C33.1658 17.5286 33.2275 17.3795 33.2275 17.2241C33.2275 17.0687 33.1658 16.9197 33.0559 16.8098C32.946 16.6999 32.797 16.6382 32.6416 16.6382H14.647C14.4916 16.6382 14.3425 16.6999 14.2327 16.8098C14.1228 16.9197 14.061 17.0687 14.061 17.2241C14.061 17.3795 14.1228 17.5286 14.2327 17.6384C14.3425 17.7483 14.4916 17.8101 14.647 17.8101H32.6421H32.6416ZM24.8984 13.2515C25.0538 13.2515 25.2029 13.1897 25.3128 13.0798C25.4226 12.97 25.4844 12.8209 25.4844 12.6655C25.4844 12.5101 25.4226 12.3611 25.3128 12.2512C25.2029 12.1413 25.0538 12.0796 24.8984 12.0796H14.647C14.4916 12.0796 14.3425 12.1413 14.2327 12.2512C14.1228 12.3611 14.061 12.5101 14.061 12.6655C14.061 12.8209 14.1228 12.97 14.2327 13.0798C14.3425 13.1897 14.4916 13.2515 14.647 13.2515H24.8984ZM19.5439 8.81514C19.6993 8.81514 19.8484 8.7534 19.9583 8.64352C20.0681 8.53364 20.1299 8.3846 20.1299 8.2292C20.1299 8.0738 20.0681 7.92476 19.9583 7.81488C19.8484 7.70499 19.6993 7.64326 19.5439 7.64326H14.6465C14.4911 7.64326 14.342 7.70499 14.2322 7.81488C14.1223 7.92476 14.0605 8.0738 14.0605 8.2292C14.0605 8.3846 14.1223 8.53364 14.2322 8.64352C14.342 8.7534 14.4911 8.81514 14.6465 8.81514H19.5439ZM41.8438 17.1902L42.4404 16.1689C42.618 15.8693 42.9049 15.6501 43.2407 15.5575C43.5765 15.465 43.9352 15.5062 44.2412 15.6726L45.0801 16.1353C45.2274 16.2166 45.3572 16.3262 45.4622 16.4578C45.5671 16.5894 45.6451 16.7403 45.6916 16.9021C45.7382 17.0638 45.7524 17.2331 45.7335 17.4003C45.7146 17.5676 45.6629 17.7294 45.5813 17.8767L44.9954 18.9355L41.844 17.1902H41.8438ZM29.4826 12.2667H38.3566L29.4517 2.49463L29.4826 12.2667Z" fill="#66170E"/>
</svg>
