<svg width="50" height="50" viewBox="0 0 50 50" fill="none" xmlns="http://www.w3.org/2000/svg">
<g clip-path="url(#clip0_192_81)">
<path d="M30.8959 23.7358V22.8919C30.8959 20.671 30.0705 18.5879 28.5714 17.0266C27.1259 15.5216 26.343 13.5452 26.3678 11.4625C26.3706 11.2215 26.3856 10.9777 26.4131 10.7324H5.41923C4.20954 10.7324 3.2251 11.6991 3.2251 12.888V47.8452C3.2251 49.0337 4.20954 50.0008 5.41923 50.0008H24.3123V44.5678C24.3123 43.0774 25.5267 41.8649 27.0199 41.8649H33.2968V24.5863H31.7354C31.272 24.5863 30.8959 24.2055 30.8959 23.7358ZM20.3391 38.7714H8.55253C8.08865 38.7714 7.71299 38.3902 7.71299 37.9205C7.71299 37.4507 8.08865 37.0695 8.55253 37.0695H20.3391C20.803 37.0695 21.1786 37.4507 21.1786 37.9205C21.1786 38.3902 20.803 38.7714 20.3391 38.7714ZM27.9697 33.8602H8.55253C8.08865 33.8602 7.71299 33.4794 7.71299 33.0096C7.71299 32.5399 8.08865 32.1587 8.55253 32.1587H27.9697C28.4336 32.1587 28.8093 32.5399 28.8093 33.0096C28.8093 33.4794 28.4336 33.8602 27.9697 33.8602ZM27.9697 28.9498H8.55253C8.08865 28.9498 7.71299 28.5686 7.71299 28.0988C7.71299 27.6291 8.08865 27.2483 8.55253 27.2483H27.9697C28.4336 27.2483 28.8093 27.6291 28.8093 28.0988C28.8093 28.5686 28.4336 28.9498 27.9697 28.9498ZM27.9697 23.6645H8.55253C8.08865 23.6645 7.71299 23.2837 7.71299 22.8139C7.71299 22.3442 8.08865 21.963 8.55253 21.963H27.9697C28.4336 21.963 28.8093 22.3442 28.8093 22.8139C28.8093 23.2837 28.4336 23.6645 27.9697 23.6645Z" fill="#66170E"/>
<path d="M25.9907 44.5674V48.9486L31.9281 43.5664H27.0201C26.4526 43.5664 25.9907 44.0153 25.9907 44.5674Z" fill="#66170E"/>
<path d="M34.141 3.54912C34.6615 3.54912 35.0852 3.11991 35.0852 2.59185V0.957275C35.0852 0.429612 34.6615 0 34.141 0C33.6204 0 33.1963 0.429612 33.1963 0.957275V2.59146C33.1963 3.11991 33.6204 3.54912 34.141 3.54912Z" fill="#66170E"/>
<path d="M28.289 4.17823C28.4579 4.46845 28.7702 4.6488 29.1033 4.6488C29.2715 4.6488 29.4372 4.60273 29.5825 4.5157C29.7999 4.38536 29.9539 4.17784 30.0169 3.93015C30.0799 3.68246 30.0441 3.42493 29.9153 3.20481L29.0911 1.78957C28.9623 1.56866 28.7576 1.41233 28.5134 1.34854C28.2689 1.28554 28.0145 1.32176 27.7975 1.45171C27.349 1.72027 27.1998 2.30818 27.4644 2.76299L28.289 4.17823Z" fill="#66170E"/>
<path d="M24.1278 6.74145L25.5561 7.55894C25.6974 7.64006 25.8581 7.68258 26.0191 7.68258C26.3594 7.68258 26.6748 7.49593 26.8421 7.19587C26.9662 6.97339 26.9969 6.71507 26.9296 6.46857C26.8618 6.22206 26.7039 6.0169 26.4842 5.89168L25.056 5.0742C24.6027 4.81548 24.0258 4.97811 23.7695 5.43726C23.5139 5.8968 23.6746 6.48195 24.1278 6.74145Z" fill="#66170E"/>
<path d="M45.8298 10.832H44.1811C43.6605 10.832 43.2368 11.2612 43.2368 11.7893C43.2368 12.317 43.6601 12.7466 44.1811 12.7466H45.8298C46.3504 12.7466 46.7741 12.317 46.7741 11.7893C46.7741 11.2612 46.3508 10.832 45.8298 10.832Z" fill="#66170E"/>
<path d="M44.9023 6.33952C44.6471 5.88077 44.0702 5.71774 43.6162 5.97646L42.1883 6.79315C41.9682 6.91916 41.8103 7.12393 41.7426 7.37043C41.6749 7.61654 41.706 7.87486 41.8296 8.09774C41.997 8.39819 42.3124 8.58484 42.6526 8.58484C42.8141 8.58484 42.9743 8.54192 43.1161 8.4612L44.5439 7.64411C44.9976 7.38421 45.1578 6.79945 44.9023 6.33952Z" fill="#66170E"/>
<path d="M38.6915 4.54454C38.8372 4.63157 39.003 4.67725 39.1712 4.67725C39.5043 4.67725 39.8158 4.49729 39.9851 4.20668L40.8093 2.79144C41.0743 2.33702 40.9247 1.74872 40.4765 1.48016C40.028 1.21239 39.4476 1.36321 39.1834 1.81763L38.3592 3.23287C38.2308 3.45338 38.195 3.71091 38.2576 3.9586C38.3198 4.20589 38.4742 4.4142 38.6915 4.54454Z" fill="#66170E"/>
<path d="M34.4052 5.33633C34.3847 5.33594 34.3642 5.33594 34.3437 5.33594C31.3963 5.33594 28.91 7.35563 28.2335 10.0755C28.2323 10.0798 28.2327 10.0845 28.2315 10.0888C28.1146 10.5618 28.0519 11.03 28.0468 11.4812V11.4828C28.0275 13.1119 28.641 14.659 29.7747 15.8396C31.579 17.7187 32.5729 20.2196 32.5749 22.8843H36.1102V22.7902C36.1102 20.216 37.1159 17.736 38.9415 15.8065C40.0358 14.6504 40.6383 13.1414 40.6383 11.5576C40.6387 8.16051 37.8425 5.36901 34.4052 5.33633ZM32.5938 13.4135C32.476 13.7762 32.0791 13.9609 31.731 13.8152L29.4928 12.8776C29.1726 12.7433 28.9635 12.4275 28.9635 12.0762C28.9635 11.725 29.1726 11.4084 29.4928 11.2741L31.7306 10.3369C32.0791 10.1912 32.4757 10.3763 32.5938 10.7386C32.7025 11.0721 32.5331 11.4332 32.2095 11.5584L30.8706 12.0762L32.2099 12.5941C32.5331 12.7193 32.7025 13.08 32.5938 13.4135ZM36.1366 9.40918L34.109 15.2355C34.0078 15.5265 33.7357 15.7218 33.431 15.7218H33.4184C32.9218 15.7218 32.5749 15.2237 32.7411 14.7496L34.782 8.92326C34.8836 8.63265 35.1549 8.43852 35.4589 8.43852C35.9551 8.43812 36.3016 8.93507 36.1366 9.40918ZM39.9114 12.0762C39.9114 12.4275 39.7027 12.7437 39.3825 12.8776L37.1439 13.8152C36.7962 13.9613 36.3989 13.7766 36.2811 13.4135C36.1724 13.08 36.3422 12.7193 36.6658 12.5945L38.0051 12.0766L36.6662 11.5588C36.3426 11.4336 36.1732 11.0725 36.2815 10.739C36.3993 10.3763 36.7966 10.1916 37.1447 10.3373L39.3829 11.2745C39.7027 11.4084 39.9114 11.725 39.9114 12.0762Z" fill="#66170E"/>
</g>
<defs>
<clipPath id="clip0_192_81">
<rect width="50" height="50" fill="white"/>
</clipPath>
</defs>
</svg>
