<svg width="50" height="50" viewBox="0 0 50 50" fill="none" xmlns="http://www.w3.org/2000/svg">
<g clip-path="url(#clip0_191_66)">
<path d="M29.8064 16.8083L29.4645 19.8467C29.4445 20.0329 29.5102 20.2182 29.643 20.3502C29.7748 20.4881 29.9647 20.5545 30.1537 20.5288L33.1983 20.1823C33.259 20.1752 33.3118 20.1467 33.3697 20.1341L29.8528 16.6172C29.8336 16.6799 29.8181 16.7437 29.8064 16.8083Z" fill="#66170E"/>
<path d="M30.9316 15.1777L40.659 5.45035L44.5645 9.35583L34.8371 19.0832L30.9316 15.1777Z" fill="#66170E"/>
<path d="M41.9165 4.17773L43.2396 2.85468L47.1431 6.75825L45.8201 8.08131L41.9165 4.17773Z" fill="#66170E"/>
<path d="M49.7203 4.18388C49.8985 4.01198 49.9994 3.7752 49.9998 3.52767C50.0002 3.27629 49.8995 3.03533 49.7203 2.85891L47.1427 0.280331C46.967 0.101126 46.7267 0.000164032 46.4757 0C46.2298 0.000902176 45.9946 0.100634 45.823 0.276804L44.5088 1.5884L48.4123 5.49187L49.7203 4.18388Z" fill="#66170E"/>
<path d="M5.35753 37.4994H7.14318C7.63626 37.4994 8.03601 37.0996 8.03601 36.6065V0.892826C8.03609 0.399746 7.63634 0 7.14318 0H5.35753C2.40011 0.00295258 0.00344086 2.39963 0.000488281 5.35704V39.9225C1.35441 38.3818 3.30639 37.4988 5.35753 37.4994Z" fill="#66170E"/>
<path d="M5.61645 49.9994H49.1068C49.5999 49.9994 49.9997 49.5996 49.9997 49.1065V13.3928C49.9997 12.8997 49.5999 12.5 49.1068 12.5H43.9284L35.4517 20.982C34.8953 21.5277 34.1725 21.8717 33.3981 21.9596C30.3848 22.298 30.3572 22.3213 30.0964 22.3213H16.9645V32.1425H38.3928V27.6783C38.3928 27.1852 38.7925 26.7855 39.2856 26.7855C39.7787 26.7855 40.1784 27.1852 40.1784 27.6783V41.0709C40.1784 42.0572 39.3789 42.8566 38.3928 42.8566H20.5358C20.0427 42.8566 19.643 42.4568 19.643 41.9638C19.643 41.4707 20.0427 41.0709 20.5358 41.0709H26.7857V33.9282H16.9645V46.428C16.9645 46.9211 16.5648 47.3208 16.0717 47.3208C15.5786 47.3208 15.1789 46.9211 15.1789 46.428V22.3213H12.5003C12.0072 22.3213 11.6075 21.9215 11.6075 21.4284C11.6075 20.9353 12.0072 20.5356 12.5003 20.5356H27.776C27.6933 20.2494 27.6651 19.9501 27.693 19.6534L28.0314 16.6115C28.1185 15.8209 28.4761 15.0847 29.0438 14.5277L31.0715 12.5H9.82174V36.6067C9.82174 38.086 8.6225 39.2853 7.14318 39.2853H5.35753C2.40011 39.2882 0.00344086 41.6849 0.000488281 44.6423V44.8388C0.199787 47.7799 2.66896 50.0489 5.61645 49.9994Z" fill="#66170E"/>
<path d="M28.5713 33.9277H38.3925V41.0705H28.5713V33.9277Z" fill="#66170E"/>
</g>
<defs>
<clipPath id="clip0_191_66">
<rect width="50" height="50" fill="white"/>
</clipPath>
</defs>
</svg>
