<svg width="50" height="50" viewBox="0 0 50 50" fill="none" xmlns="http://www.w3.org/2000/svg">
<path d="M37.5173 5.29102H34.6654C34.65 5.9984 34.6766 7.43867 34.6654 8.13477C34.6662 8.40282 34.614 8.66839 34.512 8.91625C34.4099 9.16411 34.2599 9.3894 34.0706 9.57921C33.8814 9.76901 33.6565 9.91961 33.4089 10.0224C33.1613 10.1251 32.8959 10.178 32.6279 10.178C32.3598 10.178 32.0944 10.1251 31.8468 10.0224C31.5992 9.91961 31.3743 9.76901 31.1851 9.57921C30.9958 9.3894 30.8458 9.16411 30.7437 8.91625C30.6417 8.66839 30.5895 8.40282 30.5903 8.13477C30.5946 7.4436 30.5871 5.9892 30.5903 5.29102H27.0335C27.0303 5.9984 27.0359 7.43867 27.0335 8.13477C27.0341 8.40269 26.9817 8.66808 26.8796 8.91576C26.7774 9.16343 26.6274 9.38853 26.4381 9.57816C26.2489 9.7678 26.0241 9.91824 25.7766 10.0209C25.5291 10.1235 25.2638 10.1764 24.9959 10.1764C24.728 10.1764 24.4627 10.1235 24.2152 10.0209C23.9678 9.91824 23.7429 9.7678 23.5537 9.57816C23.3644 9.38853 23.2144 9.16343 23.1123 8.91576C23.0101 8.66808 22.9578 8.40269 22.9583 8.13477C22.9567 7.4436 22.9594 5.9892 22.9583 5.29102H19.4016C19.4106 5.9984 19.3952 7.43867 19.4016 8.13477C19.4021 8.40269 19.3498 8.66808 19.2477 8.91576C19.1455 9.16344 18.9955 9.38854 18.8062 9.57817C18.617 9.76781 18.3922 9.91826 18.1447 10.0209C17.8972 10.1236 17.6319 10.1764 17.364 10.1764C17.0961 10.1764 16.8308 10.1236 16.5833 10.0209C16.3358 9.91826 16.111 9.76781 15.9217 9.57817C15.7325 9.38854 15.5825 9.16344 15.4803 8.91576C15.3781 8.66808 15.3258 8.40269 15.3263 8.13477C15.3189 7.4436 15.3317 5.9892 15.3263 5.29102H12.4826C11.5936 5.2928 10.7415 5.64676 10.1128 6.2754C9.48416 6.90405 9.1302 7.75616 9.12842 8.64519V44.3014C9.1302 45.1905 9.48416 46.0426 10.1128 46.6712C10.7414 47.2999 11.5935 47.6538 12.4826 47.6556H37.5173C38.4063 47.6538 39.2585 47.2999 39.8871 46.6712C40.5157 46.0426 40.8697 45.1905 40.8715 44.3015V8.6452C40.8697 7.75617 40.5157 6.90405 39.8871 6.27541C39.2585 5.64676 38.4063 5.2928 37.5173 5.29102ZM17.5948 29.3049V23.6661C17.5965 22.0596 18.1229 20.4977 19.0941 19.218C20.0652 17.9383 21.4278 17.0109 22.9745 16.5769V15.07C22.9818 14.5483 23.1942 14.0506 23.5656 13.6843C23.9371 13.318 24.4378 13.1127 24.9595 13.1127C25.4811 13.1127 25.9818 13.318 26.3533 13.6843C26.7248 14.0506 26.9371 14.5484 26.9444 15.07V16.5688C28.4905 17.0066 29.8519 17.9361 30.8226 19.2167C31.7932 20.4973 32.3203 22.0592 32.324 23.6661V29.2806C32.8192 29.3911 33.2566 29.6795 33.5532 30.0912C33.8498 30.5028 33.9849 31.009 33.933 31.5137C33.881 32.0184 33.6455 32.4865 33.2712 32.8291C32.897 33.1716 32.4099 33.3648 31.9026 33.372H27.8275V34.0202C27.5325 38.1697 21.707 37.5458 22.1725 33.372H18.0971C17.5971 33.3657 17.1163 33.1784 16.7438 32.8448C16.3713 32.5112 16.1322 32.054 16.071 31.5577C16.0097 31.0614 16.1303 30.5597 16.4104 30.1455C16.6906 29.7314 17.1114 29.4327 17.5948 29.3049Z" fill="#66170E"/>
<path d="M17.3681 8.55636C17.4229 8.5559 17.4771 8.54463 17.5276 8.52319C17.578 8.50175 17.6237 8.47057 17.6621 8.43144C17.7005 8.3923 17.7308 8.34598 17.7512 8.29512C17.7717 8.24426 17.7819 8.18986 17.7813 8.13505V4.31911C17.7801 4.20921 17.7357 4.10421 17.6575 4.02691C17.5794 3.94961 17.4739 3.90625 17.364 3.90625C17.2541 3.90625 17.1487 3.94961 17.0706 4.02691C16.9924 4.10421 16.948 4.20921 16.9468 4.31911V8.13505C16.9464 8.19048 16.957 8.24544 16.9781 8.29673C16.9991 8.34802 17.0301 8.39462 17.0693 8.43382C17.1085 8.47302 17.1551 8.50404 17.2064 8.52508C17.2577 8.54611 17.3127 8.55675 17.3681 8.55636Z" fill="#66170E"/>
<path d="M24.9999 8.55636C25.0548 8.5559 25.1089 8.54463 25.1594 8.5232C25.2099 8.50176 25.2556 8.47058 25.294 8.43145C25.3323 8.39231 25.3626 8.34598 25.3831 8.29512C25.4035 8.24426 25.4137 8.18986 25.4131 8.13505V4.31911C25.412 4.20921 25.3675 4.10421 25.2894 4.02691C25.2113 3.94961 25.1058 3.90625 24.9959 3.90625C24.886 3.90625 24.7805 3.94961 24.7024 4.02691C24.6243 4.10421 24.5798 4.20921 24.5786 4.31911V8.13505C24.5782 8.19048 24.5889 8.24544 24.6099 8.29673C24.6309 8.34802 24.662 8.39461 24.7012 8.43381C24.7404 8.47301 24.787 8.50403 24.8383 8.52507C24.8895 8.54611 24.9445 8.55674 24.9999 8.55636Z" fill="#66170E"/>
<path d="M32.6317 8.55714C32.6865 8.55668 32.7407 8.54541 32.7912 8.52398C32.8416 8.50254 32.8874 8.47136 32.9258 8.43223C32.9641 8.39309 32.9944 8.34676 33.0149 8.2959C33.0353 8.24504 33.0455 8.19064 33.0449 8.13583V4.31989C33.044 4.20986 32.9996 4.10466 32.9215 4.02719C32.8433 3.94972 32.7377 3.90625 32.6277 3.90625C32.5177 3.90625 32.4121 3.94972 32.3339 4.02719C32.2558 4.10466 32.2114 4.20986 32.2105 4.31989V8.13583C32.2101 8.19126 32.2207 8.24622 32.2417 8.2975C32.2628 8.34879 32.2938 8.39539 32.333 8.43459C32.3722 8.47379 32.4188 8.50481 32.4701 8.52585C32.5213 8.54688 32.5763 8.55752 32.6317 8.55714Z" fill="#66170E"/>
<path d="M25.3239 16.3092V15.0696C25.3198 14.9757 25.2796 14.887 25.2116 14.822C25.1437 14.757 25.0533 14.7207 24.9593 14.7207C24.8653 14.7207 24.7749 14.757 24.707 14.822C24.6391 14.887 24.5989 14.9757 24.5947 15.0696V16.3092C24.8378 16.2971 25.0808 16.2971 25.3239 16.3092Z" fill="#66170E"/>
<path d="M30.7038 23.6673C30.4541 16.0906 19.4951 16.0375 19.2153 23.6674V29.2413H30.7038V23.6673Z" fill="#66170E"/>
<path d="M18.0973 31.7526H31.9029C32.0195 31.7501 32.1304 31.702 32.2119 31.6187C32.2935 31.5354 32.3391 31.4235 32.3391 31.3069C32.3391 31.1904 32.2934 31.0784 32.2119 30.9951C32.1304 30.9118 32.0194 30.8638 31.9029 30.8613H18.0973C17.9808 30.8638 17.8699 30.9119 17.7883 30.9952C17.7068 31.0785 17.6611 31.1904 17.6611 31.3069C17.6611 31.4235 17.7068 31.5354 17.7883 31.6187C17.8699 31.702 17.9808 31.7501 18.0973 31.7526Z" fill="#66170E"/>
<path d="M23.793 34.0212C23.7976 34.3383 23.9268 34.6409 24.1527 34.8635C24.3786 35.0861 24.683 35.2108 25.0002 35.2108C25.3173 35.2108 25.6217 35.086 25.8476 34.8634C26.0735 34.6408 26.2027 34.3383 26.2073 34.0212V33.373H23.793V34.0212Z" fill="#66170E"/>
</svg>
