<svg width="50" height="50" viewBox="0 0 50 50" fill="none" xmlns="http://www.w3.org/2000/svg">
<path d="M44.5394 35.2354C41.3894 32.5729 39.5832 28.6813 39.5832 24.5583V18.75C39.5832 11.4188 34.1373 5.35 27.0832 4.33333V2.08333C27.0832 0.93125 26.1498 0 24.9998 0C23.8498 0 22.9165 0.93125 22.9165 2.08333V4.33333C15.8603 5.35 10.4165 11.4188 10.4165 18.75V24.5583C10.4165 28.6813 8.61025 32.5729 5.4415 35.2521C4.63109 35.9458 4.1665 36.9542 4.1665 38.0208C4.1665 40.0313 5.80192 41.6667 7.81234 41.6667H42.1873C44.1978 41.6667 45.8332 40.0313 45.8332 38.0208C45.8332 36.9542 45.3686 35.9458 44.5394 35.2354Z" fill="#66170E"/>
<path d="M24.9999 50C28.7728 50 31.929 47.3104 32.654 43.75H17.3457C18.0707 47.3104 21.227 50 24.9999 50Z" fill="#66170E"/>
</svg>
