<svg width="50" height="50" viewBox="0 0 50 50" fill="none" xmlns="http://www.w3.org/2000/svg">
<path d="M2 39.1933V44.5385C5.00943 44.0179 7.93502 43.7547 10.7115 43.7547C15.4055 43.7547 19.8655 44.5093 23.9921 46.0008V40.7161C18.2365 38.0897 10.9405 37.5799 2 39.1933Z" fill="#66170E"/>
<path d="M24.9491 21.8735C24.9744 21.8735 24.9998 21.8706 25.0251 21.8706C25.0495 21.8706 25.0719 21.8735 25.0963 21.8745C30.268 21.8355 34.4638 17.6201 34.4638 12.4387C34.4638 7.23387 30.23 3 25.0251 3C19.8203 3 15.5864 7.23387 15.5864 12.4387C15.5864 17.6172 19.7793 21.8326 24.9491 21.8735Z" fill="#66170E"/>
<path d="M26.0581 40.7161V46.0008C32.6248 43.628 39.951 43.1386 48.0502 44.5385V39.1933C39.1097 37.5799 31.8128 38.0897 26.0581 40.7161Z" fill="#66170E"/>
<path d="M42.5179 36.3817C41.6133 33.7584 40.1168 31.3543 38.1261 29.3636C34.6449 25.8824 30.0191 23.9599 25.096 23.9414C25.0716 23.9414 25.0492 23.9453 25.0248 23.9453C24.9995 23.9453 24.9742 23.9414 24.9488 23.9414C17.0504 23.9736 10.1005 29.0098 7.54248 36.3798C14.3783 35.8222 20.1934 36.6752 25.0248 38.9281C29.8583 36.6742 35.6773 35.8222 42.5179 36.3817Z" fill="#66170E"/>
</svg>
