<svg width="50" height="50" viewBox="0 0 50 50" fill="none" xmlns="http://www.w3.org/2000/svg">
<g clip-path="url(#clip0_191_8)">
<path d="M14.7878 28.8262H0V48.6842H14.7878V28.8262Z" fill="#66170E"/>
<path d="M50.0002 23.7227H35.2124V48.683H50.0002V23.7227Z" fill="#66170E"/>
<path d="M32.3971 16.3184H17.605V48.6833H32.3971V16.3184Z" fill="#66170E"/>
<path d="M42.7196 8.67773L44.8138 12.9261L49.5042 13.6084L46.114 16.9148L46.9122 21.586L42.7196 19.3802L38.527 21.586L39.3252 16.9148L35.9351 13.6084L40.6212 12.926L42.7196 8.67773Z" fill="#66170E"/>
<path d="M25.0805 1.31641L27.1768 5.56696L31.8672 6.24932L28.4771 9.55789L29.2774 14.2246L25.0826 12.0211L20.8879 14.2246L21.686 9.55789L18.2959 6.24932L22.9841 5.56696L25.0805 1.31641Z" fill="#66170E"/>
<path d="M7.1365 13.6328L9.23064 17.8834L13.9211 18.5678L10.5331 21.8721L11.3313 26.541L7.1365 24.3375L2.94175 26.5432L3.74209 21.8743L0.352051 18.5699L5.04027 17.8855L7.1365 13.6328Z" fill="#66170E"/>
</g>
<defs>
<clipPath id="clip0_191_8">
<rect width="50" height="50" fill="white"/>
</clipPath>
</defs>
</svg>
