<svg width="50" height="50" viewBox="0 0 50 50" fill="none" xmlns="http://www.w3.org/2000/svg">
<g clip-path="url(#clip0_199_343)">
<path d="M49.2095 16.9186C49.7281 15.5282 50.0001 14.0453 50.0001 12.5362C50.0001 5.62373 44.3764 0 37.4639 0C35.9548 0 34.4719 0.271973 33.0815 0.790527C41.2659 2.26377 47.7363 8.73418 49.2095 16.9186Z" fill="#66170E"/>
<path d="M34.7733 30.2332C35.7837 30.2332 36.6028 29.4141 36.6028 28.4037C36.6028 27.3933 35.7837 26.5742 34.7733 26.5742C33.7629 26.5742 32.9438 27.3933 32.9438 28.4037C32.9438 29.4141 33.7629 30.2332 34.7733 30.2332Z" fill="#66170E"/>
<path d="M8.41846 26.5742C7.40957 26.5742 6.58887 27.3949 6.58887 28.4037C6.58887 29.4125 7.40957 30.2332 8.41846 30.2332C9.42725 30.2332 10.2479 29.4125 10.2479 28.4037C10.2479 27.3949 9.42725 26.5742 8.41846 26.5742Z" fill="#66170E"/>
<path d="M43.1916 28.4044C43.1916 16.4964 33.5037 6.80859 21.5958 6.80859C9.68789 6.80859 0 16.4965 0 28.4044C0 32.4217 1.11162 36.3429 3.21475 39.7441L3.54756 40.2824L1.28906 48.7112L9.71787 46.4527L10.2562 46.7855C13.6573 48.8887 17.5785 50.0003 21.5958 50.0003C33.5038 50.0003 43.1916 40.3124 43.1916 28.4044ZM8.41836 33.1637C5.79404 33.1637 3.65908 31.0287 3.65908 28.4045C3.65908 25.7803 5.79404 23.6453 8.41836 23.6453C11.0426 23.6453 13.1775 25.7803 13.1775 28.4045C13.1775 31.0287 11.0426 33.1637 8.41836 33.1637ZM21.5958 33.1637C18.9716 33.1637 16.8366 31.0287 16.8366 28.4045C16.8366 25.7803 18.9716 23.6453 21.5958 23.6453C24.22 23.6453 26.355 25.7803 26.355 28.4045C26.355 31.0287 24.22 33.1637 21.5958 33.1637ZM30.0142 28.4044C30.0142 25.7802 32.1491 23.6452 34.7733 23.6452C37.3976 23.6452 39.5325 25.7802 39.5325 28.4044C39.5325 31.0286 37.3976 33.1636 34.7733 33.1636C32.1491 33.1636 30.0142 31.0286 30.0142 28.4044Z" fill="#66170E"/>
<path d="M21.5956 30.2332C22.606 30.2332 23.4251 29.4141 23.4251 28.4037C23.4251 27.3933 22.606 26.5742 21.5956 26.5742C20.5852 26.5742 19.7661 27.3933 19.7661 28.4037C19.7661 29.4141 20.5852 30.2332 21.5956 30.2332Z" fill="#66170E"/>
<path d="M29.5297 3.4043C27.8916 3.4043 26.2881 3.63359 24.7524 4.07998C30.1073 4.76387 35.0582 7.18252 38.9379 11.0622C42.8176 14.9418 45.2362 19.8927 45.9201 25.2476C46.3664 23.7119 46.5958 22.1085 46.5958 20.4704C46.5957 11.0602 38.9399 3.4043 29.5297 3.4043Z" fill="#66170E"/>
</g>
<defs>
<clipPath id="clip0_199_343">
<rect width="50" height="50" fill="white"/>
</clipPath>
</defs>
</svg>
