<svg width="50" height="50" viewBox="0 0 50 50" fill="none" xmlns="http://www.w3.org/2000/svg">
<path d="M33.0531 27.6367L28.3557 38.394C28.2391 38.661 27.8438 38.5985 27.8154 38.3085L27.1098 31.1121L28.0612 28.3638C28.3105 27.6437 27.7756 26.8926 27.0136 26.8926H22.4996C21.7376 26.8926 21.2028 27.6437 21.452 28.3638L22.4034 31.1121L21.9858 38.2116C21.9683 38.5083 21.5635 38.5805 21.4445 38.3081L16.786 27.6396C16.5834 27.1757 16.096 26.9063 15.5956 26.9833C10.7126 27.7348 3.57764 32.6019 3.57764 38.4152V44.0442C3.57764 46.6435 5.68478 48.7506 8.28408 48.7506H41.716C44.3153 48.7506 46.4225 46.6435 46.4225 44.0442V38.4152C46.2692 32.5934 39.2218 27.7206 34.2406 26.9801C33.7411 26.9058 33.2552 27.1739 33.0531 27.6367Z" fill="#66170E"/>
<path d="M25.0001 24.2596C30.5425 24.2596 34.9093 16.7017 34.9093 11.1593C34.9093 5.61679 30.5425 1.25 25.0001 1.25C19.4576 1.25 15.0908 5.61679 15.0908 11.1593C15.2588 16.5338 19.6256 24.2596 25.0001 24.2596Z" fill="#66170E"/>
</svg>
