<svg width="100" height="100" viewBox="0 0 100 100" fill="none" xmlns="http://www.w3.org/2000/svg">
<path fill-rule="evenodd" clip-rule="evenodd" d="M51.6113 30.6133L78.4141 20.9688C78.8633 20.8086 79.3223 20.8691 79.709 21.1406C80.1016 21.418 80.3125 21.8281 80.3125 22.3027V27.1191L51.6113 34.0625V30.6133ZM48.3887 30.6133L21.5859 20.9688C21.1367 20.8086 20.6836 20.8691 20.291 21.1406C19.9043 21.418 19.6875 21.8281 19.6875 22.3027V27.1191L48.3887 34.0625V30.6133ZM16.9922 35.5742L49.291 43.3906C49.7285 43.502 50.1934 43.5117 50.6641 43.4023L83.0078 35.5742C84.5195 35.209 85.4492 33.6855 85.084 32.1758C84.7187 30.6641 83.1953 29.7344 81.6855 30.0996L50 37.7676L18.3145 30.0996C16.8027 29.7344 15.2813 30.6641 14.916 32.1758C14.5508 33.6875 15.4805 35.209 16.9922 35.5742ZM62.1855 15.2559L50.3379 19.4473C50.1113 19.5254 49.8887 19.5254 49.668 19.4473L37.8203 15.2559V21.9336C45.9531 24.4805 54.0762 24.4629 62.1855 21.9336V15.2559ZM29.0566 8.77344V16.7852C29.0566 17.6758 29.7773 18.3965 30.668 18.3965C31.5586 18.3965 32.2793 17.6758 32.2793 16.7852V9.88086L50 16.1484L72.7441 8.10938L50 0.0976562L27.2617 8.10938L29.0547 8.74609V8.77344H29.0566ZM46.1641 63.7773C45.7324 63.4063 45.2773 63.0625 44.7969 62.7578C42.5938 64.916 39.5762 66.2461 36.2539 66.2461C32.9258 66.2461 29.9141 64.918 27.7109 62.7578C27.2285 63.0625 26.7695 63.4063 26.3438 63.7773C31.2109 65.3887 34.7207 69.9727 34.7207 75.377C34.7207 77.6309 34.1055 79.7461 33.0371 81.5605C34.2656 82.375 35.3457 83.3594 36.2539 84.4727C37.1621 83.3594 38.2422 82.375 39.4707 81.5605C38.4023 79.7441 37.7871 77.6289 37.7871 75.377C37.7871 69.9727 41.2969 65.3887 46.1641 63.7773ZM73.6562 63.7773C73.2305 63.4063 72.7695 63.0625 72.2891 62.7578C70.0859 64.916 67.0742 66.2461 63.752 66.2461C60.4238 66.2461 57.4121 64.918 55.209 62.7578C54.7266 63.0625 54.2676 63.4004 53.8418 63.7773C58.7031 65.3887 62.2129 69.9727 62.2129 75.377C62.2129 77.6309 61.6035 79.7461 60.5352 81.5605C61.7578 82.375 62.8437 83.3594 63.752 84.4727C64.6602 83.3594 65.7402 82.375 66.9629 81.5605C65.8945 79.7441 65.2852 77.6289 65.2852 75.377C65.2852 69.9727 68.7969 65.3887 73.6562 63.7773ZM86.043 84.1074C83.8398 86.2617 80.8223 87.5898 77.5 87.5898C74.1719 87.5898 71.1602 86.2617 68.957 84.1074C65.834 86.0723 63.752 89.5547 63.752 93.498C63.752 89.5566 61.6641 86.0742 58.543 84.1074C56.3398 86.2617 53.3281 87.5898 50 87.5898C46.6777 87.5898 43.6602 86.2617 41.457 84.1074C38.334 86.0723 36.252 89.5547 36.252 93.498C36.252 89.5566 34.1641 86.0742 31.043 84.1074C28.8398 86.2617 25.8281 87.5898 22.5059 87.5898C19.1777 87.5898 16.166 86.2617 13.9629 84.1074C10.8398 86.0723 8.75391 89.5547 8.75391 93.498V98.3535C8.75391 99.207 9.45117 99.9043 10.3047 99.9043H34.7031C35.5566 99.9043 36.2539 99.207 36.2539 98.3535C36.2539 99.207 36.9512 99.9043 37.7988 99.9043H62.2031C63.0566 99.9043 63.7539 99.207 63.7539 98.3535C63.7539 99.207 64.4453 99.9043 65.2988 99.9043H89.7031C90.5508 99.9043 91.248 99.207 91.248 98.3535V93.4961C91.2461 89.5547 89.1641 86.0723 86.043 84.1074ZM36.2539 63.0234C41.209 63.0234 45.25 58.9824 45.25 54.0273C45.25 49.0723 41.209 45.0371 36.2539 45.0371C31.2988 45.0371 27.2578 49.0723 27.2578 54.0273C27.2578 58.9824 31.2988 63.0234 36.2539 63.0234ZM22.5059 84.373C27.4551 84.373 31.4961 80.332 31.4961 75.377C31.4961 70.4219 27.4551 66.3809 22.5059 66.3809C17.5508 66.3809 13.5098 70.4219 13.5098 75.377C13.5098 80.332 17.5508 84.373 22.5059 84.373ZM50 84.373C54.9551 84.373 58.9961 80.332 58.9961 75.377C58.9961 70.4219 54.9551 66.3809 50 66.3809C45.0449 66.3809 41.0039 70.4219 41.0039 75.377C41.0039 80.332 45.0449 84.373 50 84.373ZM77.5 84.373C82.4551 84.373 86.4961 80.332 86.4961 75.377C86.4961 70.4219 82.4551 66.3809 77.5 66.3809C72.5449 66.3809 68.5039 70.4219 68.5039 75.377C68.5019 80.332 72.5449 84.373 77.5 84.373ZM63.752 63.0234C68.7012 63.0234 72.7422 58.9824 72.7422 54.0273C72.7422 49.0723 68.7012 45.0371 63.752 45.0371C58.7969 45.0371 54.7559 49.0723 54.7559 54.0273C54.7559 58.9824 58.7969 63.0234 63.752 63.0234Z" fill="#66170E"/>
</svg>
