<svg width="50" height="50" viewBox="0 0 50 50" fill="none" xmlns="http://www.w3.org/2000/svg">
<path fill-rule="evenodd" clip-rule="evenodd" d="M33.624 39.8896L35.6611 43.3857C35.8184 43.6553 35.6055 43.9502 35.3369 43.9502H12.6631C12.3945 43.9502 12.1826 43.6553 12.3389 43.3857L14.376 39.8896H33.624ZM37.7715 14.7812H39.7451V15.7715C40.3984 15.9014 41.0059 16.1592 41.541 16.5156L42.2412 15.8154L43.6367 17.2109L42.9365 17.9111C43.2939 18.4463 43.5508 19.0537 43.6807 19.707H44.6709V21.6807H43.6807C43.5508 22.334 43.293 22.9414 42.9365 23.4766L43.6367 24.1768L42.2412 25.5723L41.541 24.8721C41.0059 25.2295 40.3984 25.4863 39.7451 25.6162V26.6064H37.7715V25.6162C37.1182 25.4863 36.5107 25.2285 35.9756 24.8721L35.2754 25.5723L33.8799 24.1768L34.5801 23.4766C34.2227 22.9414 33.9658 22.334 33.8359 21.6807H32.8457V19.707H33.8359C33.9658 19.0537 34.2236 18.4463 34.5801 17.9111L33.8799 17.2109L35.2754 15.8154L35.9756 16.5156C36.5107 16.1582 37.1182 15.9014 37.7715 15.7715V14.7812ZM38.7578 17.8457C37.1846 17.8457 35.9082 19.1211 35.9082 20.6953C35.9082 22.2686 37.1836 23.5449 38.7578 23.5449C40.3311 23.5449 41.6074 22.2695 41.6074 20.6953C41.6074 19.1211 40.332 17.8457 38.7578 17.8457ZM38.7578 10.3311C33.0342 10.3311 28.3945 14.9707 28.3945 20.6943C28.3945 26.418 33.0342 31.0576 38.7578 31.0576C44.4814 31.0576 49.1211 26.418 49.1211 20.6943C49.1211 14.9707 44.4814 10.3311 38.7578 10.3311ZM38.7578 12.6006C34.2881 12.6006 30.6641 16.2246 30.6641 20.6943C30.6641 25.165 34.2881 28.7881 38.7578 28.7881C43.2275 28.7881 46.8516 25.1641 46.8516 20.6943C46.8525 16.2246 43.2285 12.6006 38.7578 12.6006ZM44.1055 32.9141L43.3662 33.1123L43.0234 31.833C42.2607 32.125 41.4609 32.3408 40.6328 32.4727L40.9756 33.7529L40.2363 33.9512C40.1377 33.9775 40.0791 34.0801 40.1055 34.1787L40.585 35.9688L44.8125 34.8359L44.333 33.0469C44.3066 32.9473 44.2041 32.8877 44.1055 32.9141ZM40.9893 37.4756L42.7217 43.9404C43.0332 45.1035 44.2393 45.7998 45.4014 45.4873C46.5635 45.1758 47.2607 43.9697 46.9492 42.8076L45.2168 36.3428L40.9893 37.4756ZM3.29297 4.43848C1.96484 4.43848 0.878906 5.52441 0.878906 6.85254V32.7227H39.083L39.0547 32.6162C32.3467 32.7783 26.833 27.3916 26.833 20.6943C26.833 14.1084 32.1729 8.76855 38.7588 8.76855C42.0166 8.76855 44.9687 10.0762 47.1221 12.1934V6.85156C47.1221 5.52344 46.0361 4.4375 44.708 4.4375H3.29297V4.43848ZM45.8643 32.7227L45.8428 32.6416C45.668 31.9902 45.1416 31.5225 44.5215 31.3867L44.4629 31.1689C45.4395 30.6357 46.334 29.9697 47.1211 29.1953V32.7227H45.8643ZM20.5723 8.62109H22.7363C22.8633 8.62109 22.9668 8.72461 22.9668 8.85156V20.085C22.9668 20.2119 22.8633 20.3154 22.7363 20.3154H20.5723C20.4453 20.3154 20.3418 20.2119 20.3418 20.085V8.85156C20.3418 8.72461 20.4453 8.62109 20.5723 8.62109ZM6.81836 15.7422H8.98242C9.10938 15.7422 9.21289 15.8457 9.21289 15.9727V20.085C9.21289 20.2119 9.10938 20.3154 8.98242 20.3154H6.81836C6.69141 20.3154 6.58789 20.2119 6.58789 20.085V15.9727C6.58789 15.8457 6.69141 15.7422 6.81836 15.7422ZM11.4033 10.6738H13.5674C13.6943 10.6738 13.7979 10.7773 13.7979 10.9043V20.084C13.7979 20.2109 13.6943 20.3145 13.5674 20.3145H11.4033C11.2764 20.3145 11.1729 20.2109 11.1729 20.084V10.9043C11.1729 10.7773 11.2764 10.6738 11.4033 10.6738ZM15.9873 12.8535H18.1514C18.2783 12.8535 18.3818 12.957 18.3818 13.084V20.085C18.3818 20.2119 18.2783 20.3154 18.1514 20.3154H15.9873C15.8604 20.3154 15.7568 20.2119 15.7568 20.085V13.084C15.7568 12.957 15.8604 12.8535 15.9873 12.8535ZM9.30371 24.4717C8.87207 24.4717 8.52246 24.1221 8.52246 23.6904C8.52246 23.2588 8.87207 22.9092 9.30371 22.9092H25.8682C26.2998 22.9092 26.6494 23.2588 26.6494 23.6904C26.6494 24.1221 26.2998 24.4717 25.8682 24.4717H9.30371ZM3.6875 30.4961C3.25586 30.4961 2.90625 30.1465 2.90625 29.7148C2.90625 29.2832 3.25586 28.9336 3.6875 28.9336H25.8682C26.2998 28.9336 26.6494 29.2832 26.6494 29.7148C26.6494 30.1465 26.2998 30.4961 25.8682 30.4961H3.6875ZM3.6875 27.4834C3.25586 27.4834 2.90625 27.1338 2.90625 26.7021C2.90625 26.2705 3.25586 25.9209 3.6875 25.9209H25.8682C26.2998 25.9209 26.6494 26.2705 26.6494 26.7021C26.6494 27.1338 26.2998 27.4834 25.8682 27.4834H3.6875ZM4.24902 21.292C3.94043 21.292 3.6875 21.0391 3.6875 20.7305V7.80762C3.6875 7.49902 3.94043 7.24609 4.24902 7.24609H25.3066C25.6152 7.24609 25.8682 7.49902 25.8682 7.80762V20.7295C25.8682 21.0381 25.6152 21.291 25.3066 21.291H4.24902V21.292ZM0.878906 34.2852H38.5439C38.5527 34.3848 38.5703 34.4844 38.5967 34.583L39.5996 38.3271H3.29297C1.96484 38.3271 0.878906 37.2402 0.878906 35.9131V34.2852ZM46.2832 34.2852H47.1211V35.9131C47.1211 36.2227 47.0615 36.5195 46.9541 36.792L46.2832 34.2852Z" fill="#66170E"/>
</svg>
