<svg width="50" height="50" viewBox="0 0 50 50" fill="none" xmlns="http://www.w3.org/2000/svg">
<path d="M12.4609 43.0732V41.8496H9.2002C4.55762 41.8496 4.55762 35.5049 9.2002 35.5049H45.8154V34.2783H8.64941C6.03906 34.2783 3.60254 36.1162 3.60254 38.6768C3.60254 41.2344 6.03809 43.0723 8.64941 43.0723H12.4609V43.0732ZM20.1709 41.8496V43.0732H45.8154V41.8496H20.1709ZM20.1709 39.2617V40.6768H42.6406V36.6768H9.2002C7.2627 36.6768 6.49805 38.2598 7.05762 39.4951C7.35937 40.1592 8.07031 40.6768 9.2002 40.6768H12.4609V39.2617H11.124C10.7998 39.2617 10.5371 39.002 10.5371 38.6777C10.5371 38.3535 10.7998 38.0908 11.124 38.0908H21.5078C21.832 38.0908 22.0947 38.3535 22.0947 38.6777C22.0947 39.002 21.832 39.2617 21.5078 39.2617H20.1709ZM13.6348 39.2617V45.2021L15.7607 43.0625C15.9824 42.8408 16.3389 42.833 16.5693 43.0459L18.9971 45.2852V39.2617H13.6348ZM35.8916 19.5127C36.7529 26.2588 31.5068 32.2275 24.708 32.2275C17.9121 32.2275 12.6631 26.2598 13.5273 19.5127H12.5723C11.7139 19.5127 10.8975 19.9443 10.5928 20.7334L5.55176 33.8525C6.46484 33.3789 7.52539 33.1074 8.64941 33.1074H45.3389L39.7197 20.6504C39.3818 19.9033 38.6064 19.5127 37.7764 19.5127H35.8916ZM32.7607 14.8516C31.7061 15.6074 29.876 16.0557 27.8994 16.2686C28.4805 16.8193 28.835 17.5313 28.835 18.3174C28.835 18.6416 28.5752 18.9043 28.251 18.9043C27.9268 18.9043 27.6641 18.6416 27.6641 18.3174C27.6641 17.9053 27.4814 17.5176 27.1738 17.1934C26.8418 16.8447 26.3682 16.5703 25.8096 16.4131C25.4443 16.4268 25.0762 16.4326 24.708 16.4326C24.3398 16.4326 23.9746 16.4268 23.6094 16.4131C23.0498 16.5713 22.5771 16.8447 22.2451 17.1934C21.9355 17.5176 21.752 17.9043 21.752 18.3174C21.752 21.6338 28.8359 18.9619 28.8359 23.5938C28.8359 25.3984 27.0723 26.5859 25.2949 26.7852V27.9863C25.2949 28.3105 25.0322 28.5703 24.708 28.5703C24.3838 28.5703 24.124 28.3105 24.124 27.9863V26.7852C22.3437 26.5859 20.5811 25.3984 20.5811 23.5938C20.5811 23.2695 20.8437 23.0068 21.168 23.0068C21.4922 23.0068 21.752 23.2695 21.752 23.5938C21.752 25.4043 24.999 26.3789 26.8652 24.9893C27.3604 24.6211 27.665 24.1279 27.665 23.5938C27.665 20.2773 20.5811 22.9463 20.5811 18.3174C20.5811 17.5283 20.9385 16.8193 21.5166 16.2686C19.54 16.0557 17.7129 15.6074 16.6553 14.8516C13.6299 18.8408 13.9727 24.5039 17.5664 28.0977C21.5107 32.042 27.9082 32.042 31.8535 28.0977C35.3926 24.5566 35.8301 18.8984 32.7607 14.8516ZM24.708 3.2832L13.8398 6.40527L24.708 9.53027L35.5762 6.40527L24.708 3.2832ZM32.4893 8.5127L24.8682 10.7021C24.7578 10.7354 24.6436 10.7295 24.5391 10.6992L16.9268 8.5127V13.376C16.9268 13.4512 16.9434 13.5225 16.9736 13.5918C17.04 13.6553 17.0898 13.7305 17.1201 13.8105C17.6709 14.4033 19.335 14.8291 21.3555 15.0703C23.4619 15.3223 25.9531 15.3223 28.0625 15.0703C30.083 14.8291 31.7441 14.4033 32.2949 13.8105C32.3252 13.7305 32.375 13.6553 32.4443 13.5918C32.4746 13.5225 32.4883 13.4502 32.4883 13.376V8.5127H32.4893ZM36.1709 10.2588C37.1318 10.6709 37.3838 11.9277 36.6357 12.6729C35.7031 13.6084 34.0996 12.9414 34.0996 11.624C34.0996 11.0205 34.4619 10.4893 34.999 10.2588V8.00293C34.999 7.68164 35.2617 7.41895 35.5859 7.41895C35.9102 7.41895 36.1699 7.68164 36.1699 8.00293V10.2588H36.1709Z" fill="#66170E"/>
</svg>
