<svg width="50" height="50" viewBox="0 0 50 50" fill="none" xmlns="http://www.w3.org/2000/svg">
<g clip-path="url(#clip0_196_191)">
<path fill-rule="evenodd" clip-rule="evenodd" d="M41.4063 39.2018V42.3532L38.455 40.2536L40.4051 38.868L41.4063 39.2018ZM33.2927 8.1836C33.2268 8.30934 33.1971 8.45087 33.2068 8.59249C33.2165 8.7341 33.2653 8.87026 33.3477 8.98584L38.9816 17.0723C39.0541 17.1744 39.1501 17.2577 39.2613 17.3151C39.3726 17.3726 39.496 17.4026 39.6213 17.4026C39.7465 17.4026 39.87 17.3726 39.9812 17.3151C40.0925 17.2577 40.1884 17.1744 40.2609 17.0723L45.8949 8.98633C45.9757 8.8699 46.0231 8.73357 46.032 8.59212C46.0409 8.45067 46.0108 8.3095 45.9452 8.18389C45.8796 8.05828 45.7808 7.95303 45.6596 7.87954C45.5384 7.80605 45.3994 7.76713 45.2577 7.76699H42.2135C41.5235 5.91908 40.3983 4.26468 38.9332 2.94393C37.4681 1.62319 35.7063 0.674999 33.797 0.17969C33.6139 0.13018 33.4191 0.15008 33.2498 0.235565C33.0806 0.32105 32.9489 0.466083 32.8802 0.642776C32.8092 0.818064 32.8049 1.01331 32.8683 1.19151C32.9317 1.3697 33.0582 1.51846 33.2239 1.60957C34.3695 2.2336 35.3553 3.11397 36.1043 4.18193C36.8534 5.24989 37.3455 6.47655 37.5422 7.76612H33.985C33.8426 7.76651 33.7031 7.80551 33.5812 7.87896C33.4593 7.95242 33.3595 8.05756 33.2927 8.18321V8.1836ZM16.7715 48.4415C15.6267 47.8182 14.6415 46.9385 13.8932 45.8712C13.1449 44.8039 12.6536 43.5779 12.4578 42.2892H16.015C16.1577 42.29 16.2978 42.2515 16.42 42.1779C16.5421 42.1043 16.6416 41.9984 16.7075 41.8718C16.7734 41.7453 16.8031 41.6031 16.7934 41.4608C16.7836 41.3185 16.7348 41.1816 16.6523 41.0652L11.0184 32.9834C10.9467 32.88 10.8511 32.7956 10.7397 32.7372C10.6283 32.6789 10.5045 32.6484 10.3787 32.6484C10.253 32.6484 10.1291 32.6789 10.0177 32.7372C9.90629 32.7956 9.81069 32.88 9.73906 32.9834L4.10557 41.0652C4.02309 41.1816 3.9743 41.3184 3.96456 41.4607C3.95482 41.603 3.98451 41.7452 4.05037 41.8718C4.11622 41.9983 4.21569 42.1042 4.33783 42.1778C4.45997 42.2514 4.60005 42.29 4.74268 42.2892H7.78662C8.47737 44.1365 9.6028 45.7904 11.0678 47.111C12.5327 48.4315 14.2941 49.3799 16.203 49.8759C16.2672 49.894 16.3335 49.9033 16.4002 49.9034C16.5728 49.9024 16.7401 49.8442 16.876 49.7378C17.0119 49.6315 17.1087 49.483 17.1511 49.3158C17.1936 49.1485 17.1793 48.9719 17.1106 48.8136C17.0418 48.6553 16.9225 48.5243 16.7713 48.4411L16.7715 48.4415ZM0.320312 26.9265C0.322887 24.1126 1.33576 21.3933 3.17456 19.2634C5.01336 17.1335 7.55582 15.7347 10.3392 15.3216L9.0252 24.8221C9.00828 24.942 9.01643 25.0641 9.04912 25.1807C9.08182 25.2973 9.13834 25.4059 9.21514 25.4995L12.3819 29.272C12.4633 29.3699 12.5653 29.4488 12.6807 29.5029C12.796 29.557 12.9218 29.585 13.0492 29.585C13.1766 29.585 13.3024 29.557 13.4177 29.5029C13.533 29.4488 13.635 29.3699 13.7164 29.272L16.8781 25.4995C16.9567 25.4068 17.0148 25.2985 17.0485 25.1817C17.0821 25.065 17.0906 24.9424 17.0734 24.8221L15.7543 15.3216C18.5381 15.7345 21.0812 17.1331 22.9208 19.2629C24.7605 21.3927 25.7744 24.1122 25.778 26.9265V31.9204H21.862V25.5663C21.8632 25.4513 21.8416 25.3372 21.7985 25.2305C21.7553 25.1239 21.6914 25.0269 21.6105 24.9452C21.5296 24.8634 21.4333 24.7985 21.3271 24.7542C21.221 24.7099 21.1071 24.6871 20.992 24.6871C20.877 24.6871 20.7631 24.7099 20.657 24.7542C20.5508 24.7985 20.4545 24.8634 20.3736 24.9452C20.2927 25.0269 20.2288 25.1239 20.1856 25.2305C20.1425 25.3372 20.1209 25.4513 20.1221 25.5663V31.9204H5.97129V25.5663C5.97251 25.4513 5.95091 25.3372 5.90773 25.2305C5.86456 25.1239 5.80067 25.0269 5.71977 24.9452C5.63886 24.8634 5.54254 24.7985 5.43639 24.7542C5.33023 24.7099 5.21635 24.6871 5.10132 24.6871C4.98629 24.6871 4.8724 24.7099 4.76625 24.7542C4.66009 24.7985 4.56378 24.8634 4.48287 24.9452C4.40197 25.0269 4.33808 25.1239 4.29491 25.2305C4.25173 25.3372 4.23013 25.4513 4.23135 25.5663V31.9204H0.320312V26.9265ZM6.54619 6.50381C6.54669 5.21835 6.9283 3.9619 7.64278 2.89329C8.35726 1.82468 9.37252 0.991888 10.5602 0.500197C11.7479 0.00850489 13.0547 -0.120012 14.3155 0.130891C15.5762 0.381795 16.7343 1.00085 17.6432 1.90981C18.5522 2.81877 19.1712 3.97681 19.4221 5.23755C19.673 6.49828 19.5445 7.8051 19.0528 8.99281C18.5611 10.1805 17.7284 11.1958 16.6597 11.9103C15.5911 12.6247 14.3347 13.0063 13.0492 13.0068C11.3249 13.0055 9.67159 12.32 8.45231 11.1007C7.23304 9.88144 6.54748 8.22812 6.54619 6.50381ZM12.115 15.1983L10.8008 24.6785L13.0489 27.3577L15.297 24.6785L13.983 15.1985L12.115 15.1983ZM49.6797 50.0008V44.2728C49.6871 43.5993 49.4789 42.9411 49.0855 42.3944C48.6921 41.8477 48.1341 41.4412 47.4932 41.2343L43.1511 39.7869V44.0367C43.1509 44.1968 43.1067 44.3537 43.0235 44.4903C42.9402 44.627 42.821 44.7382 42.6788 44.8117C42.5553 44.8765 42.4179 44.91 42.2784 44.9094C42.0985 44.9087 41.923 44.8532 41.7754 44.7503L40.0303 43.5134L39.7373 45.1866L40.579 50.0011H44.9982V47.1624C44.9982 46.9317 45.0899 46.7104 45.253 46.5473C45.4162 46.3841 45.6374 46.2925 45.8682 46.2925C46.0989 46.2925 46.3202 46.3841 46.4833 46.5473C46.6464 46.7104 46.7381 46.9317 46.7381 47.1624V50.0008H49.6797ZM24.222 44.2728C24.2156 43.5988 24.4249 42.9405 24.8191 42.3938C25.2134 41.8472 25.7721 41.4409 26.4136 41.2343L30.7558 39.7869V44.0367C30.7549 44.197 30.7986 44.3543 30.8819 44.4912C30.9653 44.628 31.0851 44.739 31.2279 44.8117C31.3496 44.8764 31.4854 44.91 31.6231 44.9094C31.8031 44.9087 31.9786 44.8532 32.1262 44.7503L33.8713 43.5134L34.1643 45.1866L33.3225 50.0011H28.9029V47.1624C28.9005 46.9333 28.8078 46.7143 28.6449 46.5532C28.482 46.392 28.2621 46.3016 28.033 46.3016C27.8038 46.3016 27.5839 46.392 27.421 46.5532C27.2581 46.7143 27.1654 46.9333 27.163 47.1624V50.0008H24.222V44.2728ZM33.4966 38.868L32.4957 39.2016V42.353L35.447 40.2534L33.4966 38.868ZM31.9414 28.5105C35.3496 28.49 37.8336 27.248 39.3222 24.81C39.5377 24.6049 39.7276 24.5021 39.8404 24.5276C39.9227 24.5481 40.6668 24.8206 41.56 27.8741L41.5907 27.9665C42.0249 29.0031 42.1042 30.1543 41.8161 31.2406C41.528 32.327 40.8888 33.2876 39.9979 33.9728C39.1071 34.6581 38.0146 35.0295 36.8907 35.0293C35.7668 35.0291 34.6745 34.6572 33.784 33.9716C32.9773 33.3406 32.373 32.4872 32.0455 31.5168C31.7181 30.5464 31.6819 29.5013 31.9414 28.5105ZM29.6777 29.8605C29.6782 29.6973 29.7148 29.5363 29.785 29.389C29.8551 29.2417 29.9569 29.1117 30.0832 29.0084C30.0157 29.5762 30.0174 30.15 30.0883 30.7174C29.9596 30.6148 29.8558 30.4844 29.7847 30.3359C29.7137 30.1875 29.6772 30.0248 29.6781 29.8603L29.6777 29.8605ZM29.6777 24.1273C29.5341 25.0871 29.647 26.0931 30.0062 27.1299C30.2301 27.0667 30.4613 27.0322 30.6939 27.0272C30.7779 26.9382 30.88 26.8683 30.9934 26.8222C31.1068 26.7762 31.2287 26.7551 31.351 26.7604C34.5023 26.8835 36.6427 25.9187 37.8848 23.8193C37.92 23.7576 37.9631 23.7006 38.0131 23.65C38.9164 22.7418 39.7377 22.7056 40.2663 22.8441C41.416 23.1316 42.3296 24.466 43.12 27.0272C43.3088 27.0316 43.4965 27.0574 43.6795 27.1042C43.7514 26.7296 43.8232 26.3395 43.8591 26.0777C43.8849 25.9187 43.9104 25.7697 43.931 25.6312C44.1158 24.4353 44.1723 24.076 43.638 23.07C42.9406 21.7589 41.8765 20.6793 40.5755 19.9632C39.2746 19.2471 37.7932 18.9255 36.3124 19.0376C34.8316 19.1498 33.4156 19.6909 32.2373 20.5947C31.0591 21.4986 30.1696 22.7262 29.6777 24.1273ZM43.6797 30.7332C43.7473 30.1496 43.7404 29.5597 43.6592 28.9778C43.7972 29.078 43.91 29.2091 43.9884 29.3606C44.0667 29.5121 44.1086 29.6798 44.1106 29.8504C44.1126 30.0209 44.0746 30.1896 43.9998 30.3429C43.925 30.4962 43.8154 30.6298 43.6797 30.7332ZM34.4461 36.3172V37.4105L36.9508 39.1863L39.4556 37.4105V36.2659C38.6403 36.5959 37.7688 36.7651 36.8893 36.764C36.0546 36.764 35.2268 36.6127 34.4461 36.3174V36.3172ZM38.2186 43.7801L38.4599 42.3942L36.9508 41.3216L35.4371 42.3994C35.4486 42.4363 35.4572 42.4741 35.4628 42.5123L35.6836 43.7801H38.2186ZM35.8729 45.52H38.0287L38.814 50.0008H35.0879L35.8729 45.52Z" fill="#66170E"/>
</g>
<defs>
<clipPath id="clip0_196_191">
<rect width="50" height="50" fill="white"/>
</clipPath>
</defs>
</svg>
