<svg width="50" height="50" viewBox="0 0 50 50" fill="none" xmlns="http://www.w3.org/2000/svg">
<path d="M14.7918 18.7493C16.2502 17.291 17.2918 15.2077 17.5002 12.916H12.0835C12.2918 15.2077 13.3335 17.291 14.7918 18.7493Z" fill="#66170E"/>
<path d="M26.6667 24.1667V22.5V5.625C26.6667 4.16667 25.625 3.125 24.1667 3.125H5.625C4.16667 3.125 3.125 4.16667 3.125 5.625V24.1667C3.125 25.625 4.16667 26.6667 5.625 26.6667H22.5H24.1667C25.4167 26.6667 26.6667 25.4167 26.6667 24.1667ZM21.4583 21.4583C22.0833 21.4583 22.5 21.875 22.5 22.5C22.5 23.125 22.0833 23.5417 21.4583 23.5417C18.9583 23.5417 16.6667 22.7083 14.7917 21.4583C12.9167 22.7083 10.625 23.5417 8.125 23.5417C7.5 23.5417 7.08333 23.125 7.08333 22.5C7.08333 21.875 7.5 21.4583 8.125 21.4583C10 21.4583 11.6667 20.8333 13.125 20C11.4583 18.125 10.2083 15.625 10 12.9167H8.125C7.70833 12.9167 7.29167 12.5 7.29167 12.0833C7.29167 11.4583 7.70833 11.0417 8.33333 11.0417H13.9583V7.08333C13.9583 6.45833 14.375 6.04167 15 6.04167C15.625 6.04167 16.0417 6.45833 16.0417 7.08333V10.8333H21.6667C22.2917 10.8333 22.7083 11.25 22.7083 11.875C22.7083 12.5 22.2917 12.9167 21.6667 12.9167H19.5833C19.375 15.625 18.125 18.125 16.4583 20C17.9167 20.8333 19.5833 21.4583 21.4583 21.4583Z" fill="#66170E"/>
<path d="M44.3752 23.334H28.5418V23.959C28.5418 26.459 26.4585 28.5423 23.9585 28.5423H23.3335V44.3757C23.3335 45.834 24.3752 46.8757 25.8335 46.8757H44.3752C45.8335 46.8757 46.8752 45.834 46.8752 44.3757V25.834C46.8752 24.584 45.8335 23.334 44.3752 23.334ZM40.6252 42.9173C40.0002 43.1257 39.5835 42.9173 39.3752 42.2923L38.1252 38.959H32.2918L31.0418 42.2923C30.8335 42.709 30.4168 42.9173 30.0002 42.9173C29.7918 42.9173 29.7918 42.9173 29.5835 42.9173C29.1668 42.9173 28.9585 42.2923 29.1668 41.6673L34.1668 27.9173C34.3752 27.5007 34.7918 27.2923 35.0002 27.2923C35.4168 27.2923 35.8335 27.5007 36.0418 27.9173L41.0418 41.6673C41.4585 42.2923 41.0418 42.9173 40.6252 42.9173Z" fill="#66170E"/>
<path d="M33.125 37.0833H37.2917L35.2083 31.25L33.125 37.0833Z" fill="#66170E"/>
</svg>
