<svg width="50" height="50" viewBox="0 0 50 50" fill="none" xmlns="http://www.w3.org/2000/svg">
<path d="M17.7083 9.89076L20.6 10.8074V16.2158C20.6 16.5658 20.8167 16.8741 21.1333 16.9991C24.2833 18.1824 27.5917 18.7824 30.8917 18.7824C34.2 18.7824 37.5 18.1824 40.65 16.9991C40.975 16.8741 41.1833 16.5658 41.1833 16.2158V10.8074L42.9917 10.2324V22.2741C42.9917 22.7324 43.3667 23.1074 43.825 23.1074C44.2833 23.1074 44.6583 22.7324 44.6583 22.2741V9.09076C44.6583 9.06576 44.6417 9.04076 44.6417 9.01576C44.6333 8.94076 44.625 8.87409 44.6 8.80742C44.5833 8.77409 44.5667 8.74076 44.55 8.70742C44.5167 8.64909 44.4833 8.59909 44.4417 8.54909C44.4167 8.52409 44.4 8.50742 44.375 8.48242C44.3167 8.43242 44.2583 8.39076 44.1833 8.35742C44.1667 8.34909 44.1417 8.33242 44.125 8.32409C44.1083 8.31576 44.0917 8.30742 44.075 8.29909L31.1417 4.20742C30.9833 4.15742 30.8083 4.15742 30.6417 4.20742L17.7083 8.29909C17.3583 8.40742 17.125 8.73242 17.125 9.09909C17.125 9.45742 17.3583 9.78242 17.7083 9.89076Z" fill="#66170E"/>
<path d="M6.16683 45.8332H35.1585C35.6252 45.8332 35.9918 45.4582 35.9918 44.9999V19.9999C34.3085 20.2999 32.6085 20.4499 30.8918 20.4499C27.3668 20.4499 23.8835 19.8165 20.5502 18.5582C19.5585 18.1665 18.9335 17.2499 18.9335 16.2165V12.0249L17.2085 11.4832C16.1668 11.1582 15.4585 10.1999 15.4585 9.09987C15.4585 8.9082 15.4918 8.71654 15.5252 8.5332H6.16683C5.70016 8.5332 5.3335 8.9082 5.3335 9.36654V44.9999C5.3335 45.4582 5.70016 45.8332 6.16683 45.8332ZM11.3502 16.6582H17.5335C17.9918 16.6582 18.3668 17.0332 18.3668 17.4915C18.3668 17.9499 17.9918 18.3249 17.5335 18.3249H11.3502C10.8835 18.3249 10.5168 17.9499 10.5168 17.4915C10.5168 17.0332 10.8835 16.6582 11.3502 16.6582ZM11.3502 22.3415H29.9835C30.4418 22.3415 30.8168 22.7165 30.8168 23.1749C30.8168 23.6332 30.4418 24.0082 29.9835 24.0082H11.3502C10.8835 24.0082 10.5168 23.6332 10.5168 23.1749C10.5168 22.7165 10.8835 22.3415 11.3502 22.3415ZM11.3502 28.0165H29.9835C30.4418 28.0165 30.8168 28.3915 30.8168 28.8499C30.8168 29.3165 30.4418 29.6832 29.9835 29.6832H11.3502C10.8835 29.6832 10.5168 29.3165 10.5168 28.8499C10.5168 28.3915 10.8835 28.0165 11.3502 28.0165ZM11.3502 33.6999H29.9835C30.4418 33.6999 30.8168 34.0749 30.8168 34.5332C30.8168 34.9915 30.4418 35.3665 29.9835 35.3665H11.3502C10.8835 35.3665 10.5168 34.9915 10.5168 34.5332C10.5168 34.0749 10.8835 33.6999 11.3502 33.6999ZM11.3502 39.3749H29.9835C30.4418 39.3749 30.8168 39.7499 30.8168 40.2082C30.8168 40.6749 30.4418 41.0415 29.9835 41.0415H11.3502C10.8835 41.0415 10.5168 40.6749 10.5168 40.2082C10.5168 39.7499 10.8835 39.3749 11.3502 39.3749Z" fill="#66170E"/>
</svg>
