<svg width="50" height="50" viewBox="0 0 50 50" fill="none" xmlns="http://www.w3.org/2000/svg">
<path fill-rule="evenodd" clip-rule="evenodd" d="M41.2168 19.1973H8.78417C7.70995 19.1973 6.83007 20.0752 6.83007 21.1484V40.0742C6.83007 41.1484 7.70995 42.0283 8.78417 42.0283H14.5674C15.2978 42.0283 15.8965 42.626 15.8965 43.3574V48.6641C15.8965 49.2344 16.2344 49.7187 16.7685 49.9121C17.3057 50.1084 17.876 49.9561 18.2412 49.5215L24.1592 42.499C24.4219 42.1895 24.7705 42.0283 25.1748 42.0283H41.2168C42.291 42.0283 43.168 41.1484 43.168 40.0742V21.1484C43.168 20.0752 42.29 19.1973 41.2168 19.1973ZM25 37.5068H12.2002C11.7549 37.5068 11.3916 37.1445 11.3916 36.7012C11.3916 36.2559 11.7539 35.8926 12.2002 35.8926H25C25.4453 35.8926 25.8057 36.2549 25.8057 36.7012C25.8057 37.1436 25.4463 37.5068 25 37.5068ZM37.8008 31.4189H12.2002C11.7549 31.4189 11.3916 31.0586 11.3916 30.6133C11.3916 30.168 11.7539 29.8076 12.2002 29.8076H37.8008C38.2461 29.8076 38.6064 30.168 38.6064 30.6133C38.6064 31.0586 38.2461 31.4189 37.8008 31.4189ZM37.8008 25.332H12.2002C11.7549 25.332 11.3916 24.9717 11.3916 24.5264C11.3916 24.0811 11.7539 23.7207 12.2002 23.7207H37.8008C38.2461 23.7207 38.6064 24.0811 38.6064 24.5264C38.6055 24.9717 38.2461 25.332 37.8008 25.332ZM16.8086 5.94922C16.9248 5.5918 17.2461 5.35938 17.6201 5.35938L22.6445 5.37012L24.1894 0.589844C24.3057 0.229492 24.624 0 25.001 0C25.375 0 25.6953 0.229492 25.8096 0.589844L27.3535 5.37012L32.3779 5.35938C32.7539 5.35938 33.0723 5.5918 33.1894 5.94922C33.3057 6.30664 33.1836 6.68262 32.8799 6.90137L28.8105 9.84668L30.3721 14.6221C30.4883 14.9795 30.3662 15.3555 30.0625 15.5771C29.7578 15.7988 29.3652 15.7988 29.0605 15.5771L25 12.6143L20.9394 15.5762C20.6377 15.7979 20.2422 15.7979 19.9375 15.5762C19.6328 15.3545 19.5137 14.9785 19.6299 14.6211L21.1914 9.8457L17.1191 6.90039C16.8144 6.68262 16.6924 6.30566 16.8086 5.94922ZM48.4717 8.80566L45.2773 11.1172L46.5039 14.8623C46.5957 15.1445 46.498 15.4385 46.2607 15.6123C46.0225 15.7842 45.7129 15.7842 45.4746 15.6094L42.2881 13.2871L39.1045 15.6094C38.8633 15.7842 38.5566 15.7842 38.3154 15.6123C38.0771 15.4375 37.9834 15.1445 38.0742 14.8623L39.3008 11.1172L36.1064 8.80566C35.8652 8.63086 35.7715 8.33789 35.8633 8.05566C35.9521 7.77637 36.2041 7.59375 36.5 7.5957L40.4424 7.60156L41.6553 3.85059C41.7441 3.57129 41.9961 3.38867 42.2891 3.38867C42.585 3.38867 42.834 3.57129 42.9258 3.85059L44.1357 7.60156L48.0801 7.5957C48.373 7.59277 48.625 7.77539 48.7168 8.05566C48.8066 8.33789 48.71 8.63086 48.4717 8.80566ZM7.70995 13.2871L4.52343 15.6094C4.28515 15.7842 3.97851 15.7842 3.7373 15.6123C3.49902 15.4375 3.40527 15.1445 3.49609 14.8623L4.72265 11.1172L1.52831 8.80566C1.2871 8.63086 1.19335 8.33789 1.28515 8.05566C1.37402 7.77637 1.62597 7.59375 1.92187 7.5957L5.86425 7.60156L7.07421 3.85059C7.16601 3.57129 7.41796 3.38867 7.71093 3.38867C8.00683 3.38867 8.25585 3.57129 8.34765 3.85059L9.55761 7.60156L13.5019 7.5957C13.7949 7.59277 14.0469 7.77539 14.1387 8.05566C14.2305 8.33789 14.1328 8.63184 13.8955 8.80566L10.7012 11.1172L11.9277 14.8623C12.0195 15.1445 11.9219 15.4385 11.6846 15.6123C11.4463 15.7842 11.1367 15.7842 10.8984 15.6094L7.70995 13.2871Z" fill="#66170E"/>
</svg>
