<svg width="50" height="50" viewBox="0 0 50 50" fill="none" xmlns="http://www.w3.org/2000/svg">
<path d="M49.1957 26.8205C49.273 28.6665 48.6149 30.4678 47.3657 31.8291C46.1166 33.1905 44.3785 34.0008 42.5326 34.0822C42.4247 34.0872 42.317 34.0897 42.2094 34.0897C41.719 34.0894 41.23 34.0363 40.7509 33.9314C39.3294 36.1262 37.4654 38.0002 35.2783 39.4334C33.0911 40.8666 30.6288 41.8275 28.049 42.2547C27.7439 43.1511 27.1352 43.9128 26.328 44.408C25.5209 44.9032 24.5661 45.1008 23.6287 44.9667C22.6913 44.8326 21.8303 44.3752 21.1943 43.6736C20.5584 42.972 20.1876 42.0702 20.146 41.1242C20.1044 40.1782 20.3947 39.2474 20.9666 38.4926C21.5385 37.7379 22.3561 37.2067 23.2781 36.9909C24.2001 36.7751 25.1686 36.8882 26.016 37.3106C26.8635 37.7331 27.5367 38.4384 27.9194 39.3046C31.5514 38.6329 34.8325 36.708 37.1909 33.8653C39.5493 31.0227 40.8354 27.4426 40.8251 23.749C40.8251 15.0229 33.726 7.92383 24.9999 7.92383C16.2739 7.92383 9.17473 15.0229 9.17473 23.749C9.17426 26.4473 9.86384 29.1008 11.178 31.4574C11.2225 31.5352 11.2559 31.6188 11.2773 31.7059C11.4042 32.0587 11.3906 32.4467 11.2394 32.7898C11.0881 33.1329 10.8107 33.4047 10.4647 33.5489C9.61726 33.9056 8.70711 34.0892 7.78772 34.0891C7.67951 34.0891 7.57108 34.0866 7.46242 34.0815C5.61739 33.9991 3.88035 33.1883 2.6322 31.827C1.38404 30.4658 0.726632 28.6651 0.804124 26.8198C0.835277 26.084 0.817894 25.4274 0.800902 24.7926C0.785081 24.1948 0.768577 23.5767 0.795726 22.9316C0.876749 21.1299 1.65177 19.4295 2.95847 18.1864C4.26517 16.9433 6.00218 16.2541 7.80569 16.263C10.7018 9.63682 17.3183 4.99414 24.9999 4.99414C32.6816 4.99414 39.2982 9.63682 42.1943 16.2631C43.9979 16.2528 45.7355 16.9415 47.0424 18.1846C48.3494 19.4277 49.1241 21.1286 49.204 22.9306C49.2313 23.5766 49.2149 24.1946 49.1989 24.7924C49.1821 25.4273 49.1646 26.0842 49.1957 26.8205ZM37.2856 23.749C37.2849 25.6312 36.8519 27.4881 36.02 29.1764C35.1881 30.8648 33.9796 32.3395 32.4876 33.4869C30.9956 34.6343 29.26 35.4237 27.4147 35.7943C25.5693 36.1648 23.6635 36.1066 21.8443 35.624L16.8715 38.4958C16.6206 38.6407 16.3324 38.7079 16.0432 38.689C15.7541 38.6701 15.4771 38.5658 15.2472 38.3894C15.0174 38.2131 14.845 37.9725 14.7518 37.6981C14.6587 37.4237 14.649 37.1279 14.724 36.848L15.9949 32.107C13.8903 29.8321 12.7192 26.8482 12.7148 23.749C12.7148 16.9729 18.2256 11.4605 24.9999 11.4605C31.7742 11.4605 37.2856 16.9729 37.2856 23.749ZM21.5844 23.749C21.5844 23.3605 21.4301 22.9879 21.1554 22.7132C20.8806 22.4385 20.5081 22.2842 20.1196 22.2842H20.1171C19.8275 22.2847 19.5446 22.3711 19.304 22.5324C19.0635 22.6937 18.8762 22.9226 18.7657 23.1903C18.6553 23.4581 18.6267 23.7525 18.6835 24.0365C18.7403 24.3204 18.88 24.5812 19.085 24.7858C19.29 24.9904 19.551 25.1296 19.8351 25.1859C20.1192 25.2422 20.4135 25.213 20.681 25.1021C20.9486 24.9911 21.1772 24.8034 21.338 24.5626C21.4988 24.3217 21.5847 24.0386 21.5847 23.749H21.5844ZM26.4651 23.749C26.4649 23.7011 26.4623 23.6532 26.4573 23.6055C26.4526 23.5576 26.4455 23.51 26.4359 23.4629C26.4271 23.416 26.4153 23.3696 26.4006 23.3242C26.387 23.2783 26.3704 23.2334 26.3529 23.1885C26.3353 23.1436 26.3138 23.1016 26.2913 23.0596C26.269 23.0173 26.2446 22.9763 26.2181 22.9365C26.1914 22.8964 26.1627 22.8576 26.1321 22.8203C26.102 22.783 26.0697 22.7474 26.0355 22.7139C26.0023 22.6797 25.9661 22.6475 25.929 22.6162C25.8918 22.5869 25.8528 22.5576 25.8127 22.5313C25.773 22.5048 25.732 22.4803 25.6898 22.458C25.6477 22.4355 25.6038 22.415 25.5598 22.3965C25.5158 22.3781 25.4709 22.3621 25.4251 22.3486C25.3338 22.3193 25.2394 22.3003 25.1439 22.292C25.0004 22.2782 24.8557 22.2851 24.7142 22.3125C24.6671 22.3221 24.6205 22.3342 24.5746 22.3486C24.5289 22.3621 24.4839 22.378 24.4399 22.3965C24.3959 22.415 24.352 22.4355 24.31 22.458C24.268 22.4805 24.227 22.5049 24.1868 22.5313C24.1467 22.5576 24.1077 22.5869 24.0717 22.6162C24.0336 22.6475 23.9985 22.6797 23.9643 22.7139C23.93 22.7475 23.8977 22.783 23.8675 22.8203C23.8373 22.8576 23.8089 22.8964 23.7826 22.9365C23.7558 22.9762 23.731 23.0173 23.7084 23.0596C23.6859 23.1014 23.6656 23.1444 23.6478 23.1885C23.6292 23.2329 23.6129 23.2782 23.5989 23.3242C23.5854 23.3691 23.5737 23.416 23.5639 23.4629C23.5542 23.51 23.547 23.5576 23.5423 23.6055C23.5375 23.6533 23.5355 23.7012 23.5355 23.749C23.5355 23.7969 23.5375 23.8457 23.5423 23.8936C23.5471 23.9411 23.5543 23.9883 23.5639 24.0352C23.5737 24.082 23.5854 24.1289 23.5989 24.1748C23.6129 24.2205 23.6292 24.2655 23.6478 24.3096C23.6656 24.3539 23.6859 24.3973 23.7084 24.4395C23.7308 24.4814 23.7563 24.5225 23.7826 24.5625C23.8089 24.6023 23.8373 24.6408 23.8675 24.6777C23.8979 24.7151 23.9302 24.751 23.9643 24.7852C23.9985 24.8184 24.0336 24.8516 24.0717 24.8818C24.1084 24.9123 24.1469 24.9407 24.1868 24.9668C24.227 24.9932 24.2679 25.0186 24.31 25.041C24.3948 25.0852 24.4834 25.1218 24.5746 25.1504C24.6204 25.1641 24.6673 25.1758 24.7142 25.1855C24.8083 25.2048 24.9042 25.2143 25.0003 25.2139C25.3884 25.2128 25.7603 25.0588 26.0355 24.7852C26.103 24.7166 26.1641 24.6421 26.2181 24.5625C26.2445 24.5225 26.2689 24.4814 26.2913 24.4395C26.3138 24.3975 26.3343 24.3535 26.3529 24.3096C26.3714 24.2656 26.387 24.2197 26.4006 24.1748C26.4152 24.129 26.427 24.0824 26.4359 24.0352C26.4454 23.9884 26.4526 23.9411 26.4573 23.8936C26.4622 23.8455 26.4648 23.7972 26.4648 23.7488L26.4651 23.749ZM31.3479 23.749C31.3479 23.3605 31.1935 22.9879 30.9188 22.7132C30.6441 22.4385 30.2715 22.2842 29.883 22.2842H29.8802C29.5906 22.2847 29.3077 22.3711 29.0671 22.5324C28.8266 22.6937 28.6393 22.9227 28.5289 23.1904C28.4184 23.4581 28.3898 23.7526 28.4467 24.0365C28.5035 24.3205 28.6433 24.5812 28.8482 24.7858C29.0532 24.9904 29.3142 25.1296 29.5983 25.1859C29.8824 25.2422 30.1768 25.213 30.4443 25.1021C30.7118 24.9911 30.9404 24.8034 31.1012 24.5626C31.262 24.3217 31.3479 24.0386 31.3479 23.749Z" fill="#66170E"/>
</svg>
