<svg width="50" height="50" viewBox="0 0 50 50" fill="none" xmlns="http://www.w3.org/2000/svg">
<path fill-rule="evenodd" clip-rule="evenodd" d="M3.3272 30.16H9.01694C9.04173 30.16 9.0655 30.1698 9.08303 30.1873C9.10056 30.2049 9.1104 30.2286 9.1104 30.2534V41.8281C9.1104 41.8529 9.10056 41.8767 9.08303 41.8942C9.0655 41.9117 9.04173 41.9216 9.01694 41.9216H3.3272C3.30242 41.9216 3.27866 41.9117 3.26114 41.8942C3.24362 41.8767 3.23377 41.8529 3.23374 41.8281V30.2531C3.23377 30.2283 3.24362 30.2046 3.26114 30.1871C3.27866 30.1696 3.30242 30.1597 3.3272 30.1597V30.16ZM14.3003 23.6006H19.9901C20.0149 23.6006 20.0387 23.6104 20.0562 23.628C20.0738 23.6455 20.0836 23.6692 20.0836 23.694V41.8281C20.0836 41.8529 20.0738 41.8767 20.0562 41.8942C20.0387 41.9117 20.0149 41.9216 19.9901 41.9216H14.3003C14.2755 41.9216 14.2518 41.9117 14.2342 41.8942C14.2167 41.8767 14.2068 41.8529 14.2068 41.8281V23.694C14.2068 23.6692 14.2167 23.6455 14.2342 23.628C14.2518 23.6104 14.2755 23.6006 14.3003 23.6006ZM26.9957 7.42871C27.0231 7.45488 27.0449 7.48636 27.0598 7.52122C27.0746 7.55609 27.0823 7.59362 27.0822 7.63153C27.0821 7.66944 27.0742 7.70693 27.0592 7.74172C27.0441 7.77651 27.0221 7.80787 26.9946 7.83389C23.6799 10.9897 20.9029 13.4747 17.2038 16.1188C13.3983 18.8392 8.6147 21.7295 1.26401 25.6945C0.880128 25.9016 1.13335 26.4887 1.56118 26.3634L1.56675 26.3617C6.19107 24.9029 10.7943 23.313 15.5156 20.9139C20.1476 18.5604 24.8906 15.4284 29.8744 10.8802C29.902 10.8549 29.9344 10.8354 29.9698 10.8229C30.0051 10.8103 30.0425 10.805 30.0799 10.8072C30.1173 10.8094 30.1539 10.8191 30.1875 10.8357C30.2211 10.8524 30.251 10.8755 30.2754 10.9039C30.8354 11.5518 31.46 11.9969 31.985 12.7008C31.9958 12.7151 32.0104 12.7261 32.0273 12.7323C32.0441 12.7385 32.0623 12.7398 32.0799 12.7359C32.0974 12.732 32.1134 12.7232 32.126 12.7105C32.1386 12.6977 32.1473 12.6816 32.151 12.6641L33.9193 4.14307C33.923 4.12806 33.9229 4.11236 33.9191 4.09739C33.9152 4.08241 33.9077 4.06863 33.8972 4.05728C33.8867 4.04593 33.8736 4.03737 33.859 4.03236C33.8443 4.02736 33.8287 4.02607 33.8134 4.02861L25.1991 5.496C25.1821 5.49893 25.1662 5.50651 25.1533 5.51791C25.1404 5.5293 25.1308 5.54405 25.1258 5.56053C25.1207 5.57702 25.1203 5.59458 25.1246 5.61127C25.129 5.62796 25.1378 5.64312 25.1502 5.65508L26.9959 7.4291L26.9957 7.42871ZM42.0081 30.7962C42.7652 32.3153 42.9571 34.0543 42.5494 35.702C42.1417 37.3497 41.161 38.7985 39.7828 39.7893C38.4046 40.7801 36.7188 41.2481 35.0271 41.1096C33.3354 40.9711 31.7481 40.2352 30.5494 39.0335C29.3506 37.8318 28.6186 36.2428 28.4843 34.5507C28.3499 32.8587 28.8221 31.1741 29.8162 29.7983C30.8103 28.4225 32.2616 27.4453 33.9102 27.0417C35.5589 26.638 37.2974 26.8341 38.8147 27.595C38.8279 27.6016 38.8393 27.6113 38.848 27.6232C38.8567 27.6351 38.8625 27.6488 38.8649 27.6634C38.8672 27.678 38.8661 27.6929 38.8616 27.7069C38.8571 27.7209 38.8493 27.7337 38.8389 27.7441L36.9823 29.6012C36.9684 29.6149 36.9507 29.624 36.9315 29.6274C36.9123 29.6308 36.8926 29.6282 36.8749 29.6201C36.0935 29.3946 35.2662 29.3816 34.4782 29.5826C31.0927 30.4467 29.8941 34.7037 32.3922 37.202C34.8904 39.7002 39.1476 38.5018 40.0118 35.1162C40.2141 34.3229 40.1997 33.4899 39.9699 32.7041C39.9652 32.6881 39.965 32.6711 39.9691 32.655C39.9733 32.6389 39.9817 32.6241 39.9934 32.6123L41.8501 30.7556C41.893 30.7128 41.9658 30.7126 42.0075 30.796L42.0081 30.7962ZM40.4913 25.9758C38.5313 24.781 36.2012 24.3465 33.9423 24.7543C31.6835 25.1621 29.6525 26.3841 28.234 28.1888C26.8156 29.9934 26.1081 32.2556 26.2455 34.5469C26.3829 36.8382 27.3557 38.9996 28.9797 40.6218C30.6037 42.244 32.7662 43.2145 35.0576 43.3494C37.3491 43.4843 39.6105 42.7743 41.4136 41.3539C43.2167 39.9334 44.4365 37.9012 44.8418 35.6418C45.2472 33.3825 44.81 31.0529 43.6131 29.0942C43.6023 29.0764 43.5977 29.0554 43.6002 29.0346C43.6026 29.0138 43.612 28.9945 43.6268 28.9797L45.3749 27.2316C45.3851 27.2212 45.3977 27.2134 45.4116 27.2088C45.4255 27.2041 45.4403 27.2028 45.4547 27.205C45.4692 27.2071 45.483 27.2126 45.4949 27.221C45.5069 27.2294 45.5167 27.2405 45.5236 27.2534C46.7211 29.0186 47.4258 31.0713 47.5649 33.1998C47.704 35.3283 47.2724 37.4553 46.3147 39.3613C45.357 41.2672 43.908 42.883 42.1172 44.0418C40.3264 45.2006 38.2587 45.8604 36.1277 45.953C33.9967 46.0457 31.8796 45.5678 29.9949 44.5688C28.1103 43.5699 26.5265 42.0859 25.407 40.2703C24.2875 38.4547 23.673 36.3731 23.6268 34.2406C23.5806 32.1081 24.1045 30.0019 25.1443 28.1395C25.1682 28.0979 25.1806 28.0507 25.18 28.0027V18.2279C25.18 18.2031 25.1899 18.1794 25.2074 18.1618C25.2249 18.1443 25.2487 18.1344 25.2735 18.1344H30.9632C30.988 18.1344 31.0118 18.1443 31.0293 18.1618C31.0468 18.1794 31.0567 18.2031 31.0567 18.2279V22.4879C31.0565 22.5332 31.0674 22.5778 31.0883 22.618C31.1091 22.6581 31.1395 22.6926 31.1766 22.7185C31.2138 22.7443 31.2567 22.7608 31.3016 22.7664C31.3465 22.772 31.3921 22.7667 31.4345 22.7508C32.8519 22.2261 34.3556 21.9735 35.8667 22.0064C35.904 22.0074 35.9412 22.0009 35.976 21.9872C36.0108 21.9735 36.0424 21.953 36.0692 21.9269C36.0959 21.9008 36.1171 21.8695 36.1315 21.835C36.1459 21.8006 36.1532 21.7635 36.1531 21.7262V12.7613C36.1531 12.7491 36.1555 12.7369 36.1602 12.7255C36.1649 12.7142 36.1717 12.7039 36.1804 12.6952C36.1891 12.6865 36.1994 12.6797 36.2108 12.675C36.2221 12.6703 36.2343 12.6679 36.2465 12.6679H41.9363C41.9611 12.6679 41.9848 12.6777 42.0024 12.6952C42.0199 12.7128 42.0297 12.7365 42.0297 12.7613V23.7137C42.0297 24.006 42.5242 24.0595 42.3633 24.2203L40.6153 25.9684C40.5991 25.9846 40.5775 25.9944 40.5546 25.9958C40.5317 25.9972 40.509 25.9902 40.491 25.976L40.4913 25.9758ZM36.4652 31.597L43.5556 24.5064C43.5882 24.4749 43.6125 24.4357 43.6261 24.3924C43.6398 24.3491 43.6424 24.3031 43.6337 24.2585L43.3846 22.8791C43.3591 22.7797 43.3599 22.6754 43.387 22.5764C43.4141 22.4775 43.4665 22.3873 43.5391 22.3147L45.579 20.2749L45.5805 20.2765C45.6567 20.2008 45.7521 20.1473 45.8564 20.1219C45.9607 20.0965 46.07 20.1 46.1724 20.1322C46.2748 20.1644 46.3665 20.2239 46.4376 20.3044C46.5086 20.3849 46.5563 20.4833 46.5755 20.589L46.8251 21.9757C46.8347 22.0322 46.8616 22.0844 46.9022 22.1249C46.9427 22.1655 46.9949 22.1924 47.0514 22.202L48.3941 22.4434C48.5054 22.4544 48.6112 22.4968 48.6993 22.5656C48.7874 22.6345 48.8541 22.7269 48.8916 22.8322C48.9292 22.9375 48.936 23.0513 48.9114 23.1604C48.8867 23.2694 48.8316 23.3692 48.7524 23.4481L46.7126 25.488L46.711 25.4864C46.644 25.5535 46.5617 25.6034 46.4712 25.6319C46.3807 25.6603 46.2846 25.6664 46.1913 25.6496L44.549 25.354C44.5044 25.3454 44.4584 25.348 44.4151 25.3616C44.3718 25.3753 44.3326 25.3995 44.301 25.4321L37.1874 32.5454C37.4944 32.9378 37.5853 33.5529 37.5247 34.0241C37.287 35.8698 35.0211 36.648 33.7002 35.3271C32.3793 34.0063 33.1573 31.7405 35.0032 31.5027C35.9733 31.3777 36.1972 31.8649 36.4652 31.597Z" fill="#013C1D"/>
</svg>
