<svg width="50" height="50" viewBox="0 0 50 50" fill="none" xmlns="http://www.w3.org/2000/svg">
<path fill-rule="evenodd" clip-rule="evenodd" d="M37.7235 39.9458C36.1503 41.2903 34.1081 42.1021 31.876 42.1021C26.9024 42.1021 22.8711 38.071 22.8711 33.0972C22.8711 28.1235 26.9024 24.0923 31.876 24.0923C36.8497 24.0923 40.881 28.1235 40.881 33.0972C40.881 35.0196 40.2787 36.8011 39.2528 38.2635L42.0672 41.0116L42.1794 40.8959C42.4919 40.5732 43.0144 40.5655 43.3371 40.8779L48.2827 45.6775C48.6053 45.99 48.613 46.5099 48.298 46.8351L46.5129 48.674C46.2004 48.9968 45.6805 49.0044 45.3552 48.692L40.4123 43.8924C40.087 43.5799 40.0793 43.0574 40.3943 42.7348L40.485 42.6414L37.7235 39.9458ZM31.876 39.5793C35.4462 39.5793 38.3581 36.6673 38.3581 33.0972C38.3581 29.5271 35.4462 26.6152 31.876 26.6152C28.3059 26.6152 25.394 29.5271 25.394 33.0972C25.394 36.6673 28.3059 39.5793 31.876 39.5793ZM25.9308 8.45097V12.7074H30.3559C30.6267 12.7074 30.8461 12.9269 30.8461 13.1976V22.5732C25.4894 23.0909 21.3025 27.6046 21.3025 33.0972C21.3025 33.6443 21.344 34.1817 21.4241 34.7064H20.1482V13.1976C20.1482 12.9269 20.3677 12.7074 20.6383 12.7074H24.3622V1.86244C24.3622 1.4296 24.7136 1.07812 25.1465 1.07812C25.5793 1.07812 25.9308 1.4296 25.9308 1.86244V2.47734H33.5295C33.5761 2.47734 33.6185 2.5042 33.6384 2.54636C33.6583 2.58852 33.6522 2.63832 33.6227 2.6744L31.179 5.65097C31.1399 5.69862 31.1431 5.76813 31.1863 5.81205L33.5825 8.24587C33.6165 8.28048 33.6265 8.33214 33.6078 8.37695C33.5889 8.42175 33.5451 8.45097 33.4966 8.45097H25.9308ZM22.807 38.5369H1.4707V36.275H21.7883C22.0397 37.0741 22.3834 37.8322 22.807 38.5369ZM35.4723 23.1509V20.6816C35.4723 20.5516 35.5239 20.4269 35.6159 20.335C35.7078 20.243 35.8325 20.1914 35.9625 20.1914H45.68C45.81 20.1914 45.9347 20.243 46.0267 20.335C46.1185 20.4269 46.1702 20.5516 46.1702 20.6816V34.7064H42.328C42.4081 34.1817 42.4496 33.6443 42.4496 33.0972C42.4496 28.5198 39.5417 24.6222 35.4723 23.1509ZM41.9638 36.275H48.5295V38.5369H40.9451C41.3686 37.8322 41.7124 37.0741 41.9638 36.275ZM4.82413 34.7064V24.5825C4.82413 24.3118 5.04355 24.0923 5.31433 24.0923H15.0319C15.3026 24.0923 15.5221 24.3118 15.5221 24.5825V34.7064H4.82413Z" fill="#013C1D"/>
</svg>
