<svg width="50" height="50" viewBox="0 0 50 50" fill="none" xmlns="http://www.w3.org/2000/svg">
<path d="M19.5312 14.8438C19.5312 17.0016 17.7828 18.75 15.625 18.75C13.4672 18.75 11.7188 17.0016 11.7188 14.8438C11.7188 12.6859 13.4672 10.9375 15.625 10.9375C17.7828 10.9375 19.5312 12.6859 19.5312 14.8438Z" fill="#013C1D"/>
<path d="M13.3906 38.2812L12.4844 45.5C12.3906 46.2969 11.7188 46.875 10.9375 46.875C10.875 46.875 10.8125 46.875 10.75 46.8594C9.89063 46.75 9.28125 45.9687 9.39063 45.125L10.2344 38.2812H13.3906Z" fill="#013C1D"/>
<path d="M21.8594 45.125C21.9687 45.9687 21.3594 46.75 20.5 46.8594C20.4375 46.875 20.375 46.875 20.3125 46.875C19.5312 46.875 18.8594 46.2969 18.7656 45.5L17.8594 38.2812H21.0156L21.8594 45.125Z" fill="#013C1D"/>
<path d="M28.1248 21.8747C28.1248 22.7372 27.4248 23.4372 26.5623 23.4372H19.7263L20.5076 29.6872L23.1263 35.2731C23.2701 35.5825 23.0451 35.9372 22.7029 35.9372H8.54664C8.20445 35.9372 7.97945 35.5825 8.12476 35.2731L10.742 29.6872L11.5623 23.1278L6.94664 20.0497C6.65758 19.8559 6.44039 19.5731 6.33101 19.2434L4.76851 14.5559C4.49351 13.7372 4.93726 12.8528 5.75601 12.5794C6.57633 12.3044 7.45914 12.7497 7.73258 13.5684L9.12633 17.7481L12.9732 20.3122H26.5623C27.4248 20.3122 28.1248 21.0122 28.1248 21.8747Z" fill="#013C1D"/>
<path d="M46.2984 15.6156C41.3484 15.4641 39.4156 13.4141 35.1562 13.7453V4.71093C39.4031 4.30937 41.3359 6.09843 46.2531 6.24062C46.5078 6.24843 46.6594 6.53437 46.5047 6.73749L43.75 10.3672L46.5859 15.1391C46.7109 15.3484 46.5438 15.6234 46.2984 15.6156Z" fill="#013C1D"/>
<path d="M29.6875 46.875V4.6875C29.6875 3.825 30.3875 3.125 31.25 3.125C32.1125 3.125 32.8125 3.825 32.8125 4.6875V46.875H29.6875Z" fill="#013C1D"/>
</svg>
