<svg width="50" height="50" viewBox="0 0 50 50" fill="none" xmlns="http://www.w3.org/2000/svg">
<path d="M18.4463 39.1569H31.5537V39.9727C31.5537 41.1766 30.5719 42.1584 29.368 42.1584H20.632C19.428 42.1584 18.4463 41.1766 18.4463 39.9727V39.1569ZM23.8565 46.2455H26.1434C27.6782 46.2455 28.9695 45.1618 29.291 43.721H20.7088C21.0303 45.1623 22.3216 46.2455 23.8565 46.2455ZM3.71982 8.16289L7.29522 10.2271C7.66768 10.4429 8.14453 10.3158 8.36025 9.94336C8.57598 9.5709 8.44893 9.09404 8.07647 8.87832L4.50107 6.81396C4.12861 6.59824 3.65176 6.72529 3.43604 7.09775C3.22031 7.47031 3.34736 7.94717 3.71982 8.16289ZM7.29522 28.8709L3.71982 30.9352C3.34736 31.1509 3.22031 31.6277 3.43604 32.0002C3.65176 32.3727 4.12861 32.4997 4.50107 32.284L8.07647 30.2197C8.44893 30.004 8.57598 29.5271 8.36025 29.1547C8.14463 28.7822 7.66777 28.6552 7.29522 28.8709ZM46.2801 30.9352L42.7048 28.8709C42.3323 28.6552 41.8555 28.7822 41.6397 29.1547C41.424 29.5271 41.5511 30.004 41.9235 30.2197L45.4989 32.284C45.8714 32.4997 46.3482 32.3727 46.564 32.0002C46.7796 31.6277 46.6525 31.1509 46.2801 30.9352ZM42.7048 10.2271L46.2801 8.16289C46.6525 7.94717 46.7796 7.47031 46.5639 7.09785C46.3481 6.72539 45.8713 6.59834 45.4988 6.81406L41.9234 8.87832C41.551 9.09404 41.4239 9.5709 41.6396 9.94336C41.8554 10.3157 42.3323 10.4429 42.7048 10.2271ZM5.78857 19.549C5.78857 19.1176 5.43877 18.7678 5.00732 18.7678H0.878906C0.447461 18.7678 0.0976562 19.1176 0.0976562 19.549C0.0976562 19.9805 0.447461 20.3303 0.878906 20.3303H5.00732C5.43877 20.3303 5.78857 19.9805 5.78857 19.549ZM49.1211 18.7678H44.9926C44.5611 18.7678 44.2113 19.1176 44.2113 19.549C44.2113 19.9805 44.5611 20.3303 44.9926 20.3303H49.1211C49.5525 20.3303 49.9023 19.9805 49.9023 19.549C49.9023 19.1176 49.5525 18.7678 49.1211 18.7678ZM15.3153 28.2641L16.128 25.9859L24.5829 21.1042C25.0164 20.8539 25.1276 20.3511 24.8987 19.9253C24.674 19.5074 24.1308 19.3723 23.7198 19.6094L15.2649 24.4911L12.8854 24.0561C12.8161 24.0434 12.7524 24.0543 12.6914 24.0895L7.77744 26.9267C7.6709 26.9881 7.68623 27.1463 7.80273 27.1858L10.6452 28.1549L10.0632 31.1012C10.0395 31.2219 10.1687 31.3143 10.2752 31.2527L15.1892 28.4154C15.2502 28.3801 15.2916 28.3305 15.3153 28.2641ZM40.9006 19.6563C40.9006 25.4686 37.7825 30.5523 33.1278 33.3258C32.1243 33.9237 31.5537 34.9275 31.5537 36.0957V37.5945H18.4463V36.0957C18.4463 34.9272 17.8756 33.9237 16.8721 33.3258C15.7719 32.6703 14.7577 31.8855 13.8501 30.9928L15.9703 29.7686C16.3148 29.5695 16.5815 29.2709 16.7394 28.9095C18.3158 30.3421 20.2707 31.3657 22.4365 31.8121V27.8278C21.2379 27.4548 20.1563 26.8164 19.2602 25.9816L23.6711 23.4348C24.0555 23.5692 24.4686 23.6426 24.8987 23.6426C26.9518 23.6426 28.6161 21.9782 28.6161 19.9251C28.6161 17.8721 26.9518 16.2076 24.8987 16.2076C23.082 16.2076 21.5699 17.5109 21.2458 19.2335L15.7836 22.3873H13.0119C13.0196 22.4249 13.0281 22.4623 13.0362 22.4997C12.6456 22.4564 12.2531 22.5381 11.9102 22.7361L9.70332 24.0104C9.31025 22.6267 9.09941 21.1662 9.09941 19.6563C9.09941 10.8749 16.2183 3.75586 25 3.75586C33.7817 3.75586 40.9006 10.8749 40.9006 19.6563ZM17.9397 19.9252C17.9397 19.4304 17.5349 19.0255 17.04 19.0255H12.3453C11.8504 19.0255 11.4456 19.4304 11.4456 19.9252C11.4456 20.42 11.8505 20.8249 12.3453 20.8249H17.04C17.535 20.8249 17.9397 20.42 17.9397 19.9252ZM22.4365 8.03828C17.7092 9.0124 13.986 12.7355 13.0119 17.463H16.9961C17.8022 14.8729 19.8465 12.8286 22.4366 12.0225V8.03828H22.4365ZM25.7984 7.37168C25.7984 6.87686 25.3936 6.47197 24.8987 6.47197C24.4039 6.47197 23.999 6.87686 23.999 7.37168V12.0664C23.999 12.5612 24.4039 12.9661 24.8987 12.9661C25.3936 12.9661 25.7984 12.5612 25.7984 12.0664V7.37168ZM25.7984 27.7839C25.7984 27.2891 25.3936 26.8842 24.8987 26.8842C24.4039 26.8842 23.999 27.2891 23.999 27.7839V32.4786C23.999 32.9734 24.4039 33.3783 24.8987 33.3783C25.3936 33.3783 25.7984 32.9735 25.7984 32.4786V27.7839ZM36.7856 22.3874H32.8015C31.9953 24.9774 29.9511 27.0218 27.3609 27.8278V31.812C32.0883 30.8379 35.8114 27.1147 36.7856 22.3874ZM37.4522 19.0255H32.7574C32.2626 19.0255 31.8577 19.4304 31.8577 19.9252C31.8577 20.42 32.2626 20.8249 32.7574 20.8249H37.4522C37.9471 20.8249 38.352 20.42 38.352 19.9252C38.352 19.4304 37.9471 19.0255 37.4522 19.0255ZM36.7856 17.463C35.8114 12.7356 32.0884 9.0125 27.3609 8.03828V12.0225C29.951 12.8286 31.9953 14.8729 32.8015 17.463H36.7856Z" fill="#013C1D"/>
</svg>
