<svg width="50" height="50" viewBox="0 0 50 50" fill="none" xmlns="http://www.w3.org/2000/svg">
<path d="M35.1406 31.5C35.1406 27.9063 33.2266 24.625 30.1172 22.8438C29.2109 23.8906 27.9844 24.6484 26.5938 24.9531V31.0625C26.5938 31.1016 26.5859 31.1406 26.5703 31.1797L25.5313 34.3047C25.4844 34.4688 25.3359 34.5781 25.1641 34.5781C24.9922 34.5781 24.8438 34.4688 24.7969 34.3047L23.7578 31.1797C23.7422 31.1406 23.7344 31.1016 23.7344 31.0625V24.9531C22.3437 24.6484 21.1172 23.8906 20.2109 22.8438C17.1016 24.625 15.1875 27.9063 15.1875 31.5V34.875H35.1406V31.5Z" fill="#013C1D"/>
<path d="M24.5156 25.0859V31L25.1641 32.9453L25.8125 31V25.0859C25.6016 25.1094 25.3828 25.1172 25.1641 25.1172C24.9453 25.1172 24.7266 25.1094 24.5156 25.0859Z" fill="#013C1D"/>
<path d="M30.9453 18.5625V15.9375C29.0234 16.4219 27.0937 16.6641 25.1641 16.6641C23.2344 16.6641 21.3047 16.4219 19.3828 15.9375V18.5625C19.3828 21.7422 21.9766 24.3359 25.1641 24.3359C28.3516 24.3359 30.9453 21.7422 30.9453 18.5625Z" fill="#013C1D"/>
<path d="M32.3125 11.7891L25.2891 14.1328C25.25 14.1484 25.2031 14.1563 25.1641 14.1563C25.125 14.1563 25.0781 14.1484 25.0391 14.1328L18.0156 11.7891V14.7344C22.7578 16.2578 27.5703 16.2578 32.3125 14.7344V11.7891Z" fill="#013C1D"/>
<path d="M17.7578 10.8828C17.7656 10.8906 17.7734 10.8906 17.7813 10.8906L25.1641 13.3516L32.5469 10.8906C32.5547 10.8906 32.5625 10.8906 32.5703 10.8828L35.2422 9.99219L25.1641 6.63281L15.0859 9.99219L17.7578 10.8828Z" fill="#013C1D"/>
<path d="M15.2266 10.8984V14.9609H15.1484C14.9297 14.9609 14.7578 15.1328 14.7578 15.3516V17.2344C14.7578 17.4531 14.9297 17.625 15.1484 17.625H16.0859C16.3047 17.625 16.4766 17.4531 16.4766 17.2344V15.3516C16.4766 15.1328 16.3047 14.9609 16.0859 14.9609H16.0078V11.2656L15.2266 10.8984Z" fill="#013C1D"/>
<path d="M41.2422 29.7734L40.0937 27.4453L38.9453 29.7734C38.8828 29.9062 38.7578 29.9922 38.6094 30.0156L36.0391 30.3906L37.8984 32.2031C38 32.3047 38.0547 32.4531 38.0234 32.5938L37.5859 35.1484L39.8828 33.9453C40.0078 33.875 40.1641 33.875 40.2969 33.9453L42.5937 35.1484L42.1562 32.5938C42.1328 32.4453 42.1797 32.3047 42.2812 32.2031L44.1406 30.3906L41.5703 30.0156C41.4297 29.9922 41.3047 29.9062 41.2422 29.7734Z" fill="#013C1D"/>
<path d="M7.71875 32.2031C7.82031 32.3047 7.875 32.4531 7.84375 32.5938L7.40625 35.1484L9.70312 33.9453C9.76562 33.9141 9.83594 33.8906 9.90625 33.8906C9.97656 33.8906 10.0469 33.9062 10.1094 33.9453L12.4062 35.1484L11.9687 32.5938C11.9453 32.4531 11.9922 32.3047 12.0937 32.2031L13.9531 30.3906L11.3828 30.0156C11.2422 29.9922 11.1172 29.9062 11.0469 29.7734L9.89844 27.4453L8.75 29.7734C8.6875 29.9062 8.5625 29.9922 8.41406 30.0156L5.85938 30.3906L7.71875 32.2031Z" fill="#013C1D"/>
<path d="M35.5547 38.6016L32.9844 38.2266C32.8438 38.2031 32.7187 38.1172 32.6484 37.9844L31.5 35.6562L30.3516 37.9844C30.2891 38.1172 30.1641 38.2031 30.0156 38.2266L27.4453 38.6016L29.3047 40.4141C29.4062 40.5156 29.4609 40.6641 29.4297 40.8047L28.9922 43.3594L31.2891 42.1562C31.3516 42.125 31.4219 42.1016 31.4922 42.1016C31.5625 42.1016 31.6328 42.1172 31.6953 42.1562L33.9922 43.3594L33.5547 40.8047C33.5312 40.6563 33.5781 40.5156 33.6797 40.4141L35.5547 38.6016Z" fill="#013C1D"/>
<path d="M22.5469 38.6016L19.9766 38.2266C19.8359 38.2031 19.7109 38.1172 19.6406 37.9844L18.4922 35.6562L17.3438 37.9844C17.2813 38.1172 17.1563 38.2031 17.0078 38.2266L14.4375 38.6016L16.2969 40.4141C16.3984 40.5156 16.4531 40.6641 16.4219 40.8047L15.9844 43.3594L18.2813 42.1562C18.4063 42.0859 18.5625 42.0859 18.6953 42.1562L20.9922 43.3594L20.5547 40.8047C20.5312 40.6563 20.5781 40.5156 20.6797 40.4141L22.5469 38.6016Z" fill="#013C1D"/>
</svg>
