<svg width="50" height="50" viewBox="0 0 50 50" fill="none" xmlns="http://www.w3.org/2000/svg">
<g clip-path="url(#clip0_181_275)">
<path d="M22.3213 35.7148H27.6784V45.5363H22.3213V35.7148Z" fill="#66170E"/>
<path d="M0 47.3223H11.6071V49.108H0V47.3223Z" fill="#66170E"/>
<path d="M13.3931 22.3223H36.6074V24.108H13.3931V22.3223Z" fill="#66170E"/>
<path d="M11.6073 22.3209C10.6211 22.3209 9.82161 21.5214 9.82161 20.5352H3.78232C3.44387 20.5341 3.13427 20.7256 2.98411 21.0289L1.44482 24.1066H11.6073V22.3209Z" fill="#66170E"/>
<path d="M34.8216 45.5354V25.8926H15.1787V45.5354H20.5359V34.8212C20.5359 34.328 20.9356 33.9283 21.4287 33.9283H28.5716C29.0647 33.9283 29.4644 34.328 29.4644 34.8212V45.5354H34.8216ZM23.2144 30.3569C23.2144 30.85 22.8147 31.2497 22.3216 31.2497C21.8285 31.2497 21.4287 30.85 21.4287 30.3569V28.5711C21.4287 28.078 21.8285 27.6783 22.3216 27.6783C22.8147 27.6783 23.2144 28.078 23.2144 28.5711V30.3569ZM28.5716 30.3569C28.5716 30.85 28.1718 31.2497 27.6787 31.2497C27.1856 31.2497 26.7859 30.85 26.7859 30.3569V28.5711C26.7859 28.078 27.1856 27.6783 27.6787 27.6783C28.1718 27.6783 28.5716 28.078 28.5716 28.5711V30.3569Z" fill="#66170E"/>
<path d="M33.8206 13.6542C33.653 13.4865 33.4256 13.3924 33.1885 13.3926H16.0152C15.7503 13.3927 15.4991 13.5104 15.3295 13.714L12.6206 16.964H37.1304L33.8206 13.6542Z" fill="#66170E"/>
<path d="M36.6074 3.13214H36.619L25.0002 0L13.3931 3.11786L25.0047 6.25L36.6074 3.13214Z" fill="#66170E"/>
<path d="M38.3931 24.1066H48.5556L47.0163 21.0289C46.8661 20.7256 46.5565 20.5341 46.2181 20.5352H40.1788C40.1788 21.5214 39.3793 22.3209 38.3931 22.3209V24.1066Z" fill="#66170E"/>
<path d="M24.5409 7.97433L17.8569 6.17969V11.6065H32.1426V6.17969L25.4587 7.97433C25.1581 8.05527 24.8415 8.05527 24.5409 7.97433Z" fill="#66170E"/>
<path d="M11.6069 18.75H38.3927V20.5357H11.6069V18.75Z" fill="#66170E"/>
<path d="M13.3931 25.8926H0.893066V45.5354H13.3931V25.8926ZM5.35735 41.964C5.35735 42.4571 4.95761 42.8569 4.46449 42.8569C3.97138 42.8569 3.57164 42.4571 3.57164 41.964V40.1783C3.57164 39.6852 3.97138 39.2854 4.46449 39.2854C4.95761 39.2854 5.35735 39.6852 5.35735 40.1783V41.964ZM5.35735 36.6069C5.35735 37.1 4.95761 37.4997 4.46449 37.4997C3.97138 37.4997 3.57164 37.1 3.57164 36.6069V34.8212C3.57164 34.328 3.97138 33.9283 4.46449 33.9283C4.95761 33.9283 5.35735 34.328 5.35735 34.8212V36.6069ZM5.35735 31.2497C5.35735 31.7428 4.95761 32.1426 4.46449 32.1426C3.97138 32.1426 3.57164 31.7428 3.57164 31.2497V29.464C3.57164 28.9709 3.97138 28.5711 4.46449 28.5711C4.95761 28.5711 5.35735 28.9709 5.35735 29.464V31.2497ZM10.7145 41.964C10.7145 42.4571 10.3147 42.8569 9.82164 42.8569C9.32853 42.8569 8.92878 42.4571 8.92878 41.964V40.1783C8.92878 39.6852 9.32853 39.2854 9.82164 39.2854C10.3147 39.2854 10.7145 39.6852 10.7145 40.1783V41.964ZM10.7145 36.6069C10.7145 37.1 10.3147 37.4997 9.82164 37.4997C9.32853 37.4997 8.92878 37.1 8.92878 36.6069V34.8212C8.92878 34.328 9.32853 33.9283 9.82164 33.9283C10.3147 33.9283 10.7145 34.328 10.7145 34.8212V36.6069ZM10.7145 31.2497C10.7145 31.7428 10.3147 32.1426 9.82164 32.1426C9.32853 32.1426 8.92878 31.7428 8.92878 31.2497V29.464C8.92878 28.9709 9.32853 28.5711 9.82164 28.5711C10.3147 28.5711 10.7145 28.9709 10.7145 29.464V31.2497Z" fill="#66170E"/>
<path d="M38.3931 47.3223H50.0002V49.108H38.3931V47.3223Z" fill="#66170E"/>
<path d="M28.5716 47.3223H21.4288H13.3931V50.0008H36.6082L36.6074 47.3223H28.5716Z" fill="#66170E"/>
<path d="M49.1069 25.8926H36.6069V45.5354H49.1069V25.8926ZM41.0712 41.964C41.0712 42.4571 40.6715 42.8569 40.1784 42.8569C39.6853 42.8569 39.2855 42.4571 39.2855 41.964V40.1783C39.2855 39.6852 39.6853 39.2854 40.1784 39.2854C40.6715 39.2854 41.0712 39.6852 41.0712 40.1783V41.964ZM41.0712 36.6069C41.0712 37.1 40.6715 37.4997 40.1784 37.4997C39.6853 37.4997 39.2855 37.1 39.2855 36.6069V34.8212C39.2855 34.328 39.6853 33.9283 40.1784 33.9283C40.6715 33.9283 41.0712 34.328 41.0712 34.8212V36.6069ZM41.0712 31.2497C41.0712 31.7428 40.6715 32.1426 40.1784 32.1426C39.6853 32.1426 39.2855 31.7428 39.2855 31.2497V29.464C39.2855 28.9709 39.6853 28.5711 40.1784 28.5711C40.6715 28.5711 41.0712 28.9709 41.0712 29.464V31.2497ZM46.4284 41.964C46.4284 42.4571 46.0286 42.8569 45.5355 42.8569C45.0424 42.8569 44.6426 42.4571 44.6426 41.964V40.1783C44.6426 39.6852 45.0424 39.2854 45.5355 39.2854C46.0286 39.2854 46.4284 39.6852 46.4284 40.1783V41.964ZM46.4284 36.6069C46.4284 37.1 46.0286 37.4997 45.5355 37.4997C45.0424 37.4997 44.6426 37.1 44.6426 36.6069V34.8212C44.6426 34.328 45.0424 33.9283 45.5355 33.9283C46.0286 33.9283 46.4284 34.328 46.4284 34.8212V36.6069ZM46.4284 31.2497C46.4284 31.7428 46.0286 32.1426 45.5355 32.1426C45.0424 32.1426 44.6426 31.7428 44.6426 31.2497V29.464C44.6426 28.9709 45.0424 28.5711 45.5355 28.5711C46.0286 28.5711 46.4284 28.9709 46.4284 29.464V31.2497Z" fill="#66170E"/>
<path d="M36.6768 4.94727H34.8911V8.27762V8.28387C34.8901 9.20074 35.3483 10.0572 36.1117 10.5651C36.377 10.7422 36.7167 10.7642 37.0028 10.6228C37.2888 10.4815 37.4777 10.1983 37.4983 9.87998C37.5189 9.56162 37.3681 9.25645 37.1027 9.07941C36.8363 8.90243 36.6764 8.60369 36.6768 8.28387V8.27762V4.94727Z" fill="#66170E"/>
</g>
<defs>
<clipPath id="clip0_181_275">
<rect width="50" height="50" fill="white"/>
</clipPath>
</defs>
</svg>
