<svg width="50" height="50" viewBox="0 0 50 50" fill="none" xmlns="http://www.w3.org/2000/svg">
<path fill-rule="evenodd" clip-rule="evenodd" d="M20.7803 36.1639L22.0089 34.6908C21.7842 33.7099 22.0524 32.6372 22.8143 31.8754L33.1276 21.562L32.6812 21.1155C31.6494 20.0837 31.6494 18.402 32.6812 17.3702C33.352 16.6996 34.2971 16.4649 35.16 16.6661C33.928 8.41055 26.8091 2.07812 18.2105 2.07812C8.74502 2.07822 1.07178 9.75146 1.07178 19.2168C1.07178 28.6821 8.74502 36.3555 18.2104 36.3555C19.0839 36.3555 19.942 36.2899 20.7803 36.1639ZM27.1504 14.9902C28.6386 16.4783 28.6386 18.9135 27.1504 20.4016L23.4398 24.1121L18.0285 18.7008L21.739 14.9902C23.2271 13.5021 25.6622 13.5021 27.1503 14.9902H27.1504ZM13.9676 8.52822C16.5821 8.86367 18.6027 11.0976 18.6027 13.8034C18.6027 16.5093 16.5821 18.743 13.9676 19.0785V8.52822ZM7.96523 13.8034C7.96523 11.0976 9.98584 8.86377 12.6004 8.52822V19.0784C9.98584 18.743 7.96523 16.5092 7.96523 13.8033V13.8034ZM13.3513 28.7894C11.8631 27.3012 11.8631 24.8661 13.3513 23.3779L17.0618 19.6674L22.4731 25.0787L18.7626 28.7893C17.2744 30.2773 14.8394 30.2773 13.3513 28.7893V28.7894ZM17.9312 42.2841L18.8978 43.2507L14.4273 47.7211C14.1604 47.988 13.7276 47.988 13.4607 47.7211C13.1938 47.4542 13.1938 47.0214 13.4607 46.7545L17.9312 42.2841ZM39.3151 35.4543C36.0701 35.4543 33.4234 38.101 33.4234 41.346C33.4234 44.591 36.0701 47.2378 39.3151 47.2378C42.5602 47.2378 45.2068 44.5911 45.2068 41.346C45.2068 38.1009 42.5602 35.4543 39.3151 35.4543ZM42.0754 40.1216L38.6599 43.537L38.6579 43.5351C38.6164 43.5765 38.5689 43.6133 38.5157 43.6438C38.1898 43.8312 37.7737 43.7188 37.5864 43.3929L36.4481 41.4213C36.2608 41.0954 36.3732 40.6793 36.6991 40.492C37.025 40.3047 37.4411 40.4171 37.6284 40.743L38.321 41.9427L41.1088 39.155C41.3757 38.8881 41.8085 38.8881 42.0754 39.155C42.3423 39.4219 42.3423 39.8547 42.0754 40.1216ZM25.0352 38.3677C25.0791 38.4116 25.1242 38.4537 25.1702 38.4944L20.2111 42.6306L18.5514 40.9708L22.6875 36.0117C22.7281 36.0577 22.7703 36.1028 22.8143 36.1468L25.0353 38.3678L25.0352 38.3677ZM30.686 31.4087C30.4191 31.6756 30.4191 32.1084 30.686 32.3753L32.0257 33.715L30.3802 35.3605L29.0404 34.0209C28.7735 33.754 28.3407 33.754 28.0738 34.0209C27.8069 34.2878 27.8069 34.7206 28.0738 34.9875L29.4135 36.3272L28.3396 37.401C27.6968 38.0439 26.6447 38.0439 26.0019 37.401L23.7809 35.18C23.138 34.5371 23.138 33.4851 23.7809 32.8422L35.061 21.562L33.6479 20.1488C33.1496 19.6506 33.1496 18.8353 33.6479 18.337C34.1461 17.8388 34.9614 17.8387 35.4597 18.337L42.8448 25.7222C43.3431 26.2204 43.3431 27.0357 42.8448 27.534C42.3466 28.0322 41.5313 28.0322 41.033 27.534L39.6199 26.1208L35.7296 30.011L33.6973 27.9787C33.4304 27.7118 32.9976 27.7118 32.7307 27.9787C32.4638 28.2456 32.4638 28.6784 32.7307 28.9453L34.763 30.9776L32.9923 32.7483L31.6526 31.4086C31.3857 31.1417 30.9529 31.1418 30.686 31.4087ZM48.5547 18.0836C48.0564 18.5818 47.2411 18.5818 46.7429 18.0836L46.0019 17.3426L41.2004 22.144L39.0379 19.9815L43.8394 15.1801L43.0983 14.4391C42.6001 13.9408 42.6001 13.1255 43.0983 12.6272C43.5966 12.129 44.4119 12.1289 44.9102 12.6272L48.5547 16.2718C49.0529 16.77 49.0529 17.5854 48.5547 18.0836Z" fill="#66170E"/>
</svg>
