<svg width="50" height="50" viewBox="0 0 50 50" fill="none" xmlns="http://www.w3.org/2000/svg">
<path d="M38.6744 15.6646C38.6744 15.5361 38.6587 15.4068 38.6261 15.2794C37.6058 11.272 34.8719 7.99847 31.25 6.1986V9.375C31.25 10.2379 30.5511 10.9375 29.6875 10.9375C28.8239 10.9375 28.125 10.2379 28.125 9.375V5.12619V4.6875C28.125 3.82452 27.4255 3.125 26.5625 3.125H23.4375C22.5745 3.125 21.875 3.82452 21.875 4.6875V5.126V9.375C21.875 10.2379 21.1754 10.9375 20.3125 10.9375C19.4496 10.9375 18.75 10.2379 18.75 9.375V6.1986C15.1274 7.99837 12.3935 11.272 11.3731 15.2794C11.3407 15.4069 11.3292 15.5358 11.3352 15.6636C10.2243 15.8476 9.375 16.8057 9.375 17.9688C9.375 19.2632 10.4243 20.3125 11.7188 20.3125H38.2812C39.5757 20.3125 40.625 19.2632 40.625 17.9688C40.625 16.809 39.7806 15.8524 38.6744 15.6646Z" fill="#66170E"/>
<path d="M35.9375 23.4375H14.0625V25C14.0625 27.9829 15.2656 30.688 17.2085 32.6632C17.2035 32.7135 17.1875 32.7612 17.1875 32.8125V35.443L24.9611 38.8977L32.8125 34.9717V32.8125C32.8125 32.7611 32.7965 32.7133 32.7915 32.6629C34.7343 30.6877 35.9375 27.9827 35.9375 25V23.4375Z" fill="#66170E"/>
<path d="M15.625 46.8759H34.375V37.6855L25.6989 42.0236C25.4791 42.1335 25.2396 42.1884 25 42.1884C24.7841 42.1884 24.5674 42.1434 24.3652 42.0534L15.625 38.1689V46.8759Z" fill="#66170E"/>
<path d="M12.5 37.6758C8.77917 38.8155 5.54898 41.2035 3.38747 44.4465C3.0678 44.9256 3.03805 45.5421 3.30965 46.0502C3.58202 46.5583 4.1115 46.8757 4.68752 46.8757H12.5V37.6758Z" fill="#66170E"/>
<path d="M46.6125 44.4463C44.4512 41.2035 41.2212 38.8156 37.5 37.6758V46.8755H45.3125C45.8893 46.8755 46.4188 46.5581 46.6904 46.05C46.962 45.5419 46.9315 44.9254 46.6125 44.4463Z" fill="#66170E"/>
</svg>
