<svg width="50" height="50" viewBox="0 0 50 50" fill="none" xmlns="http://www.w3.org/2000/svg">
<g clip-path="url(#clip0_181_194)">
<path d="M44.8769 5.12314C41.5733 1.81961 37.1807 0 32.5077 0C27.8358 0 23.4432 1.81961 20.1397 5.12314C16.8358 8.42705 15.0166 12.8197 15.0166 17.4931C15.0166 21.6736 16.4738 25.6298 19.1463 28.7834L15.6094 32.3196C13.797 31.385 11.5097 31.6769 9.99222 33.1947L1.41106 41.7759C0.50087 42.6861 0 43.8961 0 45.1836C0 46.4706 0.50087 47.6807 1.41106 48.5909C2.35062 49.5304 3.58505 50 4.81834 50C6.05278 50 7.28607 49.5304 8.22563 48.5909L16.8068 40.0093C17.717 39.0991 18.2178 37.8891 18.2178 36.602C18.2178 35.82 18.0321 35.0658 17.6826 34.3899L21.2177 30.8548C24.371 33.5289 28.3279 34.985 32.5077 34.985C37.1807 34.985 41.5733 33.1654 44.8769 29.8615C48.1808 26.5575 50 22.1649 50 17.4931C50 12.8197 48.1808 8.42705 44.8769 5.12314ZM26.5507 23.7431C26.5507 24.5518 25.8957 25.2083 25.0858 25.2083C24.2775 25.2083 23.621 24.5518 23.621 23.7431V19.0544C23.621 18.2461 24.2775 17.5896 25.0858 17.5896C25.8957 17.5896 26.5507 18.2457 26.5507 19.0544V23.7431ZM31.4335 23.7431C31.4335 24.5518 30.7785 25.2083 29.9686 25.2083C29.1603 25.2083 28.5038 24.5518 28.5038 23.7431V14.1716C28.5038 13.3629 29.1603 12.7064 29.9686 12.7064C30.7785 12.7064 31.4335 13.3629 31.4335 14.1716V23.7431ZM36.3163 23.7431C36.3163 24.5518 35.6613 25.2083 34.8515 25.2083C34.0431 25.2083 33.3866 24.5518 33.3866 23.7431V16.1247C33.3866 15.316 34.0431 14.6599 34.8515 14.6599C35.6613 14.6599 36.3163 15.316 36.3163 16.1247V23.7431ZM41.1991 23.7431C41.1991 24.5518 40.5441 25.2083 39.7343 25.2083C38.9259 25.2083 38.2694 24.5518 38.2694 23.7431V11.2415C38.2694 10.4332 38.9259 9.77669 39.7343 9.77669C40.5441 9.77669 41.1991 10.4328 41.1991 11.2415V23.7431Z" fill="#66170E"/>
</g>
<defs>
<clipPath id="clip0_181_194">
<rect width="50" height="50" fill="white"/>
</clipPath>
</defs>
</svg>
