<svg width="50" height="50" viewBox="0 0 50 50" fill="none" xmlns="http://www.w3.org/2000/svg">
<g clip-path="url(#clip0_181_205)">
<path d="M24.9998 12.0182C28.281 12.0182 30.9503 9.34867 30.9503 6.06769C30.9503 2.78672 28.281 0.117188 24.9998 0.117188C21.7187 0.117188 19.0493 2.78672 19.0493 6.06769C19.0493 9.34867 21.7187 12.0182 24.9998 12.0182Z" fill="#66170E"/>
<path d="M26.2514 13.9432C26.1191 13.7991 25.9256 13.7266 25.73 13.7266H24.2704C24.0748 13.7266 23.8814 13.7991 23.749 13.9432C23.5442 14.1665 23.5145 14.4889 23.6598 14.7409L24.44 15.9171L24.0746 18.9983L24.7938 20.9116C24.864 21.104 25.1361 21.104 25.2063 20.9116L25.9255 18.9983L25.5602 15.9171L26.3403 14.7409C26.4861 14.4889 26.4563 14.1663 26.2514 13.9432Z" fill="#66170E"/>
<path d="M15.8367 27.6887H34.1633C34.6307 27.6887 35.011 27.3084 35.011 26.8411V19.2059C35.011 16.9813 33.5689 15.0059 31.4224 14.2906L29.749 13.7769C29.4428 13.6823 29.1165 13.845 29.0066 14.1463L25.0002 25.1389L20.9938 14.1461C20.9049 13.9027 20.6751 13.75 20.4288 13.75C20.3702 13.75 20.3106 13.7586 20.2521 13.7768L18.5914 14.2862C16.4313 15.0061 14.9893 16.9813 14.9893 19.2059V26.8411C14.9893 27.3084 15.3696 27.6887 15.8367 27.6887Z" fill="#66170E"/>
<path d="M5.95034 15.059C9.23148 15.059 11.9008 12.3897 11.9008 9.10871C11.9008 5.82756 9.23131 3.1582 5.95034 3.1582C2.66936 3.1582 0 5.82773 0 9.10871C0 12.3899 2.66936 15.059 5.95034 15.059Z" fill="#66170E"/>
<path d="M16.0792 31.4167H11.3398V22.0556C11.3398 19.079 8.92686 16.666 5.95043 16.666C2.974 16.666 0.561035 19.079 0.561035 22.0554V34.7717C0.561035 37.6295 2.8777 39.9462 5.73545 39.9462H11.8848V48.4197C11.8848 49.2275 12.5395 49.8822 13.3472 49.8822H19.0248C19.8326 49.8822 20.4873 49.2275 20.4873 48.4197V35.8248C20.4873 33.3903 18.5137 31.4167 16.0792 31.4167Z" fill="#66170E"/>
<path d="M44.0496 15.059C47.3308 15.059 50 12.3897 50 9.10871C50 5.82756 47.3306 3.1582 44.0496 3.1582C40.7686 3.1582 38.0991 5.82773 38.0991 9.10871C38.099 12.3899 40.7685 15.059 44.0496 15.059Z" fill="#66170E"/>
<path d="M44.0494 16.666C41.0728 16.666 38.66 19.079 38.66 22.0554V31.4165H33.9208C31.4863 31.4165 29.5127 33.3901 29.5127 35.8246V48.4196C29.5127 49.2273 30.1674 49.882 30.9752 49.882H36.6528C37.4605 49.882 38.1152 49.2273 38.1152 48.4196V39.946H44.2645C47.1223 39.946 49.439 37.6293 49.439 34.7716V22.0552C49.439 19.079 47.026 16.666 44.0494 16.666Z" fill="#66170E"/>
</g>
<defs>
<clipPath id="clip0_181_205">
<rect width="50" height="50" fill="white"/>
</clipPath>
</defs>
</svg>
