<svg width="50" height="50" viewBox="0 0 50 50" fill="none" xmlns="http://www.w3.org/2000/svg">
<path d="M46.2992 15.7355L25.4659 5.31883C25.3212 5.24659 25.1617 5.20898 25 5.20898C24.8383 5.20898 24.6788 5.24659 24.5341 5.31883L3.70078 15.7355C3.52777 15.8221 3.38228 15.9551 3.28058 16.1197C3.17889 16.2842 3.12502 16.4739 3.125 16.6673V20.834C3.12532 21.0116 3.17087 21.1863 3.25737 21.3415C3.34386 21.4967 3.46844 21.6273 3.61938 21.721C3.77108 21.8125 3.94328 21.8645 4.12026 21.8724C4.29725 21.8802 4.47337 21.8436 4.63255 21.7658L25 11.5811L45.3674 21.7658C45.5263 21.8454 45.7028 21.883 45.8802 21.8751C46.0577 21.8672 46.2302 21.814 46.3813 21.7206C46.5324 21.6272 46.657 21.4967 46.7435 21.3415C46.8299 21.1863 46.8752 21.0116 46.875 20.834V16.6673C46.875 16.4739 46.8211 16.2842 46.7194 16.1197C46.6177 15.9551 46.4722 15.8221 46.2992 15.7355Z" fill="#66170E"/>
<path d="M6.25 23.2862V43.7503C6.24992 43.8871 6.27681 44.0226 6.32912 44.149C6.38144 44.2754 6.45817 44.3903 6.55491 44.487C6.65166 44.5838 6.76652 44.6605 6.89294 44.7128C7.01936 44.7651 7.15485 44.792 7.29167 44.7919H42.7083C42.8451 44.792 42.9806 44.7651 43.1071 44.7128C43.2335 44.6605 43.3483 44.5838 43.4451 44.487C43.5418 44.3903 43.6186 44.2754 43.6709 44.149C43.7232 44.0226 43.7501 43.8871 43.75 43.7503V23.2857L25 13.9102L6.25 23.2862ZM21.0866 22.582C22.2453 22.3785 23.3998 23.4792 23.6856 25.0924V25.0945C23.9694 26.7078 23.2746 28.1361 22.1038 28.3435C22.0103 28.3597 21.9157 28.3679 21.8209 28.368C20.7497 28.368 19.7641 27.3161 19.5036 25.8309C19.2187 24.2178 19.9138 22.7895 21.0866 22.582ZM18.4519 30.9808C18.3925 31.294 18.256 31.5874 18.0548 31.8347C17.8536 32.0819 17.594 32.2751 17.2994 32.3968C17.1195 32.4613 16.9299 32.4943 16.7389 32.4945C15.7705 32.4945 14.7735 31.6624 14.3046 30.3747C13.7431 28.8326 14.1805 27.3067 15.2994 26.8977C15.6032 26.803 15.9258 26.7849 16.2383 26.8448C16.5509 26.9048 16.8438 27.041 17.091 27.2415C17.6384 27.6805 18.0548 28.2614 18.2948 28.9208C18.5348 29.5802 18.589 30.2926 18.4519 30.9808ZM31.7057 28.9198C31.9356 28.2556 32.3536 27.6724 32.9089 27.2414C33.1561 27.041 33.449 26.9047 33.7616 26.8448C34.0741 26.7848 34.3967 26.803 34.7005 26.8977C35.8195 27.3066 36.2569 28.8325 35.6953 30.3746C35.2266 31.6625 34.2294 32.4944 33.261 32.4944C33.0703 32.4943 32.881 32.4613 32.7015 32.3968C32.4067 32.2752 32.1468 32.0821 31.9454 31.8349C31.744 31.5876 31.6074 31.2941 31.548 30.9808C31.3995 30.293 31.4544 29.577 31.7057 28.9198ZM25 39.6067C21.1619 39.6067 18.8701 38.2131 18.8701 35.8795C18.8701 33.416 21.5474 30.5514 25.0003 30.5514C28.4531 30.5514 31.1305 33.416 31.1305 35.8798C31.1302 38.2131 28.8381 39.6067 25 39.6067ZM26.3143 25.0946V25.0926C26.5991 23.4813 27.7361 22.3745 28.9123 22.5821C30.0862 22.7897 30.781 24.2179 30.4962 25.8333C30.2358 27.3165 29.2491 28.3683 28.1799 28.3683C28.0855 28.3682 27.9912 28.36 27.8982 28.3439C26.7253 28.1362 26.0305 26.708 26.3143 25.0946Z" fill="#66170E"/>
</svg>
