<svg width="50" height="50" viewBox="0 0 50 50" fill="none" xmlns="http://www.w3.org/2000/svg">
<g clip-path="url(#clip0_181_214)">
<path d="M46.1129 3.85437C40.9709 -1.28479 32.6069 -1.28479 27.4649 3.85437L16.5933 14.7261L28.9364 27.0692C31.4769 24.9537 34.6977 23.6291 38.254 23.6291C40.2938 23.6291 42.235 24.0528 44.0012 24.8094L46.1129 22.5024C51.2534 17.3618 51.2534 8.99646 46.1129 3.85437Z" fill="#66170E"/>
<path d="M26.8821 29.1571L14.5217 16.7969L3.88127 27.4478C-1.25925 32.5883 -1.25925 40.9537 3.88127 46.0957C9.02317 51.2346 17.4848 51.3326 22.6269 46.1933L24.7839 44.0259C24.0273 42.2597 23.6035 40.3186 23.6035 38.2787C23.6036 34.8137 24.8634 31.6683 26.8821 29.1571Z" fill="#66170E"/>
<path d="M26.5337 38.2798C26.5337 44.2509 31.0154 49.124 36.7891 49.8524V26.707C31.0154 27.4354 26.5337 32.3084 26.5337 38.2798Z" fill="#66170E"/>
<path d="M39.7188 26.707V49.8524C45.4924 49.124 49.9741 44.2509 49.9741 38.2797C49.9741 32.3085 45.4925 27.4354 39.7188 26.707Z" fill="#66170E"/>
</g>
<defs>
<clipPath id="clip0_181_214">
<rect width="50" height="50" fill="white"/>
</clipPath>
</defs>
</svg>
