<svg width="50" height="50" viewBox="0 0 50 50" fill="none" xmlns="http://www.w3.org/2000/svg">
<path d="M8.18378 25.0091C8.18378 17.9548 12.5503 11.9021 18.722 9.40943L21.8712 3.08398C11.1359 4.60908 2.85303 13.8591 2.85303 25.0091C2.85303 35.1533 9.70921 43.7258 19.0307 46.3379L19.6364 40.9482C12.9858 38.7043 8.18378 32.407 8.18378 25.0091Z" fill="#66170E"/>
<path d="M47.1471 25.0088C47.1471 14.8666 40.2939 6.29571 30.9755 3.68164L30.3562 9.06737C37.0106 11.3091 41.8163 17.6082 41.8163 25.0088C41.8163 32.0219 37.5006 38.045 31.3859 40.5645L28.1494 46.9309C38.8747 45.3971 47.1471 36.1516 47.1471 25.0088Z" fill="#66170E"/>
<path d="M37.6766 22.325C37.8865 21.9121 37.8666 21.4585 37.6243 21.0637C37.382 20.6687 36.9519 20.5113 36.4885 20.5113H26.3565L28.5377 1.54925C28.6119 0.906395 28.2135 0.240384 27.5928 0.0561395C27.4647 0.0181579 27.3349 0 27.2068 0C26.7147 0 26.2496 0.280031 26.0205 0.739976L12.3183 28.2727C12.1128 28.6856 12.1354 29.2355 12.3783 29.628C12.6213 30.0203 13.0498 30.3398 13.5114 30.3398H23.5097L21.4601 48.5882C21.3884 49.2285 21.7851 49.7671 22.4024 49.9517C22.5292 49.9897 22.6577 50 22.7844 50C23.2755 50 23.7406 49.7273 23.9727 49.2707L37.6766 22.325Z" fill="#66170E"/>
</svg>
