<svg width="50" height="50" viewBox="0 0 50 50" fill="none" xmlns="http://www.w3.org/2000/svg">
<path d="M35.0195 15.7227C37.5059 15.7227 39.5215 13.7071 39.5215 11.2207C39.5215 8.73434 37.5059 6.71875 35.0195 6.71875C32.5332 6.71875 30.5176 8.73434 30.5176 11.2207C30.5176 13.7071 32.5332 15.7227 35.0195 15.7227Z" fill="#66170E"/>
<path d="M48.3203 26.3867L42.1484 18.916C41.0351 17.5684 39.375 16.7871 37.6269 16.7871H32.4121C30.664 16.7871 29.0039 17.5684 27.8906 18.916L23.8476 23.8184L21.4843 19.7168C20.4394 17.9004 18.5058 16.7871 16.4062 16.7871H10.791C8.70113 16.7871 6.76754 17.9004 5.71285 19.7168L1.39645 27.1875C0.693321 28.4082 1.11324 29.9609 2.33395 30.6738C3.55465 31.377 5.10738 30.957 5.82027 29.7363L7.41207 26.9824V40.7422C7.41207 42.1484 8.55465 43.291 9.9609 43.291C11.3671 43.291 12.5097 42.1484 12.5097 40.7422V32.7637H14.6972V40.7422C14.6972 42.1484 15.8398 43.291 17.2461 43.291C18.6523 43.291 19.7949 42.1484 19.7949 40.7422V25.8008L22.1875 29.3066C22.9101 30.3613 24.4336 30.4492 25.2734 29.4824L27.4609 26.9629L26.0839 33.3496C25.8203 34.5703 26.748 35.7129 27.9882 35.7129H28.8379V40.7422C28.8379 42.1484 29.9804 43.291 31.3867 43.291C32.7929 43.291 33.9355 42.1484 33.9355 40.7422V35.7129H36.123V40.7422C36.123 42.1484 37.2656 43.291 38.6718 43.291C40.0781 43.291 41.2207 42.1484 41.2207 40.7422V35.7129H42.0703C43.3203 35.7129 44.2382 34.5605 43.9746 33.3496L42.8711 28.2617L44.0527 29.7949C44.9707 30.9863 46.6797 31.2109 47.8711 30.293C49.1015 29.3555 49.3066 27.5781 48.3203 26.3867Z" fill="#66170E"/>
<path d="M13.5937 15.7227C16.0801 15.7227 18.0957 13.7071 18.0957 11.2207C18.0957 8.73434 16.0801 6.71875 13.5937 6.71875C11.1074 6.71875 9.0918 8.73434 9.0918 11.2207C9.0918 13.7071 11.1074 15.7227 13.5937 15.7227Z" fill="#66170E"/>
</svg>
