<svg width="50" height="50" viewBox="0 0 50 50" fill="none" xmlns="http://www.w3.org/2000/svg">
<path d="M40.8936 9.92584L28.3844 3.89557C27.3346 3.39127 26.1642 3.125 25 3.125C23.8358 3.125 22.6654 3.39127 21.6072 3.89938L9.10645 9.92661C6.42166 11.2213 4.6875 13.9832 4.6875 16.9632C4.6875 27.0042 9.2514 36.4296 17.2089 42.8223L20.1088 45.1538C21.4912 46.2631 23.2285 46.8742 25 46.8742C26.7715 46.8742 28.508 46.2631 29.895 45.1508L32.7896 42.823C40.7486 36.4296 45.3125 27.0035 45.3125 16.9632C45.3125 13.9847 43.5791 11.2236 40.8936 9.92584ZM29.8538 39.1693L26.9577 41.497C26.4038 41.9418 25.7088 42.1867 25 42.1867C24.2912 42.1867 23.5962 41.9418 23.0431 41.4978L20.1454 39.1685C13.3011 33.67 9.375 25.576 9.375 16.9632C9.375 15.7715 10.0693 14.666 11.1427 14.1479L23.6435 8.12149C24.0654 7.91855 24.5338 7.8125 25 7.8125C25.4662 7.8125 25.9346 7.91855 26.355 8.12073L38.858 14.1479C39.9323 14.6667 40.625 15.7715 40.625 16.9632C40.625 25.576 36.6989 33.6693 29.8538 39.1693Z" fill="#66170E"/>
<path d="M38.179 15.556L25.6783 9.5295C25.2495 9.3235 24.7505 9.3235 24.3217 9.5295L11.8217 15.556C11.2808 15.8169 10.9375 16.3639 10.9375 16.9636C10.9375 25.1003 14.6507 32.7503 21.1243 37.9513L24.0211 40.2798C24.3073 40.5094 24.6536 40.6246 25 40.6246C25.3464 40.6246 25.6927 40.5094 25.9789 40.2798L28.8757 37.9513C35.35 32.7496 39.0625 25.0996 39.0625 16.9636C39.0625 16.3639 38.7192 15.8169 38.179 15.556ZM32.3547 21.4169L26.1047 27.6669C25.7996 27.972 25.3998 28.1246 25 28.1246C24.6002 28.1246 24.2004 27.972 23.8953 27.6669L20.7703 24.5419C20.1599 23.9315 20.1599 22.9427 20.7703 22.3324C21.3806 21.722 22.3694 21.722 22.9797 22.3324L25 24.3526L30.1453 19.2074C30.7556 18.597 31.7444 18.597 32.3547 19.2074C32.9651 19.8177 32.9651 20.8065 32.3547 21.4169Z" fill="#66170E"/>
</svg>
