<svg width="50" height="50" viewBox="0 0 50 50" fill="none" xmlns="http://www.w3.org/2000/svg">
<path d="M25.0002 22.8789C17.7274 22.8789 11.8184 28.788 11.8184 36.0607C11.8184 43.3335 17.7274 49.2425 25.0002 49.2425C32.2729 49.2425 38.182 43.3335 38.182 36.0607C38.182 28.788 32.2729 22.8789 25.0002 22.8789ZM33.0305 34.091L28.7123 37.1971L30.379 42.2728C30.4547 42.5759 30.379 42.8789 30.1517 43.0304C29.9244 43.1819 29.6214 43.1819 29.3941 43.0304L25.0002 39.8486L20.682 42.9547C20.4547 43.1062 20.1517 43.1062 19.9244 42.9547C19.6971 42.8032 19.6214 42.5001 19.6971 42.1971L21.3638 37.1213L16.9699 34.091C16.7426 33.9395 16.6668 33.6365 16.7426 33.3335C16.8184 33.0304 17.1214 32.8789 17.3487 32.8789H22.6517L24.3184 27.8031C24.3941 27.5001 24.6971 27.3486 24.9244 27.3486C25.2275 27.3486 25.4547 27.5759 25.5305 27.8031L27.1971 32.8789H32.5002C32.8032 32.8789 33.0305 33.1062 33.1062 33.3335C33.3335 33.5607 33.2578 33.8638 33.0305 34.091Z" fill="#66170E"/>
<path d="M31.9697 21.0612V23.1067C29.8485 21.9703 27.5 21.2885 24.9243 21.2885C22.4243 21.2885 20 21.9703 17.9546 23.1067V21.0612C17.9546 20.1521 18.7122 19.3945 19.6213 19.3945H30.2273C31.2122 19.3945 31.9697 20.1521 31.9697 21.0612Z" fill="#66170E"/>
<path d="M37.9549 4.6978L31.5155 18.1069C31.1367 17.9554 30.7579 17.8796 30.3034 17.8796H22.6519L25.3034 12.9554L30.5306 1.21295C30.6064 1.06143 30.7579 0.90992 30.9852 0.834162C31.2125 0.758404 31.364 0.758404 31.5913 0.834162L37.6519 3.71295C37.8034 3.78871 37.9549 3.94022 38.0306 4.1675C38.0306 4.31901 38.0306 4.54628 37.9549 4.6978Z" fill="#66170E"/>
<path d="M25.1519 9.6978C18.9398 21.7433 21.061 17.5766 20.6065 18.4857L13.7883 4.77356C13.7125 4.54628 13.6368 4.31901 13.7125 4.1675C13.7883 3.94022 13.9398 3.78871 14.0913 3.71295L20.1519 0.834162C20.3034 0.758404 20.5307 0.758404 20.758 0.834162C20.9853 0.90992 21.1368 1.06143 21.2125 1.21295L25.1519 9.6978Z" fill="#66170E"/>
</svg>
