<svg width="50" height="50" viewBox="0 0 50 50" fill="none" xmlns="http://www.w3.org/2000/svg">
<path fill-rule="evenodd" clip-rule="evenodd" d="M35.0713 37.309L39.6147 45.1774L33.6334 43.9708L31.6902 49.7539L26.5848 40.9132C29.8022 40.5888 32.7316 39.287 35.0713 37.309ZM14.9287 37.3088C17.2683 39.2865 20.1976 40.5884 23.4153 40.913L18.3098 49.7539L16.3665 43.9708L10.3853 45.1774L14.9287 37.3088ZM32.2915 13.15C36.4517 15.6356 39.2382 20.1835 39.2382 25.3807C39.2382 33.2444 32.8626 39.62 25.001 39.62C17.1373 39.62 10.7617 33.2444 10.7617 25.3807C10.7617 20.1867 13.5448 15.6413 17.7012 13.1546C17.8632 13.2218 32.1267 13.2201 32.2915 13.15ZM24.9989 36.1266C30.9171 36.1266 35.7448 31.2989 35.7448 25.3807C35.7448 19.4649 30.9172 14.637 24.9989 14.637C19.0829 14.637 14.2552 19.4648 14.2552 25.3807C14.2552 31.299 19.083 36.1266 24.9989 36.1266ZM24.9989 34.754C19.8387 34.754 15.6277 30.5431 15.6277 25.3807C15.6277 20.2206 19.8387 16.0095 24.9989 16.0095C30.1612 16.0095 34.3722 20.2206 34.3722 25.3807C34.3722 30.5431 30.1612 34.754 24.9989 34.754ZM24.9988 20.2837L23.5601 23.9385L19.6394 24.179L22.6718 26.6772L21.6864 30.4798L24.9988 28.3703L28.3135 30.4798L27.3281 26.6772L30.3605 24.179L26.4399 23.9385L24.9988 20.2837ZM18.0578 8.68375L16.4202 2.15277L21.797 5.10561L24.9909 0.244141L28.1899 5.11698L33.5798 2.15277L31.9256 8.68394C31.8699 8.67581 31.8129 8.67169 31.755 8.67169H18.2269C18.1695 8.67169 18.113 8.67581 18.0578 8.68375ZM26.0763 5.83551C26.0763 5.2364 25.59 4.75002 24.9909 4.75002C24.3918 4.75002 23.9055 5.2364 23.9055 5.83551C23.9055 6.43463 24.3918 6.921 24.9909 6.921C25.59 6.921 26.0763 6.43463 26.0763 5.83551ZM31.755 9.84816V11.8864H18.2269V9.84816H31.755Z" fill="#66170E"/>
</svg>
