<svg width="50" height="50" viewBox="0 0 50 50" fill="none" xmlns="http://www.w3.org/2000/svg">
<g clip-path="url(#clip0_181_249)">
<path d="M37.1183 45.8545C36.7813 46.2978 36.2227 46.5127 35.6759 46.4092L31.8946 45.6894L30.1153 49.1982C29.8653 49.6904 29.3604 50 28.8087 50H28.8038C28.2501 49.998 27.7452 49.6846 27.4981 49.1895L25.0001 44.1846L22.502 49.1895C22.255 49.6846 21.7501 49.998 21.1964 50H21.1915C20.6397 50 20.1349 49.6904 19.8849 49.1982L18.1056 45.6894L14.3243 46.4092C13.7784 46.5127 13.2198 46.2988 12.8839 45.8555C12.547 45.4131 12.4913 44.8174 12.7374 44.3193L16.089 37.709C17.672 41.041 21.0714 43.3506 25.0001 43.3506C28.9015 43.3506 32.2804 41.0732 33.878 37.7793L37.2608 44.3154C37.5089 44.8145 37.4542 45.4102 37.1183 45.8545Z" fill="#66170E"/>
<path d="M48.5352 0H1.46484C0.65625 0 0 0.65625 0 1.46484V34.082C0 34.8906 0.65625 35.5469 1.46484 35.5469H15.3564C15.2148 34.8838 15.1406 34.1963 15.1406 33.4922C15.1406 28.0557 19.5635 23.6328 25 23.6328C30.4365 23.6328 34.8594 28.0557 34.8594 33.4922C34.8594 34.1963 34.7852 34.8838 34.6436 35.5469H48.5352C49.3437 35.5469 50 34.8906 50 34.082V1.46484C50 0.65625 49.3437 0 48.5352 0ZM17.2363 4.47949L32.7637 4.57715C33.5723 4.57715 34.2285 5.13574 34.2285 5.94434C34.2285 6.75391 33.5723 7.40918 32.7637 7.40918H17.2363C16.4277 7.40918 15.7715 6.75391 15.7715 5.94434C15.7715 5.13574 16.4277 4.47949 17.2363 4.47949ZM32.7637 19.1279H17.2363C16.4277 19.1279 15.7715 18.4727 15.7715 17.6631C15.7715 16.8545 16.4277 16.1982 17.2363 16.1982H32.7637C33.5723 16.1982 34.2285 16.8545 34.2285 17.6631C34.2285 18.4727 33.5723 19.1279 32.7637 19.1279ZM40.332 13.2686H9.66797C8.85938 13.2686 8.20312 12.6133 8.20312 11.8037C8.20312 10.9951 8.85938 10.3389 9.66797 10.3389H40.332C41.1406 10.3389 41.7969 10.9951 41.7969 11.8037C41.7969 12.6133 41.1406 13.2686 40.332 13.2686Z" fill="#66170E"/>
<path d="M24.9999 40.4209C28.8209 40.4209 31.9295 37.3123 31.9295 33.4921C31.9295 29.6711 28.8209 26.5625 24.9999 26.5625C21.1789 26.5625 18.0703 29.6711 18.0703 33.4921C18.0703 37.3123 21.1789 40.4209 24.9999 40.4209Z" fill="#66170E"/>
</g>
<defs>
<clipPath id="clip0_181_249">
<rect width="50" height="50" fill="white"/>
</clipPath>
</defs>
</svg>
