<svg width="50" height="50" viewBox="0 0 50 50" fill="none" xmlns="http://www.w3.org/2000/svg">
<g clip-path="url(#clip0_181_245)">
<path d="M47.9011 14.7304L42.7965 11.6763L41.6464 6.91554C41.1358 4.80411 39.1802 3.3965 37.0359 3.56525L31.195 4.0173L27.8491 1.0548C26.2012 -0.351355 23.8036 -0.351355 22.15 1.05333L18.804 4.0172L12.9632 3.56515C10.8432 3.41642 8.86194 4.80538 8.40559 6.7423C8.31116 7.03585 6.6054 12.3381 6.71614 11.9937L2.09876 14.7288C0.249147 15.8647 -0.491868 18.1448 0.336354 20.1505L2.32903 24.9799L0.337819 29.8079C-0.491868 31.815 0.250515 34.0938 2.09876 35.2281L7.19817 38.2609L8.35257 43.0431C8.86038 45.153 10.8074 46.5535 12.9631 46.3934L18.7409 45.9471L22.1498 48.9443C22.9753 49.6481 23.9867 50 24.9995 50C26.0109 50 27.0238 49.6481 27.8491 48.9442L31.258 45.947L37.0359 46.3933C39.2189 46.5663 41.1386 45.1544 41.6464 43.043L42.7965 38.2822L47.9011 35.2281C49.7479 34.0938 50.4889 31.815 49.662 29.8079L47.6694 24.98L49.6635 20.1491C50.4904 18.145 49.7493 15.8648 47.9011 14.7304ZM24.9995 41.1133C16.1147 41.1133 8.88626 33.8849 8.88626 25C8.88626 16.1151 16.1147 8.88673 24.9995 8.88673C33.8844 8.88673 41.1128 16.1151 41.1128 25C41.1128 33.8849 33.8844 41.1133 24.9995 41.1133Z" fill="#66170E"/>
<path d="M25 11.8164C17.7302 11.8164 11.8164 17.7302 11.8164 25C11.8164 32.2698 17.7302 38.1836 25 38.1836C32.2698 38.1836 38.1836 32.2698 38.1836 25C38.1836 17.7302 32.2698 11.8164 25 11.8164ZM33.3599 21.6411L24.5708 30.4302C24.2847 30.7163 23.9099 30.8594 23.5352 30.8594C23.1604 30.8594 22.7855 30.7163 22.4995 30.4302L16.6401 24.5708C16.068 23.9986 16.068 23.0716 16.6401 22.4994C17.2123 21.9272 18.1394 21.9272 18.7115 22.4994L23.5352 27.3231L31.2886 19.5697C31.8607 18.9976 32.7878 18.9976 33.36 19.5697C33.9321 20.1419 33.9321 21.0689 33.3599 21.6411Z" fill="#66170E"/>
</g>
<defs>
<clipPath id="clip0_181_245">
<rect width="50" height="50" fill="white"/>
</clipPath>
</defs>
</svg>
