<svg width="50" height="50" viewBox="0 0 50 50" fill="none" xmlns="http://www.w3.org/2000/svg">
<path fill-rule="evenodd" clip-rule="evenodd" d="M18.9604 4.09863H22.3003V1.95312C22.3003 1.52168 22.6501 1.17188 23.0815 1.17188C23.513 1.17188 23.8628 1.52168 23.8628 1.95312V4.09873H27.2026V6.36094H18.9605V4.09863H18.9604ZM40.8441 32.6288C45.3174 32.6288 48.9438 36.2551 48.9438 40.7284C48.9438 45.2017 45.3174 48.828 40.8441 48.828C36.3709 48.828 32.7445 45.2017 32.7445 40.7284C32.7445 36.2551 36.3709 32.6288 40.8441 32.6288ZM39.7804 41.4428L37.9706 39.633C37.5016 39.164 36.7406 39.164 36.2716 39.633C35.8025 40.102 35.8025 40.8629 36.2716 41.3319L38.9335 43.9938C39.4025 44.4629 40.1635 44.4629 40.6325 43.9938C42.237 42.3894 43.8232 40.7669 45.4203 39.155C45.886 38.685 45.8846 37.9266 45.4151 37.4598C44.9457 36.9929 44.1851 36.9942 43.7188 37.465L39.7804 41.4428ZM3.75635 16.5035H11.9984V18.0998H3.75635V16.5035ZM14.6982 41.4743C7.32227 41.4791 2.9374 41.48 1.54365 41.4771C1.2752 41.4764 1.05664 41.2573 1.05664 40.9888V20.1505C1.05664 19.8815 1.27598 19.6622 1.54492 19.6622H14.2101C14.479 19.6622 14.6983 19.8815 14.6983 20.1505V41.4743H14.6982ZM6.80322 33.6702H4.04932C3.88799 33.6702 3.75635 33.8019 3.75635 33.9632V36.4569C3.75635 36.6183 3.88789 36.7499 4.04932 36.7499H6.80322C6.96455 36.7499 7.09619 36.6183 7.09619 36.4569V33.9632C7.09619 33.8019 6.96455 33.6702 6.80322 33.6702ZM4.04932 27.466H6.80322C6.96455 27.466 7.09619 27.3344 7.09619 27.173V24.6796C7.09619 24.5183 6.96455 24.3866 6.80322 24.3866H4.04932C3.88799 24.3866 3.75635 24.5183 3.75635 24.6796V27.173C3.75635 27.3344 3.88799 27.466 4.04932 27.466ZM8.95156 27.466H11.7055C11.8668 27.466 11.9984 27.3344 11.9984 27.173V24.6796C11.9984 24.5183 11.8668 24.3866 11.7055 24.3866H8.95156C8.79023 24.3866 8.65859 24.5183 8.65859 24.6796V27.173C8.65869 27.3344 8.79023 27.466 8.95156 27.466ZM11.7055 29.0285H8.95156C8.79023 29.0285 8.65859 29.1602 8.65859 29.3215V31.8148C8.65859 31.9762 8.79023 32.1078 8.95156 32.1078H11.7055C11.8668 32.1078 11.9984 31.9762 11.9984 31.8148V29.3215C11.9984 29.1601 11.8668 29.0285 11.7055 29.0285ZM6.80322 29.0285H4.04932C3.88799 29.0285 3.75635 29.1602 3.75635 29.3215V31.8148C3.75635 31.9762 3.88789 32.1078 4.04932 32.1078H6.80322C6.96455 32.1078 7.09619 31.9762 7.09619 31.8148V29.3215C7.09619 29.1601 6.96455 29.0285 6.80322 29.0285ZM11.7055 33.6702H8.95156C8.79023 33.6702 8.65859 33.8019 8.65859 33.9632V36.4569C8.65859 36.6183 8.79023 36.7499 8.95156 36.7499H11.7055C11.8668 36.7499 11.9984 36.6183 11.9984 36.4569V33.9632C11.9984 33.8019 11.8668 33.6702 11.7055 33.6702ZM22.0073 24.6988H19.2534C19.0921 24.6988 18.9604 24.5672 18.9604 24.4059V21.912C18.9604 21.7507 19.0921 21.619 19.2534 21.619H22.0073C22.1687 21.619 22.3003 21.7507 22.3003 21.912V24.4058C22.3003 24.5672 22.1687 24.6988 22.0073 24.6988ZM22.0073 20.0566H19.2534C19.0921 20.0566 18.9604 19.9251 18.9604 19.7637V17.2703C18.9604 17.109 19.0921 16.9773 19.2534 16.9773H22.0073C22.1687 16.9773 22.3003 17.109 22.3003 17.2703V19.7637C22.3003 19.925 22.1687 20.0566 22.0073 20.0566ZM22.0073 15.4148H19.2534C19.0921 15.4148 18.9604 15.2832 18.9604 15.1219V12.6284C18.9604 12.4671 19.0921 12.3354 19.2534 12.3354H22.0073C22.1687 12.3354 22.3003 12.4671 22.3003 12.6284V15.1219C22.3003 15.2832 22.1687 15.4148 22.0073 15.4148ZM23.8628 19.7637V17.2703C23.8628 17.109 23.9944 16.9773 24.1558 16.9773H26.9097C27.071 16.9773 27.2026 17.109 27.2026 17.2703V19.7637C27.2026 19.925 27.071 20.0566 26.9097 20.0566H24.1558C23.9943 20.0566 23.8628 19.925 23.8628 19.7637ZM26.9096 15.4148H24.1557C23.9943 15.4148 23.8627 15.2832 23.8627 15.1219V12.6284C23.8627 12.4671 23.9943 12.3354 24.1557 12.3354H26.9096C27.0709 12.3354 27.2025 12.4671 27.2025 12.6284V15.1219C27.2025 15.2832 27.0709 15.4148 26.9096 15.4148ZM23.8628 24.4059V21.912C23.8628 21.7507 23.9944 21.619 24.1558 21.619H26.9097C27.071 21.619 27.2026 21.7507 27.2026 21.912V24.4058C27.2026 24.5671 27.071 24.6987 26.9097 24.6987H24.1558C23.9943 24.6988 23.8628 24.5672 23.8628 24.4059ZM16.2607 41.4743H19.5792V32.0771C19.5792 31.2052 20.3682 30.494 21.3356 30.494H24.8274C25.7948 30.494 26.5839 31.2053 26.5839 32.0771V41.4743H29.9023V8.41162C29.9023 8.14268 29.683 7.92334 29.4141 7.92334H16.7489C16.48 7.92334 16.2606 8.14268 16.2606 8.41162L16.2607 41.4743ZM34.1646 16.5035H42.4066V18.0998H34.1646V16.5035ZM31.4647 38.402C32.1644 35.5722 33.9454 33.3927 36.4768 32.1078H34.4574C34.2961 32.1078 34.1645 31.9762 34.1645 31.8148V29.3215C34.1645 29.1602 34.2961 29.0285 34.4574 29.0285H37.2113C37.3727 29.0285 37.5043 29.1602 37.5043 29.3215V31.6594C38.0068 31.4743 38.529 31.3302 39.0668 31.2302V29.3216C39.0668 29.1603 39.1984 29.0286 39.3598 29.0286H42.1137C42.275 29.0286 42.4066 29.1603 42.4066 29.3216V31.1929C43.3606 31.3481 44.2679 31.6428 45.1064 32.0557V20.1505C45.1064 19.8815 44.8871 19.6622 44.6182 19.6622H31.953C31.6841 19.6622 31.4647 19.8815 31.4647 20.1505V38.402ZM34.4575 27.466C34.2962 27.466 34.1646 27.3344 34.1646 27.173V24.6796C34.1646 24.5183 34.2962 24.3866 34.4575 24.3866H37.2114C37.3728 24.3866 37.5044 24.5183 37.5044 24.6796V27.173C37.5044 27.3344 37.3728 27.466 37.2114 27.466H34.4575ZM39.3598 27.466C39.1984 27.466 39.0668 27.3344 39.0668 27.173V24.6796C39.0668 24.5183 39.1984 24.3866 39.3598 24.3866H42.1137C42.275 24.3866 42.4066 24.5183 42.4066 24.6796V27.173C42.4066 27.3344 42.275 27.466 42.1137 27.466H39.3598Z" fill="#66170E"/>
</svg>
