<svg width="50" height="50" viewBox="0 0 50 50" fill="none" xmlns="http://www.w3.org/2000/svg">
<path fill-rule="evenodd" clip-rule="evenodd" d="M29.5302 20.8643V23.3342C29.5302 24.5357 29.0529 25.688 28.2033 26.5375C27.3537 27.3871 26.2015 27.8644 25 27.8644C23.7985 27.8644 22.6463 27.3871 21.7967 26.5375C20.9471 25.688 20.4698 24.5357 20.4698 23.3342V20.8643C20.4702 20.8256 20.4583 20.7878 20.4359 20.7563C20.4136 20.7247 20.3818 20.701 20.3452 20.6885L16.8506 19.4525C16.7197 19.4059 16.6064 19.3199 16.5264 19.2064C16.4463 19.0928 16.4033 18.9573 16.4033 18.8184C16.4033 18.6794 16.4463 18.5439 16.5264 18.4304C16.6064 18.3168 16.7197 18.2308 16.8506 18.1842L24.645 15.428C24.8742 15.3439 25.1258 15.3439 25.355 15.428L33.1493 18.1842C33.2802 18.2308 33.3935 18.3168 33.4735 18.4304C33.5536 18.5439 33.5966 18.6794 33.5966 18.8184C33.5966 18.9573 33.5536 19.0928 33.4735 19.2064C33.3935 19.3199 33.2802 19.4059 33.1493 19.4525L31.8603 19.9083C31.8211 19.9217 31.7877 19.9479 31.7652 19.9826C31.7427 20.0173 31.7325 20.0586 31.7362 20.0998L31.8129 21.0332C31.8151 21.0656 31.8259 21.0969 31.8443 21.1237C31.8626 21.1506 31.8878 21.1721 31.9173 21.1859C32.106 21.2773 32.2651 21.42 32.3765 21.5976C32.4878 21.7752 32.547 21.9806 32.5471 22.1903V23.8613C32.5471 23.9877 32.4969 24.1089 32.4075 24.1983C32.3181 24.2876 32.1969 24.3378 32.0705 24.3378H30.7898C30.6635 24.3378 30.5422 24.2876 30.4529 24.1983C30.3635 24.1089 30.3133 23.9877 30.3133 23.8613V22.1902C30.3136 22.0116 30.3567 21.8357 30.4389 21.6773C30.5212 21.5188 30.6402 21.3823 30.786 21.2792C30.8128 21.2608 30.8342 21.2356 30.848 21.2061C30.8617 21.1766 30.8673 21.144 30.8642 21.1116L30.8162 20.5263C30.8139 20.4978 30.8051 20.4701 30.7905 20.4455C30.7758 20.4209 30.7557 20.4 30.7316 20.3845C30.7076 20.3689 30.6803 20.3591 30.6518 20.3558C30.6234 20.3525 30.5946 20.3558 30.5676 20.3654L29.655 20.6881C29.6184 20.7006 29.5866 20.7243 29.5643 20.7559C29.5419 20.7874 29.53 20.8252 29.5304 20.8639L29.5302 20.8643ZM12.5552 25.2126L10.6376 27.1302C10.6026 27.1653 10.583 27.2128 10.583 27.2624C10.583 27.312 10.6026 27.3595 10.6376 27.3946L11.72 28.477C11.74 28.4972 11.7644 28.5125 11.7913 28.5218C11.8181 28.5312 11.8468 28.5342 11.875 28.5307C11.9032 28.5273 11.9303 28.5174 11.9541 28.5019C11.9779 28.4864 11.9979 28.4656 12.0124 28.4412L13.8144 25.4425C13.8313 25.4145 13.8406 25.3826 13.8413 25.3499C13.842 25.3172 13.8341 25.2849 13.8184 25.2562C13.8026 25.2275 13.7797 25.2035 13.7517 25.1865C13.7238 25.1695 13.6919 25.1601 13.6592 25.1593C13.3426 25.1508 12.9725 25.1568 12.6867 25.1578C12.6622 25.1575 12.6379 25.1622 12.6153 25.1716C12.5927 25.1811 12.5722 25.1951 12.5552 25.2126ZM14.8963 25.4869L12.411 29.6225C12.2279 29.9282 11.8712 29.976 11.6455 29.7503L9.96367 28.0685C9.92855 28.0336 9.88103 28.014 9.83149 28.014C9.78196 28.014 9.73443 28.0336 9.69932 28.0685L8.01758 29.7503C7.79189 29.976 7.43506 29.9282 7.25195 29.6225L4.76709 25.4876C4.74546 25.4512 4.71198 25.4232 4.67223 25.4084C4.63248 25.3936 4.58886 25.3928 4.54863 25.4063C3.54071 25.7375 2.66265 26.3776 2.03901 27.2359C1.41537 28.0942 1.07781 29.1271 1.07422 30.188V33.1457C1.07517 33.5401 1.23228 33.9181 1.51118 34.197C1.79008 34.4759 2.16808 34.633 2.5625 34.6339H15.1058C15.1545 34.634 15.2013 34.6151 15.2362 34.5812C15.2712 34.5474 15.2915 34.5012 15.293 34.4525C15.3218 33.4087 15.623 32.3906 16.1667 31.4991C16.7104 30.6076 17.4777 29.8737 18.3925 29.3702C18.4277 29.3511 18.4557 29.3212 18.4724 29.2848C18.4891 29.2485 18.4935 29.2077 18.4851 29.1686C18.3022 28.3011 17.8947 27.4968 17.3032 26.8364C16.7118 26.1759 15.9572 25.6825 15.115 25.4054C15.0748 25.392 15.0312 25.3928 14.9915 25.4076C14.9517 25.4224 14.9183 25.4504 14.8967 25.4869H14.8963ZM5.84863 25.4426C5.8317 25.4146 5.82241 25.3827 5.82171 25.35C5.821 25.3173 5.82891 25.285 5.84462 25.2563C5.86034 25.2276 5.88332 25.2036 5.91126 25.1866C5.93919 25.1696 5.97111 25.1602 6.00381 25.1594C6.32051 25.1508 6.68975 25.1568 6.97637 25.1578C7.00085 25.1575 7.02512 25.1622 7.04772 25.1716C7.07032 25.1811 7.09076 25.195 7.10781 25.2126L9.02539 27.1302C9.06033 27.1653 9.07994 27.2129 9.07994 27.2624C9.07994 27.3119 9.06033 27.3595 9.02539 27.3946L7.94297 28.477C7.92294 28.4972 7.89856 28.5125 7.8717 28.5218C7.84483 28.5311 7.81619 28.5342 7.78797 28.5307C7.75975 28.5272 7.73269 28.5174 7.70888 28.5018C7.68507 28.4863 7.66513 28.4655 7.65059 28.4411L5.84863 25.443V25.4426ZM14.3617 16.4429C14.3614 16.4042 14.3733 16.3664 14.3956 16.3349C14.418 16.3033 14.4497 16.2796 14.4863 16.2671L17.9809 15.0313C18.1118 14.9848 18.2252 14.8989 18.3054 14.7853C18.3856 14.6718 18.4286 14.5362 18.4286 14.3972C18.4286 14.2582 18.3856 14.1226 18.3054 14.0091C18.2252 13.8956 18.1118 13.8096 17.9809 13.7631L10.1865 11.0065C9.95732 10.9223 9.70567 10.9223 9.47646 11.0065L1.68213 13.7627C1.55114 13.8092 1.43777 13.8952 1.3576 14.0087C1.27742 14.1222 1.23438 14.2578 1.23438 14.3968C1.23438 14.5358 1.27742 14.6714 1.3576 14.7849C1.43777 14.8985 1.55114 14.9844 1.68213 15.0309L2.97119 15.4867C3.0103 15.5001 3.04377 15.5263 3.06625 15.561C3.08873 15.5957 3.09893 15.637 3.09521 15.6782L3.01865 16.6114C3.01642 16.6438 3.00557 16.6751 2.98722 16.7019C2.96886 16.7287 2.94368 16.7502 2.91426 16.764C2.72575 16.8557 2.56678 16.9985 2.45544 17.1761C2.3441 17.3538 2.28487 17.5591 2.28447 17.7687V19.4398C2.28447 19.5662 2.33468 19.6874 2.42405 19.7768C2.51343 19.8661 2.63464 19.9164 2.76104 19.9164H4.0416C4.16799 19.9164 4.28921 19.8661 4.37858 19.7768C4.46795 19.6874 4.51816 19.5662 4.51816 19.4398V17.7687C4.51826 17.5899 4.47542 17.4138 4.39323 17.255C4.31105 17.0963 4.19193 16.9596 4.0459 16.8565C4.01908 16.838 3.99769 16.8127 3.98395 16.7832C3.97022 16.7537 3.96463 16.721 3.96777 16.6886L4.01572 16.1049C4.01795 16.0764 4.02673 16.0487 4.04139 16.0241C4.05604 15.9995 4.07617 15.9786 4.10021 15.963C4.12425 15.9475 4.15156 15.9376 4.18001 15.9343C4.20846 15.931 4.23729 15.9343 4.26426 15.944L5.17695 16.2667C5.21356 16.2792 5.2453 16.3029 5.26766 16.3345C5.29003 16.3661 5.30189 16.4039 5.30156 16.4425V18.9125C5.30156 19.5074 5.41874 20.0964 5.6464 20.6461C5.87406 21.1957 6.20775 21.6951 6.62842 22.1158C7.04909 22.5364 7.54849 22.8701 8.09812 23.0978C8.64774 23.3255 9.23683 23.4426 9.83174 23.4426C10.4266 23.4426 11.0157 23.3255 11.5654 23.0978C12.115 22.8701 12.6144 22.5364 13.0351 22.1158C13.4557 21.6951 13.7894 21.1957 14.0171 20.6461C14.2447 20.0964 14.3619 19.5074 14.3619 18.9125V16.4429H14.3617ZM42.8922 25.2125L40.9746 27.1302C40.9397 27.1653 40.9201 27.2129 40.9201 27.2624C40.9201 27.3119 40.9397 27.3595 40.9746 27.3946L42.057 28.477C42.0771 28.4972 42.1014 28.5125 42.1283 28.5218C42.1552 28.5311 42.1838 28.5342 42.212 28.5307C42.2403 28.5272 42.2673 28.5174 42.2911 28.5018C42.3149 28.4863 42.3349 28.4655 42.3494 28.4411L44.1514 25.443C44.1683 25.415 44.1775 25.3831 44.1782 25.3504C44.1789 25.3177 44.171 25.2854 44.1553 25.2568C44.1396 25.2281 44.1166 25.204 44.0887 25.187C44.0608 25.17 44.0289 25.1606 43.9962 25.1598C43.6796 25.1512 43.31 25.1573 43.0236 25.1583C42.9992 25.158 42.9749 25.1627 42.9523 25.1721C42.9297 25.1816 42.9092 25.1955 42.8922 25.213V25.2125ZM45.2329 25.4876L42.748 29.6225C42.5648 29.9282 42.2081 29.976 41.9824 29.7503L40.3007 28.0685C40.2656 28.0336 40.218 28.014 40.1685 28.014C40.119 28.014 40.0714 28.0336 40.0363 28.0685L38.3545 29.7503C38.1288 29.976 37.7721 29.9282 37.589 29.6225L35.1036 25.4869C35.082 25.4504 35.0486 25.4224 35.0089 25.4076C34.9691 25.3928 34.9256 25.392 34.8854 25.4054C34.0432 25.6825 33.2886 26.176 32.6972 26.8364C32.1057 27.4969 31.6982 28.3011 31.5153 29.1686C31.5068 29.2077 31.5113 29.2485 31.528 29.2848C31.5447 29.3212 31.5727 29.3511 31.6079 29.3702C32.5227 29.8737 33.2899 30.6076 33.8335 31.4991C34.3771 32.3906 34.6783 33.4087 34.707 34.4525C34.7085 34.5011 34.7287 34.5472 34.7636 34.5811C34.7985 34.6149 34.8451 34.6339 34.8938 34.6339H47.4367C47.8313 34.6332 48.2095 34.4762 48.4885 34.1973C48.7676 33.9183 48.9248 33.5402 48.9258 33.1457V30.188C48.9223 29.1271 48.5848 28.0942 47.9612 27.2359C47.3376 26.3776 46.4596 25.7374 45.4518 25.4061C45.4115 25.3927 45.3679 25.3934 45.3282 25.4082C45.2884 25.423 45.2549 25.451 45.2333 25.4875L45.2329 25.4876ZM36.1927 25.4544C36.1756 25.4263 36.1663 25.3941 36.1658 25.3612C36.1652 25.3282 36.1733 25.2957 36.1894 25.267C36.2054 25.2382 36.2288 25.2142 36.2571 25.1974C36.2854 25.1806 36.3177 25.1716 36.3506 25.1712L37.3114 25.1591C37.3364 25.1584 37.3613 25.163 37.3844 25.1724C37.4076 25.1818 37.4285 25.196 37.4459 25.2139L39.3624 27.1303C39.3974 27.1654 39.417 27.2129 39.417 27.2625C39.417 27.3121 39.3974 27.3596 39.3624 27.3947L38.28 28.4771C38.26 28.4973 38.2356 28.5126 38.2087 28.5219C38.1819 28.5312 38.1532 28.5342 38.125 28.5308C38.0968 28.5273 38.0697 28.5175 38.0459 28.5019C38.0221 28.4864 38.0022 28.4657 37.9876 28.4413L36.1927 25.4543V25.4544ZM44.6985 16.4431C44.6982 16.4044 44.7101 16.3666 44.7324 16.3351C44.7548 16.3035 44.7865 16.2798 44.8231 16.2673L45.7358 15.9446C45.7628 15.9349 45.7916 15.9316 45.8201 15.9349C45.8485 15.9382 45.8758 15.948 45.8999 15.9636C45.9239 15.9792 45.9441 16.0001 45.9587 16.0247C45.9734 16.0493 45.9821 16.077 45.9844 16.1055L46.0323 16.6892C46.0355 16.7216 46.0299 16.7543 46.0161 16.7838C46.0024 16.8133 45.981 16.8386 45.9542 16.8571C45.8082 16.9602 45.6891 17.0969 45.6069 17.2556C45.5247 17.4144 45.4818 17.5905 45.4819 17.7693V19.4398C45.4819 19.5662 45.5321 19.6874 45.6215 19.7768C45.7109 19.8661 45.8321 19.9164 45.9585 19.9164H47.2393C47.3657 19.9164 47.4869 19.8661 47.5762 19.7768C47.6656 19.6874 47.7158 19.5662 47.7158 19.4398V17.7687C47.7158 17.5589 47.6567 17.3534 47.5454 17.1757C47.434 16.9979 47.2749 16.855 47.0862 16.7634C47.0567 16.7496 47.0315 16.7282 47.0131 16.7013C46.9946 16.6744 46.9838 16.6431 46.9815 16.6106L46.9051 15.6782C46.9014 15.637 46.9116 15.5957 46.934 15.561C46.9565 15.5263 46.99 15.5001 47.0291 15.4867L48.3182 15.0309C48.4491 14.9843 48.5623 14.8984 48.6424 14.7848C48.7225 14.6713 48.7655 14.5358 48.7655 14.3968C48.7655 14.2579 48.7225 14.1224 48.6424 14.0088C48.5623 13.8953 48.4491 13.8093 48.3182 13.7627L40.5238 11.0065C40.2946 10.9223 40.043 10.9223 39.8138 11.0065L32.0194 13.7627C31.8885 13.8093 31.7753 13.8953 31.6952 14.0088C31.6151 14.1224 31.5721 14.2579 31.5721 14.3968C31.5721 14.5358 31.6151 14.6713 31.6952 14.7848C31.7753 14.8984 31.8885 14.9843 32.0194 15.0309L35.514 16.2667C35.5506 16.2792 35.5823 16.3029 35.6047 16.3345C35.627 16.3661 35.6389 16.4039 35.6386 16.4425V18.9125C35.6386 20.1139 36.1159 21.2662 36.9654 22.1158C37.815 22.9653 38.9673 23.4426 40.1688 23.4426C41.3702 23.4426 42.5225 22.9653 43.3721 22.1158C44.2216 21.2662 44.6989 20.1139 44.6989 18.9125V16.4429L44.6985 16.4431ZM27.7237 29.634L25.8061 31.5521C25.7711 31.5872 25.7515 31.6347 25.7515 31.6843C25.7515 31.7338 25.7711 31.7813 25.8061 31.8165L26.8885 32.8989C26.9085 32.919 26.9329 32.9344 26.9598 32.9437C26.9866 32.953 27.0153 32.956 27.0435 32.9525C27.0717 32.949 27.0987 32.9392 27.1225 32.9236C27.1464 32.9081 27.1663 32.8874 27.1809 32.8629L28.9828 29.8649C28.9997 29.8369 29.009 29.805 29.0097 29.7723C29.0104 29.7396 29.0026 29.7073 28.9868 29.6786C28.9711 29.6499 28.9482 29.6259 28.9203 29.6089C28.8923 29.5919 28.8604 29.5825 28.8277 29.5817C28.511 29.5731 28.1414 29.5791 27.8552 29.5801C27.8307 29.5799 27.8064 29.5846 27.7838 29.594C27.7613 29.6034 27.7408 29.6173 27.7237 29.6348V29.634ZM30.0644 29.9088C30.086 29.8724 30.1195 29.8444 30.1592 29.8296C30.199 29.8148 30.2426 29.814 30.2828 29.8275C31.2907 30.1588 32.1687 30.799 32.7922 31.6574C33.4158 32.5157 33.7533 33.5486 33.7568 34.6095V37.567C33.7559 37.9615 33.5988 38.3395 33.3199 38.6184C33.041 38.8973 32.663 39.0545 32.2686 39.0554H17.7314C17.337 39.0545 16.959 38.8973 16.6801 38.6184C16.4012 38.3395 16.2441 37.9615 16.2432 37.567V34.6095C16.2467 33.5486 16.5841 32.5158 17.2076 31.6574C17.8311 30.7991 18.709 30.1589 19.7168 29.8275C19.757 29.814 19.8006 29.8148 19.8404 29.8296C19.8801 29.8444 19.9136 29.8724 19.9353 29.9088L22.4202 34.0439C22.6033 34.3496 22.9601 34.3974 23.1857 34.1717L24.8679 32.4896C24.9029 32.4546 24.9505 32.435 25 32.435C25.0495 32.435 25.0971 32.4546 25.1321 32.4896L26.814 34.1713C27.0396 34.397 27.3964 34.3493 27.5795 34.0435L30.0644 29.9084V29.9088ZM21.0172 29.864L22.8191 32.8621C22.8337 32.8865 22.8536 32.9072 22.8775 32.9228C22.9013 32.9383 22.9283 32.9482 22.9565 32.9516C22.9847 32.9551 23.0134 32.9521 23.0402 32.9428C23.0671 32.9335 23.0915 32.9182 23.1115 32.898L24.1939 31.8158C24.2289 31.7807 24.2485 31.7331 24.2485 31.6836C24.2485 31.6341 24.2289 31.5865 24.1939 31.5514L22.2763 29.6337C22.2592 29.6162 22.2387 29.6023 22.2162 29.5929C22.1936 29.5835 22.1693 29.5788 22.1448 29.5791C21.8582 29.578 21.489 29.5719 21.1723 29.5806C21.1395 29.5814 21.1076 29.5908 21.0797 29.6078C21.0517 29.6248 21.0287 29.6489 21.013 29.6776C20.9973 29.7063 20.9894 29.7386 20.9901 29.7714C20.9909 29.8041 21.0002 29.836 21.0172 29.864Z" fill="#66170E"/>
</svg>
