<svg width="50" height="50" viewBox="0 0 50 50" fill="none" xmlns="http://www.w3.org/2000/svg">
<path d="M22.5468 12.4123C22.9428 13.2043 23.8008 14.6564 25.1209 14.6564C26.441 14.6564 27.299 13.2043 27.695 12.4123C28.0251 12.2143 28.2891 11.8843 28.4211 11.4222C28.6191 10.7622 28.4871 9.90416 27.9591 9.44213C27.563 7.99005 26.441 7 25.1209 7C23.8008 7 22.6788 7.99005 22.2828 9.37613C21.7547 9.83816 21.6887 10.6962 21.8207 11.3562C21.9527 11.8843 22.2167 12.2143 22.5468 12.4123Z" fill="#66170E"/>
<path d="M31.9198 17.7585C31.7878 16.9005 31.0618 16.1085 30.0717 15.8444C29.2137 15.5804 28.8836 15.3824 27.8276 15.3164C27.6296 15.3164 27.3656 15.3824 27.2335 15.5804C27.1015 15.7784 27.0355 15.9764 27.1015 16.1745C27.6956 18.0886 26.1775 20.0687 25.1214 21.1907C23.8674 19.8707 22.6793 17.6265 23.1413 16.1745C23.2073 15.9764 23.1413 15.7124 23.0093 15.5804C22.8773 15.3824 22.6793 15.3164 22.4153 15.3164C21.3592 15.3824 21.0292 15.5804 20.1052 15.8444C19.1151 16.1085 18.3891 16.8345 18.2571 17.7585L17.333 23.1048H32.7118L31.9198 17.7585Z" fill="#66170E"/>
<path d="M33.0417 24.8214C32.9757 24.5574 32.7116 24.3594 32.5136 24.3594H17.6628C17.3988 24.3594 17.2008 24.5574 17.1348 24.8214L11.5905 42.1143C11.4585 42.5104 11.7225 42.9724 12.1185 42.9724H37.9919C38.388 42.9724 38.652 42.5104 38.52 42.1143L33.0417 24.8214Z" fill="#66170E"/>
<path d="M39.4438 26.4061C38.5197 27.0002 37.9917 27.9902 37.9917 29.0463C37.9917 30.8284 39.6418 32.3465 41.6219 32.3465C43.602 32.3465 45.2521 30.8944 45.2521 29.0463C45.2521 27.2642 43.602 25.7461 41.6219 25.7461C40.8299 25.7461 40.0378 25.9441 39.4438 26.4061Z" fill="#66170E"/>
<path d="M41.6218 32.6738C39.7737 32.6738 38.3877 33.3999 37.6616 34.7859L39.9057 43.0364H45.5821C45.9121 43.0364 46.2421 42.7064 46.2421 42.3764V36.8321C46.2421 34.5219 44.13 32.6738 41.6218 32.6738Z" fill="#66170E"/>
<path d="M35.2197 27.1322L37.1338 33.1385C37.4639 32.8085 37.7939 32.4785 38.1899 32.2144C37.2658 31.3564 36.6718 30.2343 36.6718 28.9143C36.6718 27.7262 37.1338 26.6041 37.9919 25.7461C36.8698 25.9441 35.8798 26.4061 35.2197 27.1322Z" fill="#66170E"/>
<path d="M38.6517 25.4148C40.6978 25.4148 42.2819 23.8967 42.2819 22.1146C42.2819 20.3325 40.6318 18.8145 38.6517 18.8145C37.8596 18.8145 37.0676 19.0785 36.4736 19.4745C35.5495 20.0685 35.0215 21.0586 35.0215 22.1146C35.0215 23.9627 36.6716 25.4148 38.6517 25.4148Z" fill="#66170E"/>
<path d="M8.61994 32.214C10.6001 32.214 12.2501 30.762 12.2501 28.9799C12.2501 27.9238 11.7221 26.9998 10.7981 26.3397C10.204 25.9437 9.41199 25.6797 8.61994 25.6797C6.63984 25.6797 4.98975 27.1318 4.98975 28.9799C4.98975 30.696 6.63984 32.214 8.61994 32.214Z" fill="#66170E"/>
<path d="M12.5805 34.6551C11.8544 33.335 10.4023 32.543 8.62025 32.543C6.04611 32.543 4 34.3911 4 36.7012V42.2455C4 42.5755 4.33002 42.9055 4.66004 42.9055H10.3363C10.2043 42.5095 10.2043 42.1135 10.3363 41.6515L12.5805 34.6551Z" fill="#66170E"/>
<path d="M12.0522 32.2148C12.4483 32.4789 12.7783 32.7429 13.1083 33.1389L15.0224 27.1326C14.3624 26.4065 13.3723 25.9445 12.1843 25.8125C13.0423 26.6705 13.5043 27.7926 13.5043 28.9807C13.5703 30.2347 12.9763 31.3568 12.0522 32.2148Z" fill="#66170E"/>
<path d="M11.5902 25.3492C13.5703 25.3492 15.2204 23.8971 15.2204 22.115C15.2204 20.2009 13.5043 18.8809 11.5902 18.8809C9.61005 18.8809 7.95996 20.3329 7.95996 22.115C7.95996 23.8311 9.54405 25.3492 11.5902 25.3492Z" fill="#66170E"/>
</svg>
