<svg width="50" height="50" viewBox="0 0 50 50" fill="none" xmlns="http://www.w3.org/2000/svg">
<path fill-rule="evenodd" clip-rule="evenodd" d="M18.1284 43.0218H7.61237C7.27527 43.0218 7 42.7466 7 42.4095V39.4992C7 37.5564 8.44416 35.9766 10.2174 35.9766H16.5765C17.4322 35.9766 18.2122 36.3456 18.7886 36.944C18.266 37.6641 17.9628 38.5657 17.9628 39.4992V42.4095C17.9628 42.6329 18.0227 42.8423 18.1284 43.0218Z" fill="#66170E"/>
<path fill-rule="evenodd" clip-rule="evenodd" d="M13.3967 35.3266C11.7132 35.3266 10.3408 33.9562 10.3408 32.2707C10.3408 30.5872 11.7132 29.2148 13.3967 29.2148C15.0822 29.2148 16.4526 30.5872 16.4526 32.2707C16.4526 33.9562 15.0822 35.3266 13.3967 35.3266Z" fill="#66170E"/>
<path fill-rule="evenodd" clip-rule="evenodd" d="M30.7529 43.0218H19.1837C18.8446 43.0218 18.5713 42.7466 18.5713 42.4095V39.4992C18.5713 37.5564 20.0154 35.9766 21.7887 35.9766H28.1478C29.9231 35.9766 31.3653 37.5564 31.3653 39.4992V42.4095C31.3653 42.7466 31.092 43.0218 30.7529 43.0218Z" fill="#66170E"/>
<path fill-rule="evenodd" clip-rule="evenodd" d="M24.968 35.3266C23.2825 35.3266 21.9121 33.9562 21.9121 32.2707C21.9121 30.5872 23.2825 29.2148 24.968 29.2148C26.6535 29.2148 28.0239 30.5872 28.0239 32.2707C28.0239 33.9562 26.6535 35.3266 24.968 35.3266Z" fill="#66170E"/>
<path fill-rule="evenodd" clip-rule="evenodd" d="M42.3237 43.0218H31.8097C31.9134 42.8423 31.9733 42.6329 31.9733 42.4095V39.4992C31.9733 38.5657 31.6721 37.6641 31.1475 36.944C31.7259 36.3456 32.5039 35.9766 33.3596 35.9766H39.7187C41.4919 35.9766 42.9361 37.5564 42.9361 39.4992V42.4095C42.9361 42.7466 42.6628 43.0218 42.3237 43.0218Z" fill="#66170E"/>
<path fill-rule="evenodd" clip-rule="evenodd" d="M36.5393 35.3266C34.8538 35.3266 33.4834 33.9562 33.4834 32.2707C33.4834 30.5872 34.8538 29.2148 36.5393 29.2148C38.2248 29.2148 39.5951 30.5872 39.5951 32.2707C39.5951 33.9562 38.2248 35.3266 36.5393 35.3266Z" fill="#66170E"/>
<path fill-rule="evenodd" clip-rule="evenodd" d="M24.9682 27.6086H7.61237C7.27527 27.6086 7 27.3353 7 26.9962V24.6983C7 24.3592 7.27527 24.0859 7.61237 24.0859H24.9682C25.3073 24.0859 25.5806 24.3592 25.5806 24.6983V26.9962C25.5806 27.3353 25.3073 27.6086 24.9682 27.6086Z" fill="#66170E"/>
<path fill-rule="evenodd" clip-rule="evenodd" d="M16.3234 18.1235C16.3174 18.1235 16.3134 18.1235 16.3094 18.1235C14.1811 18.0736 12.1704 16.1208 12.1704 14.1022V12.1553C12.1704 11.8162 12.4437 11.543 12.7808 11.543C13.1199 11.543 13.3932 11.8162 13.3932 12.1553V14.1022C13.3932 15.4506 14.8692 16.8568 16.3234 16.9007C17.7755 16.8568 19.2516 15.4506 19.2516 14.1022V12.2591C19.2516 11.92 19.5268 11.6467 19.8639 11.6467C20.201 11.6467 20.4763 11.92 20.4763 12.2591V14.1022C20.4763 16.1208 18.4637 18.0736 16.3373 18.1235C16.3313 18.1235 16.3274 18.1235 16.3234 18.1235Z" fill="#66170E"/>
<path fill-rule="evenodd" clip-rule="evenodd" d="M19.8638 12.8692C19.7621 12.8692 19.6583 12.8452 19.5626 12.7914C19.4429 12.7236 19.3552 12.6218 19.3033 12.5041C17.8851 11.427 15.0366 11.1657 15.0067 11.1637C14.7773 11.1438 14.5779 10.9962 14.4921 10.7847C14.1949 10.0467 14.2627 8.65239 14.2806 8.38112C14.2826 8.34322 14.2886 8.30731 14.2966 8.26941C14.5799 7.14241 15.8604 6.94693 16.5726 7.01076C16.5865 7.01076 16.6005 7.01276 16.6144 7.01475C18.6311 7.3339 19.8518 8.85785 20.2827 9.49814C20.7375 10.1743 20.8931 11.5527 20.4502 12.4563C20.4462 12.4682 20.4403 12.4782 20.4323 12.4902C20.4203 12.5141 20.4083 12.5361 20.3964 12.56C20.2847 12.7575 20.0772 12.8692 19.8638 12.8692Z" fill="#66170E"/>
<path fill-rule="evenodd" clip-rule="evenodd" d="M8.95703 23.4779V21.8762C8.95703 19.9852 10.5887 18.4453 12.5973 18.4453H13.3853L12.3899 20.4061C12.3221 20.5417 12.364 20.7073 12.4876 20.7951L13.7263 21.6747L12.9584 23.4779H8.95703ZM14.0734 18.4453H14.2589C14.4185 18.4453 14.5721 18.5071 14.6858 18.6189L15.9863 19.8935V23.4779H13.6266L14.3906 21.6887C14.4464 21.555 14.4025 21.4014 14.2849 21.3157L13.0581 20.446L14.0734 18.4453ZM16.6027 19.8915L17.8933 18.6208C18.009 18.5071 18.1625 18.4453 18.3221 18.4453H18.5076L19.5229 20.446L18.2962 21.3157C18.1785 21.4014 18.1346 21.555 18.1905 21.6887L18.9544 23.4779H16.6027V19.8915ZM19.1958 18.4453H19.9837C21.9924 18.4453 23.624 19.9852 23.624 21.8762V23.4779H19.6227L18.8547 21.6747L20.0934 20.7951C20.2171 20.7073 20.259 20.5417 20.1911 20.4061L19.1958 18.4453Z" fill="#66170E"/>
<path fill-rule="evenodd" clip-rule="evenodd" d="M12.643 12.7792C12.1982 12.7792 11.7853 12.5399 11.4023 12.3165C10.8139 11.9734 10.4249 11.746 10.4768 11.2653C10.5227 10.8284 10.9136 10.6988 11.0812 10.6449C11.1729 10.613 11.2687 10.5831 11.3425 10.5312C11.6896 10.2899 11.9289 9.80317 12.1803 9.28853C12.4436 8.75396 12.7128 8.20143 13.1636 7.80648C13.4349 7.5711 13.7401 7.41552 14.0812 7.3457C13.9117 7.56512 13.782 7.82243 13.7062 8.12363C13.6703 8.26725 13.6823 8.19544 13.6723 8.34305C13.6244 9.12298 13.6364 10.2879 13.9296 11.012C14.0313 11.2653 14.2129 11.4707 14.4403 11.6044C14.2288 11.7739 13.9815 11.9933 13.7002 12.2726C13.3272 12.6456 12.9761 12.7792 12.643 12.7792Z" fill="#66170E"/>
<path fill-rule="evenodd" clip-rule="evenodd" d="M34.415 28.5613C32.8033 28.5613 31.3312 27.9469 30.2201 26.9416L34.5426 22.6151H40.6624C40.5008 25.9203 37.7601 28.5613 34.415 28.5613ZM29.7853 26.5068C28.776 25.3957 28.1616 23.9216 28.1616 22.3079C28.1616 18.9628 30.8026 16.2221 34.1078 16.0605V22.1803L29.7853 26.5068ZM34.7242 16.0605C37.9276 16.2181 40.5048 18.7953 40.6624 21.9988H34.7242V16.0605Z" fill="#66170E"/>
<path fill-rule="evenodd" clip-rule="evenodd" d="M42.324 14.8908H24.8804C24.5413 14.8908 24.2681 14.6156 24.2681 14.2785V7.62018C24.2681 7.28109 24.5413 7.00781 24.8804 7.00781H42.324C42.6631 7.00781 42.9364 7.28109 42.9364 7.62018V14.2785C42.9364 14.6156 42.6631 14.8908 42.324 14.8908ZM40.09 12.3197C40.2615 12.3197 40.3992 12.182 40.3992 12.0105C40.3992 11.841 40.2615 11.7033 40.09 11.7033H27.1125C26.943 11.7033 26.8053 11.841 26.8053 12.0105C26.8053 12.182 26.943 12.3197 27.1125 12.3197H40.09ZM40.09 10.1953C40.2615 10.1953 40.3992 10.0577 40.3992 9.88616C40.3992 9.71661 40.2615 9.57897 40.09 9.57897H27.1125C26.943 9.57897 26.8053 9.71661 26.8053 9.88616C26.8053 10.0577 26.943 10.1953 27.1125 10.1953H40.09Z" fill="#66170E"/>
</svg>
