<svg width="50" height="50" viewBox="0 0 50 50" fill="none" xmlns="http://www.w3.org/2000/svg">
<path d="M9.74019 26.5849C9.74019 24.5853 11.3708 22.9639 13.3818 22.9639C15.3928 22.9639 17.0234 24.5853 17.0234 26.5849C17.0234 28.5866 15.3928 30.208 13.3818 30.208C11.3708 30.208 9.74019 28.5866 9.74019 26.5849ZM17.5972 32.9088C16.7858 32.3481 15.8014 32.0167 14.7452 32.0167H12.0205C9.25993 32.0167 7 34.2638 7 37.0087V40.7052C7 41.4169 7.58573 41.9993 8.30154 41.9993H17.0874C16.8041 41.5812 16.6388 41.0799 16.6388 40.5388V36.3669C16.6388 35.107 16.9876 33.924 17.5972 32.9088ZM37.9816 32.0174H35.2569C34.2007 32.0174 33.2156 32.3481 32.4049 32.9095C33.0131 33.924 33.3633 35.1077 33.3633 36.3676V40.5395C33.3633 41.0806 33.1981 41.5819 32.9126 42H41.7006C42.4164 42 43 41.4176 43 40.7059V37.0094C43.0007 34.2645 40.7422 32.0174 37.9816 32.0174ZM36.6203 22.9639C34.6072 22.9639 32.9766 24.5853 32.9766 26.5849C32.9766 28.5866 34.6072 30.208 36.6203 30.208C38.6313 30.208 40.2619 28.5866 40.2619 26.5849C40.2619 24.5853 38.6313 22.9639 36.6203 22.9639ZM26.5385 30.7351H23.4629C20.3472 30.7351 17.7983 33.2696 17.7983 36.3676V40.5395C17.7983 41.3442 18.46 42 19.2672 42H30.7342C31.5414 42 32.201 41.3442 32.201 40.5395V36.3676C32.2017 33.2696 29.6542 30.7351 26.5385 30.7351ZM25 20.5183C22.7316 20.5183 20.8901 22.3494 20.8901 24.6049C20.8901 26.8625 22.7316 28.6915 25 28.6915C27.2705 28.6915 29.1099 26.8625 29.1099 24.6049C29.1099 22.3494 27.2705 20.5183 25 20.5183ZM28.7731 7.86207C28.8631 7.37265 29.2956 7 29.8117 7H39.2079C39.788 7 40.2626 7.47193 40.2626 8.04874V14.1447C40.2626 14.7236 39.788 15.1949 39.2079 15.1949H37.5653C37.3122 15.1949 37.1048 15.4011 37.1048 15.6528V17.256C37.1048 17.442 36.9993 17.6007 36.8277 17.6762C36.654 17.7517 36.4649 17.7195 36.3278 17.5909L33.8639 15.3179C33.776 15.2347 33.6727 15.1949 33.551 15.1949H31.0176C31.2686 14.5111 31.4043 13.7756 31.4043 13.0072C31.4043 10.8922 30.3679 9.01988 28.7731 7.86207ZM33.9293 12.5094C33.9293 12.8282 34.1888 13.0883 34.5094 13.0883H37.8937C38.2129 13.0883 38.4738 12.8289 38.4738 12.5094C38.4738 12.192 38.2129 11.9326 37.8937 11.9326H34.5094C34.1888 11.9333 33.9293 12.1927 33.9293 12.5094ZM9.74019 14.1447V8.04874C9.74019 7.47193 10.2148 7 10.7949 7H20.1904C20.7044 7 21.1369 7.37265 21.2269 7.86207C20.4914 8.39692 19.8733 9.0828 19.4233 9.87565C19.4451 9.81622 19.457 9.7505 19.457 9.68338C19.457 9.36456 19.1962 9.10657 18.8748 9.10657H12.1084C11.7878 9.10657 11.5283 9.36386 11.5283 9.68338C11.5283 10.0029 11.7871 10.2623 12.1084 10.2623H18.8755C19.0626 10.2623 19.2285 10.1749 19.334 10.0386C18.8636 10.9244 18.5964 11.9354 18.5964 13.0072C18.5964 13.7763 18.7342 14.5118 18.9852 15.1949H16.4518C16.3301 15.1949 16.2268 15.2347 16.1368 15.3179L13.6729 17.5909C13.5351 17.7195 13.346 17.7517 13.1744 17.6762C13.0028 17.6007 12.8973 17.4427 12.8973 17.256V15.6528C12.8973 15.4011 12.6899 15.1949 12.4347 15.1949H10.7942C10.2148 15.1949 9.74019 14.7236 9.74019 14.1447ZM11.5283 12.5094C11.5283 12.8282 11.7871 13.0883 12.1084 13.0883H15.4927C15.8133 13.0883 16.0728 12.8289 16.0728 12.5094C16.0728 12.192 15.8133 11.9326 15.4927 11.9326H12.1084C11.7871 11.9333 11.5283 12.1927 11.5283 12.5094ZM19.758 13.0072C19.758 10.1357 22.1143 7.79495 25 7.79495C27.8878 7.79495 30.2441 10.1357 30.2441 13.0072C30.2441 15.8786 27.8878 18.2194 25 18.2194C22.1136 18.2194 19.758 15.8786 19.758 13.0072ZM22.1775 13.031L24.043 14.8858C24.2701 15.1117 24.6372 15.1117 24.8643 14.8858L27.8239 11.9445C28.0489 11.7186 28.0489 11.3516 27.8239 11.1278C27.5967 10.902 27.2276 10.902 27.0026 11.1278L24.4529 13.6609L22.9981 12.2164C22.771 11.9906 22.404 11.9906 22.1768 12.2164C21.9504 12.4402 21.9504 12.8072 22.1775 13.031Z" fill="#66170E"/>
</svg>
