<svg width="96" height="96" viewBox="0 0 96 96" fill="none" xmlns="http://www.w3.org/2000/svg">
<path fill-rule="evenodd" clip-rule="evenodd" d="M4.76971 42.5432L11.4897 49.2612C12.2697 50.0422 13.5398 50.0422 14.3198 49.2612C15.0998 48.4812 15.0998 47.2132 14.3198 46.4332L8.42962 40.5392L12.0798 38.5362L18.5898 45.0462C18.9398 45.3982 19.4097 45.6692 19.9997 45.8012V75.0002C19.9997 78.3142 22.6897 81.0002 25.9997 81.0002H45.5297L43.3796 91.0002H40.9997C39.8997 91.0002 38.9997 91.8962 38.9997 93.0002C38.9997 94.1042 39.8997 95.0002 40.9997 95.0002H74.9997C76.0997 95.0002 76.9997 94.1042 76.9997 93.0002C76.9997 91.8962 76.0997 91.0002 74.9997 91.0002H72.6198L70.4697 81.0002H89.9997C93.3097 81.0002 95.9997 78.3142 95.9997 75.0002V27.0002C95.9997 23.6862 93.3097 21.0002 89.9997 21.0002H44.7997C44.6697 20.4062 44.3997 19.9432 44.0497 19.5902L37.5397 13.0802L42.5397 3.96218C42.9597 3.18218 42.8296 2.21418 42.1996 1.58618C41.5696 0.957176 40.5998 0.81918 39.8198 1.24618L14.7697 14.9812C14.4397 15.1642 14.1597 15.4392 13.9797 15.7732L0.249686 40.8212C-0.180314 41.6002 -0.0402256 42.5682 0.589774 43.1962C1.20977 43.8252 2.17965 43.9632 2.95965 43.5362L4.76971 42.5432ZM91.9997 71.0002H23.9997V75.0002C23.9997 76.1052 24.8897 77.0002 25.9997 77.0002H89.9997C91.1097 77.0002 91.9997 76.1052 91.9997 75.0002V71.0002ZM58.8498 54.7612L65.8498 37.7612C66.2698 36.7412 65.7797 35.5712 64.7597 35.1512C63.7397 34.7302 62.5696 35.2182 62.1496 36.2392L55.1496 53.2392C54.7296 54.2592 55.2197 55.4292 56.2397 55.8492C57.2597 56.2702 58.4298 55.7822 58.8498 54.7612ZM67.5898 42.4142L72.1696 47.0002L67.5898 51.5862C66.8098 52.3662 66.8098 53.6342 67.5898 54.4142C68.3698 55.1952 69.6296 55.1952 70.4096 54.4142L76.4096 48.4142C77.1996 47.6332 77.1996 46.3672 76.4096 45.5862L70.4096 39.5862C69.6296 38.8052 68.3698 38.8052 67.5898 39.5862C66.8098 40.3662 66.8098 41.6342 67.5898 42.4142ZM45.5898 39.5862L39.5898 45.5862C38.8098 46.3672 38.8098 47.6332 39.5898 48.4142L45.5898 54.4142C46.3698 55.1952 47.6296 55.1952 48.4096 54.4142C49.1996 53.6342 49.1996 52.3662 48.4096 51.5862L43.8298 47.0002L48.4096 42.4142C49.1996 41.6342 49.1996 40.3662 48.4096 39.5862C47.6296 38.8052 46.3698 38.8052 45.5898 39.5862ZM35.5297 16.7342L28.7997 29.0092C28.6197 29.3442 28.3397 29.6182 28.0097 29.8022L15.7297 36.5332L21.0297 41.8322C21.4897 41.7182 22.5696 41.4322 23.3896 41.0812C27.2996 39.4072 32.6798 35.9982 34.0898 35.0872C34.9998 33.6762 38.4098 28.2972 40.0798 24.3912C40.4298 23.5732 40.7198 22.4912 40.8298 22.0332L35.5297 16.7342Z" fill="#66170E"/>
</svg>
