<svg width="80" height="80" viewBox="0 0 80 80" fill="none" xmlns="http://www.w3.org/2000/svg">
<path d="M78.7132 42.9124C78.8368 45.866 77.7838 48.748 75.7852 50.9262C73.7865 53.1044 71.0055 54.4008 68.0522 54.5312C67.8795 54.5392 67.7071 54.5432 67.535 54.5432C66.7503 54.5427 65.968 54.4577 65.2014 54.2899C62.927 57.8016 59.9447 60.7999 56.4452 63.093C52.9457 65.3862 49.0061 66.9236 44.8785 67.6071C44.3903 69.0414 43.4163 70.26 42.1249 71.0523C40.8334 71.8447 39.3058 72.1609 37.806 71.9463C36.3061 71.7318 34.9284 71 33.9109 69.8774C32.8934 68.7548 32.3001 67.312 32.2336 65.7983C32.167 64.2847 32.6314 62.7954 33.5465 61.5878C34.4616 60.3803 35.7698 59.5304 37.245 59.1851C38.7202 58.8397 40.2697 59.0207 41.6257 59.6966C42.9816 60.3726 44.0588 61.501 44.671 62.887C50.4822 61.8122 55.732 58.7323 59.5054 54.1841C63.2789 49.6359 65.3367 43.9078 65.3202 37.998C65.3202 24.0363 53.9616 12.6777 39.9999 12.6777C26.0382 12.6777 14.6796 24.0363 14.6796 37.998C14.6788 42.3152 15.7822 46.5609 17.8847 50.3315C17.956 50.4559 18.0095 50.5897 18.0436 50.729C18.2467 51.2935 18.225 51.9144 17.983 52.4633C17.741 53.0122 17.2972 53.4471 16.7435 53.6779C15.3876 54.2485 13.9314 54.5423 12.4603 54.5421C12.2872 54.5421 12.1137 54.5381 11.9399 54.5301C8.98782 54.3981 6.20856 53.1009 4.21151 50.9229C2.21446 48.7448 1.16261 45.8637 1.2866 42.9113C1.33644 41.734 1.30863 40.6835 1.28144 39.6677C1.25613 38.7113 1.22972 37.7223 1.27316 36.6902C1.4028 33.8075 2.64284 31.0868 4.73356 29.0978C6.82428 27.1089 9.60349 26.0061 12.4891 26.0204C17.1228 15.4185 27.7093 7.99023 39.9999 7.99023C52.2905 7.99023 62.8771 15.4185 67.5108 26.0205C70.3967 26.0041 73.1768 27.1059 75.2679 29.0949C77.359 31.0839 78.5985 33.8054 78.7264 36.6885C78.77 37.7221 78.7438 38.711 78.7182 39.6674C78.6913 40.6834 78.6633 41.7343 78.7132 42.9124ZM59.6569 37.998C59.6558 41.0095 58.963 43.9805 57.632 46.6819C56.301 49.3833 54.3673 51.7429 51.9801 53.5787C49.5929 55.4145 46.816 56.6776 43.8635 57.2704C40.9109 57.8633 37.8617 57.7701 34.9508 56.998L26.9944 61.5929C26.593 61.8247 26.1318 61.9323 25.6692 61.902C25.2066 61.8717 24.7634 61.7049 24.3956 61.4227C24.0278 61.1405 23.7519 60.7556 23.6029 60.3166C23.4539 59.8776 23.4385 59.4043 23.5585 58.9565L25.5919 51.3709C22.2244 47.731 20.3507 42.9567 20.3436 37.998C20.3436 27.1562 29.161 18.3365 39.9999 18.3365C50.8388 18.3365 59.6569 27.1562 59.6569 37.998ZM34.535 37.998C34.535 37.3764 34.2881 36.7803 33.8486 36.3408C33.409 35.9012 32.8129 35.6543 32.1913 35.6543H32.1874C31.724 35.6552 31.2713 35.7934 30.8865 36.0514C30.5016 36.3095 30.2019 36.6758 30.0252 37.1042C29.8484 37.5325 29.8026 38.0036 29.8936 38.458C29.9845 38.9123 30.2081 39.3295 30.536 39.6569C30.864 39.9842 31.2816 40.207 31.7361 40.2971C32.1906 40.3872 32.6617 40.3405 33.0897 40.163C33.5177 39.9854 33.8835 39.685 34.1408 39.2997C34.3982 38.9144 34.5355 38.4614 34.5355 37.998H34.535ZM42.3441 37.998C42.3439 37.9213 42.3397 37.8447 42.3316 37.7684C42.3242 37.6918 42.3128 37.6156 42.2974 37.5402C42.2834 37.4651 42.2645 37.391 42.241 37.3184C42.2193 37.2449 42.1927 37.173 42.1646 37.1012C42.1364 37.0293 42.1021 36.9621 42.0661 36.8949C42.0304 36.8274 41.9913 36.7616 41.9489 36.698C41.9062 36.6338 41.8603 36.5717 41.8113 36.5121C41.7631 36.4524 41.7115 36.3955 41.6568 36.3418C41.6036 36.2871 41.5458 36.2355 41.4864 36.1855C41.4269 36.1387 41.3644 36.0918 41.3003 36.0496C41.2368 36.0072 41.1711 35.9681 41.1036 35.9324C41.0363 35.8965 40.9661 35.8637 40.8957 35.834C40.8253 35.8045 40.7534 35.779 40.6802 35.7574C40.5341 35.7105 40.3831 35.6801 40.2302 35.6668C40.0006 35.6447 39.7691 35.6557 39.5427 35.6996C39.4673 35.715 39.3928 35.7343 39.3194 35.7574C39.2462 35.7789 39.1742 35.8045 39.1038 35.834C39.0335 35.8637 38.9632 35.8965 38.896 35.9324C38.8288 35.9684 38.7632 36.0074 38.6989 36.0496C38.6347 36.0918 38.5724 36.1387 38.5147 36.1855C38.4538 36.2355 38.3975 36.2871 38.3429 36.3418C38.288 36.3956 38.2363 36.4524 38.188 36.5121C38.1396 36.5717 38.0943 36.6338 38.0522 36.698C38.0093 36.7616 37.9696 36.8273 37.9335 36.8949C37.8974 36.9619 37.865 37.0307 37.8364 37.1012C37.8068 37.1722 37.7807 37.2447 37.7583 37.3184C37.7366 37.3902 37.7178 37.4652 37.7022 37.5402C37.6868 37.6156 37.6753 37.6918 37.6677 37.7684C37.66 37.8449 37.6568 37.9215 37.6568 37.998C37.6568 38.0746 37.66 38.1527 37.6677 38.2293C37.6754 38.3054 37.6869 38.381 37.7022 38.4559C37.7178 38.5309 37.7366 38.6059 37.7583 38.6793C37.7807 38.7524 37.8068 38.8244 37.8364 38.8949C37.865 38.9659 37.8974 39.0353 37.9335 39.1027C37.9693 39.1699 38.01 39.2355 38.0522 39.2996C38.0943 39.3633 38.1396 39.4249 38.188 39.484C38.2367 39.5438 38.2884 39.6012 38.3429 39.6559C38.3975 39.709 38.4538 39.7621 38.5147 39.8105C38.5735 39.8593 38.635 39.9047 38.6989 39.9465C38.7632 39.9887 38.8286 40.0293 38.896 40.0652C39.0317 40.136 39.1734 40.1945 39.3194 40.2402C39.3927 40.2621 39.4677 40.2809 39.5427 40.2965C39.6933 40.3273 39.8467 40.3425 40.0005 40.3418C40.6214 40.3401 41.2165 40.0937 41.6568 39.6559C41.7648 39.5462 41.8626 39.427 41.9489 39.2996C41.9911 39.2355 42.0302 39.1699 42.0661 39.1027C42.1021 39.0355 42.1349 38.9652 42.1646 38.8949C42.1943 38.8246 42.2193 38.7512 42.241 38.6793C42.2643 38.606 42.2832 38.5314 42.2974 38.4559C42.3127 38.381 42.3241 38.3054 42.3316 38.2293C42.3396 38.1524 42.3436 38.0751 42.3436 37.9977L42.3441 37.998ZM50.1566 37.998C50.1566 37.3764 49.9097 36.7803 49.4701 36.3408C49.0306 35.9012 48.4344 35.6543 47.8128 35.6543H47.8083C47.345 35.6552 46.8923 35.7934 46.5074 36.0515C46.1226 36.3096 45.8229 36.6759 45.6462 37.1043C45.4695 37.5326 45.4237 38.0037 45.5147 38.4581C45.6056 38.9124 45.8292 39.3296 46.1572 39.6569C46.4851 39.9842 46.9027 40.207 47.3573 40.2971C47.8118 40.3872 48.2828 40.3405 48.7108 40.163C49.1388 39.9854 49.5046 39.685 49.7619 39.2997C50.0193 38.9144 50.1566 38.4614 50.1566 37.998Z" fill="#66170E"/>
</svg>
