<svg width="100" height="100" viewBox="0 0 100 100" fill="none" xmlns="http://www.w3.org/2000/svg">
<path d="M29.9707 53.6024C29.9512 53.1141 29.9414 52.6259 29.9316 52.1376C29.9219 51.6493 29.9121 51.161 29.9121 50.6727H12.4902C11.4355 50.6727 10.3711 50.6532 9.31641 50.6727C9.26758 50.6727 9.22852 50.6727 9.17969 50.6727C8.38867 50.6727 7.71484 51.3466 7.71484 52.1376C7.73438 60.9852 10.5176 69.7645 15.7422 76.9227C16.582 78.0751 17.4805 79.1884 18.4375 80.2528C18.7988 79.9306 19.1699 79.6181 19.541 79.3153C19.9121 79.0028 20.293 78.7001 20.6836 78.3973C23.3984 76.2684 26.3477 74.4325 29.4727 72.9579C30.3613 72.538 31.2695 72.1376 32.1777 71.7763C30.8496 65.7997 30.1855 59.6864 29.9707 53.6024Z" fill="#013C1D"/>
<path d="M92.2852 52.1293V52.2562C92.2852 53.3012 92.2461 54.3363 92.1582 55.3715C91.4551 64.3558 87.8809 72.9105 82.0117 79.7465C81.8652 79.9125 81.7187 80.0785 81.5723 80.2445C81.2109 79.9223 80.8398 79.6098 80.459 79.2973C80.0879 78.9848 79.6973 78.682 79.3164 78.3793C75.8203 75.6547 71.9434 73.4086 67.8418 71.7484C69.1602 65.7914 69.8144 59.6586 70.0293 53.5844C70.0391 53.4476 70.0391 53.3207 70.0391 53.184C70.0488 52.8324 70.0586 52.4711 70.0684 52.1195C70.0781 51.6312 70.0879 51.143 70.0879 50.6547H90.8203C91.6113 50.6351 92.2852 51.3676 92.2852 52.1293Z" fill="#013C1D"/>
<path d="M42.4023 93.7305C40.2344 93.3398 38.1055 92.7734 36.0254 92.041C30.1758 89.9805 24.873 86.6504 20.4688 82.3535C20.8301 82.0312 21.2012 81.7187 21.5723 81.416C21.9531 81.1035 22.334 80.791 22.7246 80.498C25.8301 78.1055 29.2383 76.1328 32.8613 74.6289C33.0469 75.3613 33.252 76.084 33.457 76.8066C34.4824 80.3223 35.7715 83.7891 37.4902 87.0312C38.0273 88.0371 38.6133 89.043 39.2578 90C39.6875 90.6445 40.1562 91.2695 40.6543 91.875C41.2012 92.5391 41.7773 93.1641 42.4023 93.7305Z" fill="#013C1D"/>
<path d="M67.1582 50.6738C67.1582 51.1621 67.1484 51.6504 67.1289 52.1387C67.1191 52.627 67.1094 53.1152 67.0898 53.6035C66.8945 59.4043 66.2793 65.0879 65.0488 70.7324C62.9199 70.0195 60.7324 69.4629 58.5059 69.0625C50.6152 67.6562 42.4902 68.252 34.9219 70.752C33.7012 65.1172 33.1055 59.4043 32.8906 53.6035C32.8809 53.4082 32.8809 53.2227 32.8711 53.0273C32.8613 52.7344 32.8516 52.4316 32.8418 52.1387C32.832 51.6504 32.8223 51.1621 32.8223 50.6738H67.1582Z" fill="#013C1D"/>
<path d="M64.3848 73.584C64.209 74.2676 64.0234 74.9512 63.8281 75.625C63.3203 77.4219 62.7344 79.1993 62.0703 80.9375C61.9238 81.3184 61.7773 81.6993 61.6211 82.0704C61.6016 82.1289 61.5723 82.1778 61.5527 82.2364C61.5332 82.295 61.5527 82.2461 61.543 82.2559C61.543 82.2657 61.543 82.2657 61.5332 82.2754C61.5332 82.2852 61.5234 82.2852 61.5234 82.295C61.5234 82.3047 61.5234 82.3047 61.5137 82.3047C61.5039 82.3047 61.5137 82.3145 61.5039 82.3145C61.5039 82.3243 61.4941 82.334 61.4941 82.3438C61.3965 82.5684 61.2988 82.793 61.2012 83.0274C60.8691 83.7696 60.5176 84.5118 60.1367 85.2344C59.4531 86.5332 58.7012 87.8028 57.8418 89.0039C57.7441 89.1407 57.6465 89.2774 57.5391 89.4141C57.5391 89.4141 57.5195 89.4336 57.5098 89.4532C57.5 89.4629 57.5 89.4727 57.4902 89.4825C57.4805 89.4922 57.4707 89.5118 57.4609 89.5215C57.4609 89.5215 57.4512 89.5313 57.4512 89.5411C57.4316 89.5704 57.4219 89.5899 57.4121 89.5899C57.207 89.8536 56.9824 90.1172 56.7676 90.3711C56.582 90.586 56.3965 90.7911 56.2012 90.9961C55.9668 91.2403 55.7227 91.4844 55.4687 91.7188C55.2637 91.9043 55.0586 92.0899 54.8535 92.2559C54.8242 92.2852 54.707 92.3731 54.6387 92.4317C54.6387 92.4317 54.6289 92.4317 54.6289 92.4414C54.6289 92.4414 54.6191 92.4414 54.6191 92.4512C54.541 92.5098 54.4336 92.5879 54.3945 92.6172C54.3359 92.6563 54.2773 92.6953 54.2188 92.7344C53.8281 92.9981 53.418 93.2422 52.998 93.4571C52.9004 93.5059 52.793 93.5547 52.6855 93.6036C52.6855 93.6036 52.6758 93.6036 52.6563 93.6133C52.6855 93.6036 52.6855 93.6133 52.6172 93.6328C52.5977 93.6328 52.5879 93.6426 52.5781 93.6524C52.6074 93.6426 52.6367 93.6231 52.666 93.6133C52.627 93.6231 52.5195 93.6621 52.4902 93.6817C52.2754 93.7598 52.0703 93.8379 51.8555 93.9063C51.6309 93.9746 51.4062 94.0332 51.1816 94.0723C51.1035 94.0918 51.0156 94.1016 50.9375 94.1211C50.7324 94.0918 50.6641 94.1407 50.7422 94.1504C50.2441 94.1993 49.7559 94.1895 49.2578 94.1504C49.248 94.1504 49.2383 94.1504 49.2285 94.1504C49.1211 94.1309 49.0039 94.1114 48.8965 94.0918C48.6328 94.043 48.3691 93.9746 48.1152 93.8965C47.8906 93.8282 47.6758 93.7403 47.4512 93.6621C47.4414 93.6621 47.4414 93.6524 47.4316 93.6524C47.4219 93.6426 47.4023 93.6426 47.3828 93.6328C47.2559 93.5743 47.1289 93.5157 47.002 93.4473C46.5918 93.2422 46.1914 92.9981 45.8203 92.7442C45.752 92.6954 45.6836 92.6465 45.6152 92.5977C45.5176 92.5293 45.3906 92.461 45.3125 92.3731C45.4004 92.461 45.4395 92.5 45.4395 92.5098C45.4199 92.4903 45.2734 92.334 45.2148 92.2852C44.9707 92.0801 44.7266 91.875 44.502 91.6602C44.2773 91.4453 44.0527 91.2305 43.8379 91.0059C43.6328 90.7911 43.4277 90.5664 43.2324 90.3418C43.0176 90.0977 42.8125 89.8536 42.6172 89.5996C42.4219 89.3457 42.6172 89.5997 42.6172 89.5899C42.6172 89.5899 42.6074 89.5801 42.6074 89.5704C42.5781 89.5313 42.5195 89.4629 42.5 89.4336C42.3926 89.2871 42.2754 89.1407 42.168 88.9844C41.748 88.3985 41.3574 87.793 40.9766 87.1778C40.166 85.8301 39.4531 84.4336 38.8184 82.9981C38.7305 82.8125 38.6523 82.6172 38.5742 82.4317C38.5645 82.4121 38.5547 82.3828 38.5449 82.3536V82.3438V82.334C38.5449 82.334 38.5449 82.3243 38.5352 82.3243C38.5254 82.3047 38.5254 82.295 38.5156 82.2754C38.5156 82.2657 38.5156 82.2657 38.5059 82.2559C38.4863 82.2168 38.4766 82.1778 38.457 82.1485C38.2715 81.709 38.1055 81.2793 37.9297 80.8301C37.6074 80 37.3145 79.1602 37.0313 78.3106C36.5137 76.7481 36.0547 75.1758 35.6543 73.6036C37.7539 72.8907 39.9219 72.3243 42.1289 71.9239C49.4531 70.586 57.2754 71.1914 64.3848 73.584Z" fill="#013C1D"/>
<path d="M78.4277 81.4258C78.8086 81.7383 79.1797 82.0605 79.5508 82.3828C74.4434 87.3828 68.0469 91.0645 61.1426 92.9395C59.9707 93.2617 58.7891 93.5254 57.5879 93.7402C58.2031 93.1641 58.7793 92.5391 59.3164 91.8848C59.8145 91.2793 60.2734 90.6543 60.7129 90.0098C60.9375 89.6875 61.1523 89.3555 61.3574 89.0234C63.2129 86.0547 64.5801 82.7832 65.7031 79.4727C66.2402 77.8809 66.7187 76.2598 67.1484 74.6289C67.8125 74.9023 68.4766 75.2051 69.1309 75.5078C72.0605 76.9043 74.7656 78.5645 77.2754 80.498C77.666 80.8008 78.0566 81.1035 78.4277 81.4258Z" fill="#013C1D"/>
<path d="M64.6874 37.3433C64.6484 32.8609 62.1777 28.6129 58.2031 26.4937C57.6464 26.2008 57.0703 25.9469 56.4746 25.732C58.955 23.7691 60.5371 20.7125 60.5859 17.4605C60.5859 17.4312 60.5859 17.4117 60.5859 17.3824V17.3531C60.5468 12.8805 57.705 8.92538 53.5156 7.39217C49.4726 5.91757 44.6484 7.22616 41.914 10.5465C39.0624 14.0133 38.5839 18.9937 40.9472 22.8609C41.6406 23.9937 42.5195 24.9508 43.5253 25.7223C42.1777 26.2008 40.9277 26.9332 39.8046 27.8316C38.164 29.1598 36.9335 30.9176 36.1523 32.8707C35.498 34.5016 35.3027 36.2301 35.3027 37.9781C35.3027 39.1402 35.2929 40.2926 35.3027 41.4547C35.3124 43.066 36.4453 44.2867 38.0761 44.316C39.4238 44.3453 40.7812 44.316 42.1289 44.316H57.4999C58.9453 44.316 60.3906 44.3258 61.8359 44.316C63.4081 44.3062 64.6289 43.2027 64.6874 41.6012C64.7265 40.5269 64.6874 39.443 64.6874 38.3687V37.3433Z" fill="#013C1D"/>
<path d="M91.5527 39.7756V39.0334C91.5136 35.7815 89.746 32.6858 86.8456 31.1428C86.6503 31.0354 86.455 30.9475 86.2597 30.8498C87.7441 29.424 88.6523 27.4026 88.7011 25.2932C88.7011 25.2639 88.7011 25.2444 88.7011 25.2151V25.1955C88.7011 25.1662 88.7011 25.1369 88.7011 25.1076C88.6328 21.8459 86.582 19.0041 83.5253 17.8615C80.5664 16.758 76.9921 17.7248 74.9902 20.1565C72.9003 22.6955 72.5195 26.3381 74.248 29.1897C74.6191 29.8049 75.0781 30.3615 75.5859 30.8401C74.873 31.1721 74.1992 31.6018 73.5742 32.0901C71.3281 33.8967 70.2929 36.6213 70.2929 39.4436C70.2929 40.2541 70.2831 41.0549 70.2929 41.8654C70.3222 43.2229 71.2695 44.2483 72.6464 44.2971C73.5644 44.3264 74.4824 44.2971 75.3906 44.2971H86.1425C87.1386 44.2971 88.1445 44.3264 89.1406 44.2971C90.4687 44.258 91.4843 43.3303 91.5429 41.9729C91.582 41.2502 91.5527 40.508 91.5527 39.7756Z" fill="#013C1D"/>
<path d="M29.6972 39.0321C29.6972 38.9149 29.6972 38.7977 29.6874 38.6708C29.6874 38.6317 29.6874 38.6024 29.6777 38.5633C29.6679 38.4071 29.6581 38.2508 29.6386 38.1044C29.6386 38.0555 29.6289 38.0067 29.6191 37.9481C29.6093 37.8895 29.5996 37.8309 29.5898 37.7626C29.5703 37.6258 29.5507 37.4989 29.5214 37.3719C29.4628 37.0594 29.3847 36.7567 29.2871 36.4442C29.2773 36.3954 29.2578 36.3466 29.2382 36.2977C29.2187 36.2489 29.2089 36.2001 29.1894 36.1512C29.1699 36.1024 29.1601 36.0536 29.1406 36.0048C29.121 35.9559 29.1113 35.9071 29.0917 35.868C29.0527 35.7704 29.0136 35.6727 28.9746 35.5848C28.955 35.536 28.9355 35.4872 28.916 35.4481C28.8964 35.3993 28.8769 35.3505 28.8574 35.3114C28.8378 35.2626 28.8183 35.2235 28.789 35.1747C28.7695 35.1356 28.7499 35.0965 28.7304 35.0477C28.7206 35.0184 28.7011 34.9989 28.6914 34.9696C28.6718 34.9208 28.6425 34.8817 28.623 34.8329C28.6035 34.7938 28.5742 34.745 28.5546 34.7059C28.5351 34.6669 28.5058 34.618 28.4863 34.579C28.4863 34.579 28.4863 34.5692 28.4765 34.5692C28.457 34.5301 28.4277 34.4911 28.4081 34.4423C28.33 34.3153 28.2519 34.1883 28.1738 34.0614C27.3828 32.8505 26.3085 31.8348 24.9999 31.1415C24.9902 31.1415 24.9902 31.1317 24.9804 31.1317C24.9414 31.1122 24.9023 31.0926 24.8535 31.0633C24.8339 31.0536 24.8144 31.0438 24.7949 31.034C24.7558 31.0145 24.7167 30.995 24.6777 30.9755C24.58 30.9266 24.4824 30.8778 24.3749 30.8387C25.8691 29.413 26.7773 27.4305 26.8261 25.2919C26.8261 25.2626 26.8261 25.243 26.8261 25.2137V25.1942C26.8261 25.1649 26.8261 25.1356 26.8261 25.1063C26.7382 21.5712 24.2578 18.3387 20.7421 17.5966C17.4511 16.9032 14.0136 18.3583 12.3144 21.288C10.6249 24.2079 11.0644 27.909 13.2812 30.409C13.4081 30.5555 13.5546 30.702 13.6914 30.8387C12.8613 31.2196 12.08 31.7372 11.3964 32.3426C11.3867 32.3426 11.3867 32.3524 11.3769 32.3524C11.3476 32.3817 11.3183 32.411 11.2792 32.4305C11.2109 32.4891 11.1523 32.5477 11.0839 32.6161C11.0449 32.6551 11.0058 32.6942 10.9667 32.7333C10.9277 32.7723 10.8886 32.8212 10.8398 32.8602C10.791 32.9188 10.7324 32.9676 10.6835 33.0262C10.6249 33.0946 10.5664 33.163 10.5078 33.2216C10.4882 33.2411 10.4785 33.2508 10.4687 33.2704C10.4296 33.3192 10.3906 33.368 10.3515 33.4169C10.3222 33.4559 10.2831 33.495 10.2539 33.5438C10.2343 33.5633 10.2148 33.5926 10.205 33.6122C10.1757 33.661 10.1367 33.7001 10.1074 33.7489C10.0878 33.7782 10.0683 33.8075 10.0488 33.827C10.0097 33.8856 9.96088 33.9442 9.92182 34.0126C9.48237 34.6766 9.13081 35.3895 8.86713 36.1415C8.5644 37.0204 8.44721 37.9286 8.40815 38.8563C8.39838 39.1395 8.38862 39.4227 8.38862 39.7059V39.8426V40.0966C8.38862 40.6825 8.37885 41.2684 8.38862 41.8544C8.39838 42.5282 8.64252 43.1239 9.05268 43.5633L9.11127 43.6219L9.16987 43.6805C9.16987 43.6805 9.16987 43.6903 9.17963 43.6903C9.59955 44.0516 10.1464 44.2665 10.7714 44.286C11.0156 44.2958 11.2499 44.2958 11.4941 44.2958H12.1093C12.5683 44.2958 13.0273 44.286 13.4765 44.286H24.2285H24.7265H25.1562C25.3417 44.286 25.5371 44.286 25.7226 44.2958H26.9726C27.0605 44.2958 27.1386 44.2958 27.2265 44.286H27.2851H27.3632H27.3925C27.4414 44.286 27.4999 44.2762 27.5488 44.2665C27.5683 44.2665 27.5878 44.2567 27.6074 44.2567C27.8027 44.2274 27.998 44.1688 28.1738 44.1005C28.2421 44.0712 28.3007 44.0419 28.3691 44.0126C28.4081 43.993 28.4374 43.9735 28.4765 43.954C28.496 43.9442 28.5156 43.9344 28.5351 43.9247C28.6132 43.8758 28.6914 43.827 28.7597 43.7684C28.789 43.7489 28.8183 43.7196 28.8476 43.7001C28.8964 43.6512 28.955 43.6024 29.0039 43.5536C29.0039 43.5536 29.0039 43.5536 29.0136 43.5438C29.0624 43.495 29.1113 43.4364 29.1601 43.3778C29.3652 43.1141 29.5117 42.8016 29.5898 42.4501C29.6191 42.3329 29.6386 42.2157 29.6484 42.0887C29.6484 42.0497 29.6581 42.0106 29.6581 41.9715C29.6581 41.952 29.6581 41.9325 29.6581 41.9227C29.6581 41.8348 29.6679 41.7469 29.6679 41.6493C29.6777 41.0145 29.6581 40.3798 29.6581 39.7548V39.0321H29.6972Z" fill="#013C1D"/>
</svg>
