<svg width="80" height="80" viewBox="0 0 80 80" fill="none" xmlns="http://www.w3.org/2000/svg">
<path d="M4.01186 18.9959C3.95229 18.4511 4.12742 17.9066 4.49346 17.4986C4.85951 17.0906 5.38188 16.8576 5.93001 16.858H14.2866C14.9966 16.858 15.5722 16.2824 15.5722 15.5723C15.5722 14.8623 14.9966 14.2867 14.2866 14.2867H8.50125C7.9532 14.288 7.43048 14.0561 7.06371 13.6488C6.69695 13.2416 6.52078 12.6975 6.57925 12.1526C6.74376 11.128 7.64821 10.3881 8.6851 10.4298H16.8578C17.5678 10.4298 18.1434 9.85425 18.1434 9.14422C18.1434 8.43419 17.5678 7.8586 16.8578 7.8586H11.0725C10.5244 7.8599 10.0017 7.62794 9.63496 7.2207C9.26819 6.81346 9.09203 6.26939 9.15049 5.72446C9.31447 4.69955 10.2193 3.95937 11.2563 4.00173H30.2951C30.5295 4.00351 30.7588 4.0693 30.9585 4.192L36.1576 7.30578C36.7559 7.66452 37.4398 7.85548 38.1374 7.8586H50.284V19.2865L48.0573 17.4635C46.3863 16.1881 44.036 16.3173 42.515 17.7682C41.3855 18.8635 40.993 20.5139 41.5083 22.0004H37.1976C36.1858 22.0047 35.2162 22.4064 34.4978 23.1189L22.3988 35.1189L22.3731 35.1446L21.8383 35.6743C21.2112 36.2874 20.2071 36.2805 19.5885 35.6589C19.0238 35.092 18.9687 34.1937 19.4599 33.562L22.9954 29.2424C23.3097 28.8579 23.3745 28.3267 23.1618 27.8779C22.9491 27.4291 22.4969 27.143 22.0003 27.1429H7.39947C6.36425 27.1834 5.46188 26.4444 5.29748 25.4215C5.2387 24.877 5.41418 24.3332 5.78014 23.9258C6.14609 23.5184 6.668 23.2858 7.21563 23.2861H14.2866C14.9966 23.2861 15.5722 22.7105 15.5722 22.0004C15.5722 21.2904 14.9966 20.7148 14.2866 20.7148H6.11385C5.07966 20.7549 4.17795 20.0175 4.01186 18.9959ZM25.4098 74.7007C24.8685 74.7591 24.328 74.5832 23.9249 74.2173C23.5198 73.85 23.2879 73.3293 23.2859 72.7825V72.7632V65.7116C23.2859 65.0016 22.7103 64.426 22.0003 64.426C21.2903 64.426 20.7147 65.0016 20.7147 65.7116V72.7825V72.8005V73.8869C20.75 74.9257 20.0047 75.8277 18.9778 75.9889C18.4376 76.0477 17.8982 75.8716 17.4968 75.5055C17.0908 75.1378 16.8588 74.6159 16.8578 74.0681V71.4969V71.4712V65.7116C16.8578 65.0016 16.2822 64.426 15.5722 64.426C14.8621 64.426 14.2866 65.0016 14.2866 65.7116V71.4969V71.5123C14.2831 72.0575 14.0491 72.5757 13.6425 72.9388C13.2358 73.3018 12.6945 73.4758 12.1524 73.4176C11.128 73.2537 10.388 72.3497 10.4297 71.3131V68.9257V68.9064V63.1404C10.4297 62.4303 9.85409 61.8547 9.14406 61.8547C8.43403 61.8547 7.85844 62.4303 7.85844 63.1404V68.9257V68.9372C7.85606 69.4828 7.6227 70.0018 7.2162 70.3657C6.80969 70.7296 6.26809 70.9042 5.72559 70.8464C4.70149 70.6826 3.96122 69.7794 4.00157 68.7431V49.7043C4.00355 49.4727 4.06415 49.2454 4.1777 49.0435L7.30562 43.8419C7.66362 43.2437 7.85453 42.5604 7.85844 41.8633V29.7142H19.2851L17.4608 31.9422C16.2846 33.3727 16.201 35.4101 17.2559 36.9323C18.3108 38.4544 20.2479 39.0914 22.0003 38.4924V42.8018C22.0045 43.8136 22.4062 44.7832 23.1188 45.5016L35.1085 57.5865C35.1226 57.6019 35.1368 57.616 35.1522 57.6302L35.6754 58.1573C36.1259 58.6158 36.2569 59.3 36.0077 59.8925C35.7585 60.485 35.1779 60.8699 34.5351 60.8687C34.1852 60.8702 33.8452 60.7528 33.5709 60.5357L29.2525 57.0015C28.8681 56.6805 28.3322 56.6119 27.8793 56.8258C27.4265 57.0396 27.139 57.497 27.1428 57.9979V72.5987C27.1783 73.6363 26.4351 74.5378 25.4098 74.7007ZM75.9861 61.0024C76.0457 61.5473 75.8706 62.0917 75.5045 62.4997C75.1385 62.9077 74.6161 63.1407 74.068 63.1404H65.7114C65.0014 63.1404 64.4258 63.716 64.4258 64.426C64.4258 65.136 65.0014 65.7116 65.7114 65.7116H71.4967C72.0448 65.7103 72.5675 65.9423 72.9343 66.3495C73.301 66.7567 73.4772 67.3008 73.4188 67.8457C73.2542 68.8703 72.3498 69.6102 71.3129 69.5685H63.1402C62.4302 69.5685 61.8546 70.1441 61.8546 70.8541C61.8546 71.5641 62.4302 72.1397 63.1402 72.1397H68.9255C69.4736 72.1384 69.9963 72.3704 70.363 72.7776C70.7298 73.1849 70.906 73.7289 70.8475 74.2738C70.6835 75.2988 69.7787 76.0389 68.7417 75.9966H49.7029C49.4685 75.9948 49.2392 75.929 49.0395 75.8063L43.8404 72.6925C43.2421 72.3338 42.5582 72.1428 41.8606 72.1397H29.714V60.7092L31.9407 62.5323C33.6101 63.8126 35.964 63.6832 37.483 62.2276C38.6128 61.1336 39.0068 59.4844 38.4935 57.9979H42.8004C43.8122 57.9936 44.7818 57.5919 45.5002 56.8794L57.5953 44.8845L57.6403 44.8408L58.1636 44.3266C58.7907 43.7135 59.7947 43.7203 60.4134 44.342C60.9781 44.9089 61.0331 45.8072 60.542 46.4388L57.0065 50.7585C56.6942 51.1425 56.63 51.6717 56.8415 52.1192C57.0531 52.5667 57.5027 52.853 57.9977 52.8554H72.5985C73.6337 52.8149 74.5361 53.5539 74.7005 54.5768C74.7593 55.1213 74.5838 55.6651 74.2179 56.0725C73.8519 56.4799 73.33 56.7125 72.7824 56.7122H65.7114C65.0014 56.7122 64.4258 57.2878 64.4258 57.9979C64.4258 58.7079 65.0014 59.2835 65.7114 59.2835H73.888C74.9207 59.2454 75.8202 59.9823 75.9861 61.0024ZM75.9964 30.294C75.9945 30.5281 75.9292 30.7574 75.8074 30.9574L72.6924 36.1564C72.3338 36.7544 72.1428 37.4378 72.1396 38.135V50.2841H60.7091L62.5334 48.0562C63.8576 46.4011 63.7253 44.0149 62.2261 42.5164C61.1031 41.4388 59.4791 41.0645 57.9977 41.5419V37.1965C57.9935 36.1847 57.5918 35.2151 56.8792 34.4967L44.8844 22.3938L44.8599 22.3694L44.329 21.8346C44.0278 21.5371 43.8595 21.1305 43.8624 20.7071C43.8653 20.2837 44.0391 19.8794 44.3444 19.586C44.9191 19.0378 45.8052 18.9835 46.4425 19.4575L50.7609 22.9917C51.145 23.3024 51.6731 23.3656 52.1196 23.1543C52.5661 22.9429 52.8521 22.4944 52.8552 22.0004V7.39963C52.8155 6.36419 53.5549 5.46199 54.578 5.29764C55.1222 5.23925 55.6656 5.41491 56.0728 5.78082C56.4799 6.14672 56.7123 6.6684 56.7121 7.21579V14.2867C56.7121 14.9967 57.2877 15.5723 57.9977 15.5723C58.7077 15.5723 59.2833 14.9967 59.2833 14.2867V6.11401C59.243 5.07837 59.9827 4.17583 61.0061 4.01201C61.5503 3.95363 62.0938 4.12929 62.5009 4.49519C62.908 4.8611 63.1404 5.38278 63.1402 5.93016V14.2867C63.1402 14.9967 63.7158 15.5723 64.4258 15.5723C65.1359 15.5723 65.7114 14.9967 65.7114 14.2867V8.50141C65.7105 7.95358 65.9426 7.43121 66.3498 7.06473C66.757 6.69825 67.3009 6.52225 67.8456 6.58069C68.87 6.74462 69.61 7.64865 69.5683 8.68525V16.858C69.5683 17.568 70.1439 18.1436 70.8539 18.1436C71.564 18.1436 72.1396 17.568 72.1396 16.858V11.0727C72.1386 10.5248 72.3707 10.0024 72.7779 9.63597C73.1851 9.26949 73.729 9.0935 74.2737 9.15193C75.2973 9.31634 76.0369 10.2193 75.9964 11.2552V30.294Z" fill="#66170E"/>
</svg>
