<svg width="50" height="50" viewBox="0 0 50 50" fill="none" xmlns="http://www.w3.org/2000/svg">
<path d="M37.2803 21.9393L29.4905 24.7442C26.0556 25.9541 22.3257 25.9541 18.9408 24.7442L11.146 21.9393L10.906 24.5492C10.616 27.9891 12.116 31.229 14.3909 32.054C18.4558 33.469 22.7357 33.984 26.9556 33.599C28.0456 28.5841 32.2804 24.7242 37.4853 24.1942L37.2803 21.9393ZM46.96 11.9695C46.6701 11.3395 46.1351 10.8546 45.4601 10.6646L28.3256 4.51477C25.6656 3.54977 22.7607 3.54977 20.1008 4.51477L2.97121 10.7095C2.34123 10.9046 1.76126 11.3896 1.47125 12.0196C1.17625 12.6446 1.17625 13.3745 1.47125 13.9995C1.76126 14.6295 2.29124 15.1145 2.97121 15.3095L6.50112 16.5644C5.34115 17.6794 4.66117 19.1794 4.66117 20.7794V33.119V33.214C4.27617 33.309 3.93619 33.504 3.64618 33.794C3.35621 34.0839 3.16121 34.4239 3.06621 34.8089L2.34123 37.8139C2.05123 38.9238 2.29124 40.0388 2.97121 40.9088C3.64618 41.7788 4.66117 42.3138 5.77613 42.3138C6.84111 42.3138 7.90608 41.7788 8.58105 40.9088C9.31104 40.0388 9.55103 38.8738 9.26106 37.8139L8.53607 34.8089C8.43607 34.4239 8.24607 34.0839 7.95607 33.794C7.66109 33.504 7.32611 33.309 6.93611 33.214C6.93611 33.164 6.93611 33.164 6.93611 33.119V20.8243C6.93611 20.0993 7.18109 19.4193 7.56609 18.8393C8.00108 18.2594 8.53607 17.8243 9.21104 17.5844L20.3407 13.3745C16.4209 15.5994 11.341 18.3594 11.341 18.3594L20.1008 21.5043C22.7607 22.4692 25.6656 22.4692 28.3256 21.5043L45.4601 15.3095C46.1351 15.1145 46.6701 14.6295 46.96 13.9545C47.25 13.3245 47.25 12.5995 46.96 11.9695Z" fill="#013C1D"/>
<path d="M38.7132 26.1348C33.1721 26.1348 28.6763 30.6257 28.6763 36.1717C28.6763 41.7128 33.1721 46.2086 38.7132 46.2086C44.2592 46.2086 48.7501 41.7128 48.7501 36.1717C48.7501 30.6257 44.2592 26.1348 38.7132 26.1348ZM37.7308 41.4757L32.572 36.2249L33.8883 35.1603L36.8791 37.5025C38.0938 36.0555 40.8087 33.1567 44.5447 30.8677L44.8592 31.6081C41.4281 34.7634 38.6116 39.1963 37.7308 41.4757Z" fill="#013C1D"/>
</svg>
