<svg width="100" height="100" viewBox="0 0 100 100" fill="none" xmlns="http://www.w3.org/2000/svg">
<g clip-path="url(#clip0_194_143)">
<path d="M60.7813 68.6701C60.7813 68.3231 60.6594 67.9758 60.4166 67.6288C58.472 65.3015 56.9099 63.305 55.7289 61.6395C56.458 60.216 57.0137 58.8963 57.3946 57.6821L65.4678 56.4322C65.7812 56.3968 66.059 56.2151 66.3018 55.886C66.5446 55.5547 66.665 55.2168 66.665 54.8697V45.2337C66.665 44.8522 66.5446 44.5133 66.3018 44.2186C66.059 43.924 65.7637 43.7411 65.4165 43.6727L57.4993 42.4747C57.1166 41.2938 56.5268 39.8695 55.7283 38.2036C56.2484 37.4392 57.0306 36.3972 58.0725 35.0785C59.1139 33.7588 59.8444 32.8217 60.2599 32.266C60.5035 31.9189 60.6246 31.5887 60.6246 31.2765C60.6246 30.3389 58.1243 27.5611 53.1257 22.9428C52.7787 22.6656 52.414 22.5267 52.0307 22.5267C51.615 22.5267 51.2679 22.647 50.9887 22.891L44.8427 27.5264C43.4196 26.7975 42.1174 26.2595 40.9368 25.9113L39.7388 17.943C39.7047 17.5958 39.5308 17.2915 39.2183 17.0314C38.9057 16.7711 38.5585 16.6406 38.1762 16.6406H28.4894C27.6909 16.6406 27.1701 17.0573 26.9271 17.8904C26.5101 19.4879 26.1111 22.1621 25.7292 25.9113C24.2364 26.3972 22.8996 26.9529 21.7191 27.5779L15.7297 22.8909C15.3826 22.6473 15.0181 22.5266 14.6359 22.5266C13.9754 22.5266 12.6041 23.5507 10.521 25.5997C8.4375 27.6479 7.01313 29.1931 6.24986 30.2349C6.00651 30.5131 5.88556 30.8603 5.88556 31.2769C5.88556 31.589 6.00633 31.9362 6.24986 32.3182C8.19396 34.6452 9.75624 36.6416 10.9371 38.3075C10.2081 39.7319 9.65281 41.0507 9.27118 42.2658L1.19798 43.515C0.885124 43.5497 0.607656 43.7318 0.364302 44.061C0.121495 44.3916 0 44.7296 0 45.0766V54.7121C0 55.0943 0.121495 55.4325 0.364302 55.7271C0.607656 56.023 0.902454 56.1877 1.25034 56.2222L9.16683 57.4722C9.58349 58.7911 10.1917 60.2153 10.9902 61.7429C10.4345 62.5074 9.61888 63.567 8.54239 64.9204C7.46518 66.2752 6.75372 67.1954 6.40675 67.681C6.16376 68.0281 6.04208 68.3591 6.04208 68.6699C6.04208 69.6089 8.54239 72.3857 13.5423 77.0043C13.8894 77.2814 14.2536 77.4194 14.6361 77.4194C15.0874 77.4194 15.4346 77.299 15.6774 77.0554L21.8231 72.4207C23.2462 73.1499 24.5483 73.6873 25.7293 74.0347L26.9273 82.0037C26.9616 82.3507 27.1356 82.6553 27.4478 82.9151C27.7603 83.1754 28.1074 83.3053 28.4896 83.3053H38.1763C38.9754 83.3053 39.4958 82.889 39.739 82.0555C40.1556 80.423 40.5546 77.7324 40.937 73.9821C42.3254 73.5671 43.662 73.0271 44.947 72.3684L50.9366 77.0554C51.2837 77.299 51.6482 77.4194 52.0304 77.4194C52.6902 77.4194 54.0537 76.3868 56.1194 74.3198C58.1845 72.2553 59.6174 70.7001 60.4164 69.6588C60.6594 69.4166 60.7813 69.0871 60.7813 68.6701ZM42.7598 59.4007C40.1562 62.0039 37.0136 63.3061 33.3333 63.3061C29.6522 63.3061 26.5096 62.0038 23.906 59.4007C21.3021 56.7963 19.9999 53.6535 19.9999 49.9731C19.9999 46.2928 21.3021 43.1502 23.906 40.5463C26.5096 37.9422 29.6524 36.6404 33.3333 36.6404C37.0136 36.6404 40.1562 37.942 42.7598 40.5463C45.3642 43.1502 46.666 46.2928 46.666 49.9731C46.666 53.6535 45.3644 56.7963 42.7598 59.4007Z" fill="#013C1D"/>
<path d="M92.2391 71.3805C91.7883 70.374 91.267 69.4714 90.6772 68.6722C92.4483 64.7479 93.3329 62.3519 93.3329 61.4843C93.3329 61.3469 93.2649 61.2245 93.1249 61.1204C88.9573 58.6901 86.8052 57.4746 86.6662 57.4746L86.3541 57.5793C84.9306 59.0035 83.3326 60.9474 81.5625 63.4127C80.8684 63.3436 80.3483 63.308 80.0011 63.308C79.6529 63.308 79.1328 63.3436 78.438 63.4127C77.9536 62.683 77.0497 61.5106 75.7304 59.8968C74.4115 58.2831 73.6123 57.4748 73.3344 57.4748C73.2651 57.4748 72.7445 57.7524 71.7718 58.3094C70.7998 58.865 69.7755 59.4543 68.699 60.0805C67.6216 60.7068 67.0154 61.0525 66.8763 61.1224C66.7363 61.226 66.6676 61.3484 66.6676 61.4858C66.6676 62.3548 67.5529 64.749 69.3235 68.6736C68.7342 69.4728 68.2127 70.3755 67.7616 71.3812C62.5875 71.9013 60.0005 72.4402 60.0005 72.9957V80.2868C60.0005 80.8425 62.5875 81.3806 67.7616 81.9012C68.1773 82.8391 68.6987 83.7417 69.3235 84.6082C67.5529 88.5326 66.6676 90.9285 66.6676 91.7961C66.6676 91.9348 66.7363 92.0572 66.8763 92.1608C71.1114 94.6261 73.2651 95.8585 73.3344 95.8585C73.6121 95.8585 74.4113 95.0426 75.7304 93.4106C77.0495 91.7783 77.9523 90.5989 78.438 89.8697C79.1323 89.9378 79.6529 89.9726 80.0011 89.9726C80.3481 89.9726 80.8684 89.9378 81.5625 89.8697C82.0476 90.5989 82.951 91.7783 84.2701 93.4106C85.5892 95.0426 86.3876 95.8585 86.6662 95.8585C86.7355 95.8585 88.8894 94.6255 93.1249 92.1608C93.2649 92.0572 93.3329 91.9355 93.3329 91.7961C93.3329 90.9283 92.4472 88.5324 90.6772 84.6082C91.3022 83.7417 91.8226 82.8391 92.2391 81.9012C97.413 81.3806 100 80.8425 100 80.2868V72.9957C100 72.44 97.413 71.9011 92.2391 71.3805ZM84.7126 81.354C83.4123 82.6563 81.8404 83.3087 79.9999 83.3087C78.1588 83.3087 76.5876 82.6563 75.2866 81.354C73.9842 80.0516 73.3324 78.4812 73.3324 76.6407C73.3324 74.8358 73.993 73.272 75.3127 71.9536C76.6316 70.6345 78.1944 69.9745 79.9997 69.9745C81.8046 69.9745 83.3683 70.6338 84.688 71.9536C86.0066 73.2722 86.6671 74.8359 86.6671 76.6407C86.666 78.4812 86.0155 80.0516 84.7126 81.354Z" fill="#013C1D"/>
<path d="M92.2391 18.0467C91.7883 17.0397 91.267 16.137 90.6772 15.3378C92.4483 11.4148 93.3329 9.01884 93.3329 8.15086C93.3329 8.01259 93.2649 7.89054 93.1249 7.7862C88.9573 5.35575 86.8052 4.14062 86.6662 4.14062L86.3541 4.24461C84.9306 5.66898 83.3326 7.61289 81.5625 10.078C80.8684 10.009 80.3483 9.97401 80.0011 9.97401C79.6529 9.97401 79.1328 10.009 78.438 10.078C77.9536 9.34884 77.0497 8.17713 75.7304 6.56268C74.4115 4.94785 73.6123 4.14081 73.3344 4.14081C73.2651 4.14081 72.7445 4.41828 71.7718 4.9743C70.7998 5.53052 69.7755 6.12048 68.699 6.74565C67.6216 7.371 67.0154 7.71797 66.8763 7.78693C66.7363 7.89109 66.6676 8.01258 66.6676 8.15159C66.6676 9.01957 67.5529 11.4157 69.3235 15.3389C68.7342 16.138 68.2127 17.0404 67.7616 18.0474C62.5875 18.5678 60.0005 19.1058 60.0005 19.6615V26.9532C60.0005 27.5085 62.5875 28.047 67.7616 28.5673C68.1773 29.5044 68.6987 30.4076 69.3235 31.2757C67.5529 35.1997 66.6676 37.5947 66.6676 38.4631C66.6676 38.6012 66.7363 38.7232 66.8763 38.8274C71.1114 41.2925 73.2651 42.5251 73.3344 42.5251C73.6121 42.5251 74.4113 41.7095 75.7304 40.0773C77.0495 38.4452 77.9523 37.2653 78.438 36.5358C79.1323 36.6047 79.6529 36.6399 80.0011 36.6399C80.3481 36.6399 80.8684 36.6047 81.5625 36.5358C82.0476 37.2653 82.951 38.445 84.2701 40.0773C85.5892 41.7095 86.3876 42.5251 86.6662 42.5251C86.7355 42.5251 88.8894 41.2925 93.1249 38.8274C93.2649 38.7232 93.3329 38.6017 93.3329 38.4631C93.3329 37.5947 92.4472 35.1997 90.6772 31.2757C91.3022 30.4076 91.8226 29.5049 92.2391 28.5673C97.413 28.0468 100 27.5085 100 26.9532V19.6615C100 19.1058 97.413 18.5677 92.2391 18.0467ZM84.7126 28.0205C83.4123 29.3229 81.8404 29.9739 79.9999 29.9739C78.1588 29.9739 76.5876 29.3229 75.2866 28.0205C73.9842 26.7189 73.3324 25.1475 73.3324 23.3072C73.3324 21.5018 73.993 19.939 75.3127 18.6195C76.6316 17.3 78.1944 16.6402 79.9997 16.6402C81.8046 16.6402 83.3683 17.3007 84.688 18.6195C86.0066 19.9388 86.6671 21.5018 86.6671 23.3072C86.666 25.1475 86.0155 26.7189 84.7126 28.0205Z" fill="#013C1D"/>
</g>
<defs>
<clipPath id="clip0_194_143">
<rect width="100" height="100" fill="white"/>
</clipPath>
</defs>
</svg>
