<svg width="100" height="100" viewBox="0 0 100 100" fill="none" xmlns="http://www.w3.org/2000/svg">
<g clip-path="url(#clip0_194_165)">
<mask id="mask0_194_165" style="mask-type:luminance" maskUnits="userSpaceOnUse" x="0" y="0" width="100" height="100">
<path d="M83.6238 48.0769H68.2392L48.8733 67.4429L32.5571 51.1267L51.9231 31.7608V16.3762L68.2992 0H0V100H100V31.7008L83.6238 48.0769Z" fill="white"/>
</mask>
<g mask="url(#mask0_194_165)">
<path d="M42.3077 19.2305C54.4823 19.2305 65.3547 24.9176 72.4072 33.7745C77.6393 40.3451 80.7693 48.6601 80.7693 57.692C80.7693 78.8984 63.5141 96.1535 42.3077 96.1535C31.7045 96.1535 22.0891 91.8397 15.1245 84.8753C8.15985 77.9109 3.84619 68.2953 3.84619 57.692C3.84619 36.4857 21.1014 19.2305 42.3077 19.2305Z" stroke="#66170E" stroke-width="8" stroke-miterlimit="10"/>
</g>
<mask id="mask1_194_165" style="mask-type:luminance" maskUnits="userSpaceOnUse" x="0" y="0" width="100" height="100">
<path d="M83.6238 48.0769H68.2392L48.8733 67.4429L32.5571 51.1267L51.9231 31.7608V16.3762L68.2992 0H0V100H100V31.7008L83.6238 48.0769Z" fill="white"/>
</mask>
<g mask="url(#mask1_194_165)">
<path d="M42.3079 80.7691C55.0529 80.7691 65.3848 70.4372 65.3848 57.6922C65.3848 44.9471 55.0529 34.6152 42.3079 34.6152C29.5628 34.6152 19.231 44.9471 19.231 57.6922C19.231 70.4372 29.5628 80.7691 42.3079 80.7691Z" stroke="#66170E" stroke-width="8" stroke-miterlimit="10"/>
</g>
<path d="M46.1538 53.8468L63.4615 36.5391" stroke="#66170E" stroke-width="8" stroke-miterlimit="10"/>
<path d="M42.3075 65.3846C46.5559 65.3846 49.9999 61.9407 49.9999 57.6923C49.9999 53.444 46.5559 50 42.3075 50C38.0592 50 34.6152 53.444 34.6152 57.6923C34.6152 61.9407 38.0592 65.3846 42.3075 65.3846Z" stroke="#66170E" stroke-width="8" stroke-miterlimit="10"/>
<path d="M75.1922 9.42383L63.4614 21.1546V36.5392H78.846L90.5768 24.8084L77.4999 22.5008L75.1922 9.42383Z" stroke="#66170E" stroke-width="8" stroke-miterlimit="10"/>
</g>
<defs>
<clipPath id="clip0_194_165">
<rect width="100" height="100" fill="white"/>
</clipPath>
</defs>
</svg>
