<svg width="50" height="50" viewBox="0 0 50 50" fill="none" xmlns="http://www.w3.org/2000/svg">
<path fill-rule="evenodd" clip-rule="evenodd" d="M20.8333 36.7183V48.4376H23.9583V36.9922C22.9635 36.8844 21.9219 36.7933 20.8333 36.7183ZM15.625 48.4376H18.75V36.598C17.75 36.5506 16.7083 36.5152 15.625 36.4917V48.4376ZM39.1458 34.7256C40.5156 35.3605 41.8646 36.0641 43.2396 36.8381C43.7396 37.1199 44.375 36.9423 44.6562 36.4412C44.9375 35.9402 44.7604 35.3042 44.2604 35.0225C42.8385 34.2214 41.4375 33.4928 40.0209 32.8355C39.5 32.5938 38.8802 32.8209 38.6406 33.3423C38.3958 33.8636 38.625 34.4834 39.1458 34.7256ZM31.0052 31.886C32.6406 32.2777 34.1666 32.7391 35.6302 33.2709C36.1718 33.4673 36.7708 33.1876 36.9635 32.6475C37.1614 32.1068 36.8802 31.5089 36.3386 31.3126C34.8021 30.7547 33.2031 30.2709 31.4948 29.86C30.9323 29.7261 30.3698 30.0709 30.2396 30.6297C30.1042 31.1886 30.4479 31.7516 31.0052 31.886ZM44.7917 17.5172V16.1459C44.7917 15.9475 44.625 15.7928 44.4167 15.6141C44.0156 15.2626 43.4218 14.9469 42.6823 14.6542C40.1666 13.6542 36.0937 13.0209 31.5104 13.0209C29.5729 13.0209 27.724 13.1355 26.0417 13.3438V15.412C27.7292 15.2136 29.5781 15.1042 31.5104 15.1042C37.2708 15.1042 42.2604 16.098 44.7447 17.4902C44.7604 17.499 44.776 17.5084 44.7917 17.5172ZM7.29167 46.3542H2.08333V4.11622C8.72917 6.58549 15.651 8.20058 23.9583 8.32558V18.2292V22.8704C19.651 22.4219 14.5833 22.2688 8.31248 22.3959C7.74477 22.4079 7.29167 22.8704 7.29167 23.4376V28.1251H8.32291C15.1719 27.986 20.5833 28.1844 25.125 28.736C25.6979 28.8053 26.1042 29.3251 26.0365 29.8959C25.9635 30.4667 25.4479 30.8735 24.875 30.8042C20.4063 30.262 15.0886 30.0714 8.35419 30.2084H7.29167V46.3542ZM1.04167 48.4376H13.5417V35.4318C13.5417 35.1532 13.6563 34.886 13.8542 34.6902C14.0521 34.4943 14.3177 34.3865 14.599 34.3902C18.6146 34.4459 22.0677 34.6574 25.125 35.0292C25.6458 35.0928 26.0417 35.5365 26.0417 36.0631V48.4376H30.2083V37.1657C30.2083 36.5907 30.6771 36.124 31.25 36.124C31.8229 36.124 32.2917 36.5907 32.2917 37.1657V48.4376H34.375V38.3829C34.375 37.8079 34.8437 37.3412 35.4167 37.3412C35.9896 37.3412 36.4583 37.8079 36.4583 38.3829V48.4376H38.5417V40.0735C38.5417 39.4985 39.0104 39.0318 39.5833 39.0318C40.1562 39.0318 40.625 39.4985 40.625 40.0735V48.4376H42.7083V42.223C42.7083 41.648 43.1771 41.1813 43.75 41.1813C44.3229 41.1813 44.7917 41.648 44.7917 42.223V48.4376H48.9583C49.5365 48.4376 50 47.9714 50 47.3959V33.3334C50 32.9751 49.8177 32.6423 49.5157 32.4516C41.6042 27.4782 35.8229 24.4355 26.0417 23.1183V21.0048C33.8125 22.0058 39.125 24.0407 44.7917 27.1938V23.1037C46.1927 22.286 46.875 21.2673 46.875 20.3126V16.1459C46.875 15.1678 46.1927 14.136 44.7447 13.3235C42.2604 11.9313 37.2708 10.9376 31.5104 10.9376C29.5781 10.9376 27.7292 11.0469 26.0417 11.2454V7.29173C26.0417 6.71621 25.5781 6.25006 25 6.25006C15.9115 6.25006 8.55207 4.42454 1.42186 1.63391C1.09895 1.50891 0.739644 1.54954 0.453186 1.74381C0.171936 1.93808 0 2.25996 0 2.60423V47.3959C0 47.9714 0.463542 48.4376 1.04167 48.4376Z" fill="white"/>
</svg>
