<svg width="50" height="50" viewBox="0 0 50 50" fill="none" xmlns="http://www.w3.org/2000/svg">
<g clip-path="url(#clip0_186_37)">
<path d="M36.7188 47.0703H35.2539V43.9453H14.7461V47.0703H13.2812C12.4716 47.0703 11.8164 47.7255 11.8164 48.5352C11.8164 49.3448 12.4716 50 13.2812 50H36.7188C37.5284 50 38.1836 49.3448 38.1836 48.5352C38.1836 47.7255 37.5284 47.0703 36.7188 47.0703Z" fill="#013C1D"/>
<path d="M25.2076 11.7488L25.0002 11.334L24.8014 11.7316C24.4404 12.4748 23.7097 12.533 23.6999 12.5428L23.2393 12.6114L23.5554 12.9232C23.9022 13.2536 24.0731 13.7519 23.9846 14.2394L23.9116 14.6813L24.325 14.4668C24.7399 14.2509 25.2472 14.244 25.6754 14.4668L26.0888 14.6813L26.013 14.2222C25.9343 13.7516 26.0902 13.2723 26.4293 12.939L26.7611 12.6114L26.3005 12.5428C25.8284 12.4712 25.4208 12.1751 25.2076 11.7488Z" fill="#013C1D"/>
<path d="M48.5352 2.92969H41.0821C41.0943 2.44258 41.1133 1.96055 41.1133 1.46484C41.1133 0.655176 40.4581 0 39.6484 0H10.3516C9.54189 0 8.88672 0.655176 8.88672 1.46484C8.88672 1.96055 8.90566 2.44277 8.91787 2.92969H1.46484C0.655176 2.92969 0 3.58486 0 4.39453V8.10527C0 16.2831 6.5498 22.9261 14.6226 23.3558C16.3061 25.6714 18.3107 27.3905 20.5798 28.367C20.247 35.0511 16.7006 39.6806 15.5533 41.0155H34.4443C33.2975 39.6898 29.7518 35.0879 29.4189 28.367C31.6887 27.3908 33.6942 25.6718 35.3779 23.3558C43.4502 22.9259 50 16.283 50 8.10527V4.39453C50 3.58486 49.3448 2.92969 48.5352 2.92969ZM2.92969 8.10527V5.85938H9.06377C9.50078 11.4403 10.7705 16.3332 12.7112 20.1863C7.17939 18.9407 2.92969 14.0081 2.92969 8.10527ZM30.9052 12.6414L29.027 14.491L29.459 17.0917C29.5506 17.6396 29.3245 18.1918 28.8753 18.5165C28.4247 18.8437 27.8324 18.8874 27.339 18.6324L25 17.4179L22.6611 18.6324C22.1662 18.8842 21.5739 18.8427 21.1248 18.5165C20.6756 18.1918 20.4496 17.6396 20.5411 17.0917L20.9731 14.491L19.0949 12.6414C18.6919 12.2444 18.5623 11.6586 18.7302 11.1451C18.9019 10.6187 19.3567 10.2324 19.9061 10.1495L22.5124 9.75752L23.6897 7.40146C24.1847 6.40869 25.8155 6.40869 26.3104 7.40146L27.4878 9.75752L30.0941 10.1495C30.6435 10.2325 31.0983 10.6187 31.27 11.1451C31.4416 11.6729 31.3 12.2523 30.9052 12.6414ZM47.0703 8.10527C47.0703 14.0079 42.8206 18.9405 37.289 20.1861C39.2295 16.333 40.4994 11.4405 40.9362 5.85938H47.0703V8.10527Z" fill="#013C1D"/>
</g>
<defs>
<clipPath id="clip0_186_37">
<rect width="50" height="50" fill="white"/>
</clipPath>
</defs>
</svg>
