<svg width="50" height="50" viewBox="0 0 50 50" fill="none" xmlns="http://www.w3.org/2000/svg">
<path d="M37.6758 19.3066H38.0664C38.0664 14.5312 41.9531 10.6445 46.7285 10.6445V10.2539C41.9531 10.2539 38.0664 6.36719 38.0664 1.5918H37.6758C37.6758 6.36719 33.7891 10.2539 29.0137 10.2539V10.6445C33.7891 10.6445 37.6758 14.5312 37.6758 19.3066Z" fill="#242424"/>
<path d="M38.0664 30.6934H37.6758C37.6758 35.4688 33.7891 39.3555 29.0137 39.3555V39.7461C33.7891 39.7461 37.6758 43.6328 37.6758 48.4082H38.0664C38.0664 43.6328 41.9531 39.7461 46.7285 39.7461V39.3555C41.9531 39.3555 38.0664 35.4688 38.0664 30.6934Z" fill="#242424"/>
<path d="M40.0195 25.3027V24.9121H39.9316C29.9512 24.9121 21.8359 16.7969 21.8359 6.81641V6.72852H21.4453V6.81641C21.4453 16.7969 13.3301 24.9121 3.34961 24.9121H3.26172V25.3027H3.34961C13.3301 25.3027 21.4453 33.418 21.4453 43.3984V43.4863H21.8359V43.3984C21.8359 33.418 29.9512 25.3027 39.9316 25.3027H40.0195Z" fill="#242424"/>
</svg>
