<svg width="50" height="50" viewBox="0 0 50 50" fill="none" xmlns="http://www.w3.org/2000/svg">
<path fill-rule="evenodd" clip-rule="evenodd" d="M16.0035 11.3221L25.1061 6.06671L25.0365 5.9461C24.7397 5.43204 24.9174 4.76866 25.4315 4.47188C25.9456 4.1751 26.6089 4.35284 26.9057 4.8669L30.7749 11.5685C31.0716 12.0826 30.8939 12.7459 30.3798 13.0428C29.8658 13.3395 29.2024 13.1617 28.9056 12.6478L28.836 12.5273L27.9756 13.0239L16.0034 11.3222L16.0035 11.3221ZM6.66617 25.327L26.0598 14.13L16.337 12.748L16.6039 13.2102C16.7926 13.536 16.6814 13.9533 16.3555 14.1421C16.0296 14.3309 15.6124 14.2196 15.4236 13.8938L14.6212 12.504L14.0876 12.4281L13.1743 12.9554L14.142 14.6315C14.3307 14.9573 14.2195 15.3746 13.8936 15.5634C13.5677 15.7522 13.1504 15.6409 12.9617 15.315L11.9931 13.6374L10.7113 14.3774L11.68 16.0555C11.8673 16.3814 11.7549 16.7975 11.4291 16.9848C11.1032 17.1721 10.6871 17.0597 10.4998 16.7338L9.53238 15.0581L8.25064 15.7982L9.21832 17.4742C9.40709 17.8001 9.29586 18.2174 8.96998 18.4062C8.6441 18.5949 8.22681 18.4837 8.03804 18.1578L7.06949 16.4802L5.78883 17.2195L6.7565 18.8956C6.94527 19.2215 6.83404 19.6388 6.50816 19.8275C6.18228 20.0163 5.765 19.9051 5.57623 19.5792L4.60767 17.9016L3.32584 18.6416L4.29468 20.3196C4.48199 20.6455 4.36959 21.0616 4.04371 21.2489C3.71783 21.4362 3.30172 21.3238 3.11441 20.998L2.20377 19.4206C1.01011 20.5825 0.702302 22.4571 1.57105 23.9617C2.59683 25.7384 4.88951 26.3527 6.66617 25.327ZM48.5745 42.9168C47.9884 44.1352 46.8309 44.8629 45.4789 44.8629H26.7045C25.3526 44.8629 24.195 44.1352 23.6089 42.9168C23.0229 41.6984 23.177 40.3398 24.021 39.2836L28.9076 33.168H43.2757L48.1624 39.2836C49.0063 40.3398 49.1604 41.6984 48.5745 42.9168ZM33.2669 38.8745C33.2669 38.497 32.9608 38.1909 32.5833 38.1909H32.1231V37.7308C32.1231 37.3532 31.817 37.0472 31.4395 37.0472C31.062 37.0472 30.7559 37.3532 30.7559 37.7308V38.1909H30.2958C29.9182 38.1909 29.6122 38.497 29.6122 38.8745C29.6122 39.2521 29.9182 39.5581 30.2958 39.5581H30.7559V40.0183C30.7559 40.3958 31.062 40.7019 31.4395 40.7019C31.817 40.7019 32.1231 40.3958 32.1231 40.0183V39.5581H32.5833C32.9608 39.5581 33.2669 39.2521 33.2669 38.8745ZM39.2246 35.8828C39.2246 34.9203 38.4443 34.1399 37.4817 34.1399C36.5191 34.1399 35.7388 34.9202 35.7388 35.8828C35.7388 36.8454 36.5191 37.6257 37.4817 37.6257C38.4443 37.6257 39.2246 36.8454 39.2246 35.8828ZM44.3271 40.5754C44.3271 39.9195 43.7954 39.3878 43.1395 39.3878C42.4836 39.3878 41.9519 39.9195 41.9519 40.5754C41.9519 41.2313 42.4836 41.763 43.1395 41.763C43.7955 41.763 44.3271 41.2313 44.3271 40.5754ZM32.1974 13.9276H39.986C40.3355 13.9276 40.6213 14.2136 40.6213 14.563V16.2077C40.6213 16.5571 40.3355 16.8431 39.986 16.8431H39.2416V27.1894C39.2416 27.8164 39.4304 28.3556 39.8219 28.8454L42.1834 31.8008H30L32.3614 28.8454C32.7529 28.3555 32.9418 27.8165 32.9418 27.1894V16.8431H32.1973C31.8478 16.8431 31.562 16.5571 31.562 16.2077V14.563C31.562 14.2136 31.8478 13.9276 32.1973 13.9276H32.1974ZM34.8662 25.9624C34.8662 26.6442 35.4189 27.1969 36.1006 27.1969C36.7824 27.1969 37.3351 26.6441 37.3351 25.9624C37.3351 25.2807 36.7824 24.7279 36.1006 24.7279C35.4189 24.7279 34.8662 25.2807 34.8662 25.9624ZM31.4794 10.7966C32.2514 10.7873 33.0419 10.9771 33.722 11.3354C34.3466 11.6644 34.8705 12.1326 35.1866 12.7134C35.3665 13.0438 35.7801 13.1656 36.1105 12.9857C36.4409 12.8059 36.5628 12.3922 36.3829 12.0618C35.9313 11.2319 35.2082 10.5764 34.3576 10.1283C33.4817 9.667 32.4617 9.42266 31.4633 9.43458C31.0873 9.43897 30.786 9.74747 30.7904 10.1235C30.7948 10.4996 31.1033 10.801 31.4794 10.7966ZM20.8208 33.7166L22.8139 34.1097V37.4104L20.8208 37.8034L19.9455 39.9136L21.0777 41.602L18.7438 43.9359L17.0553 42.8036L14.9452 43.6789L14.5521 45.6721H11.2514L10.8585 43.6789L8.7483 42.8036L7.05982 43.9359L4.72593 41.602L5.85816 39.9136L4.98287 37.8034L2.9897 37.4104V34.1097L4.98287 33.7166L5.85816 31.6064L4.72593 29.9181L7.05982 27.5842L8.7483 28.7165L10.8585 27.8411L11.2514 25.848H14.5521L14.9452 27.8411L17.0553 28.7165L18.7438 27.5842L21.0777 29.9181L19.9455 31.6064L20.8208 33.7166ZM17.9805 35.76C17.9805 32.9627 15.6991 30.6813 12.9018 30.6813C10.1045 30.6813 7.8231 32.9627 7.8231 35.76C7.8231 38.5572 10.1045 40.8386 12.9018 40.8386C15.6991 40.8386 17.9805 38.5571 17.9805 35.76Z" fill="#66170E"/>
</svg>
