<svg width="100" height="100" viewBox="0 0 100 100" fill="none" xmlns="http://www.w3.org/2000/svg">
<path d="M93.2493 8.07718C93.1713 7.37468 92.5936 6.79693 91.8911 6.71889C85.8958 6.00076 79.9318 6.17248 74.155 7.21851C62.0798 9.28881 50.1419 15.8504 40.8844 24.7985C40.0293 25.6123 37.9901 27.5377 37.1685 28.3269C32.2954 33.9601 26.6788 41.4222 23.4139 47.7336C22.9429 48.6899 23.4073 49.4158 24.2101 50.1066C24.9594 50.8561 26.3958 52.2768 28.2225 54.1035C35.2053 61.1035 42.8296 68.7249 49.8617 75.7584L50.3925 76.2892C51.1334 77.0459 52.1886 76.7067 52.9529 76.1642C56.5907 74.1346 61.5712 71.0433 66.8171 66.7967C84.5166 52.935 96.3782 30.8472 93.2493 8.07718ZM72.9373 44.7671C65.2277 52.649 51.4046 46.9384 51.5323 35.8988C51.4292 24.8459 65.1814 19.1449 72.9374 27.0312C77.8396 31.9178 77.8396 39.8803 72.9373 44.7671Z" fill="#013C1D"/>
<path d="M9.22179 51.9171C9.28421 51.9171 9.34661 51.9171 9.40913 51.9015L20.6034 50.5432C19.7699 48.9611 20.0589 47.0457 21.0406 45.5628C21.8212 44.1264 23.1014 41.9249 24.8813 39.224C27.8335 34.6204 31.4749 30.2219 34.9672 26.1249C34.9671 26.1249 37.2154 23.9859 37.2154 23.9859C18.5041 23.7997 8.92633 40.2476 7.69201 50.1219C7.51258 51.0238 8.28796 51.947 9.22179 51.9171Z" fill="#013C1D"/>
<path d="M68.7844 69.2157C64.3348 72.8222 59.526 76.0697 54.4675 78.8956C53.0278 79.8831 51.0171 80.2299 49.4246 79.3638C49.4246 79.3639 48.0664 90.5582 48.0664 90.5582C47.9333 91.4489 48.6994 92.329 49.612 92.3068C52.5615 91.8754 65.8517 89.208 72.6719 76.4288C74.8095 72.4192 76.0632 67.0383 75.9974 62.7207C73.7239 64.9959 71.3699 67.1252 68.7844 69.2157Z" fill="#013C1D"/>
<path d="M41.3372 71.6507C36.6857 66.9866 31.3296 61.6369 26.7549 57.0527L25.6933 59.2073C24.8034 61.0028 25.1468 63.173 26.5676 64.5937L35.3732 73.3993C36.8052 74.8197 38.9762 75.182 40.7595 74.2736L42.9141 73.212C42.3929 72.6929 41.8835 72.1756 41.3372 71.6507Z" fill="#013C1D"/>
<path d="M26.7392 73.2916C15.9512 63.6923 6.41218 82.6235 6.25551 92.058C6.17407 92.9558 7.00778 93.7924 7.91025 93.713C17.3175 93.5547 36.2027 84.0679 26.7392 73.2916Z" fill="#013C1D"/>
<path d="M64.0694 26.4844C51.6592 26.8075 51.5823 44.9558 64.0696 45.3133C76.5608 44.9475 76.4795 26.8069 64.0694 26.4844Z" fill="#013C1D"/>
</svg>
