<svg width="50" height="50" viewBox="0 0 50 50" fill="none" xmlns="http://www.w3.org/2000/svg">
<path fill-rule="evenodd" clip-rule="evenodd" d="M26.9399 5.69605C30.2213 7.59055 31.3455 11.7864 29.451 15.0678C27.5566 18.349 23.3608 19.4733 20.0794 17.5788C16.7982 15.6844 15.674 11.4886 17.5684 8.20735C19.4629 4.92595 23.6587 3.80165 26.9399 5.69605ZM40.4887 39.5005C40.4887 30.8057 33.8658 23.5833 25.4158 22.6284C25.3847 22.6249 25.3566 22.6358 25.3357 22.659C25.3147 22.6823 25.307 22.7116 25.3139 22.7421L28.7345 38.0305C28.7793 38.2332 28.7311 38.4348 28.6186 38.5909C28.6183 38.5913 28.618 38.5916 28.6177 38.5921L24.0832 45.0873C23.7959 45.4986 23.2007 45.4751 22.9277 45.0749L18.3948 38.5819C18.2776 38.4142 18.2442 38.2129 18.2858 38.0279L18.2851 38.0277L21.7295 22.7395C21.7364 22.7089 21.7287 22.6796 21.7078 22.6563C21.6869 22.6331 21.6587 22.6221 21.6277 22.6256C13.1663 23.5696 6.53076 30.7975 6.53076 39.5004V44.6423C6.53076 46.529 8.06956 48.0677 9.95616 48.0677H37.0634C38.9501 48.0677 40.4888 46.5289 40.4888 44.6423V39.5005H40.4887ZM24.2121 16.4029C24.2121 16.015 23.8976 15.7005 23.5097 15.7005C23.1216 15.7005 22.8073 16.0142 22.8073 16.4051C22.8073 16.793 23.1218 17.1075 23.5097 17.1075C23.8978 17.1074 24.2121 16.7937 24.2121 16.4029ZM26.292 11.7764C27.8982 9.52135 26.2802 6.38195 23.5097 6.38195C22.5238 6.38195 21.6004 6.80595 20.955 7.53455C20.6989 7.82395 20.726 8.26625 21.0154 8.52225C21.3048 8.77835 21.747 8.75125 22.0031 8.46185C22.7664 7.60015 24.1113 7.55505 24.9318 8.37565C25.9849 9.42875 25.5632 11.2205 24.1679 11.7022C23.3441 11.9866 22.8073 12.739 22.8073 13.6064V14.2406C22.8073 14.6285 23.1218 14.943 23.5097 14.943C23.8976 14.943 24.2121 14.6285 24.2121 14.2406V13.6064C24.2121 13.3321 24.3674 13.1129 24.6234 13.0246C25.3028 12.7899 25.8844 12.3485 26.292 11.7764ZM15.1074 6.78645C12.4283 11.4269 14.0182 17.3607 18.6585 20.0398C23.0135 22.5542 28.6121 21.3304 31.4912 17.1542C31.5189 17.114 31.5727 17.1017 31.615 17.1261L34.6072 18.8537C34.6519 18.8795 34.6672 18.9369 34.6415 18.9816L34.5123 19.2053C34.0916 19.9341 34.3428 20.8637 35.0682 21.2826L35.0689 21.2814L40.133 24.2068C40.8636 24.6291 41.7946 24.3742 42.213 23.6509L43.2394 21.8732C43.24 21.8722 43.2405 21.8714 43.2411 21.8704C43.7058 21.1257 43.4348 20.1242 42.651 19.7184C42.6497 19.7177 42.6485 19.7171 42.6472 19.7164L37.6803 16.8488C37.6795 16.8483 37.6788 16.8479 37.678 16.8474C36.9472 16.397 35.9924 16.6415 35.5635 17.3846L35.4358 17.6059C35.41 17.6506 35.3526 17.6659 35.3079 17.6401L32.3155 15.9124C32.2731 15.8879 32.2569 15.8354 32.2779 15.7912C34.4261 11.2691 32.7719 5.78175 28.3608 3.23505C23.7204 0.555853 17.7866 2.14585 15.1074 6.78645Z" fill="#013C1D"/>
</svg>
