<svg width="50" height="50" viewBox="0 0 50 50" fill="none" xmlns="http://www.w3.org/2000/svg">
<path d="M30.8125 35.8597C32.5937 35.2816 33.2422 32.4535 34.7266 31.3675C36.2266 30.2816 39.1172 30.5316 40.2109 29.0316C41.2891 27.5472 40.1641 24.8832 40.7422 23.0941C41.3047 21.3753 43.7969 19.891 43.7969 17.9847C43.7969 16.0785 41.3047 14.5863 40.7422 12.8675C40.1641 11.0863 41.2891 8.4144 40.2109 6.93784C39.1172 5.43784 36.2266 5.68003 34.7266 4.59409C33.25 3.51596 32.5937 0.680026 30.8125 0.101901C29.0937 -0.452786 26.9141 1.43784 25.0078 1.43784C23.1016 1.43784 20.9141 -0.452786 19.1953 0.101901C17.4141 0.680026 16.7656 3.51596 15.2812 4.59409C13.7812 5.68003 10.8906 5.43784 9.79688 6.93003C8.71875 8.4144 9.84375 11.0863 9.26562 12.8675C8.70312 14.5863 6.21094 16.0785 6.21094 17.9847C6.21094 19.891 8.70312 21.3753 9.26562 23.0941C9.84375 24.8832 8.71875 27.5472 9.79688 29.0316C10.8906 30.5238 13.7812 30.2816 15.2812 31.3675C16.7578 32.4535 17.4141 35.2816 19.1953 35.8597C20.9141 36.4144 23.0937 34.5316 25.0078 34.5316C26.9062 34.5316 29.0937 36.4144 30.8125 35.8597ZM25 29.1332C18.8359 29.1332 13.8516 24.1332 13.8516 17.9847C13.8516 11.8207 18.8437 6.83628 25 6.83628C31.1562 6.83628 36.1406 11.8285 36.1406 17.9847C36.1484 24.141 31.1562 29.1332 25 29.1332Z" fill="#66170E"/>
<path d="M35.2734 32.125C34.7891 32.4844 34.3672 33.1797 33.9141 33.9141C33.2266 35.0391 32.4453 36.3125 31.1016 36.75C30.7969 36.8516 30.4687 36.8984 30.1328 36.8984C29.1562 36.8984 28.1953 36.5078 27.2656 36.125C27.0625 36.0391 26.8516 35.9609 26.6484 35.8828L29.6641 50L34.8437 43.9297L42.25 45.1094L36.25 31.6797C35.8594 31.8047 35.5234 31.9453 35.2734 32.125Z" fill="#66170E"/>
<path d="M19.8672 36.8984C19.5313 36.8984 19.2031 36.8516 18.8984 36.75C17.5547 36.3125 16.7656 35.0313 16.0781 33.9063C15.625 33.1719 15.2031 32.4844 14.7188 32.125C14.4688 31.9453 14.125 31.8047 13.75 31.6797L7.75 45.1094L15.1562 43.9297L20.3281 50L23.3516 35.8828C23.1406 35.9609 22.9375 36.0391 22.7266 36.125C21.8125 36.5078 20.8438 36.8984 19.8672 36.8984Z" fill="#66170E"/>
<path d="M33.0781 15.3594L27.5 14.5469L25 9.48438L22.5 14.5469L16.9219 15.3594L20.9609 19.2969L20.0078 24.8594L25 22.2266L29.9922 24.8594L29.0391 19.2969L33.0781 15.3594Z" fill="#66170E"/>
</svg>
