<svg width="100" height="100" viewBox="0 0 100 100" fill="none" xmlns="http://www.w3.org/2000/svg">
<path d="M84.4663 28.7578L90.7705 18.8797L95.7102 22.0322L89.406 31.9103L84.4663 28.7578Z" fill="#66170E"/>
<path d="M66.542 20.8164L70.2996 9.73088L75.8487 11.6119L72.0911 22.6974L66.542 20.8164Z" fill="#66170E"/>
<path d="M47.0664 6.70117H52.9261V18.4206H47.0664V6.70117Z" fill="#66170E"/>
<path d="M24.1631 11.5801L29.7122 9.69911L33.4698 20.7846L27.9207 22.6656L24.1631 11.5801Z" fill="#66170E"/>
<path d="M4.28027 22.043L9.22001 18.8904L15.5242 28.7686L10.5845 31.9211L4.28027 22.043Z" fill="#66170E"/>
<path d="M76.3649 47.7185C76.3649 51.289 75.6611 54.7482 74.3214 57.9396C74.4993 57.9333 74.6778 57.93 74.857 57.93C78.7699 57.93 82.4486 59.4537 85.2155 62.2207L88.1481 65.1533C92.5876 61.6365 96.6014 57.6845 99.9998 53.5133C92.3009 44.6699 82.1804 36.6659 71.0796 31.8691C74.5087 36.4087 76.3649 41.9166 76.3649 47.7185Z" fill="#66170E"/>
<path d="M60.2259 72.03C57.0302 73.3723 53.5675 74.0778 49.9962 74.0778C42.9649 74.0778 36.3517 71.3481 31.3744 66.3914C26.3788 61.4163 23.6275 54.7849 23.6275 47.7187C23.6275 41.9097 25.4887 36.395 28.9266 31.8516C27.5502 32.4489 26.1728 33.1024 24.7948 33.8138C16.1787 38.2627 7.71411 44.7146 0 53.5784C12.3984 67.8616 31.0268 79.9471 49.9964 79.9471C53.8286 79.9471 57.6806 79.4548 61.4853 78.5485C60.5745 76.5002 60.1442 74.2669 60.2259 72.03Z" fill="#66170E"/>
<path d="M74.8569 63.7892C73.5228 63.7892 72.2346 64.0851 71.066 64.6445L66.4251 60.0036C68.986 56.5874 70.5053 52.3393 70.5053 47.7182C70.5053 36.3286 61.2827 27.2188 49.9963 27.2188C38.7021 27.2188 29.4873 36.337 29.4873 47.7182C29.4873 59.1077 38.7101 68.2176 49.9963 68.2176C54.5958 68.2176 58.8503 66.705 62.2782 64.1435L66.9265 68.7918C65.3704 72.0584 65.9411 76.0932 68.6419 78.7941L83.1439 93.2961L95.5741 80.8657L81.0721 66.3637C79.4118 64.7035 77.2047 63.7892 74.8569 63.7892ZM49.9963 56.5077C45.1497 56.5077 41.2067 52.5647 41.2067 47.7182C41.2067 42.8716 45.1497 38.9286 49.9963 38.9286C54.8428 38.9286 58.7858 42.8716 58.7858 47.7182C58.7858 52.5647 54.8428 56.5077 49.9963 56.5077Z" fill="#66170E"/>
<path d="M49.9963 50.6488C51.6144 50.6488 52.9261 49.337 52.9261 47.7189C52.9261 46.1008 51.6144 44.7891 49.9963 44.7891C48.3781 44.7891 47.0664 46.1008 47.0664 47.7189C47.0664 49.337 48.3781 50.6488 49.9963 50.6488Z" fill="#66170E"/>
</svg>
