<svg width="640" height="440" viewBox="0 0 640 440" fill="none" xmlns="http://www.w3.org/2000/svg">
<g clip-path="url(#clip0_147_7798)">
<rect width="640" height="440" fill="white"/>
<path d="M86.1064 419.498H581.388C585.154 416.316 588.675 412.894 591.904 409.199C621.709 375.1 623.004 322.806 596.161 286.593C586.341 273.346 573.883 262.641 562.69 249.871C536.587 220.09 544.006 176.137 527.376 141.792C511.616 109.243 483.441 82.5122 449.499 69.7028C399.2 50.7197 334.658 65.8956 292.462 97.0481C257.544 122.827 230.867 148.557 185.711 151.632C128.824 155.507 79.3854 172.021 46.2423 223.466C28.2307 251.424 21.486 285.478 25.2329 318.303C30.5342 364.745 53.9033 397.194 86.1064 419.498Z" fill="#F4E9E7"/>
<path d="M591.577 417.032H96.0447L95.9514 416.969C60.2332 392.233 39.672 358.054 34.7913 315.352C30.8836 281.123 38.3774 247.309 55.8925 220.138C71.6483 195.687 91.6236 178.036 116.958 166.18C138.432 156.137 164.216 150.208 195.782 148.058C234.226 145.432 258.899 126.579 287.467 104.75C291.991 101.287 297.119 97.3624 302.25 93.5838C323.537 77.8667 350.418 66.2957 377.945 61.0034C407.527 55.3291 435.836 57.1158 459.807 66.1663C493.352 78.8188 521.849 105.193 537.994 138.528C544.955 152.908 547.756 169.165 550.465 184.887C554.223 206.696 558.106 229.226 573.22 246.477C577.461 251.318 581.817 255.802 586.662 260.742C593.87 268.127 600.678 275.101 606.724 283.236C619.842 300.947 626.666 323.125 625.944 345.689C625.221 368.423 616.874 390.038 602.441 406.552C599.263 410.176 595.703 413.657 591.857 416.901L591.749 417.013L591.577 417.032ZM96.2716 416.297H591.433C595.232 413.088 598.749 409.647 601.888 406.069C616.209 389.682 624.492 368.231 625.208 345.666C625.926 323.268 619.152 301.252 606.134 283.675C600.118 275.579 593.326 268.623 586.137 261.257C581.284 256.308 576.92 251.817 572.666 246.963C557.417 229.555 553.516 206.922 549.744 185.032C547.039 169.339 544.249 153.135 537.334 138.85C521.269 105.682 492.918 79.441 459.548 66.8563C435.7 57.8516 407.531 56.0781 378.083 61.7251C350.663 66.9986 323.886 78.5221 302.687 94.1761C297.561 97.9503 292.436 101.874 287.913 105.333C259.251 127.236 234.498 146.151 195.831 148.791C164.358 150.935 138.66 156.842 117.27 166.846C92.0646 178.641 72.1898 196.204 56.5101 220.538C39.0869 247.566 31.6332 281.208 35.5223 315.269C40.3754 357.731 60.8147 391.721 96.2716 416.297Z" fill="#F4E9E7"/>
<path d="M320.059 439.972C496.822 439.972 640.118 432.337 640.118 422.919C640.118 413.5 496.822 405.865 320.059 405.865C143.295 405.865 0 413.5 0 422.919C0 432.337 143.295 439.972 320.059 439.972Z" fill="#DECFCD"/>
<path d="M475.185 108.311L470.608 101.186L470.219 101.273C468.621 101.633 467.046 102.096 465.54 102.65C464.048 103.195 462.547 103.86 461.08 104.626L460.727 104.81L461.841 113.204C459.279 114.913 456.963 117.027 454.995 119.506L446.722 117.706L446.509 118.042C445.631 119.433 444.845 120.873 444.173 122.323C443.501 123.774 442.91 125.304 442.417 126.873L442.298 127.254L449.02 132.4C448.401 135.503 448.285 138.637 448.637 141.696L441.513 146.275L441.601 146.663C441.965 148.278 442.428 149.853 442.976 151.344C443.53 152.854 444.195 154.355 444.952 155.802L445.137 156.153L453.531 155.043C455.239 157.603 457.353 159.919 459.831 161.886L458.031 170.16L458.368 170.373C459.755 171.251 461.196 172.037 462.65 172.711C464.103 173.384 465.635 173.975 467.201 174.466L467.581 174.585L472.73 167.864C475.832 168.482 478.966 168.598 482.023 168.246L486.603 175.368L486.991 175.281C488.582 174.924 490.156 174.463 491.671 173.907C493.166 173.361 494.664 172.695 496.129 171.93L496.482 171.746L495.371 163.351C497.931 161.643 500.247 159.529 502.213 157.051L510.487 158.851L510.701 158.514C511.578 157.123 512.364 155.683 513.037 154.232C513.708 152.782 514.299 151.252 514.793 149.683L514.912 149.303L508.19 144.152C508.809 141.05 508.924 137.916 508.572 134.858L515.696 130.281L515.608 129.893C515.245 128.281 514.784 126.707 514.234 125.213C513.679 123.702 513.014 122.202 512.258 120.753L512.074 120.4L503.678 121.514C501.969 118.953 499.855 116.636 497.376 114.669L499.178 106.397L498.841 106.184C497.454 105.306 496.014 104.52 494.56 103.846C493.105 103.172 491.575 102.581 490.008 102.09L489.628 101.971L484.482 108.693C481.379 108.075 478.244 107.959 475.185 108.311ZM486.478 121.287C495.862 125.635 499.944 136.768 495.596 146.152C491.247 155.536 480.115 159.618 470.731 155.269C461.347 150.921 457.265 139.79 461.614 130.405C465.962 121.021 477.094 116.939 486.478 121.287Z" fill="white"/>
<path d="M486.724 146.406C491.211 141.919 491.211 134.644 486.724 130.157C482.237 125.67 474.963 125.67 470.476 130.157C465.989 134.644 465.989 141.919 470.476 146.406C474.963 150.893 482.237 150.893 486.724 146.406Z" fill="white"/>
<path d="M388.157 333.133H360.371V230.586H388.157V333.133ZM426.314 184.315H398.528V333.133H426.314V184.315ZM464.472 197.11H436.686V333.133H464.472V197.11ZM502.629 168.662H474.843V333.133H502.629V168.662ZM540.787 149.906H513.001V333.133H540.787V149.906Z" fill="#CDD4D0"/>
<path d="M539.954 315.775L534.14 306.727L533.647 306.838C531.617 307.295 529.618 307.883 527.705 308.586C525.81 309.279 523.905 310.123 522.041 311.096L521.593 311.33L523.008 321.988C519.755 324.159 516.813 326.844 514.314 329.991L503.809 327.705L503.538 328.132C502.423 329.898 501.425 331.727 500.572 333.568C499.718 335.411 498.969 337.354 498.341 339.346L498.19 339.829L506.727 346.365C505.941 350.305 505.794 354.285 506.241 358.169L497.194 363.984L497.306 364.477C497.769 366.528 498.356 368.527 499.053 370.421C499.756 372.339 500.6 374.244 501.562 376.082L501.796 376.528L512.456 375.119C514.625 378.37 517.309 381.311 520.455 383.808L518.17 394.314L518.598 394.585C520.359 395.7 522.19 396.699 524.035 397.554C525.88 398.409 527.825 399.16 529.814 399.783L530.297 399.934L536.836 391.398C540.775 392.184 544.754 392.33 548.637 391.883L554.453 400.927L554.945 400.818C556.965 400.365 558.964 399.779 560.888 399.073C562.786 398.379 564.69 397.534 566.55 396.563L566.998 396.329L565.586 385.668C568.837 383.499 571.778 380.815 574.276 377.668L584.783 379.954L585.054 379.526C586.168 377.76 587.166 375.931 588.02 374.088C588.873 372.247 589.623 370.304 590.25 368.312L590.401 367.828L581.866 361.288C582.651 357.348 582.797 353.369 582.35 349.485L591.397 343.674L591.285 343.181C590.824 341.133 590.238 339.135 589.541 337.238C588.836 335.319 587.991 333.414 587.031 331.574L586.797 331.125L576.136 332.54C573.966 329.288 571.281 326.346 568.133 323.847L570.421 313.343L569.993 313.073C568.232 311.958 566.404 310.96 564.556 310.104C562.709 309.248 560.766 308.498 558.777 307.875L558.294 307.724L551.759 316.26C547.818 315.474 543.838 315.328 539.954 315.775ZM554.294 332.253C566.211 337.774 571.395 351.911 565.873 363.828C560.351 375.745 546.214 380.928 534.298 375.406C522.381 369.884 517.197 355.748 522.719 343.832C528.241 331.915 542.377 326.731 554.294 332.253Z" fill="white"/>
<path d="M554.606 364.149C560.304 358.451 560.304 349.213 554.606 343.515C548.908 337.817 539.67 337.817 533.972 343.515C528.274 349.213 528.274 358.451 533.972 364.149C539.67 369.847 548.908 369.847 554.606 364.149Z" fill="white"/>
<path d="M385.192 345.985L385.184 345.617L377.799 343.109C377.423 340.218 376.599 337.448 375.389 334.883L380.257 328.785L380.066 328.472C379.282 327.186 378.413 325.949 377.485 324.792C376.566 323.649 375.543 322.537 374.443 321.484L374.178 321.231L367.181 324.68C364.935 322.949 362.406 321.551 359.663 320.565L358.791 312.812L358.434 312.725C356.961 312.37 355.473 312.109 354.009 311.95C352.544 311.792 351.034 311.728 349.519 311.76L349.152 311.768L346.642 319.154C343.751 319.53 340.983 320.353 338.418 321.563L332.319 316.697L332.006 316.888C330.706 317.681 329.469 318.548 328.327 319.468C327.169 320.4 326.057 321.423 325.019 322.509L324.767 322.774L328.213 329.773C326.482 332.02 325.085 334.548 324.099 337.291L316.347 338.161L316.261 338.518C315.904 339.988 315.642 341.478 315.484 342.945C315.325 344.412 315.261 345.923 315.295 347.435L315.303 347.802L322.688 350.313C323.064 353.203 323.888 355.971 325.097 358.536L320.233 364.635L320.422 364.948C321.205 366.233 322.073 367.471 323.002 368.626C323.919 369.767 324.942 370.88 326.044 371.935L326.308 372.189L333.307 368.741C335.554 370.472 338.083 371.87 340.827 372.856L341.695 380.607L342.052 380.694C343.525 381.05 345.014 381.31 346.479 381.469C347.942 381.628 349.452 381.692 350.967 381.66L351.335 381.651L353.844 374.266C356.735 373.89 359.505 373.066 362.071 371.856L368.167 376.723L368.48 376.532C369.782 375.738 371.02 374.869 372.16 373.951C373.312 373.025 374.426 372.002 375.469 370.911L375.723 370.646L372.274 363.647C374.005 361.4 375.403 358.871 376.389 356.127L384.14 355.259L384.226 354.902C384.583 353.433 384.844 351.944 385.003 350.476C385.163 349.006 385.226 347.496 385.192 345.985ZM348.386 363.862C338.912 362.836 332.065 354.325 333.091 344.852C334.117 335.379 342.628 328.53 352.101 329.557C361.575 330.583 368.423 339.094 367.397 348.567C366.37 358.041 357.859 364.888 348.386 363.862Z" fill="white"/>
<path d="M69.8019 244.308C67.3241 244.575 65.0441 243.337 63.8317 241.338C62.2118 241.98 60.6962 242.806 59.3116 243.802C60.3418 245.902 60.1534 248.493 58.5891 250.435C57.0249 252.378 54.5337 253.114 52.2617 252.556C51.5838 254.121 51.1003 255.778 50.8188 257.497C53.0298 258.256 54.726 260.219 54.9933 262.697C55.2606 265.174 54.0219 267.454 52.0235 268.667C52.6651 270.287 53.4909 271.803 54.4868 273.187C56.5877 272.157 59.1781 272.345 61.121 273.909C63.0633 275.474 63.8 277.965 63.2414 280.237C64.8065 280.914 66.4633 281.398 68.183 281.68C68.9412 279.469 70.9048 277.772 73.3825 277.505C75.8602 277.238 78.1402 278.476 79.3524 280.475C80.9726 279.833 82.4881 279.007 83.8728 278.011C82.8425 275.91 83.0309 273.32 84.5952 271.377C86.1595 269.435 88.6503 268.698 90.9226 269.257C91.6005 267.692 92.084 266.035 92.3655 264.315C90.1545 263.557 88.4583 261.594 88.191 259.116C87.9238 256.638 89.1625 254.358 91.1608 253.146C90.5193 251.525 89.6934 250.01 88.6975 248.626C86.5966 249.656 84.006 249.467 82.0634 247.903C80.121 246.339 79.3844 243.848 79.9429 241.576C78.3779 240.898 76.7211 240.415 75.0011 240.133C74.2431 242.345 72.2796 244.041 69.8019 244.308ZM70.8022 253.583C74.847 253.146 78.4799 256.072 78.9163 260.116C79.3527 264.161 76.4272 267.794 72.3822 268.23C68.3373 268.667 64.7044 265.741 64.268 261.696C63.8319 257.652 66.7574 254.019 70.8022 253.583Z" fill="white"/>
<path d="M107.226 328.37C105.86 329.245 104.163 330.216 102.573 330.57C101.597 330.787 101.243 329.864 101.52 329.107C101.929 327.987 102.894 327.179 103.818 326.426C104.293 326.039 104.74 325.588 105.236 325.235C105.863 324.789 107.056 323.598 108.081 322.773C107.48 319.004 105.889 315.119 103.856 311.848C103.522 312.937 103.107 314 102.612 315.025C102.129 316.026 101.499 317.057 100.471 317.478C99.9902 317.675 99.3466 317.675 99.0469 317.251C98.9296 317.085 98.8845 316.879 98.8528 316.678C98.3783 313.668 100.185 310.978 100.808 308.14C100.829 308.043 100.845 307.94 100.859 307.834C98.5819 305.321 96.1207 303.719 93.9953 303.719C91.1263 303.719 87.646 306.638 84.8314 310.777C86.456 311.991 88.0089 313.65 88.4481 314.458C89.2788 315.987 90.042 318.987 87.5501 318.674C85.901 318.466 83.7862 316.637 82.3813 315.059C80.7276 318.534 79.6497 322.371 79.6497 325.907C79.6497 326.337 79.6638 326.761 79.6842 327.183C79.6873 327.247 81.2737 327.874 81.4405 327.968C83.4233 329.073 84.9956 330.673 86.2379 332.563C86.6799 333.236 87.0877 333.957 87.2161 334.751C87.4261 336.052 86.6766 336.97 85.3296 336.699C84.3151 336.494 83.3321 335.86 82.3965 335.437C82.0707 335.29 81.7431 335.14 81.4163 334.986C83.7019 340.285 88.1012 343.843 93.9956 343.843C102.334 343.843 107.685 336.726 108.283 327.627C107.942 327.893 107.587 328.139 107.226 328.37ZM88.7231 326.134C88.1001 326.042 87.6001 325.585 87.1676 325.127C86.7351 324.67 86.3026 324.172 85.7134 323.949L85.9701 324.043C85.724 323.807 85.7002 323.277 85.9905 323.023C86.3776 322.683 86.9709 322.746 87.4609 322.905C88.3179 323.182 89.1012 323.696 89.6737 324.392C89.8533 324.61 90.0175 324.86 90.0368 325.142C90.0799 325.77 89.3461 326.227 88.7231 326.134ZM100.845 336.889C100.425 337.249 99.8534 337.427 99.3028 337.369C99.1376 337.351 98.9688 337.311 98.8373 337.209C98.602 337.028 98.5412 336.695 98.5633 336.399C98.6206 335.64 99.1987 334.407 100.013 334.176C100.798 333.954 101.595 334.642 101.556 335.438C101.529 335.991 101.266 336.528 100.845 336.889Z" fill="#98BDAA"/>
<path d="M93.6031 316.07C93.6031 318.271 93.6031 320.472 93.6031 322.674C93.6031 327.928 93.6031 333.183 93.6031 338.438C93.6031 344.793 93.6031 351.148 93.6031 357.503C93.6031 363.026 93.6031 368.549 93.6031 374.072C93.6031 375.891 93.6031 377.711 93.6031 379.531C93.6031 380.365 93.4969 381.279 93.6031 382.107C93.608 382.146 93.6031 382.188 93.6031 382.227C93.6031 382.694 94.3297 382.695 94.3297 382.227C94.3297 380.025 94.3297 377.824 94.3297 375.623C94.3297 370.368 94.3297 365.113 94.3297 359.858C94.3297 353.503 94.3297 347.148 94.3297 340.794C94.3297 335.271 94.3297 329.748 94.3297 324.225C94.3297 322.405 94.3297 320.585 94.3297 318.765C94.3297 317.932 94.4359 317.018 94.3297 316.189C94.3248 316.151 94.3297 316.108 94.3297 316.07C94.3297 315.602 93.6031 315.601 93.6031 316.07Z" fill="#86A1F8"/>
<path d="M120.169 358.485C118.913 358.123 117.423 357.613 116.364 356.839C115.712 356.363 116.083 355.658 116.689 355.423C117.584 355.075 118.586 355.229 119.533 355.388C120.02 355.47 120.531 355.501 121.008 355.613C121.612 355.755 122.967 355.844 124.012 356.024C125.973 353.656 127.477 350.627 128.376 347.656C127.539 348.033 126.675 348.348 125.791 348.594C124.929 348.834 123.97 349.001 123.168 348.603C122.793 348.417 122.45 348.028 122.548 347.62C122.586 347.461 122.687 347.324 122.791 347.198C124.361 345.309 126.949 344.972 128.999 343.84C129.068 343.801 129.139 343.756 129.211 343.708C129.52 340.993 129.181 338.651 128.05 337.365C126.524 335.629 122.906 335.075 118.904 335.574C119.033 337.203 118.855 339.025 118.6 339.721C118.117 341.037 116.707 343.094 115.571 341.42C114.82 340.312 114.802 338.058 115.009 336.369C112.027 337.217 109.131 338.606 106.991 340.486C106.731 340.715 106.482 340.949 106.237 341.186C106.2 341.222 106.664 342.516 106.696 342.666C107.083 344.454 106.951 346.256 106.467 348.014C106.295 348.639 106.076 349.269 105.663 349.77C104.988 350.589 104.034 350.624 103.481 349.664C103.066 348.941 102.926 348.009 102.684 347.218C102.6 346.943 102.517 346.665 102.436 346.385C100.445 350.587 100.632 355.142 103.768 358.709C108.204 363.755 115.357 363.207 121.181 358.73C120.84 358.664 120.501 358.58 120.169 358.485ZM111.68 346.098C111.405 345.672 111.415 345.126 111.462 344.621C111.509 344.116 111.581 343.589 111.402 343.114L111.481 343.32C111.493 343.045 111.801 342.749 112.11 342.789C112.521 342.843 112.799 343.235 112.963 343.616C113.251 344.282 113.357 345.03 113.241 345.746C113.204 345.971 113.14 346.204 112.98 346.365C112.622 346.725 111.956 346.524 111.68 346.098ZM111.62 359.155C111.178 359.092 110.767 358.84 110.509 358.476C110.432 358.367 110.366 358.243 110.358 358.11C110.343 357.871 110.511 357.657 110.702 357.513C111.192 357.144 112.246 356.838 112.818 357.208C113.371 357.565 113.378 358.413 112.876 358.813C112.527 359.091 112.062 359.217 111.62 359.155Z" fill="#AFD5C2"/>
<path d="M95.4027 377.344C98.1513 366.593 104.196 356.791 112.508 349.444C114.87 347.356 117.411 345.485 120.097 343.836C120.495 343.591 120.131 342.963 119.731 343.208C110.135 349.099 102.427 357.921 97.8263 368.196C96.5316 371.087 95.487 374.082 94.7024 377.151C94.5862 377.604 95.2867 377.798 95.4027 377.344Z" fill="#86A1F8"/>
<path d="M66.7522 358.73C72.5768 363.207 79.7303 363.755 84.1658 358.709C87.3013 355.142 87.4879 350.587 85.4976 346.385C85.4169 346.665 85.3332 346.943 85.2489 347.218C85.0074 348.009 84.8679 348.942 84.4519 349.664C83.8998 350.624 82.9454 350.589 82.2698 349.77C81.8572 349.269 81.6378 348.639 81.4659 348.014C80.9826 346.256 80.8507 344.454 81.2368 342.666C81.2693 342.516 81.7332 341.222 81.6961 341.186C81.4515 340.949 81.202 340.715 80.9422 340.486C78.8026 338.606 75.9066 337.217 72.9245 336.369C73.1317 338.058 73.1139 340.312 72.3621 341.42C71.2262 343.095 69.8163 341.037 69.3333 339.721C69.0779 339.025 68.9 337.203 69.0294 335.574C65.0274 335.075 61.4094 335.629 59.8833 337.365C58.7525 338.651 58.4131 340.993 58.7226 343.708C58.794 343.756 58.8649 343.801 58.9345 343.84C60.9841 344.972 63.5724 345.31 65.1418 347.198C65.2465 347.324 65.3472 347.461 65.3854 347.62C65.4828 348.028 65.1403 348.417 64.7653 348.603C63.9634 349.001 63.0043 348.834 62.1419 348.594C61.2584 348.348 60.3939 348.034 59.5577 347.656C60.4557 350.627 61.9602 353.656 63.9216 356.024C64.966 355.844 66.321 355.755 66.9252 355.613C67.4022 355.501 67.9128 355.47 68.4 355.388C69.3472 355.229 70.3493 355.075 71.2447 355.423C71.8499 355.659 72.2208 356.364 71.5698 356.839C70.5099 357.613 69.0201 358.123 67.7639 358.485C67.4327 358.58 67.094 358.664 66.7522 358.73ZM74.9537 346.365C74.7934 346.203 74.7292 345.971 74.6929 345.746C74.5766 345.03 74.682 344.282 74.9702 343.616C75.1349 343.235 75.4125 342.843 75.8239 342.789C76.1321 342.749 76.4404 343.045 76.4522 343.319L76.5319 343.114C76.353 343.589 76.4244 344.116 76.4713 344.621C76.5182 345.126 76.5288 345.672 76.2533 346.098C75.978 346.524 75.3112 346.725 74.9537 346.365ZM75.0573 358.813C74.5555 358.413 74.5627 357.565 75.1151 357.208C75.6875 356.838 76.7414 357.144 77.2309 357.513C77.4221 357.657 77.591 357.871 77.5755 358.11C77.567 358.243 77.5015 358.367 77.4242 358.476C77.1665 358.841 76.7548 359.092 76.3131 359.155C75.8718 359.218 75.4063 359.091 75.0573 358.813Z" fill="#AFD5C2"/>
<path d="M93.2315 377.153C90.4427 366.244 84.2874 356.273 75.8346 348.84C73.4567 346.748 70.9014 344.867 68.2033 343.21C67.8038 342.965 67.4383 343.593 67.8365 343.837C77.2929 349.643 84.8645 358.325 89.423 368.436C90.7182 371.309 91.7507 374.293 92.5312 377.346C92.6466 377.799 93.3475 377.607 93.2315 377.153Z" fill="#86A1F8"/>
<path d="M110.144 371.574L108.088 419.808H79.8422L77.7898 371.574H110.144Z" fill="#CACACA"/>
<path d="M99.2281 419.808H79.8422L77.7898 371.574H90.6493C88.7154 374.263 87.1983 377.254 86.1619 380.397C84.367 385.839 84.7497 391.492 85.5353 397.103C86.7985 406.099 91.9465 414.41 99.2281 419.808Z" fill="#B9B9B9"/>
<path d="M78.1155 378.84C87.3755 378.84 96.6356 378.84 105.896 378.84C107.203 378.84 108.511 378.84 109.818 378.84C110.346 378.84 110.347 378.02 109.818 378.02C100.558 378.02 91.2979 378.02 82.0379 378.02C80.7303 378.02 79.4228 378.02 78.1155 378.02C77.5874 378.02 77.5863 378.84 78.1155 378.84Z" fill="#E2E2E2"/>
<path d="M79.5111 411.614C87.9373 411.614 96.3633 411.614 104.79 411.614C106 411.614 107.212 411.614 108.422 411.614C108.951 411.614 108.952 410.793 108.422 410.793C99.9962 410.793 91.5703 410.793 83.144 410.793C81.9331 410.793 80.722 410.793 79.5111 410.793C78.9827 410.793 78.9819 411.614 79.5111 411.614Z" fill="#E2E2E2"/>
<path d="M78.1895 380.59C87.3957 380.59 96.6022 380.59 105.808 380.59C107.12 380.59 108.432 380.59 109.743 380.59C110.271 380.59 110.273 379.77 109.743 379.77C100.537 379.77 91.3307 379.77 82.1246 379.77C80.8129 379.77 79.5012 379.77 78.1895 379.77C77.6612 379.77 77.6604 380.59 78.1895 380.59Z" fill="#E2E2E2"/>
<path d="M79.5855 413.362C87.9814 413.362 96.3769 413.362 104.773 413.362C105.965 413.362 107.156 413.362 108.348 413.362C108.876 413.362 108.877 412.541 108.348 412.541C99.9521 412.541 91.5566 412.541 83.1607 412.541C81.9689 412.541 80.7771 412.541 79.5855 412.541C79.0572 412.541 79.0564 413.362 79.5855 413.362Z" fill="#E2E2E2"/>
<path d="M416.209 86.7789C416.209 98.4986 410.116 108.756 400.914 114.606C399.33 115.621 398.233 117.287 398.071 119.135C398.01 119.886 397.969 120.638 397.969 121.389C397.969 122.811 396.852 123.969 395.43 123.969H371.016C369.594 123.969 368.457 122.811 368.457 121.389C368.457 120.638 368.436 119.886 368.355 119.135C368.192 117.287 367.116 115.621 365.532 114.626C355.274 108.106 348.876 96.0815 350.46 82.7168C352.268 67.7265 364.415 55.6617 379.425 53.9959C399.35 51.7824 416.209 67.3 416.209 86.7789Z" fill="#B7D9BD"/>
<path d="M395.356 125.764H371.516C370.465 125.764 369.614 126.616 369.614 127.666V129.22C369.614 130.27 370.465 131.122 371.516 131.122H395.356C396.407 131.122 397.258 130.27 397.258 129.22V127.666C397.258 126.616 396.407 125.764 395.356 125.764Z" fill="#CACACA"/>
<path d="M395.356 132.92H371.516C370.465 132.92 369.614 133.771 369.614 134.822V136.375C369.614 137.426 370.465 138.278 371.516 138.278H395.356C396.407 138.278 397.258 137.426 397.258 136.375V134.822C397.258 133.771 396.407 132.92 395.356 132.92Z" fill="#CACACA"/>
<path d="M380.494 145.432H386.378C389.338 145.432 391.736 143.034 391.736 140.074H375.136C375.136 143.034 377.535 145.432 380.494 145.432Z" fill="#CACACA"/>
<path d="M399.736 84.3628C398.213 83.4896 395.816 84.0989 394.475 85.6833C392.749 87.7341 391.429 90.3753 390.413 93.7469C388.849 94.1531 386.635 94.5794 383.223 94.5794C379.79 94.5794 377.596 94.1528 376.032 93.7469C375.017 90.3753 373.676 87.7341 371.97 85.6833C370.63 84.0989 368.233 83.4893 366.709 84.3628C366.121 84.6876 364.82 85.7438 365.714 88.2829C366.75 91.3297 369.777 93.5845 374.814 94.9858C375.829 98.6216 376.52 102.441 376.906 106.645C377.393 112.108 377.596 116.394 377.658 123.97H379.181C379.099 116.333 378.917 112.028 378.409 106.503C378.063 102.542 377.434 98.9056 376.499 95.4325C378.571 95.8797 380.684 96.1029 383.223 96.1029C385.741 96.1029 387.874 95.8797 389.925 95.4325C389.011 98.9056 388.382 102.542 388.016 106.503C387.528 112.028 387.325 116.333 387.264 123.97H388.788C388.848 116.394 389.052 112.108 389.539 106.645C389.925 102.441 390.595 98.6219 391.631 94.9858L391.773 94.9456C396.668 93.5845 399.674 91.3297 400.731 88.2829C401.605 85.7438 400.326 84.6876 399.736 84.3628ZM367.136 87.796C366.892 87.0442 366.73 86.0897 367.461 85.6835C367.685 85.5412 367.989 85.4802 368.335 85.4802C369.127 85.4802 370.143 85.866 370.792 86.6583C372.214 88.3641 373.372 90.5173 374.286 93.2393C370.366 92.0205 367.969 90.1722 367.136 87.796ZM399.289 87.796C398.477 90.1521 396.121 91.9797 392.16 93.2393C393.074 90.5175 394.212 88.3643 395.634 86.6583C396.304 85.866 397.299 85.4802 398.111 85.4802C398.457 85.4802 398.741 85.5412 398.985 85.6835C399.696 86.0895 399.554 87.0442 399.289 87.796Z" fill="white"/>
<path d="M384.452 44.0805C384.452 38.0474 384.452 32.0141 384.452 25.981C384.452 24.674 382.421 24.672 382.421 25.981C382.421 32.0141 382.421 38.0474 382.421 44.0805C382.421 45.3875 384.452 45.3896 384.452 44.0805Z" fill="#B3C6F7"/>
<path d="M356.58 54.7857C353.211 51.4169 349.842 48.0482 346.474 44.6797C345.548 43.7541 344.111 45.1901 345.038 46.1159C348.406 49.4846 351.775 52.8534 355.144 56.2218C356.069 57.1474 357.506 55.7115 356.58 54.7857Z" fill="#B3C6F7"/>
<path d="M344.44 82.0625C338.407 82.0625 332.373 82.0625 326.34 82.0625C325.033 82.0625 325.031 84.0935 326.34 84.0935C332.373 84.0935 338.407 84.0935 344.44 84.0935C345.747 84.0935 345.749 82.0625 344.44 82.0625Z" fill="#B3C6F7"/>
<path d="M440.532 82.0625C434.499 82.0625 428.465 82.0625 422.432 82.0625C421.125 82.0625 421.123 84.0935 422.432 84.0935C428.465 84.0935 434.499 84.0935 440.532 84.0935C441.838 84.0935 441.841 82.0625 440.532 82.0625Z" fill="#B3C6F7"/>
<path d="M420.398 44.6798C417.03 48.0485 413.661 51.4173 410.292 54.7858C409.367 55.7113 410.803 57.1477 411.729 56.2219C415.097 52.8532 418.466 49.4844 421.835 46.1159C422.76 45.1904 421.324 43.754 420.398 44.6798Z" fill="#B3C6F7"/>
<path d="M183.38 156.674C177.167 142.845 163.281 133.229 147.166 133.229C140.411 133.229 134.075 134.92 128.518 137.894C128.511 137.897 128.503 137.901 128.496 137.905L139.504 158.575C139.512 158.568 139.519 158.564 139.527 158.563C141.805 157.35 144.405 156.663 147.166 156.663C153.783 156.663 159.478 160.605 162.032 166.269C162.033 166.272 162.035 166.274 162.036 166.278L183.384 156.682C183.383 156.679 183.381 156.676 183.38 156.674Z" fill="#E1E1E1"/>
<path d="M186.069 176.007C186.069 195.288 172.342 211.368 154.1 214.968L149.549 192.012C157.022 190.53 162.655 183.936 162.655 176.026C162.655 173.644 162.144 171.382 161.226 169.344C161.224 169.34 161.223 169.337 161.221 169.334L182.57 159.739L182.593 159.729C184.83 164.691 186.069 170.206 186.069 176.007Z" fill="#CCCCCC"/>
<path d="M154.1 214.969C151.586 215.465 149.004 215.742 146.375 215.742C140.068 215.742 134.162 214.274 128.866 211.684C115.72 205.187 106.643 191.66 106.643 176.008C106.643 174.542 106.718 173.113 106.909 171.713C107.185 168.93 107.756 166.225 108.576 163.683C109.538 160.777 110.776 157.995 112.32 155.443C116.034 149.336 121.369 144.316 127.703 140.953L127.707 140.961L138.717 161.63C138.709 161.631 138.702 161.635 138.694 161.642C133.555 164.382 130.057 169.796 130.057 176.028C130.057 185.03 137.354 192.327 146.356 192.327C147.449 192.327 148.516 192.219 149.549 192.014L154.1 214.969Z" fill="#DBDBDB"/>
<path d="M248.753 162.349C244.591 153.086 235.29 146.645 224.495 146.645C219.971 146.645 215.726 147.777 212.004 149.77C211.999 149.772 211.994 149.775 211.989 149.777L219.363 163.622C219.368 163.618 219.373 163.615 219.378 163.614C220.904 162.802 222.646 162.342 224.495 162.342C228.928 162.342 232.742 164.982 234.453 168.776C234.454 168.778 234.454 168.78 234.455 168.782L248.755 162.354C248.755 162.353 248.754 162.351 248.753 162.349Z" fill="#70C499"/>
<path d="M250.444 175.709C250.444 188.624 241.25 199.395 229.03 201.806L225.982 186.43C230.987 185.437 234.761 181.02 234.761 175.722C234.761 174.126 234.419 172.611 233.804 171.245C233.802 171.242 233.802 171.241 233.801 171.239L248.1 164.812L248.116 164.805C249.615 168.129 250.444 171.823 250.444 175.709Z" fill="#9DDABB"/>
<path d="M212.926 175.719C212.926 177.305 213.263 178.813 213.872 180.173C214.699 182.019 216.02 183.592 217.673 184.725L208.815 197.658C205.453 195.347 202.648 192.286 200.64 188.717C198.48 184.871 197.242 180.433 197.242 175.706C197.242 174.726 197.292 173.766 197.419 172.83C197.604 170.966 197.986 169.154 198.537 167.45C199.182 165.506 200.009 163.641 201.043 161.931C203.532 157.841 207.107 154.479 211.347 152.225L211.35 152.23L218.726 166.075C218.721 166.075 218.716 166.078 218.711 166.083C215.268 167.919 212.926 171.546 212.926 175.719Z" fill="#B9E5CE"/>
<path d="M229.03 201.807C227.345 202.139 225.616 202.324 223.856 202.324C219.631 202.324 215.674 201.341 212.127 199.604C210.973 199.035 209.865 198.385 208.815 197.659L217.673 184.727C219.428 185.933 221.552 186.637 223.843 186.637C224.574 186.637 225.289 186.567 225.98 186.429L229.03 201.807Z" fill="#97BEAA"/>
<path d="M293.781 408.716V397.381H303.662V408.716L306.378 418.481H290.891L293.781 408.716Z" fill="#FFC4B6"/>
<path d="M321.205 409.131L320.319 397.275H330.464V404.798C330.464 406.324 331.35 407.712 332.735 408.353L342.676 412.854C344.956 413.91 344.203 417.326 341.69 417.326H320.046L321.205 409.131Z" fill="#FFC4B6"/>
<path d="M320.503 412.062C327.445 414.095 334.404 414.147 341.352 412.13L354.862 417.666C355.461 417.946 355.849 418.587 355.849 419.296C355.849 420.276 355.118 421.07 354.216 421.07H322.741C321.071 421.07 319.765 419.631 319.927 417.969L320.503 412.062Z" fill="#263238"/>
<path d="M308.096 261.674C308.267 270.643 315.149 277.772 323.458 277.6C331.772 277.427 337.719 270.017 337.548 261.048C337.376 252.079 331.15 244.949 322.837 245.122C314.528 245.295 307.924 252.705 308.096 261.674Z" fill="#66170E"/>
<path d="M285.2 261.674C285.372 270.643 292.254 277.772 300.563 277.6C308.876 277.427 314.824 270.017 314.652 261.048C314.481 252.079 308.255 244.949 299.942 245.122C291.632 245.295 285.029 252.705 285.2 261.674Z" fill="#66170E"/>
<path d="M323.676 261.351L337.548 261.027L336.072 338.818L325.162 339.039L314.345 339.259C311.953 286.862 308.447 280.009 308.097 261.675L323.676 261.351Z" fill="#66170E"/>
<path d="M314.344 339.255C314.461 345.36 319.822 350.209 325.678 350.088C331.535 349.966 336.188 344.919 336.071 338.815C335.954 332.711 331.112 327.861 325.256 327.983C319.399 328.104 314.227 333.151 314.344 339.255Z" fill="#66170E"/>
<path d="M299.073 261.341L314.656 261.341L310.255 339.044L299.069 339.043L287.892 339.043C286.471 307.98 285.197 279.677 285.198 261.34L299.073 261.341Z" fill="#66170E"/>
<path d="M287.892 339.043C287.892 345.148 293.211 350.098 299.069 350.098C304.926 350.098 310.254 345.149 310.255 339.044C310.255 332.938 304.927 327.989 299.07 327.988C293.212 327.988 287.892 332.937 287.892 339.043Z" fill="#66170E"/>
<path d="M325.209 350.098C331.21 350.098 336.074 345.148 336.074 339.043C336.074 332.938 331.21 327.988 325.209 327.988C319.209 327.988 314.344 332.938 314.344 339.043C314.344 345.148 319.209 350.098 325.209 350.098Z" fill="#66170E"/>
<path d="M314.344 339.043H325.209H336.074L331.328 404.205H325.209H319.09C319.09 404.205 317.044 384.681 316.381 378.171C315 364.618 314.344 355.026 314.344 339.043Z" fill="#66170E"/>
<path d="M299.073 350.09C305.249 350.09 310.255 345.141 310.255 339.035C310.255 332.93 305.249 327.98 299.073 327.98C292.898 327.98 287.892 332.93 287.892 339.035C287.892 345.141 292.898 350.09 299.073 350.09Z" fill="#66170E"/>
<path d="M299.073 339.037H299.073H299.073H310.255L305.63 404.2H299.073H299.073H299.073H292.515L287.891 339.037H299.073Z" fill="#66170E"/>
<path d="M289.144 417.055L291.867 413.542L293.114 410.174C294.71 410.747 296.401 411.096 298.671 411.096C300.905 411.096 302.708 410.759 304.294 410.202L305.443 413.866L307.516 417.104C307.566 417.241 307.591 417.39 307.591 417.541V419.081C307.591 420.18 306.909 421.07 306.067 421.07H298.635H290.539C289.698 421.07 289.015 420.18 289.015 419.081V417.618C289.015 417.418 289.06 417.222 289.144 417.055Z" fill="#263238"/>
<path d="M292.455 155.068C292.263 156.825 291.939 158.542 291.2 160.144C289.616 163.578 286.33 166.107 285.425 169.887C284.539 173.589 287.816 177.605 290.638 179.594C294.274 182.156 298.287 183.166 302.569 184.058C306.189 184.811 310.052 185.22 313.72 184.838C315.513 184.652 317.276 184.202 318.958 183.559C327.104 180.449 334.69 171.509 330.093 162.536C329.191 160.775 327.657 159.443 326.535 157.806C324.691 155.113 324.719 151.694 323.846 148.654C323.017 145.769 320.421 143.167 317.74 141.893C315.963 141.049 314.225 140.692 312.608 139.529C309.663 137.412 305.185 138.191 301.896 139.176C298.4 140.224 294.968 142.476 293.723 146.064C292.731 148.923 292.786 152.053 292.455 155.068Z" fill="#0D2354"/>
<path d="M336.239 250.4H286.57C286.862 248.354 287.191 246.298 287.485 244.24C287.597 243.472 287.108 242.702 287.204 241.929C287.249 241.566 287.295 241.202 287.335 240.839C287.512 239.25 287.653 237.601 287.755 235.911C287.945 232.507 287.982 228.927 287.779 225.282C287.512 220.293 286.814 215.199 285.557 210.362C285.543 210.325 285.53 210.288 285.519 210.247C285.506 210.172 285.479 210.095 285.469 210.031C285.404 209.804 285.34 209.576 285.279 209.36C284.554 206.731 283.64 204.205 282.535 201.803C280.961 198.338 278.953 195.162 276.477 192.458C275.867 191.785 275.233 191.137 274.56 190.528C274.319 190.3 274.204 190.02 274.204 189.702C274.204 189.207 274.434 188.635 274.752 188.153C274.763 188.14 274.776 188.127 274.776 188.116C274.878 187.964 274.993 187.811 275.108 187.672C280.324 181.549 292.859 175.316 302.065 172.891H302.116L303.373 172.763H303.424L311.956 171.963L314.418 171.736L314.445 171.723H314.509C314.662 171.709 314.94 171.696 315.322 171.696C317.531 171.685 322.991 171.848 324.59 172.18C324.616 172.18 324.64 172.193 324.667 172.204C324.833 172.268 325.01 172.434 325.175 172.674C325.822 173.613 326.432 175.632 326.889 176.915C327.055 177.372 327.194 177.728 327.32 177.918C328.691 180.116 329.937 182.338 330.953 184.685C331.055 184.891 331.13 185.081 331.218 185.284C331.892 186.896 332.63 188.509 333.301 190.134C333.389 190.324 333.467 190.514 333.555 190.717C334.33 192.624 335.015 194.565 335.421 196.573C335.726 198.044 335.865 199.557 335.79 201.119V201.22C335.766 201.576 335.74 201.932 335.715 202.287C335.702 202.4 335.688 202.515 335.675 202.63C335.664 202.782 335.638 202.934 335.624 203.087C335.218 206.349 334.317 209.6 333.694 212.902C333.592 213.461 333.491 214.02 333.402 214.579C333.328 215.06 333.25 215.544 333.199 216.025C333.135 216.571 333.084 217.116 333.047 217.664C333.033 217.956 333.009 218.261 333.009 218.552C332.983 219.023 332.959 219.48 332.959 219.948C332.932 220.71 332.921 221.472 332.945 222.234C332.983 226.576 333.44 230.894 334.127 235.186C334.325 236.437 334.439 237.689 334.666 238.935C334.802 239.689 334.151 240.443 334.298 241.194C334.728 243.389 335.199 245.598 335.656 247.796C335.715 248.079 335.777 248.362 335.841 248.651C335.969 249.223 336.103 249.806 336.239 250.4Z" fill="#0E6739"/>
<path d="M323.581 189.163C328.176 189.163 331.901 185.437 331.901 180.842C331.901 176.247 328.176 172.521 323.581 172.521C318.985 172.521 315.26 176.247 315.26 180.842C315.26 185.437 318.985 189.163 323.581 189.163Z" fill="#FFC4B6"/>
<path d="M355.666 213.814C358.916 213.814 361.55 211.18 361.55 207.93C361.55 204.681 358.916 202.047 355.666 202.047C352.417 202.047 349.783 204.681 349.783 207.93C349.783 211.18 352.417 213.814 355.666 213.814Z" fill="#FFC4B6"/>
<path d="M328.948 174.484L329.147 174.696C338.692 184.849 348.813 194.444 359.462 203.433L351.871 212.424L351.753 212.346C340.14 204.645 328.98 196.282 318.329 187.297L318.213 187.2L328.948 174.484Z" fill="#FFC4B6"/>
<path d="M355.818 213.81C359.067 213.81 361.701 211.176 361.701 207.927C361.701 204.677 359.067 202.043 355.818 202.043C352.568 202.043 349.934 204.677 349.934 207.927C349.934 211.176 352.568 213.81 355.818 213.81Z" fill="#FFC4B6"/>
<path d="M374.726 179.393C377.087 179.393 379.001 177.479 379.001 175.118C379.001 172.758 377.087 170.844 374.726 170.844C372.366 170.844 370.452 172.758 370.452 175.118C370.452 177.479 372.366 179.393 374.726 179.393Z" fill="#FFC4B6"/>
<path d="M350.72 204.989C352.284 202.269 355.639 197.526 359.2 192.167C363.377 185.881 368.445 177.465 371.022 172.982L378.433 177.253C373.78 186.404 366.71 200.066 360.915 210.865L350.72 204.989Z" fill="#FFC4B6"/>
<path d="M346.93 191.634C340.804 185.948 335.911 181.148 331.162 176.166L329.14 174.163C327.375 172.678 325.139 171.964 322.838 172.153C320.525 172.342 318.423 173.421 316.922 175.191C314.594 177.948 314.208 181.895 315.946 185.03C316.488 186.008 317.258 186.836 317.94 187.517C320.689 190.258 331.411 199.134 335.911 202.817L346.93 191.634Z" fill="#0E6739"/>
<path d="M281.587 201.87C286.183 201.87 289.908 198.144 289.908 193.549C289.908 188.954 286.183 185.229 281.587 185.229C276.992 185.229 273.267 188.954 273.267 193.549C273.267 198.144 276.992 201.87 281.587 201.87Z" fill="#FFC4B6"/>
<path d="M272.8 240.496C276.049 240.496 278.683 237.862 278.683 234.612C278.683 231.363 276.049 228.729 272.8 228.729C269.55 228.729 266.916 231.363 266.916 234.612C266.916 237.862 269.55 240.496 272.8 240.496Z" fill="#FFC4B6"/>
<path d="M289.724 195.291L289.631 195.567C285.169 208.768 281.47 222.215 278.553 235.842L267.047 233.379L267.06 233.238C268.386 219.367 270.509 205.584 273.42 191.956L273.452 191.809L289.724 195.291Z" fill="#FFC4B6"/>
<path d="M272.8 240.496C276.049 240.496 278.684 237.861 278.684 234.612C278.684 231.363 276.049 228.729 272.8 228.729C269.551 228.729 266.917 231.363 266.917 234.612C266.917 237.861 269.551 240.496 272.8 240.496Z" fill="#FFC4B6"/>
<path d="M309.197 228.432C311.558 228.432 313.472 226.518 313.472 224.158C313.472 221.797 311.558 219.883 309.197 219.883C306.836 219.883 304.923 221.797 304.923 224.158C304.923 226.518 306.836 228.432 309.197 228.432Z" fill="#FFC4B6"/>
<path d="M271.176 228.954C274.191 228.085 279.899 227.006 286.184 225.627C293.556 224.009 303.049 221.479 308.017 220.047L310.378 228.268C300.674 231.614 286.095 236.525 274.424 240.264L271.176 228.954Z" fill="#FFC4B6"/>
<path d="M283.062 219.232C285.193 211.15 287.123 204.574 289.283 198.039L290.098 195.312C290.576 193.055 290.153 190.746 288.904 188.805C287.647 186.853 285.706 185.508 283.437 185.016C279.909 184.261 276.245 185.779 274.298 188.788C273.69 189.727 273.322 190.796 273.043 191.719C271.919 195.435 269.137 209.072 268.007 214.777L283.062 219.232Z" fill="#0E6739"/>
<path d="M309.71 181.086C312.766 180.87 316.148 177.81 315.849 174.484L314.387 171.497L313.315 159.432L313.029 156.225L301.964 157L302.062 158.096L302.598 164.125L302.599 164.128L302.607 164.208L302.622 164.374L303.63 175.638C303.929 178.963 306.654 181.298 309.71 181.086Z" fill="#FFC4B6"/>
<path d="M302.607 164.205C302.647 164.289 302.686 164.37 302.723 164.444C303.371 165.699 304.112 166.885 304.973 167.902C307.434 170.811 310.954 172.161 314.46 172.242L314.451 172.126L314.444 172.05L313.315 159.43L313.028 156.223L301.964 156.998L302.062 158.094L302.598 164.123L302.599 164.126L302.607 164.205Z" fill="#EA8883"/>
<path d="M296.923 156.723C298.007 156.091 299.195 156.442 300.017 157.32C300.154 157.465 300.984 158.346 300.965 158.453C301.419 155.964 302.865 153.595 305.076 152.365C306.08 151.807 307.192 151.507 308.238 151.046C308.306 151.016 310.435 150.069 310.217 149.906C312.61 151.697 315.392 152.963 318.313 153.591C318.852 156.87 318.674 160.214 317.796 163.424C317.282 165.307 316.436 167.059 315.113 168.278C314.935 168.445 314.75 168.601 314.553 168.743C313.678 169.391 312.626 169.828 311.36 169.963C309.307 170.184 307.063 169.682 305.16 168.64C304.328 168.184 303.563 167.627 302.909 166.981C302.646 166.725 302.4 166.455 302.176 166.172C302.107 166.088 302.041 166 301.978 165.912C301.541 165.324 301.173 164.687 300.867 164.025C300.854 164.001 300.845 163.975 300.833 163.951C300.486 163.161 300.24 162.33 300.104 161.467C299.388 161.557 298.649 161.461 297.976 161.196C297.572 161.034 297.211 160.787 296.914 160.482C295.998 159.538 295.561 157.517 296.923 156.723Z" fill="#FFC4B6"/>
<path d="M299.727 159.017C299.487 157.969 298.382 157.496 297.44 157.989C297.309 158.058 297.222 157.844 297.353 157.776C298.439 157.207 299.684 157.805 299.956 158.989C299.989 159.133 299.76 159.16 299.727 159.017Z" fill="#EA8883"/>
<path d="M374.487 179.224C376.715 179.224 378.522 177.418 378.522 175.189C378.522 172.961 376.715 171.154 374.487 171.154C372.258 171.154 370.452 172.961 370.452 175.189C370.452 177.418 372.258 179.224 374.487 179.224Z" fill="#FFC4B6"/>
<path d="M377.04 178.315C379.986 175.907 383.847 174.601 387.268 174.225C387.953 174.15 388.654 174.105 389.294 173.852C390.823 173.249 391.634 171.693 392.816 170.649C394.185 169.44 395.838 168.443 397.312 167.356C397.974 166.868 398.69 166.292 398.803 165.477C398.86 165.067 398.751 164.645 398.824 164.238C398.891 163.865 399.105 163.534 399.212 163.171C399.372 162.63 399.089 161.867 398.485 161.74C398.105 161.661 397.728 161.862 397.394 162.059C395.568 163.134 393.799 164.309 391.911 165.271C390.024 166.232 387.994 166.984 385.881 167.137C387.115 166.546 388.227 165.699 389.124 164.666C389.392 164.359 389.647 164.02 389.735 163.622C389.822 163.224 389.698 162.754 389.348 162.546C388.835 162.242 388.203 162.618 387.719 162.965C385.933 164.243 383.954 165.304 381.806 165.757C380.538 166.024 379.139 166.024 377.97 166.629C375.493 167.912 373.03 170.489 371.36 172.638L377.04 178.315Z" fill="#FFC4B6"/>
<path d="M280.487 240.495L279.849 237.771H284.115L280.487 240.495Z" fill="white"/>
<path d="M273.941 241.336L284.114 237.773L285.551 224.966L281.585 225.8L283.06 219.228L276.576 211.91L268.003 214.774C267.37 217.935 266.25 227.121 265.397 234.497C264.841 239.229 269.439 242.907 273.941 241.336Z" fill="#0E6739"/>
<path d="M278.685 236.779L284.114 237.772L285.551 224.965L281.585 225.798L278.685 236.779Z" fill="white"/>
<path d="M302.224 172.817C302.607 172.601 302.906 172.505 303.399 172.342C303.409 174.214 304.317 176.157 305.628 177.437C307.021 178.797 308.654 179.931 310.468 180.653L310.94 180.841L304.175 185.511C303.758 184.423 303.342 183.334 302.926 182.245C302.379 180.815 301.832 179.385 301.285 177.954C300.634 176.254 300.36 173.87 302.224 172.817Z" fill="white"/>
<path d="M310.981 180.791C315.115 178.028 315.115 174.077 314.387 171.496C315.564 171.477 316.722 172.503 317 173.647L319.29 183.057L310.939 180.841L310.981 180.791Z" fill="white"/>
<path d="M363.239 211.967L361.138 207.267L364.574 205.875L363.239 211.967Z" fill="white"/>
<path d="M335.911 202.816L351.021 214.589C354.143 217.021 358.695 216.126 360.664 212.694L364.577 205.872L356.927 194.536L354.326 197.973L346.93 191.633L338.837 192.51L335.911 202.816Z" fill="#0E6739"/>
<path d="M354.991 197.093L359.266 210.605L364.577 205.872L356.927 194.535L354.991 197.093Z" fill="white"/>
<path d="M281.278 235.264C281.278 235.721 281.659 236.102 282.116 236.102C282.585 236.102 282.966 235.721 282.966 235.264C282.966 234.794 282.585 234.426 282.116 234.426C281.659 234.426 281.278 234.794 281.278 235.264ZM281.519 235.264C281.519 234.934 281.786 234.654 282.116 234.654C282.446 234.654 282.725 234.934 282.725 235.264C282.725 235.594 282.446 235.861 282.116 235.861C281.786 235.861 281.519 235.594 281.519 235.264Z" fill="#0E6739"/>
<path d="M359.879 206.072C359.802 206.542 360.12 206.974 360.577 207.037C360.907 207.088 361.224 206.935 361.415 206.669C361.453 206.605 361.491 206.542 361.504 206.465C361.529 206.428 361.529 206.377 361.542 206.339C361.593 205.996 361.44 205.678 361.161 205.501C361.11 205.462 361.047 205.424 360.983 205.412C360.932 205.386 360.894 205.386 360.844 205.374C360.386 205.31 359.942 205.615 359.879 206.072ZM360.107 206.11C360.158 205.793 360.475 205.564 360.806 205.615C360.932 205.64 361.047 205.691 361.136 205.793C361.263 205.907 361.326 206.085 361.301 206.275C361.301 206.288 361.301 206.288 361.301 206.301C361.25 206.631 360.945 206.859 360.615 206.808C360.285 206.758 360.056 206.44 360.107 206.11Z" fill="#0E6739"/>
<path d="M284.883 234.752C284.867 234.752 284.859 234.752 284.856 234.746C284.688 234.565 284.698 234.284 284.717 234.035C284.76 233.5 284.816 233.853 284.883 234.752Z" fill="#66170E"/>
<path d="M336.512 246.484C336.32 245.346 335.643 242.754 335.194 241.195C335.047 240.444 334.902 239.689 334.766 238.936C318.83 241.545 303.343 242.518 287.204 241.93C287.108 242.703 287.003 243.473 286.891 244.24C286.71 245.507 286.518 246.771 286.328 248.034C286.252 248.541 286.173 249.06 286.094 249.588C286.089 249.623 286.084 249.658 286.078 249.687C285.528 253.358 285.188 258.036 285.198 261.34C285.199 261.59 285.169 261.87 285.337 262.052C285.498 262.225 297.207 257.695 302.677 257.58C308.64 257.452 314.595 257.815 320.552 258.032C325.937 258.225 333.688 260.876 337.542 261.358C337.539 256.363 337.281 251.043 336.512 246.484Z" fill="#66170E"/>
<path d="M335.791 203.997C334.935 199.416 334.079 194.836 333.223 190.256C333.195 190.105 333.425 190.04 333.454 190.192C334.31 194.772 335.166 199.353 336.022 203.933C336.05 204.084 335.82 204.148 335.791 203.997Z" fill="#0E6739"/>
<path d="M285.408 210.227C286.069 208.006 286.73 205.785 287.391 203.564C287.435 203.417 287.666 203.48 287.622 203.628C286.961 205.849 286.3 208.07 285.639 210.291C285.595 210.439 285.364 210.376 285.408 210.227Z" fill="#0E6739"/>
<path d="M316.137 232.245L346.68 230.293C347.502 230.24 348.208 229.583 348.446 228.65L354.717 204.069C355.109 202.532 354.094 201.001 352.74 201.087L322.197 203.039C321.375 203.092 320.669 203.749 320.43 204.682L314.16 229.263C313.768 230.8 314.783 232.331 316.137 232.245Z" fill="#C1C3D1"/>
<path d="M338.58 217.362C338.774 215.869 337.913 214.526 336.658 214.364C335.403 214.201 334.229 215.28 334.036 216.773C333.842 218.266 334.703 219.608 335.958 219.771C337.212 219.934 338.387 218.855 338.58 217.362Z" fill="#F9F9F9"/>
<path d="M350.502 207.148C350.288 207.093 350.105 206.939 349.985 206.717C349.858 206.48 349.817 206.195 349.871 205.915C349.977 205.354 350.434 204.995 350.887 205.112C351.101 205.168 351.284 205.321 351.404 205.543C351.531 205.78 351.572 206.065 351.519 206.345C351.426 206.832 351.07 207.168 350.681 207.171C350.622 207.171 350.562 207.164 350.502 207.148ZM350.185 205.999C350.151 206.179 350.176 206.362 350.257 206.512C350.33 206.648 350.442 206.742 350.571 206.775C350.853 206.848 351.136 206.618 351.204 206.261C351.238 206.081 351.213 205.899 351.132 205.748C351.059 205.612 350.947 205.518 350.818 205.485C350.781 205.475 350.745 205.471 350.71 205.471C350.467 205.473 350.244 205.688 350.185 205.999Z" fill="#F9F9F9"/>
<path d="M309.679 228.251C311.903 228.251 313.706 226.448 313.706 224.224C313.706 222 311.903 220.197 309.679 220.197C307.455 220.197 305.652 222 305.652 224.224C305.652 226.448 307.455 228.251 309.679 228.251Z" fill="#FFC4B6"/>
<path d="M308.351 219.966L310.65 228.128C311.395 227.862 312.188 227.573 312.969 227.45C314.059 227.275 315.158 227.392 316.262 227.512C316.841 227.579 317.419 227.641 318 227.663C320.137 227.745 322.244 227.27 324.296 226.726C325.22 226.483 326.107 226.598 327.063 226.498C328.122 226.384 329.172 226.179 330.216 225.966C330.657 225.88 331.105 225.784 331.499 225.568C331.957 225.315 332.722 224.492 331.954 224.112C331.721 223.996 331.45 224.003 331.186 224.012C329.674 224.066 328.008 224.114 326.62 223.513C328.764 223.393 330.894 222.967 332.918 222.251C333.712 221.969 334.553 221.589 334.953 220.847C335.058 220.656 335.131 220.409 335.084 220.187C334.961 219.603 334.228 219.671 333.792 219.76C332.67 219.992 331.402 220.417 330.249 220.371C329.188 220.329 328.146 220.605 327.093 220.262C329.429 219.555 331.782 218.928 334.114 218.216C334.733 218.027 335.797 217.686 336.039 217C336.149 216.69 336.08 216.323 335.867 216.072C335.499 215.64 334.532 215.796 334.04 215.862C333.356 215.955 332.69 216.147 332.018 216.3C330.273 216.698 328.402 217.169 326.596 217.022C328.707 216.369 330.863 215.695 332.893 214.831C333.469 214.586 334.13 214.173 334.088 213.549C334.057 213.079 333.599 212.73 333.134 212.656C332.669 212.582 332.2 212.717 331.746 212.844C328.872 213.648 325.905 213.972 323.031 214.672C321.743 214.985 319.787 215.357 318.678 214.376C318.573 214.282 318.503 214.184 318.468 214.081C318.369 213.838 318.44 213.571 318.592 213.317L319.155 209.9C318.626 210.272 318.081 210.614 317.562 211.001C317.174 211.288 316.785 211.576 316.397 211.864C315.616 212.439 314.836 213.019 314.12 213.678C313.006 214.703 312.616 216.138 311.789 217.41C310.963 218.679 309.785 219.474 308.351 219.966Z" fill="#FFC4B6"/>
<path d="M312.384 304.935C312.679 300.897 312.974 296.858 313.27 292.819C313.738 286.41 314.207 280.002 314.676 273.593C314.783 272.121 314.891 270.649 314.999 269.177C315.017 268.92 314.624 268.921 314.605 269.177C314.31 273.216 314.014 277.254 313.719 281.293C313.251 287.702 312.782 294.111 312.313 300.519C312.205 301.991 312.098 303.463 311.99 304.935C311.971 305.193 312.365 305.192 312.384 304.935Z" fill="#0D2354"/>
<path d="M335.987 244.204C323.226 246.354 310.312 247.503 297.369 247.565C293.71 247.583 290.051 247.515 286.395 247.373C286.137 247.363 286.138 247.764 286.395 247.774C299.386 248.28 312.401 247.774 325.304 246.173C328.912 245.725 332.509 245.195 336.094 244.591C336.348 244.549 336.24 244.162 335.987 244.204Z" fill="#0D2354"/>
<path d="M463.866 218.601C459.487 220.993 457.781 226.377 459.899 230.828C459.975 230.987 460.055 231.144 460.14 231.3C462.618 235.836 468.304 237.504 472.84 235.026C477.376 232.548 479.044 226.862 476.566 222.327C474.088 217.791 468.402 216.122 463.866 218.601Z" fill="#E8A695"/>
<path d="M431.522 253.619C435.212 253.619 438.204 250.628 438.204 246.938C438.204 243.247 435.212 240.256 431.522 240.256C427.832 240.256 424.84 243.247 424.84 246.938C424.84 250.628 427.832 253.619 431.522 253.619Z" fill="#E8A695"/>
<path d="M472.838 235.027C460.619 241.803 447.942 247.719 434.9 252.732L434.725 252.799L428.318 241.072C440.622 234.45 452.45 226.979 463.714 218.712L463.864 218.602L472.838 235.027Z" fill="#E8A695"/>
<path d="M463.743 218.288C468.442 215.721 474.332 217.449 476.899 222.148C478.889 225.79 478.299 230.147 475.745 233.118C474.987 234 474.049 234.698 473.08 235.333C469.707 237.544 466.29 239.708 462.824 241.81C457.977 244.749 453.034 247.531 448.005 250.152L437.442 233.828C445.617 229.561 453.581 224.904 461.308 219.873L463.743 218.288Z" fill="#0E6739"/>
<path d="M395.201 235.733L398.637 227.869C403.393 229.947 412.727 233.22 419.947 235.564C426.09 237.558 431.416 239.523 434.303 240.785L428.909 253.129C417.519 247.691 406.299 241.902 395.267 235.77L395.201 235.733Z" fill="#E8A695"/>
<path d="M431.468 253.63C435.188 253.63 438.204 250.614 438.204 246.894C438.204 243.174 435.188 240.158 431.468 240.158C427.748 240.158 424.732 243.174 424.732 246.894C424.732 250.614 427.748 253.63 431.468 253.63Z" fill="#E8A695"/>
<path d="M396.78 236.031C399.15 236.031 401.071 234.11 401.071 231.74C401.071 229.37 399.15 227.449 396.78 227.449C394.411 227.449 392.49 229.37 392.49 231.74C392.49 234.11 394.411 236.031 396.78 236.031Z" fill="#E8A695"/>
<path d="M398.311 236.778C400.542 236.778 402.35 234.97 402.35 232.739C402.35 230.508 400.542 228.699 398.311 228.699C396.08 228.699 394.271 230.508 394.271 232.739C394.271 234.97 396.08 236.778 398.311 236.778Z" fill="#E8A695"/>
<path d="M396.5 236.345C395.831 235.919 395.118 235.465 394.38 235.172C392.811 234.549 391.069 234.578 389.409 234.271C387.301 233.881 385.344 232.954 383.454 231.973C382.604 231.532 381.709 231.447 380.797 231.138C379.783 230.795 378.803 230.363 377.826 229.927C377.415 229.743 376.997 229.553 376.659 229.254C376.267 228.907 375.696 227.93 376.532 227.729C376.786 227.668 377.052 227.734 377.304 227.8C378.774 228.186 380.394 228.596 381.887 228.316C379.813 227.727 377.824 226.842 375.999 225.694C375.283 225.244 374.544 224.689 374.316 223.874C374.256 223.661 374.238 223.406 374.332 223.199C374.582 222.653 375.286 222.88 375.691 223.064C377.774 224.014 380.016 225.102 382.299 224.929C380.062 223.353 377.712 221.933 375.692 220.087C375.259 219.691 374.808 219.249 374.699 218.673C374.589 218.097 375.02 217.393 375.602 217.461C376.058 217.514 376.646 218.001 377.047 218.235C378.168 218.887 379.241 219.618 380.371 220.256C381.466 220.874 382.527 221.483 383.799 221.654C381.64 219.846 379.613 217.878 377.743 215.772C377.257 215.225 376.937 214.096 377.974 213.932C378.615 213.831 379.195 214.292 379.68 214.724C381.541 216.465 383.645 217.994 385.729 219.455C387.044 220.376 390.03 222.011 391.667 221.117C392.592 220.612 391.623 219.314 391.176 218.804C390.767 218.339 390.313 217.893 390.061 217.327C389.809 216.761 389.812 216.024 390.257 215.592C390.417 215.437 390.638 215.329 390.859 215.358C391.385 215.426 391.766 216.162 392.086 216.522C392.549 217.043 393.047 217.533 393.503 218.06C393.82 218.427 394.137 218.793 394.453 219.16C395.09 219.897 395.728 220.636 396.283 221.437C397.148 222.687 397.213 224.176 397.743 225.602C398.273 227.027 399.054 228.451 400.349 229.248L396.5 236.345Z" fill="#E8A695"/>
<path d="M391.445 222.714C390.755 225.114 391.548 227.658 393.481 229.24C393.63 229.362 393.8 229.116 393.652 228.995C391.831 227.505 391.075 225.079 391.726 222.818C391.779 222.634 391.498 222.529 391.445 222.714Z" fill="#EA8883"/>
<path d="M511.814 335.915H470.366C469.95 335.915 469.613 335.578 469.613 335.162V329.977H512.567V335.162C512.567 335.578 512.23 335.915 511.814 335.915Z" fill="#0A1E53"/>
<path d="M494.716 334.043H487.463V376.478H494.716V334.043Z" fill="#0A1E53"/>
<path d="M496.256 366.252H485.924V405.549H496.256V366.252Z" fill="#0A1E53"/>
<path d="M519.207 403.004H493.589H491.09H488.591H462.973C460.213 403.004 457.975 405.227 457.975 407.97V415.888H462.973V407.97H488.591V415.888H491.09H493.589V407.97H519.207V415.888H524.205V407.97C524.205 405.227 521.968 403.004 519.207 403.004Z" fill="#0A1E53"/>
<path d="M523.648 421.951C527.019 421.951 529.752 419.235 529.752 415.886C529.752 412.536 527.019 409.82 523.648 409.82C520.277 409.82 517.544 412.536 517.544 415.886C517.544 419.235 520.277 421.951 523.648 421.951Z" fill="#0A1E53"/>
<path d="M523.648 420.74C520.954 420.74 518.762 418.562 518.762 415.885C518.762 413.208 520.954 411.029 523.648 411.029C526.343 411.029 528.535 413.208 528.535 415.885C528.535 418.562 526.343 420.74 523.648 420.74ZM523.648 411.254C521.079 411.254 518.988 413.332 518.988 415.885C518.988 418.438 521.079 420.516 523.648 420.516C526.218 420.516 528.308 418.438 528.308 415.885C528.308 413.332 526.218 411.254 523.648 411.254Z" fill="#9D9FAA"/>
<path d="M491.09 421.951C494.461 421.951 497.194 419.235 497.194 415.886C497.194 412.536 494.461 409.82 491.09 409.82C487.719 409.82 484.986 412.536 484.986 415.886C484.986 419.235 487.719 421.951 491.09 421.951Z" fill="#0A1E53"/>
<path d="M491.09 420.74C488.396 420.74 486.204 418.562 486.204 415.885C486.204 413.208 488.396 411.029 491.09 411.029C493.784 411.029 495.976 413.208 495.976 415.885C495.976 418.562 493.784 420.74 491.09 420.74ZM491.09 411.254C488.52 411.254 486.43 413.332 486.43 415.885C486.43 418.438 488.52 420.516 491.09 420.516C493.659 420.516 495.75 418.438 495.75 415.885C495.75 413.332 493.659 411.254 491.09 411.254Z" fill="#9D9FAA"/>
<path d="M458.532 421.951C461.903 421.951 464.636 419.235 464.636 415.886C464.636 412.536 461.903 409.82 458.532 409.82C455.161 409.82 452.428 412.536 452.428 415.886C452.428 419.235 455.161 421.951 458.532 421.951Z" fill="#0A1E53"/>
<path d="M453.645 415.885C453.645 413.208 455.837 411.029 458.532 411.029C461.226 411.029 463.418 413.208 463.418 415.885C463.418 418.562 461.226 420.74 458.532 420.74C455.837 420.74 453.645 418.562 453.645 415.885ZM453.871 415.885C453.871 418.438 455.962 420.515 458.531 420.515C461.101 420.515 463.191 418.438 463.191 415.885C463.191 413.331 461.101 411.254 458.531 411.254C455.962 411.254 453.871 413.331 453.871 415.885Z" fill="#9D9FAA"/>
<path d="M534.127 304.517C533.297 308.269 532.086 312.014 529.859 315.145C527.175 318.92 523.199 321.573 519.088 323.703C509.319 328.778 497.539 330.094 485.311 331.103C479.048 331.619 472.665 332.06 466.379 332.882H420.147C419.325 332.882 418.577 332.546 418.032 332.007C417.673 331.649 417.412 331.2 417.269 330.699C419.93 330.228 421.211 329.87 423.76 329.892C432.221 329.959 441.175 329.877 448.919 326.902C451.191 326.035 453.358 324.914 455.377 323.479C463.322 317.828 467.53 308.126 469.025 298.5C470.527 288.865 469.683 279.044 469.57 269.297C469.451 259.551 469.391 251.07 473.681 242.317L539.359 240.297C531.623 260.074 538.686 283.775 534.127 304.517Z" fill="#9295A0"/>
<path d="M436.229 332.88H420.147C418.495 332.88 417.157 331.541 417.157 329.89C417.157 328.239 418.495 326.9 420.147 326.9H436.229C453.773 326.9 467.995 312.678 467.995 295.134V269.347C467.995 260.086 469.048 252.192 470.791 244.628C471.175 242.963 472.874 241.962 474.518 242.426L474.519 242.426C476.052 242.859 476.978 244.41 476.621 245.962C474.992 253.051 473.975 260.635 473.975 269.347V295.134C473.975 315.98 457.075 332.88 436.229 332.88Z" fill="#A9ABB8"/>
<path d="M540.045 240.405L540.044 240.405C538.4 239.941 536.701 240.942 536.317 242.607C534.573 250.171 533.521 260.085 533.521 269.346V295.133C533.521 312.677 519.299 326.899 501.755 326.899H485.312H466.377H420.147C418.495 326.899 417.157 328.237 417.157 329.889C417.157 330.165 417.195 330.442 417.269 330.696C417.411 331.197 417.673 331.645 418.032 332.004C418.577 332.542 419.325 332.879 420.147 332.879H466.377H485.312H501.755C522.602 332.879 539.501 315.979 539.501 295.133V269.346C539.501 260.635 540.518 251.03 542.147 243.941C542.504 242.389 541.577 240.837 540.045 240.405Z" fill="#A9ABB8"/>
<path d="M478.557 412.641L480.548 410.383L478.393 410.066L478.557 412.641Z" fill="#0D2354"/>
<path d="M511.467 293.885H469.068C465.067 293.885 461.824 297.128 461.824 301.13V311.07C461.824 320.562 469.518 328.256 479.009 328.256H501.527C511.014 328.256 518.712 320.562 518.712 311.07V301.13C518.712 297.128 515.469 293.885 511.467 293.885Z" fill="#66170E"/>
<path d="M508.121 326.948C516.89 323.315 521.054 313.262 517.421 304.493C513.789 295.725 503.736 291.56 494.967 295.193C486.198 298.825 482.034 308.878 485.666 317.647C489.299 326.416 499.352 330.58 508.121 326.948Z" fill="#66170E"/>
<path d="M485.604 326.948C494.373 323.315 498.537 313.262 494.905 304.493C491.273 295.725 481.22 291.56 472.451 295.193C463.682 298.825 459.518 308.878 463.15 317.647C466.782 326.416 476.835 330.58 485.604 326.948Z" fill="#66170E"/>
<path d="M468.181 394.265L469.09 408.157L461.896 414.989L480.279 416.208L479.849 409.69L478.787 393.566L468.181 394.265Z" fill="#E8A695"/>
<path d="M486.056 325.831C494.467 321.435 497.722 311.052 493.325 302.641C488.929 294.23 478.547 290.976 470.136 295.372C461.724 299.768 458.47 310.151 462.866 318.562C467.262 326.973 477.645 330.227 486.056 325.831Z" fill="#66170E"/>
<path d="M478.124 310.606L476.598 293.488L426.192 306.075L427.358 319.149L428.524 332.223L479.651 327.723L478.124 310.606Z" fill="#66170E"/>
<path d="M427.358 332.274C434.607 332.274 440.484 326.398 440.484 319.149C440.484 311.9 434.607 306.023 427.358 306.023C420.11 306.023 414.233 311.9 414.233 319.149C414.233 326.398 420.11 332.274 427.358 332.274Z" fill="#66170E"/>
<path d="M444.542 408.485L442.885 392.355L432.257 392.559L433.51 401.939C433.701 403.366 432.926 404.748 431.609 405.331L424.719 408.377C421.072 409.99 422.279 415.446 426.266 415.37L444.667 415.017L444.542 408.485Z" fill="#E8A695"/>
<path d="M427.358 319.151L414.352 320.912L428.122 402.235H448.054L440.365 317.389L427.358 319.151Z" fill="#66170E"/>
<path d="M427.358 332.278C434.607 332.278 440.484 326.401 440.484 319.153C440.484 311.904 434.607 306.027 427.358 306.027C420.11 306.027 414.233 311.904 414.233 319.153C414.233 326.401 420.11 332.278 427.358 332.278Z" fill="#66170E"/>
<path d="M435.504 408.661L430.961 405.477L406.192 416.743C405.552 417.033 405.146 417.676 405.16 418.379C405.178 419.35 405.981 420.122 406.952 420.103L445.673 419.364L444.579 408.486L435.504 408.661Z" fill="#263238"/>
<path d="M476.303 412.495L472.682 409.253L467.449 409.078C467.449 409.078 458.123 416.856 453.065 421.553C452.426 422.147 451.917 422.701 451.897 423.41C451.872 424.287 452.412 425.181 453.459 425.603C456.726 426.91 458.509 426.77 461.937 425.87L481.411 420.175L480.549 410.961L476.303 412.495Z" fill="#263238"/>
<path d="M472.06 317.154L458.937 317.406L463.755 404.439L483.563 403.289L485.183 316.902L472.06 317.154Z" fill="#66170E"/>
<path d="M472.06 330.282C479.309 330.282 485.185 324.405 485.185 317.156C485.185 309.908 479.309 304.031 472.06 304.031C464.811 304.031 458.935 309.908 458.935 317.156C458.935 324.405 464.811 330.282 472.06 330.282Z" fill="#66170E"/>
<path d="M508.568 325.485C516.979 321.089 520.234 310.707 515.838 302.295C511.441 293.884 501.059 290.63 492.648 295.026C484.237 299.422 480.982 309.805 485.378 318.216C489.775 326.627 500.157 329.882 508.568 325.485Z" fill="#66170E"/>
<path d="M500.637 310.264L499.111 293.146L470.894 303.831L472.06 316.905L473.226 329.978L502.164 327.381L500.637 310.264Z" fill="#66170E"/>
<path d="M472.06 330.026C479.309 330.026 485.185 324.149 485.185 316.901C485.185 309.652 479.309 303.775 472.06 303.775C464.811 303.775 458.935 309.652 458.935 316.901C458.935 324.149 464.811 330.026 472.06 330.026Z" fill="#66170E"/>
<path d="M518.631 293.75L514.998 257.571L516.542 223.732C513.114 219.591 499.02 214.474 491.164 213.719L474.044 214.521C467.547 216.553 463.054 217.612 460.403 221.458L458.951 229.421L462.232 260.893L461.811 297.307L464.856 296.422C477.808 296.422 484.24 295.86 494.694 295.86C505.249 295.86 509.764 301.403 519.518 301.403L518.631 293.75Z" fill="#0E6739"/>
<path d="M479.056 278.766L478.205 270.436C483.243 269.922 492.744 268.227 500.004 266.757C506.18 265.507 511.649 264.623 514.706 264.311L516.042 277.387C503.755 278.227 491.445 278.687 479.129 278.766L479.056 278.766Z" fill="#E8A695"/>
<path d="M515.228 277.436C518.858 277.436 521.8 274.493 521.8 270.863C521.8 267.234 518.858 264.291 515.228 264.291C511.598 264.291 508.656 267.234 508.656 270.863C508.656 274.493 511.598 277.436 515.228 277.436Z" fill="#E8A695"/>
<path d="M478.484 278.801C480.796 278.801 482.671 276.927 482.671 274.615C482.671 272.302 480.796 270.428 478.484 270.428C476.171 270.428 474.297 272.302 474.297 274.615C474.297 276.927 476.171 278.801 478.484 278.801Z" fill="#E8A695"/>
<path d="M500.221 231.324C500.923 236.183 505.299 239.604 510.129 239.18C510.301 239.165 510.474 239.145 510.648 239.12C515.679 238.393 519.169 233.725 518.443 228.694C517.716 223.662 513.048 220.172 508.017 220.898C502.985 221.625 499.495 226.293 500.221 231.324Z" fill="#E8A695"/>
<path d="M515.228 277.438C518.858 277.438 521.8 274.495 521.8 270.865C521.8 267.235 518.858 264.293 515.228 264.293C511.598 264.293 508.656 267.235 508.656 270.865C508.656 274.495 511.598 277.438 515.228 277.438Z" fill="#E8A695"/>
<path d="M518.44 228.693C520.49 242.283 521.59 255.999 521.731 269.742L521.733 269.926L508.723 271.804C506.845 258.189 504.021 244.722 500.269 231.501L500.219 231.324L518.44 228.693Z" fill="#E8A695"/>
<path d="M499.888 231.326C499.135 226.113 502.751 221.278 507.964 220.525C512.003 219.942 515.816 221.982 517.678 225.356C518.231 226.358 518.552 227.462 518.804 228.573C519.684 232.441 520.506 236.333 521.252 240.25C522.297 245.728 523.164 251.238 523.853 256.774L505.179 260.904C504.054 251.904 502.496 242.964 500.513 234.114L499.888 231.326Z" fill="#0E6739"/>
<path d="M482.859 217.594C479.658 217.876 476.887 217.449 476.605 214.247L476.381 211.727L476.37 211.616L476.364 211.543L475.286 199.397L475.011 196.31L486.604 195.279L486.698 196.334L487.216 202.136V202.139L487.222 202.216L487.236 202.376L488.198 213.217C488.48 216.419 486.061 217.308 482.859 217.594Z" fill="#E8A695"/>
<path d="M487.221 202.215C487.195 202.302 487.169 202.384 487.143 202.46C486.697 203.754 486.14 204.997 485.43 206.098C483.4 209.25 479.997 211.092 476.381 211.727L476.37 211.616L476.364 211.543L475.286 199.397L475.011 196.31L486.604 195.279L486.698 196.334L487.216 202.136V202.139L487.221 202.215Z" fill="#EA8883"/>
<path d="M482.598 211.984L474.043 214.519C473.872 217.042 475.786 219.418 478.309 219.589H484.32C487.163 219.589 489.967 217.766 490.827 215.057C490.931 214.73 491.021 214.394 491.098 214.054C491.115 213.98 491.139 213.851 491.164 213.717L482.598 211.984Z" fill="#E8A695"/>
<path d="M478.604 270.601C475.302 268.916 470.317 267.38 466.685 266.64C462.992 265.887 457.719 268.633 455.408 271.434C454.779 272.195 454.151 272.957 453.522 273.718C453.352 273.924 453.178 274.221 453.341 274.433C453.608 274.781 454.912 274.86 455.296 274.841C455.644 274.825 455.98 274.71 456.3 274.572C456.894 274.316 457.453 273.978 457.955 273.571C457.661 273.809 456.978 274.898 457.186 275.275C457.5 275.848 458.647 275.944 459.23 275.96C459.985 275.98 460.714 275.767 461.355 275.37C462.009 274.965 462.594 274.452 463.268 274.082C464.397 273.463 465.705 273.28 466.981 273.107C465.2 273.503 464.063 274.67 462.673 275.851C462.03 276.398 461.031 277.402 462.492 277.568C463.476 277.68 464.261 276.986 465.081 276.565C465.864 276.164 466.649 275.545 467.546 275.432C468.635 275.295 469.475 276.208 470.364 276.704C470.998 277.058 471.642 277.567 472.329 277.797C473.121 278.062 473.873 277.855 474.671 277.865C475.074 277.87 475.546 278.07 475.932 278.181C476.377 278.309 476.819 278.45 477.257 278.604C477.813 277.587 477.983 276.407 478.064 275.251C478.12 274.454 478.138 273.653 478.231 272.859C478.319 272.097 478.554 271.366 478.604 270.601Z" fill="#E8A695"/>
<path d="M460.809 265.706C459.797 265.652 458.929 266.381 458.202 267.086C457.726 267.547 457.26 268.018 456.832 268.523C456.035 269.464 455.374 270.521 454.879 271.651C454.807 271.815 454.738 271.984 454.73 272.163C454.697 272.863 455.623 273.26 456.285 273.03C456.946 272.8 457.398 272.207 457.889 271.707C459.519 270.047 461.973 269.238 464.27 269.604C464.755 269.681 465.314 269.788 465.688 269.47C466.022 269.185 466.047 268.654 465.864 268.254C465.246 266.907 462.194 265.78 460.809 265.706Z" fill="#E8A695"/>
<path d="M478.484 278.801C480.796 278.801 482.671 276.927 482.671 274.615C482.671 272.302 480.796 270.428 478.484 270.428C476.172 270.428 474.297 272.302 474.297 274.615C474.297 276.927 476.172 278.801 478.484 278.801Z" fill="#E8A695"/>
<path d="M447.064 277.616H407.697C405.779 277.616 404.134 276.246 403.786 274.36L398.727 246.909C398.467 245.499 399.55 244.199 400.983 244.199H437.553C439.496 244.199 441.162 245.586 441.514 247.497L447.064 277.616Z" fill="#7D7E84"/>
<path d="M468.034 274.996H404.822C404.72 274.996 404.636 275.079 404.636 275.182V277.428C404.636 277.531 404.72 277.614 404.822 277.614H468.034C468.137 277.614 468.22 277.531 468.22 277.428V275.182C468.22 275.079 468.137 274.996 468.034 274.996Z" fill="#7D7E84"/>
<path d="M445.156 277.616H405.789C403.871 277.616 402.226 276.246 401.878 274.36L396.819 246.909C396.559 245.499 397.642 244.199 399.075 244.199H435.645C437.588 244.199 439.254 245.586 439.606 247.497L445.156 277.616Z" fill="#8C8C8D"/>
<path d="M420.069 263.712C421.62 263.712 422.877 262.455 422.877 260.905C422.877 259.355 421.62 258.098 420.069 258.098C418.519 258.098 417.262 259.355 417.262 260.905C417.262 262.455 418.519 263.712 420.069 263.712Z" fill="white"/>
<path d="M495.496 190.064C496.756 193.645 493.299 196.956 490.707 198.853C487.839 200.952 484.052 201.558 480.885 199.687C479.568 198.908 478.493 197.79 477.342 196.78C474.953 194.684 471.949 193.569 469.585 191.557C467.656 189.915 465.604 188.47 466.086 185.586C466.979 180.254 473.792 178.55 478.327 178.237C481.82 177.995 486.239 177.998 489.518 179.349C491.439 180.141 493.149 181.692 493.646 183.709C494.026 185.251 493.673 186.869 493.315 188.416C494.292 188.37 495.172 189.143 495.496 190.064Z" fill="#0D2354"/>
<path d="M491.404 200.602C491.061 200.896 490.658 201.12 490.215 201.251C489.481 201.467 488.693 201.496 487.946 201.33C487.495 203.122 486.59 204.745 485.308 206.09C485.045 206.366 484.76 206.627 484.458 206.871C483.706 207.488 482.847 208.001 481.926 208.401C479.819 209.315 477.407 209.626 475.265 209.195C473.945 208.93 472.878 208.368 472.019 207.601C471.826 207.433 471.645 207.251 471.474 207.057C470.198 205.645 469.476 203.716 469.116 201.682C468.787 199.826 468.796 197.929 468.957 196.056C469.115 194.203 469.51 191.159 470.239 189.429C470.685 189.583 471.131 189.737 471.583 189.87C476.102 191.198 481.084 190.335 485.261 188.162C485.138 191.125 485.767 195.307 487.416 197.772C487.897 197.27 488.669 196.598 489.268 196.393C490.075 196.118 491.048 196.136 491.758 196.641C493.115 197.607 492.461 199.695 491.404 200.602Z" fill="#E8A695"/>
<path d="M488.573 198.811C488.93 197.72 490.133 197.303 491.094 197.924C491.226 198.009 491.33 197.788 491.2 197.704C490.131 197.013 488.749 197.497 488.353 198.706C488.304 198.853 488.524 198.96 488.573 198.811Z" fill="#EA8883"/>
<path d="M487.957 201.959C487.823 202.674 487.517 203.348 487.155 203.979C486.201 205.642 484.831 207.063 483.211 208.089C480.919 209.54 478.254 209.912 475.594 209.53C472.014 209.015 470.04 205.776 469.283 202.53C469.878 201.59 470.71 200.815 471.685 200.396C473.68 199.539 476.057 199.944 477.377 201.736C478.17 202.811 478.807 204.32 480.098 204.892C482.187 205.817 484.432 204.094 485.376 202.318C486.335 200.512 486.749 198.05 486.783 196.018C486.799 195.008 487.113 193.075 487.634 192.168C487.684 192.588 487.383 193.962 487.556 194.349C487.782 194.852 488.207 195.27 488.31 195.813C488.428 196.443 488.056 197.095 487.916 197.698C487.584 199.119 488.211 200.511 487.967 201.906C487.964 201.923 487.961 201.941 487.957 201.959Z" fill="#0D2354"/>
<path d="M504.992 261.18L502.189 243.344L502.637 243.273L505.366 260.634L506.895 260.296L506.992 260.739L504.992 261.18Z" fill="#3768F4"/>
<path d="M480.706 222.954C478.208 222.954 475.701 222.645 473.87 221.439C472.203 220.34 471.344 218.373 471.517 216.041L471.969 216.073C471.81 218.237 472.594 220.055 474.12 221.06C476.426 222.582 479.934 222.608 483.052 222.426C486.006 222.261 489.326 221.836 491.549 219.936C492.775 218.887 493.474 217.12 493.372 215.322L493.826 215.297C493.935 217.232 493.176 219.142 491.843 220.28C489.517 222.268 486.107 222.709 483.078 222.88C482.303 222.924 481.504 222.954 480.706 222.954Z" fill="#3768F4"/>
<path d="M204.011 273.927C206.375 273.927 208.291 272.01 208.291 269.646C208.291 267.282 206.375 265.365 204.011 265.365C201.647 265.365 199.73 267.282 199.73 269.646C199.73 272.01 201.647 273.927 204.011 273.927Z" fill="#FFC4B6"/>
<path d="M205.116 265.512C207.44 265.678 214.462 265.335 218.106 265.771C221.811 266.213 225.911 270.436 227.21 273.789C227.564 274.7 227.917 275.612 228.271 276.523C228.366 276.77 228.437 277.103 228.219 277.251C227.859 277.495 226.609 277.163 226.254 277.026C225.932 276.902 225.652 276.689 225.395 276.46C224.916 276.034 224.496 275.543 224.151 275.003C224.353 275.319 224.655 276.555 224.343 276.845C223.869 277.285 222.761 277.018 222.208 276.851C221.492 276.635 220.873 276.208 220.395 275.635C219.907 275.05 219.517 274.386 218.998 273.829C218.131 272.896 216.958 272.316 215.813 271.756C217.364 272.682 218.068 274.133 219.006 275.676C219.44 276.39 220.067 277.645 218.641 277.346C217.682 277.144 217.161 276.247 216.521 275.597C215.91 274.975 215.366 274.15 214.558 273.764C213.577 273.296 212.503 273.892 211.513 274.082C210.807 274.217 210.043 274.494 209.326 274.497C208.499 274.499 207.856 274.07 207.104 273.83C206.724 273.71 206.217 273.751 205.821 273.735C205.362 273.716 204.655 273.878 204.208 273.923C204.001 272.795 204.446 271.428 204.729 270.317C204.925 269.55 205.158 268.792 205.318 268.017C205.472 267.275 204.925 266.247 205.116 265.512Z" fill="#FFC4B6"/>
<path d="M224.1 266.797C225.068 267.061 225.656 268.017 226.12 268.906C226.423 269.487 226.715 270.075 226.96 270.683C227.416 271.816 227.707 273.015 227.82 274.231C227.837 274.407 227.849 274.588 227.801 274.759C227.614 275.427 226.62 275.511 226.07 275.089C225.52 274.667 225.28 273.969 224.974 273.346C223.96 271.278 221.906 269.754 219.633 269.382C219.153 269.303 218.595 269.23 218.343 268.814C218.117 268.442 218.259 267.936 218.556 267.617C219.556 266.543 222.775 266.434 224.1 266.797Z" fill="#FFC4B6"/>
<path d="M204.021 273.929L203.696 265.376C198.523 265.573 190.223 263.358 187.083 263.477L187.594 276.904C192.937 276.421 194.479 275.862 203.946 273.94L204.021 273.929Z" fill="#FFC4B6"/>
<path d="M193.118 273.822C195.13 270.705 194.234 266.547 191.116 264.535C187.999 262.523 183.84 263.419 181.829 266.537C179.817 269.654 180.713 273.813 183.831 275.824C186.948 277.836 191.106 276.94 193.118 273.822Z" fill="#FFC4B6"/>
<path d="M207.588 271.961C208.869 269.975 208.298 267.326 206.312 266.045C204.326 264.763 201.678 265.334 200.396 267.32C199.114 269.306 199.685 271.955 201.671 273.237C203.657 274.518 206.306 273.947 207.588 271.961Z" fill="#FFC4B6"/>
<path d="M181.547 224.978C183.219 229.71 180.882 234.885 176.308 236.794C176.145 236.862 175.979 236.926 175.81 236.986C170.91 238.717 165.534 236.149 163.803 231.249C162.071 226.349 164.64 220.973 169.54 219.241C174.44 217.51 179.815 220.078 181.547 224.978Z" fill="#FFC4B6"/>
<path d="M187.516 276.904C191.227 276.904 194.235 273.896 194.235 270.185C194.235 266.475 191.227 263.467 187.516 263.467C183.806 263.467 180.798 266.475 180.798 270.185C180.798 273.896 183.806 276.904 187.516 276.904Z" fill="#FFC4B6"/>
<path d="M163.805 231.247C168.403 244.523 174.699 259.748 181.096 272.256L181.182 272.423L193.851 267.946C189.086 254.73 184.47 238.911 181.588 225.16L181.549 224.977L163.805 231.247Z" fill="#FFC4B6"/>
<path d="M109.686 250.934C111.377 250.549 113.474 251.443 113.853 253.3C115.264 260.2 116.675 267.1 118.086 274C119.917 282.956 121.748 291.912 123.579 300.867C123.72 301.556 123.856 302.245 124.004 302.932C124.424 304.871 124.984 306.78 125.679 308.639C125.828 309.037 125.955 309.504 126.161 309.881C126.186 309.927 126.208 309.97 126.222 310.002C126.317 310.216 126.412 310.429 126.51 310.641C126.933 311.555 127.389 312.454 127.877 313.335C128.772 314.947 129.775 316.498 130.878 317.975C130.903 318.009 130.936 318.059 130.969 318.113C131.077 318.267 131.22 318.416 131.334 318.556C131.622 318.912 131.916 319.263 132.216 319.609C132.865 320.357 133.54 321.081 134.241 321.78C134.887 322.425 135.554 323.048 136.242 323.648C136.585 323.948 136.934 324.242 137.287 324.531C137.456 324.669 137.627 324.803 137.797 324.94C137.878 325.001 137.959 325.062 138.04 325.123C139.566 326.26 141.171 327.291 142.84 328.205C143.644 328.646 144.462 329.059 145.294 329.445C145.502 329.542 145.711 329.637 145.921 329.73C145.967 329.75 146.038 329.787 146.108 329.826C146.533 330.036 147.02 330.18 147.457 330.343C149.197 330.989 150.981 331.517 152.793 331.921C153.709 332.125 154.632 332.298 155.56 332.439C155.619 332.448 155.694 332.467 155.766 332.488C155.942 332.515 156.14 332.515 156.299 332.533C156.851 332.594 157.404 332.643 157.957 332.682C158.971 332.753 159.986 332.782 161.002 332.782C164.225 332.785 167.449 332.782 170.672 332.782C179.792 332.782 188.911 332.782 198.031 332.782C198.215 332.782 198.4 332.782 198.584 332.782C200.356 332.782 202.053 334.34 201.971 336.169C201.889 338.005 200.483 339.557 198.584 339.557C195.89 339.557 193.196 339.557 190.501 339.557C185.069 339.557 179.637 339.557 174.204 339.557C170.121 339.557 166.037 339.557 161.954 339.557C156.169 339.557 150.42 338.744 145.009 336.629C137.221 333.585 130.541 328.569 125.445 321.942C121.403 316.686 118.646 310.475 117.316 303.986C116.739 301.167 116.163 298.348 115.587 295.529C114.535 290.384 113.483 285.24 112.431 280.095C111.372 274.916 110.313 269.737 109.255 264.558C108.639 261.549 108.024 258.54 107.409 255.531C107.379 255.388 107.35 255.244 107.321 255.101C106.967 253.369 107.821 251.359 109.686 250.934Z" fill="#999999"/>
<path d="M238.463 400.573L238.785 410.06C238.833 411.476 239.701 412.733 241.007 413.281L248.047 416.234C251.723 417.775 250.621 423.251 246.635 423.251H228.241V416.722L227.84 400.572L238.463 400.573Z" fill="#FFC4B6"/>
<path d="M267.435 424.221L241.754 413.451L237.276 416.72H228.205V426.25C228.205 426.992 228.806 427.593 229.548 427.593H266.74C267.711 427.593 268.498 426.806 268.498 425.835C268.498 425.133 268.08 424.498 267.435 424.221Z" fill="#263238"/>
<path d="M204.974 400.573L205.297 410.06C205.344 411.476 206.212 412.733 207.518 413.281L214.558 416.234C218.234 417.775 217.132 423.251 213.146 423.251H194.752V416.722L194.351 400.572L204.974 400.573Z" fill="#FFC4B6"/>
<path d="M233.946 424.221L208.265 413.451L203.786 416.72H194.715V426.25C194.715 426.992 195.316 427.593 196.059 427.593H233.251C234.222 427.593 235.009 426.806 235.009 425.835C235.009 425.133 234.591 424.498 233.946 424.221Z" fill="#263238"/>
<path d="M145.83 298.868C151.981 295.398 159.577 294.935 166.629 295.313C184.129 296.252 191.46 297.262 206.869 298.273C208.849 298.404 214.56 298.792 220.78 299.247C231.49 300.031 240.006 308.552 240.783 319.262C241.125 323.979 241.404 327.819 241.448 328.542C242.967 354.001 241.589 385.907 240.546 410.554H221.852C220.266 392.158 216.796 360.496 211.986 328.882C200.59 329.155 194.538 329.599 183.166 330.345C172.313 331.062 162.201 332.606 151.466 329.911C146.042 328.551 140.122 326.408 137.635 321.399C136.823 319.775 136.454 317.958 136.355 316.145C135.983 309.239 139.807 302.271 145.83 298.868Z" fill="#66170E"/>
<path d="M180.39 299.526C184.675 300.068 186.044 300.929 192.268 301.73C201.191 302.879 208.061 310.168 208.68 319.144C209.171 326.251 209.639 333.111 209.682 334.12C210.72 358.544 209.465 387.676 208.497 410.552H189.803C188.293 393.034 185.073 363.487 180.622 333.407C177.78 333.388 180.282 333.383 177.44 333.397C170.015 333.434 162.529 333.966 155.135 333.035C148.755 332.232 142.706 331.618 138.223 326.366C134.839 322.402 133.177 317.183 132.779 311.986C132.381 306.79 133.167 301.575 134.208 296.469C141.303 296.469 174.999 298.847 180.39 299.526Z" fill="#66170E"/>
<path d="M181.852 224.824C180.058 219.748 174.069 217.235 168.474 219.212C164.139 220.744 161.313 224.523 161.096 228.508C161.031 229.692 161.25 230.85 161.539 231.978C162.549 235.909 163.628 239.831 164.794 243.738C166.424 249.201 168.553 256.397 170.57 261.731L191.007 254.147C187.736 245.472 184.926 236.63 182.588 227.652L181.852 224.824Z" fill="#0E6739"/>
<path d="M132.237 306.707C130.878 289.555 131.036 258.409 137.135 237.296C138.321 233.191 139.757 229.068 142.37 225.687C146.348 220.54 153.754 216.385 159.049 215.275C159.049 215.275 171.739 216.403 171.771 216.416C177.927 218.992 179.679 222.279 181.275 225.62C184.187 231.711 185.462 238.481 185.827 245.222C186.167 251.519 185.188 257.724 185.27 263.986C185.309 267.043 185.756 270.235 185.906 273.336C186.237 280.196 186.571 287.055 186.892 293.915C186.9 294.074 187.04 296.991 187.03 296.991C172.06 297.725 132.237 306.707 132.237 306.707Z" fill="#0E6739"/>
<path d="M192.75 276.296L191.679 267.242C186.204 267.89 175.705 268.341 167.642 268.501C160.781 268.636 154.761 268.993 151.438 269.386L153.119 283.599C166.375 281.579 179.566 279.15 192.672 276.314L192.75 276.296Z" fill="#FFC4B6"/>
<path d="M156.669 282.227C159.848 279.879 160.522 275.399 158.174 272.22C155.827 269.041 151.347 268.367 148.168 270.714C144.989 273.062 144.315 277.542 146.662 280.721C149.01 283.9 153.49 284.574 156.669 282.227Z" fill="#FFC4B6"/>
<path d="M195.061 275.419C197.086 273.923 197.516 271.069 196.02 269.044C194.525 267.019 191.671 266.59 189.646 268.085C187.621 269.581 187.191 272.435 188.687 274.46C190.182 276.485 193.036 276.914 195.061 275.419Z" fill="#FFC4B6"/>
<path d="M163.189 231.706C163.106 237.05 158.855 241.352 153.58 241.564C153.392 241.572 153.202 241.575 153.012 241.571C147.477 241.486 143.06 236.929 143.146 231.394C143.232 225.86 147.789 221.442 153.323 221.529C158.858 221.614 163.275 226.171 163.189 231.706Z" fill="#FFC4B6"/>
<path d="M157.529 281.55C160.324 278.756 160.324 274.225 157.529 271.43C154.735 268.636 150.204 268.636 147.409 271.43C144.615 274.225 144.615 278.756 147.409 281.55C150.204 284.345 154.735 284.345 157.529 281.55Z" fill="#FFC4B6"/>
<path d="M143.149 231.395C142.822 246.355 143.539 261.32 145.294 276.181L145.317 276.379L159.627 276.601C159.765 261.638 160.946 246.703 163.162 231.904L163.192 231.706L143.149 231.395Z" fill="#FFC4B6"/>
<path d="M164.212 230.055C164.059 224.674 159.104 220.448 153.146 220.618C148.528 220.75 144.663 223.482 143.229 227.21C142.803 228.317 142.655 229.486 142.585 230.649C142.34 234.7 142.166 238.765 142.078 242.84C141.956 248.541 142.287 256.842 142.573 262.537L163.943 260.774C163.485 251.514 163.519 242.236 164.046 232.974L164.212 230.055Z" fill="#0E6739"/>
<path d="M159.049 215.278C159.642 215.848 160.479 216.492 161.39 217.081C162.305 217.67 163.303 218.203 164.219 218.548C166.059 219.238 168 219.606 169.945 219.887C170.534 219.969 172.438 220.172 172.659 219.413C172.985 218.281 171.771 216.419 171.771 216.419L173.823 201.981L168.735 200.872L163.644 199.764L163.064 201.714L162.549 203.457L159.049 215.278Z" fill="#FFC4B6"/>
<path d="M163.064 201.714C163.212 202.606 163.354 203.457 163.442 203.958C164.302 209.096 167.264 213.93 171.771 216.419L173.823 201.981L168.736 200.872L163.644 199.764L163.064 201.714Z" fill="#D38D84"/>
<path d="M166.39 201.734C165.696 202.066 165.016 202.432 164.402 202.9C163.475 203.607 163.077 204.351 162.536 205.338C162.262 205.838 161.692 206.443 161.064 206.246C160.686 206.127 160.533 205.675 160.42 205.287C160.07 204.077 159.588 202.906 158.99 201.802C158.422 200.754 157.68 199.836 157.052 198.842C154.818 195.301 150.724 190.338 154.016 186.173C154.974 184.961 156.648 184.324 158.081 184.862C158.256 182.309 160.804 180.805 163.067 180.578C166.313 180.253 169.407 181.948 172.581 180.488C173.733 179.958 174.827 179.096 176.092 179.16C177.272 179.219 178.282 180.117 178.797 181.179C178.948 181.491 179.073 181.828 179.321 182.068C180.423 183.133 182.693 182.317 184.055 182.629C185.625 182.988 186.61 184.267 186.66 185.864C186.778 189.655 183.064 194.038 179.181 194.066C177.932 194.075 176.765 193.749 175.561 194.312C174.294 194.906 173.301 196.013 172.453 197.128C171.758 198.042 171.044 199.034 170.139 199.739C169.215 200.46 168.134 200.936 167.077 201.416C166.848 201.52 166.618 201.625 166.39 201.734Z" fill="#0D2354"/>
<path d="M160.662 198.303C161.726 197.666 163.298 198.273 164.174 199.659C164.439 200.078 164.608 200.52 164.688 200.95C164.711 200.928 164.735 200.909 164.758 200.885C165.067 200.56 165.051 200.105 164.974 199.696C164.888 199.237 164.957 198.801 165.193 198.394C165.493 197.875 166.005 197.582 166.376 197.131C166.903 196.492 166.958 195.617 167.037 194.804C167.117 193.992 167.29 193.101 167.948 192.591C168.635 192.06 169.613 192.123 170.476 192.268C173.342 192.748 176.187 193.818 179.045 193.917C179.401 193.93 180.22 193.918 180.27 193.907C180.435 194.81 180.539 195.723 180.584 196.622C180.873 202.494 179.733 212.218 172.846 212.319C167.736 212.393 162.933 207.001 162.254 203.485C161.532 203.283 160.815 202.749 160.32 201.966C159.445 200.58 159.597 198.94 160.662 198.303Z" fill="#FFC4B6"/>
<path d="M161.094 199.174C162.273 198.787 163.382 199.773 163.632 200.89C163.667 201.043 163.434 201.124 163.399 200.969C163.18 199.991 162.232 199.06 161.173 199.407C161.022 199.456 160.943 199.223 161.094 199.174Z" fill="#D38D84"/>
<path d="M133.081 320.531C133.456 320.939 133.847 321.342 134.242 321.737C134.886 322.382 135.556 323.006 136.243 323.605C136.588 323.904 136.933 324.2 137.286 324.487C137.457 324.624 137.627 324.761 137.798 324.894C137.877 324.957 137.96 325.019 138.039 325.082C139.565 326.217 141.171 327.249 142.838 328.164C143.646 328.604 144.461 329.016 145.292 329.403C145.5 329.499 145.712 329.594 145.921 329.686C145.966 329.707 146.037 329.744 146.108 329.782C146.532 329.994 147.019 330.139 147.455 330.301C149.198 330.946 150.982 331.474 152.792 331.878C153.711 332.082 154.63 332.256 155.562 332.393C155.62 332.406 155.695 332.423 155.766 332.444C155.94 332.473 156.14 332.473 156.298 332.489C156.851 332.552 157.404 332.602 157.957 332.639C158.972 332.71 159.987 332.739 161.002 332.739C164.225 332.743 167.449 332.739 170.672 332.739H180.509L181.433 338.985C164.334 339.072 154.23 338.724 149.918 337.693C137.723 334.777 132.023 327.547 133.081 320.531Z" fill="#999999"/>
<path d="M100.366 426.76C100.188 427.062 99.9403 427.399 99.5946 427.514C99.067 427.69 98.5935 427.538 98.2376 427.226C98.0448 427.056 97.927 426.824 97.8948 426.57C98.7049 421.772 99.5956 416.986 100.444 412.195C102.32 401.604 104.196 391.013 106.072 380.422C108.242 368.174 110.411 355.926 112.581 343.678C114.376 333.543 116.172 323.408 117.967 313.273C118.72 309.021 119.473 304.769 120.226 300.517C120.321 299.985 120.925 299.601 121.43 299.601C121.82 299.601 122.211 299.601 122.602 299.601C129.138 299.601 135.674 299.601 142.211 299.601C147.204 299.601 152.199 299.567 157.193 299.601C166.283 299.664 174.125 306.266 175.726 315.214C176.211 317.929 176.684 320.645 177.164 323.361C178.155 328.981 179.147 334.601 180.139 340.22C181.429 347.53 182.72 354.84 184.01 362.149C185.379 369.905 186.748 377.66 188.117 385.416C189.363 392.478 190.61 399.541 191.856 406.604C192.761 411.729 193.666 416.855 194.571 421.98C194.825 423.422 195.08 424.865 195.334 426.307C195.331 426.427 195.326 426.535 195.323 426.561C195.292 426.819 195.173 427.054 194.978 427.226C194.622 427.538 194.148 427.69 193.62 427.514C193.299 427.407 193.069 427.106 192.894 426.822C192.449 424.47 192.069 422.102 191.653 419.747C190.665 414.146 189.676 408.544 188.687 402.942C187.406 395.682 186.124 388.421 184.842 381.16C183.48 373.439 182.117 365.717 180.754 357.996C179.518 350.994 178.282 343.992 177.046 336.99C176.145 331.886 175.244 326.783 174.344 321.679C173.986 319.654 173.647 317.625 173.271 315.603C172.329 310.546 169.15 306.201 164.561 303.852C161.812 302.444 158.885 302.097 155.855 302.097C149.305 302.097 142.756 302.097 136.207 302.097C131.651 302.097 127.094 302.097 122.537 302.097C122.376 303.519 121.958 304.989 121.714 306.367C121.093 309.878 120.471 313.388 119.849 316.898C117.973 327.489 116.097 338.08 114.221 348.671C112.051 360.919 109.882 373.167 107.712 385.415C105.917 395.551 104.121 405.686 102.326 415.821C101.684 419.445 101.042 423.069 100.4 426.693C100.387 426.715 100.379 426.739 100.366 426.76Z" fill="#C1C1C1"/>
<path d="M245.111 229.994C247.468 229.994 249.408 231.559 250.166 233.736C250.299 234.118 250.416 234.506 250.541 234.891C251.238 237.04 251.936 239.188 252.634 241.337C254.641 247.518 256.648 253.698 258.655 259.879C259.305 261.88 259.955 263.881 260.604 265.881C260.709 266.204 260.819 266.526 260.917 266.85C261.626 269.18 261.273 271.816 259.915 273.848C258.511 275.948 256.317 277.289 253.812 277.584C253.189 277.658 252.564 277.642 251.938 277.642C249.442 277.642 240.816 277.642 240.709 277.642C238.851 277.642 238.848 274.755 240.709 274.755C245.232 274.755 247.121 274.755 250.005 274.755C251.612 274.755 253.507 274.976 255.02 274.349C256.807 273.609 258.095 271.878 258.355 270.022C258.49 269.057 258.303 268.138 258.008 267.228C257.494 265.647 256.981 264.066 256.468 262.486C254.556 256.597 252.643 250.708 250.731 244.82C249.926 242.342 249.122 239.864 248.317 237.387C247.974 236.329 247.747 235.047 247.185 234.076C246.756 233.337 245.963 232.882 245.111 232.882C243.253 232.882 243.25 229.994 245.111 229.994Z" fill="#C1C3D1"/>
<path d="M250.356 205.233C247.633 223.355 243.812 241.295 238.916 258.954C238.453 261.126 236.318 262.512 234.146 262.049L247.261 200.463C249.433 200.926 250.819 203.061 250.356 205.233Z" fill="#DFE0EF"/>
<path d="M232.506 261.7L235.017 262.235L248.132 200.648L245.621 200.114C245.231 200.031 244.847 200.28 244.764 200.67L231.95 260.843C231.867 261.233 232.116 261.617 232.506 261.7Z" fill="#C1C3D1"/>
<path d="M207.116 277.643H230.235V276.864C230.235 275.722 229.27 274.816 228.129 274.887L207.116 276.199V277.643Z" fill="#ADB0C1"/>
<path d="M216.484 276.246C215.277 273.669 212.643 271.794 209.927 271.089C206.657 270.239 202.897 271.189 200.665 273.727C199.84 274.664 198.974 276.704 200.556 277.438C200.765 277.536 200.993 277.575 201.227 277.6H215.625C216.32 277.6 216.78 276.875 216.484 276.246Z" fill="#C1C3D1"/>
<path d="M192.627 276.085C194.991 276.085 196.908 274.168 196.908 271.804C196.908 269.44 194.991 267.523 192.627 267.523C190.263 267.523 188.346 269.44 188.346 271.804C188.346 274.168 190.263 276.085 192.627 276.085Z" fill="#FFC4B6"/>
<path d="M192.989 267.539C195.305 267.295 202.158 265.723 205.822 265.512C209.547 265.297 214.325 268.733 216.194 271.805C216.702 272.641 217.21 273.476 217.718 274.311C217.855 274.537 217.984 274.853 217.795 275.037C217.483 275.34 216.194 275.233 215.82 275.16C215.482 275.095 215.169 274.934 214.875 274.754C214.329 274.42 213.829 274.009 213.395 273.539C213.649 273.814 214.164 274.977 213.908 275.318C213.519 275.835 212.381 275.766 211.807 275.699C211.064 275.612 210.38 275.301 209.809 274.821C209.226 274.331 208.725 273.746 208.116 273.288C207.098 272.522 205.842 272.157 204.616 271.807C206.306 272.447 207.254 273.751 208.449 275.105C209.002 275.732 209.839 276.858 208.383 276.813C207.403 276.783 206.733 275.992 205.988 275.464C205.277 274.96 204.597 274.242 203.733 274.004C202.686 273.716 201.733 274.492 200.792 274.852C200.121 275.109 199.417 275.516 198.712 275.645C197.898 275.793 197.19 275.483 196.407 275.38C196.012 275.328 195.52 275.457 195.127 275.511C194.672 275.573 194.004 275.857 193.572 275.98C193.171 274.905 193.368 273.482 193.452 272.338C193.51 271.548 193.606 270.762 193.628 269.97C193.649 269.212 192.93 268.296 192.989 267.539Z" fill="#FFC4B6"/>
<path d="M142.354 262.78L141.827 244.988L142.281 244.974L142.793 262.287L163.716 260.561L163.579 235.797L164.033 235.793L164.171 260.98L163.962 260.997L142.354 262.78Z" fill="#3768F4"/>
<path d="M185.321 256.183L184.386 234.996L184.839 234.975L185.775 256.162L185.321 256.183Z" fill="#3768F4"/>
<path d="M170.665 223.008C170.025 223.008 169.445 222.93 169.015 222.848C165.469 222.172 161.987 220.665 159.464 218.716L159.741 218.358C162.21 220.263 165.621 221.737 169.1 222.402C170.132 222.598 172.083 222.781 173.53 221.771C173.915 221.503 174.175 221.034 174.262 220.452C174.365 219.76 174.208 219.026 173.861 218.585L174.217 218.305C174.638 218.84 174.832 219.708 174.71 220.52C174.605 221.227 174.278 221.803 173.789 222.143C172.823 222.817 171.669 223.008 170.665 223.008Z" fill="#3768F4"/>
<path d="M451.278 280.068H448.893V427.586H451.278V280.068Z" fill="#C1C1C1"/>
<path d="M242.985 280.068H240.601V427.586H242.985V280.068Z" fill="#C1C1C1"/>
<path d="M517.414 277.643H174.465V282.498H517.414V277.643Z" fill="#1F3D82"/>
</g>
<defs>
<clipPath id="clip0_147_7798">
<rect width="640" height="440" fill="white"/>
</clipPath>
</defs>
</svg>
