<svg width="640" height="440" viewBox="0 0 640 440" fill="none" xmlns="http://www.w3.org/2000/svg">
<rect width="640" height="440" fill="white"/>
<path fill-rule="evenodd" clip-rule="evenodd" d="M184.083 133.459C202.32 133.459 219.771 136.81 235.866 142.915V142.886C235.866 72.2575 293.123 15 363.752 15C422.932 15 472.715 55.1994 487.302 109.78C563.856 120.805 622.687 186.661 622.687 266.267C622.687 350.807 556.342 419.847 472.879 424.17V425.167H195.66C191.839 425.465 187.981 425.623 184.083 425.623C180.186 425.623 176.328 425.467 172.507 425.167H172.459V425.162C97.215 419.239 38 356.307 38 279.54C38 198.86 103.404 133.459 184.081 133.459" fill="#F4E9E7"/>
<path fill-rule="evenodd" clip-rule="evenodd" d="M403.965 289.359H244.873C233.834 289.359 224.804 304.605 224.804 323.236C224.804 341.87 233.834 357.116 244.873 357.116H403.965C415.002 357.116 424.034 341.87 424.034 323.236C424.034 304.603 415.004 289.359 403.965 289.359Z" fill="#0B8345"/>
<path fill-rule="evenodd" clip-rule="evenodd" d="M357.751 289.359H300.706C311.745 289.359 320.777 304.607 320.777 323.239C320.777 341.872 311.745 357.116 300.706 357.116H357.751C368.789 357.113 377.822 341.87 377.822 323.236C377.822 304.603 368.791 289.359 357.751 289.359Z" fill="#0E6739"/>
<path fill-rule="evenodd" clip-rule="evenodd" d="M252.292 346.789H101.794C108.035 334.66 110.469 317.427 101.794 299.682H252.292C257.331 299.682 261.463 310.297 261.463 323.236C261.463 336.174 257.331 346.789 252.292 346.789Z" fill="white"/>
<path fill-rule="evenodd" clip-rule="evenodd" d="M107.418 324.146C107.53 316.437 105.917 308.117 101.794 299.682H252.292C257.331 299.682 261.463 310.297 261.463 323.233C261.463 323.538 261.459 323.841 261.455 324.146H107.416H107.418Z" fill="#D7D7D8"/>
<path fill-rule="evenodd" clip-rule="evenodd" d="M97.0952 357.113H252.799C260.055 357.115 267.724 341.668 267.724 323.034C267.724 304.4 260.052 289.361 252.799 289.361H97.0952L97.1632 299.511L252.295 299.687C257.333 299.693 261.466 310.302 261.466 323.241C261.466 336.179 257.336 346.794 252.295 346.794L97.1632 346.619L97.0952 357.115V357.113Z" fill="#0E6739"/>
<path fill-rule="evenodd" clip-rule="evenodd" d="M241.539 310.02H224.312C217.702 314.215 219.612 330.848 215.688 341.741L225.864 332.748L233.246 341.167C238.967 331.291 235.695 314.437 241.539 310.02Z" fill="#0E6739"/>
<path fill-rule="evenodd" clip-rule="evenodd" d="M210.085 323.096H192.858C186.248 324.812 188.157 331.615 184.234 336.072L194.41 332.394L201.792 335.837C207.513 331.797 204.241 324.904 210.085 323.096Z" fill="#0E6739"/>
<path fill-rule="evenodd" clip-rule="evenodd" d="M418.399 357.113H236.713C224.108 357.113 213.794 372.359 213.794 390.99C213.794 409.624 224.108 424.869 236.713 424.869H418.399C431.002 424.869 441.318 409.624 441.318 390.99C441.318 372.356 431.004 357.113 418.399 357.113Z" fill="#821306"/>
<path fill-rule="evenodd" clip-rule="evenodd" d="M306.805 357.113H267.722C280.33 357.113 290.642 372.361 290.642 390.992C290.642 409.626 280.328 424.869 267.722 424.869H306.805C319.41 424.867 329.724 409.624 329.724 390.99C329.724 372.356 319.41 357.111 306.805 357.113Z" fill="#66170E"/>
<path fill-rule="evenodd" clip-rule="evenodd" d="M245.187 414.543H73.3176C80.4433 402.414 83.2259 385.181 73.3176 367.436H245.189C250.943 367.436 255.661 378.05 255.661 390.989C255.661 403.928 250.943 414.543 245.187 414.543Z" fill="white"/>
<path fill-rule="evenodd" clip-rule="evenodd" d="M79.7386 391.9C79.8681 384.191 78.0247 375.871 73.3152 367.436H245.189C250.943 367.436 255.661 378.05 255.661 390.987C255.661 391.292 255.657 391.595 255.652 391.9H79.7386Z" fill="#D7D7D8"/>
<path fill-rule="evenodd" clip-rule="evenodd" d="M67.9475 424.867H245.764C254.048 424.869 262.809 409.422 262.809 390.788C262.809 372.155 254.048 357.113 245.764 357.113H67.9475L68.0243 367.263L245.187 367.439C250.941 367.445 255.659 378.054 255.659 390.992C255.659 403.931 250.941 414.546 245.187 414.546L68.0243 414.371L67.9475 424.867Z" fill="#821306"/>
<path fill-rule="evenodd" clip-rule="evenodd" d="M232.906 377.773H213.234C205.685 381.969 207.866 398.602 203.385 409.495L215.008 400.502L223.437 408.92C229.972 399.045 226.233 382.191 232.906 377.773Z" fill="#66170E"/>
<path fill-rule="evenodd" clip-rule="evenodd" d="M397.081 357.113H357.999C370.606 357.113 380.918 372.361 380.918 390.992C380.918 409.626 370.604 424.869 357.999 424.869H397.081C409.687 424.867 420.001 409.624 420.001 390.99C420.001 372.356 409.687 357.111 397.081 357.113Z" fill="#66170E"/>
<path d="M584.935 424.865H15V425.704H584.935V424.865Z" fill="#000446"/>
<path fill-rule="evenodd" clip-rule="evenodd" d="M368.82 185.742H247.173C238.733 185.742 231.826 197.4 231.826 211.644C231.826 225.893 238.733 237.551 247.173 237.551H368.82C377.258 237.551 384.166 225.893 384.166 211.646C384.166 197.397 377.26 185.742 368.82 185.742Z" fill="#0B8345"/>
<path fill-rule="evenodd" clip-rule="evenodd" d="M333.481 185.742H289.863C298.303 185.742 305.209 197.4 305.209 211.646C305.209 225.896 298.303 237.551 289.863 237.551H333.481C341.921 237.551 348.828 225.893 348.828 211.646C348.828 197.397 341.921 185.742 333.481 185.742Z" fill="#0E6739"/>
<path fill-rule="evenodd" clip-rule="evenodd" d="M252.843 229.656H137.767C142.538 220.382 144.401 207.204 137.767 193.635H252.843C256.695 193.635 259.855 201.75 259.855 211.645C259.855 221.54 256.695 229.656 252.841 229.656" fill="white"/>
<path fill-rule="evenodd" clip-rule="evenodd" d="M142.068 212.341C142.153 206.446 140.92 200.084 137.767 193.635H252.846C256.697 193.635 259.857 201.75 259.857 211.643C259.857 211.876 259.855 212.108 259.851 212.341H142.066H142.068Z" fill="#D7D7D8"/>
<path fill-rule="evenodd" clip-rule="evenodd" d="M134.172 237.549H253.23C258.777 237.551 264.641 225.738 264.641 211.491C264.641 197.244 258.775 185.742 253.23 185.742H134.172L134.225 193.502L252.846 193.636C256.697 193.64 259.857 201.751 259.857 211.646C259.857 221.542 256.699 229.657 252.846 229.657L134.225 229.523L134.172 237.549Z" fill="#0E6739"/>
<path fill-rule="evenodd" clip-rule="evenodd" d="M244.621 201.539H231.449C226.395 204.747 227.854 217.465 224.854 225.795L232.636 218.92L238.281 225.356C242.657 217.805 240.153 204.919 244.621 201.539Z" fill="#0E6739"/>
<path fill-rule="evenodd" clip-rule="evenodd" d="M129.412 237.547H268.335C277.973 237.547 285.86 249.204 285.86 263.449C285.86 277.698 277.973 289.355 268.335 289.355H129.412C119.774 289.355 111.886 277.698 111.886 263.451C111.886 249.202 119.771 237.547 129.412 237.547Z" fill="#821306"/>
<path fill-rule="evenodd" clip-rule="evenodd" d="M261.856 281.462H393.276C387.827 272.188 385.7 259.01 393.276 245.441H261.856C257.456 245.441 253.848 253.557 253.848 263.452C253.848 273.347 257.456 281.462 261.858 281.462" fill="white"/>
<path fill-rule="evenodd" clip-rule="evenodd" d="M388.364 264.15C388.266 258.255 389.675 251.893 393.276 245.443H261.856C257.456 245.443 253.848 253.559 253.848 263.452C253.848 263.684 253.851 263.917 253.855 264.15H388.367H388.364Z" fill="#D7D7D8"/>
<path fill-rule="evenodd" clip-rule="evenodd" d="M397.382 289.355H261.417C255.082 289.355 248.384 277.544 248.384 263.297C248.384 249.05 255.082 237.549 261.417 237.549H397.382L397.323 245.309L261.856 245.443C257.456 245.447 253.848 253.558 253.848 263.453C253.848 273.348 257.456 281.464 261.856 281.464L397.323 281.33L397.382 289.355Z" fill="#821306"/>
<path fill-rule="evenodd" clip-rule="evenodd" d="M271.249 253.35H286.292C292.064 256.558 290.396 269.275 293.824 277.606L284.938 270.73L278.493 277.167C273.496 269.615 276.355 256.729 271.251 253.35" fill="#66170E"/>
<path fill-rule="evenodd" clip-rule="evenodd" d="M174.683 237.547H219.851C210.21 237.547 202.325 249.204 202.325 263.451C202.325 277.7 210.212 289.355 219.851 289.355H174.683C165.045 289.355 157.157 277.698 157.157 263.451C157.157 249.202 165.045 237.547 174.683 237.547Z" fill="#66170E"/>
<path fill-rule="evenodd" clip-rule="evenodd" d="M341.162 182.424C341.281 183.165 341.342 179.378 341.342 184.662C341.342 184.923 341.377 185.29 341.441 185.74H285.965L285.957 184.662C285.957 183.905 286.011 183.159 286.115 182.424H285.957V135.494C285.957 120.74 296.339 106.469 309.146 106.469C321.953 106.469 341.344 115.041 341.344 125.616V172.41H341.263V182.424H341.164H341.162Z" fill="#92B19F"/>
<path fill-rule="evenodd" clip-rule="evenodd" d="M308.909 106.471V106.467H309.146L308.909 106.471ZM332.336 182.477H332.255V379.938H503.759V136.914C503.759 120.099 493.377 106.467 480.57 106.467H309.144C321.951 106.467 332.334 120.099 332.334 136.914V182.474L332.336 182.477Z" fill="#A4D2AD"/>
<path fill-rule="evenodd" clip-rule="evenodd" d="M401.181 403.89C400.707 404.05 400.222 404.184 399.732 404.287H352.677L369.496 387.938C369.496 387.273 369.54 386.619 369.623 385.974H369.496V336.141H548.227C548.33 336.654 548.385 337.172 548.385 337.699V377.529H548.32V386.053H548.24C548.335 386.683 548.385 383.461 548.385 387.958C548.385 392.454 542.247 402.128 534 403.822H512.672V403.89H401.183H401.181Z" fill="#A4D2AD"/>
<path fill-rule="evenodd" clip-rule="evenodd" d="M350.937 404.358C340.618 404.358 332.255 396.172 332.255 387.563V363.285C332.255 354.673 338.393 348.68 346.64 346.936H369.621V387.563C369.621 396.839 361.255 404.358 350.939 404.358" fill="#92B19F"/>
<path fill-rule="evenodd" clip-rule="evenodd" d="M354.277 133.721H484.277C485.007 133.721 485.604 134.53 485.604 135.52V172.566C485.604 173.556 485.007 174.366 484.277 174.366H354.277C353.546 174.366 352.949 173.556 352.949 172.566V135.52C352.949 134.53 353.546 133.721 354.277 133.721Z" fill="#0E6739"/>
<path fill-rule="evenodd" clip-rule="evenodd" d="M454.04 163.538L453.985 153.476L449.102 161.666H446.715L441.86 153.746V163.538H436.896V144.553H441.318L447.99 155.51L454.499 144.553H458.921L458.975 163.538H454.04ZM426.727 155.887L424.287 149.813L421.846 155.887H426.729H426.727ZM428.3 159.849H420.273L418.78 163.538H413.301L421.682 144.553H426.97L435.378 163.538H429.79L428.298 159.849H428.3ZM408.609 163.538L404.676 157.652L400.798 163.538H394.669L401.586 153.937L394.968 144.553H401.016L404.812 150.032L408.556 144.553H414.361L407.742 153.719L414.793 163.538H408.609ZM393.8 159.388V163.538H378.557V144.553H393.447V148.703H383.872V151.902H392.308V155.916H383.872V159.388H393.798H393.8Z" fill="white"/>
<path d="M374.484 189.021H352.951V328.993H374.484V189.021Z" fill="white"/>
<path d="M396.017 189.021H374.484V328.993H396.017V189.021Z" fill="#E7EFF9"/>
<path d="M488.227 215.281H352.951V216.576H488.227V215.281Z" fill="#8BA7D7"/>
<path d="M488.227 244.451H352.951V245.746H488.227V244.451Z" fill="#8BA7D7"/>
<path d="M488.227 273.621H352.951V274.916H488.227V273.621Z" fill="#8BA7D7"/>
<path d="M488.227 302.789H352.951V304.084H488.227V302.789Z" fill="#8BA7D7"/>
<path fill-rule="evenodd" clip-rule="evenodd" d="M382.391 204.702L393.778 194.085C394.667 193.26 396.063 193.311 396.888 194.199C397.715 195.088 397.665 196.484 396.776 197.311L383.712 209.484L383.679 209.511C382.768 210.307 381.373 210.213 380.576 209.304L374.282 202.102C373.486 201.193 373.578 199.793 374.489 198.997C375.399 198.2 376.795 198.294 377.592 199.203L382.391 204.702Z" fill="#0E6739"/>
<path fill-rule="evenodd" clip-rule="evenodd" d="M381.761 234.505L393.149 223.888C394.037 223.063 395.433 223.113 396.258 224C397.086 224.889 397.035 226.285 396.144 227.112L383.08 239.285L383.047 239.311C382.136 240.108 380.741 240.014 379.944 239.105L373.65 231.903C372.854 230.994 372.946 229.594 373.856 228.797C374.767 228.001 376.163 228.095 376.96 229.004L381.759 234.503L381.761 234.505Z" fill="#0E6739"/>
<path fill-rule="evenodd" clip-rule="evenodd" d="M361.617 261.546L373.005 250.929C373.894 250.104 375.289 250.155 376.114 251.041C376.942 251.93 376.891 253.326 376 254.153L362.936 266.326L362.903 266.352C361.993 267.149 360.597 267.055 359.8 266.146L353.506 258.944C352.71 258.035 352.802 256.635 353.713 255.838C354.623 255.042 356.019 255.136 356.816 256.045L361.615 261.544L361.617 261.546Z" fill="#0E6739"/>
<path fill-rule="evenodd" clip-rule="evenodd" d="M409.945 193.5H476.582C477.827 193.5 478.843 194.518 478.843 195.76C478.843 197.002 477.824 198.021 476.582 198.021H409.945C408.701 198.021 407.685 197.002 407.685 195.76C407.685 194.518 408.703 193.5 409.945 193.5Z" fill="#A2A2A2"/>
<path fill-rule="evenodd" clip-rule="evenodd" d="M409.362 203.074H486.55C487.472 203.074 488.227 204.092 488.227 205.335C488.227 206.577 487.472 207.595 486.55 207.595H409.362C408.44 207.595 407.685 206.577 407.685 205.335C407.685 204.092 408.44 203.074 409.362 203.074Z" fill="#A2A2A2"/>
<path fill-rule="evenodd" clip-rule="evenodd" d="M409.945 223.314H476.582C477.827 223.314 478.843 224.333 478.843 225.575C478.843 226.817 477.824 227.835 476.582 227.835H409.945C408.701 227.835 407.685 226.817 407.685 225.575C407.685 224.333 408.703 223.314 409.945 223.314Z" fill="#A2A2A2"/>
<path fill-rule="evenodd" clip-rule="evenodd" d="M409.945 253.131H476.582C477.827 253.131 478.843 254.149 478.843 255.391C478.843 256.633 477.824 257.652 476.582 257.652H409.945C408.701 257.652 407.685 256.633 407.685 255.391C407.685 254.149 408.703 253.131 409.945 253.131Z" fill="#A2A2A2"/>
<path fill-rule="evenodd" clip-rule="evenodd" d="M409.362 232.889H486.55C487.472 232.889 488.227 233.907 488.227 235.149C488.227 236.391 487.472 237.409 486.55 237.409H409.362C408.44 237.409 407.685 236.391 407.685 235.149C407.685 233.907 408.44 232.889 409.362 232.889Z" fill="#A2A2A2"/>
<path fill-rule="evenodd" clip-rule="evenodd" d="M409.362 262.705H486.55C487.472 262.705 488.227 263.723 488.227 264.965C488.227 266.208 487.472 267.226 486.55 267.226H409.362C408.44 267.226 407.685 266.208 407.685 264.965C407.685 263.723 408.44 262.705 409.362 262.705Z" fill="#A2A2A2"/>
<path fill-rule="evenodd" clip-rule="evenodd" d="M224.13 95.9062C225.319 101.463 227.13 116.616 224.602 121.532C222.543 125.532 224.242 131.477 225.06 131.958C225.881 132.439 235.375 135.682 237.758 135.967C240.141 136.251 253.543 125.484 253.543 125.484L254.616 113.836L224.128 95.9062H224.13Z" fill="#263238"/>
<path fill-rule="evenodd" clip-rule="evenodd" d="M199.321 148.458C200.271 148.231 201.257 148.951 201.524 150.068C201.792 151.185 201.239 152.274 200.289 152.502C199.339 152.73 198.353 152.008 198.086 150.891C197.818 149.774 198.371 148.686 199.321 148.458Z" fill="white"/>
<path d="M226.647 129.175C225.761 131.119 223.652 144.541 219.024 153.038C216.046 158.505 210.908 161.125 208.09 160.026C203.227 158.13 214.011 149.299 214.097 149.378C217.163 142.632 216.954 125.587 226.081 121.051C226.998 120.46 229.327 125.139 226.645 129.177" fill="#F7AAAC"/>
<path d="M217.294 166.117C210.032 168.027 206.038 158.952 196.11 165.698L178.354 205.288C175.128 206.986 173.614 207.056 169.431 206.152C168.08 205.86 167.081 205.553 165.477 206.769C165.426 206.806 165.382 206.848 165.343 206.892C164.889 207.383 165.036 208.213 165.679 208.507L180.202 215.009C180.915 215.336 181.196 214.871 181.598 214.235C181.655 214.145 181.703 214.048 181.741 213.945C187.995 198.414 200.431 189.239 203.951 177.65C203.951 177.65 214.716 184.231 221.494 184.319C231.304 184.446 238.291 178.053 238.445 177.654C238.706 176.98 217.298 166.117 217.298 166.117" fill="#F7AAAC"/>
<path d="M200.047 165.395C205.483 167.503 214.801 177.201 212.475 176.589C208.722 176.321 205.534 173.488 202.488 175.794C199.626 177.96 198.522 186.613 192.792 195.741C192.924 195.58 198.351 188.975 199.6 187.458C212.214 172.13 213.948 189.078 232.344 185.165C240.877 183.35 231.732 174.159 231.833 173.727C232 173.025 200.05 165.397 200.05 165.397" fill="#F49295"/>
<path d="M217.314 169.934C213.921 173.353 219.44 173.048 216.142 173.421C214.042 173.658 231.203 184.894 227.953 186.553C227.161 186.957 212.863 179.677 207.25 177.371C201.553 175.032 199.567 183.391 199.619 187.49C199.744 197.396 203.559 216.08 205.04 226.827C202.966 230.165 202.332 230.663 197.875 232.136C196.562 232.57 195.544 232.811 194.78 234.675C194.756 234.734 194.739 234.791 194.726 234.85C194.585 235.504 195.131 236.145 195.834 236.073L210.555 234.427C211.336 234.345 211.909 233.698 211.931 232.945C211.933 232.838 211.926 232.73 211.907 232.623C212.317 230.558 212.319 228.853 211.382 225.635C209.62 213.335 213.381 201.787 211.683 188.183C211.542 187.06 219.682 188.324 227.801 187.738C232.987 187.363 237.534 186.535 241.969 182.862C241.969 182.862 229.281 164.232 229.162 163.517C229.044 162.804 217.314 169.936 217.314 169.936" fill="#F7AAAC"/>
<path fill-rule="evenodd" clip-rule="evenodd" d="M198.91 231.506C198.91 231.506 192.669 234.282 193.038 235.897C193.782 239.158 212.826 236.97 213.272 234.703C213.471 233.692 213.311 229.921 212.354 228.881C211.643 228.106 204.875 233.099 198.91 231.506Z" fill="#263238"/>
<path fill-rule="evenodd" clip-rule="evenodd" d="M223.123 156.822C222.55 164.268 202.705 155.448 196.113 165.701C205.097 162.703 215.471 176.794 223.579 184.51C230.09 190.705 242.226 191.8 248.863 184.718C252.688 180.637 253.91 173.008 249.552 158.865C246.571 151.899 224.222 152.364 223.123 156.822Z" fill="#66170E"/>
<path fill-rule="evenodd" clip-rule="evenodd" d="M170.096 205.902C170.096 205.902 163.432 204.296 162.909 205.94C161.854 209.26 178.17 218.481 180.523 216.881C181.411 216.278 183.854 212.093 183.545 210.653C183.314 209.582 174.606 210.484 170.096 205.904" fill="#263238"/>
<path fill-rule="evenodd" clip-rule="evenodd" d="M255.014 121.8C258.069 134.269 247.5 136.113 250.271 161.284C241.103 162.557 224.336 161.576 220.856 159.574C223.189 147.338 221.139 141.257 220.744 139.128C218.165 125.278 225.923 116.217 239.4 116.289C245.764 116.322 252.369 117.878 255.014 121.8Z" fill="#0E6739"/>
<path d="M233.165 115.348L234.067 118.291L233.76 118.791C232.676 121.122 235.68 124.199 237.541 123.466C242.417 122.134 244.816 116.994 242.676 115.328L241.82 114.835L240.33 110.74C240.574 110.645 242.042 109.03 242.525 108.692C243.008 108.352 243.457 107.062 243.152 105.951C242.847 104.843 241.278 105.747 241.278 105.747C242.408 102.284 243.975 99.2447 240.152 97.7063C236.33 96.168 228.958 96.9514 228.958 96.9514L224.341 96.868C224.892 97.5637 225.515 98.9112 225.945 100.539C227.209 105.313 225.546 113.272 233.165 115.344" fill="#F7AAAC"/>
<path fill-rule="evenodd" clip-rule="evenodd" d="M238.724 112.266C238.125 115.044 237.166 117.675 234.065 118.294L233.163 115.351C233.856 115.402 235.825 115.467 238.724 112.266Z" fill="#E16180"/>
<path fill-rule="evenodd" clip-rule="evenodd" d="M200.609 159.416H227.692V160.746C227.692 161.477 227.093 162.076 226.362 162.076H201.939C201.208 162.076 200.609 161.477 200.609 160.746V159.416Z" fill="black"/>
<path fill-rule="evenodd" clip-rule="evenodd" d="M186.867 139.365H213.568C214.621 139.365 215.284 140.256 215.481 141.303L217.119 150L218.938 159.656H188.675L185.219 141.035C185.052 140.133 185.961 139.367 186.867 139.367" fill="black"/>
<path fill-rule="evenodd" clip-rule="evenodd" d="M185.952 139.365H212.653C213.706 139.365 214.369 140.256 214.566 141.303L217.979 159.417H218.025L218.244 160.747C218.363 161.466 217.645 162.076 216.914 162.076H189.254C188.524 162.076 188.034 161.471 187.925 160.747L187.76 159.656L184.304 141.035C184.137 140.133 185.045 139.367 185.952 139.367" fill="#4B5C65"/>
<path fill-rule="evenodd" clip-rule="evenodd" d="M200.324 149.541C201.035 149.37 201.774 149.912 201.974 150.748C202.174 151.584 201.759 152.401 201.048 152.572C200.337 152.743 199.597 152.201 199.398 151.365C199.198 150.529 199.613 149.713 200.324 149.541Z" fill="#E5E6E7"/>
<path d="M254.551 122.09C263.502 124.635 257.366 145.567 255.788 152.333C254.812 156.329 243.854 159.456 233.676 162.074C230.578 162.871 224.264 162.16 222.278 162.074C222.671 160.904 225.186 158.218 227.769 157.545C229.518 157.088 230.095 158.058 232.3 157.343C240.444 154.703 248.274 149.12 248.32 148.718C248.654 140.601 247.737 128.614 252.181 123.242C252.589 122.75 253.855 121.89 254.548 122.088" fill="#F7AAAC"/>
<path fill-rule="evenodd" clip-rule="evenodd" d="M225.036 101.363C220.072 97.6459 223.612 85.5453 238.421 88.7998C247.732 91.0162 243.62 102.215 258.826 106.391C266.888 108.605 271.306 116.609 266.265 127.334C266.239 127.355 264.951 123.331 261.843 123.162C265.62 129.84 259.943 136.009 258.971 137.014C260.911 125.468 255.979 120.43 243.394 116.486C240.53 114.915 240.152 112.207 240.025 109.564C239.382 96.0483 231.436 106.15 225.036 101.368" fill="#263238"/>
<path d="M446.987 420.008C444.04 376.481 414.973 345.596 389.328 302.912C405.51 295.903 420.802 307.845 426.709 322.039C429.716 329.266 436.677 330.302 436.784 330.335L435.648 277.98L413.786 252.03C409.965 243.311 416.162 233.104 427.291 238.649C427.291 238.649 452.947 263.004 454.959 269.577L459.131 284.969C456.676 279.369 477.879 273.393 477.273 292.578C477.478 283.716 491.9 284.787 493.265 295.863C495.06 291.843 502.776 293.644 504.931 303.066C508.429 318.346 508.214 359.649 503.426 371.425C498.187 384.309 503.772 395.929 505.998 420.006H446.989L446.987 420.008Z" fill="#F7AAAC"/>
<path d="M414.475 240.586C416.839 237.213 421.364 235.701 427.287 238.653C427.287 238.653 429.626 240.874 432.946 244.155C433.938 251.265 423.776 250.299 421.254 248.287C420.032 247.31 414.473 240.589 414.473 240.589L414.475 240.586Z" fill="#F7AAAC"/>
<path d="M432.492 328.692C434.77 330.022 436.728 330.318 436.785 330.335L435.648 277.98C435.648 277.98 439.194 300.104 442.001 309.558C444.808 319.012 448.291 330.981 448.297 337.178C448.304 343.375 434.713 340.421 434.713 340.421L432.494 328.692H432.492Z" fill="#F28085"/>
<path d="M442.824 396.893C433.35 364.594 410.207 337.662 389.326 302.914C389.326 302.914 414.657 332.283 428.838 356.362C443.019 380.44 447.599 396.542 447.599 396.542C447.599 396.542 445.446 396.706 442.824 396.895" fill="#F28085"/>
<path d="M411.709 238.699L395.615 245.182L433.711 339.757L449.805 333.275L411.709 238.699Z" fill="#FFCC69"/>
<path d="M407.269 240.489L400.055 243.395L438.151 337.97L445.365 335.064L407.269 240.489Z" fill="#FBB44A"/>
<path fill-rule="evenodd" clip-rule="evenodd" d="M433.719 339.737L449.811 333.254L453.792 343.136C455.574 347.562 453.412 352.64 448.986 354.425C444.56 356.207 439.482 354.045 437.697 349.619L433.717 339.737H433.719Z" fill="#FF7961"/>
<path fill-rule="evenodd" clip-rule="evenodd" d="M448.872 354.471C444.479 356.181 439.752 354.71 438.325 351.169L434.711 342.197L440.223 343.073C440.223 343.073 442.119 349.38 444.494 352.07C445.738 353.482 447.393 354.153 448.874 354.473" fill="#EF6148"/>
<path d="M449.806 333.277L433.712 339.76L435.775 344.881L451.869 338.399L449.806 333.277Z" fill="#D6E8F6"/>
<path fill-rule="evenodd" clip-rule="evenodd" d="M395.62 245.161L396.504 225.264L411.714 238.679L395.62 245.161Z" fill="#FFDFAA"/>
<path fill-rule="evenodd" clip-rule="evenodd" d="M396.234 231.329L396.504 225.264L401.062 229.282L396.234 231.329Z" fill="#3D7DDA"/>
<path fill-rule="evenodd" clip-rule="evenodd" d="M396.504 225.264L400.059 243.373L395.62 245.161L396.504 225.264Z" fill="#FFE9C6"/>
<path fill-rule="evenodd" clip-rule="evenodd" d="M396.504 225.264L397.584 230.759L396.234 231.329L396.504 225.264Z" fill="#3D7DDA"/>
<path d="M438.154 337.968L433.714 339.756L435.777 344.877L440.217 343.089L438.154 337.968Z" fill="#B7D2E7"/>
<path d="M449.802 333.286L445.362 335.074L447.425 340.196L451.865 338.407L449.802 333.286Z" fill="#B7D2E7"/>
<path d="M411.71 238.696L407.27 240.484L445.366 335.06L449.806 333.272L411.71 238.696Z" fill="#F79646"/>
<path d="M439.012 305.56L435.645 277.979L413.783 252.029C411.585 247.014 412.702 241.508 416.165 238.789C415.945 240.18 414.354 242.568 417.058 248.697C419.761 254.827 439.018 275.135 439.018 275.135L444.797 319.245L439.014 305.56H439.012Z" fill="#F28085"/>
<path d="M513.262 393.893H431.691V421.781H513.262V393.893Z" fill="#9C2517"/>
<path d="M513.262 393.893H472.476V421.781H513.262V393.893Z" fill="#66170E"/>
<path d="M520.142 406.271H421.353V424.864H520.142V406.271Z" fill="#0E6739"/>
<path d="M520.142 406.271H472.36V424.864H520.142V406.271Z" fill="#0D703D"/>
<path fill-rule="evenodd" clip-rule="evenodd" d="M602.838 253.137L599.468 252.304C598.059 251.955 597.038 250.71 597.003 249.262C596.928 246.457 596.503 243.712 595.759 241.07C595.368 239.67 595.969 238.18 597.214 237.433L600.183 235.634C601.726 234.706 602.226 232.702 601.298 231.159L597.859 225.464C596.928 223.922 594.92 223.428 593.38 224.358L590.406 226.151C589.16 226.902 587.562 226.742 586.509 225.743C584.518 223.851 582.284 222.197 579.84 220.825C578.573 220.116 577.952 218.639 578.303 217.226L579.133 213.855C579.568 212.106 578.499 210.34 576.752 209.905L570.293 208.31C568.547 207.875 566.78 208.944 566.345 210.691L565.512 214.062C565.163 215.47 563.923 216.491 562.472 216.53C559.668 216.603 556.922 217.029 554.282 217.768C552.88 218.165 551.392 217.56 550.641 216.313L548.846 213.34C547.916 211.797 545.912 211.301 544.372 212.236L538.675 215.67C537.132 216.601 536.64 218.606 537.569 220.149L539.362 223.123C540.112 224.367 539.952 225.967 538.949 227.018C537.062 229.011 535.407 231.245 534.031 233.687C533.327 234.956 531.845 235.577 530.434 235.23L527.063 234.396C525.316 233.962 523.548 235.03 523.115 236.779L521.52 243.236C521.088 244.985 522.154 246.751 523.903 247.186L527.272 248.02C528.681 248.371 529.699 249.606 529.738 251.064C529.806 253.864 530.237 256.609 530.976 259.249C531.373 260.652 530.768 262.139 529.526 262.892L526.55 264.685C525.007 265.616 524.513 267.621 525.444 269.164L528.876 274.857C529.809 276.399 531.814 276.893 533.357 275.965L536.326 274.17C537.577 273.419 539.171 273.579 540.226 274.585C542.217 276.472 544.448 278.131 546.893 279.498C548.162 280.207 548.787 281.69 548.436 283.099L547.602 286.468C547.167 288.217 548.234 289.986 549.983 290.418L556.439 292.018C558.184 292.448 559.955 291.379 560.39 289.632L561.219 286.262C561.568 284.853 562.81 283.837 564.265 283.795C567.065 283.723 569.811 283.297 572.451 282.555C573.851 282.16 575.339 282.761 576.091 284.008L577.884 286.981C578.817 288.524 580.823 289.022 582.366 288.092L588.058 284.653C589.601 283.725 590.099 281.719 589.164 280.176L587.369 277.203C586.619 275.958 586.779 274.363 587.777 273.305C589.671 271.317 591.326 269.085 592.695 266.638C593.408 265.372 594.881 264.749 596.292 265.1L599.667 265.932C601.414 266.366 603.185 265.3 603.615 263.55L605.211 257.094C605.645 255.347 604.576 253.579 602.827 253.148M579.916 257.399C576.93 264.369 569.622 268.778 562.064 268.17C549.588 267.171 541.898 254.423 546.83 242.917C549.818 235.952 557.122 231.541 564.678 232.149C577.156 233.147 584.852 245.893 579.916 257.399Z" fill="#92B09F"/>
</svg>
