<svg width="640" height="440" viewBox="0 0 640 440" fill="none" xmlns="http://www.w3.org/2000/svg">
<g clip-path="url(#clip0_151_15890)">
<rect width="640" height="440" fill="white"/>
<g clip-path="url(#clip1_151_15890)">
<path d="M254.707 36.7209C261.955 35.6419 270.245 37.0479 276.175 41.4943C278.531 43.2606 280.393 45.3718 282.003 47.8228L281.743 47.9766C281.24 47.5706 280.853 47.1824 280.43 46.6958C275.543 41.0886 268.48 37.4467 261.057 36.9974C258.809 36.8615 256.606 37.012 254.371 37.2489L254.707 36.7209Z" fill="#ECECEC"/>
<path d="M283.128 84.0772C282.879 84.4059 282.624 84.7288 282.361 85.0468C282.098 85.3643 281.828 85.676 281.552 85.9822C281.275 86.2886 280.993 86.5889 280.704 86.8829C280.415 87.1772 280.12 87.4652 279.818 87.747C279.517 88.0284 279.21 88.3035 278.897 88.5721C278.583 88.8408 278.265 89.1025 277.94 89.3575C277.616 89.6126 277.287 89.8607 276.952 90.102C276.617 90.343 276.277 90.5767 275.932 90.803C275.587 91.0296 275.238 91.2487 274.884 91.4604C274.53 91.6724 274.171 91.8767 273.808 92.0729C273.445 92.2693 273.078 92.4578 272.707 92.6389C272.336 92.8195 271.962 92.9925 271.583 93.1571C271.205 93.3221 270.824 93.4791 270.438 93.6279C270.053 93.7764 269.665 93.9166 269.274 94.0489C268.883 94.1812 268.49 94.3052 268.093 94.4207C267.697 94.536 267.298 94.643 266.897 94.7415C259.971 96.4092 252.066 95.2501 245.993 91.4932C239.085 87.219 234.023 80.8164 232.217 72.8422C230.489 65.2159 231.136 56.3884 235.462 49.7023C240.039 42.6298 246.547 38.4896 254.707 36.7207L254.371 37.2489C251.086 38.1281 248.07 39.1822 245.155 40.9738C239.042 44.73 234.333 50.8956 232.675 57.898C232.56 58.4004 232.458 58.9054 232.368 59.4128C232.278 59.9197 232.2 60.4291 232.135 60.9403C232.07 61.4513 232.016 61.9635 231.976 62.4769C231.935 62.9908 231.907 63.5052 231.892 64.02C231.876 64.5348 231.873 65.0499 231.883 65.565C231.892 66.08 231.914 66.5949 231.949 67.109C231.983 67.6229 232.03 68.1358 232.089 68.6477C232.149 69.1597 232.22 69.6698 232.304 70.1781C232.389 70.6865 232.485 71.1922 232.594 71.6958C232.702 72.1997 232.823 72.7004 232.956 73.1982C233.089 73.6958 233.234 74.1901 233.391 74.6812C233.548 75.1719 233.717 75.6587 233.898 76.1413C234.078 76.6238 234.27 77.102 234.474 77.5755C234.678 78.0487 234.893 78.5169 235.12 78.9798C235.346 79.443 235.584 79.9001 235.833 80.3513C236.081 80.8028 236.341 81.2477 236.611 81.6867C240.534 88.0198 246.96 92.3231 254.184 94.0154C261.349 95.6932 268.583 94.565 274.837 90.6896C285.274 84.2224 290.153 71.3635 287.376 59.5032C287.062 58.1628 284.796 53.1958 284.983 52.4073C285.501 52.9573 285.768 53.6442 286.086 54.3226C290.686 64.1456 288.579 72.2781 285.13 81.8547C285.684 82.4052 286.294 82.9616 286.749 83.598C287.253 84.3037 287.412 85.0745 287.244 85.9195C286.959 86.1784 286.924 86.3205 286.506 86.3284C285.2 86.3518 284.019 84.909 283.128 84.0772Z" fill="#F4E9E7"/>
<path d="M272.571 51.875C274.359 52.0827 277.545 56.0573 278.855 57.3477C275.774 60.7556 271.001 64.3209 267.428 67.347C262.632 71.4085 257.988 75.6752 253.051 79.5673C251.294 77.0913 249.079 75.1389 246.866 73.0824C245.022 71.4161 243.179 69.7281 241.486 67.9087C243.305 65.8669 245.325 64.0728 247.029 61.9138C249.23 64.5152 251.349 67.0827 254.093 69.1406C255.79 67.4635 257.332 65.6499 259.103 64.041C263.572 59.9795 268.36 56.2073 272.571 51.875Z" fill="#F4E9E7"/>
<path d="M512.922 134.321C514.648 134.236 515.932 134.318 517.479 135.155C518.976 135.965 520.181 137.354 520.603 139.018C521.15 141.17 520.408 142.446 519.357 144.238C520.87 145.771 522.657 147.088 524.235 148.572C525.058 148.083 525.924 147.534 526.822 147.195C528.195 146.676 529.878 146.738 531.176 147.431C532.867 148.334 533.952 150.102 534.438 151.91C534.954 153.828 534.738 155.79 533.738 157.511C532.936 158.896 531.645 160.008 530.055 160.35C528.01 160.79 526.181 159.932 524.488 158.896C523.026 160.153 521.684 161.612 520.311 162.967C520.584 163.893 520.843 164.861 520.96 165.819C521.156 167.411 520.663 169.302 519.598 170.518C518.368 171.923 516.76 172.362 514.969 172.531C514.496 172.527 514.022 172.52 513.551 172.485C511.788 172.353 509.986 171.549 508.869 170.151C507.017 167.833 507.401 165.141 507.754 162.428C506.195 161.19 504.745 159.777 503.268 158.442C502.693 158.752 502.11 159.081 501.509 159.337C499.831 160.053 497.926 160.257 496.224 159.496C494.503 158.727 493.244 157.15 492.638 155.392C492.023 153.606 492.127 151.68 492.994 149.992C493.81 148.406 495.216 147.089 496.969 146.628C499.57 145.945 501.482 147.173 503.594 148.474C504.828 146.6 506.614 145.502 508.416 144.226C508.191 143.744 508.008 143.264 507.857 142.754C507.33 140.962 507.341 138.944 508.324 137.304C509.4 135.511 510.984 134.843 512.922 134.321Z" fill="#F4E9E7"/>
<path d="M476.778 48.0998C482.2 47.8696 485.512 51.0316 489.793 53.8387C492.237 55.4414 494.769 56.9175 497.187 58.5608C498.892 59.7198 500.004 60.7612 500.351 62.8744C500.927 66.3765 499.415 69.9332 497.378 72.717C495.189 75.7103 489.657 82.9675 486.014 83.4182C483.012 83.7899 479.519 80.3124 477.322 78.5409C475.87 78.9009 469.103 86.5361 467.62 88.1622C469.37 84.0562 471.476 80.0431 472.855 75.7943C469.7 73.0091 464.419 71.0885 462.706 67.062C462.099 65.6342 462.214 64.1751 462.815 62.7646C464.245 59.4014 467.503 57.1184 469.894 54.4768C471.388 52.8258 472.669 50.9521 474.344 49.471C475.071 48.8297 475.89 48.4663 476.778 48.0998Z" fill="#F4E9E7"/>
<path d="M165.742 55.9525C167.295 55.808 168.849 56.1082 170.133 57.0197C172.346 58.5896 182.328 68.5977 183.871 70.7606C184.713 71.9398 185.451 73.325 185.613 74.786C185.979 78.0733 178.255 84.2573 176.258 86.724C174.074 89.4219 179.661 92.0274 179.89 94.8413C179.649 95.3645 179.405 95.8549 178.797 96.0374C176.156 96.8303 174.57 91.1635 172.432 90.0185C171.87 89.7176 171.502 89.6487 170.892 89.7898C169.148 91.4027 167.301 93.4255 165.155 94.4738C163.996 95.0403 163.13 95.1542 161.918 94.6759C158.322 93.2575 146.701 81.9379 145.428 78.7056C145.02 77.6695 145.426 76.6965 145.895 75.7578C146.482 74.5824 147.279 73.4982 148.136 72.5042C150.535 69.7204 153.32 67.1848 155.879 64.5422C158.23 62.114 160.488 59.2448 163.153 57.1654C163.922 56.5654 164.828 56.2625 165.742 55.9525Z" fill="#F4E9E7"/>
<path d="M184.371 165.383C185.521 169.082 186.762 172.27 188.8 175.599C194.537 183.179 202.723 189.429 212.383 190.752C215.784 191.218 219.218 191.119 222.541 190.22C223.131 190.25 223.08 190.126 223.515 190.614C225.133 192.431 225.198 196.137 224.963 198.473C224.842 199.677 224.357 201.045 224.512 202.237C224.084 203.474 223.359 205.521 222.395 206.399C219.558 209.417 217.705 212.876 214.183 215.295C205.801 213.123 197.538 211.99 188.855 212.737C187.938 211.891 187.08 211.033 186.303 210.055C183.054 205.967 180.158 200.408 180.168 195.07C180.173 192.491 180.685 189.851 180.993 187.29C178.817 187.938 176.727 188.736 174.741 189.847C173.779 190.385 172.964 191.09 171.932 191.506L171.833 191.225C174.658 189.103 177.778 187.586 181.23 186.816C181.434 184.646 181.894 182.477 182.205 180.318C182.924 175.336 183.592 170.357 184.371 165.383Z" fill="#FE9D76"/>
<path d="M309.54 83.5306C311.679 77.628 314.086 72.9955 320.071 70.2259C325.695 67.6244 332.786 68.2383 338.467 70.3699C345.339 72.9488 350.867 78.5847 354.253 84.9842C355.477 87.2986 356.255 89.7424 357.964 91.7632C358.875 92.8407 359.692 93.746 359.576 95.222C359.223 95.8603 359.027 96.0881 358.311 96.3117C357.548 96.55 356.673 96.6424 355.882 96.7768C356.395 104.147 354.691 112.019 351.993 118.893C351.156 119.672 349.566 120.183 348.498 120.663C348.454 117.938 348.359 115.145 347.98 112.445C347.72 110.59 347.123 106.843 345.249 105.981C343.407 105.134 340.006 105.564 337.936 105.538C330.917 105.449 323.758 102.71 318.072 98.6644C316.053 97.2278 314.249 95.5216 312.268 94.0318C311.011 94.3991 309.846 94.7605 308.894 95.7043C303.632 100.918 304.147 114.509 304.263 121.408C302.995 120.455 301.606 119.554 300.612 118.303C298.16 111.176 294.501 97.8842 297.983 90.8333C299.579 87.6003 302.664 85.2864 306.057 84.1809C307.179 83.8156 308.374 83.6866 309.54 83.5306Z" fill="#192E35"/>
<path d="M515.702 224.741C519.005 224.357 523.668 228.347 526.13 230.293C539.362 240.744 549.724 255.388 551.667 272.463C553.274 286.59 550.678 299.201 544.64 311.945C542.89 315.638 541.325 318.948 538.75 322.157C537.072 324.248 532.972 328.043 532.559 330.553C532.559 322.646 531.723 314.581 531.105 306.7C530.238 295.373 529.026 284.083 527.47 272.829C525.264 256.459 522.659 239.874 515.702 224.741Z" fill="#F4E9E7"/>
<path d="M349.823 163.269C350.135 160.462 350.175 157.668 350.735 154.882C352.521 145.992 357.751 137.338 364.577 131.407C373.227 123.891 384.88 120.791 396.206 121.559C395.318 124.617 395.031 130.207 396.429 133.117C396.5 135.307 397.673 137.294 398.7 139.16C398.98 139.67 398.978 140.115 398.988 140.681C398.997 143.314 398.984 145.947 398.951 148.58C398.59 156.824 398.478 165.102 398 173.338C397.79 176.959 396.865 180.69 396.935 184.281C381.319 177.08 365.615 170.076 349.823 163.269Z" fill="#F4E9E7"/>
<path d="M400.7 38.1362C407.351 37.2453 414.93 39.8049 420.229 43.7539C425.779 47.8908 429.084 53.169 430.053 60.0085C431.092 67.3334 429.796 74.4405 425.234 80.3798C420.301 86.8034 414.097 90.1759 406.059 91.2202C405.987 91.2357 405.916 91.2578 405.842 91.2676C399.452 92.1018 393.273 90.2609 388.061 86.6159C382.318 82.6003 377.853 76.3396 376.698 69.3551C375.513 62.1889 377.027 55.1633 381.336 49.3008C386.128 42.7822 392.781 39.3257 400.7 38.1362Z" fill="#F4E9E7"/>
<path d="M396.206 121.56C398.178 114.423 402.682 107.392 409.262 103.667C415.966 99.8708 435.083 98.8993 442.499 100.991C450.79 103.33 457.328 109.401 461.447 116.843C466.231 125.486 466.667 135.614 467.805 145.208C468.96 154.949 469.771 164.78 471.723 174.4C473.031 180.667 474.708 186.698 476.5 192.837C476.948 194.372 477.145 196.16 477.707 197.615C477.655 201.663 479.547 206.77 480.382 210.81C478.517 209.226 476.594 207.898 474.446 206.724L473.355 206.279C469.411 204.832 465.977 204.699 461.852 205.379L461.625 205.427C461.311 202.429 460.83 199.412 460.643 196.406C460.351 191.7 460.513 186.941 460.269 182.221C459.813 173.391 459.156 164.546 458.593 155.72L459.561 155.311C460.55 154.901 461.499 154.35 462.45 153.856C463.718 151.944 464.861 149.951 466.027 147.976C465.709 144.09 465.594 141.083 464.007 137.447L462.86 136.818C460.327 136.583 458.204 137.243 455.778 137.843L456.151 138.486C455.91 138.966 455.625 139.182 455.205 139.508C450.545 137.796 446.245 134.61 441.827 132.316C437.687 130.166 433.302 128.622 429.063 126.698C423.817 124.317 419.34 121.348 414.867 117.766C409.636 120.535 402.325 124.56 400.406 130.436C399.962 131.796 399.763 133.233 399.548 134.643C399.184 136.656 399.081 138.643 398.988 140.682C398.977 140.115 398.98 139.671 398.699 139.161C397.672 137.295 396.5 135.308 396.429 133.118C395.031 130.207 395.318 124.618 396.206 121.56Z" fill="#414141"/>
<path d="M458.594 155.72L459.561 155.311C460.368 171.992 460.85 188.717 461.853 205.379L461.626 205.427C461.312 202.429 460.83 199.412 460.644 196.406C460.352 191.7 460.514 186.941 460.27 182.221C459.813 173.391 459.156 164.546 458.594 155.72Z" fill="#C4B0A5"/>
<path d="M127.331 123.645C130.535 123.184 133.985 123.656 137.156 124.16C137.17 126.108 137.088 128.064 137.046 130.011L140.508 131.922L144.692 127.576C149.38 130.7 152.396 133.673 156.09 137.879C154.729 139.392 152.959 140.65 151.392 141.95C152.262 143.575 152.782 145.204 153.277 146.967C155.174 146.994 157.059 147.05 158.952 147.169C160.156 152.725 160.177 157.453 158.305 162.849C156.363 162.704 154.424 162.657 152.487 162.419C151.821 164.121 151.083 165.754 150.271 167.391C151.726 168.681 153.137 169.979 154.487 171.378C151.745 176.094 147.658 179.493 142.693 181.65C141.299 179.698 139.974 178.063 138.096 176.549C136.822 177.21 135.537 177.739 134.201 178.257C134.447 180.371 134.587 182.492 134.619 184.621C133.136 184.839 131.671 184.997 130.176 185.101C125.862 185.266 121.751 184.898 117.697 183.352C118.443 181.089 118.994 178.825 119.332 176.466C117.98 175.754 116.723 174.977 115.457 174.122C114.059 175.418 112.937 176.776 111.784 178.295C111.043 177.944 110.336 177.532 109.665 177.061C106.865 175.054 101.315 170.497 100.711 166.975C100.967 165.339 103.813 163.62 105.111 162.602C104.608 161.282 104.255 159.903 103.864 158.547C102.317 158.603 99.5685 159.017 98.1549 158.348C97.7898 158.175 97.5968 157.725 97.4664 157.359C96.3139 154.126 97.3187 146.503 98.6573 143.247C100.74 143.238 102.711 143.584 104.743 144.002C105.224 142.882 105.748 141.775 106.25 140.665C105.044 139.101 103.803 137.556 102.746 135.887C105.407 132.536 109.61 128.67 113.597 127.021C115.177 128.298 116.608 129.863 118.065 131.283C119.37 130.675 120.714 130.145 122.043 129.594C122.301 127.865 122.377 126.169 122.421 124.422C124.052 124.032 125.663 123.825 127.331 123.645Z" fill="#F4E9E7"/>
<path d="M127.981 145.589C130.031 145.491 131.944 145.721 133.76 146.746C133.993 146.875 134.218 147.015 134.436 147.166C134.654 147.319 134.863 147.481 135.064 147.654C135.265 147.828 135.457 148.011 135.639 148.204C135.821 148.398 135.993 148.599 136.154 148.81C136.316 149.021 136.466 149.239 136.604 149.466C136.743 149.692 136.87 149.925 136.984 150.164C137.099 150.403 137.201 150.648 137.29 150.898C137.379 151.147 137.456 151.401 137.519 151.659C137.585 151.915 137.638 152.174 137.678 152.435C137.718 152.696 137.744 152.959 137.759 153.223C137.772 153.487 137.773 153.751 137.761 154.015C137.748 154.279 137.723 154.542 137.684 154.804C137.645 155.065 137.594 155.324 137.53 155.581C137.466 155.837 137.389 156.089 137.299 156.338C137.21 156.587 137.109 156.831 136.995 157.07C136.881 157.309 136.756 157.542 136.619 157.768C135.184 160.098 132.921 161.091 130.366 161.707C128.375 161.731 126.715 161.548 124.906 160.647C122.83 159.612 120.995 157.804 120.33 155.541C119.783 153.676 120.095 151.647 121.08 149.982C122.606 147.404 125.201 146.289 127.981 145.589Z" fill="#FEFEFE"/>
<path d="M480.383 210.81C479.548 206.77 477.655 201.664 477.707 197.615C482.253 199.021 486.772 200.508 491.264 202.078C505.209 206.921 508.777 212.029 515.702 224.742C522.66 239.875 525.264 256.459 527.47 272.83C529.026 284.084 530.238 295.374 531.106 306.702C531.723 314.582 532.559 322.647 532.56 330.554C532.546 332.311 532.786 334.033 532.809 335.779C530.995 332.903 529.557 329.754 527.77 326.843C522.461 318.195 515.178 309.512 507 303.478C509.225 298.478 511.766 293.626 513.972 288.612C511.466 291.691 508.101 299.579 506.423 303.479C504.326 302.258 502.08 301.533 499.787 300.777C499.49 295.878 498.509 290.832 497.939 285.932C497.384 290.685 498.572 295.737 499.321 300.432C495.288 298.898 490.835 297.892 486.961 296.045C485.02 294.273 482.338 293.774 480.539 291.803C483.474 291.102 486.276 290.144 489.076 289.029C491.187 288.341 493.248 287.236 495.169 286.132L495.517 285.868C499.732 283.986 507.192 278.658 510.918 275.614C509.881 264.485 508.961 260.407 502.201 251.487C500.198 248.844 498.185 246.291 496.681 243.317C497.03 234.653 501.875 227.995 506.994 221.43L506.849 221.119L507.217 221.391L507.011 221.007C507.001 220.988 506.994 220.968 506.985 220.948C506.776 221.076 506.665 221.134 506.482 221.278C505.25 222.245 504.177 223.856 503.28 225.129C499.539 230.439 497.069 235.709 496.127 242.148C495.014 240.216 494.056 238.169 493.042 236.182C489.746 229.093 487.639 219.644 482.677 213.673C482.038 212.665 481.144 211.735 480.383 210.81Z" fill="#0E6739"/>
<path d="M312.268 94.0332C314.248 95.5229 316.053 97.2291 318.071 98.6657C323.758 102.712 330.916 105.45 337.936 105.539C340.006 105.565 343.407 105.135 345.249 105.982C347.122 106.845 347.719 110.592 347.979 112.446C348.358 115.146 348.454 117.939 348.498 120.664C349.565 120.185 351.156 119.673 351.992 118.895C353.32 118.716 354.437 118.509 355.575 119.352C357.127 120.5 357.699 122.404 357.886 124.24C358.189 127.233 357.709 130.251 355.78 132.653C353.864 135.038 351.271 135.939 348.407 136.611C348.006 140.485 346.44 143.769 345.749 147.511C345.426 149.263 345.509 151.102 345.515 152.877L345.552 153.716C345.648 155.58 345.729 157.446 345.847 159.309L345.896 159.541C346.099 160.537 345.842 162.087 346.563 162.708C347.302 162.798 348.041 162.882 348.781 162.96C352.634 169.941 351.479 180.342 351.284 188.114C351.207 191.176 351.321 194.368 350.963 197.406L350.241 196.961C350.035 195.002 348.763 193.401 347.456 192.01C346.675 191.233 345.797 190.467 344.724 190.142C342.068 189.338 339.467 190.985 337.224 192.198C336.061 191.314 334.743 190.141 333.428 189.511C331.867 188.762 330.501 188.933 328.911 189.484C328.597 188.217 328.221 187.015 327.773 185.789C326.822 184.543 325.733 183.522 324.121 183.265C322.888 183.068 320.937 183.449 319.961 184.232C319.882 184.295 319.817 184.374 319.745 184.445L319.498 184.211C319.103 182.394 317.442 180.362 316.575 178.679C312.992 171.727 310.335 164.113 310.597 156.247L310.719 154.66L310.789 154.095L311.343 152.571C306.183 146.993 305.679 143.648 304.968 136.239C303.002 135.903 301.14 135.644 299.417 134.561C297.361 133.269 296.128 131.194 295.626 128.853C295.046 126.142 295.147 122.737 296.766 120.405C297.748 118.993 298.99 118.637 300.61 118.305C301.604 119.556 302.994 120.457 304.262 121.41C304.146 114.51 303.63 100.92 308.893 95.7062C309.845 94.7619 311.01 94.4007 312.268 94.0332Z" fill="#FE9D76"/>
<path d="M310.699 118.503C312.449 118.348 316.136 118.183 317.602 119.151L317.59 119.739C317.041 120.445 316.805 120.981 316.616 121.858C316.598 121.946 316.581 122.034 316.563 122.122C315.719 122.148 314.945 122.224 314.137 121.92C313.458 121.354 313.299 120.573 313.032 119.765C312.117 119.823 311.147 119.933 310.234 119.835C309.68 119.776 309.467 119.81 309.12 119.37C309.538 118.901 310.13 118.732 310.699 118.503Z" fill="#192E35"/>
<path d="M337.44 117.754C337.861 117.728 338.272 117.708 338.695 117.711C339.851 117.722 341.563 117.698 342.398 118.542L342.239 119.025C341.259 119.414 340.277 118.934 339.272 119.185C338.919 120.015 338.553 120.839 338.173 121.658C337.863 121.745 337.443 121.897 337.114 121.92C334.884 122.08 335.976 120.338 334.758 119.705C334.274 119.454 333.828 119.841 333.286 119.398C334.057 118.459 336.259 118.062 337.44 117.754Z" fill="#192E35"/>
<path d="M314.942 108.689C315.693 108.599 316.402 108.512 317.107 108.848C317.854 109.205 318.425 109.864 318.663 110.625C317.775 112.482 313.034 112.053 310.582 113.01L310.249 113.142C309.032 113.754 307.806 114.206 306.522 114.654C308.793 111.379 311.181 109.883 314.942 108.689Z" fill="#192E35"/>
<path d="M334.779 108.206C337.991 108.108 341.361 109.543 343.649 111.769C344.193 112.299 344.553 112.745 344.583 113.512C343.965 113.793 343.775 113.614 343.15 113.447C342.624 113.256 342.093 113.08 341.564 112.897C338.876 111.965 335.331 112.277 332.982 110.762C332.642 110.138 332.646 110.174 332.817 109.485C333.371 108.808 333.993 108.561 334.779 108.206Z" fill="#192E35"/>
<path d="M333.076 138.832C333.189 138.934 333.173 139.119 333.214 139.265C332.824 140.145 332.41 140.961 331.812 141.721C330.496 143.391 328.739 144.765 326.548 144.933C324.345 145.101 322.596 144.073 320.965 142.72C319.804 141.57 318.995 140.378 318.271 138.925C323.529 138.855 327.612 139.312 333.076 138.832Z" fill="#FEFEFE"/>
<path d="M311.344 152.571C316.161 156.545 322.417 158.212 328.62 157.593C335.155 156.941 340.399 153.825 344.478 148.778C344.775 148.41 345.07 148.041 345.362 147.67C345.326 149.412 345.255 151.148 345.515 152.877L345.552 153.716L345.228 154.039C343.77 155.514 342.598 157.176 341.033 158.576C336.845 162.32 330.682 163.675 325.2 163.758C321.113 163.82 315.925 163.022 312.907 160.02C311.297 158.418 310.823 156.847 310.72 154.659L310.789 154.095L311.344 152.571Z" fill="#EF936E"/>
<path d="M345.552 153.715C345.648 155.579 345.73 157.445 345.847 159.308L345.896 159.54C346.099 160.536 345.842 162.086 346.563 162.707C347.302 162.797 348.041 162.881 348.782 162.959C352.634 169.94 351.479 180.34 351.284 188.112C351.207 191.175 351.321 194.367 350.963 197.405L350.242 196.96C350.036 195.001 348.763 193.4 347.457 192.009C346.675 191.232 345.797 190.466 344.724 190.141C342.068 189.337 339.468 190.984 337.225 192.197C336.061 191.313 334.744 190.14 333.428 189.51C331.867 188.761 330.502 188.932 328.912 189.483C328.597 188.216 328.222 187.014 327.773 185.788C326.822 184.542 325.733 183.521 324.121 183.264C322.889 183.067 320.938 183.448 319.961 184.23C319.882 184.294 319.818 184.373 319.745 184.444L319.498 184.21C319.103 182.393 317.442 180.361 316.575 178.678C312.993 171.726 310.335 164.111 310.597 156.245L310.72 154.658C310.823 156.846 311.297 158.417 312.907 160.019C315.925 163.021 321.113 163.819 325.2 163.757C330.682 163.674 336.845 162.319 341.033 158.575C342.598 157.175 343.77 155.513 345.228 154.038L345.552 153.715Z" fill="#FE9D76"/>
<path d="M345.847 159.309L345.897 159.541C346.099 160.537 345.843 162.086 346.563 162.707C347.302 162.798 348.042 162.882 348.782 162.959C352.635 169.94 351.48 180.341 351.284 188.113C351.208 191.176 351.322 194.368 350.964 197.405L350.242 196.961C350.036 195.001 348.763 193.4 347.457 192.009C346.675 191.233 345.798 190.466 344.725 190.142C342.069 189.337 339.468 190.984 337.225 192.197C336.062 191.313 334.744 190.14 333.429 189.51C331.867 188.762 330.502 188.933 328.912 189.484C328.597 188.216 328.222 187.014 327.773 185.788L328.106 185.796C331.416 185.856 333.972 184.406 336.284 182.133C340.736 177.755 344.529 170.518 345.601 164.373C345.892 162.71 345.845 160.991 345.847 159.309Z" fill="#ECECEC"/>
<path d="M399.548 134.642C399.763 133.232 399.962 131.796 400.406 130.435C402.325 124.559 409.637 120.535 414.868 117.766C419.341 121.347 423.818 124.316 429.063 126.698C433.302 128.622 437.687 130.165 441.828 132.315C446.245 134.609 450.545 137.796 455.206 139.507C455.625 139.181 455.91 138.966 456.151 138.486L455.778 137.843C458.204 137.243 460.327 136.582 462.861 136.818L464.007 137.447C465.594 141.082 465.709 144.09 466.027 147.975C464.861 149.951 463.718 151.944 462.45 153.856C461.499 154.349 460.55 154.9 459.561 155.31L458.593 155.719C459.156 164.546 459.813 173.391 460.269 182.22C460.513 186.941 460.351 191.699 460.643 196.406C460.83 199.411 461.311 202.429 461.626 205.426C460.784 205.533 460.127 205.829 459.324 206.004C458.328 206.221 457.881 205.794 457.058 205.317C451.066 203.133 444.846 203.902 439.08 206.539C432.293 209.644 426.68 216.276 422.527 222.284C418.396 214.201 416.498 205.43 417.894 196.449C413.711 198.273 409.293 199.492 405.136 201.302L403.892 201.855L402.671 202.343L400.255 203.398L394.693 204.933C394.797 198.176 396.029 190.988 396.935 184.281C396.864 180.691 397.79 176.96 398 173.339C398.478 165.102 398.59 156.824 398.951 148.581C398.984 145.948 398.996 143.314 398.988 140.681C399.082 138.643 399.185 136.656 399.548 134.642Z" fill="#FE9D76"/>
<path d="M409.555 146.459C409.675 146.464 409.796 146.462 409.916 146.473C410.913 146.566 411.848 147.071 412.427 147.9C412.485 147.984 412.538 148.07 412.587 148.159C412.636 148.248 412.68 148.339 412.72 148.432C412.76 148.525 412.795 148.62 412.825 148.717C412.855 148.814 412.881 148.912 412.901 149.011C412.922 149.11 412.938 149.21 412.948 149.311C412.959 149.412 412.965 149.513 412.965 149.615C412.966 149.716 412.962 149.817 412.953 149.918C412.943 150.019 412.929 150.119 412.91 150.219C412.7 151.327 412.087 151.874 411.19 152.483C411.036 152.483 410.882 152.486 410.728 152.484C409.815 152.47 409.032 152.094 408.424 151.415C407.873 150.799 407.706 149.966 407.794 149.161C407.931 147.907 408.627 147.234 409.555 146.459Z" fill="#192E35"/>
<path d="M431.985 142.342C432.982 142.339 434.294 142.688 435.018 143.427C435.526 143.947 435.696 144.437 435.709 145.158C435.734 146.564 434.595 147.405 433.636 148.232C433.354 148.335 433.086 148.411 432.785 148.442C432.015 148.519 431.263 148.409 430.681 147.844C430.024 147.205 429.902 146.275 429.989 145.409C430.144 143.887 430.826 143.252 431.985 142.342Z" fill="#192E35"/>
<path d="M432.78 161.363C433.128 161.517 433.35 161.658 433.653 161.88C433.676 162.112 433.709 162.31 433.671 162.547C433.433 164.044 430.597 165.765 429.314 166.465C426.277 168.123 423.133 168.355 419.857 167.38C419.178 166.937 418.603 166.561 418.085 165.933C418.504 165.342 420.923 165.313 421.721 165.212C425.737 164.701 429.29 163.383 432.78 161.363Z" fill="#FEFEFE"/>
<path d="M398.989 140.681C399.082 138.643 399.185 136.656 399.548 134.643C400.36 136.585 400.138 139.22 400.15 141.311C400.949 143.594 400.954 146.384 401.232 148.783C401.659 152.469 402.197 156.157 403.133 159.752C405.333 166.051 411.12 178.744 417.129 181.648C418.298 182.213 419.511 182.515 420.757 182.834C420.786 182.842 420.81 182.861 420.836 182.874C422.586 182.734 424.338 182.623 426.091 182.539C425.684 182.699 424.875 182.873 424.667 183.261C423.691 185.09 424.847 189.655 424.922 191.844C423.138 193.019 421.369 194.276 419.506 195.32C418.995 195.786 418.49 196.109 417.894 196.449C413.711 198.273 409.293 199.492 405.136 201.302L403.892 201.855L402.671 202.344L400.255 203.399L394.693 204.933C394.797 198.176 396.029 190.988 396.935 184.282C396.864 180.691 397.79 176.96 398 173.339C398.478 165.103 398.59 156.825 398.951 148.581C398.984 145.948 398.997 143.315 398.989 140.681Z" fill="#303030"/>
<path d="M400.078 154.186C401.994 158.357 403.553 173.128 403.066 177.803C402.815 176.209 402.299 174.798 401.715 173.303C401.439 166.872 399.993 160.656 400.078 154.186Z" fill="#C4B0A5"/>
<path d="M398.989 140.681C399.082 138.643 399.185 136.656 399.548 134.643C400.36 136.585 400.138 139.22 400.15 141.311C399.947 145.359 400.349 149.412 400.136 153.43L400.079 154.186C399.993 160.656 401.439 166.873 401.715 173.303C402.299 174.798 402.816 176.209 403.066 177.804C403.124 179.312 402.923 181.999 403.501 183.372L403.6 186.98C404.621 191.627 404.855 196.559 405.136 201.302L403.892 201.855L402.672 202.344L400.256 203.399L394.693 204.933C394.798 198.176 396.029 190.989 396.935 184.282C396.865 180.691 397.79 176.961 398 173.339C398.478 165.103 398.591 156.825 398.951 148.581C398.984 145.948 398.997 143.315 398.989 140.681Z" fill="#DDDFDF"/>
<path d="M398.989 140.681C399.082 138.643 399.185 136.656 399.548 134.643C400.36 136.585 400.138 139.22 400.15 141.311C399.947 145.359 400.349 149.412 400.136 153.43C399.17 150.701 399.509 147.584 399.477 144.721C399.245 145.066 399.381 150.072 399.295 151.007C399.05 150.232 399.025 149.387 398.952 148.581C398.984 145.948 398.997 143.315 398.989 140.681Z" fill="#C4B0A5"/>
<path d="M203.072 98.2209C208.125 94.6556 209.46 96.5709 214.68 96.4814C216.602 96.4486 218.571 95.9596 220.481 96.2929C222.348 96.6187 223.703 97.5261 225.167 98.6546C228.052 98.4371 231.193 98.1455 233.57 100.156C234.725 101.133 235.193 102.227 235.714 103.593C238.499 104.253 241.135 105.416 242.657 107.985C243.944 110.157 244.084 112.707 244.35 115.154C244.567 115.317 244.776 115.49 244.976 115.673C245.177 115.857 245.367 116.05 245.549 116.253C245.729 116.456 245.9 116.667 246.059 116.887C246.219 117.107 246.367 117.334 246.504 117.569C246.64 117.803 246.764 118.044 246.877 118.291C246.989 118.538 247.089 118.79 247.176 119.048C247.263 119.305 247.337 119.566 247.397 119.83C247.458 120.095 247.505 120.362 247.539 120.632C247.851 123.246 246.796 125.621 245.355 127.733C246.789 134.991 243.385 141.37 239.686 147.259C238.955 152.567 239.019 158.069 238.512 163.421C238.161 165.202 237.951 167.029 237.498 168.785C236.361 175.902 233.937 183.358 227.83 187.767C226.407 188.795 224.837 189.503 223.275 190.289C226.464 191.816 229.926 193.335 232.78 195.437C234.55 196.74 236.133 198.699 238.041 199.752C240.712 201.226 244.127 201.553 246.629 203.161C244.462 202.771 239.516 200.088 237.752 200.398L237.928 200.997L237.792 201.239C235.069 196.625 229.163 193.37 224.358 191.294C225.977 195.071 225.701 198.437 224.512 202.238C224.357 201.046 224.842 199.678 224.962 198.474C225.197 196.138 225.132 192.432 223.514 190.615C223.08 190.127 223.13 190.251 222.541 190.221C219.217 191.12 215.783 191.218 212.383 190.753C202.722 189.43 194.537 183.18 188.8 175.6C186.761 172.271 185.521 169.084 184.37 165.384C184.66 164.201 184.989 163.073 185.39 161.922C182.328 159.992 179.6 157.789 178.249 154.308C176.723 150.378 177.886 147.151 179.564 143.559C177.102 139.933 175.611 136.66 176.091 132.182C174.41 129.295 173.655 126.664 174.531 123.323C174.861 122.065 175.401 121.107 176.08 120.02L176.252 119.739L176.358 119.572L176.217 119.194L176.401 119.12L176.182 118.822C175.943 116.137 176.462 113.884 178.224 111.766C179.624 110.082 181.376 109.399 183.417 108.84C184.204 106.278 185.387 104.181 187.869 102.921C189.549 102.068 191.368 101.81 193.218 101.598C194.13 99.9173 195.777 98.5907 197.605 98.0079C199.502 97.4027 201.223 97.5874 203.072 98.2209Z" fill="#192E35"/>
<path d="M208.741 168.214C215.089 168.156 222.063 168.824 228.257 170.181L225.8 172.388C224.055 173.695 222.284 174.474 220.068 174.464C215.454 174.442 211.809 171.288 208.741 168.214Z" fill="#FEFEFE"/>
<path d="M179.565 143.557C180.857 142.467 182.319 141.477 184.093 141.58C185.587 141.667 186.825 142.582 187.729 143.715C189.289 145.672 190.096 148.318 190.42 150.763C190.017 154.034 189.418 159.22 186.57 161.303C186.215 161.563 185.796 161.752 185.39 161.92C182.328 159.99 179.6 157.787 178.249 154.307C176.723 150.376 177.886 147.15 179.565 143.557Z" fill="#FE9D76"/>
<path d="M199.362 123.566C211.222 124.342 227.814 124.421 239.005 128.274C241.93 134.923 238.596 144.725 239.685 147.257C238.955 152.565 239.019 158.067 238.512 163.42C238.16 165.2 237.951 167.027 237.497 168.783C236.249 169.215 234.907 170.207 233.748 170.877C233.45 170.232 233.122 169.602 232.764 168.987C231.488 166.822 229.265 166.227 226.968 165.657C223.413 164.774 206.987 162.765 204.114 164.937C202.968 165.803 202.902 167.513 202.706 168.823C202.267 168.619 201.834 168.403 201.408 168.175C197.212 165.909 192.871 161.491 191.732 156.748C191.263 154.798 191.354 152.759 190.76 150.825C190.737 150.75 190.711 150.675 190.687 150.601C190.546 149.313 190.745 148.09 190.939 146.816C192.018 139.753 196.502 138.02 198.479 132.083C199.407 129.296 199.358 126.466 199.362 123.566Z" fill="#FE9D76"/>
<path d="M208.577 143.367C209.267 143.294 209.767 143.219 210.431 143.493C210.811 143.982 210.92 144.163 210.896 144.825C210.843 146.205 209.807 148.31 208.782 149.203C207.821 148.834 207.026 148.394 206.455 147.5C206.09 146.928 206.017 146.291 206.185 145.64C206.516 144.358 207.494 143.948 208.577 143.367Z" fill="#192E35"/>
<path d="M230.033 145.986C231.713 145.941 233.859 147.001 235.065 148.17C235.501 148.592 235.589 148.814 235.595 149.406C234.968 149.701 234.097 148.827 233.353 148.646L233.052 148.903C232.491 149.912 231.916 151.043 230.688 151.339C230.171 151.464 229.6 151.385 229.182 151.039C228.694 150.635 228.433 149.992 228.394 149.371C228.302 147.915 229.099 146.993 230.033 145.986Z" fill="#192E35"/>
<path d="M227.747 139.483C229.701 139.353 232.064 139.164 233.964 139.638C234.082 139.668 234.199 139.703 234.317 139.733C235.931 140.143 237.126 140.723 238.231 142.007C238.701 142.554 239.151 143.264 239.103 144.005L238.718 144.255C235.759 143.207 229.531 143.53 227.99 142.595C227.5 142.298 227.142 141.875 227.068 141.289C226.98 140.599 227.398 140.028 227.747 139.483Z" fill="#192E35"/>
<path d="M209.072 135.848C211.014 135.709 212.838 135.777 214.413 137.038C215.027 137.53 215.29 138.019 215.373 138.808C215.247 139.071 215.13 139.392 214.883 139.568C213.212 140.75 210.789 139.791 209.006 139.389C207.082 139.333 204.004 140.326 202.34 139.642C201.97 139.49 202.026 139.337 201.917 138.995C202.019 138.717 202.091 138.474 202.265 138.223C203.46 136.501 207.144 136.105 209.072 135.848Z" fill="#192E35"/>
<path d="M405.136 201.302C409.293 199.492 413.712 198.273 417.894 196.449C416.498 205.431 418.396 214.201 422.528 222.284C426.68 216.276 432.293 209.644 439.08 206.539C444.846 203.902 451.066 203.133 457.058 205.317C457.882 205.794 458.328 206.221 459.324 206.004C460.127 205.83 460.784 205.533 461.626 205.426L461.852 205.378C465.978 204.699 469.411 204.832 473.356 206.279L474.446 206.724C476.595 207.898 478.517 209.226 480.382 210.81C481.144 211.734 482.038 212.664 482.677 213.672C487.639 219.643 489.746 229.093 493.042 236.182C494.056 238.169 495.014 240.216 496.127 242.148C497.069 235.709 499.538 230.439 503.28 225.128C504.178 223.855 505.25 222.244 506.482 221.278C506.665 221.134 506.776 221.076 506.985 220.948C506.994 220.967 507.001 220.988 507.011 221.007L507.217 221.39L506.849 221.118L506.994 221.43C501.875 227.994 497.03 234.653 496.681 243.317C498.185 246.29 500.198 248.844 502.201 251.487C508.961 260.407 509.881 264.485 510.918 275.614C507.191 278.657 499.731 283.986 495.517 285.868L495.169 286.131C493.248 287.235 491.187 288.34 489.076 289.029C486.276 290.144 483.474 291.102 480.539 291.803L473.781 293.019C473.818 288.059 473.748 283.1 473.569 278.143C473.689 276.058 473.635 273.959 473.626 271.87C468.062 277.232 462.383 282.177 454.808 284.4C454.683 286.382 454.482 288.354 453.869 290.254C453.489 291.934 453.202 294.592 451.922 295.845L451.043 296.002C450.669 296.774 450.465 297.297 449.569 297.571C448.379 297.935 447.07 297.761 445.904 298.177C430.302 300.675 411.692 312.394 402.461 325.181C401.941 325.902 401.479 326.661 401.025 327.424C398.054 318.279 394.58 309.51 386.006 304.151L385.718 303.585L385.64 302.821C384.212 300.33 367.017 291.406 363.388 289.613C364.617 285.039 365.238 280.12 366.118 275.458C367.508 268.094 369.186 260.775 370.667 253.426C372.73 243.187 374.333 232.38 378.372 222.71C381.741 214.644 386.41 208.311 394.693 204.934L400.255 203.399L402.671 202.344L403.892 201.856L405.136 201.302Z" fill="#375963"/>
<path d="M452.503 218.754C452.611 219.116 452.724 219.477 452.841 219.836C452.959 220.195 453.08 220.553 453.206 220.909C453.331 221.266 453.461 221.62 453.596 221.974C453.73 222.327 453.868 222.679 454.011 223.028C454.154 223.378 454.301 223.727 454.452 224.073C454.603 224.419 454.758 224.764 454.918 225.107C455.077 225.449 455.24 225.79 455.408 226.129C455.576 226.468 455.747 226.804 455.923 227.139C456.099 227.474 456.278 227.806 456.462 228.136C456.646 228.467 456.834 228.795 457.025 229.121C457.217 229.446 457.412 229.77 457.612 230.091C457.811 230.412 458.014 230.731 458.221 231.048C458.428 231.364 458.639 231.678 458.854 231.989C459.069 232.3 459.287 232.609 459.509 232.915C459.731 233.221 459.957 233.524 460.186 233.825C460.416 234.125 460.649 234.423 460.885 234.718C461.122 235.013 461.362 235.305 461.605 235.594C461.849 235.884 462.096 236.17 462.346 236.453C462.596 236.736 462.85 237.017 463.108 237.294C463.365 237.571 463.626 237.845 463.889 238.116C464.153 238.387 464.42 238.655 464.69 238.92C464.961 239.184 465.234 239.446 465.511 239.704C465.787 239.962 466.067 240.216 466.35 240.468C466.632 240.718 466.918 240.966 467.207 241.211C467.495 241.455 467.787 241.696 468.081 241.934C468.376 242.171 468.673 242.405 468.973 242.636C469.273 242.866 469.576 243.093 469.882 243.316C470.187 243.539 470.495 243.758 470.806 243.974C471.117 244.19 471.43 244.402 471.746 244.609C472.062 244.818 472.381 245.022 472.701 245.223C473.022 245.423 473.346 245.62 473.671 245.813C473.997 246.005 474.325 246.194 474.655 246.379C474.993 246.566 475.334 246.735 475.682 246.903C476.455 245.997 477.201 245.047 478.091 244.252C479.432 243.404 480.687 243.008 482.231 242.732C484.545 243.102 486.565 243.929 487.996 245.898C489.355 247.768 489.734 250.198 489.331 252.445C489.19 253.204 489.032 253.961 488.859 254.714C487.454 258.027 485.549 260.297 482.126 261.68C480.35 262.398 478.449 262.729 476.589 263.16C476.228 266.192 475.798 269.521 473.626 271.869C468.062 277.231 462.384 282.177 454.808 284.4C454.653 284.451 454.495 284.496 454.337 284.541C449.56 285.916 445.214 284.764 440.982 282.405C434.809 278.964 430.4 272.874 428.55 266.116C427.148 260.996 426.804 255.487 426.208 250.227C425.654 245.328 424.711 239.88 425.093 234.946C425.183 233.788 425.382 232.643 425.995 231.637C429.465 225.952 437.159 223.477 443.208 221.868C446.531 221.319 449.614 220.551 452.503 218.754Z" fill="#FE9D76"/>
<path d="M433.603 240.347C434.316 240.253 434.846 240.214 435.562 240.376L435.751 240.725C434.455 242.308 430.812 242.958 428.934 243.95L428.643 244.107C427.987 244.523 427.756 244.805 426.967 244.759L426.837 244.328C426.951 244.1 426.999 243.979 427.132 243.778C428.471 241.756 431.351 240.849 433.603 240.347Z" fill="#375963"/>
<path d="M451.54 238.167C453.714 238.092 458.943 238.046 460.507 239.683C460.776 239.965 460.676 240.106 460.658 240.459L460.207 240.821L459.595 240.68C456.94 240.212 453.939 240.413 451.393 239.767C450.83 239.624 450.817 239.638 450.521 239.114C450.786 238.486 450.929 238.498 451.54 238.167Z" fill="#375963"/>
<path d="M454.011 245.986C454.592 246.03 455.056 246.152 455.481 246.578C456.405 247.504 456.75 248.832 456.747 250.105C456.743 251.563 456.482 252.255 455.455 253.279C454.997 253.265 454.55 253.211 454.095 253.164C453.369 252.719 452.986 252.315 452.772 251.468C452.321 249.679 453.138 247.519 454.011 245.986Z" fill="black"/>
<path d="M431.477 247.947C431.907 248.082 432.198 248.176 432.548 248.474C433.474 249.264 433.916 250.871 433.903 252.04C433.886 253.601 433.537 254.427 432.435 255.521C431.647 255.392 431.054 255.203 430.53 254.561C429.928 253.824 429.718 252.444 429.812 251.522C429.968 249.979 430.241 248.917 431.477 247.947Z" fill="black"/>
<path d="M454.025 264.217L454.272 264.257L454.405 264.571C454.142 265.278 453.843 265.946 453.466 266.601C451.967 269.211 450.159 270.193 447.356 270.944C446.114 270.593 445.075 270.207 443.927 269.607C443.009 268.81 442.399 267.988 441.734 266.99C446.252 266.9 449.887 266.01 454.025 264.217Z" fill="#FEFEFE"/>
<path d="M405.136 201.302C409.293 199.492 413.712 198.273 417.894 196.449C416.498 205.431 418.396 214.201 422.528 222.284C417.202 229.501 415.616 234.298 415.447 243.282C411.242 236.629 408.041 229.327 404.968 222.098C404.206 220.307 402.051 212.794 400.886 212.119C401.622 217.639 411.998 239.809 415.497 244.135C416.212 257.949 422.172 275.165 418.217 288.382C429.22 293.708 438.925 295.669 451.043 296.002C450.67 296.773 450.465 297.297 449.569 297.571C448.38 297.935 447.07 297.76 445.904 298.177C430.302 300.674 411.693 312.394 402.462 325.181C401.942 325.901 401.479 326.661 401.026 327.424C398.055 318.279 394.58 309.51 386.007 304.151L385.719 303.585L385.641 302.821C384.213 300.33 367.017 291.405 363.389 289.613C364.617 285.038 365.239 280.12 366.119 275.458C367.509 268.094 369.187 260.774 370.667 253.426C372.73 243.187 374.334 232.38 378.373 222.71C381.742 214.643 386.41 208.311 394.693 204.933L400.256 203.399L402.672 202.344L403.892 201.856L405.136 201.302Z" fill="#0E6739"/>
<path d="M339.676 278.287C342.176 279.447 344.779 280.62 347.128 282.065C346.885 282.454 346.914 282.53 346.872 282.961C346.795 283.735 346.622 284.904 346.298 285.594L346.434 285.924C346.624 284.857 346.709 283.194 347.394 282.373C349.453 282.171 360.694 288.225 363.389 289.612C367.018 291.404 384.213 300.328 385.641 302.82L385.719 303.583L386.007 304.149C394.58 309.508 398.055 318.278 401.026 327.423L406.486 343.438C407.288 345.769 408.279 348.085 408.968 350.446C411.74 351.27 416.578 350.518 419.572 350.507C425.725 350.482 431.951 350.473 438.097 350.721C438.929 351.398 439.813 351.962 440.044 353.073C440.382 354.695 435.032 378.226 434.336 381.819L430.485 402.832C429.881 405.053 429.551 407.431 429.198 409.705C430.532 408.371 433.344 405.52 435.258 405.311L435.419 405.494C435.045 405.798 434.715 406.011 434.287 406.22C432.205 407.24 429.411 409.51 428.684 411.776C427.778 414.6 427.834 417.273 426.109 419.846L425.102 420.521C420.019 420.958 414.628 420.655 409.515 420.691L373.788 420.744L346.677 420.746C342.338 420.74 337.593 421.115 333.31 420.567L330.296 420.595C317.235 420.59 304.137 420.864 291.082 420.738C284.63 420.943 278.12 420.776 271.663 420.774L235.187 420.764L120.206 420.924L99.7947 420.991C96.8422 421.001 93.7585 421.225 90.823 421.068C90.1774 421.034 89.7304 420.94 89.1723 420.589C88.9976 419.99 89.029 419.998 89.2874 419.424C89.8368 419.043 90.0187 418.997 90.6885 418.941C94.8175 418.598 99.2712 418.909 103.438 418.893C113.218 418.844 122.999 418.875 132.779 418.988C132.247 413.823 132.155 402.407 130.488 398.167L131.616 398.039C131.945 400.838 132.303 403.642 132.47 406.456C132.719 410.652 132.734 414.928 133.467 419.075L145.086 419.057L164.813 419.061C168.6 419.061 172.486 419.227 176.257 418.89C178.604 417.115 207.671 409.918 212.844 408.997C216.235 408.621 221.621 406.819 224.772 408.09C226.296 412.788 227.833 416.196 231.922 419.181C232.901 419.548 233.912 419.96 234.954 420.101C240.14 420.802 245.915 420.327 251.156 420.322L281.64 420.304C282.737 413.889 284.098 406.406 288.374 401.273C283.769 398.728 279.046 396.423 274.206 394.358C279.07 396.024 282.396 397.762 286.898 400.153C287.813 400.64 289 400.984 289.786 401.638C288.989 401.681 288.651 401.613 288.066 402.228C284.863 405.601 282.725 415.709 282.192 420.317L293.072 420.245C294.938 419.962 296.925 420.06 298.814 420.046C298.303 419.458 297.86 418.848 297.416 418.21L297.019 417.278C296.14 416.712 294.729 416.881 293.704 416.825C293.643 416.818 293.582 416.818 293.523 416.804C292.939 416.665 292.704 416.582 292.413 416.031C292.01 415.266 292.262 414.079 292.643 413.359C292.862 412.948 293.138 412.996 293.558 412.872L294.783 412.796C296.541 411.573 297.818 407.271 298.622 405.346C297.718 405.11 296.658 404.945 295.885 404.406C296.838 404.418 297.69 404.469 298.497 405.027C298.845 405.268 299.204 405.548 299.61 405.686C301.047 406.178 307.925 406.451 309.178 405.845C315.785 406.375 322.57 404.301 329.242 404.604C329.975 398.408 331.814 392.217 333.149 386.122L333.092 384.666C332.506 381.434 332.146 378.128 331.594 374.88C328.929 359.194 326.496 343.667 325.519 327.766C325.27 323.704 324.705 319.331 324.96 315.278C325.005 314.564 324.985 314.304 325.527 313.818C327.438 313.138 328.916 311.358 330.126 309.802C330.778 310.175 331.439 310.568 332.154 310.809C333.19 311.159 333.894 310.713 334.813 310.27L334.795 310.096C333.911 310.302 332.892 310.643 331.993 310.384C328.314 309.325 325.439 303.945 323.841 300.807C324.771 299.414 327.507 298.24 328.875 297.109C329.831 296.318 330.722 295.395 331.575 294.496C335.286 290.584 339.808 283.893 339.676 278.287Z" fill="#375963"/>
<path d="M383.41 378.323C385.37 378.199 387.391 378.122 389.19 379.058C390.396 379.685 391.31 380.707 391.645 382.038C392.05 383.65 391.589 385.364 390.663 386.714C389.164 388.901 387.037 389.719 384.558 390.249C382.398 390.353 380.261 390.189 378.377 389.025C377.122 388.25 376.086 387.045 375.769 385.58C375.494 384.306 375.813 383 376.54 381.932C378.119 379.618 380.814 378.848 383.41 378.323Z" fill="#949A99"/>
<path d="M298.621 405.347C297.717 405.11 296.657 404.945 295.884 404.406C296.838 404.418 297.69 404.469 298.496 405.028C298.844 405.268 299.204 405.548 299.61 405.687C301.047 406.178 307.924 406.451 309.178 405.846C315.784 406.376 322.57 404.301 329.242 404.605C328.928 406.262 328.495 411.568 327.325 412.609C326.482 412.726 325.692 412.756 324.84 412.744C314.427 412.357 303.98 413.355 293.558 412.872L294.783 412.796C296.541 411.573 297.818 407.271 298.621 405.347Z" fill="#FE9D76"/>
<path d="M212.844 408.997C216.235 408.621 221.621 406.819 224.772 408.09C226.296 412.788 227.833 416.196 231.922 419.181C227.354 418.805 222.584 419.067 217.985 419.061L190.056 419.103C185.566 419.109 180.684 419.508 176.257 418.89C178.604 417.115 207.671 409.918 212.844 408.997Z" fill="#0E6739"/>
<path d="M386.007 304.15C394.58 309.509 398.055 318.279 401.026 327.424L406.485 343.439C407.288 345.77 408.279 348.086 408.968 350.447C398.799 350.363 388.631 350.354 378.462 350.42C379.376 339.368 381.63 327.807 383.635 316.883C384.403 312.696 385.596 308.374 386.007 304.15Z" fill="#FEFEFE"/>
<path d="M339.676 278.287C342.176 279.447 344.779 280.62 347.128 282.065C346.885 282.454 346.914 282.53 346.872 282.961C346.795 283.735 346.621 284.904 346.298 285.594L346.434 285.924C346.624 284.857 346.709 283.194 347.394 282.373C349.452 282.171 360.694 288.225 363.389 289.612C367.017 291.404 384.213 300.328 385.641 302.82L385.719 303.583C383.811 314.968 381.508 326.246 379.85 337.683C379.239 341.896 378.501 346.151 378.273 350.404C371.558 350.451 364.843 350.453 358.128 350.41C354.472 350.399 350.312 350.003 346.734 350.68C344.932 351.021 343.297 351.806 341.992 353.104C340.8 354.291 340 355.771 339.434 357.341C338.411 360.181 337.945 363.38 337.304 366.337C335.982 372.429 334.723 378.655 333.092 384.665C332.506 381.433 332.145 378.127 331.594 374.879C328.929 359.193 326.495 343.666 325.519 327.765C325.27 323.703 324.705 319.33 324.96 315.277C325.005 314.563 324.985 314.303 325.527 313.817C327.438 313.137 328.916 311.357 330.126 309.8C330.778 310.174 331.439 310.567 332.154 310.808C333.19 311.158 333.894 310.712 334.813 310.269L334.795 310.095C333.911 310.301 332.892 310.642 331.993 310.383C328.314 309.324 325.439 303.943 323.841 300.806C324.771 299.413 327.507 298.239 328.875 297.107C329.831 296.317 330.722 295.394 331.575 294.495C335.286 290.584 339.808 283.893 339.676 278.287Z" fill="#FEFEFE"/>
<path d="M238.512 163.42L238.839 163.806C239.313 163.667 246.816 158.044 248.368 157.107C252.282 154.741 257.041 152.83 261.391 151.409C277.044 146.296 295.962 146.642 310.79 154.095L310.72 154.659L310.598 156.246C310.336 164.112 312.993 171.727 316.575 178.678C317.443 180.362 319.104 182.394 319.499 184.21L319.746 184.444C319.818 184.373 319.882 184.294 319.962 184.231C320.938 183.449 322.889 183.067 324.121 183.264C325.733 183.521 326.822 184.542 327.773 185.788C328.222 187.014 328.597 188.216 328.912 189.484C330.502 188.933 331.867 188.762 333.429 189.51C334.744 190.14 336.062 191.313 337.225 192.197C339.468 190.984 342.069 189.337 344.725 190.142C345.798 190.466 346.676 191.232 347.457 192.009C348.763 193.4 350.036 195.001 350.242 196.96L350.964 197.405C351.322 194.368 351.208 191.175 351.284 188.113C351.48 180.341 352.635 169.94 348.782 162.959L349.823 163.269C365.615 170.077 381.319 177.081 396.935 184.281C396.029 190.988 394.798 198.176 394.693 204.933C386.411 208.31 381.742 214.643 378.373 222.709C374.334 232.379 372.73 243.186 370.667 253.425C369.187 260.774 367.509 268.093 366.119 275.457C365.239 280.119 364.617 285.037 363.389 289.612C360.694 288.226 349.453 282.171 347.394 282.374C346.709 283.195 346.624 284.858 346.434 285.925L346.298 285.594C346.622 284.904 346.795 283.736 346.872 282.961C346.914 282.531 346.885 282.455 347.128 282.066C344.779 280.62 342.176 279.447 339.676 278.288C339.808 283.894 335.286 290.585 331.574 294.496C330.721 295.395 329.83 296.318 328.875 297.109C327.507 298.24 324.771 299.414 323.841 300.807L323.617 300.472C322.371 300.672 320.722 300.609 319.587 301.018L319.541 301.31C319.327 301.035 319.439 301.128 319.131 300.945C318.601 300.63 318.073 300.32 317.556 299.984C309.946 295.03 304.877 287.549 302.987 278.697C301.019 280.346 298.431 281.096 296.573 282.849C295.403 279.314 294.641 275.605 293.702 272.002C292.346 266.985 290.944 261.98 289.499 256.988C287.784 251.047 285.411 245.332 283.647 239.399C283.054 237.759 282.408 236.14 281.712 234.542C273.695 216.368 264.802 210.244 246.771 203.278L246.63 203.161C244.128 201.553 240.712 201.226 238.042 199.752C236.134 198.698 234.551 196.739 232.781 195.436C229.926 193.334 226.464 191.816 223.276 190.288C224.837 189.503 226.407 188.794 227.831 187.766C233.938 183.358 236.362 175.901 237.498 168.784C237.951 167.028 238.16 165.201 238.512 163.42Z" fill="#FE9D76"/>
<path d="M316.464 259.695C319.021 260.114 321.91 260.112 324.468 259.714L324.963 259.909C324.114 260.643 323.574 260.756 322.47 260.889C320.419 261.135 318.132 261.013 316.464 259.695Z" fill="#FE4F5A"/>
<path d="M325.041 229.714C326.563 229.485 328.001 229.345 329.541 229.352L330.228 229.997C328.724 230.001 326.582 229.787 325.408 230.916C324.523 231.767 324.198 233.635 324.3 234.814C324.329 235.164 324.45 235.599 324.402 235.944L323.884 236.882C323.464 235.386 323.258 234.043 323.254 232.481C321.377 232.483 319.488 232.439 317.613 232.509C317.187 236.024 316.5 239.263 313.513 241.562C313.192 241.81 312.856 242.056 312.51 242.272L312.22 241.672C314.177 239.98 315.784 237.83 316.338 235.255C316.607 234.002 316.627 232.694 315.85 231.61C315.103 230.568 314.183 230.278 312.959 230.115C313.492 230.031 313.932 229.823 314.424 229.613C315.387 229.998 316.032 230.563 316.783 231.265L323.84 231.261L325.041 229.714Z" fill="#375963"/>
<path d="M311.224 254.006C317.557 254.868 323.691 253.981 330.014 254.079C328.677 255.548 327.579 256.348 325.71 257.114C322.512 258.544 318.314 257.936 315.096 256.946C313.628 256.102 312.409 255.232 311.224 254.006Z" fill="#FEFEFE"/>
<path d="M246.77 203.277C248.799 201.972 252.567 192.671 254.705 189.835C256.099 187.986 258.036 185.984 260.016 184.757C262.534 183.196 265.512 182.058 268.236 180.89C276.458 177.365 284.821 174.491 293.312 171.701C296.865 170.534 300.417 169.057 304.136 168.508C301.583 175.456 300.577 182.308 300.289 189.666C298.136 190.952 296.149 194.703 295.574 197.089C295.449 197.609 295.399 198.138 295.37 198.671C292.054 199.794 288.511 201.71 286.927 204.985C285.668 207.59 285.791 210.59 286.809 213.247C287.435 214.881 288.407 216.356 289.382 217.801C289.098 219.693 288.861 221.522 288.905 223.437C288.95 225.367 289.334 227.676 289.054 229.563C289.448 230.078 289.45 230.158 290.12 230.244C291.737 230.452 293.579 230.236 295.208 230.173C298.837 229.424 311.061 228.503 314.424 229.611C313.932 229.821 313.491 230.029 312.959 230.113C314.183 230.276 315.103 230.566 315.85 231.608C316.626 232.692 316.607 234 316.338 235.253C315.784 237.828 314.177 239.978 312.22 241.67L312.51 242.27C310.852 243.186 309.116 243.78 307.218 243.921C304.392 244.129 301.409 243.323 299.294 241.386C297.013 239.298 296.278 236.572 296.098 233.599C294.201 233.318 292.177 233.147 290.353 232.552C288.429 232.965 286.969 233.75 285.893 235.45C285.482 236.101 285.2 236.858 284.948 237.583C285.142 239.916 285.385 242.091 286.211 244.296C286.425 242.342 286.41 240.317 287.525 238.635L287.78 238.572C287.732 238.678 287.683 238.783 287.635 238.89C286.661 241.079 286.414 244.274 287.308 246.519C288.028 248.326 289.642 250.411 291.511 251.13C292.023 251.327 292.562 251.466 293.092 251.606C294.012 259.398 296.837 264.563 303.023 269.508C303.176 269.63 303.334 269.748 303.49 269.866C302.172 271.485 303.961 277.843 302.987 278.696C301.019 280.344 298.431 281.095 296.573 282.848C295.403 279.313 294.64 275.604 293.702 272.001C292.345 266.984 290.944 261.979 289.499 256.987C287.783 251.046 285.41 245.331 283.646 239.398C283.053 237.758 282.408 236.139 281.711 234.541C273.695 216.366 264.801 210.243 246.77 203.277Z" fill="#66170E"/>
<path d="M312.219 241.671C310.86 242.395 309.469 242.848 307.937 243.015C305.149 243.319 302.356 242.81 300.16 240.982C298.293 239.428 296.954 236.856 296.81 234.424C296.744 233.317 297.015 232.231 297.799 231.415C299.982 229.144 309.602 230.056 312.959 230.114C314.182 230.277 315.102 230.567 315.849 231.609C316.626 232.693 316.607 234 316.337 235.254C315.784 237.829 314.176 239.978 312.219 241.671Z" fill="#FE9D76"/>
<path d="M306.812 231.168C307.192 231.285 307.534 231.4 307.879 231.602C308.531 231.982 309.108 232.458 309.221 233.257C309.356 234.204 308.798 234.824 308.209 235.461C307.395 235.453 306.498 235.426 305.915 234.768C305.523 234.326 305.44 233.938 305.45 233.371C305.467 232.339 306.113 231.83 306.812 231.168Z" fill="#192E35"/>
<path d="M238.512 163.42L238.839 163.806C239.313 163.667 246.816 158.044 248.368 157.107C252.282 154.741 257.041 152.83 261.391 151.409C277.044 146.296 295.962 146.642 310.79 154.095L310.72 154.659L310.598 156.246C310.336 164.112 312.993 171.727 316.575 178.678C317.443 180.362 319.104 182.394 319.499 184.21C318.071 183.323 316.611 182.731 314.906 183.133C313.305 183.511 310.074 186.524 308.921 186.34C307.388 186.096 306.673 186.291 305.4 187.194C304.097 188.118 303.509 189.16 301.808 189.385C301.302 189.452 300.796 189.587 300.289 189.667C300.577 182.309 301.583 175.457 304.135 168.509C300.417 169.058 296.864 170.535 293.311 171.702C284.82 174.491 276.458 177.366 268.235 180.891C265.512 182.059 262.534 183.196 260.015 184.757C258.036 185.984 256.098 187.987 254.705 189.835C252.567 192.671 248.799 201.973 246.77 203.278L246.629 203.161C244.127 201.553 240.711 201.226 238.041 199.752C236.133 198.698 234.55 196.739 232.78 195.436C229.925 193.334 226.463 191.815 223.275 190.288C224.836 189.502 226.406 188.794 227.83 187.766C233.937 183.358 236.361 175.901 237.497 168.784C237.951 167.028 238.16 165.201 238.512 163.42Z" fill="#F4E9E7"/>
<path d="M300.289 189.666C300.796 189.586 301.302 189.451 301.808 189.384C303.509 189.159 304.097 188.118 305.4 187.194C306.674 186.29 307.388 186.095 308.922 186.339C310.074 186.523 313.305 183.51 314.906 183.133C316.612 182.73 318.071 183.322 319.499 184.21L319.746 184.444C319.818 184.372 319.883 184.294 319.962 184.23C320.938 183.448 322.889 183.067 324.122 183.263C325.734 183.521 326.822 184.542 327.774 185.787C328.222 187.013 328.598 188.216 328.912 189.483C330.502 188.932 331.868 188.761 333.429 189.509C334.744 190.139 336.062 191.313 337.225 192.196C339.468 190.983 342.069 189.336 344.725 190.141C345.798 190.466 346.676 191.232 347.457 192.008C348.764 193.399 350.036 195.001 350.242 196.96L350.964 197.404C350.898 198.516 351.152 199.029 351.647 199.998C353.298 203.224 353.079 205.626 352.538 209.074C354.774 210.12 356.844 211.177 357.804 213.627C359.264 217.355 357.591 223.113 355.973 226.592L354.94 228.283C354.373 229.049 353.679 230.277 352.681 230.449C352.206 230.531 351.702 230.529 351.22 230.531C349.03 230.361 347.017 230.386 344.837 230.672C344.353 230.778 343.971 230.799 343.476 230.769C342.918 230.398 342.268 229.877 341.615 229.712C338.045 228.812 333.223 229.329 329.54 229.35C328.001 229.343 326.563 229.483 325.041 229.712L323.84 231.259L316.782 231.263C316.032 230.561 315.387 229.997 314.424 229.611C311.061 228.504 298.837 229.424 295.208 230.174C293.579 230.237 291.737 230.452 290.12 230.244C289.45 230.158 289.448 230.078 289.054 229.564C289.334 227.677 288.95 225.367 288.905 223.438C288.86 221.522 289.097 219.694 289.382 217.801C288.407 216.357 287.435 214.881 286.809 213.247C285.791 210.59 285.667 207.59 286.927 204.985C288.511 201.71 292.054 199.794 295.37 198.671C295.399 198.138 295.449 197.61 295.574 197.089C296.148 194.704 298.136 190.952 300.289 189.666Z" fill="#1C1C1C"/>
<path d="M347.457 192.01C348.763 193.401 350.036 195.002 350.242 196.961C347.106 196.355 343.86 196.383 340.677 196.328C341.13 195.534 341.578 194.698 342.174 194.002C343.607 192.326 345.406 192.203 347.457 192.01Z" fill="#DDDFDF"/>
<path d="M295.208 230.175C296.053 226.752 297.05 223.354 297.835 219.919C298.572 216.696 298.68 212.775 300.228 209.843C300.821 209.556 301.315 209.45 301.979 209.473C304.481 209.561 307.061 210.214 309.559 210.5C313.287 210.926 317.069 210.896 320.814 210.781C323.944 210.685 327.129 210.545 330.22 210.038C332.204 209.713 337.778 207.48 339.18 208.047C340.704 208.662 341.435 210.733 341.869 212.179C343.445 217.445 344.891 225.216 344.837 230.673C344.353 230.779 343.971 230.8 343.476 230.77C342.918 230.4 342.268 229.878 341.615 229.714C338.045 228.813 333.223 229.331 329.54 229.352C328.001 229.345 326.563 229.484 325.041 229.714L323.84 231.261L316.782 231.265C316.032 230.562 315.387 229.998 314.424 229.612C311.061 228.505 298.837 229.426 295.208 230.175Z" fill="#FE9D76"/>
<path d="M304.819 225.456C306.723 225.374 310.957 224.767 312.627 225.707C312.995 225.913 312.933 226.006 313.051 226.38L312.738 226.917C311.921 227.385 311.048 227.298 310.13 227.306C306.916 227.331 303.702 227.378 300.488 227.254C301.919 226.528 303.28 225.916 304.819 225.456Z" fill="#375963"/>
<path d="M330.549 225.249C332.988 225.076 335.494 225.165 337.781 226.12C338.312 226.343 338.677 226.522 338.89 227.071C338.207 227.476 337.569 227.406 336.805 227.397C334.241 227.201 331.631 227.364 329.084 227.062C328.336 226.974 327.833 226.88 327.349 226.292L327.605 225.786C328.454 225.297 329.589 225.331 330.549 225.249Z" fill="#375963"/>
<path d="M348.782 162.959L349.823 163.269C365.615 170.077 381.319 177.081 396.935 184.281C396.029 190.988 394.798 198.176 394.693 204.933C386.411 208.31 381.742 214.643 378.373 222.709C374.334 232.379 372.73 243.186 370.667 253.425C369.187 260.774 367.509 268.093 366.119 275.457C365.239 280.119 364.617 285.037 363.389 289.612C360.694 288.226 349.453 282.171 347.394 282.374C346.709 283.195 346.624 284.858 346.434 285.925L346.298 285.594C346.622 284.904 346.795 283.736 346.872 282.961C346.914 282.531 346.885 282.455 347.128 282.066C344.779 280.62 342.176 279.447 339.676 278.288C338.738 276.756 338.878 271.582 338.755 269.651C333.644 273.511 327.584 275.936 321.118 275.994C316.301 276.038 309.316 274.91 305.724 271.384C311.847 274.494 317.026 276.159 323.977 275.318C324.631 275.233 325.281 275.125 325.927 274.997C326.573 274.868 327.215 274.718 327.851 274.546C328.487 274.374 329.117 274.181 329.74 273.967C330.363 273.753 330.978 273.518 331.586 273.263C332.193 273.008 332.791 272.732 333.38 272.437C333.969 272.142 334.547 271.827 335.115 271.492C335.682 271.159 336.238 270.806 336.782 270.434C337.326 270.063 337.857 269.673 338.374 269.266C348.425 261.279 347.488 253.555 348.211 241.91C348.339 239.842 348.347 237.733 349.665 236.031L349.984 236.003L349.966 236.453C349.48 236.971 348.929 237.484 348.833 238.222C348.638 239.716 348.791 241.23 348.676 242.727C348.494 245.086 347.965 247.527 347.966 249.885C347.967 250.524 347.891 250.713 348.27 251.241C348.603 251.281 348.838 251.285 349.154 251.138C351.766 249.925 353.785 246.926 354.687 244.32C355.729 241.312 356.274 237.288 354.738 234.367C353.917 232.806 352.994 232.214 351.344 231.7C348.955 232.822 346.747 233.581 344.107 233.881C343.994 236.889 343.202 239.542 340.898 241.642C338.93 243.437 336.346 244.155 333.714 244C333.522 243.99 333.329 243.976 333.137 243.956C332.945 243.936 332.753 243.912 332.562 243.882C332.371 243.853 332.181 243.818 331.992 243.779C331.803 243.739 331.615 243.695 331.428 243.646C331.242 243.596 331.056 243.542 330.872 243.484C330.688 243.425 330.506 243.361 330.325 243.293C330.145 243.225 329.966 243.152 329.789 243.074C329.612 242.997 329.437 242.915 329.265 242.828C329.092 242.741 328.922 242.65 328.754 242.554C328.586 242.459 328.421 242.359 328.259 242.255C328.096 242.151 327.936 242.043 327.779 241.931C327.622 241.818 327.468 241.702 327.317 241.581C327.166 241.461 327.019 241.337 326.874 241.209C326.73 241.081 326.589 240.949 326.451 240.814C326.314 240.678 326.18 240.539 326.05 240.397C325.919 240.255 325.792 240.109 325.67 239.96C324.96 239.104 324.527 238.22 324.052 237.225C323.997 237.11 323.94 236.996 323.884 236.882L324.401 235.943C324.449 235.599 324.329 235.163 324.299 234.813C324.198 233.634 324.523 231.766 325.407 230.916C326.582 229.786 328.724 230 330.227 229.996L329.54 229.351C333.223 229.33 338.045 228.813 341.614 229.713C342.268 229.878 342.918 230.399 343.476 230.77C343.97 230.799 344.353 230.779 344.837 230.672C347.017 230.387 349.03 230.362 351.22 230.532C351.702 230.53 352.206 230.532 352.681 230.45C353.679 230.278 354.372 229.05 354.939 228.284L355.973 226.593C357.591 223.114 359.264 217.355 357.803 213.627C356.844 211.177 354.773 210.121 352.538 209.075C353.079 205.626 353.297 203.225 351.646 199.998C351.151 199.03 350.898 198.516 350.964 197.405C351.322 194.368 351.207 191.176 351.284 188.113C351.48 180.341 352.635 169.94 348.782 162.959Z" fill="#66170E"/>
<path d="M330.227 229.996C332.452 229.982 340.652 229.495 342.013 230.721C343.174 231.767 343.257 233.849 343.147 235.269C342.964 237.615 341.982 239.824 340.13 241.325C338.122 242.953 335.418 243.459 332.896 243.125C332.729 243.104 332.563 243.078 332.398 243.048C332.233 243.019 332.069 242.985 331.905 242.947C331.742 242.91 331.579 242.868 331.418 242.822C331.257 242.776 331.097 242.726 330.938 242.672C330.779 242.619 330.621 242.561 330.465 242.499C330.309 242.438 330.155 242.372 330.003 242.303C329.85 242.233 329.698 242.16 329.549 242.084C329.4 242.007 329.253 241.927 329.108 241.843C328.963 241.759 328.82 241.671 328.679 241.58C328.538 241.489 328.4 241.394 328.264 241.297C328.128 241.198 327.994 241.097 327.863 240.992C327.732 240.888 327.604 240.78 327.478 240.669C327.353 240.558 327.23 240.444 327.11 240.327C326.99 240.21 326.873 240.09 326.759 239.967C326.645 239.844 326.534 239.719 326.426 239.59C326.319 239.462 326.214 239.331 326.113 239.198C325.358 238.211 324.888 237.074 324.401 235.942C324.449 235.598 324.329 235.162 324.299 234.812C324.198 233.633 324.523 231.765 325.407 230.915C326.582 229.785 328.724 230 330.227 229.996Z" fill="#FE9D76"/>
<path d="M331.905 231.465C332.665 231.392 333.619 231.414 334.188 232.006C334.596 232.43 334.745 232.946 334.661 233.523C334.546 234.301 333.981 234.802 333.437 235.309C332.66 235.354 331.83 235.349 331.228 234.762C330.796 234.341 330.684 233.814 330.725 233.233C330.779 232.488 331.412 231.959 331.905 231.465Z" fill="#192E35"/>
<path d="M454.808 284.4C462.383 282.177 468.062 277.23 473.626 271.869C473.636 273.958 473.69 276.057 473.569 278.142C473.748 283.099 473.819 288.058 473.781 293.018L480.539 291.802C482.338 293.773 485.02 294.272 486.961 296.044C490.836 297.891 495.288 298.897 499.321 300.43C498.573 295.736 497.384 290.684 497.939 285.931C498.509 290.831 499.49 295.877 499.788 300.776C502.08 301.532 504.327 302.257 506.423 303.478C508.102 299.578 511.467 291.69 513.972 288.611C511.767 293.625 509.225 298.478 507 303.477C515.178 309.511 522.461 318.194 527.771 326.842C529.557 329.753 530.995 332.902 532.809 335.778C534.92 340.522 536.897 345.248 538.503 350.19C542.716 363.152 545.667 376.597 547.891 390.028C548.67 394.736 549.647 399.639 549.616 404.42C549.602 406.671 549.273 408.876 548.462 410.985C547.227 414.201 545.037 416.647 542.436 418.845C545.583 418.78 554.879 418.195 557.179 418.667C557.723 418.779 557.923 419.039 558.314 419.405C558.424 420.037 558.424 419.987 558.055 420.515C557.325 420.881 556.641 420.975 555.826 421.003C551.887 421.137 547.876 420.915 543.931 420.874L520.772 420.712C503.947 420.623 487.037 420.945 470.224 420.494C465.73 420.798 461.046 420.535 456.532 420.555C446.055 420.665 435.579 420.653 425.102 420.52L426.109 419.846C427.834 417.273 427.778 414.6 428.684 411.776C429.411 409.51 432.205 407.24 434.287 406.22C434.715 406.011 435.045 405.798 435.419 405.493L435.258 405.311C433.344 405.52 430.532 408.37 429.198 409.705C429.551 407.431 429.881 405.053 430.485 402.832L434.336 381.819C435.031 378.226 440.381 354.696 440.044 353.073C439.813 351.962 438.928 351.398 438.097 350.722C431.951 350.473 425.725 350.482 419.572 350.507C416.577 350.519 411.74 351.271 408.968 350.447C408.279 348.085 407.288 345.77 406.485 343.439L401.026 327.423C401.479 326.66 401.942 325.9 402.462 325.18C411.692 312.393 430.302 300.673 445.904 298.176C447.07 297.76 448.38 297.934 449.569 297.57C450.465 297.296 450.669 296.772 451.043 296.001L451.922 295.844C453.202 294.591 453.49 291.932 453.87 290.253C454.482 288.354 454.683 286.381 454.808 284.4Z" fill="#66170E"/>
<path d="M506.362 370.143C508.381 372.536 515.005 388.75 516.88 392.871C511.612 394.439 506.307 395.859 501.032 397.396C502.765 390.42 504.059 383.227 505.415 376.166C505.695 374.15 505.975 372.141 506.362 370.143Z" fill="#FEFEFE"/>
<path d="M430.485 402.832C434.396 400.255 441.848 396.128 446.603 397.076C449.31 397.616 452.011 398.892 454.595 399.851C457.336 400.867 460.129 401.743 462.861 402.78C465.104 403.631 467.307 404.681 469.707 404.995C471.236 405.195 472.78 404.938 474.289 404.696C476.625 409.614 477.282 414.428 477.21 419.809C473.346 419.834 469.445 419.751 465.59 419.997C463.551 419.748 461.391 420.2 459.36 419.874C457.27 419.538 454.909 418.33 453.146 417.194C452.483 416.766 451.759 416.128 451.035 415.834C448.566 414.831 442.753 418.108 440.216 418.911C437.827 419.666 432.73 420.574 430.506 419.24C429.974 418.92 429.75 418.681 429.589 418.092C431.394 415.386 444.311 407.847 447.514 406.197L447.236 406.105C446.803 406.358 446.948 406.291 446.594 406.45C445.875 406.773 445.174 407.117 444.475 407.482C441.72 408.918 429.927 415.806 429.157 418.237C429.384 418.736 429.528 418.955 429.497 419.513C428.495 419.938 427.19 419.822 426.109 419.846C427.834 417.273 427.778 414.6 428.684 411.776C429.411 409.51 432.205 407.24 434.287 406.22C434.715 406.01 435.045 405.797 435.419 405.493L435.258 405.311C433.344 405.52 430.532 408.37 429.198 409.705C429.55 407.431 429.881 405.053 430.485 402.832Z" fill="#FE9D76"/>
<path d="M454.808 284.4C462.384 282.177 468.062 277.23 473.626 271.869C473.636 273.958 473.69 276.057 473.569 278.142C473.748 283.099 473.819 288.058 473.781 293.018L480.539 291.802C482.338 293.773 485.02 294.272 486.961 296.044C482.435 309.088 466.148 326.794 455.546 335.634C451.684 338.855 447.516 341.594 443.346 344.39C438.536 339.08 437.758 332.655 438.1 325.738C438.56 316.459 440.973 306.096 445.904 298.177C447.07 297.76 448.38 297.934 449.569 297.571C450.465 297.297 450.669 296.773 451.043 296.002L451.922 295.844C453.202 294.592 453.49 291.933 453.87 290.254C454.482 288.354 454.683 286.381 454.808 284.4Z" fill="#FE9D76"/>
<path d="M454.808 284.4C462.384 282.177 468.062 277.23 473.626 271.869C473.636 273.958 473.69 276.057 473.569 278.142C469.474 284.257 463.854 288.345 456.555 289.829C455.665 290.005 454.77 290.146 453.87 290.253C454.482 288.354 454.683 286.381 454.808 284.4Z" fill="#EF936E"/>
<path d="M224.512 202.237C225.701 198.435 225.977 195.07 224.358 191.293C229.163 193.368 235.069 196.624 237.792 201.238L237.928 200.996L237.752 200.397C239.516 200.087 244.462 202.769 246.629 203.16L246.77 203.277C264.801 210.243 273.695 216.366 281.711 234.541C282.408 236.139 283.053 237.759 283.646 239.398C285.41 245.331 287.783 251.046 289.498 256.987C290.944 261.979 292.345 266.984 293.702 272.001C294.64 275.604 295.403 279.314 296.573 282.848C298.431 281.095 301.019 280.345 302.987 278.697C304.877 287.548 309.946 295.029 317.556 299.983C318.073 300.319 318.6 300.629 319.131 300.944C319.439 301.127 319.326 301.034 319.541 301.309L319.586 301.017C320.721 300.608 322.37 300.671 323.616 300.471L323.84 300.806C325.438 303.943 328.313 309.324 331.992 310.383C332.891 310.642 333.91 310.301 334.794 310.095L334.812 310.269C333.893 310.712 333.189 311.158 332.153 310.808C331.438 310.566 330.777 310.174 330.125 309.801C328.915 311.357 327.437 313.137 325.526 313.817C324.984 314.303 325.004 314.563 324.959 315.277C324.704 319.33 325.268 323.703 325.518 327.765C326.494 343.666 328.928 359.193 331.593 374.879C332.145 378.127 332.505 381.433 333.091 384.665L333.148 386.121C331.813 392.216 329.974 398.408 329.241 404.603C322.569 404.3 315.784 406.374 309.177 405.844C307.924 406.45 301.046 406.177 299.609 405.685C299.203 405.547 298.844 405.267 298.496 405.026C297.689 404.468 296.838 404.416 295.884 404.405C296.657 404.944 297.716 405.109 298.621 405.345C297.817 407.27 296.54 411.572 294.782 412.795L293.557 412.871C293.137 412.995 292.861 412.947 292.642 413.358C292.261 414.078 292.009 415.265 292.412 416.03C292.703 416.581 292.938 416.664 293.522 416.803C293.581 416.817 293.642 416.817 293.702 416.824C294.727 416.88 296.139 416.71 297.018 417.277L297.415 418.209C297.859 418.847 298.302 419.457 298.813 420.044C296.923 420.059 294.937 419.961 293.071 420.244L282.191 420.316C282.725 415.708 284.862 405.6 288.065 402.227C288.65 401.612 288.988 401.68 289.785 401.637C288.999 400.983 287.812 400.638 286.897 400.152C282.395 397.76 279.069 396.023 274.205 394.357C279.045 396.422 283.768 398.727 288.373 401.271C284.097 406.404 282.736 413.888 281.639 420.303L251.155 420.321C245.914 420.326 240.139 420.801 234.953 420.1C233.911 419.959 232.9 419.548 231.921 419.18C227.832 416.195 226.295 412.787 224.771 408.089C223.088 399.66 224.456 392.291 226.288 384.039C227.433 380.131 228.286 376.118 229.327 372.179C231.636 363.437 234.117 354.745 237.294 346.273C237.602 345.514 237.821 344.708 238.065 343.925C239.44 340.793 240.437 337.392 241.619 334.175C243.015 330.373 244.594 326.634 246.039 322.849C247.177 319.867 248.229 316.674 249.757 313.865C250.766 312.374 251.262 310.472 252.221 308.921C254.586 305.095 259.763 301.786 263.617 299.588L264.126 299.148C267.425 297.124 270.748 295.141 274.096 293.198C273.372 293.012 272.577 292.798 271.971 292.337C271.663 292.103 271.604 292.046 271.44 291.678C270.902 290.474 270.714 288.892 270.317 287.612C269.714 285.669 268.832 283.793 268.354 281.815C268.095 280.744 268.016 279.607 267.919 278.512C267.69 279.59 268.107 281.639 268.146 282.827C265.286 279.684 261.861 278.603 258.604 276.129C251.557 270.777 256.66 263.229 255.624 256.159C254.187 246.355 245.238 247.128 239.576 241.82C235.823 238.301 235.28 233.449 233.43 228.939C231.345 223.855 227.88 220.342 223.543 217.102C229.053 218.336 235.829 219.058 240.612 222.208C240.476 215.109 240.86 208.398 238.243 201.642C238.108 201.811 239.562 206.758 239.702 207.504C240.564 212.097 240.449 216.871 240.374 221.522C233.463 218.323 222.361 216.164 214.692 215.496C217.62 212.962 220.783 209.983 222.393 206.398C223.359 205.52 224.084 203.473 224.512 202.237Z" fill="#FEFEFE"/>
<path d="M268.387 370.408C269.773 372.07 271.5 390.064 271.449 393.325C261.528 390.217 250.581 389.463 240.447 391.799L240.002 391.958L240.107 391.652L239.239 392.127L239.286 391.966L239.211 392.079C243.18 389.165 255.856 390.147 260.968 390.696L261.107 390.482C260.689 390.141 260.288 389.835 259.951 389.411C260.472 389.344 263.687 391.058 264.688 391.351L265.063 391.458C266.346 384.491 266.782 377.299 268.387 370.408Z" fill="#375963"/>
<path d="M319.541 301.31L319.587 301.018C320.722 300.609 322.371 300.673 323.617 300.473L323.841 300.807C325.438 303.945 328.314 309.325 331.992 310.384C332.891 310.643 333.911 310.302 334.795 310.096L334.813 310.27C333.893 310.713 333.189 311.159 332.153 310.809C331.438 310.568 330.778 310.176 330.126 309.802C328.915 311.359 327.437 313.138 325.526 313.818C324.985 314.304 325.005 314.564 324.959 315.278C324.704 319.331 325.269 323.704 325.518 327.766C326.495 343.667 328.928 359.194 331.593 374.881C332.145 378.128 332.505 381.434 333.091 384.666L333.148 386.122C331.813 392.217 329.974 398.409 329.242 404.604C322.57 404.301 315.784 406.375 309.178 405.845C312.984 391.659 314.659 376.94 316.002 362.354C317.488 346.224 318.462 329.692 317.864 313.493C316.061 313.094 314.025 310.26 312.933 310.198C312.065 310.148 311.422 310.698 310.432 310.502L310.326 310.263C310.878 310.166 311.495 310.256 312.021 310.124C314.121 309.599 318.417 303.366 319.541 301.31Z" fill="#66170E"/>
<path d="M240.375 221.522C240.451 216.872 240.565 212.097 239.704 207.505C239.563 206.758 238.11 201.811 238.245 201.643C240.862 208.398 240.478 215.11 240.614 222.208C235.83 219.059 229.055 218.337 223.545 217.102C227.881 220.343 231.346 223.856 233.432 228.939C235.282 233.449 235.824 238.302 239.577 241.82C245.24 247.128 254.188 246.356 255.625 256.16C256.661 263.229 251.558 270.778 258.605 276.13C261.863 278.604 265.288 279.685 268.148 282.828C268.108 281.639 267.691 279.59 267.921 278.512C268.018 279.608 268.097 280.745 268.355 281.815C268.833 283.794 269.715 285.67 270.318 287.613C270.715 288.892 270.903 290.474 271.441 291.678C271.606 292.047 271.665 292.103 271.972 292.338C272.579 292.799 273.373 293.013 274.097 293.199C270.75 295.141 267.426 297.124 264.128 299.149L263.619 299.588C259.764 301.787 254.587 305.095 252.222 308.921C251.264 310.472 250.767 312.374 249.759 313.866C248.23 316.674 247.178 319.867 246.04 322.849C244.596 326.635 243.016 330.373 241.62 334.175C240.439 337.393 239.442 340.793 238.067 343.925C237.822 344.708 237.604 345.514 237.295 346.274C234.119 354.746 231.637 363.438 229.328 372.18C228.288 376.119 227.434 380.132 226.289 384.04C224.457 392.291 223.089 399.661 224.773 408.09C221.622 406.819 216.236 408.621 212.844 408.996C207.671 409.917 178.604 417.115 176.258 418.889C172.487 419.227 168.601 419.061 164.814 419.061L145.086 419.057L133.468 419.074C132.734 414.928 132.72 410.652 132.47 406.455C132.303 403.641 131.945 400.838 131.617 398.038L130.488 398.167C129.953 398.214 129.765 398.148 129.269 397.979C128.001 396.871 128.08 394.329 127.899 392.763C127.51 392.615 127.126 392.457 126.746 392.289C125.336 391.656 124.495 390.172 124.015 388.751C123.642 387.648 123.526 386.322 124.039 385.251C124.43 385.038 124.776 384.823 125.128 384.552C125.384 383.65 125.044 382.597 124.869 381.694C122.129 381.925 119.327 381.834 116.691 380.992C111.264 379.257 109.703 375.318 107.334 370.735L105.934 369.413C104.422 368.182 102.981 367.082 101.177 366.292C98.407 365.08 94.9413 364.778 92.692 362.612C91.5407 361.503 91.213 359.502 91.0116 357.968C90.4896 353.987 90.9541 349.35 92.7426 345.716C93.9376 343.287 96.7089 340.379 96.6619 337.566C96.5926 333.415 91.593 331.215 91.5318 324.15C91.4939 319.762 93.0204 316.712 96.0413 313.608C95.7175 299.062 98.2304 280.67 101.472 266.484C102.256 263.052 103.409 259.717 104.255 256.299C103.398 261.592 101.576 266.829 100.537 272.118C97.8948 285.559 96.2616 299.925 96.1108 313.634C98.4451 311.493 101.238 310.466 103.791 308.692C105.351 307.608 106.634 305.955 107.493 304.266C111.656 296.08 106.261 290.213 107.778 282.687C108.24 280.395 109.35 278.277 110.83 276.478C118.382 267.292 131.715 271.735 138.535 266.966C140.205 265.798 141.162 264.113 141.447 262.11C141.658 260.625 141.491 259.058 141.428 257.562C141.151 251.047 140.081 246.837 137.54 240.742C137.119 239.733 136.683 238.174 135.991 237.34C135.944 237.283 135.887 237.235 135.834 237.183L136.004 237L135.96 236.846C138.628 241.793 140.282 246.915 141.487 252.386C145.467 246.516 153.5 247.719 158.692 242.796C163.827 237.928 166.266 230.4 170.191 224.58C174.879 217.63 180.705 214.327 188.855 212.737C197.538 211.99 205.801 213.123 214.183 215.295C217.705 212.876 219.558 209.417 222.395 206.399C220.785 209.983 217.622 212.962 214.694 215.497C222.363 216.165 233.464 218.324 240.375 221.522Z" fill="#192E35"/>
<path d="M224.263 284.262C224.614 284.382 224.943 284.503 225.259 284.703C226.503 285.493 227.609 286.804 228.635 287.86C232.192 291.517 236.032 295.403 237.325 300.486C235.897 299.33 234.36 296.366 233.127 294.749C231.378 292.457 229.49 290.183 227.544 288.055C226.604 287.027 224.432 285.618 224.263 284.262Z" fill="#375963"/>
<path d="M209.751 224.274C211.998 224.077 214.054 224.287 216.277 224.596C214.842 225.03 212.765 224.822 211.241 224.898C207.887 225.066 204.278 225.836 201.17 227.116C190.345 231.577 185.97 239.64 181.717 249.818C181.09 251.319 180.513 252.894 179.707 254.309C179.674 254.181 179.624 254.057 179.61 253.926C179.529 253.155 180.277 251.536 180.533 250.799C182.38 245.479 184.348 240.602 187.96 236.199C193.776 229.109 200.592 225.15 209.751 224.274Z" fill="#375963"/>
<path d="M218.25 219.476C213.767 218.834 209.116 218.321 204.593 218.737C193.727 219.739 181.006 226.339 174.247 234.955C172.685 236.948 171.411 239.183 170.222 241.411C169.245 243.244 168.588 245.141 167.136 246.671C163.227 250.789 157.054 251.471 152.63 257.576C149.365 262.081 149.688 267.979 145.332 271.952C140.72 276.159 133.228 275.61 128.056 278.936C127.714 279.156 127.385 279.394 127.069 279.65C126.754 279.905 126.453 280.178 126.167 280.467C125.882 280.756 125.613 281.059 125.361 281.378C125.109 281.696 124.876 282.028 124.661 282.372C122.448 285.888 123.769 288.987 122.966 292.704L122.728 292.618C121.82 290.32 121.911 287.869 122.419 285.487C124.732 274.627 136.489 277.009 143.667 272.097C149.023 268.432 148.418 261.694 152.019 256.805C154.465 253.484 157.361 251.35 161.05 249.579C162.802 248.738 164.531 247.994 165.962 246.635C167.905 244.789 168.951 242.228 170.23 239.921C173.69 233.684 178.09 229.082 184.14 225.269C194.495 218.744 205.998 216.24 218.08 218.948C221.763 219.208 225.602 221.474 228.005 224.217C230.628 227.209 232.563 231.316 233.791 235.069C234.919 238.517 235.304 243.717 237.852 246.396C240.168 248.831 243.358 249.858 245.942 251.881C247.143 252.821 248.275 254.126 248.203 255.742C248.016 259.948 240.934 263.786 241.297 271.647C241.397 273.811 242.176 275.976 243.608 277.623C245.165 279.412 247.259 280.248 249.43 281.023C251.455 281.745 253.571 282.399 255.446 283.468C259.899 286.007 262.618 291.211 263.719 296.076C263.949 297.09 263.931 298.139 264.128 299.149L263.618 299.588C262.065 295.784 261.292 291.659 258.943 288.208C254.883 282.247 245.55 283.789 242.012 277.787C239.043 272.752 240.613 266.643 243.669 262.085C244.872 260.293 246.702 258.275 247.188 256.16C248.178 251.845 239.649 249.706 237.261 246.6C235.069 243.749 234.574 240.227 233.567 236.88C232.524 233.409 231.194 229.709 229.208 226.652C226.624 222.674 222.829 220.465 218.25 219.476Z" fill="#375963"/>
<path d="M105.933 369.412C106.55 366.973 103.885 363.262 104.311 360.205C104.819 356.566 107.99 354.266 108.717 350.737C109.746 345.742 105.873 343.823 103.554 340.238C101.768 337.476 101.387 334.029 102.036 330.852C103.286 324.74 108.513 319.406 114.263 317.206C117.879 315.822 121.574 315.345 124.655 312.773C130.413 307.964 128.743 299.916 132.781 294.114C138.087 286.491 147.127 289.832 152.289 284.343C154.179 282.334 154.76 279.756 155.395 277.175C157.249 269.638 160.281 264.634 166.796 260.264L166.721 261.03C167.111 264.166 167.552 266.897 169.126 269.68L169.793 270.648C171.5 272.259 173.13 273.26 175.546 273.215C175.638 273.213 175.731 273.204 175.823 273.198C176.44 275.747 175.24 279.742 175.304 282.481C174.171 289.343 172.649 296.138 171.496 302.994L168.584 302.297C166.845 305.177 164.841 308.124 163.73 311.314C151.354 312.512 132.727 315.484 124.351 325.476C119.298 331.505 118.08 340.216 118.833 347.797C119.97 359.233 123.483 370.326 124.868 381.693C122.128 381.925 119.326 381.834 116.69 380.991C111.263 379.256 109.702 375.318 107.334 370.734L105.933 369.412Z" fill="#192E35"/>
<path d="M169.126 269.682L169.793 270.65C169.878 273.968 169.945 277.313 169.133 280.559C165.957 293.258 157.147 291.068 148.794 296.095C144.981 298.39 142.55 302.031 142.934 306.611C143.09 308.477 143.526 310.012 143.073 311.88L142.858 311.98C142.338 309.855 141.904 307.726 141.962 305.529C142.032 302.825 142.856 300.436 144.632 298.368C149.885 292.253 158.542 293.513 164.063 288.152C168.96 283.398 169.142 276.053 169.126 269.682Z" fill="#375963"/>
<path d="M105.933 369.412C106.55 366.973 103.885 363.262 104.311 360.205C104.819 356.566 107.99 354.266 108.717 350.737C109.746 345.742 105.873 343.823 103.554 340.238C101.768 337.476 101.387 334.029 102.036 330.852C103.286 324.74 108.513 319.406 114.263 317.206C117.879 315.822 121.574 315.345 124.655 312.773C130.413 307.964 128.743 299.916 132.781 294.114C138.087 286.491 147.127 289.832 152.289 284.343C154.179 282.334 154.76 279.756 155.395 277.175C157.249 269.638 160.281 264.634 166.796 260.264L166.721 261.03C161.573 264.111 158.211 269.729 156.773 275.431C155.716 279.621 155.015 283.981 151.015 286.482C145.944 289.653 139.666 288.347 135.118 292.761C132.911 294.903 131.8 297.552 131.074 300.473C129.611 306.364 128.844 311.272 123.2 314.673C120.544 316.275 117.456 316.802 114.588 317.903C109.415 319.889 104.369 324.896 102.915 330.307C102.118 333.274 102.279 336.54 103.92 339.198C106.7 343.702 110.791 344.459 109.347 350.952C108.358 355.395 104.598 358.081 105.134 363.069C105.423 365.756 107.065 368.119 107.333 370.734L105.933 369.412Z" fill="#375963"/>
<path d="M180.165 256.678L180.481 256.487C183.037 254.917 185.48 252.916 187.585 250.78C189.978 248.35 191.878 245.454 194.169 242.926C198.942 237.662 208.272 229.981 216.01 231.868C220.26 232.904 223.398 236.617 225.492 240.256C231.076 249.962 229.942 263.066 227.057 273.509C224.764 281.808 220.198 290.871 212.404 295.27C209.391 296.971 205.954 297.92 202.599 298.682C202.657 300.396 202.365 303.921 203.107 305.368L202.713 306.164C201.976 306.206 201.239 306.237 200.501 306.216C188.954 305.885 181.208 299.01 177.51 288.323C177.063 287.033 176.434 283.543 175.54 282.691C175.464 282.618 175.382 282.551 175.303 282.481C175.24 279.742 176.44 275.747 175.823 273.199C175.731 273.204 175.638 273.213 175.546 273.215C173.13 273.261 171.499 272.26 169.793 270.649L169.126 269.68C167.552 266.898 167.111 264.166 166.721 261.03L166.795 260.264C166.547 258.515 166.87 256.679 167.949 255.248C168.073 255.083 168.205 254.925 168.345 254.773C168.485 254.622 168.632 254.478 168.786 254.341C168.94 254.204 169.101 254.076 169.268 253.955C169.435 253.834 169.608 253.723 169.787 253.619C169.965 253.516 170.148 253.422 170.336 253.337C170.524 253.252 170.716 253.177 170.911 253.111C171.107 253.045 171.305 252.989 171.507 252.944C171.708 252.898 171.911 252.862 172.115 252.837C175.697 252.386 177.466 255.02 180.165 256.678Z" fill="#FE9D76"/>
<path d="M172.748 261.971C173.29 262.029 173.816 262.119 174.302 262.385C174.902 262.714 175.26 263.295 175.399 263.942C175.279 264.589 175.186 264.88 174.741 265.371C174.183 265.127 174.167 264.609 173.936 264.063C173.657 263.402 173.494 262.924 172.801 262.651C172.059 263.021 171.802 263.716 171.43 264.414C171.666 265.577 172.52 266.415 172.864 267.56C171.998 267.022 171.287 265.924 171.001 264.954C171.139 263.635 171.798 262.85 172.748 261.971Z" fill="#BC333D"/>
<path d="M216.438 265.209C216.52 265.21 216.602 265.208 216.684 265.211C217.789 265.25 218.743 265.373 219.519 266.239C219.927 266.695 220.155 267.257 220.041 267.877C219.859 268.864 219.125 269.411 218.345 269.937C217.212 269.914 216.38 269.845 215.575 268.976C215.138 268.504 214.88 267.888 214.965 267.236C215.089 266.286 215.739 265.757 216.438 265.209Z" fill="#192E35"/>
<path d="M195.551 259.34C196.513 259.484 197.474 259.692 198.049 260.559C198.355 261.022 198.426 261.59 198.31 262.124C198.047 263.34 197.22 263.903 196.214 264.517C196.053 264.498 195.891 264.488 195.731 264.46C194.904 264.316 194.116 263.905 193.668 263.17C193.324 262.607 193.295 261.927 193.487 261.306C193.815 260.246 194.647 259.841 195.551 259.34Z" fill="#192E35"/>
<path d="M218.815 253.466C219.312 253.439 219.81 253.416 220.306 253.485C222.636 253.81 225.653 255.993 227.018 257.862C227.853 259.005 228.372 260.042 228.175 261.466C226.451 261.204 225.576 258.979 224.175 257.966C222.649 256.863 220.687 256.17 219.257 254.981C218.683 254.504 218.821 254.156 218.815 253.466Z" fill="#192E35"/>
<path d="M197.621 248.68C199.199 248.461 201.696 248.174 203.1 249.025C203.4 249.568 203.386 249.593 203.296 250.21C202.031 251.215 197.939 250.746 196.265 250.806C194.487 251.19 192.184 251.96 190.433 251.18C192.061 249.283 195.286 249.005 197.621 248.68Z" fill="#192E35"/>
<path d="M194.906 277.695C199.549 279.504 203.985 281.281 208.813 282.584C208.124 283.341 207.376 284.048 206.648 284.767C205.128 285.862 203.812 286.377 202.006 286.765C200.88 286.43 199.837 286.112 198.868 285.421C196.222 283.534 195.402 280.74 194.906 277.695Z" fill="#FEFEFE"/>
<path d="M176.82 268.98C177.672 278.101 180.607 288.266 187.903 294.333C192.392 298.066 196.91 298.685 202.599 298.681C202.657 300.396 202.365 303.92 203.107 305.368L202.713 306.163C201.976 306.205 201.239 306.237 200.501 306.216C188.954 305.884 181.208 299.009 177.51 288.323C177.063 287.033 176.434 283.543 175.54 282.691C175.464 282.617 175.382 282.55 175.303 282.48C175.24 279.742 176.44 275.746 175.823 273.198C175.995 271.756 176.427 270.374 176.82 268.98Z" fill="#EF936E"/>
<path d="M175.304 282.48C175.383 282.55 175.464 282.617 175.541 282.691C176.434 283.543 177.064 287.032 177.511 288.323C181.208 299.009 188.954 305.884 200.501 306.216C201.239 306.237 201.977 306.205 202.713 306.163L203.107 305.368C204.36 305.522 205.749 305.604 206.743 306.473C207.259 307.242 207.819 308 208.2 308.845C223.444 307.014 235.253 308.751 249.759 313.865C248.23 316.673 247.178 319.866 246.04 322.848C244.596 326.634 243.016 330.373 241.62 334.174C240.439 337.392 239.442 340.792 238.067 343.924C237.822 344.707 237.604 345.513 237.295 346.273C234.119 354.745 231.637 363.437 229.328 372.179C228.288 376.118 227.434 380.131 226.289 384.039C224.457 392.291 223.089 399.66 224.773 408.089C221.622 406.818 216.236 408.62 212.844 408.995C207.671 409.917 178.604 417.114 176.258 418.889C172.487 419.226 168.601 419.06 164.814 419.06L145.086 419.056L133.468 419.073C132.734 414.927 132.72 410.651 132.471 406.454C132.303 403.64 131.945 400.837 131.617 398.037L130.488 398.166C129.953 398.213 129.765 398.147 129.269 397.979C128.001 396.87 128.08 394.328 127.899 392.762C127.51 392.614 127.126 392.457 126.746 392.289C125.336 391.655 124.495 390.171 124.015 388.75C123.642 387.647 123.526 386.321 124.039 385.25C124.43 385.037 124.776 384.822 125.128 384.551C125.384 383.649 125.044 382.596 124.869 381.693C123.484 370.326 119.971 359.233 118.834 347.797C118.081 340.216 119.299 331.504 124.351 325.476C132.728 315.484 151.355 312.511 163.731 311.314C164.842 308.124 166.846 305.177 168.585 302.297L171.497 302.993C172.649 296.137 174.171 289.343 175.304 282.48Z" fill="#0E6739"/>
<path d="M237.295 346.273C236.209 344.884 235.72 339.612 235.318 337.625C234.467 333.423 233.394 329.154 232.151 325.052C231.41 322.604 230.44 320.217 229.734 317.759C229.473 316.851 229.415 316.036 229.5 315.1C230.49 316.073 235.297 331.594 235.973 334.121C236.843 337.373 237.59 340.595 238.066 343.925C237.822 344.708 237.603 345.513 237.295 346.273Z" fill="#0A4A29"/>
<path d="M206.743 306.475C207.259 307.243 207.819 308.001 208.2 308.846C208.924 313.513 209.041 327.378 207.858 331.904C207.717 332.443 207.615 332.825 207.125 333.124C203.718 333.37 195.006 328.849 191.953 326.833L191.847 327.209C191.796 327.4 191.75 327.593 191.69 327.782C190.382 331.908 182.423 336.794 178.821 338.726C172.013 331.654 166.063 321.344 163.936 311.725C167.961 320.435 172.605 328.818 179.276 335.823C183.598 332.599 188.137 329.783 192.156 326.148C196.826 327.877 201.702 329.23 206.492 330.592C207.12 324.766 207.342 318.711 207.26 312.85C207.229 310.737 206.365 308.532 206.743 306.475Z" fill="#0A4A29"/>
<path d="M175.304 282.48C175.383 282.55 175.464 282.617 175.541 282.691C176.434 283.543 177.064 287.032 177.511 288.323C181.208 299.009 188.954 305.884 200.501 306.216C201.239 306.237 201.977 306.205 202.713 306.163C202.526 308.11 201.724 310.132 201.014 311.94C198.689 317.872 196.228 321.237 192.003 325.88C184.124 320.194 176.389 315.37 171.114 306.892L171.496 302.994C172.649 296.137 174.171 289.343 175.304 282.48Z" fill="#FE9D76"/>
<path d="M164.355 373.126C159.171 372.688 156.036 374.23 151.125 375.28C149.309 375.668 145.014 376.442 143.464 375.256C143.142 375.01 143.209 374.797 143.155 374.428C143.916 372.51 145.973 371.001 147.677 369.912C152.773 366.66 158.796 365.986 164.613 367.245C165.464 368.03 166.198 368.881 166.819 369.859C168.87 373.091 174.739 384.893 175.96 388.488C190.63 388.498 205.157 386.183 219.743 385.01C221.909 384.617 224.109 384.353 226.289 384.039C224.457 392.291 223.089 399.66 224.772 408.089C221.621 406.818 216.235 408.62 212.844 408.995C207.671 409.917 178.604 417.114 176.257 418.889C172.487 419.226 168.601 419.06 164.813 419.06L145.086 419.056C141.572 413.868 135.977 404.221 136.179 397.913C143.546 397.014 152.158 392.781 157.976 388.235C156.25 388.948 152.081 390.776 150.257 390.14C149.91 390.019 149.937 389.861 149.803 389.557C150.408 386.641 154.695 383.538 156.993 381.933C154.67 382.844 148.492 385.796 146.198 384.583C145.868 384.408 145.91 384.233 145.815 383.907C145.925 383.498 146.038 383.163 146.279 382.81C147.039 381.702 148.2 380.742 149.218 379.873C153.833 375.933 158.476 374.304 164.355 373.126Z" fill="#FE9D76"/>
</g>
</g>
<defs>
<clipPath id="clip0_151_15890">
<rect width="640" height="440" fill="white"/>
</clipPath>
<clipPath id="clip1_151_15890">
<rect width="501" height="500" fill="white" transform="translate(70 -12)"/>
</clipPath>
</defs>
</svg>
