<svg width="640" height="440" viewBox="0 0 640 440" fill="none" xmlns="http://www.w3.org/2000/svg">
<rect width="640" height="440" fill="white"/>
<g clip-path="url(#clip0_152_16192)">
<path fill-rule="evenodd" clip-rule="evenodd" d="M548.175 54.7516C542.716 54.7516 538.29 50.3326 538.29 44.8758C538.29 39.4189 542.718 35 548.175 35C553.633 35 558.06 39.4211 558.06 44.8758C558.06 50.3304 553.637 54.7516 548.175 54.7516ZM128.485 291.508H75.6753C47.2537 291.508 24 314.74 24 343.135C24 371.53 47.2537 394.762 75.6753 394.762H522.214C568.237 394.762 605.89 357.145 605.89 311.164C605.89 265.184 568.237 227.565 522.214 227.565C502.753 227.562 486.834 211.656 486.834 192.215C486.834 172.773 502.756 156.866 522.214 156.866H564.793C585.028 156.866 601.577 140.328 601.577 120.117C601.577 99.9037 585.028 83.3653 564.793 83.3653H510.95C503.072 83.3653 496.628 76.9279 496.628 69.0595C496.628 61.1889 503.072 54.7516 510.95 54.7516H520.441C525.877 54.7516 530.326 50.3084 530.326 44.8758C530.326 39.4454 525.879 35 520.441 35H458.158C445.039 35 443.58 50.4806 410.446 50.4806H333.616C326.521 50.4806 320.721 56.2798 320.721 63.3642C320.721 70.4508 326.523 76.2522 333.616 76.2522H346.001C356.28 76.2522 364.688 84.655 364.688 94.9194C364.688 105.188 356.277 113.589 346.001 113.589H308.725C258.391 113.589 251.282 126.733 242.465 152.869C233.648 179.005 187.865 181.114 187.865 181.114H125.264C109.773 181.114 97.1009 193.774 97.1009 209.251C97.1009 224.725 109.773 237.383 125.264 237.383H128.485C143.381 237.383 155.571 249.562 155.571 264.444C155.571 279.326 143.383 291.505 128.485 291.505V291.508Z" fill="#F4E9E7"/>
<path fill-rule="evenodd" clip-rule="evenodd" d="M321.26 410.975C483.582 410.975 615.974 402.555 615.974 392.231C615.974 381.907 483.582 373.486 321.26 373.486C158.938 373.486 26.5464 381.907 26.5464 392.231C26.5464 402.555 158.938 410.975 321.26 410.975Z" fill="#E8D6D3" stroke="#DCE6F2" stroke-width="0.22" stroke-miterlimit="2.61"/>
<path fill-rule="evenodd" clip-rule="evenodd" d="M187.607 94.8282H126.76C127.198 92.982 128.858 91.6084 130.839 91.6084C130.934 91.6084 131.029 91.6106 131.126 91.6194C132.085 89.2697 134.398 87.6135 137.096 87.6135C138.277 87.6135 139.38 87.9315 140.332 88.4836C141.493 84.6609 145.045 81.8784 149.249 81.8784C150.105 81.8784 150.934 81.9954 151.721 82.214C153.756 77.7244 158.281 74.5996 163.533 74.5996C169.766 74.5996 174.968 78.9965 176.212 84.8508C176.32 84.8508 176.422 84.8442 176.528 84.8442C180.518 84.8442 183.816 87.8255 184.302 91.6835C185.931 91.9882 187.229 93.2338 187.607 94.8304V94.8282Z" fill="#F4E9E7"/>
<path fill-rule="evenodd" clip-rule="evenodd" d="M156.895 146.953H96.051C96.4865 145.107 98.1487 143.733 100.131 143.733C100.224 143.733 100.322 143.736 100.414 143.744C101.376 141.395 103.686 139.738 106.385 139.738C107.567 139.738 108.673 140.056 109.621 140.609C110.781 136.786 114.336 134.003 118.542 134.003C119.395 134.003 120.224 134.12 121.011 134.339C123.047 129.849 127.569 126.725 132.826 126.725C139.055 126.725 144.26 131.121 145.505 136.976C145.609 136.976 145.713 136.969 145.816 136.969C149.811 136.969 153.104 139.95 153.591 143.808C155.22 144.113 156.517 145.359 156.895 146.955V146.953Z" fill="#F4E9E7"/>
<path fill-rule="evenodd" clip-rule="evenodd" d="M561.898 257.433C557.497 261.583 555.496 266.558 555.901 272.351C566.312 279.433 571.696 286.069 572.05 292.252C559.82 281.376 550.629 281.405 546.493 288.083C549.546 291.773 551.681 304.513 550.945 310.374C549.643 320.732 552.464 330.022 560.297 333.516C562.094 337.535 563.982 339.655 565.958 339.874C564.062 351.476 562.466 363.247 561.168 375.199C562.49 375.876 564.384 375.806 565.392 375.123C565.797 370.466 566.093 367.178 566.398 364.976C567.2 356.304 568.102 347.914 569.108 339.814C569.592 339.757 570.07 339.675 570.547 339.573C579.703 337.652 576.197 331.943 584.577 330.225C589.736 329.17 594.424 324.819 595.591 320.928C590.222 319.239 583.465 317.434 576.612 318.717C580.176 313.716 587.408 314.091 597.222 315.299C600.929 308.095 606.197 308.753 604.11 297.486C601.199 281.78 611.482 277.426 608.022 258.52C602.965 256.612 596.272 256.833 587.941 259.193C591.475 253.971 598.179 251.809 608.06 252.707C606.007 247.169 606.024 240.009 607.001 236.955C603.334 234.307 599.627 234.321 595.876 236.997C597.554 234.126 599.722 232.483 602.393 232.075C602.258 229.612 601.199 226.863 599.212 223.824C595.925 223.899 592.28 224.63 588.283 226.006C590.105 227.205 590.693 229.363 590.052 232.481C587.861 229.904 584.623 229.047 580.341 229.902C579.437 241.127 569.482 245.68 569.314 250.517C575.178 255.675 578.608 261.3 579.614 267.393C573.642 262.274 567.735 258.957 561.9 257.429L561.898 257.433Z" fill="#527C66"/>
<path fill-rule="evenodd" clip-rule="evenodd" d="M561.166 375.198C562.464 363.247 564.062 351.474 565.956 339.873C572.716 296.062 584.526 250.806 594.806 231.869C581.093 264.164 571.619 308.535 566.396 364.976C566.091 367.178 565.795 370.466 565.39 375.123C564.382 375.806 562.488 375.879 561.166 375.198Z" fill="#AAB9DE"/>
<path fill-rule="evenodd" clip-rule="evenodd" d="M578.564 229.168C582.815 234.59 584.219 240.528 582.78 246.983C569.849 253.189 562.663 259.743 561.21 266.647C576.831 256.477 587.176 258.074 590.695 266.298C586.628 269.935 582.055 283.914 581.887 290.638C581.59 302.519 576.831 312.501 567.417 315.105C564.709 319.325 562.225 321.39 559.961 321.299C560.123 334.682 559.917 348.21 559.342 361.884C557.735 362.428 555.616 362.023 554.597 361.083C554.935 355.769 555.158 352.02 555.193 349.489C555.766 339.587 556.177 329.989 556.427 320.696C555.892 320.548 555.366 320.378 554.846 320.182C544.864 316.463 549.782 310.628 540.64 307.272C535.015 305.209 530.477 299.511 529.827 294.933C536.157 293.942 544.073 293.061 551.573 295.669C548.412 289.435 540.202 288.626 528.945 288.317C525.996 279.581 519.955 279.426 524.223 267.093C530.172 249.907 519.336 243.253 526.449 222.557C532.47 221.267 539.968 222.654 548.947 226.726C545.857 220.245 538.675 216.671 527.4 216.007C530.653 210.119 531.854 202.054 531.272 198.452C535.852 196.092 540.026 196.739 543.794 200.389C542.393 196.871 540.229 194.654 537.293 193.738C537.864 190.99 539.524 188.075 542.28 184.99C545.969 185.635 549.944 187.073 554.21 189.305C551.955 190.343 550.925 192.675 551.117 196.293C554.022 193.766 557.813 193.347 562.488 195.04C561.595 207.834 572.03 214.653 571.398 220.125C563.916 224.937 559.093 230.69 556.924 237.381C564.521 232.633 571.734 229.895 578.562 229.171L578.564 229.168Z" fill="#7AB898"/>
<path fill-rule="evenodd" clip-rule="evenodd" d="M559.345 361.886C559.917 348.212 560.123 334.684 559.964 321.301C559.811 270.822 554.216 217.859 545.87 194.793C555.815 233.486 558.925 285.053 555.198 349.491C555.162 352.022 554.939 355.771 554.601 361.085C555.62 362.025 557.74 362.43 559.347 361.886H559.345Z" fill="#BCC9E7"/>
<path fill-rule="evenodd" clip-rule="evenodd" d="M547.674 347.594H580.808C582.295 347.594 583.513 348.808 583.513 350.295V357.896C583.513 359.382 582.295 360.599 580.808 360.599H547.674C546.186 360.599 544.968 359.382 544.968 357.896V350.295C544.968 348.808 546.184 347.594 547.674 347.594Z" fill="#875650"/>
<path fill-rule="evenodd" clip-rule="evenodd" d="M547.97 360.598H580.512L577.318 377.401H551.164L547.97 360.598Z" fill="#875650"/>
<path fill-rule="evenodd" clip-rule="evenodd" d="M580.512 360.598H547.97L548.547 363.636H579.932L580.512 360.598Z" fill="#634038"/>
<path fill-rule="evenodd" clip-rule="evenodd" d="M307.907 206.977C310.548 206.977 312.708 209.134 312.708 211.773V364.316C312.708 366.955 310.546 369.112 307.907 369.112C305.265 369.112 303.106 366.952 303.106 364.316V211.773C303.106 209.134 305.268 206.977 307.907 206.977Z" fill="#A2A4A9"/>
<path fill-rule="evenodd" clip-rule="evenodd" d="M292.613 209.736C295.164 210.421 296.693 213.064 296.008 215.611L256.49 362.957C255.807 365.505 253.159 367.033 250.61 366.349C248.057 365.667 246.53 363.025 247.215 360.475L286.733 213.126C287.416 210.58 290.06 209.054 292.613 209.734V209.736Z" fill="#A2A4A9"/>
<path fill-rule="evenodd" clip-rule="evenodd" d="M323.645 209.736C321.096 210.421 319.569 213.064 320.25 215.611L359.768 362.957C360.453 365.505 363.099 367.033 365.647 366.349C368.198 365.667 369.723 363.025 369.043 360.475L329.522 213.126C328.839 210.58 326.194 209.054 323.643 209.734L323.645 209.736Z" fill="#A2A4A9"/>
<path d="M446.005 76.9707H169.808V245.831H446.005V76.9707Z" fill="#C7CAD0"/>
<path d="M439.703 81.5293H176.113V241.271H439.703V81.5293Z" fill="white"/>
<path fill-rule="evenodd" clip-rule="evenodd" d="M303.106 295.836C295.261 295.584 281.457 294.732 274.943 294.146L273.426 299.811C281.085 300.551 295.369 301.392 303.106 301.62C306.317 301.717 309.525 301.774 312.708 301.807C314.695 301.829 316.675 301.838 318.643 301.838C324.584 301.838 339.005 301.633 345.064 301.421L343.525 295.683C338.243 295.865 322.489 296.079 318.643 296.079C314.797 296.079 314.662 296.068 312.708 296.043C309.434 296.004 306.227 295.933 303.106 295.836Z" fill="#A2A4A9"/>
<path fill-rule="evenodd" clip-rule="evenodd" d="M419.836 245.83V249.021C419.836 251.528 413.118 253.577 404.911 253.577H210.902C202.693 253.577 195.98 251.525 195.98 249.021V245.83H419.836Z" fill="#90949D"/>
<path d="M419.836 245.83H195.98V248.661H419.836V245.83Z" fill="#A1A1A1"/>
<path fill-rule="evenodd" clip-rule="evenodd" d="M419.836 77.0946V73.9035C419.836 71.397 413.118 69.3477 404.911 69.3477H210.902C202.693 69.3477 195.98 71.397 195.98 73.9035V77.0946H419.836Z" fill="#BBC2D0"/>
<path d="M419.836 74.2617H195.98V77.0928H419.836V74.2617Z" fill="#B5BBCA"/>
<path fill-rule="evenodd" clip-rule="evenodd" d="M179.333 157.703C180.876 157.816 182.364 155.985 182.795 155.439C184.435 153.357 185.482 150.912 185.902 149.541C185.58 148.629 185.246 147.481 184.897 146.087C178.951 142.052 178.139 139.067 182.459 137.132C183.329 137.622 184.408 139.12 185.701 141.642C186.731 141.6 187.516 141.074 188.047 140.06C186.815 135.814 186.02 132.364 185.646 129.71C188.577 125.359 195.432 124.739 204.505 125.911C204.925 128.323 205.27 130.878 205.54 133.579C207.145 135.056 206.935 140.531 205.456 146.84C206.196 150.426 203.979 152.385 198.807 152.712C198.756 153.578 198.836 154.574 198.851 155.181C198.864 155.731 198.884 156.809 199.459 156.974L200.42 157.213C200.323 170.041 193.749 172.506 179.331 157.705L179.333 157.703Z" fill="#F4AE7C"/>
<path fill-rule="evenodd" clip-rule="evenodd" d="M204.508 125.915C195.434 124.738 188.577 125.358 185.648 129.709C186.02 132.363 186.818 135.813 188.049 140.059C187.516 141.073 186.736 141.599 185.704 141.64C184.415 139.125 183.332 137.623 182.461 137.133C178.142 139.068 178.951 142.053 184.901 146.088C185.248 147.482 185.582 148.63 185.905 149.542C180.553 148.345 176.079 143.564 175.452 141.497C169.212 129.207 176.17 124.02 179.895 122.125C181.537 109.957 199.293 120.48 203.964 113.049C213.738 118.621 207.255 125.804 204.51 125.915H204.508Z" fill="#404142"/>
<path fill-rule="evenodd" clip-rule="evenodd" d="M192.845 151.465C194.295 152.181 196.283 152.596 198.809 152.713C198.758 153.567 198.796 154.55 198.851 155.16C196.314 154.669 194.309 153.439 192.845 151.463V151.465Z" fill="#ED7D5B"/>
<path fill-rule="evenodd" clip-rule="evenodd" d="M168.513 397.935C162.877 395.952 162.426 393.053 159.386 391.637C156.329 390.21 155.978 387.669 158.969 384.908C161.179 386.673 163.918 388.837 165.37 387.691C166.338 386.922 169.625 386.975 170.277 388.09C173.14 394.74 177.121 392.633 177.907 395.656C177.998 399.687 171.099 398.847 168.513 397.935Z" fill="#142D4D"/>
<path fill-rule="evenodd" clip-rule="evenodd" d="M217.346 391.323C207.419 391.162 200.001 391.045 196.574 389.963C192.874 388.795 193.639 386.542 195.763 382.94C205.12 387.238 202.624 382.055 207.001 382.713C210.078 385.184 214.631 386.845 220.659 387.686C223.21 389.566 222.173 391.237 217.346 391.323Z" fill="#142D4D"/>
<path fill-rule="evenodd" clip-rule="evenodd" d="M212.39 159.158C207.436 157.721 202.987 156.848 199.046 156.544C198.332 167.418 192.655 167.34 182.012 156.318C171.762 157.177 169.755 157.31 164.068 159.154C151.763 170.898 150.633 184.448 144.198 199.936C151.318 200.254 154.517 201.111 159.358 202.835C160.396 199.123 161.267 196.14 161.968 193.876C161.769 214.299 161.696 228.291 161.74 235.855C185.292 245.176 204.696 241.985 212.618 234.72C212.728 216.569 212.881 202.195 213.069 191.606C215.885 194.923 218.5 197.495 220.907 199.322C226.678 192.708 230.593 190.047 233.867 186.144C226.616 174.255 216.23 163.191 212.388 159.161L212.39 159.158Z" fill="#0E6739"/>
<path fill-rule="evenodd" clip-rule="evenodd" d="M259.854 179.049C247.483 184.186 238.82 188.43 233.864 191.781L231.665 188.528C229.618 190.575 227.284 192.582 224.432 195.499C227.067 198.253 229.894 200.519 233.19 202.434C241.789 201.515 251.289 195.009 261.698 182.918C264.934 182.274 267.315 181.101 268.844 179.405C268.924 177.846 268.139 176.282 266.486 174.721C270.8 171.91 272.52 169.9 271.64 168.686C264.879 172.864 260.949 176.318 259.854 179.047V179.049Z" fill="#F4AE7C"/>
<path fill-rule="evenodd" clip-rule="evenodd" d="M212.618 234.721C212.153 236.487 214.079 246.856 214.397 252.266C217.529 271.574 214.846 296.712 213.161 329.033C210.144 340.422 205.69 355.6 205.982 376.961C200.728 378.567 198.825 378.732 194.081 377.529C190.763 355.235 193.027 337.381 196.024 329.135C194.107 316.388 191.241 302.124 187.074 281.549C182.377 303.97 176.09 320.613 173.369 331.471C172.832 343.575 170.379 359.915 169.101 380.486C165.2 381.658 162.77 381.998 158.725 381.504C153.471 362.598 154.355 342.023 156.577 319.782C158.946 293.046 155.04 262.855 158.951 252.39C160.951 246.187 161.208 240.683 161.747 235.856C181.393 242.39 198.354 242.011 212.622 234.723L212.618 234.721Z" fill="#0E6739"/>
<path fill-rule="evenodd" clip-rule="evenodd" d="M165.363 215.104C164.101 215.292 162.907 215.458 161.787 215.608C161.729 224.618 161.712 231.364 161.738 235.852C162.85 236.349 164.417 236.921 165.635 237.069C165.631 236.488 165.447 235.152 165.443 234.584C165.365 227.694 165.337 221.206 165.363 215.106V215.104ZM222.949 197.057C219.479 194.171 216.179 189.483 213.046 182.999C213.396 185.258 213.537 188.284 213.466 192.067C216.132 195.158 218.612 197.574 220.909 199.317C221.614 198.506 222.295 197.755 222.949 197.055V197.057ZM166.342 179.492C164.817 184.404 163.354 189.196 161.966 193.871C161.926 197.819 161.895 201.525 161.864 204.994C162.877 204.897 164.059 204.833 165.46 204.8C165.604 195.214 165.9 186.778 166.345 179.494L166.342 179.492Z" fill="#0E6739"/>
<path fill-rule="evenodd" clip-rule="evenodd" d="M197.432 186.559H223.36C224.547 186.559 225.367 187.528 225.18 188.716L219.357 225.415C219.169 226.601 218.044 227.574 216.857 227.574H190.929C189.742 227.574 188.922 226.601 189.11 225.415L194.928 188.716C195.118 187.53 196.243 186.559 197.432 186.559Z" fill="#313437"/>
<path fill-rule="evenodd" clip-rule="evenodd" d="M146.588 200.073C145.465 204.615 144.999 208.772 145.916 214.284C148.714 218.343 160.007 216.075 189.083 211.218C190.127 212.17 192.282 213.115 195.558 212.694C198.599 211.934 198.743 211.141 202.154 207.928C202.982 205.426 202.812 203.516 201.645 202.199C197.803 204.456 195.783 205.658 191.457 205.801C192.611 202.84 192.781 200.93 191.977 200.068C190.502 201.25 189.541 203.028 189.097 205.402C166.172 204.408 160.127 204.538 157.079 206.139C157.41 204.701 157.702 203.436 157.958 202.347C154.391 201.135 151.484 200.428 146.592 200.075L146.588 200.073Z" fill="#F4AE7C"/>
<path fill-rule="evenodd" clip-rule="evenodd" d="M196.426 378.048C196.661 379.993 196.694 381.738 196.528 383.281C204.355 386.68 203.024 382.758 206.152 382.659C205.365 381.278 204.857 379.514 204.625 377.365C201.212 378.339 199.269 378.56 196.426 378.05V378.048ZM159.954 381.627C159.957 383.043 159.82 384.286 159.541 385.362C161.632 387.016 164.041 388.74 165.37 387.689C166.007 387.184 167.642 387.033 168.876 387.307C168.367 385.6 167.965 383.46 167.675 380.89C164.932 381.627 162.823 381.877 159.954 381.63V381.627Z" fill="#F4AE7C"/>
<path fill-rule="evenodd" clip-rule="evenodd" d="M214.395 252.264C200.575 265.136 182.094 265.178 158.946 252.387C155.038 262.853 158.944 293.043 156.572 319.78C154.351 342.02 153.467 362.596 158.721 381.501C159.147 381.554 159.559 381.599 159.954 381.629C162.821 381.875 164.93 381.627 167.675 380.89C168.131 380.768 168.601 380.631 169.099 380.483C170.376 359.912 172.83 343.573 173.367 331.469C176.088 320.61 182.375 303.97 187.072 281.547C191.241 302.122 194.105 316.388 196.022 329.132C193.027 337.376 190.763 355.231 194.079 377.526C194.943 377.745 195.712 377.919 196.424 378.047C199.271 378.558 201.21 378.339 204.622 377.363C205.049 377.239 205.5 377.107 205.977 376.959C205.686 355.597 210.14 340.419 213.157 329.031C214.841 296.709 217.525 271.571 214.393 252.264H214.395Z" fill="#66170E"/>
<path fill-rule="evenodd" clip-rule="evenodd" d="M197.14 144.534C199.892 144.55 201.42 144.45 204.099 144.221C205.171 144.13 202.967 147.112 196.99 144.691C196.846 144.634 196.926 144.534 197.14 144.534Z" fill="#E97850"/>
<path fill-rule="evenodd" clip-rule="evenodd" d="M195.458 129.571C196.795 129.67 196.72 130.737 195.73 130.989C185.188 133.628 192.142 129.322 195.458 129.571Z" fill="#404142"/>
<path fill-rule="evenodd" clip-rule="evenodd" d="M200.748 128.858C199.494 129.342 199.879 130.338 200.898 130.293C211.753 129.763 203.844 127.659 200.748 128.858Z" fill="#404142"/>
<path fill-rule="evenodd" clip-rule="evenodd" d="M202.907 141.362L202.973 141.346C204.081 140.898 204.664 140.635 204.806 140.165C204.941 139.734 204.662 139.319 204.16 138.573C203.603 137.747 202.761 136.486 201.853 134.328C201.786 134.174 201.603 134.103 201.446 134.165C201.291 134.231 201.216 134.41 201.282 134.573C202.213 136.777 203.077 138.067 203.648 138.919C203.977 139.412 204.26 139.836 204.216 139.986C204.152 140.198 203.367 140.518 202.739 140.772C202.582 140.839 202.507 141.017 202.571 141.181C202.629 141.311 202.77 141.386 202.907 141.362Z" fill="#E97850"/>
<path fill-rule="evenodd" clip-rule="evenodd" d="M203.617 134.637C204.377 134.558 204.664 131.592 202.817 131.793C201.828 131.897 202.37 134.768 203.617 134.637Z" fill="#404142"/>
<path fill-rule="evenodd" clip-rule="evenodd" d="M196.243 135.153C197.005 135.067 197.29 132.108 195.447 132.309C194.459 132.412 194.996 135.283 196.243 135.153Z" fill="#404142"/>
<path fill-rule="evenodd" clip-rule="evenodd" d="M516.52 245.001L513.48 270.71C512.808 276.41 516.927 281.076 522.632 281.076H529.731L526.515 308.286C526.212 308.356 525.901 308.42 525.571 308.484C525.154 308.564 524.716 308.632 524.258 308.696L527.251 283.351H521.982C515.277 283.351 510.432 277.797 511.215 271.17L514.25 245.46C515.019 238.97 520.958 234.314 527.514 234.314H540.62C540.647 234.637 540.62 234.312 540.644 234.637H528.118C522.413 234.637 517.194 239.301 516.52 245.001Z" fill="#406FB5"/>
<path fill-rule="evenodd" clip-rule="evenodd" d="M539.38 313.924H534.975L538.856 281.072H545.956C551.661 281.072 556.88 276.406 557.554 270.706L560.594 244.997C561.266 239.297 557.148 234.633 551.442 234.633H528.118C522.413 234.633 517.192 239.297 516.52 244.997L513.481 270.706C512.809 276.406 516.927 281.072 522.632 281.072H529.732L525.85 313.924H458.295C455.265 313.924 452.785 316.402 452.785 319.429C452.785 322.455 455.265 324.933 458.295 324.933H497.265V340.517H495.03V364.425L471.315 366.05C470.3 366.119 469.462 366.887 469.462 367.899V369.749H530.41V367.6C530.41 366.748 529.71 366.11 528.861 366.05L504.842 364.425V340.517H502.605V324.933H539.38C542.409 324.933 544.889 322.455 544.889 319.429C544.889 316.402 542.409 313.924 539.38 313.924ZM469.721 380.208C467.533 380.208 465.762 378.435 465.762 376.253C465.762 374.071 467.533 372.298 469.721 372.298C471.909 372.298 473.68 374.066 473.68 376.253C473.68 378.439 471.907 380.208 469.721 380.208ZM510.565 372.298C508.379 372.298 506.606 374.066 506.606 376.253C506.606 378.439 508.379 380.208 510.565 380.208C512.751 380.208 514.526 378.435 514.526 376.253C514.526 374.071 512.753 372.298 510.565 372.298ZM488.185 372.298C485.996 372.298 484.226 374.066 484.226 376.253C484.226 378.439 485.996 380.208 488.185 380.208C490.373 380.208 492.143 378.435 492.143 376.253C492.143 374.071 490.373 372.298 488.185 372.298ZM529.031 372.298C526.843 372.298 525.07 374.066 525.07 376.253C525.07 378.439 526.843 380.208 529.031 380.208C531.219 380.208 532.99 378.435 532.99 376.253C532.99 374.071 531.217 372.298 529.031 372.298Z" fill="#9D7558"/>
<path fill-rule="evenodd" clip-rule="evenodd" d="M346.556 284.444L343.287 302.937V302.941L334.266 354.023L326.198 399.689C326.076 400.381 325.46 400.886 324.739 400.886C324.103 400.886 323.61 400.345 323.696 399.731L330.65 347.965L338.088 292.591L339.211 284.236L346.552 284.442L346.556 284.444Z" fill="#C59A7C"/>
<path fill-rule="evenodd" clip-rule="evenodd" d="M421.66 287.498H401.16C402.4 285.517 402.416 283.528 401.198 281.646H431.523C433.138 281.646 434.451 282.958 434.451 284.572C434.451 286.187 433.138 287.498 431.523 287.498H427.066V285.654C427.066 285.319 426.794 285.047 426.459 285.047H422.265C421.929 285.047 421.657 285.317 421.657 285.654V287.498H421.66ZM399.947 288.709H422.268C422.604 288.709 422.875 288.439 422.875 288.101V286.257H425.855V288.101C425.855 288.437 426.127 288.709 426.463 288.709H431.527C433.813 288.709 435.667 286.851 435.667 284.572C435.667 282.293 433.81 280.432 431.527 280.432H399.969C399.728 280.432 399.511 280.573 399.414 280.794C399.315 281.012 399.357 281.266 399.518 281.445C401.35 283.47 401.368 285.438 399.573 287.631C399.432 287.741 399.343 287.911 399.343 288.103C399.343 288.439 399.613 288.711 399.947 288.711V288.709Z" fill="#519AAB"/>
<path fill-rule="evenodd" clip-rule="evenodd" d="M401.348 286.259H422.27C422.606 286.259 422.878 285.988 422.878 285.654C422.878 285.321 422.608 285.047 422.27 285.047H401.348C401.012 285.047 400.74 285.316 400.74 285.654C400.74 285.992 401.012 286.259 401.348 286.259Z" fill="#519AAB"/>
<path fill-rule="evenodd" clip-rule="evenodd" d="M401.368 284.06H429.542C429.876 284.06 430.15 283.788 430.15 283.452C430.15 283.117 429.878 282.85 429.542 282.85H401.368C401.034 282.85 400.764 283.119 400.764 283.452C400.764 283.786 401.034 284.06 401.368 284.06Z" fill="#519AAB"/>
<path fill-rule="evenodd" clip-rule="evenodd" d="M487.537 371.924C488.213 372.701 488.299 373.569 487.963 374.495C487.963 374.497 487.963 374.503 487.961 374.506C487.338 376.222 485.287 378.136 482.906 380.044C482.601 380.292 482.331 380.515 482.099 380.722C482.035 380.775 481.973 380.828 481.916 380.886C481.867 380.928 481.821 380.969 481.774 381.011C479.555 383.056 480.393 383.527 476.401 387.674C471.854 392.402 468.717 392.49 467.827 392.06C467.075 391.693 468.605 389.185 470.302 386.364C470.386 386.228 470.464 386.093 470.548 385.956C470.775 385.583 470.996 385.196 471.222 384.823C473.211 381.429 472.703 379.837 472.23 374.788C471.847 370.685 465.837 351.863 465.837 351.863L474.559 350.359C474.559 350.359 477.183 365.348 480.075 367.655C481.624 368.885 483.355 368.901 484.842 369.815C484.946 369.877 485.05 369.941 485.15 370.009C485.996 370.568 486.858 371.144 487.539 371.922L487.537 371.924Z" fill="#F4AE7C"/>
<path fill-rule="evenodd" clip-rule="evenodd" d="M487.537 371.923C488.213 372.701 488.3 373.569 487.964 374.494C487.964 374.496 487.964 374.503 487.961 374.505C487.199 376.221 485.201 378.125 482.897 380.03C482.597 380.278 482.329 380.505 482.097 380.722C482.033 380.775 481.971 380.828 481.914 380.885C481.865 380.927 481.819 380.969 481.772 381.011C479.553 383.056 480.391 383.526 476.399 387.673C471.852 392.402 468.715 392.49 467.824 392.059C467.073 391.693 468.602 389.184 470.3 386.364C471.186 386.041 475.298 384.368 478.408 380.392C481.151 376.899 482.977 372.414 484.842 369.814C484.946 369.876 485.05 369.94 485.15 370.009C485.996 370.568 486.858 371.144 487.539 371.921L487.537 371.923Z" fill="#142D4D"/>
<path fill-rule="evenodd" clip-rule="evenodd" d="M417.23 366.486C416.695 369.172 412.856 368.726 408.572 367.679C404.286 366.634 405.303 367.878 399.204 367.202C393.105 366.528 391.257 364.256 391.07 363.351C390.906 362.547 393.919 362.266 397.153 361.889C397.559 361.847 397.966 361.796 398.375 361.745C402.024 361.288 404.699 358.934 408.015 356.999C411.156 355.173 415.842 347.711 415.842 347.711L424.206 348.376C424.206 348.376 419.816 355.032 418.121 357.933C417.119 359.636 417.175 361.889 417.301 363.629C417.363 364.572 417.427 365.537 417.234 366.489L417.23 366.486Z" fill="#F4AE7C"/>
<path fill-rule="evenodd" clip-rule="evenodd" d="M408.572 367.677C404.286 366.632 405.303 367.876 399.204 367.2C393.105 366.526 391.257 364.254 391.07 363.349C390.906 362.545 393.919 362.264 397.153 361.887L397.179 361.951C397.179 361.951 400.84 364.543 405.915 364.663C410.055 364.762 414.44 363.578 417.296 363.627C417.358 364.57 417.422 365.535 417.23 366.487C416.695 369.172 412.856 368.726 408.572 367.679V367.677Z" fill="#142D4D"/>
<path fill-rule="evenodd" clip-rule="evenodd" d="M435.846 243.73C435.846 243.73 433.852 238.854 431.66 238.653C429.467 238.454 422.493 237.357 421.993 238.355C421.498 239.349 421.993 242.935 423.492 244.229C424.984 245.525 434.255 247.614 434.255 247.614L435.848 243.732L435.846 243.73Z" fill="#F4AE7C"/>
<path fill-rule="evenodd" clip-rule="evenodd" d="M449.292 313.041L467.32 361.514C467.32 361.514 470.09 361.786 472.742 361.02C475.185 360.317 477.988 358.471 477.988 358.471C477.988 358.471 473.514 311.925 465.313 302.246C457.115 292.565 449.29 313.041 449.29 313.041H449.292Z" fill="#66170E"/>
<path fill-rule="evenodd" clip-rule="evenodd" d="M520.6 293.431C520.6 293.431 468.797 275.93 457.243 279.658C445.687 283.379 411.001 352.333 411.001 352.333C411.001 352.333 411.781 353.373 413.919 354.174C415.906 354.919 420.718 354.87 420.718 354.87C420.718 354.87 452.024 328.056 455.749 320.241C459.478 312.421 460.968 304.976 464.694 305.718C468.423 306.463 512.771 323.966 522.837 313.538C532.901 303.113 530.264 289.569 530.264 289.569L520.598 293.431H520.6Z" fill="#66170E"/>
<path fill-rule="evenodd" clip-rule="evenodd" d="M488.941 212.016C488.114 210.309 487.188 207.277 486.732 201.877C486.805 202.412 487.738 209.229 490.362 213.085C501.133 220.151 521.785 243.75 521.372 248.222C521.372 248.222 528.649 235.895 528.775 235.822C528.775 235.822 542.192 218.778 526.288 209.012C518.207 204.05 518.251 197.679 518.587 192.147C518.923 186.613 516.381 162.796 500.192 169.03C500.192 169.03 497.592 167.875 496.427 168.05C496.427 168.05 497.375 168.231 497.86 168.728C495.985 168.617 493.299 168.756 491.063 170.028C485.123 173.396 479.814 203.626 488.936 212.016H488.941Z" fill="#404142"/>
<path fill-rule="evenodd" clip-rule="evenodd" d="M491 213.437C490.943 213.462 496.199 216.187 500.156 215.105C503.872 214.091 506.301 209.279 506.25 209.266C504.674 208.955 504.223 206.788 504.256 197.502L503.545 197.639L491.575 200.013C491.575 200.013 491.845 203.774 491.852 207.32C491.865 210.299 491.681 213.119 491 213.44V213.437Z" fill="#F4AE7C"/>
<path fill-rule="evenodd" clip-rule="evenodd" d="M491.575 200.01C491.575 200.01 491.845 203.771 491.851 207.318C498.556 207.13 502.095 201.026 503.547 197.639L491.577 200.013L491.575 200.01Z" fill="#ED7D5B"/>
<path fill-rule="evenodd" clip-rule="evenodd" d="M504.78 196.339C504.78 196.339 508.293 190.796 509.135 186.056C509.734 182.673 508.012 170.134 495.399 171.941C495.399 171.941 491.734 172.301 488.291 174.624C485.554 176.472 481.604 180.461 486.02 191.403L487.17 195.1L504.778 196.336L504.78 196.339Z" fill="#404142"/>
<path fill-rule="evenodd" clip-rule="evenodd" d="M489.334 203.366C489.334 203.366 505.185 203.629 505.194 193.764C505.207 183.901 507.26 177.294 497.143 176.709C487.024 176.126 485.055 179.886 484.25 183.179C483.445 186.47 485.216 203.046 489.336 203.366H489.334Z" fill="#F4AE7C"/>
<path fill-rule="evenodd" clip-rule="evenodd" d="M489.926 176.468C489.926 176.468 494.265 188.04 500.923 189.749C507.588 191.458 510.47 189.676 510.47 189.676C510.47 189.676 505.364 185.622 504.305 178.546C504.305 178.546 493.2 170.96 489.926 176.468Z" fill="#404142"/>
<path fill-rule="evenodd" clip-rule="evenodd" d="M532.751 293.702C531.896 296.076 529.276 296.681 525.762 296.273C519.06 295.493 509.113 290.997 501.94 287.892C491.007 283.155 486.038 287.603 482.559 284.593C479.08 281.578 486.535 274.878 480.072 243.764C477.884 233.215 491.765 210.593 491.765 210.593C491.765 210.593 492.966 217.143 506.25 209.263C506.719 208.985 511.951 216.721 516.984 226.259C522.537 236.777 527.853 249.486 526.29 256.034C523.31 268.518 535.238 286.814 532.751 293.7V293.702Z" fill="#0E6739"/>
<path fill-rule="evenodd" clip-rule="evenodd" d="M491.765 210.594L483.58 244.154C483.58 244.154 482.561 245.968 480.961 248.547C477.21 254.604 470.271 264.893 465.828 265.942C463.638 266.455 458.972 264.633 453.817 262.031C444.062 257.106 432.531 249.39 432.531 249.39C431.79 244.921 435.678 241.279 435.678 241.279C435.678 241.279 459.036 250.051 461.354 250.216C466.412 250.579 471.558 226.196 476.284 218.067C479.699 212.193 491.763 210.592 491.763 210.592L491.765 210.594Z" fill="#0E6739"/>
<path fill-rule="evenodd" clip-rule="evenodd" d="M532.751 293.702C531.896 296.076 529.276 296.681 525.762 296.273C521.126 294.254 501.093 286.501 501.321 281.249C501.653 273.471 505.174 273.224 502.685 263.626C500.693 255.917 519.199 241.587 522.15 238.469C527.7 248.992 527.853 249.486 526.29 256.036C523.31 268.52 535.238 286.816 532.751 293.702Z" fill="#116137"/>
<path fill-rule="evenodd" clip-rule="evenodd" d="M480.961 248.549C477.21 254.606 470.271 264.895 465.828 265.944C463.638 266.456 458.972 264.635 453.817 262.033C457.581 263 461.237 262.974 464.789 262.629C468.644 262.258 469.761 257.539 475.85 250.466C479.798 245.877 480.766 247.034 480.959 248.547L480.961 248.549Z" fill="#99A9D4"/>
<path fill-rule="evenodd" clip-rule="evenodd" d="M499.517 263.44C499.517 263.44 496.166 260.834 492.994 261.452C489.827 262.073 488.275 264.248 488.401 265.24C488.523 266.233 490.198 269.025 492.623 269.274C495.05 269.519 501.942 267.784 501.942 267.784L499.52 263.44H499.517Z" fill="#F4AE7C"/>
<path fill-rule="evenodd" clip-rule="evenodd" d="M506.25 209.266C506.25 209.266 519.17 210.063 523.637 216.293C529.937 225.066 540.868 260.871 537.886 269.068L498.589 268.9C498.589 268.9 497.634 264.457 498.958 262.302C500.284 260.151 521.816 256.672 522.813 255.681C523.808 254.687 510.39 236.318 510.39 233.337C510.39 230.355 506.25 209.266 506.25 209.266Z" fill="#0E6739"/>
<path fill-rule="evenodd" clip-rule="evenodd" d="M496.144 278.104H448.569L439.988 248.225H487.497L496.144 278.104Z" fill="#D0D9EE"/>
<path d="M510.932 276.941H448.729V278.103H510.932V276.941Z" fill="#0F3970"/>
<path fill-rule="evenodd" clip-rule="evenodd" d="M463.673 262.677C463.375 261.626 463.983 260.773 465.035 260.773C466.087 260.773 467.179 261.626 467.482 262.677C467.78 263.728 467.177 264.576 466.122 264.576C465.068 264.576 463.976 263.726 463.671 262.677H463.673Z" fill="#D0D9EE"/>
<path fill-rule="evenodd" clip-rule="evenodd" d="M245.064 284.444L241.795 302.937V302.941L232.772 354.023L224.709 399.689C224.587 400.381 223.97 400.886 223.25 400.886C222.613 400.886 222.12 400.345 222.206 399.731L229.16 347.965L236.601 292.591L237.724 284.236L245.064 284.442V284.444Z" fill="#C59A7C"/>
<path fill-rule="evenodd" clip-rule="evenodd" d="M516.204 406.394C515.479 406.394 514.864 405.891 514.741 405.197L507.577 364.623L497.269 306.267L494.389 289.952L501.728 289.744L503.003 299.216L511.942 365.785L517.247 405.241C517.324 405.853 516.838 406.396 516.204 406.396V406.394Z" fill="#C59A7C"/>
<path fill-rule="evenodd" clip-rule="evenodd" d="M515.143 290.854H227.845C226.59 290.854 225.564 287.997 225.564 284.514V284.384C225.564 280.897 226.59 278.039 227.845 278.039H515.14C516.396 278.039 517.422 280.897 517.422 284.384V284.514C517.422 287.999 516.396 290.854 515.14 290.854H515.143Z" fill="#DFB290"/>
<path fill-rule="evenodd" clip-rule="evenodd" d="M491.036 181.832C493.887 181.205 498.779 184.27 497.187 184.586C496.67 184.69 495.214 183.813 494.654 183.659C493.536 183.352 491.372 183.506 490.764 182.769C490.512 182.468 490.673 181.912 491.036 181.83V181.832Z" fill="#404142"/>
<path fill-rule="evenodd" clip-rule="evenodd" d="M489.88 182.724C489.272 183.455 487.11 183.298 485.994 183.612C485.435 183.764 483.978 184.634 483.456 184.526C481.869 184.206 486.774 181.125 489.612 181.781C490.019 181.88 490.136 182.426 489.882 182.724H489.88Z" fill="#404142"/>
<path fill-rule="evenodd" clip-rule="evenodd" d="M493.591 188.644C494.418 188.644 495.063 185.506 493.059 185.506C491.989 185.506 492.238 188.644 493.591 188.644Z" fill="#404142"/>
<path fill-rule="evenodd" clip-rule="evenodd" d="M486.496 188.667C485.667 188.667 485.021 185.533 487.026 185.533C488.094 185.533 487.848 188.667 486.496 188.667Z" fill="#404142"/>
<path fill-rule="evenodd" clip-rule="evenodd" d="M489.06 193.968C489.263 193.672 488.715 193.433 488.399 193.226C487.223 192.466 486.936 193.064 489.524 187.937C490.03 186.934 490.421 186.435 490.052 186.267C489.71 186.115 489.648 186.563 489.071 187.705C486.257 193.283 486.511 192.563 488.706 194.032C488.819 194.109 488.98 194.082 489.058 193.968H489.06Z" fill="#ED7D5B"/>
<path fill-rule="evenodd" clip-rule="evenodd" d="M493.708 198.658C494.049 198.044 493.169 198.212 487.769 197.64C486.153 197.474 490.91 203.755 493.708 198.658Z" fill="#ED7D5B"/>
<path fill-rule="evenodd" clip-rule="evenodd" d="M290.756 401.06C276.185 401.758 268.908 401.323 268.928 399.752C268.988 395.875 277.529 397.255 284.339 390.729C284.501 394.89 289.439 396.14 292.922 394.773C294.569 393.527 295.893 393.255 296.886 393.958C297.662 395.267 297.92 397.007 297.662 399.183C296.855 400.543 294.549 401.168 290.754 401.06H290.756ZM346.202 399.713C331.631 400.408 329.772 397.895 329.79 396.327C330.011 393.611 334.328 395.561 340.334 390.572C340.495 394.731 343.433 395.616 346.916 394.247C348.563 393.001 349.64 392.118 352.106 394.084C352.882 395.393 353.141 396.519 352.885 398.695C352.073 400.053 349.996 399.823 346.2 399.715L346.202 399.713Z" fill="#142D4D"/>
<path fill-rule="evenodd" clip-rule="evenodd" d="M348.899 321.629C348.899 330.655 351.545 337.962 354.808 337.962C358.07 337.962 360.718 330.655 360.718 321.629C360.718 312.604 358.07 305.301 354.808 305.301C351.545 305.301 348.899 312.613 348.899 321.629Z" fill="#D0D9EE"/>
<path fill-rule="evenodd" clip-rule="evenodd" d="M390.406 230.379C389.984 228.864 389.595 227.274 389.288 226.346C375.771 225.567 376.775 222.148 377.128 220.602C379.166 213.206 380.378 208.547 378.249 206.575C377.296 207.133 375.305 208.41 374.774 211.627C373.89 211.201 372.754 210.625 372.529 209.682C371.952 206.851 371.505 200.89 368.183 200.689C367.776 203.364 367.458 206.195 367.221 209.183C365.486 210.85 365.846 216.892 367.626 223.824C366.896 227.804 369.392 229.915 375.11 230.151L375.013 231.377C380.126 230.253 386.039 229.966 390.406 230.376V230.379Z" fill="#F4AE7C"/>
<path fill-rule="evenodd" clip-rule="evenodd" d="M376.039 218.748C375.685 220.292 373.66 226.332 389.288 226.347C390.09 226.48 393.976 223.001 396.885 219.846C403.974 212.152 402.336 198.471 393.046 196.735C393.437 186.44 376.852 192.321 369.96 190.797C362.723 196.243 365.144 200.639 368.178 200.692C371.501 200.891 371.947 206.856 372.524 209.685C372.752 210.628 373.886 211.202 374.77 211.63C375.3 208.413 377.294 207.134 378.245 206.578C380.146 208.338 378.512 210.769 376.689 216.544C376.474 217.231 376.253 217.966 376.037 218.752L376.039 218.748Z" fill="#404142"/>
<path fill-rule="evenodd" clip-rule="evenodd" d="M363.669 238.582C377.181 235.866 388.357 235.349 397.186 237.032C403.726 237.637 407.378 241.122 408.141 247.486C412.568 272.894 410.601 299.153 401.162 329.825C400.316 332.203 392.688 334.039 381.328 332.588C359.973 330.77 353.539 329.041 347.286 321.345C335.495 306.84 347.597 286.705 361.505 265.615C368.123 259.919 374.456 242.988 363.671 238.58L363.669 238.582Z" fill="#0E6739"/>
<path fill-rule="evenodd" clip-rule="evenodd" d="M397.184 237.033C389.533 235.653 380.152 235.895 369.045 237.759C370.316 235.659 371.428 233.756 372.389 232.051C381.448 229.341 394.907 229.75 396.587 232.34C396.974 234.493 397.122 235.906 397.184 237.033Z" fill="#04592D"/>
<path fill-rule="evenodd" clip-rule="evenodd" d="M302.29 317.518C313.066 315.511 325 310.045 343.287 313.682C343.919 314.857 346.379 320.237 347.283 321.348C353.534 329.044 359.973 330.773 381.326 332.59L381.605 332.626L381.856 332.654H381.883L382.159 332.69L382.38 332.716L382.431 332.723L382.703 332.752L382.898 332.774L383.393 332.824H383.413L383.51 332.835L383.777 332.86L383.921 332.873L384.303 332.906L384.421 332.917L384.564 332.928L384.823 332.948L384.914 332.957L385.079 332.97L385.336 332.986L385.402 332.99L385.59 333.001L385.844 333.017H385.886L386.092 333.03L386.344 333.043H386.364L386.591 333.054L386.837 333.065L387.082 333.076L387.299 333.083H387.325L387.566 333.089L387.758 333.096H387.805L388.043 333.103H388.211L388.278 333.107H388.514L388.658 333.109H388.976L389.098 333.111H389.204L389.432 333.109H389.657L389.878 333.103H389.955L390.099 333.098L390.318 333.092H390.375L390.537 333.085L390.753 333.076H390.789L390.968 333.07L391.18 333.061H391.196L391.39 333.05L391.593 333.039H391.596L391.803 333.025L391.982 333.014H392.007L392.208 332.999L392.369 332.986H392.409L392.608 332.966L392.659 332.959L392.807 332.946L392.999 332.93L393.119 332.919L393.194 332.911L393.384 332.891L393.572 332.871L393.76 332.849L393.939 332.827H393.943L394.124 332.802L394.186 332.793L394.471 332.756H394.485L394.527 332.747L394.661 332.725L394.836 332.701L394.863 332.694L395.006 332.674L395.174 332.643H395.185L395.342 332.615L395.504 332.588H395.51L395.672 332.555C387.646 347.3 365.86 350.887 319.538 341.115C315.783 354.93 313.223 353.364 303.095 389.957C298.435 393.718 283.915 393.152 286.669 385.176C291.483 368.783 289.224 353.647 292.779 336.373C294.31 328.933 296.112 318.764 302.29 317.514V317.518Z" fill="#66170E"/>
<path fill-rule="evenodd" clip-rule="evenodd" d="M284.346 241.805H333.727C335.942 241.805 338.36 243.613 339.1 245.826L347.367 270.482C348.11 272.695 346.905 274.502 344.69 274.502H295.31C293.092 274.502 290.676 272.695 289.936 270.482L281.671 245.826C280.926 243.613 282.131 241.805 284.346 241.805Z" fill="#AAB9DE"/>
<path fill-rule="evenodd" clip-rule="evenodd" d="M286.11 239.92H334.679C337.12 239.92 339.779 241.912 340.592 244.348L348.587 268.196C349.403 270.627 348.079 272.619 345.643 272.619H297.071C294.633 272.619 291.972 270.629 291.156 268.196L283.161 244.348C282.345 241.91 283.672 239.92 286.11 239.92Z" fill="white"/>
<path fill-rule="evenodd" clip-rule="evenodd" d="M286.105 239.92H334.682C336.773 239.92 339.027 241.386 340.137 243.341H282.938C282.739 241.386 284.014 239.92 286.105 239.92Z" fill="#BBC5E4"/>
<path fill-rule="evenodd" clip-rule="evenodd" d="M302.695 241.393H323.784C323.999 241.393 324.12 241.565 324.063 241.772C324.005 241.987 323.786 242.157 323.572 242.157H302.482C302.275 242.157 302.149 241.987 302.206 241.772C302.264 241.565 302.485 241.393 302.692 241.393H302.695Z" fill="white"/>
<path fill-rule="evenodd" clip-rule="evenodd" d="M300.531 240.861C300.993 240.861 301.262 241.235 301.139 241.698C301.01 242.16 300.531 242.535 300.069 242.535C299.607 242.535 299.337 242.162 299.465 241.698C299.593 241.235 300.069 240.861 300.533 240.861H300.531Z" fill="white"/>
<path fill-rule="evenodd" clip-rule="evenodd" d="M326.37 240.861C326.835 240.861 327.104 241.235 326.976 241.698C326.85 242.16 326.37 242.535 325.908 242.535C325.446 242.535 325.175 242.162 325.303 241.698C325.429 241.235 325.908 240.861 326.37 240.861Z" fill="white"/>
<path fill-rule="evenodd" clip-rule="evenodd" d="M354.996 345.746C355.729 360.5 351.901 366.268 351.576 390.49C348.079 392.477 342.688 393.857 337.624 387.356C337.051 367.887 334.286 354.368 333.599 343.803C339.79 344.631 349.755 345.53 354.996 345.746Z" fill="#66170E"/>
<path fill-rule="evenodd" clip-rule="evenodd" d="M330.113 270.592C346.963 249.953 358.32 239.94 363.671 238.584C376.633 242.795 366.841 264.144 360.223 269.839C354.104 276.921 346.494 281.272 334.83 286.982C329.332 289.219 315.652 286.717 293.793 283.827C292.321 280.481 292.745 277.922 295.057 276.15C314.463 273.655 325.972 271.148 330.113 270.592Z" fill="#04592D"/>
<path fill-rule="evenodd" clip-rule="evenodd" d="M293.515 283.147C292.118 283.555 290.778 283.707 289.498 283.604C285.489 282.184 284.125 278.891 281.976 278.129C280.44 278.233 278.875 278.465 277.277 278.825C274.452 278.498 276.51 276.987 283.448 274.291C287.622 274.379 291.302 275.157 294.496 276.625C292.821 278.237 292.493 280.41 293.515 283.144V283.147Z" fill="#F4AE7C"/>
<path fill-rule="evenodd" clip-rule="evenodd" d="M296.461 392.14C296.384 392.659 296.328 393.167 296.293 393.666C295.387 393.39 294.26 393.759 292.922 394.773C289.759 396.016 285.387 395.095 284.496 391.798C285.356 391.018 286.07 389.967 286.64 388.645C287.845 391.451 292.301 392.478 296.461 392.14ZM350.479 391.023C350.544 391.752 350.658 392.496 350.833 393.249C349.211 392.463 348.251 393.236 346.921 394.243C343.735 395.495 341.003 394.863 340.44 391.562C340.692 391.175 340.895 390.776 341.052 390.365C343.55 392.494 347.542 392.271 350.482 391.023H350.479Z" fill="#F4AE7C"/>
<path fill-rule="evenodd" clip-rule="evenodd" d="M324.553 342.067C325.243 339.062 327.949 336.803 331.16 336.803H392.506C392.195 337.121 391.865 337.428 391.525 337.73H331.779C329.08 337.73 326.841 339.799 326.574 342.427C325.904 342.31 325.234 342.189 324.553 342.067Z" fill="#0F3970"/>
<path fill-rule="evenodd" clip-rule="evenodd" d="M408.786 337.729H404.604L408.289 306.529H415.033C420.453 306.529 425.409 302.097 426.047 296.684L428.932 272.268C429.571 266.854 425.661 262.426 420.243 262.426H398.092C392.672 262.426 387.716 266.854 387.078 272.268L384.193 296.684C383.554 302.099 387.464 306.529 392.882 306.529H399.626L395.939 337.729H331.779C328.904 337.729 326.547 340.081 326.547 342.956C326.547 345.829 328.904 348.183 331.779 348.183H368.793V362.983H366.667V385.688L344.147 387.233C343.181 387.298 342.389 388.026 342.389 388.989V390.745H400.269V388.702C400.269 387.892 399.606 387.286 398.797 387.231L375.988 385.685V362.981H373.864V348.181H408.788C411.666 348.181 414.02 345.827 414.02 342.954C414.02 340.078 411.666 337.726 408.788 337.726L408.786 337.729ZM342.63 400.676C340.555 400.676 338.873 398.995 338.873 396.919C338.873 394.844 340.555 393.161 342.63 393.161C344.706 393.161 346.393 394.844 346.393 396.919C346.393 398.995 344.71 400.676 342.63 400.676ZM381.423 393.161C379.346 393.161 377.663 394.844 377.663 396.919C377.663 398.995 379.346 400.676 381.423 400.676C383.501 400.676 385.185 398.995 385.185 396.919C385.185 394.844 383.501 393.161 381.423 393.161ZM360.166 393.161C358.09 393.161 356.408 394.844 356.408 396.919C356.408 398.995 358.09 400.676 360.166 400.676C362.241 400.676 363.928 398.995 363.928 396.919C363.928 394.844 362.246 393.161 360.166 393.161ZM398.959 393.161C396.881 393.161 395.199 394.844 395.199 396.919C395.199 398.995 396.881 400.676 398.959 400.676C401.036 400.676 402.721 398.995 402.721 396.919C402.721 394.844 401.036 393.161 398.959 393.161Z" fill="#9D7558"/>
<path fill-rule="evenodd" clip-rule="evenodd" d="M452.225 163.023C446.069 165.832 439.794 167.098 433.211 167.098C410.61 167.098 392.279 151.149 392.279 131.481C392.279 111.814 410.61 95.8691 433.211 95.8691C455.813 95.8691 474.144 111.82 474.144 131.481C474.144 140.187 470.609 148.073 464.65 154.291C474.635 159.013 484.623 163.734 494.61 168.46C452.225 163.023 466.354 164.834 452.225 163.023Z" fill="#A4D2AD"/>
<path fill-rule="evenodd" clip-rule="evenodd" d="M453.087 124.338C453.187 124.671 453.24 125.025 453.24 125.391V138.708C453.24 144.949 416.1 144.949 416.1 138.708V125.391C416.1 125.025 416.153 124.671 416.253 124.338H453.087Z" fill="#72190F"/>
<path fill-rule="evenodd" clip-rule="evenodd" d="M453.087 124.338C453.187 124.671 453.24 125.025 453.24 125.391V138.708C453.24 141.826 443.956 143.387 434.67 143.387V124.338H453.087Z" fill="#46100A"/>
<path fill-rule="evenodd" clip-rule="evenodd" d="M453.242 130.237L434.672 135.946L434.022 135.745L416.103 130.237V129.334C416.103 129.104 416.156 128.884 416.255 128.674H453.09C453.189 128.881 453.242 129.104 453.242 129.334V130.237Z" fill="#8F3025"/>
<path fill-rule="evenodd" clip-rule="evenodd" d="M453.242 130.237L434.672 135.946V128.674H453.09C453.189 128.881 453.242 129.104 453.242 129.334V130.237Z" fill="#8F3025"/>
<path fill-rule="evenodd" clip-rule="evenodd" d="M400.857 123.619C410.121 120.772 419.385 117.925 428.647 115.077C434.646 113.235 434.263 113.067 440.331 114.929L467.389 123.245C469.197 123.89 467.875 124.579 465.154 125.555L434.672 134.919C410.643 127.534 407.027 126.423 401.903 124.849C401.399 124.668 400.223 123.831 400.857 123.616V123.619Z" fill="#66170E"/>
<path fill-rule="evenodd" clip-rule="evenodd" d="M435.618 121.71C435.11 121.156 433.921 121.163 432.959 121.724C431.998 122.282 431.635 123.186 432.144 123.742C432.654 124.296 433.846 124.29 434.803 123.729C435.762 123.168 436.129 122.265 435.618 121.71Z" fill="#E9EFF8"/>
<path fill-rule="evenodd" clip-rule="evenodd" d="M432.621 124.046L412.528 128.116V140.671H411.423V127.564L411.664 127.409L431.918 123.225C431.931 123.415 432.007 123.587 432.144 123.741C432.27 123.876 432.433 123.975 432.621 124.046Z" fill="#E9EFF8"/>
<path d="M413.269 140.672H410.683V143.927H413.269V140.672Z" fill="#E9EFF8"/>
<path fill-rule="evenodd" clip-rule="evenodd" d="M410.605 149.274L410.311 149.221C410.729 146.922 410.782 142.331 410.782 142.287H411.081C411.078 142.338 411.023 146.953 410.603 149.274H410.605Z" fill="#E9EFF8"/>
<path fill-rule="evenodd" clip-rule="evenodd" d="M413.311 149.322C412.785 147.822 412.875 142.747 412.88 142.533L413.176 142.54C413.176 142.591 413.083 147.776 413.591 149.222L413.311 149.322Z" fill="#E9EFF8"/>
<path fill-rule="evenodd" clip-rule="evenodd" d="M412.665 148.671C412.36 146.392 412.46 142.3 412.462 142.26L412.76 142.269C412.758 142.308 412.659 146.376 412.962 148.631L412.665 148.671Z" fill="#E9EFF8"/>
<path fill-rule="evenodd" clip-rule="evenodd" d="M411.138 148.968L410.842 148.932C411.151 146.417 411.191 142.142 411.195 142.1H411.492C411.492 142.148 411.452 146.437 411.138 148.968Z" fill="#E9EFF8"/>
<path fill-rule="evenodd" clip-rule="evenodd" d="M411.671 149.889L411.37 149.885C411.405 148.41 411.635 142.425 411.635 142.363L411.934 142.377C411.932 142.434 411.702 148.416 411.669 149.889H411.671Z" fill="#E9EFF8"/>
<path fill-rule="evenodd" clip-rule="evenodd" d="M412 149.542C411.87 148.042 412.066 142.777 412.075 142.557L412.371 142.568C412.371 142.621 412.168 148.036 412.296 149.52L412 149.544V149.542Z" fill="#E9EFF8"/>
<path fill-rule="evenodd" clip-rule="evenodd" d="M85.2863 257.433C80.8853 261.583 78.8849 266.558 79.2894 272.351C89.7005 279.433 95.0851 286.069 95.4388 292.252C83.2085 281.376 74.0175 281.405 69.8818 288.083C72.9344 291.773 75.0697 304.513 74.3336 310.374C73.0317 320.732 75.8522 330.022 83.6859 333.516C85.483 337.535 87.3707 339.655 89.3468 339.874C87.4503 351.476 85.8544 363.247 84.5568 375.199C85.8787 375.876 87.773 375.806 88.781 375.123C89.1855 370.466 89.4817 367.178 89.7867 364.976C90.5891 356.304 91.4909 347.914 92.4967 339.814C92.9808 339.757 93.4582 339.675 93.9357 339.573C103.096 337.652 99.5855 331.943 107.965 330.225C113.124 329.17 117.813 324.819 118.98 320.928C113.611 319.239 106.853 317.434 100.001 318.717C103.564 313.716 110.797 314.091 120.611 315.299C124.318 308.095 129.585 308.753 127.499 297.486C124.588 281.78 134.87 277.426 131.411 258.52C126.356 256.612 119.661 256.833 111.329 259.193C114.864 253.971 121.568 251.809 131.449 252.707C129.395 247.169 129.413 240.009 130.39 236.955C126.723 234.307 123.016 234.321 119.265 236.997C120.943 234.126 123.111 232.483 125.781 232.075C125.646 229.612 124.588 226.863 122.6 223.824C119.314 223.899 115.669 224.63 111.672 226.006C113.493 227.205 114.081 229.363 113.44 232.481C111.25 229.904 108.012 229.047 103.73 229.902C102.826 241.127 92.8702 245.68 92.7022 250.517C98.5665 255.675 101.997 261.3 103.003 267.393C97.0303 262.274 91.124 258.957 85.2885 257.429L85.2863 257.433Z" fill="#527C66"/>
<path fill-rule="evenodd" clip-rule="evenodd" d="M84.5522 375.198C85.8498 363.247 87.4479 351.474 89.3422 339.873C96.1017 296.062 107.912 250.806 118.193 231.869C104.479 264.164 95.0053 308.535 89.7821 364.976C89.4771 367.178 89.1809 370.466 88.7764 375.123C87.7684 375.806 85.8741 375.879 84.5522 375.198Z" fill="#AAB9DE"/>
<path fill-rule="evenodd" clip-rule="evenodd" d="M101.951 229.168C106.201 234.59 107.605 240.528 106.166 246.983C93.2392 253.189 86.0487 259.743 84.5965 266.647C100.218 256.477 110.562 258.074 114.081 266.298C110.014 269.935 105.441 283.914 105.273 290.638C104.977 302.519 100.218 312.501 90.8034 315.105C88.0956 319.325 85.6111 321.39 83.3476 321.299C83.509 334.682 83.3034 348.21 82.7287 361.884C81.1217 362.428 79.0019 362.023 77.9829 361.083C78.3211 355.769 78.5444 352.02 78.5797 349.489C79.1522 339.587 79.5634 329.989 79.8131 320.696C79.2782 320.548 78.7521 320.378 78.2327 320.182C68.2504 316.463 73.1686 310.628 64.0263 307.272C58.4008 305.209 53.8628 299.511 53.2129 294.933C59.5436 293.942 67.4591 293.061 74.959 295.669C71.7981 289.435 63.5886 288.626 52.3309 288.317C49.3822 279.581 43.3412 279.426 47.6095 267.093C53.5577 249.907 42.7222 243.253 49.8354 222.557C55.8566 221.267 63.3543 222.654 72.3331 226.726C69.2429 220.245 62.0612 216.671 50.7859 216.007C54.0396 210.119 55.2399 202.054 54.6585 198.452C59.2385 196.092 63.4118 196.739 67.1806 200.389C65.7792 196.871 63.6152 194.654 60.6797 193.738C61.25 190.99 62.91 188.075 65.6664 184.99C69.3556 185.635 73.33 187.073 77.5961 189.305C75.3415 190.343 74.3114 192.675 74.5037 196.293C77.4082 193.766 81.1991 193.347 85.8741 195.04C84.9811 207.834 95.4165 214.653 94.7843 220.125C87.3021 224.937 82.4789 230.69 80.3105 237.381C87.9077 232.633 95.1203 229.895 101.948 229.171L101.951 229.168Z" fill="#7AB898"/>
<path fill-rule="evenodd" clip-rule="evenodd" d="M82.7308 361.886C83.3033 348.212 83.5089 334.684 83.3498 321.301C83.1972 270.822 77.6027 217.859 69.2561 194.793C79.2008 233.486 82.3109 285.053 78.5841 349.491C78.5487 352.022 78.3255 355.771 77.9873 361.085C79.0063 362.025 81.1239 362.43 82.7331 361.886H82.7308Z" fill="#BCC9E7"/>
<path fill-rule="evenodd" clip-rule="evenodd" d="M71.0598 347.594H104.194C105.682 347.594 106.9 348.808 106.9 350.295V357.896C106.9 359.382 105.682 360.599 104.194 360.599H71.0598C69.5722 360.599 68.3542 359.382 68.3542 357.896V350.295C68.3542 348.808 69.57 347.594 71.0598 347.594Z" fill="#875650"/>
<path fill-rule="evenodd" clip-rule="evenodd" d="M71.3562 360.598H103.898L100.704 377.401H74.5525L71.3562 360.598Z" fill="#875650"/>
<path fill-rule="evenodd" clip-rule="evenodd" d="M103.898 360.598H71.3562L71.9353 363.636H103.321L103.898 360.598Z" fill="#634038"/>
<path fill-rule="evenodd" clip-rule="evenodd" d="M258.497 65.2364H197.649C198.084 63.3902 199.746 62.0166 201.729 62.0166C201.822 62.0166 201.919 62.0188 202.014 62.0276C202.976 59.678 205.288 58.0217 207.987 58.0217C209.167 58.0217 210.272 58.3397 211.223 58.8918C212.386 55.0691 215.936 52.2866 220.142 52.2866C220.995 52.2866 221.826 52.4036 222.613 52.6222C224.649 48.1326 229.174 45.0078 234.426 45.0078C240.659 45.0078 245.86 49.4047 247.105 55.259C247.209 55.259 247.312 55.2524 247.421 55.2524C251.411 55.2524 254.706 58.2337 255.195 62.0917C256.822 62.3964 258.119 63.642 258.499 65.2386L258.497 65.2364Z" fill="#F4E9E7"/>
<path fill-rule="evenodd" clip-rule="evenodd" d="M394.091 49.2308H333.243C333.683 47.3846 335.34 46.011 337.323 46.011C337.42 46.011 337.513 46.011 337.61 46.022C338.57 43.6701 340.882 42.0139 343.581 42.0139C344.761 42.0139 345.864 42.3319 346.817 42.884C347.98 39.0613 351.53 36.281 355.736 36.281C356.591 36.281 357.42 36.3958 358.207 36.6122C360.243 32.1226 364.766 29 370.02 29C376.253 29 381.454 33.3924 382.699 39.2512C382.807 39.2446 382.911 39.2424 383.015 39.2424C387.005 39.2424 390.3 42.2259 390.789 46.0817C392.418 46.3864 393.715 47.6297 394.093 49.2286L394.091 49.2308Z" fill="#F4E9E7"/>
<path fill-rule="evenodd" clip-rule="evenodd" d="M317.007 56.5057H273.692C274.003 55.1917 275.184 54.2134 276.596 54.2134C276.662 54.2134 276.733 54.2156 276.8 54.2222C277.48 52.5483 279.129 51.3712 281.05 51.3712C281.89 51.3712 282.677 51.5987 283.353 51.9918C284.18 49.2711 286.711 47.2902 289.704 47.2902C290.312 47.2902 290.902 47.3741 291.461 47.5265C292.911 44.331 296.132 42.1094 299.872 42.1094C304.308 42.1094 308.013 45.2364 308.897 49.4058C308.974 49.4036 309.045 49.3992 309.123 49.3992C311.965 49.3992 314.308 51.5236 314.657 54.2686C315.816 54.485 316.742 55.3706 317.007 56.5079V56.5057Z" fill="#F4E9E7"/>
</g>
<defs>
<clipPath id="clip0_152_16192">
<rect width="592" height="382" fill="white" transform="translate(24 29)"/>
</clipPath>
</defs>
</svg>
