<svg width="640" height="440" viewBox="0 0 640 440" fill="none" xmlns="http://www.w3.org/2000/svg">
<g clip-path="url(#clip0_153_16550)">
<rect width="640" height="440" fill="white"/>
<path d="M393.548 294.804H242.979C233.338 294.804 225.521 286.988 225.521 277.347V49.6746C225.521 40.0333 233.338 32.2168 242.979 32.2168H393.547C403.189 32.2168 411.005 40.0333 411.005 49.6746V277.347C411.005 286.988 403.19 294.804 393.548 294.804Z" fill="#FEE5E0"/>
<path d="M400.597 160.116H240.547V154.866C240.547 149.904 244.569 145.883 249.531 145.883H391.613C396.574 145.883 400.596 149.905 400.596 154.866V160.116H400.597Z" fill="#66170E"/>
<path d="M391.061 208.752H250.083C244.817 208.752 240.549 204.483 240.549 199.218V160.117H400.598V199.218C400.597 204.483 396.328 208.752 391.061 208.752Z" fill="white"/>
<path d="M400.455 231.171H240.406V225.921C240.406 220.959 244.428 216.938 249.389 216.938H391.471C396.433 216.938 400.455 220.959 400.455 225.921V231.171Z" fill="#66170E"/>
<path d="M390.92 279.807H249.941C244.675 279.807 240.406 275.537 240.406 270.272V231.172H400.455V270.272C400.455 275.537 396.186 279.807 390.92 279.807Z" fill="white"/>
<path d="M392.207 238.727H249.667V241.505H392.207V238.727Z" fill="#A2A2B0"/>
<path d="M392.207 246.561H249.667V249.339H392.207V246.561Z" fill="#A2A2B0"/>
<path d="M392.207 254.398H249.667V257.176H392.207V254.398Z" fill="#A2A2B0"/>
<path d="M392.207 262.232H249.667V265.011H392.207V262.232Z" fill="#A2A2B0"/>
<path d="M310.813 133.299H249.068C246.834 133.299 245.023 131.488 245.023 129.254V59.3447C245.023 57.1107 246.834 55.3008 249.068 55.3008H310.813C313.047 55.3008 314.858 57.1117 314.858 59.3447V129.255C314.858 131.488 313.047 133.299 310.813 133.299Z" fill="white"/>
<path d="M304.839 101.474C303.635 100.614 289.271 95.4219 289.271 95.4219L279.941 99.063L270.61 95.4219C270.61 95.4219 256.247 100.614 255.043 101.474C253.838 102.334 257.279 133.297 257.279 133.297H279.637H280.243H302.602C302.602 133.297 306.043 102.334 304.839 101.474Z" fill="#66170E"/>
<path d="M286.084 84.8496L280.244 85.5377L274.404 84.8496C274.404 84.8496 274.773 91.9599 272.99 95.5721L280.244 99.1844L287.497 95.5721C285.714 91.9599 286.084 84.8496 286.084 84.8496Z" fill="#F28F8F"/>
<path d="M292.947 75.506C292.669 72.8563 290.732 73.2805 290.106 73.491V68.6543H280.403H270.7V73.491C270.074 73.2816 268.137 72.8563 267.859 75.506C267.556 78.3971 269.701 79.6995 270.7 80.145V80.2305C270.7 85.7552 275.013 92.0161 280.403 92.0161C285.569 92.0161 290.106 85.7552 290.106 80.2305V80.145C291.105 79.6984 293.251 78.396 292.947 75.506Z" fill="#FFB2AE"/>
<path d="M295.497 66.139C294.598 66.1839 292.976 65.8249 292.976 65.8249C294.23 65.5108 294.598 63.2639 294.598 63.2639C291.992 63.983 280.402 59.985 274.921 60.9722C269.44 61.9605 269.935 64.6112 269.935 64.6112C264.364 66.7224 268.241 74.1862 268.241 74.1862C269.016 72.8903 270.699 73.4907 270.699 73.4907L271.553 77.5047C271.553 77.5047 273.094 74.8711 272.481 72.3251C272.481 72.3219 272.48 72.3208 272.479 72.3176C274.122 70.7321 274.293 68.6551 274.293 68.6551L287.951 68.7C287.787 69.9639 288.379 71.2086 288.984 72.1135C288.87 72.2749 288.768 72.5153 288.685 72.8636C288.07 75.4106 289.613 78.0432 289.613 78.0432L290.874 73.354C291.874 73.3134 292.344 73.8785 292.344 73.8785C294.176 72.23 293.926 68.654 293.926 68.654C295.452 68.1156 295.497 66.139 295.497 66.139Z" fill="#424245"/>
<path d="M274.129 91.3262L280.244 99.1822L275.857 103.282L270.611 95.4224L274.129 91.3262Z" fill="#A6544B"/>
<path d="M286.359 91.3262L280.244 99.1822L284.631 103.282L289.877 95.4224L286.359 91.3262Z" fill="#A6544B"/>
<path d="M255.044 101.477C255.044 101.477 249.711 104.941 249.711 114.362L248.335 133.3H257.28L255.044 101.477Z" fill="#A6544B"/>
<path d="M304.585 101.477C304.585 101.477 309.917 104.941 309.917 114.362L311.293 133.3H302.348L304.585 101.477Z" fill="#A6544B"/>
<path d="M328.815 81.3086L330.9 85.5309L335.56 86.2083L332.187 89.4958L332.983 94.1369L328.815 91.9456L324.647 94.1369L325.443 89.4958L322.07 86.2083L326.731 85.5309L328.815 81.3086Z" fill="white"/>
<path d="M344.663 81.3086L346.747 85.5309L351.408 86.2083L348.036 89.4958L348.832 94.1369L344.663 91.9456L340.495 94.1369L341.291 89.4958L337.919 86.2083L342.579 85.5309L344.663 81.3086Z" fill="white"/>
<path d="M360.511 81.3086L362.595 85.5309L367.255 86.2083L363.883 89.4958L364.679 94.1369L360.511 91.9456L356.343 94.1369L357.138 89.4958L353.767 86.2083L358.427 85.5309L360.511 81.3086Z" fill="white"/>
<path d="M376.359 81.3086L378.444 85.5309L383.104 86.2083L379.731 89.4958L380.527 94.1369L376.359 91.9456L372.191 94.1369L372.987 89.4958L369.614 86.2083L374.275 85.5309L376.359 81.3086Z" fill="white"/>
<path d="M392.207 81.3086L394.291 85.5309L398.952 86.2083L395.58 89.4958L396.376 94.1369L392.207 91.9456L388.039 94.1369L388.835 89.4958L385.463 86.2083L390.123 85.5309L392.207 81.3086Z" fill="white"/>
<path d="M393.651 134.806H327.817C325.423 134.806 323.474 132.857 323.474 130.463V101.647C323.474 99.2515 325.423 97.3027 327.817 97.3027H393.651C396.045 97.3027 397.994 99.2515 397.994 101.647V130.463C397.994 132.858 396.045 134.806 393.651 134.806ZM327.816 99.4406C326.599 99.4406 325.61 100.431 325.61 101.648V130.464C325.61 131.681 326.6 132.67 327.816 132.67H393.65C394.867 132.67 395.856 131.68 395.856 130.464V101.648C395.856 100.431 394.866 99.4406 393.65 99.4406H327.816Z" fill="#A2A2B1"/>
<path d="M389.506 107.975H331.673C331.213 107.975 330.841 107.603 330.841 107.143V106.844C330.841 106.385 331.213 106.012 331.673 106.012H389.506C389.965 106.012 390.338 106.385 390.338 106.844V107.143C390.337 107.603 389.965 107.975 389.506 107.975Z" fill="#A2A2B1"/>
<path d="M389.506 113.72H331.673C331.213 113.72 330.841 113.347 330.841 112.887V112.588C330.841 112.129 331.213 111.756 331.673 111.756H389.506C389.965 111.756 390.338 112.129 390.338 112.588V112.887C390.337 113.347 389.965 113.72 389.506 113.72Z" fill="#A2A2B1"/>
<path d="M389.506 119.472H331.673C331.213 119.472 330.841 119.099 330.841 118.639V118.34C330.841 117.881 331.213 117.508 331.673 117.508H389.506C389.965 117.508 390.338 117.881 390.338 118.34V118.639C390.337 119.099 389.965 119.472 389.506 119.472Z" fill="#A2A2B1"/>
<path d="M389.506 125.216H331.673C331.213 125.216 330.841 124.843 330.841 124.383V124.084C330.841 123.625 331.213 123.252 331.673 123.252H389.506C389.965 123.252 390.338 123.625 390.338 124.084V124.383C390.337 124.843 389.965 125.216 389.506 125.216Z" fill="#A2A2B1"/>
<path d="M372.552 68.5013C374.114 61.8477 369.987 55.1873 363.333 53.6248C356.68 52.0624 350.019 56.1896 348.457 62.8432C346.895 69.4968 351.022 76.1572 357.675 77.7196C364.329 79.282 370.989 75.1549 372.552 68.5013Z" fill="white"/>
<path d="M347.547 65.4465L351.668 61.597L356.933 66.6933L369.037 53.0391L373.474 57.5403L357.754 75.5429L347.547 65.4465Z" fill="#0E6739"/>
<path d="M392.207 167.227H249.667V170.004H392.207V167.227Z" fill="#A2A2B0"/>
<path d="M392.207 175.061H249.667V177.838H392.207V175.061Z" fill="#A2A2B0"/>
<path d="M392.207 182.898H249.667V185.677H392.207V182.898Z" fill="#A2A2B0"/>
<path d="M392.207 190.732H249.667V193.51H392.207V190.732Z" fill="#A2A2B0"/>
<path d="M225.521 45.553H410.516V34.8733C410.516 27.2117 404.304 21 396.642 21H239.394C231.733 21 225.521 27.2117 225.521 34.8733V45.553Z" fill="#66170E"/>
<path d="M195.556 274.137H96.2113C87.5636 274.137 80.5527 267.127 80.5527 258.479V107.411C80.5527 98.7628 87.5636 91.752 96.2113 91.752H195.556C204.204 91.752 211.215 98.7628 211.215 107.411V258.478C211.215 267.127 204.204 274.137 195.556 274.137Z" fill="#F4E9E7"/>
<path d="M201.04 182.585H90.8232V178.969C90.8232 175.553 93.5926 172.783 97.0093 172.783H194.853C198.27 172.783 201.039 175.553 201.039 178.969V182.585H201.04Z" fill="#66170E"/>
<path d="M194.474 216.08H97.3897C93.7635 216.08 90.8232 213.141 90.8232 209.514V182.588H201.039V209.514C201.04 213.14 198.1 216.08 194.474 216.08Z" fill="white"/>
<path d="M200.943 231.518H90.7261V227.903C90.7261 224.486 93.4954 221.717 96.9121 221.717H194.756C198.172 221.717 200.942 224.486 200.942 227.903V231.518H200.943Z" fill="#66170E"/>
<path d="M194.376 265.012H97.2925C93.6663 265.012 90.7261 262.073 90.7261 258.446V231.52H200.942V258.446C200.943 262.072 198.003 265.012 194.376 265.012Z" fill="white"/>
<path d="M141.672 167.231H94.2313C92.5154 167.231 91.1233 165.84 91.1233 164.124V110.411C91.1233 108.695 92.5144 107.303 94.2313 107.303H141.672C143.388 107.303 144.78 108.694 144.78 110.411V164.124C144.779 165.839 143.388 167.231 141.672 167.231Z" fill="white"/>
<path d="M137.081 142.778C136.156 142.117 125.12 138.127 125.12 138.127L117.951 140.925L110.783 138.127C110.783 138.127 99.7479 142.116 98.8227 142.778C97.8974 143.438 100.541 167.228 100.541 167.228H117.72H118.185H135.364C135.364 167.228 138.006 143.438 137.081 142.778Z" fill="#A4D2AD"/>
<path d="M122.671 130.004L118.185 130.533L113.699 130.004C113.699 130.004 113.982 135.467 112.612 138.242L118.185 141.018L123.758 138.242C122.387 135.467 122.671 130.004 122.671 130.004Z" fill="#FEF0DD"/>
<path d="M127.945 122.825C127.731 120.788 126.243 121.115 125.762 121.276V117.561H118.307H110.852V121.276C110.371 121.115 108.883 120.788 108.669 122.825C108.436 125.046 110.083 126.047 110.852 126.389V126.454C110.852 130.699 114.165 135.509 118.307 135.509C122.276 135.509 125.762 130.699 125.762 126.454V126.389C126.529 126.047 128.178 125.046 127.945 122.825Z" fill="#FEF0DD"/>
<path d="M113.486 134.979L118.184 141.015L114.814 144.165L110.783 138.126L113.486 134.979Z" fill="#0E6739"/>
<path d="M122.883 134.979L118.184 141.015L121.555 144.165L125.586 138.126L122.883 134.979Z" fill="#0E6739"/>
<path d="M98.8225 142.777C98.8225 142.777 94.7252 145.44 94.7252 152.677L93.6675 167.228H100.539L98.8225 142.777Z" fill="#0E6739"/>
<path d="M136.885 142.777C136.885 142.777 140.983 145.44 140.983 152.677L142.04 167.228H135.167L136.885 142.777Z" fill="#0E6739"/>
<path d="M110.618 121.419L111.44 123.79C111.44 123.79 113.097 120.451 112.404 117.649C112.404 117.649 115.721 117.558 118.182 117.649C120.642 117.739 124.178 117.649 124.178 117.649C124.178 117.649 123.636 121.847 125.262 123.067C125.262 123.067 126.708 120.496 126.753 117.649C126.797 114.801 125.352 112.949 122.959 112.181C120.564 111.412 112.55 110.916 110.618 114.259C108.685 117.602 110.618 121.419 110.618 121.419Z" fill="#424245"/>
<path d="M151.608 128.318L153.043 131.227L156.252 131.692L153.93 133.956L154.479 137.152L151.608 135.643L148.737 137.152L149.285 133.956L146.963 131.692L150.173 131.227L151.608 128.318Z" fill="white"/>
<path d="M162.522 128.318L163.957 131.227L167.166 131.692L164.844 133.956L165.392 137.152L162.522 135.643L159.651 137.152L160.199 133.956L157.878 131.692L161.086 131.227L162.522 128.318Z" fill="white"/>
<path d="M196.257 165.489H150.921C149.088 165.489 147.597 163.998 147.597 162.165V142.322C147.597 140.488 149.089 138.998 150.921 138.998H196.257C198.09 138.998 199.58 140.488 199.58 142.322V162.165C199.58 163.998 198.09 165.489 196.257 165.489ZM150.921 141.135C150.266 141.135 149.734 141.668 149.734 142.322V162.165C149.734 162.82 150.266 163.352 150.921 163.352H196.257C196.912 163.352 197.444 162.819 197.444 162.165V142.322C197.444 141.667 196.912 141.135 196.257 141.135H150.921Z" fill="#A2A2B0"/>
<path d="M193.402 146.682H153.576C153.26 146.682 153.003 146.425 153.003 146.109V145.903C153.003 145.586 153.26 145.33 153.576 145.33H193.402C193.718 145.33 193.975 145.586 193.975 145.903V146.109C193.975 146.425 193.718 146.682 193.402 146.682Z" fill="#A2A2B0"/>
<path d="M193.402 150.639H153.576C153.26 150.639 153.003 150.382 153.003 150.066V149.86C153.003 149.544 153.26 149.287 153.576 149.287H193.402C193.718 149.287 193.975 149.544 193.975 149.86V150.066C193.975 150.381 193.718 150.639 193.402 150.639Z" fill="#A2A2B0"/>
<path d="M193.402 154.598H153.576C153.26 154.598 153.003 154.341 153.003 154.025V153.819C153.003 153.503 153.26 153.246 153.576 153.246H193.402C193.718 153.246 193.975 153.503 193.975 153.819V154.025C193.975 154.341 193.718 154.598 193.402 154.598Z" fill="#A2A2B0"/>
<path d="M193.402 158.553H153.576C153.26 158.553 153.003 158.296 153.003 157.98V157.774C153.003 157.458 153.26 157.201 153.576 157.201H193.402C193.718 157.201 193.975 157.458 193.975 157.774V157.98C193.975 158.296 193.718 158.553 193.402 158.553Z" fill="#A2A2B0"/>
<path d="M185.163 115.885C186.038 110.508 182.388 105.44 177.011 104.565C171.633 103.69 166.565 107.34 165.69 112.717C164.815 118.094 168.465 123.162 173.842 124.037C179.219 124.912 184.288 121.263 185.163 115.885Z" fill="white"/>
<path d="M186.775 107.686L180.863 102.377L175.434 108.392L170.004 102.377L164.091 107.686L170.036 114.372L164.091 120.958L170.182 126.347L175.434 120.442L180.685 126.347L186.775 120.958L180.83 114.372L186.775 107.686Z" fill="#AD6B6B"/>
<path d="M542.741 274.137H443.396C434.748 274.137 427.738 267.127 427.738 258.479V107.411C427.738 98.7628 434.749 91.752 443.396 91.752H542.741C551.389 91.752 558.4 98.7628 558.4 107.411V258.478C558.4 267.127 551.39 274.137 542.741 274.137Z" fill="#F4E9E7"/>
<path d="M548.225 182.585H438.01V178.969C438.01 175.553 440.779 172.783 444.196 172.783H542.039C545.456 172.783 548.225 175.553 548.225 178.969V182.585Z" fill="#66170E"/>
<path d="M541.66 216.08H444.576C440.95 216.08 438.01 213.141 438.01 209.514V182.588H548.225V209.514C548.225 213.14 545.286 216.08 541.66 216.08Z" fill="white"/>
<path d="M548.128 231.518H437.912V227.903C437.912 224.486 440.681 221.717 444.098 221.717H541.942C545.359 221.717 548.128 224.486 548.128 227.903V231.518Z" fill="#66170E"/>
<path d="M541.562 265.012H444.479C440.852 265.012 437.912 262.073 437.912 258.446V231.52H548.128V258.446C548.128 262.072 545.189 265.012 541.562 265.012Z" fill="white"/>
<path d="M489.09 167.231H441.649C439.934 167.231 438.542 165.84 438.542 164.124V110.411C438.542 108.695 439.933 107.303 441.649 107.303H489.09C490.806 107.303 492.198 108.694 492.198 110.411V164.124C492.198 165.839 490.807 167.231 489.09 167.231Z" fill="white"/>
<path d="M474.896 119.205C473.167 113.852 466.313 113.293 465.489 113.245V113.24C465.489 113.24 465.461 113.241 465.447 113.242C465.433 113.241 465.405 113.24 465.405 113.24V113.245C464.58 113.293 457.728 113.852 455.998 119.205C454.157 124.903 454.801 145.33 454.801 145.33C454.801 145.33 463.099 144.916 463.033 135.399C462.979 127.537 464.363 122.231 465.447 120.62C466.531 122.231 467.795 127.725 467.741 135.587C467.676 145.103 476.091 145.329 476.091 145.329C476.091 145.329 476.736 124.903 474.896 119.205Z" fill="#424245"/>
<path d="M482.352 141.911C481.427 141.251 472.305 138.127 472.305 138.127L465.136 140.925L457.967 138.127C457.967 138.127 449.463 141.003 448.537 141.664C447.612 142.326 452.125 167.228 452.125 167.228H464.903H465.369H479.548C479.548 167.228 483.278 142.573 482.352 141.911Z" fill="#A4D2AD"/>
<path d="M467.909 132.25L465.347 131.557L462.733 132.484C462.733 132.484 462.7 136.092 460.269 138.58L465.346 141.109L470.424 138.58C468.275 136.333 467.909 132.25 467.909 132.25Z" fill="#FFF1DD"/>
<path d="M474.239 124.536C474.045 122.682 472.689 122.979 472.251 123.126V119.74H465.458H458.665V123.126C458.227 122.98 456.871 122.682 456.677 124.536C456.464 126.56 457.966 127.471 458.665 127.783V127.843C458.665 131.711 462.945 136.093 465.458 136.093C468.377 136.093 472.251 131.711 472.251 127.843V127.783C472.95 127.471 474.451 126.56 474.239 124.536Z" fill="#FFF1DD"/>
<path d="M448.679 141.697C448.679 141.697 444.581 144.36 444.581 151.597L443.524 167.228H452.126L448.679 141.697Z" fill="#0E6739"/>
<path d="M482.202 141.697C482.202 141.697 486.299 144.36 486.299 151.597L487.357 167.228H479.55L482.202 141.697Z" fill="#0E6739"/>
<path d="M461.094 135.4L457.969 138.128C457.969 138.128 455.928 143.691 459.281 145.115C462.633 146.54 465.371 141.017 465.371 141.017L461.094 135.4Z" fill="#0E6739"/>
<path d="M469.573 135.188L472.723 138.127C472.723 138.127 474.764 143.69 471.411 145.114C468.058 146.538 465.321 141.016 465.321 141.016L469.573 135.188Z" fill="#0E6739"/>
<path d="M471.091 120.321C471.091 120.321 469.461 121.868 465.632 122.402C461.804 122.936 459.516 122.836 459.516 122.836C459.516 122.836 459.74 127.043 458.047 128.601C456.356 130.159 455.173 123.659 456.655 120.81C458.137 117.961 468.821 116.715 469.088 116.715C469.355 116.715 470.824 117.16 470.824 117.16C470.824 117.16 473.674 118.244 474.475 122.777C475.276 127.31 472.694 129.288 472.694 129.288C472.694 129.288 470.735 124.861 471.091 120.321Z" fill="#424245"/>
<path d="M470.675 124.922H467.199C466.607 124.922 466.127 125.403 466.127 125.993V126.157H465.136V126.111C465.136 125.52 464.655 125.039 464.064 125.039H460.588C459.996 125.039 459.515 125.52 459.515 126.111V126.938C459.515 127.529 459.996 128.01 460.588 128.01H464.064C464.655 128.01 465.136 127.529 465.136 126.938V126.741H466.127V126.822C466.127 127.412 466.607 127.893 467.199 127.893H470.675C471.267 127.893 471.748 127.412 471.748 126.822V125.995C471.748 125.403 471.267 124.922 470.675 124.922ZM464.603 126.938C464.603 127.234 464.362 127.475 464.065 127.475H460.589C460.292 127.475 460.051 127.234 460.051 126.938V126.111C460.051 125.815 460.292 125.574 460.589 125.574H464.065C464.362 125.574 464.603 125.815 464.603 126.111V126.938ZM471.213 126.822C471.213 127.117 470.972 127.359 470.675 127.359H467.199C466.902 127.359 466.661 127.117 466.661 126.822V125.995C466.661 125.699 466.902 125.457 467.199 125.457H470.675C470.972 125.457 471.213 125.699 471.213 125.995V126.822Z" fill="#9092C2"/>
<path d="M498.794 128.318L500.229 131.227L503.438 131.692L501.116 133.956L501.664 137.152L498.794 135.643L495.923 137.152L496.471 133.956L494.15 131.692L497.358 131.227L498.794 128.318Z" fill="white"/>
<path d="M509.707 128.318L511.143 131.227L514.353 131.692L512.03 133.956L512.578 137.152L509.707 135.643L506.837 137.152L507.385 133.956L505.063 131.692L508.272 131.227L509.707 128.318Z" fill="white"/>
<path d="M520.621 128.318L522.056 131.227L525.265 131.692L522.944 133.956L523.492 137.152L520.621 135.643L517.751 137.152L518.299 133.956L515.977 131.692L519.186 131.227L520.621 128.318Z" fill="white"/>
<path d="M543.443 165.489H498.106C496.273 165.489 494.782 163.998 494.782 162.165V142.322C494.782 140.488 496.274 138.998 498.106 138.998H543.443C545.275 138.998 546.766 140.488 546.766 142.322V162.165C546.766 163.998 545.275 165.489 543.443 165.489ZM498.106 141.135C497.452 141.135 496.919 141.668 496.919 142.322V162.165C496.919 162.82 497.452 163.352 498.106 163.352H543.443C544.097 163.352 544.629 162.819 544.629 162.165V142.322C544.629 141.667 544.097 141.135 543.443 141.135H498.106Z" fill="#A2A2B0"/>
<path d="M540.588 146.682H500.762C500.446 146.682 500.189 146.425 500.189 146.109V145.903C500.189 145.586 500.446 145.33 500.762 145.33H540.588C540.904 145.33 541.161 145.586 541.161 145.903V146.109C541.161 146.425 540.904 146.682 540.588 146.682Z" fill="#A2A2B0"/>
<path d="M540.588 150.639H500.762C500.446 150.639 500.189 150.382 500.189 150.066V149.86C500.189 149.544 500.446 149.287 500.762 149.287H540.588C540.904 149.287 541.161 149.544 541.161 149.86V150.066C541.161 150.381 540.904 150.639 540.588 150.639Z" fill="#A2A2B0"/>
<path d="M540.588 154.598H500.762C500.446 154.598 500.189 154.341 500.189 154.025V153.819C500.189 153.503 500.446 153.246 500.762 153.246H540.588C540.904 153.246 541.161 153.503 541.161 153.819V154.025C541.161 154.341 540.904 154.598 540.588 154.598Z" fill="#A2A2B0"/>
<path d="M540.588 158.553H500.762C500.446 158.553 500.189 158.296 500.189 157.98V157.774C500.189 157.458 500.446 157.201 500.762 157.201H540.588C540.904 157.201 541.161 157.458 541.161 157.774V157.98C541.161 158.296 540.904 158.553 540.588 158.553Z" fill="#A2A2B0"/>
<path d="M530.384 116.602C531.641 111.301 528.363 105.985 523.062 104.728C517.761 103.471 512.444 106.749 511.188 112.05C509.931 117.351 513.209 122.667 518.51 123.924C523.811 125.181 529.127 121.903 530.384 116.602Z" fill="white"/>
<path d="M532.116 107.686L526.203 102.377L520.773 108.392L515.345 102.377L509.432 107.686L515.377 114.372L509.432 120.958L515.523 126.347L520.773 120.442L526.025 126.347L532.116 120.958L526.171 114.372L532.116 107.686Z" fill="#AD6B6B"/>
<path d="M240.568 463.36C240.473 463.36 240.376 463.351 240.278 463.334C239.408 463.176 238.831 462.34 238.99 461.471L256.858 363.387H271.6L291.473 460.775C291.65 461.643 291.091 462.489 290.223 462.666C289.353 462.843 288.509 462.284 288.332 461.416L268.983 366.592H259.532L242.143 462.044C242.002 462.819 241.327 463.36 240.568 463.36Z" fill="#26345B"/>
<path d="M279.306 465.236C279.211 465.236 279.114 465.227 279.017 465.209C278.146 465.051 277.569 464.215 277.728 463.346L295.596 365.262H310.281L334.554 462.263C334.769 463.122 334.248 463.992 333.389 464.207C332.528 464.421 331.66 463.9 331.445 463.041L307.78 368.466H298.271L280.882 463.918C280.74 464.694 280.066 465.236 279.306 465.236Z" fill="#26345B"/>
<path d="M254.546 405.448C254.546 405.448 248.69 413.103 249.044 425.034C249.397 436.966 247.616 454.238 247.616 454.238H254.546C254.546 454.238 264.502 406.27 264.785 404.023C265.067 401.776 254.546 405.448 254.546 405.448Z" fill="#EF8A5E"/>
<path d="M269.519 387.998C269.519 387.998 273.475 388.308 275.904 395.098C278.333 401.887 262.576 455.003 262.576 455.003L257.143 449.876C257.143 449.876 256.155 429.218 259.903 417.201C263.651 405.183 263.909 405.36 263.909 405.36L269.519 387.998Z" fill="#FFA16F"/>
<path d="M296.896 361.467H261.105V364.172H296.896V361.467Z" fill="#50515D"/>
<path d="M304.954 361.467H296.184V364.172H304.954V361.467Z" fill="#50515D"/>
<path d="M228.652 363.422C228.652 363.422 247.261 365.537 259.903 364.168L259.667 359.693L229.041 352.426L228.652 363.422Z" fill="#EF8A5E"/>
<path d="M182.41 464.747C182.242 464.747 182.071 464.721 181.904 464.664C181.064 464.384 180.61 463.477 180.89 462.639L198.855 408.701H213.259L231.401 462.633C231.683 463.472 231.231 464.381 230.392 464.663C229.552 464.941 228.644 464.493 228.362 463.656L210.955 411.906H201.165L183.93 463.651C183.707 464.322 183.082 464.747 182.41 464.747Z" fill="#26345B"/>
<path d="M320.98 364.17H236.112V368.959H320.98V364.17Z" fill="#B4B4BF"/>
<path d="M221.575 298.715C221.575 298.715 222.007 295.87 223.928 295.134C225.849 294.398 226.041 295.134 226.041 295.134C226.041 295.134 226.592 296.063 226.592 299.469C226.592 302.877 226.902 306.284 226.592 310.433C226.282 314.583 225.367 317.186 224.152 317.495C222.937 317.804 221.574 317.495 221.574 317.495L219.716 322.512L215.627 321.21L221.575 298.715Z" fill="#FFA16F"/>
<path d="M234.962 322.099C234.962 322.099 238.929 332.967 240.472 344.194C242.015 355.421 245.982 363.362 248.295 364.109C250.609 364.856 253.949 358.648 249.486 346.195C247.194 339.798 241.16 320.219 241.16 320.219L234.962 322.099Z" fill="#FFA16F"/>
<path d="M196.967 336.983C198.135 344.794 203.411 366.899 204.479 371.707V382.391H231.991L230.254 364.495L229.445 328.844L220.639 325.632L208.219 321.625C208.219 321.625 195.131 324.697 196.967 336.983Z" fill="#0E6739"/>
<path d="M206.283 318.619C206.283 318.619 217.168 320.89 219.171 322.225C221.174 323.561 221.174 326.165 221.174 326.165L204.614 322.759L206.283 318.619Z" fill="#0E6739"/>
<path d="M222.693 332.843C222.693 332.843 219.95 338.238 223.259 344.193C226.568 350.148 236.577 362.55 243.432 364.762C248.953 366.543 251.364 362.573 251.364 362.573C250.998 358.351 246.103 357.996 229.792 329.241C228.269 326.558 223.576 329.906 222.693 332.843Z" fill="#0E6739"/>
<path d="M204.479 379.969C204.479 379.969 199.004 394.408 207.284 405.359C215.564 416.311 263.91 405.359 263.91 405.359L269.519 387.998L231.756 379.969H204.479Z" fill="#66170E"/>
<path d="M216.207 288.546C216.207 288.546 210.178 286.399 205.305 290.528C200.432 294.658 202.91 304.982 198.615 310.516C194.32 316.049 198.957 319.787 198.957 319.787C198.957 319.787 199.275 325.713 206.213 326.167C213.151 326.621 217.693 322.244 218.767 317.371C218.767 317.371 221.079 316.711 220.997 311.507C220.915 306.303 220.869 299.28 222.319 297.301C223.124 296.202 226.239 295.69 226.239 295.69C226.239 295.69 225.374 286.977 216.207 288.546Z" fill="#393B42"/>
<path d="M236.793 315.781C235.027 314.31 234.243 313.525 233.605 313.182C232.967 312.839 231.79 312.054 230.907 312.25C230.257 312.394 230.03 311.902 229.506 311.671C229.506 311.671 228.847 310.927 227.621 311.32C227.621 311.32 225.594 313.281 225.308 314.851C225.021 316.42 227.093 314.732 227.798 313.59C227.815 313.612 227.836 313.639 227.854 313.663C227.356 314.301 226.838 315.103 226.707 315.821C226.458 317.183 228.094 315.941 228.873 314.895C229.682 315.859 230.53 316.93 230.353 317.352C230.044 318.088 229.239 318.578 227.523 318.039C225.806 317.499 224.384 317.941 226.051 318.848C227.719 319.755 229.533 320.932 231.545 321.275C233.556 321.618 235.398 322.513 235.398 322.513C235.398 322.513 241.372 320.728 241.16 320.223C240.946 319.716 238.559 317.253 236.793 315.781Z" fill="#FFA16F"/>
<path d="M222.478 411.829H195.487L187.017 371.05C186.837 370.184 187.394 369.337 188.26 369.156C189.126 368.972 189.975 369.532 190.155 370.4L198.095 408.624H218.464L209.951 371.079C209.755 370.215 210.296 369.358 211.159 369.161C212.018 368.965 212.88 369.505 213.076 370.37L222.478 411.829Z" fill="#26345B"/>
<path d="M178.437 369.032C183.245 376.778 195.131 369.745 199.805 370.724C204.479 371.703 215.866 375.71 219.589 369.299C223.31 362.889 214.919 349.732 200.873 347.664C180.307 344.637 173.629 361.286 178.437 369.032Z" fill="#CA756B"/>
<path d="M276.196 335.109L270.053 361.464H304.955L309.754 336.541L307.803 335.109H276.196Z" fill="#50515D"/>
<path d="M277.618 336.846L272.524 359.889H301.469L305.449 336.846H277.618Z" fill="#E1E1ED"/>
<path d="M258.923 359.999C258.923 359.999 266.491 356.927 268.227 356.482C269.963 356.036 271.477 356.837 272.723 357.595C273.97 358.351 274.548 359.197 275.483 359.82C276.417 360.443 275.661 361.067 274.503 360.844C273.346 360.622 272.633 359.731 272.633 359.731L270.763 358.622C270.763 358.622 268.982 359.731 268.315 360.355C267.647 360.978 268.938 360.934 270.941 361.645C272.944 362.358 273.834 361.734 274.413 362.625C274.992 363.515 273.79 363.738 271.029 363.738C268.27 363.738 268.27 363.738 268.27 363.738C268.27 363.738 264.575 364.785 259.901 364.173L258.923 359.999Z" fill="#EF8A5E"/>
<path d="M302.55 361.464L307.803 335.109L309.753 336.541L304.954 361.464H302.55Z" fill="#50515D"/>
<path d="M254.819 415.25H196.073C194.151 415.25 192.592 413.692 192.592 411.769V411.424C192.592 409.502 194.15 407.943 196.073 407.943H254.819C256.742 407.943 258.3 409.502 258.3 411.424V411.769C258.3 413.691 256.742 415.25 254.819 415.25Z" fill="#CA756B"/>
<path d="M182.35 282.225H153.148C149.163 282.225 145.932 285.455 145.932 289.441V301.442C145.932 305.427 149.163 308.658 153.148 308.658H173.742L182.799 319.185V308.635C186.574 308.402 189.565 305.275 189.565 301.442V289.441C189.566 285.455 186.336 282.225 182.35 282.225Z" fill="#47725C"/>
<path d="M157.202 297.451C158.788 297.451 160.073 296.165 160.073 294.58C160.073 292.994 158.788 291.709 157.202 291.709C155.617 291.709 154.332 292.994 154.332 294.58C154.332 296.165 155.617 297.451 157.202 297.451Z" fill="white"/>
<path d="M168.755 297.451C170.34 297.451 171.626 296.165 171.626 294.58C171.626 292.994 170.34 291.709 168.755 291.709C167.169 291.709 165.884 292.994 165.884 294.58C165.884 296.165 167.169 297.451 168.755 297.451Z" fill="white"/>
<path d="M178.771 297.451C180.357 297.451 181.642 296.165 181.642 294.58C181.642 292.994 180.357 291.709 178.771 291.709C177.186 291.709 175.901 292.994 175.901 294.58C175.901 296.165 177.186 297.451 178.771 297.451Z" fill="white"/>
<path d="M379.698 290.37C379.698 290.37 379.431 287.299 383.571 284.895C387.711 282.491 389.714 281.957 395.858 280.755C402.001 279.553 410.548 280.621 410.548 280.621L421.499 287.299C421.499 287.299 421.099 304.794 418.161 316.279C415.223 327.765 418.353 343.964 418.353 343.964L382.903 347.129L379.698 290.37Z" fill="#0E6739"/>
<path d="M421.499 287.299C421.499 287.299 431.649 314.81 432.985 326.029C434.32 337.247 417.493 351.493 417.493 351.493L412.263 338.316L420.164 326.03L415.089 314.277L421.499 287.299Z" fill="#0E6739"/>
<path d="M396.313 248.61C396.313 248.61 402.125 248.453 406.052 250.808C409.98 253.164 410.843 256.227 410.843 256.227C410.843 256.227 412.022 257.641 412.257 260.626C412.493 263.61 406.13 273.035 406.13 273.035C406.13 273.035 398.789 273.144 396.019 271.48C393.249 269.815 389.166 257.3 389.166 257.3C389.166 257.3 386.887 255.599 386.337 253.085L388.558 252.693C388.558 252.693 385.552 251.28 386.337 249.002L396.313 248.61Z" fill="#393B42"/>
<path d="M406.13 273.036C406.13 273.036 399.026 272.595 396.019 271.48C396.019 271.48 397.883 270.209 398.352 268.009C398.821 265.81 397.569 262.118 395.92 262.197C394.27 262.275 394.147 264.396 394.147 264.396L393.107 260.46C393.107 260.46 392.725 257.95 391.03 257.3C389.335 256.651 389.166 257.3 389.166 257.3C389.166 257.3 388.68 258.12 388.68 261.125C388.68 264.131 388.407 267.136 388.68 270.798C388.954 274.459 389.761 276.754 390.832 277.027C391.904 277.301 394.25 277.474 394.25 277.474L394.744 281.454L398.351 280.306C398.351 280.306 403.852 279.947 406.207 279.947L406.13 273.036Z" fill="#FFA16F"/>
<path d="M382.356 286.499C382.356 286.499 386.63 293.043 383.558 302.658C381.975 307.615 375.494 313.069 369.586 317.19C363.775 321.243 355.865 320.381 351.057 315.176L336.414 299.32L342.691 292.642L358.984 305.13C358.984 305.13 380.353 285.697 382.356 286.499Z" fill="#0E6739"/>
<path d="M382.903 345.527V351.492C382.903 351.492 384.105 402.42 384.372 410.7C384.639 418.98 383.819 452.234 383.819 452.234H397.174C397.174 452.234 402.001 424.856 400.597 415.508C399.782 410.078 399.312 408.108 399.312 402.766C399.312 397.424 402.959 366.022 402.959 366.022C402.959 366.022 409.748 408.563 409.748 414.439C409.748 420.316 413.537 454.549 413.537 454.549H426.091C426.091 454.549 426.575 416.309 424.171 408.296C421.767 400.283 420.383 351.372 418.097 342.814L382.903 345.527Z" fill="#66170E"/>
<path d="M342.052 293.322C342.052 293.322 337.338 287.5 336.416 286.03C335.494 284.561 330.218 279.953 328.882 279.82C327.547 279.686 330.018 283.559 331.621 284.761C331.621 284.761 329.083 285.696 329.417 287.366C329.417 287.366 327.346 288.034 327.68 289.704C327.68 289.704 326.411 291.468 327.079 293.323C327.747 295.179 329.082 296.181 329.75 296.315C330.418 296.448 331.153 296.315 331.153 296.315C331.153 296.315 332.709 297.851 334.468 297.918L336.415 299.32L342.052 293.322Z" fill="#FFA16F"/>
<path d="M392.169 280.719C392.169 280.719 395.62 278.366 401.124 277.538C406.626 276.71 408.664 277.538 408.664 277.538L409.488 280.719C409.488 280.719 387.103 284.606 392.169 280.719Z" fill="#0E6739"/>
<path d="M426.83 236.914H456.033C460.018 236.914 463.249 240.145 463.249 244.13V256.132C463.249 260.117 460.018 263.348 456.033 263.348H435.438L426.381 273.875V263.324C422.607 263.091 419.615 259.965 419.615 256.132V244.13C419.614 240.145 422.845 236.914 426.83 236.914Z" fill="#47725C"/>
<path d="M430.647 252.212C432.233 252.212 433.519 250.927 433.519 249.341C433.519 247.755 432.233 246.469 430.647 246.469C429.061 246.469 427.775 247.755 427.775 249.341C427.775 250.927 429.061 252.212 430.647 252.212Z" fill="white"/>
<path d="M442.199 252.212C443.785 252.212 445.071 250.927 445.071 249.341C445.071 247.755 443.785 246.469 442.199 246.469C440.613 246.469 439.327 247.755 439.327 249.341C439.327 250.927 440.613 252.212 442.199 252.212Z" fill="white"/>
<path d="M452.215 252.212C453.801 252.212 455.087 250.927 455.087 249.341C455.087 247.755 453.801 246.469 452.215 246.469C450.629 246.469 449.343 247.755 449.343 249.341C449.343 250.927 450.629 252.212 452.215 252.212Z" fill="white"/>
<path d="M501.876 453.629H486.172V409.963H482.763V453.63H466.4C465.459 453.63 464.561 454.034 463.937 454.739L459.463 459.791C458.599 460.767 458.874 462.294 460.026 462.906C460.857 463.347 461.884 463.155 462.498 462.441L467.324 456.835H482.764V461.274C482.764 462.215 483.527 462.978 484.468 462.978C485.409 462.978 486.172 462.215 486.172 461.274V456.835H499.472L504.272 462.411C504.898 463.137 505.949 463.322 506.785 462.853C507.905 462.224 508.158 460.723 507.306 459.761L501.876 453.629Z" fill="#26345B"/>
<path d="M473.713 331.212L470.743 409.963H514.014L520.71 332.943C521.418 324.807 515.004 317.812 506.838 317.812H487.628C480.142 317.812 473.995 323.731 473.713 331.212Z" fill="#BA6F66"/>
<path d="M510.428 413.034H444.948C442.968 413.034 441.362 411.659 441.362 409.962C441.362 408.266 442.968 406.891 444.948 406.891H510.428C512.409 406.891 514.014 408.266 514.014 409.962C514.014 411.658 512.408 413.034 510.428 413.034Z" fill="#CA756B"/>
<path d="M446.532 407.133H443.547L446.372 387.177C446.539 385.995 447.551 385.115 448.746 385.115H471.62V388.32H449.417L446.532 407.133Z" fill="#26345B"/>
<path d="M490.908 406.889H487.703L490.698 387.125C490.873 385.97 491.866 385.115 493.034 385.115H515.958V388.32H493.755L490.908 406.889Z" fill="#26345B"/>
<path d="M525.402 462.774C525.402 462.774 497.089 437.412 504.034 431.536C510.978 425.66 527.806 456.377 527.806 456.377C527.806 456.377 514.523 424.324 520.764 417.647C527.004 410.969 532.613 439.015 532.613 439.015C532.613 439.015 533.148 398.95 542.763 397.347C552.379 395.745 542.763 442.22 542.763 442.22C542.763 442.22 551.043 430.735 557.721 433.139C564.399 435.543 546.77 453.438 546.77 453.438C546.77 453.438 556.118 444.357 561.193 446.761C566.268 449.165 549.708 463.14 549.708 463.14L525.402 462.774Z" fill="#A4D2AD"/>
<path d="M168.754 368.959H90.7261V462.775H168.754V368.959Z" fill="#FEE5E0"/>
<path d="M158.671 376.6H98.3064V400.817H158.671V376.6Z" fill="#FFD1C9"/>
<path d="M158.671 408.697H98.3064V458.329H158.671V408.697Z" fill="#FFD1C9"/>
<path d="M128.222 391.735C129.992 391.735 131.427 390.3 131.427 388.529C131.427 386.759 129.992 385.324 128.222 385.324C126.451 385.324 125.016 386.759 125.016 388.529C125.016 390.3 126.451 391.735 128.222 391.735Z" fill="#66170E"/>
<path d="M130.625 406.695H127.153V460.65H130.625V406.695Z" fill="#66170E"/>
<path d="M109.613 336.004H99.9976V368.961H109.613V336.004Z" fill="#66170E"/>
<path d="M104.65 345.13C105.941 345.13 106.988 344.084 106.988 342.793C106.988 341.502 105.941 340.455 104.65 340.455C103.359 340.455 102.313 341.502 102.313 342.793C102.313 344.084 103.359 345.13 104.65 345.13Z" fill="#3D1C16"/>
<path d="M109.613 346.73H99.9976V351.805H109.613V346.73Z" fill="#3D1C16"/>
<path d="M128.845 336.004H119.229V368.961H128.845V336.004Z" fill="#66170E"/>
<path d="M123.882 345.13C125.173 345.13 126.219 344.084 126.219 342.793C126.219 341.502 125.173 340.455 123.882 340.455C122.591 340.455 121.544 341.502 121.544 342.793C121.544 344.084 122.591 345.13 123.882 345.13Z" fill="#3D1C16"/>
<path d="M128.845 346.73H119.229V351.805H128.845V346.73Z" fill="#3D1C16"/>
<path d="M119.229 336.004H109.613V368.961H119.229V336.004Z" fill="#0E6739"/>
<path d="M137.837 336.004H128.222V368.961H137.837V336.004Z" fill="#0E6739"/>
</g>
<defs>
<clipPath id="clip0_153_16550">
<rect width="640" height="440" fill="white"/>
</clipPath>
</defs>
</svg>
