<svg width="50" height="50" viewBox="0 0 50 50" fill="none" xmlns="http://www.w3.org/2000/svg">
<path d="M37.1583 29.4238L31.7676 26.7284C35.5762 23.6229 38.1836 18.1737 38.1836 13.2812C38.1836 6.01553 32.2655 0 25 0C17.7345 0 11.8164 6.01553 11.8164 13.2812C11.8164 18.1737 14.4238 23.6229 18.2324 26.7284L12.8417 29.4238C7.39258 29.6581 3.02734 34.1406 3.02734 39.6484V48.5352C3.02734 49.3554 3.67178 50 4.49219 50H23.5352C23.5352 45.7512 23.5352 42.8253 23.5352 39.0918L25 38.3594L26.4648 39.0918C26.4648 42.8053 26.4648 45.7619 26.4648 50H45.5078C46.3282 50 46.9727 49.3554 46.9727 48.5352V39.6484C46.9727 34.1406 42.6074 29.6581 37.1583 29.4238ZM19.6386 37.7734L15.4198 31.4161L18.6426 29.8048L22.8613 36.1621L19.6386 37.7734ZM25 34.0819L21.1621 28.3398C21.9151 27.4352 21.9241 25.9175 20.326 24.6707C17.4766 22.4477 15.3229 18.484 14.8341 14.7461H22.0703C24.4727 14.7461 26.5819 13.6035 27.9297 11.8164C29.2774 13.6035 31.3867 14.7363 33.7891 14.7363H35.1659C34.668 18.5449 32.4413 22.5977 29.5116 24.7949C27.9441 25.9142 27.7789 27.2679 28.6914 28.5448L25 34.0819ZM27.1387 36.162L31.3574 29.8047L34.5802 31.416L30.3614 37.7733L27.1387 36.162ZM39.6484 44.043H33.7891C32.9794 44.043 32.3242 43.3878 32.3242 42.5781C32.3242 41.7685 32.9794 41.1133 33.7891 41.1133H39.6484C40.4581 41.1133 41.1133 41.7685 41.1133 42.5781C41.1133 43.3878 40.4581 44.043 39.6484 44.043Z" fill="#66170E"/>
</svg>
