<svg width="50" height="50" viewBox="0 0 50 50" fill="none" xmlns="http://www.w3.org/2000/svg">
<path fill-rule="evenodd" clip-rule="evenodd" d="M41.198 33.6001C43.2312 33.6001 44.8794 35.2483 44.8794 37.2815C44.8794 39.3147 43.2312 40.9631 41.198 40.9631C39.1648 40.9631 37.5166 39.3148 37.5166 37.2815C37.5166 35.2482 39.1648 33.6001 41.198 33.6001ZM24.9999 33.6001C22.9667 33.6001 21.3184 35.2483 21.3184 37.2816C21.3184 39.3148 22.9667 40.9631 24.9999 40.9631C27.0331 40.9631 28.6813 39.3148 28.6813 37.2816C28.6813 35.2483 27.0331 33.6001 24.9999 33.6001ZM8.80181 33.6001C10.835 33.6001 12.4833 35.2483 12.4833 37.2815C12.4833 39.3147 10.835 40.9631 8.80181 40.9631C6.76861 40.9631 5.12027 39.3148 5.12027 37.2815C5.12027 35.2482 6.76861 33.6001 8.80181 33.6001ZM2.49146 48.4375H15.112C15.622 48.4375 15.9928 47.964 15.8706 47.4688C15.0862 44.2938 12.219 41.9396 8.80181 41.9396C5.38453 41.9396 2.51734 44.2938 1.73296 47.4688C1.6106 47.964 1.9815 48.4375 2.49146 48.4375ZM34.8878 48.4375H47.5083C48.0183 48.4375 48.3891 47.964 48.2668 47.4688C47.4824 44.2938 44.6152 41.9396 41.198 41.9396C37.7807 41.9396 34.9135 44.2938 34.1292 47.4688C34.0068 47.964 34.3777 48.4375 34.8878 48.4375ZM31.3101 48.4375L18.6896 48.4374C18.1795 48.4374 17.8087 47.9639 17.931 47.4687C18.7154 44.2937 21.5826 41.9396 24.9998 41.9396C28.417 41.9396 31.2842 44.2937 32.0686 47.4688C32.1911 47.964 31.8202 48.4375 31.3101 48.4375ZM34.801 21.7529C36.4751 19.6301 37.4742 16.9503 37.4742 14.0368C37.4742 7.14736 31.8892 1.5625 24.9999 1.5625C18.1105 1.5625 12.5255 7.14736 12.5255 14.0368C12.5255 16.9503 13.5245 19.6304 15.1984 21.7535L12.4333 26.6035L17.2833 23.8383C19.0429 25.2257 21.1853 26.1493 23.5259 26.4249L24.9999 31.8087L26.4741 26.4239C28.8144 26.1483 30.9561 25.2247 32.7158 23.8378L37.5666 26.6034L34.801 21.7529ZM21.68 23.4947L20.295 21.1112L17.5793 21.5857L19.2844 17.9232C19.3463 17.9546 19.398 17.984 19.4343 18.01C19.6169 18.1889 19.9965 18.8442 20.1442 19.0701C20.7968 20.068 21.9156 20.6053 23.0636 20.523L21.68 23.4947ZM29.7198 20.3045L28.2662 22.647L27.3526 20.5259C28.3491 20.4679 29.2822 19.9467 29.8554 19.0701C30.0031 18.8443 30.3828 18.1889 30.5653 18.01C30.662 17.9408 30.8676 17.8476 31.0849 17.7569L32.4205 20.8577L29.7198 20.3045ZM32.6955 11.0311C31.8164 12.7703 31.8817 12.3995 32.1129 14.3345C32.2018 15.0777 31.8056 15.764 31.1175 16.0586C29.3261 16.8258 29.6145 16.5838 28.5479 18.2148C28.1382 18.8413 27.3936 19.1123 26.6771 18.8957C24.8117 18.3319 25.1881 18.3319 23.3227 18.8957C22.6062 19.1123 21.8617 18.8413 21.4519 18.2148C20.3852 16.5838 20.6737 16.8259 18.8823 16.0586C18.1942 15.764 17.798 15.0777 17.8869 14.3345C18.1182 12.3995 18.1836 12.7702 17.3044 11.0311C16.9668 10.363 17.1044 9.58271 17.6502 9.07041C19.0711 7.73672 18.8829 8.06279 19.3274 6.16533C19.4982 5.43652 20.1051 4.92725 20.8525 4.88564C22.7983 4.77744 22.4445 4.90615 24.0046 3.73838C24.6039 3.28984 25.3962 3.28984 25.9956 3.73838C27.5557 4.90615 27.2019 4.77744 29.1477 4.88564C29.8951 4.92725 30.5021 5.43652 30.6728 6.16533C31.1172 8.06279 30.9291 7.73672 32.35 9.07041C32.8956 9.58271 33.0332 10.3631 32.6955 11.0311ZM24.9999 6.53652C22.4322 6.53652 20.3506 8.61807 20.3506 11.1857C20.3506 13.7534 22.4322 15.835 24.9999 15.835C27.5675 15.835 29.6491 13.7534 29.6491 11.1857C29.6491 8.61807 27.5675 6.53652 24.9999 6.53652ZM27.7105 10.3575L24.6458 13.1389C24.3434 13.449 23.842 13.4485 23.5368 13.1433L22.2619 11.8684C21.9568 11.5633 21.9568 11.0688 22.2619 10.7637C22.5669 10.4586 23.0615 10.4586 23.3666 10.7637L24.1162 11.5133L26.6608 9.204C26.9794 8.91406 27.4726 8.9373 27.7625 9.25586C28.0523 9.57432 28.0291 10.0676 27.7105 10.3575Z" fill="#66170E"/>
</svg>
