<svg width="50" height="50" viewBox="0 0 50 50" fill="none" xmlns="http://www.w3.org/2000/svg">
<path d="M7.56866 40.3057C10.3416 40.3057 12.5894 38.0579 12.5894 35.2849C12.5894 33.9528 12.067 32.7452 11.2205 31.8465C11.2336 31.832 11.2525 31.8265 11.2647 31.8108L18.6833 22.2783C18.6847 22.2792 18.686 22.2803 18.6874 22.2812C20.289 23.3593 22.1796 24.0469 24.2187 24.1797V37.6148C24.2187 37.6378 24.2297 37.6571 24.2317 37.6795C21.8245 38.0501 19.9792 40.1245 19.9792 42.6355C19.9792 45.4083 22.227 47.6562 24.9999 47.6562C27.7728 47.6562 30.0206 45.4083 30.0206 42.6355C30.0206 40.1245 28.1754 38.0501 25.7681 37.6795C25.7701 37.6571 25.7812 37.6378 25.7812 37.6148V24.1797C27.8202 24.0469 29.7109 23.3593 31.3125 22.2812C31.3138 22.2803 31.3152 22.2792 31.3166 22.2783L38.7351 31.8108C38.7473 31.8265 38.7663 31.8319 38.7795 31.8465C37.9329 32.7452 37.4105 33.9528 37.4105 35.2849C37.4105 38.0579 39.6583 40.3057 42.4312 40.3057C45.2041 40.3057 47.452 38.0579 47.452 35.2849C47.452 32.512 45.2041 30.2642 42.4312 30.2642C41.5452 30.2642 40.7142 30.4956 39.9916 30.8984C39.9815 30.8834 39.9793 30.8655 39.968 30.851L32.5523 21.3222C32.553 21.3215 32.5538 21.321 32.5545 21.3203C34.8671 19.25 36.328 16.2344 36.328 12.8906C36.328 6.64062 31.2421 1.5625 24.9999 1.5625C18.7577 1.5625 13.6718 6.64062 13.6718 12.8906C13.6718 16.2344 15.1327 19.25 17.4453 21.3203C17.4461 21.321 17.4468 21.3215 17.4476 21.3222L10.0318 30.851C10.0206 30.8655 10.0184 30.8834 10.0083 30.8984C9.28566 30.4956 8.45462 30.2642 7.56866 30.2642C4.79576 30.2642 2.54785 32.512 2.54785 35.2849C2.54785 38.0579 4.79576 40.3057 7.56866 40.3057ZM26.3358 13.6719H23.664C22.0077 13.6719 20.6561 12.3203 20.6561 10.664C20.6561 8.99997 22.0077 7.64842 23.664 7.64842H24.2187V6.54688C24.2187 6.11715 24.5702 5.76563 24.9999 5.76563C25.4296 5.76563 25.7812 6.11715 25.7812 6.54688V7.64842H26.3358C27.9922 7.64842 29.3437 8.99997 29.3437 10.664C29.3437 11.0938 28.9999 11.4453 28.5625 11.4453C28.1327 11.4453 27.7812 11.0938 27.7812 10.664C27.7812 9.85937 27.1327 9.21092 26.3358 9.21092H25.0077L24.9999 9.21874L24.9921 9.21092H23.664C22.8671 9.21092 22.2186 9.85937 22.2186 10.664C22.2186 11.4609 22.8671 12.1094 23.664 12.1094H26.3358C27.9922 12.1094 29.3437 13.4609 29.3437 15.1172C29.3437 16.7734 27.9922 18.125 26.3358 18.125H25.7812V19.2187C25.7812 19.6562 25.4296 20 24.9999 20C24.5702 20 24.2187 19.6562 24.2187 19.2187V18.125H23.664C22.0077 18.125 20.6561 16.7734 20.6561 15.1172C20.6561 14.6875 20.9999 14.3359 21.4374 14.3359C21.8671 14.3359 22.2186 14.6875 22.2186 15.1172C22.2186 15.9141 22.8671 16.5625 23.664 16.5625H26.3358C27.1327 16.5625 27.7812 15.9141 27.7812 15.1172C27.7812 14.3203 27.1327 13.6719 26.3358 13.6719Z" fill="#66170E"/>
</svg>
