<svg width="50" height="50" viewBox="0 0 50 50" fill="none" xmlns="http://www.w3.org/2000/svg">
<path d="M11.1211 11.0133V13.5693C11.5227 13.7552 11.8029 14.1623 11.8029 14.632V18.6976C11.8029 19.1154 11.4622 19.456 11.0444 19.456H10.2212C9.80343 19.456 9.46271 19.1153 9.46271 18.6976V14.632C9.46271 14.1624 9.74298 13.7552 10.1445 13.5694V10.6424L11.1211 11.0133ZM13.6055 20.0498C12.4142 21.1902 11.3934 22.5072 10.586 23.9594C11.1004 23.6298 11.5079 23.4813 11.8402 23.4597C12.3389 23.4274 12.6772 23.6784 12.9597 24.0703C13.3715 24.6417 13.6742 25.4966 14.4538 26.1561C15.0779 26.684 15.8112 27.0134 16.3977 26.7082C16.8372 26.4795 16.9841 25.8467 16.8293 24.9447C16.6106 23.6706 16.9719 22.7662 18.1913 22.2683C16.6766 21.849 15.2466 21.2579 14.0669 20.4523C13.894 20.3342 13.7397 20.199 13.6055 20.0498ZM41.3375 7.61672L25.8083 1.71682C25.2667 1.51106 24.7336 1.51106 24.192 1.71682L8.6629 7.61672C8.01085 7.86448 8.01075 8.78704 8.6629 9.03479L10.1777 9.61028C10.2414 9.44319 10.3951 9.3175 10.5852 9.29875L24.9526 7.84133C25.2201 7.81497 25.4584 8.01057 25.4847 8.27815C25.511 8.54573 25.3154 8.78401 25.048 8.81028L11.6494 10.1695L24.1922 14.9348C24.7338 15.1406 25.2669 15.1406 25.8085 14.9348L41.3376 9.03489C41.9898 8.78713 41.9897 7.86467 41.3376 7.61682L41.3375 7.61672ZM36.4687 20.1201C36.4751 20.5954 36.006 22.1864 36.3136 23.2067C36.4473 23.6502 36.7145 23.937 36.9818 24.3022C38.0043 25.6987 37.6973 27.0184 38.6627 28.4031C39.715 29.9123 41.4027 30.5511 41.4652 31.2254C41.2776 26.9278 39.4379 22.9977 36.4687 20.1201ZM35.1211 32.2023C34.7777 31.7455 34.3514 31.716 33.6449 31.508C32.9373 31.2997 31.9762 30.8229 31.4959 29.7362C31.2324 29.1398 31.0567 28.7422 30.3301 28.5896C28.648 28.2363 29.2887 27.6169 28.1569 27.2669C27.6531 27.1111 26.9568 27.3942 26.374 27.3133C25.6179 27.2083 25.1562 26.6353 24.061 26.8146C23.4336 26.9172 22.7797 27.2983 22.7453 28.4318C22.6968 30.0346 22.251 30.631 21.9342 30.8822C21.4909 31.2335 21.1546 31.5067 21.2603 32.2258C21.3307 32.7055 21.9462 33.238 22.2655 33.8941C22.5684 34.5162 23.1091 35.4636 23.7891 35.96C24.4067 36.4109 24.9494 36.2015 25.1732 37.1946C25.3303 37.892 25.16 38.8561 24.8554 39.7752C24.4116 41.1142 23.5892 43.0176 23.6688 44.5169C23.6888 44.8936 23.7686 45.4614 24.1369 45.6446C24.5952 45.8725 25.4349 45.4086 25.6083 44.8894C25.7496 44.4659 25.5532 44.0589 26.0645 43.7571C27.0078 43.1999 28.2008 42.4303 29.2228 41.5881C30.2398 40.7499 30.6663 39.9655 31.494 39.1866C32.0086 38.7024 32.676 38.4457 33.0119 37.7762C33.2245 37.3524 33.2999 36.8275 33.5285 36.2949C33.7322 35.8205 34.1064 35.2722 34.4269 34.8763C34.8629 34.3376 35.6802 33.9263 35.57 33.2009C35.5149 32.8376 35.3175 32.4635 35.1212 32.2025L35.1211 32.2023ZM14.6176 19.6458C19.5203 22.9943 30.4799 22.9941 35.3827 19.6458C35.8095 19.3543 36.0442 18.9099 36.0442 18.3931V12.0905L26.1552 15.8476C25.3903 16.1381 24.6101 16.1381 23.8452 15.8476L13.9563 12.0905V18.3931C13.9563 18.9099 14.1908 19.3543 14.6176 19.6458ZM41.4623 32.7361C41.0552 41.4762 33.8409 48.4374 25.0002 48.4374C15.898 48.4374 8.51915 41.0586 8.51915 31.9564C8.51915 29.7182 8.96613 27.5846 9.77443 25.6389L11.1127 24.7816C11.2367 24.7021 11.7463 24.3429 11.9707 24.44C12.2221 24.5488 12.4544 25.1072 12.5438 25.2662C12.8859 25.8753 13.2865 26.4475 13.8232 26.9015C14.6495 27.6005 15.8018 28.119 16.8484 27.5743C17.8768 27.0392 17.9657 25.7935 17.7917 24.7793C17.6032 23.681 18.0309 23.2004 19.1248 23.0198C19.6334 22.9359 20.4523 23.0248 20.9751 23.0623C21.5888 23.1064 22.3481 23.1444 23.0706 23.0706C23.7359 23.1164 24.3838 23.1376 25.0002 23.1376C28.2807 23.1376 32.4541 22.5404 35.3876 20.7993C35.2526 21.665 35.1235 22.6426 35.3786 23.4884C35.5565 24.0781 35.8456 24.4031 36.194 24.8789C37.0518 26.0504 36.792 27.4274 37.8617 28.9615C38.4564 29.8143 39.1687 30.3898 39.9813 31.0117C40.4778 31.3918 41.0701 32.2078 41.4624 32.736L41.4623 32.7361ZM36.5354 33.0541C36.4578 32.5436 36.2102 32.026 35.9016 31.6155C35.3534 30.8864 34.7298 30.8095 33.9206 30.5713C33.2549 30.3753 32.6775 29.9943 32.3891 29.3415C31.984 28.4247 31.5862 27.8556 30.5307 27.634C30.2996 27.5855 29.9608 27.5213 29.8036 27.3223C29.3863 26.7935 29.1228 26.5437 28.4453 26.3341C27.6814 26.0978 26.9093 26.4019 26.5081 26.3462C25.975 26.2723 25.2896 25.6241 23.903 25.851C22.5566 26.0714 21.8098 27.0583 21.7691 28.4024C21.7574 28.7873 21.6779 29.8391 21.3274 30.117C20.5526 30.7312 20.1387 31.3111 20.2939 32.3678C20.4162 33.2006 21.0543 33.6373 21.3872 34.3215C21.8103 35.1906 22.4227 36.1718 23.213 36.7488C23.4386 36.9134 23.6702 37.0287 23.9275 37.1333C24.1435 37.2211 24.1674 37.1747 24.2202 37.4093C24.3508 37.9887 24.111 38.9161 23.9281 39.468C23.6285 40.372 23.2789 41.249 23.0246 42.1699C22.6819 43.411 22.2558 45.8 23.7019 46.519C24.2957 46.8143 24.9691 46.6783 25.5207 46.3599C26.2237 45.954 26.5736 45.4265 26.6419 44.6379C26.6572 44.5808 26.6278 44.5582 26.7093 44.5097C27.7937 43.8625 28.8701 43.1439 29.8435 42.3417C30.938 41.4397 31.3353 40.6765 32.1628 39.8978C32.701 39.3913 33.4145 39.1507 33.8844 38.214C34.1358 37.713 34.2101 37.1817 34.4255 36.6801C34.5988 36.2765 34.9093 35.8319 35.1856 35.4905C35.3848 35.2444 35.6898 35.0165 35.9147 34.7771C36.367 34.2956 36.6379 33.7304 36.5352 33.054L36.5354 33.0541Z" fill="#66170E"/>
</svg>
