<svg width="50" height="50" viewBox="0 0 50 50" fill="none" xmlns="http://www.w3.org/2000/svg">
<path fill-rule="evenodd" clip-rule="evenodd" d="M19.0166 4.18164L18.1768 8.09277C18.1357 8.28125 18.0225 8.41016 17.8398 8.47363C17.2285 8.68848 16.6201 8.94043 16.0332 9.22363C15.8594 9.30762 15.6885 9.29687 15.5254 9.19238L12.1641 7.01953C11.4883 6.58301 10.6191 6.6748 10.0498 7.24414L5.83887 11.4551C5.26953 12.0244 5.17773 12.8936 5.61426 13.5703L7.78711 16.9307C7.8916 17.0937 7.90234 17.2646 7.81836 17.4395C7.53516 18.0264 7.2832 18.6338 7.06836 19.2451C7.00488 19.4277 6.87598 19.541 6.68652 19.582L2.77637 20.4219C1.98926 20.5908 1.43945 21.2715 1.43945 22.0762V28.0313C1.43945 28.8359 1.98926 29.5166 2.77637 29.6855L6.68652 30.5254C6.87598 30.5664 7.00488 30.6797 7.06836 30.8623C7.2832 31.4736 7.53516 32.0811 7.81836 32.668C7.90234 32.8428 7.8916 33.0137 7.78613 33.1768L5.61426 36.5371C5.17773 37.2139 5.26953 38.083 5.83887 38.6523L10.0498 42.8633C10.6191 43.4326 11.4883 43.5244 12.1641 43.0879L15.5254 40.915C15.6885 40.8105 15.8594 40.7998 16.0342 40.8838C16.6211 41.167 17.2285 41.4189 17.8398 41.6338C18.0225 41.6973 18.1357 41.8262 18.1768 42.0156L19.0166 45.9258C19.1855 46.7129 19.8662 47.2627 20.6709 47.2627H23.6484C23.9717 47.2627 24.2344 47 24.2344 46.6768V39.3008H29.1602L31.3438 42.3174C31.4531 42.4697 31.6299 42.5596 31.8184 42.5596H35.0723C35.3477 44.001 36.6162 45.0938 38.1357 45.0938C39.8564 45.0938 41.2559 43.6943 41.2559 41.9736C41.2559 40.2539 39.8564 38.8545 38.1357 38.8545C36.6162 38.8545 35.3477 39.9473 35.0723 41.3877H32.1172L29.9336 38.3711C29.8242 38.2188 29.6475 38.1289 29.459 38.1289H24.2344V33.5771H29.21C29.5332 33.5771 29.7959 33.3145 29.7959 32.9912C29.7959 32.668 29.5332 32.4053 29.21 32.4053H24.2344V27.8535H32.3965L35.5205 31.8857C35.6318 32.0293 35.8027 32.1133 35.9844 32.1133H42.3262C42.6016 33.5537 43.8701 34.6465 45.3906 34.6465C47.1104 34.6465 48.5098 33.2471 48.5098 31.5273C48.5098 29.8066 47.1104 28.4072 45.3906 28.4072C43.8701 28.4072 42.6016 29.5 42.3262 30.9414H36.2715L33.1475 26.9082C33.0361 26.7656 32.8652 26.6816 32.6836 26.6816H24.2344V22.1299H32.6836C32.8086 22.1299 32.9297 22.0898 33.0293 22.0166L35.5596 20.167H38.4688C38.7432 21.6084 40.0117 22.7012 41.5322 22.7012C43.252 22.7012 44.6514 21.3018 44.6514 19.5811C44.6514 17.8613 43.252 16.4619 41.5322 16.4619C40.0117 16.4619 38.7432 17.5547 38.4688 18.9951H35.3682C35.2441 18.9951 35.123 19.0352 35.0225 19.1084L32.4922 20.958H24.2344V16.4053H33.0107C33.334 16.4053 33.5967 16.1436 33.5967 15.8193C33.5967 15.4961 33.334 15.2334 33.0107 15.2334H24.2344V10.6816H27.4326C27.5449 10.6816 27.6553 10.6494 27.75 10.5889L30.6602 8.71973H34.3242C34.5996 10.1602 35.8682 11.2529 37.3877 11.2529C39.1074 11.2529 40.5068 9.85352 40.5068 8.13379C40.5068 6.41309 39.1074 5.01367 37.3877 5.01367C35.8682 5.01367 34.5996 6.10645 34.3242 7.54785H30.4883C30.376 7.54785 30.2656 7.58008 30.1719 7.64062L27.2607 9.50977H24.2344V3.42969C24.2344 3.10645 23.9717 2.84375 23.6484 2.84375H20.6709C19.8662 2.84375 19.1855 3.39453 19.0166 4.18164ZM12.9531 25.0537C12.9531 19.3525 17.4365 14.6797 23.0625 14.374V16.1367C18.4072 16.4395 14.7119 20.3232 14.7119 25.0537C14.7119 29.7842 18.4072 33.668 23.0625 33.9707V35.7334C17.4365 35.4268 12.9531 30.7539 12.9531 25.0537ZM45.3906 33.4736C44.3164 33.4736 43.4424 32.6006 43.4424 31.5264C43.4424 30.4521 44.3164 29.5781 45.3906 29.5781C46.4639 29.5781 47.3379 30.4521 47.3379 31.5264C47.3379 32.6006 46.4639 33.4736 45.3906 33.4736ZM38.1357 40.0254C39.21 40.0254 40.084 40.8984 40.084 41.9727C40.084 43.0469 39.21 43.9209 38.1357 43.9209C37.0625 43.9209 36.1885 43.0469 36.1885 41.9727C36.1885 40.8984 37.0625 40.0254 38.1357 40.0254ZM35.4404 8.13281C35.4404 7.05859 36.3135 6.18457 37.3877 6.18457C38.4619 6.18457 39.335 7.05859 39.335 8.13281C39.335 9.20703 38.4619 10.0801 37.3877 10.0801C36.3135 10.0801 35.4404 9.20703 35.4404 8.13281ZM41.5322 17.6328C42.6055 17.6328 43.4795 18.5059 43.4795 19.5801C43.4795 20.6543 42.6055 21.5283 41.5322 21.5283C40.458 21.5283 39.584 20.6543 39.584 19.5801C39.584 18.5059 40.458 17.6328 41.5322 17.6328Z" fill="#66170E"/>
</svg>
