<svg width="50" height="50" viewBox="0 0 50 50" fill="none" xmlns="http://www.w3.org/2000/svg">
<path d="M23.1822 44.0153H22.0458V41.8184H13.1064V44.0153H11.8943C11.5155 44.0153 11.1367 44.3941 11.1367 44.7729C11.1367 45.2274 11.5155 45.5305 11.8943 45.5305H13.1064V46.2881C13.1064 47.9547 14.4701 49.2426 16.061 49.2426H19.0155C20.6822 49.2426 21.9701 47.879 21.9701 46.2881V45.5305H23.1064C23.561 45.5305 23.864 45.2274 23.864 44.7729C23.9397 44.3941 23.6367 44.0153 23.1822 44.0153Z" fill="#66170E"/>
<path d="M26.9699 18.9398L20.4548 17.0459C17.3487 19.8489 12.1214 16.8944 13.4093 12.5762C14.0154 10.758 15.6821 9.47012 17.576 9.47012C19.1669 9.47012 20.6063 10.3035 21.3639 11.7428C21.5154 12.0459 21.6669 12.3489 21.7427 12.6519L28.1063 14.5459C29.6972 13.0307 31.3639 13.4853 31.8184 13.4095C31.4396 7.50043 26.1366 1.59133 19.2427 0.833758C15.076 0.379212 11.0608 1.66709 8.03054 4.39436C5.00024 7.12164 3.25781 11.061 3.25781 15.0762C3.25781 19.6974 5.53054 24.0913 9.24266 26.7429C10.4548 27.6519 11.5154 29.7732 12.0457 31.8186H16.8942V21.8186H15.4548C15.076 21.8186 14.6972 21.5156 14.6972 21.061C14.6972 20.6822 15.076 20.3035 15.4548 20.3035H19.8487C20.2275 20.3035 20.6063 20.6822 20.6063 21.061C20.6063 21.5156 20.2275 21.8186 19.8487 21.8186H18.4093V31.8944H23.2578C23.7881 29.8489 24.8487 27.6519 26.1366 26.7429C27.879 25.455 29.3184 23.8641 30.3033 21.9701C28.7124 21.6671 27.4245 20.455 26.9699 18.9398Z" fill="#66170E"/>
<path d="M45.9851 15.6814C44.8488 14.545 43.1063 14.545 41.97 15.6814C41.5912 16.0602 41.3639 16.5147 41.2124 16.9693H33.7124C33.6366 16.742 33.5609 16.5147 33.4094 16.2875L38.0306 10.2269C39.9245 11.1359 42.1215 9.77231 42.1215 7.72686C42.1215 6.13595 40.8336 4.92383 39.3185 4.92383C37.7275 4.92383 36.5154 6.21171 36.5154 7.72686C36.5154 8.25716 36.6669 8.78746 36.97 9.24201L32.3488 15.3026C31.97 15.0753 31.5154 14.9996 31.0609 14.9238C30.0003 14.9238 29.0912 15.4541 28.6366 16.2875L20.3791 13.7875C20.3791 13.3329 20.3033 12.8026 20.076 12.4238C18.8639 10.2269 15.6063 10.5299 14.9245 12.9541C14.0154 16.0602 18.2578 18.0299 20.0003 15.3026L28.3336 17.8026C28.4094 19.8481 30.5306 21.2117 32.4245 20.3026L37.0457 26.2875C36.8185 26.6663 36.6669 27.1966 36.6669 27.6511C36.6669 31.3632 42.273 31.3632 42.273 27.6511C42.273 26.136 40.9851 24.8481 39.47 24.8481C39.0154 24.8481 38.4851 24.9996 38.1063 25.2269L33.5609 19.242C33.7124 19.0147 33.7882 18.7875 33.8639 18.4844H41.3639C41.5154 18.939 41.7427 19.3178 42.0457 19.6208C43.1063 20.7572 44.9245 20.7572 46.0609 19.6208C47.1215 18.5602 47.1215 16.8178 45.9851 15.6814Z" fill="#66170E"/>
<path d="M9.31836 39.5463C9.31836 40.0008 9.62139 40.3039 10.0759 40.3039H25.0759C25.5305 40.3039 25.8335 40.0008 25.8335 39.5463V37.6523H9.31836V39.5463Z" fill="#66170E"/>
<path d="M25.0759 33.4102H10.0759C9.62139 33.4102 9.31836 33.7132 9.31836 34.1677V36.0617H25.8335V34.1677C25.8335 33.7889 25.4547 33.4102 25.0759 33.4102Z" fill="#66170E"/>
</svg>
