<svg width="50" height="50" viewBox="0 0 50 50" fill="none" xmlns="http://www.w3.org/2000/svg">
<g clip-path="url(#clip0_163_18)">
<path d="M16.6992 40.7227C16.6992 42.6104 18.2295 44.1406 20.1172 44.1406H29.8828C31.7705 44.1406 33.3008 42.6104 33.3008 40.7227V39.0625H16.6992V40.7227Z" fill="#66170E"/>
<path d="M22.5586 50H27.4414C29.0594 50 30.3711 48.6884 30.3711 47.0703H19.6289C19.6289 48.6884 20.9405 50 22.5586 50Z" fill="#66170E"/>
<path d="M48.5352 15.625H45.6055C44.7965 15.625 44.1406 16.2809 44.1406 17.0898C44.1406 17.8988 44.7965 18.5547 45.6055 18.5547H48.5352C49.3441 18.5547 50 17.8988 50 17.0898C50 16.2809 49.3441 15.625 48.5352 15.625Z" fill="#66170E"/>
<path d="M43.3606 9.52169C43.765 10.2223 44.6609 10.4623 45.3615 10.0578L47.8987 8.59298C48.5993 8.18848 48.8394 7.29259 48.4349 6.592C48.0304 5.89141 47.1345 5.65137 46.4339 6.05587L43.8967 7.52071C43.1961 7.9252 42.9561 8.8211 43.3606 9.52169Z" fill="#66170E"/>
<path d="M47.8987 25.5871L45.3615 24.1223C44.6609 23.7178 43.765 23.9578 43.3606 24.6584C42.9561 25.359 43.1961 26.2549 43.8967 26.6594L46.4339 28.1242C47.1345 28.5287 48.0304 28.2887 48.4349 27.5881C48.8394 26.8875 48.5993 25.9916 47.8987 25.5871Z" fill="#66170E"/>
<path d="M4.39453 18.5547C5.20352 18.5547 5.85938 17.8988 5.85938 17.0898C5.85938 16.2809 5.20352 15.625 4.39453 15.625H1.46484C0.655859 15.625 0 16.2809 0 17.0898C0 17.8988 0.655859 18.5547 1.46484 18.5547H4.39453Z" fill="#66170E"/>
<path d="M6.10333 7.52071L3.56612 6.05587C2.86553 5.65137 1.96964 5.89141 1.56514 6.592C1.16065 7.29259 1.40069 8.18848 2.10128 8.59298L4.63848 10.0578C5.33907 10.4623 6.23497 10.2223 6.63946 9.52169C7.04395 8.8211 6.80391 7.9252 6.10333 7.52071Z" fill="#66170E"/>
<path d="M4.63848 24.1223L2.10128 25.5871C1.40069 25.9916 1.16065 26.8875 1.56514 27.5881C1.96964 28.2887 2.86553 28.5287 3.56612 28.1242L6.10333 26.6594C6.80391 26.2549 7.04395 25.359 6.63946 24.6584C6.23497 23.9578 5.33907 23.7178 4.63848 24.1223Z" fill="#66170E"/>
<path d="M25 8.78906C20.4229 8.78906 16.6992 12.5128 16.6992 17.0898C16.6992 21.6669 20.4229 25.3906 25 25.3906C29.5771 25.3906 33.3008 21.6669 33.3008 17.0898C33.3008 12.5128 29.5771 8.78906 25 8.78906ZM28.5833 20.8347C28.4396 21.0061 28.2831 21.1674 28.1183 21.3143C27.2759 22.0645 26.1977 22.4609 25 22.4609C22.0384 22.4609 19.6289 20.0515 19.6289 17.0898C19.6289 14.1282 22.0384 11.7188 25 11.7188C26.0762 11.7188 27.1149 12.0362 28.0041 12.6369C28.6744 13.0898 28.8507 14.0004 28.3979 14.6708C27.9449 15.341 27.0344 15.5174 26.364 15.0646C25.961 14.7923 25.4895 14.6484 25 14.6484C23.6538 14.6484 22.5586 15.7437 22.5586 17.0898C22.5586 18.436 23.6538 19.5312 25 19.5312C25.4812 19.5312 25.8639 19.3989 26.1696 19.1266C26.2287 19.0738 26.2856 19.0151 26.3385 18.9521C26.8583 18.3321 27.7823 18.2511 28.4021 18.771C29.0221 19.2908 29.1031 20.2147 28.5833 20.8347Z" fill="#66170E"/>
<path d="M25 0C15.5767 0 7.91016 7.6665 7.91016 17.0898C7.91016 21.9722 10.0101 26.6313 13.6715 29.8724C15.4741 31.4682 16.5564 33.7278 16.686 36.1328H33.314C33.4436 33.7278 34.5259 31.4682 36.3285 29.8724C39.9899 26.6313 42.0898 21.9722 42.0898 17.0898C42.0898 7.6665 34.4233 0 25 0ZM25 28.3203C18.8075 28.3203 13.7695 23.2823 13.7695 17.0898C13.7695 10.8974 18.8075 5.85938 25 5.85938C31.1925 5.85938 36.2305 10.8974 36.2305 17.0898C36.2305 23.2823 31.1925 28.3203 25 28.3203Z" fill="#66170E"/>
</g>
<defs>
<clipPath id="clip0_163_18">
<rect width="50" height="50" fill="white"/>
</clipPath>
</defs>
</svg>
