<svg width="50" height="50" viewBox="0 0 50 50" fill="none" xmlns="http://www.w3.org/2000/svg">
<path fill-rule="evenodd" clip-rule="evenodd" d="M5.04961 41.1284C5.84951 41.1284 6.49775 41.7762 6.49775 42.5768C6.49775 43.3762 5.84961 44.0247 5.04961 44.0247C4.24961 44.0247 3.60147 43.3761 3.60147 42.5768C3.60147 41.7762 4.24961 41.1284 5.04961 41.1284ZM13.0129 32.0742L8.98213 45.3215C8.64551 46.4197 7.48477 47.0393 6.38535 46.7075L0.609863 44.9502L5.24629 29.7114L13.0129 32.0742ZM28.2892 15.6385C27.9718 15.3207 27.9718 14.8058 28.2892 14.489C28.6065 14.1715 29.1215 14.1715 29.4389 14.489L30.8167 15.8666L35.2068 9.68137C35.4662 9.31614 35.9724 9.23088 36.3374 9.49045C36.7021 9.75002 36.7872 10.2563 36.5277 10.6211L31.6181 17.5391C31.5847 17.5944 31.5438 17.6474 31.4957 17.6953C31.1784 18.0129 30.6636 18.0129 30.3461 17.6953L28.2892 15.6385ZM37.4423 8.55911C36.1432 7.26018 34.3481 6.45608 32.3656 6.45608C30.3832 6.45608 28.5881 7.26018 27.2889 8.55911C25.9898 9.85862 25.1862 11.6531 25.1862 13.6355C25.1862 15.6188 25.9898 17.4134 27.2889 18.7125C28.5882 20.0118 30.3833 20.8149 32.3656 20.8149C34.3482 20.8149 36.1433 20.0117 37.4423 18.7125C38.7414 17.4133 39.5449 15.6187 39.5449 13.6355C39.5449 11.653 38.7414 9.85852 37.4423 8.55911ZM32.3656 4.8302C34.7972 4.8302 36.9986 5.81594 38.5919 7.40969C40.1854 9.00344 41.171 11.2041 41.171 13.6355C41.171 16.0669 40.1854 18.2686 38.5919 19.8622C36.9986 21.456 34.7972 22.4409 32.3656 22.4409C29.9341 22.4409 27.7329 21.456 26.1393 19.8622C24.5461 18.2687 23.5602 16.067 23.5602 13.6355C23.5602 11.2042 24.5461 9.00344 26.1393 7.40969C27.7328 5.81594 29.9341 4.8302 32.3656 4.8302ZM30.3089 2.42678L31.0723 1.6635C31.7845 0.950708 32.9467 0.950708 33.659 1.6635L34.4223 2.42678C34.8973 2.90149 35.5402 3.07375 36.189 2.89983L37.2316 2.62043C38.2049 2.35969 39.2111 2.94124 39.4718 3.9137L39.7512 4.95666C39.925 5.605 40.3959 6.07668 41.0446 6.25012L42.0874 6.52961C43.0604 6.79026 43.6416 7.79661 43.3809 8.77024L43.1013 9.81204C42.9274 10.4614 43.0998 11.1039 43.5748 11.5796L44.338 12.3419C45.0505 13.0551 45.0505 14.2169 44.338 14.9289L43.5748 15.6923C43.0998 16.1681 42.9274 16.8105 43.1013 17.46L43.3809 18.5018C43.6415 19.4753 43.0605 20.4816 42.0874 20.7422L41.0446 21.0219C40.3959 21.1955 39.9251 21.6662 39.7512 22.3152L39.4718 23.3582C39.2111 24.3308 38.2045 24.9121 37.2316 24.6506L36.189 24.3719C35.5401 24.1976 34.8972 24.3703 34.4223 24.8449L33.659 25.6083C32.9467 26.3204 31.7845 26.3204 31.0723 25.6083L30.3089 24.8449C29.834 24.3704 29.1908 24.1976 28.542 24.3719L27.4996 24.6506C26.5264 24.9121 25.52 24.3308 25.2594 23.3582L24.9799 22.3152C24.8062 21.6661 24.3354 21.1955 23.6865 21.0219L22.6438 20.7422C21.6706 20.4816 21.0896 19.4752 21.3504 18.5018L21.6297 17.4588C21.8036 16.8105 21.6312 16.1681 21.1563 15.6923L20.3931 14.9289C19.6808 14.2169 19.6808 13.0551 20.3931 12.3419L21.1563 11.5796C21.6314 11.104 21.8036 10.4615 21.6297 9.81204L21.3504 8.77024C21.0895 7.79651 21.6706 6.79026 22.6438 6.52961L23.6865 6.25012C24.3354 6.07668 24.8062 5.605 24.9799 4.95666L25.2594 3.9137C25.52 2.94124 26.5264 2.35969 27.4996 2.62043L28.542 2.89983C29.1909 3.07375 29.834 2.90149 30.3089 2.42678ZM37.0503 26.2766V33.6058L32.2751 30.7053L27.4996 33.6058V26.3065C27.6398 26.2873 27.7804 26.2593 27.9206 26.2214L28.963 25.9425C29.0498 25.9185 29.0957 25.9311 29.1593 25.9946L29.9226 26.7578C31.2694 28.1052 33.4619 28.1052 34.8087 26.7578L35.5721 25.9946C35.6357 25.9311 35.6814 25.9185 35.7683 25.9425L36.8109 26.2214C36.8907 26.2429 36.9704 26.2608 37.0503 26.2766ZM10.9447 44.4582H15.0899L30.5642 48.6934C31.9933 49.0845 33.385 48.8298 34.5823 47.9573L48.9395 37.4938C50.4597 35.3129 47.8273 32.6029 45.6035 34.059L37.7246 37.6664C38.1295 38.2355 38.3682 38.9311 38.3682 39.6803C38.3682 40.6397 37.976 41.5121 37.3447 42.1431C36.7134 42.7743 35.8412 43.167 34.8816 43.167H23.8191C23.3702 43.167 23.0062 42.8024 23.0062 42.354C23.0062 41.9051 23.3703 41.5411 23.8191 41.5411H34.8816C35.3923 41.5411 35.8575 41.3311 36.195 40.9937C36.5324 40.6562 36.7423 40.1907 36.7423 39.6804C36.7423 38.4019 35.4047 37.5185 34.246 37.5185H30.2668C28.7054 37.5185 27.3621 36.8312 26.448 35.5659C25.4881 34.2362 24.0945 33.2493 22.473 32.7996C20.1333 32.1509 17.6237 32.706 15.7758 34.2808H14.0409L10.9447 44.4582Z" fill="#013C1D"/>
</svg>
