<svg width="50" height="50" viewBox="0 0 50 50" fill="none" xmlns="http://www.w3.org/2000/svg">
<g clip-path="url(#clip0_163_3)">
<path fill-rule="evenodd" clip-rule="evenodd" d="M42.9925 9.09963C43.5415 9.09963 43.9893 9.54739 43.9893 10.0964C43.9893 10.6454 43.5415 11.0937 42.9925 11.0937C42.4435 11.0937 41.9952 10.6459 41.9952 10.0964C41.9952 9.5469 42.4426 9.09963 42.9925 9.09963ZM44.672 8.48801C44.8716 8.48801 45.0717 8.41174 45.2238 8.2592C45.5299 7.95413 45.5299 7.4592 45.2238 7.15461C43.9936 5.92385 41.9915 5.92385 40.7598 7.15461C40.4556 7.4593 40.4556 7.95413 40.7598 8.2592C41.0658 8.56428 41.5597 8.56428 41.8658 8.2592C42.4868 7.63772 43.4982 7.63772 44.1192 8.2592C44.2718 8.41174 44.4719 8.48801 44.672 8.48801ZM42.9925 3.28049C41.3615 3.28049 39.8284 3.91565 38.6749 5.06877C38.3693 5.37385 38.3693 5.86868 38.6749 6.17385C38.98 6.47893 39.4749 6.47893 39.7795 6.17385C40.6378 5.31555 41.7786 4.8428 42.9925 4.8428C44.2063 4.8428 45.3472 5.31555 46.2055 6.17385C46.3575 6.32639 46.5567 6.40266 46.7573 6.40266C46.9579 6.40266 47.1575 6.32639 47.3096 6.17385C47.6146 5.86877 47.6146 5.37385 47.3096 5.06877C46.1564 3.91565 44.6234 3.28049 42.9925 3.28049ZM49.4241 2.95471C45.8772 -0.591675 40.1066 -0.591675 36.5607 2.95471C36.2552 3.25979 36.2552 3.75471 36.5607 4.05979C36.7133 4.21233 36.9134 4.2886 37.1126 4.2886C37.3118 4.2886 37.5128 4.21233 37.6653 4.05979C40.6029 1.12219 45.3819 1.12219 48.3186 4.05979C48.6241 4.36487 49.1186 4.36487 49.4241 4.05979C49.7287 3.75471 49.7287 3.25979 49.4241 2.95471ZM10.8783 32.7595L5.9124 37.7254C6.16328 38.1619 6.30762 38.6672 6.30762 39.206C6.30762 40.8483 4.9709 42.185 3.32812 42.185C1.68535 42.185 0.347656 40.8483 0.347656 39.206C0.347656 37.5637 1.68437 36.2256 3.32812 36.2256C3.86641 36.2256 4.37139 36.3698 4.80771 36.6207L9.72256 31.7059C9.87344 31.8544 10.0268 32.0011 10.1827 32.1453C10.4104 32.3559 10.6425 32.5606 10.8783 32.7595ZM4.74492 39.2059C4.74492 38.4234 4.10928 37.7877 3.32822 37.7877C2.54717 37.7877 1.91006 38.4234 1.91006 39.2059C1.91006 39.9884 2.54619 40.6227 3.32822 40.6227C4.11025 40.6227 4.74492 39.987 4.74492 39.2059ZM34.0774 4.997L29.2096 2.18655V16.6814C30.8331 16.7567 32.4567 16.866 34.0774 17.0093V4.997ZM39.1959 7.38333H35.2352V17.1174C36.5582 17.2477 37.879 17.4006 39.1959 17.576V7.38333ZM28.0519 7.66008L23.9681 10.0178V16.5573C25.3277 16.5584 26.6896 16.5839 28.052 16.6333V7.65999L28.0519 7.66008ZM22.8104 11.5002H19.7171V16.6322C20.7487 16.5949 21.78 16.5716 22.8104 16.5621V11.5002ZM11.9418 7.94036L8.53672 9.90627V17.576C9.66924 17.4252 10.8046 17.2909 11.9418 17.1735V7.94036ZM18.5594 16.6796C16.7381 16.7635 14.9168 16.8903 13.0995 17.0597V1.17385H18.5594V16.6797V16.6796ZM16.7865 11.2314H14.8723V12.6427H16.7865V11.2314ZM16.7865 8.46086H14.8723V9.87219H16.7865V8.46086ZM16.7865 5.69026H14.8723V7.10149H16.7865V5.69026ZM16.7865 2.91965H14.8723V4.33098H16.7865V2.91965ZM28.5925 35.3172C31.2111 34.6192 33.6188 33.3572 35.6675 31.6672C34.6906 30.8641 33.6416 30.168 32.5372 29.5855C31.4955 32.0177 30.1472 33.9883 28.5925 35.3172ZM24.6474 27.4594V35.5896C27.2349 35.164 29.5471 32.6478 31.1237 28.9149C29.0853 28.0509 26.895 27.5533 24.6474 27.4595V27.4594ZM23.0852 27.4594C20.8375 27.5533 18.6471 28.0508 16.6087 28.9149C18.1855 32.6476 20.4978 35.164 23.0852 35.5896V27.4594ZM15.1949 29.5857C14.0907 30.1682 13.0418 30.8642 12.0651 31.6671C14.1137 33.3568 16.5213 34.6189 19.1397 35.3169C17.5852 33.9879 16.2365 32.0177 15.1949 29.5856V29.5857ZM24.6475 25.8957C27.0877 25.9899 29.467 26.5226 31.6819 27.4541C32.5764 24.8547 33.1394 21.7935 33.2477 18.5067C30.3833 18.2708 27.5112 18.1424 24.6475 18.1226V25.8957ZM12.9264 18.6457C10.4083 18.8875 7.89834 19.2122 5.40762 19.619C5.93457 23.9071 7.9457 27.7403 10.8893 30.6121C12.0462 29.638 13.2996 28.8044 14.6248 28.1204C13.654 25.3687 13.0482 22.1402 12.9264 18.6456V18.6457ZM42.3252 19.619C39.8344 19.2121 37.3244 18.8875 34.8062 18.6457C34.684 22.1404 34.0779 25.3688 33.1073 28.1205C34.4326 28.8044 35.6862 29.638 36.8435 30.6122C39.7868 27.7401 41.7982 23.9071 42.3252 19.619ZM16.0505 27.4539C18.2653 26.5225 20.6446 25.9899 23.0853 25.8957V18.1226C20.2212 18.1423 17.3488 18.2708 14.4843 18.5068C14.5928 21.7934 15.156 24.8545 16.0505 27.4539ZM26.8505 46.72C26.8505 48.3656 25.5119 49.7047 23.8663 49.7047C22.2207 49.7047 20.8821 48.3656 20.8821 46.72C20.8821 45.3451 21.8174 44.1847 23.0851 43.8404V37.4844C23.3448 37.4944 23.6053 37.4996 23.8663 37.4996C24.1273 37.4996 24.3878 37.4944 24.6475 37.4844V43.8404C25.9151 44.1847 26.8505 45.3451 26.8505 46.72ZM25.2882 46.72C25.2882 45.9361 24.6502 45.2986 23.8663 45.2986C23.0824 45.2986 22.4443 45.9361 22.4443 46.72C22.4443 47.504 23.0823 48.142 23.8663 48.142C24.6503 48.142 25.2882 47.5045 25.2882 46.72ZM47.3475 39.2059C47.3475 40.828 46.0272 42.1482 44.4043 42.1482C42.7813 42.1482 41.462 40.828 41.462 39.2059C41.462 38.6775 41.6026 38.1816 41.8473 37.7525L36.8538 32.7591C37.0896 32.5603 37.3214 32.3557 37.5489 32.1453C37.7052 32.0009 37.8586 31.8541 38.0096 31.7055L42.9518 36.6477C43.3807 36.403 43.8763 36.2623 44.4043 36.2623C46.0272 36.2623 47.3475 37.5825 47.3475 39.206V39.2059ZM45.7853 39.2059C45.7853 38.4441 45.1661 37.8249 44.4043 37.8249C43.6425 37.8249 43.0243 38.4441 43.0243 39.2059C43.0243 39.9677 43.6435 40.5855 44.4043 40.5855C45.1651 40.5855 45.7853 39.9663 45.7853 39.2059Z" fill="#66170E"/>
</g>
<defs>
<clipPath id="clip0_163_3">
<rect width="50" height="50" fill="white"/>
</clipPath>
</defs>
</svg>
