<svg width="50" height="50" viewBox="0 0 50 50" fill="none" xmlns="http://www.w3.org/2000/svg">
<path d="M35.3332 27.9792L31.1144 25.6875L26.0415 46.875H37.4998V31.6354C37.5 30.8876 37.2989 30.1536 36.9177 29.5103C36.5365 28.867 35.9892 28.3381 35.3332 27.9792Z" fill="#66170E"/>
<path d="M18.7502 9.37435C18.7502 8.34424 18.4447 7.33726 17.8724 6.48076C17.3001 5.62425 16.4867 4.95669 15.535 4.56248C14.5833 4.16827 13.5361 4.06513 12.5257 4.26609C11.5154 4.46706 10.5874 4.96311 9.85898 5.6915C9.13059 6.4199 8.63454 7.34794 8.43358 8.35826C8.23261 9.36857 8.33575 10.4158 8.72996 11.3675C9.12417 12.3192 9.79173 13.1326 10.6482 13.7049C11.5047 14.2772 12.5117 14.5827 13.5418 14.5827C14.6445 14.5715 15.7145 14.2063 16.5939 13.541C17.0677 12.5709 17.7056 11.6899 18.4793 10.9369C18.6539 10.4342 18.7454 9.90644 18.7502 9.37435Z" fill="#66170E"/>
<path d="M25.0002 24.9993C29.0272 24.9993 32.2918 21.7348 32.2918 17.7077C32.2918 13.6806 29.0272 10.416 25.0002 10.416C20.9731 10.416 17.7085 13.6806 17.7085 17.7077C17.7085 21.7348 20.9731 24.9993 25.0002 24.9993Z" fill="#66170E"/>
<path d="M41.6667 9.37435C41.6667 7.99301 41.1179 6.66825 40.1412 5.6915C39.1644 4.71475 37.8397 4.16602 36.4583 4.16602C35.077 4.16602 33.7522 4.71475 32.7755 5.6915C31.7987 6.66825 31.25 7.99301 31.25 9.37435C31.2502 9.92043 31.3417 10.4626 31.5208 10.9785C32.2907 11.719 32.9284 12.5857 33.4062 13.541C34.2857 14.2063 35.3556 14.5715 36.4583 14.5827C37.1423 14.5827 37.8196 14.448 38.4515 14.1862C39.0834 13.9245 39.6575 13.5408 40.1412 13.0572C40.6248 12.5736 41.0085 11.9994 41.2702 11.3675C41.5319 10.7356 41.6667 10.0583 41.6667 9.37435Z" fill="#66170E"/>
<path d="M15.6251 17.707C15.6261 17.2429 15.6645 16.7796 15.7397 16.3216C15.0285 16.5464 14.2875 16.6623 13.5417 16.6654C12.0525 16.667 10.5984 16.2126 9.37507 15.3633L5.8334 16.6654C5.03423 16.9639 4.34596 17.5007 3.86161 18.203C3.37726 18.9053 3.12017 19.7393 3.12507 20.5924V35.4154H10.4167V31.6341C10.4184 30.5123 10.722 29.4116 11.2957 28.4475C11.8694 27.4834 12.692 26.6916 13.6772 26.1549L17.9167 23.832C16.4424 22.1316 15.629 19.9576 15.6251 17.707Z" fill="#66170E"/>
<path d="M44.1668 16.6654L40.6252 15.3633C39.4018 16.2126 37.9478 16.667 36.4585 16.6654C35.7127 16.6623 34.9717 16.5464 34.2606 16.3216C34.3358 16.7796 34.3741 17.2429 34.3752 17.707C34.3712 19.9576 33.5578 22.1316 32.0835 23.832L36.3231 26.1549C37.3083 26.6916 38.1308 27.4834 38.7045 28.4475C39.2782 29.4116 39.5818 30.5123 39.5835 31.6341V35.4154H46.8752V20.5924C46.8801 19.7393 46.623 18.9053 46.1386 18.203C45.6543 17.5007 44.966 16.9639 44.1668 16.6654Z" fill="#66170E"/>
<path d="M26.0418 29.1667V38L25.0002 42.375L23.9585 38V29.1667C23.9585 28.8904 24.0682 28.6254 24.2636 28.4301C24.4589 28.2347 24.7239 28.125 25.0002 28.125C25.2764 28.125 25.5414 28.2347 25.7367 28.4301C25.9321 28.6254 26.0418 28.8904 26.0418 29.1667Z" fill="#66170E"/>
<path d="M26.0418 29.1667V38L25.0002 42.375L23.9585 38V29.1667C23.9585 28.8904 24.0682 28.6254 24.2636 28.4301C24.4589 28.2347 24.7239 28.125 25.0002 28.125C25.2764 28.125 25.5414 28.2347 25.7367 28.4301C25.9321 28.6254 26.0418 28.8904 26.0418 29.1667Z" fill="#66170E"/>
<path d="M14.6667 27.9792C14.0107 28.3381 13.4633 28.867 13.0821 29.5103C12.7009 30.1536 12.4998 30.8876 12.5 31.6354V46.875H23.9583L18.8854 25.6875L14.6667 27.9792Z" fill="#66170E"/>
</svg>
