<svg width="50" height="50" viewBox="0 0 50 50" fill="none" xmlns="http://www.w3.org/2000/svg">
<path d="M42.1875 14.1139L35.6064 16.9338C35.2165 17.1016 34.8015 17.1871 34.375 17.1871C33.9485 17.1871 33.5335 17.1016 33.1421 16.933L26.5625 14.1133V17.1871C26.5625 17.7791 26.8967 18.32 27.4261 18.5848L33.6761 21.7098C33.8959 21.8196 34.1354 21.8746 34.375 21.8746C34.6146 21.8746 34.8541 21.8196 35.0739 21.7098L41.3239 18.5848C41.8533 18.32 42.1875 17.7791 42.1875 17.1871V14.1139Z" fill="#66170E"/>
<path d="M45.9282 7.93953L34.9907 3.25203C34.597 3.08266 34.153 3.08266 33.7593 3.25203L22.8218 7.93953C22.2473 8.1852 21.875 8.75053 21.875 9.37538C21.875 10.0002 22.2473 10.5656 22.8218 10.8112L33.7593 15.4987C33.9561 15.5834 34.1652 15.6254 34.375 15.6254C34.5848 15.6254 34.7939 15.5834 34.9907 15.4987L43.75 11.7448V20.3129C43.75 21.1758 44.4496 21.8754 45.3125 21.8754C46.1754 21.8754 46.875 21.1758 46.875 20.3129V9.37538C46.875 8.75053 46.5027 8.1852 45.9282 7.93953Z" fill="#66170E"/>
<path d="M46.2175 31.5376L43.27 28.5828C42.9776 28.2897 42.5811 28.125 42.1676 28.125H34.375V34.375H45.2852C45.2959 34.3735 45.3065 34.3742 45.3164 34.375C46.1771 34.375 46.875 33.6754 46.875 32.8125C46.875 32.2861 46.6155 31.8207 46.2175 31.5376Z" fill="#66170E"/>
<path d="M3.78253 31.5376L6.73002 28.5828C7.02239 28.2897 7.41893 28.125 7.8324 28.125H15.625V34.375H4.7148C4.70415 34.3735 4.69349 34.3742 4.6836 34.375C3.82287 34.375 3.125 33.6754 3.125 32.8125C3.125 32.2861 3.38451 31.8207 3.78253 31.5376Z" fill="#66170E"/>
<path d="M32.4704 25.5873L26.2199 19.3363C25.5945 18.5546 24.4055 18.5546 23.7801 19.3363L17.5296 25.5873C17.3081 25.8641 17.1875 26.208 17.1875 26.5625V46.8746H21.875V42.1871C21.875 40.4612 23.2741 39.0621 25 39.0621C26.7259 39.0621 28.125 40.4612 28.125 42.1871V46.8746H32.8125V26.5625C32.8125 26.208 32.6919 25.8641 32.4704 25.5873ZM23.4375 37.4996H20.3125V34.3746H23.4375V37.4996ZM23.4375 32.8121H20.3125V29.6871H23.4375V32.8121ZM29.6875 37.4996H26.5625V34.3746H29.6875V37.4996ZM29.6875 32.8121H26.5625V29.6871H29.6875V32.8121Z" fill="#66170E"/>
<path d="M4.65625 35.9375V46.875H15.5938V35.9375H4.65625ZM9.34375 45.3125H6.21875V42.1875H9.34375V45.3125ZM9.34375 40.625H6.21875V37.5H9.34375V40.625ZM14.0312 45.3125H10.9062V42.1875H14.0312V45.3125ZM14.0312 40.625H10.9062V37.5H14.0312V40.625Z" fill="#66170E"/>
<path d="M34.3438 35.9375V46.875H45.2812V35.9375H34.3438ZM39.0312 45.3125H35.9062V42.1875H39.0312V45.3125ZM39.0312 40.625H35.9062V37.5H39.0312V40.625ZM43.7188 45.3125H40.5938V42.1875H43.7188V45.3125ZM43.7188 40.625H40.5938V37.5H43.7188V40.625Z" fill="#66170E"/>
</svg>
