<svg width="50" height="50" viewBox="0 0 50 50" fill="none" xmlns="http://www.w3.org/2000/svg">
<path fill-rule="evenodd" clip-rule="evenodd" d="M33.3568 34.6541H26.172C25.423 34.6541 24.8084 35.2688 24.8084 36.0177V38.4356C24.8084 39.1845 25.423 39.7992 26.172 39.7992H33.3568V34.6541ZM30.3139 26.7783H30.6246C32.0713 26.7783 33.3568 27.8521 33.3568 29.2769V33.5803H26.172C24.8304 33.5803 23.7346 34.6761 23.7346 36.0177V38.4356C23.7346 39.7772 24.8304 40.873 26.172 40.873H33.3568V44.8726C33.3568 46.2974 32.0713 47.3711 30.6246 47.3711H6.1458C4.69912 47.3711 3.41357 46.2973 3.41357 44.8726V26.1536C3.90527 26.5366 4.56709 26.7782 5.39805 26.7782H30.3138L30.3139 26.7783ZM28.1326 36.7602C28.3901 37.0177 28.3901 37.4358 28.1326 37.6933C27.7186 38.1074 27.0063 37.8133 27.0063 37.2267C27.0063 36.6401 27.7186 36.346 28.1326 36.7601V36.7602ZM27.666 35.4932C29.205 35.4932 29.9815 37.3628 28.8918 38.4526C27.8021 39.5422 25.9324 38.7658 25.9324 37.2268C25.9324 36.2695 26.7088 35.4932 27.666 35.4932ZM16.0328 16.3438C16.0328 16.0473 16.2732 15.8069 16.5697 15.8069C16.8662 15.8069 17.1066 16.0473 17.1066 16.3438V16.851C18.0581 17.0486 18.8493 17.7558 18.8493 18.9189C18.8493 19.2155 18.6089 19.4558 18.3124 19.4558C18.0159 19.4558 17.7755 19.2154 17.7755 18.9189C17.7755 17.5155 15.364 17.5155 15.364 18.9189C15.364 20.722 18.8493 19.1744 18.8493 22.1245C18.8493 23.2876 18.0581 23.995 17.1066 24.1924V24.6996C17.1066 24.9962 16.8663 25.2366 16.5697 25.2366C16.2731 25.2366 16.0328 24.9961 16.0328 24.6996V24.1924C15.0813 23.9949 14.2901 23.2876 14.2901 22.1245C14.2901 21.8281 14.5306 21.5876 14.8271 21.5876C15.1235 21.5876 15.364 21.8281 15.364 22.1245C15.364 23.5281 17.7755 23.5281 17.7755 22.1245C17.7755 20.3078 14.2901 21.8608 14.2901 18.9189C14.2901 17.7558 15.0813 17.0486 16.0328 16.851V16.3438ZM20.2158 25.7045C21.0234 25.1352 21.6918 24.3828 22.1599 23.5085C23.4662 21.0684 23.0278 18.0213 21.049 16.0425C18.5753 13.5688 14.5643 13.5689 12.0905 16.0425C10.9442 17.1888 10.2353 18.7725 10.2353 20.5217C10.2353 21.5688 10.4892 22.5923 10.9797 23.5085C11.4478 24.3829 12.1161 25.1352 12.9237 25.7045H20.2158ZM23.7816 22.2195H28.7721C29.2899 22.2195 29.777 22.5741 29.777 23.0757V25.7045H21.8608C22.8025 24.7429 23.471 23.5388 23.7816 22.2195ZM11.2788 25.7045H5.39805C4.44072 25.7045 3.83682 25.2535 3.58008 24.6762C3.10723 23.613 3.73789 22.2195 5.39805 22.2195H9.35791C9.66855 23.5387 10.3371 24.7429 11.2788 25.7045ZM27.0986 4.78021C27.0986 4.48373 27.3391 4.2433 27.6355 4.2433C27.932 4.2433 28.1725 4.48373 28.1725 4.78021V5.28558C29.1223 5.48314 29.9117 6.1892 29.9117 7.35023C29.9117 7.64672 29.6713 7.88715 29.3748 7.88715C29.0783 7.88715 28.8379 7.64672 28.8379 7.35023C28.8379 5.95092 26.4333 5.95092 26.4333 7.35023C26.4333 9.14838 29.9118 7.60433 29.9118 10.5495C29.9118 11.7106 29.1224 12.4166 28.1726 12.6142V13.1196C28.1726 13.4161 27.9321 13.6565 27.6356 13.6565C27.3392 13.6565 27.0987 13.4161 27.0987 13.1196V12.6142C26.1489 12.4166 25.3595 11.7106 25.3595 10.5495C25.3595 10.2531 25.5999 10.0126 25.8964 10.0126C26.1929 10.0126 26.4333 10.2531 26.4333 10.5495C26.4333 11.9488 28.8379 11.9489 28.8379 10.5495C28.8379 8.73754 25.3595 10.2871 25.3595 7.35023C25.3595 6.1892 26.1488 5.48314 27.0987 5.28558V4.78021H27.0986ZM32.1053 4.48021C34.5737 6.94867 34.5737 10.9512 32.1053 13.4196C29.6369 15.888 25.6343 15.888 23.1659 13.4196C20.6976 10.9511 20.6976 6.94857 23.1659 4.48021C25.6344 2.01185 29.6368 2.01176 32.1053 4.48021ZM37.1142 22.937V21.6866H37.116C37.1158 21.3987 37.3445 21.1608 37.6343 21.1517C41.4105 21.0317 44.884 23.1028 46.5807 26.4144C46.7495 21.4991 42.8354 17.4809 37.9673 17.4809L37.651 17.4863C37.3545 17.4863 37.1141 17.2458 37.1141 16.9494V15.6605L32.6164 19.2988L37.1141 22.937H37.1142Z" fill="#66170E"/>
</svg>
