<svg width="50" height="50" viewBox="0 0 50 50" fill="none" xmlns="http://www.w3.org/2000/svg">
<path d="M3.375 39L4.96875 43.1719C5.07731 43.4525 5.26823 43.6937 5.51643 43.8638C5.76462 44.0339 6.05848 44.125 6.35938 44.125C6.66027 44.125 6.95413 44.0339 7.20232 43.8638C7.45052 43.6937 7.64144 43.4525 7.75 43.1719L9.34375 39H3.375Z" fill="#66170E"/>
<path d="M32.9297 8.86719H15.3906C14.3547 8.86757 13.3614 9.27924 12.6289 10.0117C11.8964 10.7442 11.4848 11.7376 11.4844 12.7734V41.1719C11.4861 42.2074 11.8982 43.1999 12.6304 43.9321C13.3626 44.6643 14.3551 45.0764 15.3906 45.0781H32.9297C33.9652 45.0764 34.9577 44.6643 35.6899 43.9321C36.4221 43.1999 36.8342 42.2074 36.8359 41.1719V12.7734C36.8355 11.7376 36.4239 10.7442 35.6914 10.0117C34.9589 9.27925 33.9656 8.86758 32.9297 8.86719ZM20.7578 18.4923C20.2298 17.7716 19.9451 16.9013 19.9453 16.0078C20.1168 10.4485 28.1965 10.4366 28.3672 16.0079C28.3664 16.9 28.0849 17.7691 27.5625 18.4922C28.5492 19.0041 29.4092 19.7298 30.0796 20.6165C30.75 21.5031 31.2139 22.5283 31.4375 23.6172C31.497 23.8929 31.4931 24.1785 31.4263 24.4525C31.3594 24.7265 31.2313 24.9817 31.0516 25.1991C30.8718 25.4164 30.6451 25.5901 30.3886 25.7072C30.132 25.8243 29.8522 25.8817 29.5703 25.875H18.75C14.4555 25.2324 18.4292 19.3574 20.7578 18.4923ZM16.1172 27.8516H32.2031C32.4078 27.8554 32.6028 27.9393 32.7463 28.0854C32.8897 28.2315 32.9701 28.4281 32.9701 28.6329C32.9701 28.8376 32.8897 29.0342 32.7463 29.1803C32.6028 29.3264 32.4078 29.4103 32.2031 29.4141H16.1171C15.9124 29.4103 15.7174 29.3263 15.574 29.1802C15.4305 29.0341 15.3502 28.8376 15.3502 28.6328C15.3502 28.4281 15.4306 28.2315 15.574 28.0854C15.7175 27.9393 15.9125 27.8554 16.1172 27.8516ZM16.1172 31.8907H25.539C25.7462 31.8907 25.945 31.973 26.0915 32.1195C26.238 32.266 26.3203 32.4647 26.3203 32.6719C26.3203 32.8791 26.238 33.0778 26.0915 33.2243C25.945 33.3709 25.7462 33.4532 25.539 33.4532H16.1172C15.91 33.4532 15.7113 33.3709 15.5647 33.2243C15.4182 33.0778 15.3359 32.8791 15.3359 32.6719C15.3359 32.4647 15.4182 32.266 15.5647 32.1195C15.7113 31.973 15.91 31.8907 16.1172 31.8907ZM25.539 41.5391H16.1172C15.91 41.5391 15.7113 41.4568 15.5647 41.3103C15.4182 41.1638 15.3359 40.9651 15.3359 40.7579C15.3359 40.5507 15.4182 40.3519 15.5647 40.2054C15.7113 40.0589 15.91 39.9766 16.1172 39.9766H25.539C25.7462 39.9766 25.945 40.0589 26.0915 40.2054C26.238 40.3519 26.3203 40.5507 26.3203 40.7579C26.3203 40.9651 26.238 41.1638 26.0915 41.3103C25.945 41.4568 25.7462 41.5391 25.539 41.5391ZM32.2031 37.5H16.1172C15.9125 37.4963 15.7174 37.4123 15.574 37.2662C15.4306 37.1201 15.3502 36.9235 15.3502 36.7188C15.3502 36.514 15.4306 36.3175 15.574 36.1714C15.7175 36.0253 15.9125 35.9413 16.1172 35.9375H32.2031C32.4077 35.9415 32.6026 36.0255 32.7459 36.1716C32.8892 36.3177 32.9694 36.5141 32.9694 36.7188C32.9694 36.9234 32.8892 37.1199 32.7459 37.266C32.6026 37.412 32.4077 37.4961 32.2031 37.5Z" fill="#66170E"/>
<path d="M18.7501 24.3125H29.5704C29.6206 24.3202 29.6719 24.3151 29.7196 24.2978C29.7673 24.2804 29.8099 24.2513 29.8433 24.2132C29.8768 24.175 29.9002 24.1291 29.9112 24.0795C29.9222 24.03 29.9206 23.9784 29.9064 23.9297C29.712 22.9709 29.2806 22.076 28.6515 21.3268C28.0223 20.5776 27.2156 19.9979 26.3048 19.6406C25.6541 20.024 24.9116 20.2238 24.1564 20.2188C23.4027 20.2231 22.6622 20.0204 22.0158 19.6328C21.1037 19.9914 20.2957 20.5724 19.6653 21.3228C19.035 22.0733 18.6022 22.9694 18.4064 23.9297C18.3976 23.9752 18.3993 24.0221 18.4115 24.0668C18.4237 24.1115 18.446 24.1528 18.4767 24.1875C18.5098 24.2278 18.5516 24.26 18.599 24.2816C18.6463 24.3033 18.698 24.3138 18.7501 24.3125Z" fill="#66170E"/>
<path d="M44.0859 7.40685L25.6875 4.28185C24.8112 4.13605 23.9129 4.34366 23.1894 4.85916C22.466 5.37466 21.9764 6.15598 21.8281 7.03185L21.7812 7.30528H32.9297C34.3796 7.30688 35.7697 7.88356 36.7949 8.9088C37.8202 9.93405 38.3968 11.3241 38.3984 12.774V41.1725C38.3949 41.832 38.2732 42.4856 38.0391 43.1022C38.9131 43.2468 39.8089 43.0396 40.5306 42.5257C41.2523 42.0119 41.7413 41.2332 41.8906 40.36L46.8281 11.2662C46.9751 10.3909 46.769 9.49311 46.2549 8.76961C45.7409 8.04612 44.9608 7.55603 44.0859 7.40685Z" fill="#66170E"/>
<path d="M22.5858 18.1421C23.1043 18.5159 23.7404 18.6898 24.377 18.6321C25.0135 18.5744 25.6079 18.2888 26.0508 17.8279C26.4936 17.3669 26.7552 16.7616 26.7875 16.1233C26.8198 15.4849 26.6205 14.8563 26.2264 14.3531C23.6001 11.39 19.5117 15.6371 22.5858 18.1421Z" fill="#66170E"/>
<path d="M5.57813 37.4381V17.2585C5.03086 17.2382 3.68666 17.2731 3.125 17.2585V37.4382C3.6918 37.4114 5.02609 37.4574 5.57813 37.4381Z" fill="#66170E"/>
<path d="M6.97656 11.7969H5.74219C5.04808 11.7969 4.38241 12.0727 3.8916 12.5635C3.40079 13.0543 3.12504 13.72 3.125 14.4141V15.6953C4.12573 15.6954 9.59375 15.6953 9.59375 15.6953V14.4141C9.59371 13.72 9.31795 13.0543 8.82715 12.5635C8.33634 12.0727 7.67067 11.7969 6.97656 11.7969Z" fill="#66170E"/>
<path d="M7.14062 17.2588V37.4385C7.68789 37.4588 9.03209 37.4238 9.59375 37.4385V17.2588C9.02695 17.2855 7.69266 17.2395 7.14062 17.2588Z" fill="#66170E"/>
</svg>
