<svg width="50" height="50" viewBox="0 0 50 50" fill="none" xmlns="http://www.w3.org/2000/svg">
<path d="M39.0626 22.4935C39.0642 22.0471 38.9327 21.6102 38.6851 21.2387C38.4374 20.8672 38.0847 20.5779 37.672 20.4076C33.6313 18.8465 29.3317 18.0645 25.0001 18.1029C20.6685 18.0645 16.3689 18.8465 12.3282 20.4076C11.9155 20.5779 11.5628 20.8672 11.3152 21.2387C11.0675 21.6102 10.9361 22.0471 10.9376 22.4935V32.4467C10.9022 33.0708 11.3238 33.612 12.1173 34.056C12.2982 34.1518 12.5095 34.1728 12.7058 34.1145C12.902 34.0562 13.0676 33.9233 13.1668 33.7442C13.2661 33.5651 13.2911 33.3542 13.2366 33.1569C13.182 32.9596 13.0522 32.7915 12.8751 32.6888C12.7584 32.6276 12.6484 32.5542 12.5469 32.4701C13.2423 31.7514 17.6954 30.5951 25.0001 30.5951C32.3048 30.5951 36.7579 31.7514 37.4532 32.4701C37.3517 32.5543 37.2418 32.6276 37.1251 32.6888C36.9441 32.7897 36.8105 32.9581 36.7534 33.1572C36.6963 33.3563 36.7204 33.5699 36.8204 33.7513C37.5604 34.8972 39.2121 33.2243 39.0626 32.4623L39.0626 22.4935Z" fill="#66170E"/>
<path d="M45.1797 15.4473L27.2266 7.75197C26.5243 7.45043 25.7681 7.29492 25.0039 7.29492C24.2397 7.29492 23.4835 7.45043 22.7812 7.75197L4.82812 15.4473C4.33503 15.6572 3.91254 16.0041 3.61084 16.447C3.30913 16.8899 3.14088 17.4101 3.12607 17.9458C3.11126 18.4815 3.25052 19.0102 3.5273 19.469C3.80408 19.9279 4.20675 20.2977 4.68749 20.5345V31.9099C4.26768 32.0566 3.89859 32.3204 3.62374 32.67C3.34888 33.0196 3.17972 33.4405 3.1362 33.8831C3.09268 34.3257 3.17662 34.7715 3.37811 35.168C3.5796 35.5645 3.89025 35.8951 4.27343 36.1208L3.32812 40.8395C3.28187 41.0659 3.28662 41.2998 3.34202 41.5241C3.39743 41.7484 3.5021 41.9576 3.64843 42.1364C3.79595 42.3146 3.98095 42.4581 4.19025 42.5567C4.39955 42.6553 4.62801 42.7065 4.85937 42.7067H6.07812C6.30947 42.7065 6.53793 42.6553 6.74723 42.5567C6.95654 42.4581 7.14153 42.3146 7.28906 42.1364C7.43539 41.9576 7.54006 41.7484 7.59546 41.5241C7.65087 41.2998 7.65562 41.0659 7.60937 40.8395L6.66406 36.1208C7.04723 35.8951 7.35788 35.5645 7.55938 35.168C7.76087 34.7715 7.8448 34.3257 7.80128 33.8831C7.75776 33.4405 7.5886 33.0196 7.31375 32.67C7.03889 32.3204 6.6698 32.0566 6.24999 31.9099V21.2142L9.37499 22.5488V22.4942C9.37431 21.7391 9.5973 21.0008 10.0158 20.3723C10.4343 19.7438 11.0296 19.2534 11.7266 18.9629C15.9587 17.3259 20.4624 16.5042 25 16.541C29.5352 16.5029 34.0365 17.3247 38.2656 18.9629C38.9644 19.2517 39.5617 19.7414 39.9817 20.3701C40.4018 20.9988 40.6257 21.7381 40.625 22.4942V22.5567L45.1719 20.6035C45.6766 20.3879 46.1069 20.029 46.4097 19.5712C46.7124 19.1134 46.8742 18.5768 46.875 18.028C46.8758 17.4791 46.7157 16.9421 46.4143 16.4834C46.113 16.0247 45.6837 15.6644 45.1797 15.4473Z" fill="#66170E"/>
</svg>
