<svg width="50" height="50" viewBox="0 0 50 50" fill="none" xmlns="http://www.w3.org/2000/svg">
<path fill-rule="evenodd" clip-rule="evenodd" d="M48.4373 29.955V11.3997C48.4373 9.36785 46.7763 7.70408 44.7445 7.70408H17.7129C20.1489 9.68884 21.6964 12.7228 21.6686 16.1084C21.6354 20.6731 18.7593 24.5514 14.7315 26.0739L14.7122 28.4102L15.9606 28.4185L15.9496 29.9549H48.4373V29.955ZM11.0028 6.66052C16.1766 6.69929 20.3427 10.9236 20.304 16.1001C20.2652 21.2738 16.0382 25.4373 10.8644 25.3985C5.68787 25.3597 1.52449 21.1327 1.56326 15.9589C1.60203 10.7851 5.82908 6.62175 11.0028 6.66052ZM10.9835 9.2073C14.7511 9.23777 17.7822 12.3133 17.7545 16.0807C17.7268 19.8455 14.6485 22.8767 10.8838 22.849C7.11619 22.8214 4.08503 19.7459 4.11277 15.9783C4.14041 12.2107 7.21873 9.17957 10.9835 9.2073ZM7.33777 16.0005C7.33503 16.3769 7.03054 16.6787 6.65398 16.6787C6.27751 16.676 5.97302 16.3715 5.97576 15.995C5.98679 14.6248 6.5488 13.3874 7.45398 12.496C8.35642 11.6074 9.59939 11.0621 10.9669 11.0704C11.3433 11.0731 11.6478 11.3804 11.6451 11.7542C11.6451 12.1306 11.3379 12.4351 10.9613 12.4324C9.96755 12.4268 9.06511 12.8227 8.40906 13.4677C7.753 14.1155 7.34607 15.0096 7.33777 16.0007V16.0005ZM7.59802 33.0277L14.56 33.0803C14.5683 31.9786 14.5766 30.8768 14.5849 29.7751L7.62292 29.7224L7.59802 33.0277ZM13.3587 26.4892L13.3448 28.3993L8.8825 28.3661L8.89353 26.5723C9.53025 26.6941 10.1835 26.7605 10.8534 26.7661C11.7171 26.7717 12.5558 26.6774 13.3587 26.4892ZM14.549 34.4478L14.5075 39.8845C14.4936 41.8002 12.9158 43.3531 11.0029 43.3392C9.08728 43.3254 7.53435 41.7475 7.54822 39.8319L7.58699 34.3952L14.549 34.4478ZM33.1625 35.9676C31.8255 40.2472 40.0664 40.7095 40.0664 43.3393H18.8038C18.8038 40.7095 27.0447 40.2472 25.7077 35.9676H33.1625ZM15.9137 34.6001H44.7446C46.6353 34.6001 48.2049 33.1606 48.4152 31.3225H15.9385L15.9246 33.0886L15.9163 34.4561L15.9135 34.6001H15.9137ZM27.4987 33.645C27.1222 33.645 26.8149 33.3405 26.8149 32.9612C26.8149 32.5847 27.1221 32.2775 27.4987 32.2775H31.3715C31.7479 32.2775 32.0552 32.5847 32.0552 32.9612C32.0552 33.3405 31.748 33.645 31.3715 33.645H27.4987ZM22.6931 25.0248C22.3139 25.0248 22.0093 24.7203 22.0093 24.3411C22.0093 23.9646 22.3138 23.6573 22.6931 23.6573H44.7945C45.171 23.6573 45.4783 23.9645 45.4783 24.3411C45.4783 24.7203 45.1711 25.0248 44.7945 25.0248H22.6931ZM22.6931 21.5784C22.3139 21.5784 22.0093 21.2739 22.0093 20.8946C22.0093 20.5181 22.3138 20.2109 22.6931 20.2109H44.7945C45.171 20.2109 45.4783 20.5181 45.4783 20.8946C45.4783 21.2739 45.1711 21.5784 44.7945 21.5784H22.6931ZM22.6931 18.1319C22.3139 18.1319 22.0093 17.8274 22.0093 17.4482C22.0093 17.0718 22.3138 16.7644 22.6931 16.7644H44.7945C45.171 16.7644 45.4783 17.0717 45.4783 17.4482C45.4783 17.8275 45.1711 18.1319 44.7945 18.1319H22.6931ZM22.6931 14.6855C22.3139 14.6855 22.0093 14.3783 22.0093 14.0018C22.0093 13.6254 22.3138 13.318 22.6931 13.318H44.7945C45.171 13.318 45.4783 13.6253 45.4783 14.0018C45.4783 14.3784 45.1711 14.6855 44.7945 14.6855H22.6931Z" fill="#66170E"/>
</svg>
