<svg width="50" height="50" viewBox="0 0 50 50" fill="none" xmlns="http://www.w3.org/2000/svg">
<path fill-rule="evenodd" clip-rule="evenodd" d="M11.685 13.2919C11.685 13.2011 11.7367 13.1328 11.8262 13.1093L28.9551 8.51924C29.2327 8.44492 29.4915 8.4082 29.7551 8.4082C30.0187 8.4082 30.2774 8.44492 30.5551 8.51924L47.684 13.1093C47.7734 13.1328 47.8252 13.2011 47.8252 13.2919C47.8252 13.3827 47.7734 13.451 47.684 13.4744L46.8605 13.6951L30.3527 12.2029C30.028 12.1737 29.7457 12.4119 29.7175 12.7343C29.6893 13.0566 29.9245 13.3408 30.2492 13.37L43.5759 14.5752L46.9627 14.8814C47.2656 14.9089 47.4958 15.1607 47.4958 15.4649V19.538C47.3084 19.4938 47.1131 19.4704 46.9122 19.4704C46.7098 19.4704 46.5128 19.4942 46.3238 19.5391V16.0005L40.2923 15.4551L30.5551 18.0645C30.0045 18.2127 29.5104 18.2127 28.9551 18.0645L11.8262 13.4744C11.7367 13.4509 11.685 13.3826 11.685 13.2919ZM12.3861 27.8613C12.7202 27.459 12.7861 26.9568 12.5696 26.482C12.179 25.6378 12.2025 24.8642 12.6355 24.1179C13.0638 23.372 13.7226 22.9664 14.6496 22.8798C15.1672 22.8309 15.572 22.5222 15.7508 22.0332C15.8685 21.7217 16.0143 21.4539 16.1931 21.2276L9.57686 16.3097C9.59102 16.5689 9.58623 16.8447 9.5627 17.1346C9.44502 18.5067 8.89922 20.0917 8.02861 21.5975C7.16279 23.1043 6.06162 24.3673 4.93223 25.155C4.69229 25.3221 4.45225 25.4646 4.22168 25.5818L11.8309 28.8711C11.9344 28.5243 12.1179 28.1893 12.3861 27.8612V27.8613ZM7.01689 21.0116C7.80273 19.6512 8.29219 18.2381 8.3957 17.0348C8.471 16.1374 8.32041 15.4588 7.98154 15.1229L7.79336 14.9845C7.66631 14.913 7.51104 14.8768 7.33691 14.8768C7.22402 14.8768 7.10635 14.8923 6.9793 14.9205C8.20283 15.8532 7.62402 18.456 6.36289 20.6356C5.69941 21.7843 4.88525 22.7636 4.07119 23.3932C3.43125 23.8845 2.82412 24.1357 2.29238 24.1357C2.09004 24.1357 1.89707 24.0995 1.71826 24.0261C1.82178 24.3428 1.97705 24.5748 2.18887 24.7042L2.3959 24.7927C3.42646 25.0797 5.46397 23.6953 7.01689 21.0116ZM3.32617 22.4883C3.08467 22.5963 2.90654 22.6093 2.81562 22.5562C2.66709 22.4702 2.55479 22.0979 2.63906 21.4609C2.73936 20.7145 3.07246 19.8259 3.57412 18.9562C4.58145 17.2071 5.70527 16.4694 6.1748 16.4694C6.22695 16.4694 6.2751 16.4799 6.31123 16.5007C6.38135 16.541 6.43838 16.6358 6.47471 16.7779C6.58643 16.4272 6.55117 15.7919 6.07568 15.7919C5.5251 15.7919 4.20752 16.6568 3.02637 18.7076C2.43818 19.7273 2.04756 20.7691 1.92988 21.6444C1.75586 22.9601 2.43633 23.5442 3.32607 22.4882L3.32617 22.4883ZM13.4638 31.8795C13.2803 31.8112 13.1108 31.7304 12.9556 31.6404L10.0238 33.6728L11.2991 33.9589C11.5768 34.0205 11.7649 34.2714 11.7556 34.5532L11.7038 35.8591L14.4144 33.5565C14.3626 33.3777 14.3297 33.1871 14.3108 32.9829C14.2591 32.4634 13.9531 32.0611 13.4638 31.8795ZM17.9107 35.0634C17.7319 35.1453 17.5578 35.2078 17.3837 35.2535L16.7484 38.7636L17.8543 38.0643C18.0896 37.9132 18.4049 37.9541 18.5979 38.1616L19.4825 39.1221L19.7695 35.5739C19.6096 35.4831 19.4495 35.3749 19.2896 35.245C18.8896 34.9118 18.386 34.8455 17.9107 35.0634ZM36.7666 31.7097L27.1527 27.5555C27.0445 27.8223 26.8892 28.0839 26.6774 28.3399C26.3434 28.7423 26.2774 29.2439 26.4939 29.7188C26.8798 30.5634 26.861 31.337 26.428 32.0829C25.9951 32.8292 25.3363 33.2344 24.414 33.3214C23.8916 33.3698 23.4916 33.6785 23.3081 34.168C23.1622 34.5661 22.9646 34.8936 22.7104 35.1524L31.1525 41.4285C32.3243 42.0643 34.6771 40.8271 36.343 37.9435C37.1194 36.593 37.5665 35.1689 37.5994 33.9327C37.6276 32.8594 37.3265 32.0519 36.7665 31.7098L36.7666 31.7097ZM29.7551 19.3477C29.3928 19.3477 29.0257 19.2969 28.6492 19.1961L18.8942 16.5807V20.444C19.1907 20.5494 19.4824 20.7193 19.7695 20.9561C20.1742 21.2888 20.673 21.3556 21.1483 21.1377C21.9953 20.7509 22.7671 20.7725 23.5153 21.2031C24.2589 21.6337 24.6635 22.293 24.7529 23.2177C24.8 23.7372 25.1105 24.1396 25.6 24.3212C26.4706 24.6444 27.0023 25.2068 27.2235 26.0388C27.2518 26.1395 27.2706 26.2393 27.2894 26.3366L27.7223 26.5253C28.3952 26.5846 29.0775 26.6151 29.7552 26.6151C33.6703 26.6151 37.4208 25.6392 40.6207 23.7907V16.5806L30.861 19.196C30.4846 19.2967 30.1175 19.3476 29.7552 19.3476L29.7551 19.3477ZM46.9122 23.3866C47.6698 23.3866 48.2815 22.7716 48.2815 22.0145C48.2815 21.2573 47.6698 20.6423 46.9122 20.6423C46.1546 20.6423 45.5381 21.2587 45.5381 22.0145C45.5381 22.7702 46.1545 23.3866 46.9122 23.3866ZM47.6792 24.4402C47.4392 24.5174 47.1804 24.5584 46.9122 24.5584C46.6863 24.5584 46.4698 24.5302 46.2628 24.4756L46.004 25.0389C45.7781 25.5227 45.6793 25.9758 45.6793 26.509V29.58C45.6793 29.8449 45.891 30.0605 46.1546 30.0605H47.8062C48.0697 30.0605 48.2815 29.8449 48.2815 29.58V26.509C48.2815 25.9759 48.1828 25.5227 47.9568 25.0389L47.6792 24.4403V24.4402ZM22.2117 33.7595C22.0187 34.2762 21.7506 34.5378 21.2894 34.662C20.8234 34.7862 20.4611 34.6931 20.0377 34.3415C19.5766 33.9599 19.0307 33.7646 18.4707 33.7646C18.1225 33.7646 17.7648 33.8417 17.426 33.9979C16.9225 34.2271 16.5507 34.2233 16.1319 33.9834C15.7179 33.7438 15.5296 33.4216 15.4778 32.8729C15.3837 31.9021 14.7861 31.1209 13.8731 30.7812C13.3555 30.5896 13.092 30.3219 12.9696 29.8584C12.8473 29.3953 12.9367 29.033 13.2896 28.6081C13.9108 27.857 14.0378 26.8806 13.6332 25.994C13.4026 25.4929 13.4073 25.1192 13.6474 24.7042C13.8874 24.2892 14.2073 24.0985 14.7579 24.0468C15.7273 23.955 16.5084 23.3555 16.852 22.4412C17.0401 21.9245 17.3084 21.6629 17.7743 21.5387C18.2354 21.4149 18.5979 21.5076 19.0214 21.8592C19.7743 22.4804 20.7483 22.6093 21.6378 22.2031C22.1366 21.9734 22.5131 21.9772 22.9271 22.2177C23.3412 22.4567 23.5342 22.7791 23.5859 23.3277C23.6754 24.2985 24.2776 25.0797 25.1906 25.4199C25.7083 25.6119 25.9671 25.8787 26.0941 26.3427C26.2165 26.8058 26.1224 27.1681 25.7741 27.5925C25.1529 28.3436 25.0212 29.3199 25.4306 30.207C25.6564 30.7077 25.6518 31.0818 25.4117 31.4969C25.1765 31.9119 24.8518 32.1034 24.3012 32.1543C23.3317 32.246 22.5506 32.8465 22.2118 33.7594L22.2117 33.7595ZM23.1152 30.1699C24.254 28.1931 23.5764 25.6571 21.6 24.5164C20.6447 23.964 19.5295 23.8162 18.4612 24.1023C17.3931 24.3885 16.4989 25.0741 15.9483 26.0313C14.8049 28.0077 15.4872 30.5436 17.4636 31.6848C18.0988 32.0527 18.8047 32.2409 19.5246 32.2409C19.8822 32.2409 20.2446 32.1943 20.6022 32.0983C21.6704 31.8122 22.5598 31.1266 23.115 30.1699H23.1152ZM21.0165 25.5311C20.5554 25.2675 20.0519 25.1329 19.5342 25.1329C19.2801 25.1329 19.0213 25.1658 18.7625 25.2341C17.9955 25.4393 17.3602 25.9306 16.9602 26.6171C16.5648 27.3037 16.4613 28.1031 16.6637 28.8679C16.8707 29.6335 17.3602 30.2734 18.0472 30.6697C18.7342 31.0664 19.5342 31.1718 20.3012 30.9667C21.0635 30.7615 21.7035 30.2702 22.0987 29.5842C22.9176 28.1668 22.4328 26.3494 21.0164 25.5312L21.0165 25.5311Z" fill="#66170E"/>
</svg>
